<?xml version="1.0" encoding="utf-8"?>
<!-- Generator: Adobe Illustrator 27.0.0, SVG Export Plug-In . SVG Version: 6.00 Build 0)  -->
<svg version="1.1" id="Layer_1" xmlns="http://www.w3.org/2000/svg" xmlns:xlink="http://www.w3.org/1999/xlink" x="0px" y="0px"
	 viewBox="0 0 100 100" style="enable-background:new 0 0 100 100;" xml:space="preserve">
<style type="text/css">
	.st0{fill:#FFFFFF;}
</style>
<g>
	<path class="st0" d="M11.3,42.7c0.2-0.8,0.3-1.6,0.6-2.4c5.2-13.2,14.5-22.4,27.7-27.7c3.8-1.5,7.7,0.4,9,4.4
		c1.3,4.2,2.6,8.5,3.8,12.7c1.7,5.8,3.4,11.6,5.2,17.4c0.8,2.5,0.3,4.6-1.6,6.5c-1.1,1.1-2.2,2.2-3.4,3.3c-1.6,1.6-3.6,2.2-5.8,1.5
		c-10.4-3.1-20.7-6.2-31.1-9.3C13.3,48.5,11.4,45.7,11.3,42.7z"/>
	<path class="st0" d="M51.9,12.2c2.4,0,4.7-0.1,6.9,0c6.7,0.4,13,2.1,18.9,5.3c3.9,2.1,4.8,5.7,2.1,9.3c-2.8,3.7-5.7,7.4-8.5,11.1
		c-2.7,3.5-5.4,7-8.3,10.7c-0.2-0.9-0.4-1.5-0.6-2.2c-3-10.1-5.9-20.2-9-30.3C53.1,14.9,52.5,13.7,51.9,12.2z"/>
	<path class="st0" d="M11.6,53c5.9,1.8,11.6,3.5,17.4,5.2c6.1,1.8,12.2,3.6,18.3,5.3c0.1,0,0.2,0.1,0.4,0.2
		c-0.3,0.3-0.5,0.5-0.8,0.7C40,69.9,33.2,75.1,26.4,80.4c-1.3,1-2.7,1.8-4.4,1.7c-2.1,0-3.7-0.9-4.7-2.7c-4.6-8.1-6.3-16.9-5.7-26.1
		C11.5,53.1,11.6,52.9,11.6,53z"/>
	<path class="st0" d="M72.2,44.8c4.2-5.3,8.2-10.5,12.4-15.9c1.3,1.9,2.5,3.5,3.6,5.3c1,1.6,1.8,3.4,2.6,5.1c1.1,2.4,0.6,4.8-1,6.5
		c-1.2,1.2-2.7,1.5-4.2,1.3C81.2,46.4,76.8,45.6,72.2,44.8z"/>
	<path class="st0" d="M28.2,85.3c5.3-4.1,10.5-8.2,15.8-12.4c0.6,3.7,1.2,7.2,1.8,10.6c0.1,0.7,0.2,1.4,0.3,2.1
		c1.1,4-2.2,7.6-6.7,6.2C35.4,90.5,31.8,88.1,28.2,85.3z"/>
</g>
</svg>
