<?xml version="1.0" encoding="utf-8"?>
<!-- Generator: Adobe Illustrator 27.0.0, SVG Export Plug-In . SVG Version: 6.00 Build 0)  -->
<svg version="1.1" id="Layer_1" xmlns="http://www.w3.org/2000/svg" xmlns:xlink="http://www.w3.org/1999/xlink" x="0px" y="0px"
	 viewBox="0 0 100 100" style="enable-background:new 0 0 100 100;" xml:space="preserve">
<style type="text/css">
	.st0{fill:#D7544A;stroke:#FFFFFF;stroke-width:20;stroke-miterlimit:10;}
</style>
<path class="st0" d="M11.5,23.5c0,4,3.2,7.2,7.2,7.2h2.4v9.6h9.6v-9.6h14.4v9.6h9.6v-9.6h14.4v9.6h9.6v-9.6h2.4c4,0,7.2-3.2,7.2-7.2
	v-10c0-1.1-0.9-2-2-2c-0.3,0-0.5,0-0.8,0.2l-7.4,2.9c-2.8,1.1-5.9,1.7-8.9,1.7H30.6c-3.1,0-6.1-0.6-8.9-1.7l-7.4-2.9
	c-0.2-0.1-0.5-0.2-0.8-0.2c-1.1,0-2,0.9-2,2V23.5z M21.1,54.8v28.9c0,2.7,2.1,4.8,4.8,4.8s4.8-2.1,4.8-4.8V54.8h38.5v28.9
	c0,2.7,2.1,4.8,4.8,4.8s4.8-2.1,4.8-4.8V54.8h4.8c2.7,0,4.8-2.1,4.8-4.8s-2.1-4.8-4.8-4.8H16.3c-2.7,0-4.8,2.1-4.8,4.8
	c0,2.7,2.1,4.8,4.8,4.8H21.1z"/>
</svg>
