<?xml version="1.0" encoding="utf-8"?>
<!-- Generator: Adobe Illustrator 27.0.0, SVG Export Plug-In . SVG Version: 6.00 Build 0)  -->
<svg version="1.1" id="Layer_1" xmlns="http://www.w3.org/2000/svg" xmlns:xlink="http://www.w3.org/1999/xlink" x="0px" y="0px"
	 viewBox="0 0 100 100" style="enable-background:new 0 0 100 100;" xml:space="preserve">
<style type="text/css">
	.st0{fill:#FFFFFF;}
</style>
<path class="st0" d="M7.1,20.5c0,4.4,3.6,8,8,8h2.7v10.7h10.7V28.6h16.1v10.7h10.7V28.6h16.1v10.7h10.7V28.6h2.7c4.4,0,8-3.6,8-8
	V9.4c0-1.2-1-2.2-2.2-2.2c-0.3,0-0.6,0.1-0.8,0.2l-8.2,3.3c-3.2,1.3-6.5,1.9-9.9,1.9H28.4c-3.4,0-6.8-0.7-9.9-1.9l-8.2-3.3
	C9.9,7.2,9.7,7.1,9.4,7.1c-1.2,0-2.2,1-2.2,2.2V20.5z M17.8,55.4v32.2c0,3,2.4,5.4,5.4,5.4s5.4-2.4,5.4-5.4V55.4h42.9v32.2
	c0,3,2.4,5.4,5.4,5.4s5.4-2.4,5.4-5.4V55.4h5.4c3,0,5.4-2.4,5.4-5.4s-2.4-5.4-5.4-5.4h-75c-3,0-5.4,2.4-5.4,5.4c0,3,2.4,5.4,5.4,5.4
	H17.8z"/>
</svg>
