<?xml version="1.0" encoding="utf-8"?>
<!-- Generator: Adobe Illustrator 28.4.1, SVG Export Plug-In . SVG Version: 6.00 Build 0)  -->
<svg version="1.1" id="Layer_1" xmlns="http://www.w3.org/2000/svg" xmlns:xlink="http://www.w3.org/1999/xlink" x="0px" y="0px"
	 viewBox="0 0 100 100" style="enable-background:new 0 0 100 100;" xml:space="preserve">
<style type="text/css">
	.st0{fill:#FFFFFF;}
</style>
<g>
	<path class="st0" d="M70.6,0.2c1,0.4,1.7,1.3,1.9,2.3l3.9,21.1l21.1,3.9c1,0.2,1.9,0.9,2.3,1.9c0.4,1,0.3,2.1-0.3,3L87.3,50
		l12.2,17.6c0.6,0.9,0.7,2,0.3,3c-0.4,1-1.3,1.7-2.3,1.9l-21.1,3.9l-3.9,21.1c-0.2,1-0.9,1.9-1.9,2.3c-1,0.4-2.1,0.3-3-0.3L50,87.3
		L32.4,99.4c-0.9,0.6-2,0.7-3,0.3c-1-0.4-1.7-1.3-1.9-2.3l-3.9-21.1L2.6,72.5c-1-0.2-1.9-0.9-2.3-1.9c-0.4-1-0.3-2.1,0.3-3L12.7,50
		L0.6,32.4c-0.6-0.9-0.7-2-0.3-3s1.3-1.7,2.3-1.9l21.1-3.9l3.9-21.1c0.2-1,0.9-1.9,1.9-2.3s2.1-0.3,3,0.3L50,12.7L67.6,0.6
		C68.5-0.1,69.6-0.2,70.6,0.2z M31.3,50c0-10.4,8.4-18.7,18.7-18.7S68.7,39.6,68.7,50S60.4,68.7,50,68.7S31.3,60.4,31.3,50z M75,50
		c0-13.8-11.2-25-25-25S25,36.2,25,50s11.2,25,25,25S75,63.8,75,50z"/>
</g>
</svg>
