<?xml version="1.0" encoding="utf-8"?>
<!-- Generator: Adobe Illustrator 27.0.0, SVG Export Plug-In . SVG Version: 6.00 Build 0)  -->
<svg version="1.1" id="Layer_1" xmlns="http://www.w3.org/2000/svg" xmlns:xlink="http://www.w3.org/1999/xlink" x="0px" y="0px"
	 viewBox="0 0 477 550" style="enable-background:new 0 0 477 550;" xml:space="preserve">
<path d="M308.01,479.27c-22-172.53-127.55-55.84-232.36-66.9c-47.12-4.26-92.34-70.53-36.13-89.44
	c36.45-6.78,59.93,30.88,92.74,39.84c43.38,19.41,111.17-21.25,74.13-68.62c-40.87-44.54-102.01,22.79-145.04-8.45
	c-62.47-54.69,58.27-75.42,101.48-60.92c42.98,13.36,73.47,49.91,115.22,65.62c57.19,25.31,149.61-81.89,173.93-8.87
	c11.81,59.61-69.72,72.8-113.18,64.49c-18.97-4.59-83.38-34.61-86.52-6.65c1.13,19.83,28.96,19.95,43.16,25.66
	C471.54,424.11,341.1,618.13,308.01,479.27z"/>
<path id="planet" d="M210.86,140.69c0.54,6.05,1.15,12.09,1.54,18.15c0.05,0.7-0.96,1.68-1.72,2.18c-3.55,2.38-7.19,4.63-10.78,6.96
	c-0.9,0.58-1.71,1.3-3.36,2.58c11.25,1.73,21.61,1.73,32.41,1.39c-8.71-24.77-7.12-48.34,6.82-70.36
	c11.54-18.23,27.95-29.93,49.04-35.4c37.81-9.81,90.43,14.01,97.38,66.92c9.46-4.67,18.56-9.64,26.88-15.92
	c-0.05-0.33-0.1-0.65-0.15-0.98c-4.69-0.39-9.39-1.05-14.09-1.08c-3.16-0.02-4.54-1.02-5.57-4.09c-1.61-4.78-4.03-9.29-6.23-14.19
	c9.47-0.44,18.9-0.27,28.22,1.44c4.38,0.8,8.76,1.98,12.9,3.59c9.95,3.86,12.33,12.84,5.07,20.63
	c-4.81,5.16-10.24,10.01-16.17,13.77c-9.01,5.71-18.65,10.44-28.14,15.35c-2.17,1.12-3.08,2.37-3.46,4.73
	c-6.73,42.3-46.36,71.85-88.91,65.83c-21.09-2.98-38.73-12.77-51.82-29.91c-1.72-2.25-3.4-2.88-6.1-2.71
	c-14.87,0.94-29.76,1.32-44.42-2.01c-3.73-0.85-7.5-2.15-10.82-4.01c-6.87-3.85-8.38-9.96-4.06-16.55c2.26-3.44,5.22-6.5,8.25-9.32
	C190.17,151.59,204.93,142.6,210.86,140.69z M248.39,115.81c-8.03,14.85-9.16,33.45-1.32,52.6c0.69,1.69,1.51,1.98,3.21,1.75
	c38.51-5.03,75.89-14.49,112.15-28.38c1.6-0.61,2.21-1.25,1.99-3.07c-2.9-23.55-14.4-41.07-36.28-50.97
	C299.56,74.8,266.11,85.58,248.39,115.81z M260.53,186.84c10.79,12.62,36.8,23.59,62.99,14.55c21.01-7.26,36.18-27.89,37.54-39.94
	C328.57,173.58,295.25,182.02,260.53,186.84z"/>
</svg>
