<?xml version="1.0" encoding="utf-8"?>
<!-- Generator: Adobe Illustrator 28.4.1, SVG Export Plug-In . SVG Version: 6.00 Build 0)  -->
<svg version="1.1" id="Layer_1" xmlns="http://www.w3.org/2000/svg" xmlns:xlink="http://www.w3.org/1999/xlink" x="0px" y="0px"
	 viewBox="0 0 100 100" style="enable-background:new 0 0 100 100;" xml:space="preserve">
<style type="text/css">
	.st0{display:none;}
	.st1{display:inline;}
	.st2{fill:#FFFFFF;}
</style>
<g id="Layer_2_00000056428694209774356160000002315743352534820795_" class="st0">
	<g class="st1">
		<path class="st2" d="M19.7,46.4c4.6-3,8.7-5.7,12.7-8.4c1-0.7,1.4-0.1,2.1,0.4c2.5,2,4.3,4.6,6.7,6.7c1.5,1.3,3,2.5,4.4,3.9
			c1.2,1.1,2.4,1.5,3.7,0.2c1.2-1.3,0.9-2.5-0.3-3.7c-3.7-3.7-7.4-7.3-11.2-11.1c4.2-2.8,8.3-5.5,12.4-8.3c1-0.7,1.4-0.2,2.1,0.4
			c2.2,1.7,3.8,4,5.8,5.9c1.6,1.5,3.3,2.9,4.9,4.4c1.1,1.1,2.3,1.3,3.5,0.2c1.2-1.2,1.1-2.5-0.2-3.7c-3.6-3.4-7.1-6.8-11.1-10.6
			c7.5-4.1,13-10.1,21.1-11.9c6.6-1.5,14.7,1.7,18.6,7.3c3,4.2,5.2,8.6,4.4,13.9c-0.9,6.7-4.4,11.9-10.1,15.7
			C70.1,60.5,51,73.3,31.8,86C18.5,94.8,1.5,86.4,0.5,70.5c-0.4-6.8,2.7-12.3,8-16.4c1.9-1.5,4.1-2.7,6.1-4.2
			c0.8-0.6,1.1-0.5,1.9,0.2c3.9,3.5,7.2,7.8,11.4,11c1.4,1.1,2.6,1.8,4,0.3c1.3-1.5,0.5-2.7-0.7-3.8C27.6,54,23.8,50.3,19.7,46.4z"
			/>
	</g>
</g>
<g>
	<path class="st2" d="M50,99.1c-2-0.2-3.1-1.4-3.5-3.3c-2.1-8.5-4.3-17-6.3-25.5c-0.5-2-1.3-3-3.5-3.5c-8.3-1.9-16.6-4.1-24.9-6.2
		c-2-0.5-3.9-1.1-3.9-3.5c-0.1-2.6,1.9-3.3,3.9-3.8c8.6-2.1,17.1-4.3,25.7-6.3c1.5-0.4,2.1-1.1,2.5-2.6c1.9-8.1,4-16.2,6-24.3
		c0.6-2.3,0.7-5.3,4-5.3c3.2,0,3.3,2.9,3.9,5.1c2,8.1,4.1,16.1,6,24.2c0.4,1.6,1,2.3,2.6,2.7c8.6,2,17.1,4.2,25.7,6.3
		c2,0.5,3.8,1.3,3.9,3.6c0,2.5-1.8,3.3-4,3.8c-8.6,2.1-17.1,4.2-25.7,6.3c-1.5,0.4-2.1,1-2.5,2.5c-2.1,8.8-4.4,17.5-6.5,26.3
		C53,97.8,52,98.9,50,99.1z"/>
	<path class="st2" d="M21.9,25.3c1.7-0.1,2.7,0.6,3.6,1.5c2.4,2.3,4.8,4.7,7.1,7.1c2.1,2.2,2.2,4.3,0.5,6c-1.7,1.7-3.9,1.7-6-0.4
		c-2.5-2.4-5-4.9-7.4-7.5c-1.2-1.2-1.5-2.8-0.8-4.4C19.4,26.3,20.6,25.5,21.9,25.3z"/>
	<path class="st2" d="M69.6,41.1C68.1,41,67,40.3,66.3,39c-0.7-1.3-0.7-2.8,0.3-4c2.7-3.2,5.7-6.2,8.9-8.9c1.5-1.3,3.3-1,4.8,0.3
		c1.5,1.3,2,3.2,0.8,4.7c-2.7,3.5-6,6.7-9.4,9.5C71.1,41,70.4,41.2,69.6,41.1z"/>
	<path class="st2" d="M22.6,88.6c-1.9-0.1-3.1-0.8-3.8-2.1c-0.8-1.4-0.8-3,0.3-4.2c2.8-3,5.7-5.9,8.8-8.7c1.6-1.4,3.5-1.1,5,0.4
		c1.4,1.4,1.8,3.2,0.6,4.8c-2.7,3.4-5.9,6.5-9.3,9.3C23.7,88.4,23,88.7,22.6,88.6z"/>
	<path class="st2" d="M69.5,72.8c1.5,0,2.5,0.7,3.4,1.5c2.4,2.3,4.8,4.7,7.1,7.1c2,2.1,2.1,4.3,0.4,6c-1.7,1.7-3.9,1.6-6-0.5
		c-2.5-2.4-5-5-7.4-7.5c-1.2-1.3-1.5-2.8-0.8-4.4C66.9,73.6,68.1,72.8,69.5,72.8z"/>
</g>
</svg>
