<?xml version="1.0" encoding="utf-8"?>
<!-- Generator: Adobe Illustrator 28.4.1, SVG Export Plug-In . SVG Version: 6.00 Build 0)  -->
<svg version="1.1" xmlns="http://www.w3.org/2000/svg" xmlns:xlink="http://www.w3.org/1999/xlink" x="0px" y="0px"
	 viewBox="0 0 527.4 271.5" style="enable-background:new 0 0 527.4 271.5;" xml:space="preserve">
<style type="text/css">
	.st0{display:none;}
	.st1{display:inline;fill:#F9F8E2;}
	.st2{display:inline;}
	.st3{fill:#FFFFFE;}
	.st4{fill:#73CFEB;}
	.st5{fill:#80D3EE;}
	.st6{fill:#3F99D2;}
	.st7{fill:#1779B8;}
	.st8{fill:#268AC9;}
	.st9{fill:#9B61A8;}
	.st10{fill:#5FC7F2;}
	.st11{fill:#66ACDE;}
	.st12{fill:#FCB751;}
	.st13{fill:#278AC9;}
	.st14{fill:#FCB451;}
	.st15{fill:#77D0E9;}
	.st16{fill:#010101;}
	.st17{fill:#F15F23;}
	.st18{fill:#66AEE0;}
	.st19{fill:#60C7F2;}
	.st20{fill:#FFFFFF;}
	.st21{fill:#FFFEFD;}
	.st22{fill:#FFFBF6;}
	.st23{fill:#FFFEFE;}
	.st24{fill:#9DE0F4;}
	.st25{fill:#F2E269;}
	.st26{fill:#358FBC;}
	.st27{fill:#6AB9D8;}
	.st28{fill:#FFB361;}
</style>
<g id="Layer_3" class="st0">
	<rect x="-33.5" y="-42" class="st1" width="602.1" height="366.3"/>
</g>
<g id="Layer_1" class="st0">
	<g id="Layer_1_00000098915290261161170020000017522829709719875998_" class="st2">
		<g>
			<path class="st3" d="M524.7,107.8c8.8,2.4,17.3,4.7,25.8,6.9c8.3,2.2,13.7,8.4,14.4,16.9c0.8,10.9-7.6,19.4-17.6,19.9
				c-4.8,0.3-9.1-1.5-13.6-2.6c-15.5-4.1-31-8.3-46.6-12.5c-0.3-0.1-0.6-0.1-1.2-0.1c2.8,3,5.2,5.9,7,9.3c7.7,14.7,8.2,29.4,0,44.1
				c-0.4,0.8-0.4,1.1,0.3,1.7c6.2,5.8,7.4,13.2,3.2,20.6c-0.3,0.6-0.4,1.2-0.3,1.8c1.6,7-1.1,12.8-7.4,16.3
				c-0.9,0.5-1.2,0.7-0.3,1.5c7,6.5,10.9,14.7,12.4,24c1.5,9.4-1.3,17.5-9.1,23.4c-1.6,1.2-2.2,2.4-2.4,4.3c-0.4,4.7-1.5,9.3-3,13.8
				c-2.4,7.3-7.6,11.7-15.1,13c-10.1,1.7-20,1.3-29.6-2.7c-6.7-2.8-12.4-7-17.1-12.5c-0.4-0.4-0.8-0.9-1.1-1.3
				c-1.6,1.9-3.2,3.7-4.9,5.5c-6,6.3-14.2,7.5-21.7,3.2c-3.3-1.9-6.4-3.9-9.1-6.6c-0.5-0.5-1.1-0.8-1.9-0.8
				c-10.4,0.1-19.8-2.8-28.3-8.8c-1.9-1.4-3.8-2.9-5.4-4.5c-0.9-0.9-1.9-1.3-3.1-1.4c-2.5-0.2-4.9-0.4-7.4-0.7
				c-1-0.1-1.9,0.1-2.8,0.7c-10,7.2-21,10.8-33.4,10.2c-3.2-0.2-6.3-0.8-9.4-1.5c-0.5-0.1-1-0.5-1.4,0.4
				c-2.5,6.4-7.7,10.6-12.8,14.8c-8.6,6.9-18.2,11.7-29,13.8c-20.7,4.1-39.2-0.6-55.3-14.3c-1-0.9-1.5-1.1-2.6-0.1
				c-4.9,4.1-9.8,8.1-14.8,12c-7.1,5.6-16.1,5.9-24.1,1c-10.1-6.1-20.1-12.2-30.1-18.4c-1.5-0.9-2.2-0.7-3.2,0.5
				c-2.3,2.8-4.6,5.5-7.1,8.1c-8,8.6-20.2,9.1-28.9,1.4c-2.9-2.6-5.9-5.1-8.8-7.7c-8.7-8.1-9.2-20.2-1.3-29.1
				c0.6-0.7,1.1-1.4,1.7-2.1c-1.7-1.1-3.4-2.1-5-3.4c-3.2-2.5-5.5-5.6-6.6-9.5c-0.3-0.9-0.5-1.2-1.5-0.7
				c-15.3,7.1-30.7,14.1-46.1,21.1c-3.6,1.6-7.2,3.5-11.3,3.8c-10.5,0.7-19.5-7.1-20-17.7c0-1.1-0.4-1.9-1.2-2.7
				c-4-3.5-6.1-8-6.2-13.4c0-0.8-0.1-1.4-0.8-2c-10.5-9.9-7.6-25.7,5.7-31.6c12.9-5.8,25.7-11.7,38.6-17.6c2.1-0.9,4.2-1.6,6.8-2.1
				c-1.6-1.2-2.9-2.2-4.2-3.2c-9.2-6.8-18.5-13.5-27.6-20.3c-6.3-4.7-8.5-11.1-7.6-18.8c0.8-6.9,1.5-13.8,2.3-20.7
				c0.9-8.2,1.8-16.5,2.7-24.8c0.6-5.9,1.3-11.7,1.9-17.6c0.7-7.5,4.1-13.2,10.9-16.6c3.5-1.8,7.1-3.3,10.8-4.8c1-0.4,1-0.8,0.6-1.6
				c-2.3-4.6-4.5-9.2-6.7-13.8c-3.6-7.2-2.9-14,2.3-20.4c-5.9-4.4-7.7-10.9-8.9-17.7C5.8,5.2,4.4-2.6,2.8-10.5
				c-1.7-8.9,3-16.3,11.8-18.3c3.8-0.9,7.6-1.7,11.4-2.1c3.2-0.3,4.3-0.7,7.2-2.5c2.1-1.3,4.4-2.2,6.7-2.6c3.7-0.7,7.3-2.4,11.2-2.3
				c7.3,0.3,15.5,6,18,13c0.1,0.2,0.2,0.4,0.3,0.7c2.3-1,4.6-2.2,7.1-2.6c3.2-0.6,6.2-0.2,9.1,1.1c0.7,0.3,1.3,0.6,2.2,0.4
				c4.4-1.2,8.8-0.4,13,0.8c0.9,0.2,1.8,0.3,2.8,0.4c5,0.6,9,3,11.5,7.3c1.9,3.2,3.8,4.9,7.8,3.8c1.6-0.4,2.5-0.8,3.2-2.3
				c1.8-3.9,4.9-6.5,9.1-7.6c11.1-2.9,22.2-5.9,33.5-8.4c11-2.4,21.8,4.1,23.4,16.4c0.7,5.1,0.4,10.2-0.8,15.2c-0.3,1.1,0,1.4,1,1.3
				c5.3-0.2,10.2,1.5,15.2,2.5c1.6,0.3,3.1,0.9,4.3,2c2,1.8,4.5,2.4,7,2.9c3.5,0.7,7,1.6,10.5,2.4c0.9,0.2,1.5,0.3,2-0.9
				c2.8-6.6,8.2-9.9,15.4-9.4c7.2,0.5,14.4,0.8,21.5,1.8c6.8,1,11.9,4.9,15,11.1c0.5,1.1,0.9,1.1,1.8,0.4c1.6-1.3,3.4-2.6,5.1-3.8
				c6.2-4.5,13.1-4.3,19,0.5c0.2,0.1,0.4,0.3,0.7,0.5c0.6-2.1,1.5-4,2.7-5.7c2.2-2.9,5.3-4.4,8.6-5.7c0.9-0.3,1.4-0.9,1.9-1.6
				c4.4-5.4,9.3-10.1,16.3-12.1c1.7-0.5,3.5-0.5,5.3-0.1c1.3,0.3,2.4,0.1,3.5-0.6c2.6-1.4,5.5-1.7,8.4-1.9c3.1-0.2,6.2-0.2,9.3-0.4
				c1-0.1,2.3,0.6,2.9,0.1s0.3-1.9,0.5-2.8c0.8-3.5,1.9-6.9,3.1-10.2c3-7.8,10.9-11.5,19-8.9c1.8,0.6,3,0.5,4.6-0.6
				c3.3-2.3,7.1-2.7,11-2c3.2,0.6,6.5,1.2,9.6,2c6.3,1.6,10.3,5.6,11.5,12.2c0.2,0.9,0.5,1.7,1.1,2.5c3.5,4,4.5,8.7,3.2,13.8
				c-0.8,2.9-1.7,5.9-2.7,8.8c-1.1,3.3-3.1,6-6.1,7.8c-1,0.6-1.4,1.4-1.6,2.5c-0.5,2.9-1.1,5.8-1.7,8.8c2.2-0.3,4.3-0.5,6.5-0.1
				c3.5,0.5,6.3,2.5,9.2,4.3c6.2,3.7,12.4,7.4,18.6,11.1c5.6,3.4,9.1,8.2,9.9,14.8c0.1,0.7,0.2,1.2,1,1.4c3.7,1,7.3,2.1,11,3.2
				c4.5,1.3,9,2.6,13.6,3.9c0.1-2.2,0-4.3,0.7-6.4c1.9-5.9,5.9-9.6,11.9-10.4c5.2-0.7,10.5-0.6,15.7,0.1c1.3,0.2,2.7,0.6,3.8,1.4
				c2.5,1.8,5.1,1.6,7.9,1.2c4.3-0.6,8.3,0.4,11.8,3.1c1.7,1.3,3.4,2.8,4.9,4.3c4.9,4.9,5.9,12.2,2.4,18.2c-0.5,0.9-0.7,1.6-0.5,2.6
				c0.8,4.2-0.5,8-2.7,11.6c-1.6,2.6-3.2,5.2-4.8,7.8c-2.3,3.6-5.4,6-9.6,6.9c-1.2,0.2-1.6,0.7-1.7,1.9
				C529.3,101.8,527.5,104.9,524.7,107.8z"/>
			<path class="st4" d="M134,124.3c-0.2,2.5-0.4,5-0.6,7.6c0,1.1-1,1.4-1.7,1.9c-3.5,2.4-6.4,5.4-8.5,9.1
				c-3.1,5.4-3.2,11.1-1.2,16.9c1.2,3.3,3,6.3,5.2,9c0.5,0.6,1.1,1.1,0.9,2c-3.8,2.4-7.9,3.8-12,5.6c-11.7,5.2-23.4,10.3-35.1,15.4
				c-5,2.2-10,4.4-15,6.6c-2.4,1.1-4.4,0.4-6.4-1.1c-8.2-6-16.4-12.1-24.6-18.1c-9.2-6.8-18.4-13.5-27.6-20.3
				c-2-1.5-2.6-3.4-2.3-5.9c0.6-4.8,1-9.6,1.6-14.4c0.7-6.1,1.4-12.1,2-18.2c0.5-4.8,1-9.6,1.5-14.4c0.6-5.8,1.2-11.7,1.9-17.5
				c0.3-2.7,2-4.2,4.4-5.2c7.2-3.1,14.4-6.2,21.5-9.4c0.6-0.3,1.2-0.4,1.7-1c0.7,0.1,0.9,0.7,1.2,1.2c3.1,6.1,6,12.3,9,18.4
				c3.5,7.1,6.8,14.2,10.4,21.3c0.9,1.8,2.6,2.4,4.4,2.5c4.8,0.1,9.7,0.1,14.5,0c2.2,0,3.8-1.2,5.1-2.8c3.3-3.9,6.2-8,8.6-12.5
				c4.2-7.5,7.7-15.2,10.8-23.2c0.4-1,0.6-2.2,1.7-2.7c1.1,1.8,3,2.5,4.6,3.8c2.7,2.1,5.5,4.1,8.2,6.1c0.7,0.9,0.2,1.8,0,2.7
				c-2.2,9.4-4.4,18.8-6.7,28.2c-0.7,3.1-0.4,3.6,2.6,4.3c5.4,1.3,10.8,2.5,16.2,3.9C131.4,124.4,132.7,124.2,134,124.3z"/>
			<path class="st5" d="M156.7,207.5c5.8,2.6,11.9,4.8,17.8,7.1c2.9,1.1,4.8,3,5.2,6.2c1.3,9.1,2.8,18.1,4.2,27.1
				c1.1,7.2,2.3,14.4,3.4,21.6c0.8,5.4,1.8,10.8,2.4,16.2c0.2,2-0.4,3.7-1.8,5.1c-3.7,3.5-7.8,6.5-11.7,9.7c-1.5,1.2-3,2.5-4.5,3.7
				c-2.6,2-5,2.2-7.8,0.5c-12.4-7.5-24.8-15-37.2-22.5c-1.1-0.6-2.1-1.3-3.2-1.9c-2.2-1.3-2.2-1.3-3.9,0.7
				c-4.6,5.3-9.2,10.6-13.8,15.8c-3.2,3.6-6.6,3.7-10.2,0.6c-2.8-2.5-5.6-4.8-8.3-7.4c-3-2.8-3.1-6.2-0.3-9.4
				c4-4.5,7.9-9.1,11.9-13.5c0.9-1,0.8-1.4-0.3-2c-5.1-3-10.1-6-15.1-9.1c-4.2-2.6-4.9-6-2.3-10.2c1.9-3,3.6-6.1,5.5-9
				c2.3-3.6,5.7-4.3,9.3-2.1c6.4,3.9,12.8,7.7,19.2,11.6c1,0.6,1.6,0.5,2.4-0.3c5.3-6.1,10.7-12.2,16-18.4
				c3.7-4.2,7.4-8.4,11.1-12.6c0.3-0.3,0.9-0.5,0.5-1.1c1.9-2.4,3.6-4.9,6.4-6.4C153.1,206.5,154.9,206.3,156.7,207.5z"/>
			<path class="st6" d="M195.5,257.1c0-9.8,1.9-18.1,6.6-25.6c5.2-8.2,12.7-13.6,21.9-16.7c11.1-3.8,22.4-4.2,33.7-0.9
				c2.8,0.8,5.5,2,8.1,3.5c1.9,1.1,2.4,2.5,1.7,4.6c-1.7,4.8-3.4,9.7-5.1,14.5c-1,2.7-2.2,3.2-4.9,1.9c-6.7-3.3-13.7-4.3-20.9-2.2
				c-7.3,2.1-11.3,7.3-12.6,14.6c-0.7,3.8-0.6,7.5,0.6,11.2c2.5,7.4,8.8,11.6,16.2,12.3c8.8,0.9,16.3-2.4,22.6-8.3
				c0.4-0.4,0.8-0.8,1.3-1.2c1.5-1.3,3.4-1,4.4,0.7c2.6,4.6,5.2,9.2,7.8,13.9c1,1.9,0.8,2.9-1,4.7c-5.8,5.8-12.4,10.4-20.1,13.2
				c-12,4.4-23.9,4.1-35.5-1.4c-11.7-5.6-19.4-14.7-23-27.2C196,264.6,195.4,260.4,195.5,257.1z"/>
			<path class="st6" d="M105.2,75.2c-3.1,7.4-6.1,14.9-9.8,22.1c-3.3,6.2-6.8,12.2-11.7,17.4c-1.4,1.6-3.2,2.3-5.3,2.3
				c-4.4,0-8.8,0-13.3,0c-2.7,0-4.6-0.9-5.9-3.6c-4.9-10.4-10.1-20.6-15-31c-1.5-3.1-2.9-6.3-4.6-9.3c-4.4-9.2-8.9-18.3-13.3-27.5
				c-0.3-0.6-0.6-1.2-0.8-1.8c-0.5-1.7,0-3.1,1.7-3.8c6-2.6,11.9-5.1,17.9-7.6c2.8-1.2,4.7-0.3,5.8,2.4c4.1,9.3,8.2,18.7,12.3,28
				c1.2,0.9,1.5,2.4,2,3.6c2.2,4.8,4.2,9.6,6.3,14.4c0.2,0.5,0.3,1.3,1,1.3s0.8-0.8,1.1-1.3c2.5-5.6,4.7-11.4,7-17.1
				c0.6-1.6,0.8-3.4,2.3-4.7c3.1-8.1,6.2-16.2,9.3-24.2c1-2.5,1.9-3.1,4.5-2.3c5.6,1.8,11.2,3.6,16.8,5.5c2.4,0.8,3,2,2.4,4.5
				c-2.2,9-5.2,17.8-8.4,26.6C106.8,71,106,73.1,105.2,75.2z"/>
			<path class="st6" d="M383.2,220.6c4.7,0.1,10.9,2.3,16.4,6.1c1.4,0.9,1.7,0.7,2.2-0.7c2.8-7.6,5.7-15.1,8.5-22.6
				c1.1-2.9,2.4-3.6,5.3-2.6c5.3,1.7,10.7,3.4,16,5.1c3.2,1.1,3.7,2.2,2.5,5.4c-5.9,15-11.9,30-17.2,45.2c-1.4,4.1-2.6,8.3-2.3,12.8
				c0.1,2.6,1.2,4.6,3.1,6.3c1,0.9,1.1,1.8,0.2,2.9c-2.9,3.3-5.7,6.8-8.6,10.1c-2.3,2.6-3.3,2.7-6.2,1c-3.7-2.2-7-4.8-9.3-8.5
				c-0.5-0.8-1-0.9-1.9-0.8c-9.9,1.6-19,0-27-6.2c-8.1-6.3-12.5-14.6-12.3-25C352.7,233.9,366.3,220.5,383.2,220.6z"/>
			<path class="st7" d="M332.5,138.2c6.2,0,12,1.8,17.2,5c1.2,0.8,1.6,0.5,2-0.8c2.4-7.9,4.9-15.7,7.3-23.6c0.8-2.6,2-3.3,4.6-2.7
				c5.7,1.4,11.4,2.8,17.1,4.4c2.8,0.8,3.3,1.9,2.4,4.8c-4.9,15.4-10,30.6-14.4,46.1c-1.2,4.3-2.2,8.6-1.7,13.2
				c0.3,2.4,1.2,4.4,3.1,5.9c1.4,1.1,1.5,2.1,0.4,3.6c-2.6,3.3-5.1,6.8-7.7,10.2c-2.1,2.7-3.2,2.9-6.1,1.4c-3.9-2-7.4-4.4-9.9-8.1
				c-0.7-1-1.5-0.6-2.4-0.4c-7.3,1.6-14.5,1.4-21.3-1.7c-11.8-5.3-18.9-14.2-19.4-27.4c-0.5-13,9.8-28,25.4-29.8
				C330.4,138.1,331.5,138.2,332.5,138.2z"/>
			<path class="st6" d="M311.3,73.7c1,0.1,2.7-0.1,4.5,0.3c1.1,0.3,2.2,0.2,3.2-0.6c1.4-1.1,3.3-0.8,5-1c4.8-0.6,9.6-1,14.4-1.5
				c2.9-0.3,4,0.8,4.1,3.7c0.3,7.9,0.4,15.9,1.8,23.7c0.4,2.2,0.9,4.4,1.8,6.4c1.1,2.4,2.7,4.3,5.3,5c1.7,0.5,2,1.5,1.5,3.1
				c-1.2,4.1-2.4,8.2-3.7,12.3c-1,3.2-2,3.7-5.3,3.4c-3.9-0.4-7.5-1.4-10.9-3.4c-1.1-0.7-1.7,0.3-2.3,0.7
				c-5.7,4.1-12.1,6.2-19.1,6.4c-13.5,0.3-25.7-7.8-29.9-19.9c-4.3-12.6,0.7-29.7,14.3-36C300.6,74.5,305.4,73.5,311.3,73.7z"/>
			<path class="st8" d="M223.6,58.5c3.2,0,6.5-0.1,9.7,0c2.3,0.1,2.9,0.8,3,3.2c0,7.8-0.6,15.6-0.8,23.3c0,2.1-0.1,4.2,0.3,6.3
				c1.1,5.4,4.7,7.5,10.1,6.2c2.5-0.6,3.6-1.5,4-4.2c1.2-10.2,2.9-20.3,4.4-30.4c0.4-2.5,1-3.1,3.5-2.7c6.2,0.9,12.5,1.8,18.7,2.8
				c1.9,0.3,2.5,1.2,2.2,3.1c-2.5,16.8-4.9,33.7-7.4,50.5c-0.4,2.8-1.2,3.4-4,2.9c-5.8-0.9-11.5-1.8-17.3-2.6
				c-2.7-0.4-5.4,0.7-8,0.9c-6,0.4-11.9-0.1-17.4-2.7c-7.8-3.7-11.7-10.2-13-18.5c-0.8-5.4-0.2-10.8,0.1-16.2
				c0.3-5.6,0.8-11.3,1.3-16.9c0-0.5,0.1-0.9,0.1-1.4c0.7-3.5,1.2-3.9,4.8-3.9c1.9,0,3.9,0,5.8,0C223.6,58.2,223.6,58.3,223.6,58.5z
				"/>
			<path class="st8" d="M254.7,197c-11-0.1-18.8-5.8-22.8-16.6c-2.3-6.2-3.1-12.8-4.5-19.2c-0.9-3.9-1.6-7.9-2.3-11.8
				c-0.2-0.9-0.2-1.8-0.2-2.6c0.1-1.5,0.7-2.6,2.4-3.1c5.4-1.3,10.7-2.8,16.1-4.1c2.5-0.6,3.5,0.1,4.1,2.8
				c1.9,8.1,3.8,16.1,5.8,24.2c0.5,2.2,1.4,4.2,2.7,6.1c1.8,2.5,4.3,3.1,7.2,2.5c2-0.4,3.6-1.6,5.4-2.6c0.7-0.4,0.5-1,0.5-1.5
				c-1.4-10.9-2.7-21.8-4.1-32.8c-0.3-2.2,0.3-3.1,2.5-3.3c6.3-0.8,12.6-1.6,18.9-2.3c1.7-0.2,2.7,0.5,2.9,2.3
				c0.9,6.9,1.7,13.8,2.5,20.7c1.1,9.1,2.3,18.1,3.4,27.1c0.2,1.4,0.4,2.8,0.5,4.2c0.1,1.5-0.7,2.4-2.1,2.5
				c-6,0.7-11.9,1.5-17.9,2.1c-1.1,0.1-2.2,0.5-3.2,0.9C266.9,195.2,261,197,254.7,197z"/>
			<path class="st8" d="M156.7,207.5c-3.8-1.1-6.6,0.5-8.8,3.5c-0.8,1.1-1.7,2.1-2.9,2.8c-3.8,1.3-7.7,2.3-11.6,2.8
				c-3.4,0.5-4.3,0-5.5-3.2c-1.6-4.2-3.1-8.4-4.7-12.6c-0.9-2.5-0.4-3.4,2.3-3.9c3.1-0.6,6-1.7,8.5-3.6c4.2-3.2,5.1-7.6,2.4-12.1
				c-2.3-3.9-5.4-7.1-8.3-10.5c-2.4-3.2-4.9-6.5-6.3-10.3c-2.9-7.8-1.7-14.8,3.4-21.3c2.3-2.9,5.3-4.9,8.2-7.2
				c5.4-3,11.1-5.3,17.3-6.2c1.7-0.3,3.4-0.6,5.1-0.5c1.6,0.1,2.6,0.8,3.2,2.3c1.7,4.5,3.5,9,5.2,13.5c0.9,2.4,0.2,3.5-2.4,3.9
				c-2.6,0.4-5.1,1.1-7.3,2.5c-4,2.6-5,6.5-2.7,10.7c1.9,3.5,4.5,6.4,7.1,9.4c2.8,3.1,5.3,6.3,7.1,10.1c4.9,10.1,1.9,19.4-5.2,26.4
				C159.5,205.2,158.1,206.3,156.7,207.5z"/>
			<path class="st7" d="M277.3,246.1c0.1-17.2,11.9-29.8,29-31.3c7.4-0.6,14.5,0.1,21,3.7c9,5,14,12.9,15.4,23
				c1.9,13.5-5.8,24.4-17.2,30.3c-9.8,5.1-19.9,6.2-30.3,1.8C284,268.9,277.2,258.4,277.3,246.1z"/>
			<path class="st7" d="M461,196.9c-6.7,1.7-13.4,2.2-20,0c-11.5-3.8-19.4-11.3-21.4-23.5c-2.7-16.3,6.7-34.2,27.3-36.3
				c8.3-0.9,16.3,0.4,23.5,4.7c8.7,5.2,13.4,13.2,14.4,23.3c1.2,12-3.9,21.1-13.8,27.6c-1,0.2-1.7-0.4-2.4-0.9
				c-2.2-1.5-4.4-3.1-7-4.7c0,2.7,0,5.1,0,7.5C461.5,195.4,461.7,196.2,461,196.9z"/>
			<path class="st7" d="M460.7,297c-11.8-0.2-21.7-4.4-28-14.8c-9.1-14.8-4.8-35.2,13.6-42.9c7-2.9,14.3-4.4,21.9-2.9
				s12.7,6,16.1,12.8c1.2,2.4,2.1,5,2.6,7.7c1.2,6.1-0.9,10.2-6.4,12.8c-5.2,2.5-10.6,4.1-16.2,5.3c-1.4,0.3-2.5,0-3.2-1.5
				c-1.4-3-2.9-6.1-4.3-9.1c-0.7-1.3-0.1-2.1,1-2.7c1.4-0.7,2.9-1.2,4.4-1.9c2-1,2.2-2,0.5-3.6c-3.3-3.2-9.3-1.9-11.7,2.6
				c-2.5,4.6-1.7,9.2,1,13.4c3.8,5.8,9.6,7.5,16.1,6.9c1.5-0.1,2.9-0.5,4.4-0.6c2.3-0.1,3.4,0.9,3.1,3.2c-0.4,3.8-1.4,7.5-2.5,11.2
				c-0.6,2.1-2.3,3-4.4,3.4C466,296.7,463.4,297,460.7,297z"/>
			<path class="st7" d="M207.3,136.7c0,1.9,0.1,3.8,0,5.6c0,1.1,0.2,1.5,1.3,1.4c1.7-0.1,3.4,0,5.1,0.1c2,0.1,2.8,0.9,2.7,2.9
				c-0.2,5.3-0.4,10.6-0.6,15.9c-0.1,1.5-0.9,2.3-2.4,2.3c-1.8,0-3.5,0-5.3,0c-0.7,0-1.3,0-1.2,1c0.4,4.1,0.5,8.2,2,12.1
				c0.9,2.4,2.4,4.1,4.8,5.2c2,0.9,2.1,1.3,1.4,3.4c-1.4,3.9-2.9,7.7-4.3,11.6c-1.3,3.4-2.1,3.9-5.7,3.2c-6.4-1.2-12.2-3.7-16-9.4
				c-3-4.6-4.3-9.8-5.2-15.1c-0.6-3.6-0.9-7.2-1.1-10.9c-0.1-1.2-0.5-1.6-1.7-1.6c-1.9,0-3.9-0.1-5.8-0.2c-1.6-0.1-2.4-0.9-2.4-2.4
				c0.2-5.5,0.4-10.9,0.7-16.4c0.1-1.6,1-2.3,2.8-2.2c1.5,0,2.9,0,4.4,0.2c1.2,0.1,1.5-0.4,1.5-1.5c0-3.5,0.2-6.9,0.2-10.4
				c0.1-3,0.8-3.8,3.8-3.8c5.9,0,11.8,0.1,17.7,0.2c2.9,0,3.7,0.8,3.7,3.7c0,1.7,0,3.4,0,5.1C207.5,136.8,207.4,136.7,207.3,136.7z"
				/>
			<path class="st8" d="M384.7,110.9c-0.3-0.1-0.6-0.1-1-0.2c-6.2-1.6-12.4-3.1-18.6-4.8c-1.9-0.5-2.4-1.3-1.9-3.2
				c6.8-26.5,13.5-53,20.3-79.5c0.5-1.9,1.4-2.5,3.4-2c5.9,1.5,11.9,3,17.8,4.5c2.8,0.7,3.2,1.3,2.5,4.1
				c-5.9,23.2-11.9,46.4-17.8,69.5c-0.8,3.1-1.6,6.1-2.3,9.2C386.7,109.9,386.2,110.8,384.7,110.9z"/>
			<path class="st6" d="M190.1,58.9c2.4-0.1,3.9,0.6,4.8,2.6c1.5,3.4,3.2,6.7,4.9,10c1.1,2.2,0.6,3-1.7,3.4
				c-2.1,0.3-4.2,0.5-6.1,1.6c-2.5,1.4-2.9,3.1-1.3,5.5c1,1.4,2.2,2.6,3.4,3.8c2.2,2.3,4.6,4.4,6.4,7c4.6,6.5,3.8,13.4-2.2,18.8
				c-4.5,3.9-9.8,6.2-15.4,7.9c-3.5,1.1-7.1,1.6-10.7,2c-2.2,0.2-3.2-0.2-4.1-2.2c-1.7-3.5-3.4-7-5-10.5c-0.9-1.9-0.5-2.6,1.6-3.1
				c1.5-0.4,3.1-0.4,4.6-1c1.2-0.5,2.4-1.1,3.3-2c1.8-1.8,1.9-3.6,0.3-5.6c-2.2-2.8-5-5-7.3-7.6c-1.9-2.2-3.5-4.6-4.4-7.4
				c-1.6-4.9-0.1-9,3.2-12.6c4.3-4.6,9.8-6.8,15.6-8.5C183.2,59.7,186.9,59.2,190.1,58.9z"/>
			<path class="st8" d="M402.3,207.1c-3.8-0.6-7.5-1.2-11.2-1.9c-2.6-0.4-5.2-0.9-7.8-1.3c-2.6-0.4-3.2-1.2-2.7-3.8
				c2.6-15.6,5.2-31.2,7.9-46.8c0.4-2.6,1.2-3.1,3.7-2.6c5.9,1,11.8,2,17.8,3c2.7,0.4,3.1,1.1,2.7,3.8c-2.6,15.7-5.2,31.4-7.9,47.2
				C404.5,206,403.9,207.1,402.3,207.1z"/>
			<path class="st8" d="M134,124.3c-1.2,1.1-2.5,0.7-3.8,0.4c-5.8-1.4-11.6-2.8-17.4-4.2c-2-0.5-2.6-1.4-2.1-3.4
				c2.5-10.4,4.9-20.9,7.4-31.3c0.1-0.2,0-0.5,0.1-0.7c1.2-4.9,2.4-9.8,3.6-14.7c0.6-2.3,1.3-2.8,3.7-2.2c6.1,1.4,12.2,2.9,18.4,4.3
				c1.8,0.4,2.4,1.3,2,2.9c-3.8,16.1-7.6,32.1-11.4,48.2C134.2,123.7,134.1,124,134,124.3z"/>
			<path class="st4" d="M396.6,1.8c-3.5,3.5-7.3,5.5-11.6,6.6c-1,0.2-2,0.4-2.9,0.5c-1.1,0.2-2.1-0.2-2.8-1.1
				c-1.3-1.7-2.6-3.4-3.8-5.1c-0.7-1-0.5-1.8,0.6-2.2c5.5-2,9.8-5.7,13.8-9.9c1-1,1.8-0.9,2.7,0c1.5,1.4,3,2.6,4.5,3.9
				c0.6,0.5,0.9,0.4,1-0.3c0.3-1.3,0.5-2.5,0.8-3.8c0.2-1-0.4-1.1-1.2-1.4c-4.5-1.4-8.9-2.8-13.3-4.1c-2.2-0.7-2.3-1-1.6-3.2
				c0.6-1.9,1.2-3.7,1.7-5.6c0.4-1.6,1.3-1.9,2.8-1.4c3.8,1.2,7.6,2.4,11.5,3.6c2.3,0.7,2.3,0.7,2.8-1.6c0.2-0.9,0.4-1.7,0.5-2.6
				c0.1-1.5,1-1.9,2.3-1.6c2.7,0.6,5.4,1.2,8.1,1.7c1.2,0.2,1.5,0.8,1.3,2c-0.4,1.7-0.6,3.5-1,5.2c-0.2,0.9,0,1.3,0.9,1.5
				c1,0.3,2,0.6,3,0.9c1.5,0.4,2.1,1.1,1.6,2.7c-0.7,2.1-1.4,4.2-2,6.4c-0.4,1.2-1,1.5-2.3,1.2c-1.2-0.3-2.5-1.4-3.4-0.7
				c-0.8,0.6-0.6,2.2-0.9,3.3c-1.3,6.2-2.6,12.4-3.7,18.7c-0.3,1.5-1,2-2.3,1.7c-2.7-0.5-5.4-1.2-8.1-1.7c-1.3-0.2-1.6-0.9-1.3-2.1
				c0.7-3.4,1.4-6.8,2-10.2C396.5,2.8,396.5,2.5,396.6,1.8z"/>
			<path class="st4" d="M301.8,35.2c-1-0.2-1.9,0.1-2.8,0.6c-2.4,1.3-4.9,2.4-7.4,3.4c-2.2,0.8-2.6,0.7-3.9-1.2
				c-1.1-1.7-2.2-3.5-3.4-5.2c-0.8-1.2-0.8-2,0.6-2.6c4.6-2.1,8.7-5,12.6-8.1c0.8-0.7,2-1.8,2.7-0.2c1.6,3.6,4.8,3.6,8,3.8
				c3.3,0.2,6.6,0.4,9.9,0.8c4.2,0.4,6,3.6,4.7,8c-1.1,3.9-3.1,7.4-5.5,10.6c-1.3,1.8-1.3,1.7,0.6,3c3.2,2.2,3.3,2.6,0.6,5.4
				c-1.3,1.4-2.6,2.7-3.8,4.2c-0.8,1-1.6,1-2.6,0.3s-2.1-1.3-3.1-2.1c-0.9-0.7-1.5-0.5-2.3,0.1c-3.3,2.8-6.8,5.2-10.7,7.2
				c-2.2,1.1-2.9,1.1-4.7-0.7c-1-1-2-2-3-3c-1.5-1.5-1.5-1.9,0.3-3.1c2.6-1.7,5-3.7,7.4-5.8c2.5-2.1,2.4-2.1-0.1-4
				c-0.1-0.1-0.2-0.1-0.3-0.2c-4-2.7-4-2.5-0.5-6.1c2.4-2.5,2.4-2.5,5.6-1.2c0.5,0.2,1,0.4,1.5,0.6c3.4,1.5,4.1,1.2,5.9-2
				c0.7-1.2,0.4-1.9-1-2.1C305.4,35.4,303.6,35.3,301.8,35.2z"/>
			<path class="st9" d="M119.9,193.5c-0.1,2.1-1.4,3.4-3.4,4.4c-8.1,3.7-16.3,7.4-24.4,11.1c-18.7,8.5-37.4,17.1-56.1,25.6
				c-2.2,1-4.3,1.5-6.3-0.3c-2.6-2.3-2-6.3,1.1-7.8c3.3-1.6,6.6-3.1,9.9-4.6c23.8-10.9,47.6-21.7,71.3-32.6c3.3-1.5,5.4-1.1,7,1.3
				C119.7,191.5,119.9,192.4,119.9,193.5z"/>
			<path class="st4" d="M30.4-3.4c0.7,3.9,1.4,7.8,2.1,11.8c0.4,2.1,0.7,2.4,2.8,2c5.4-0.9,10.8-1.7,16.2-2.7
				c1.1-0.2,1.7,0.2,1.9,1.2c0.5,2.2,1,4.3,1.3,6.5c0.3,1.8-1.1,2.3-2.5,2.6c-2.4,0.4-4.8,0.8-7.1,1.1c-4.4,0.7-8.8,1.3-13.2,2
				c-5.5,0.9-9.2-1.3-10.3-6.3c-0.4-1.8-0.8-3.7-1.1-5.5c-1.4-7.3-2.7-14.7-4.1-22c-0.3-1.6,0-2.4,1.7-2.7c2.6-0.4,5.2-1,7.8-1.6
				c1.3-0.3,2.2,0,2.4,1.6c0.3,2.5,1,5,1.3,7.5c0.2,1.3,0.5,1.4,1.6,0.8c3.9-2.2,7.9-4.3,11.7-6.5c1.5-0.9,2.4-0.5,3.3,0.9
				c1.2,1.9,2.6,3.8,4,5.6c0.7,1,0.6,1.7-0.5,2.5c-4.3,3-9.1,5-14,6.7c-1.3,0.4-2-0.2-2.6-1.2c-0.8-1.5-1.7-2.9-2.5-4.4
				C30.6-3.5,30.5-3.4,30.4-3.4z"/>
			<path class="st10" d="M450.4,49.7c0.1,0.8-0.3,1.7-0.9,2.5c-5,7-10,14-15,21c-0.9,1.2-1.9,1.5-3.2,0.9
				c-7.5-3.3-15.1-6.7-22.6-10.1c-1.1-0.5-1.4-1.2-0.9-2.4c1-2.2,1.9-4.3,2.7-6.5c0.5-1.4,1.2-1.4,2.4-0.9c4.3,2,8.6,3.8,12.9,5.8
				c1.2,0.6,2.1,0.4,2.9-0.7c2-2.8,4.1-5.6,6.1-8.4c0.8-1.1,0.6-1.8-0.5-2.6c-4.7-2.8-9.3-5.6-13.9-8.4c-2-1.2-2.1-1.4-0.8-3.4
				c1.1-1.7,2.1-3.4,3.1-5.1c0.6-1,1.2-1.2,2.3-0.6c7.4,4.4,14.8,8.8,22.2,13.2C449.1,45.4,450.4,47,450.4,49.7z"/>
			<path class="st9" d="M413.9,75.1c2.2,0.2,4.7,1.2,7.3,1.8c21.6,5.8,43.3,11.6,64.9,17.4c0.3,0.1,0.6,0.2,0.8,0.3
				c2.8,0.8,4.3,3.2,3.7,5.8s-3.1,4.1-6,3.5c-1.9-0.4-3.8-1-5.6-1.5c-21.9-5.9-43.7-11.7-65.6-17.6c-3.2-0.8-4.6-2.4-4.5-5
				C408.9,77.1,410.9,75.1,413.9,75.1z"/>
			<path class="st10" d="M515.8,70.9c0.5-0.6,0.6-0.8,0.8-1c2.8-3.7,1.6-3.7,6.7-2.5c3.5,0.8,6.8,2,10,3.5c1.2,0.6,1.6,1.3,0.9,2.5
				c-1.7,2.8-3.4,5.5-5,8.3c-0.8,1.3-1.7,0.9-2.7,0.3c-3-1.7-6.1-3.3-9.2-5c-1.1-0.6-1.5-0.5-1.5,0.9c0,5.8,0,11.7,0,17.5
				c0,1.5-0.5,2.1-2,2c-2.7-0.1-5.4-0.1-8.1,0c-1.3,0-1.9-0.4-1.9-1.8c0-13.7,0-27.4,0-41.2c0-1.5,0.6-2,2-2c2.7,0.1,5.3,0.1,8,0
				c1.5,0,2.1,0.6,2.1,2.1C515.8,59.9,515.8,65.2,515.8,70.9z"/>
			<path class="st11" d="M481.6,110.8c2.8,0.4,5.9,1.4,9,2.3c18.8,5,37.6,10.1,56.4,15.1c2.6,0.7,4,2.4,3.9,4.9
				c-0.1,2.3-1.5,3.9-4,4.5c-1.1,0.3-2.1-0.1-3.1-0.4c-12.7-3.4-25.5-6.8-38.2-10.2c-8.3-2.2-16.6-4.4-24.9-6.6
				c-3.4-0.9-5.1-3.4-4.2-6.2C477.2,112,478.8,110.8,481.6,110.8z"/>
			<path class="st12" d="M72.5,234.5c-0.2,1.7-1.4,3.1-3.4,4c-8,3.6-16,7.3-23.9,10.9c-12,5.5-24,11-35.9,16.4
				c-1.3,0.6-2.6,1.1-4.1,0.6c-2-0.6-3.4-2.2-3.5-4.2c-0.2-1.9,1-3.9,3-4.8c6-2.8,12.1-5.5,18.2-8.3c13.9-6.4,27.8-12.7,41.8-19.1
				c1.5-0.7,2.9-1.3,4.6-0.7C71.3,230.1,72.5,231.8,72.5,234.5z"/>
			<path class="st8" d="M138.3,68.1c-8.4,0.1-15.1-6.4-15.2-14.8c-0.1-8,6.6-14.9,14.5-15c8.7-0.1,15.4,6.3,15.4,14.9
				C153.1,61.4,146.5,68,138.3,68.1z"/>
			<path class="st13" d="M388.8,135.2c-0.1-8.2,6.8-15.2,15-15.1c8.3,0.1,15,6.3,14.9,15.1c0,8.3-6.2,14.7-14.9,14.8
				C395.3,150.1,389,143.5,388.8,135.2z"/>
			<path class="st10" d="M246.5,14.7c6,0.5,12.3,0.8,18.6,1.4c4.4,0.4,6.4,3.5,5.7,7.8c-1.3,7.6-5.1,14-10.2,19.7
				c-4.2,4.7-9,8.4-14.9,10.7c-2.8,1.1-3.1,1-4.9-1.3c-0.9-1.1-1.8-2.2-2.7-3.2c-1.2-1.5-1.2-1.9,0.5-2.8c4.8-2.6,8.8-6.3,12.2-10.5
				c2-2.4,3.7-5,5-7.9c0.7-1.7,0.3-2.4-1.6-2.6c-3-0.3-6-0.6-9-0.7c-1.5-0.1-2-0.7-1.9-2.1c0.2-2.2,0.5-4.4,0.6-6.7
				C244.1,14.9,244.8,14.4,246.5,14.7z"/>
			<path class="st4" d="M194,49.6c-2.3,0.2-4.5-0.1-6.6-0.3c-1.4-0.2-2.1-0.8-1.8-2.4c2.2-9.3,4.4-18.7,6.6-28c0.9-4,1-4,4.9-3.2
				c2,0.4,3.9,0.8,5.9,1.2c1.5,0.3,2,1,1.5,2.7c-1.4,5.1-2.7,10.4-4.1,15.5c-0.4,1.4,0.1,1.8,1.4,1.8c1.8,0,3.7,0.1,5.5,0
				c1.2,0,1.9,0.4,2.2,1.6c0.5,2.1,1.1,4.2,1.7,6.3c0.4,1.4-0.2,2.1-1.4,2.5c-2.9,1.1-5.9,1.7-8.9,1.9
				C198.5,49.5,196.2,49.9,194,49.6z"/>
			<path class="st14" d="M362.6,57.7c0,3.9,0,7.8,0,11.7c-0.1,3.4-3.2,5.3-6.1,3.6c-6.9-4.1-13.8-8.2-20.5-12.4
				c-2.7-1.7-2.6-5.3,0.1-6.8c7-3.9,14-7.8,21-11.6c2.9-1.6,5.9,0.3,5.9,3.6c0.1,4,0,8,0,12C362.9,57.7,362.8,57.7,362.6,57.7z"/>
			<path class="st10" d="M171,2.3c-5.2,0-5.2,0.4-5.2-4.9c0-2.7-0.5-3-3.1-2.3c-6.7,1.6-13.4,3.2-20.1,4.8c-1.5,0.4-2.2-0.1-2.5-1.5
				c-0.5-2-1-4-1.4-6c-0.4-1.9-0.2-2.3,1.8-2.8c7.6-1.9,15.3-3.8,22.9-5.8c2.1-0.5,4.2-1.1,6.3-1.6c5.8-1.5,8.6,0.5,8.9,6.4
				c0.2,3.9-0.6,7.7-2,11.4c-0.7,1.8-1.7,2.6-3.6,2.3C172.3,2.2,171.7,2.3,171,2.3z"/>
			<path class="st4" d="M123.4,0.5c2.3,0,3.7,1.1,4.2,3.4c0.8,3.4,1.1,6.8,1.4,10.3c0.1,1.3,0.3,2.2,1.8,1.2c0.3-0.2,0.7-0.2,1-0.4
				c3.6-1.8,3.3-1.1,4.9,2c0.3,0.5,0.5,1.1,0.7,1.6c1.2,2.8,1.2,2.8-1.5,4c-7.2,3.1-14.5,6.2-21.7,9.4c-1.5,0.7-2.3,0.4-2.9-1.1
				c-0.6-1.5-1.3-2.9-2-4.3c-0.6-1.1-0.4-1.7,0.8-2.2c2.9-1.2,5.7-2.5,8.6-3.7c1.1-0.4,1.3-1,1.1-2c-0.4-2.2-0.9-4.5-1.2-6.8
				c-0.2-1.3-0.7-1.7-2-1.2c-2.3,0.8-4.6,1.3-6.9,2.1c-1.5,0.5-2.2,0.1-2.6-1.4c-0.3-1.4-0.7-2.8-1.1-4.3c-0.3-0.9-0.1-1.7,0.9-2
				c5.1-1.5,10.3-3,15.4-4.5C122.7,0.4,123.1,0.5,123.4,0.5z"/>
			<path class="st15" d="M-7.7,235.5c-2.7,0-4.3-1.2-5-3.4c-0.6-2,0.1-4.1,2.1-5.3c1.3-0.8,2.7-1.4,4.1-2c10.5-4.8,21-9.6,31.5-14.4
				c2-0.9,3.9-1.9,6-2.6c2.7-1,5-0.1,6.2,2.2c1.1,2.1,0.5,4.4-1.3,5.8c-2.2,1.6-4.8,2.4-7.3,3.6c-10.8,5-21.7,10-32.6,14.9
				C-5.4,234.8-6.7,235.4-7.7,235.5z"/>
			<path class="st16" d="M461,196.9c0-3.6,0-7.1,0-10.9c3.5,2.3,6.7,4.5,9.9,6.7c4,2.8,8.1,5.6,12.1,8.5c2.7,1.9,2.6,3.4-0.2,4.9
				c-1.2,0.6-2.4,1.3-3.6,1.9c-0.9,0.4-1.2,0.8-0.6,1.8c1.3,2.2,2.4,4.6,3.7,6.8c0.5,0.8,0.3,1.2-0.5,1.6c-1.9,1-3.9,2-5.7,3.1
				c-0.8,0.4-1.1,0.3-1.5-0.4c-1.1-2.2-2.4-4.4-3.5-6.7c-0.5-1.1-1-1.4-2-0.7c-1.3,0.8-2.6,1.5-4,2.2c-2.2,1.1-3.5,0.2-3.6-2.2
				C461.2,207.8,461.1,202.4,461,196.9z"/>
			<path class="st4" d="M488.6,71.6c-0.7,2.5-1.5,5.3-2.4,8.1c-0.4,1.4-1.6,1-2.5,0.7c-4.2-1.2-8.5-2.4-12.7-3.7
				c-6-1.7-12-3.4-18-5.2c-2.4-0.7-2.6-1-1.9-3.5c0.6-2.2,1.2-4.4,1.9-6.6c0.3-1.2,1-1.7,2.3-1.3c10.5,3.1,21.1,6.1,31.7,9.2
				C487.9,69.6,488.7,70,488.6,71.6z"/>
			<path class="st10" d="M361.9,17.5c0.8,0.1,1.1,0.5,1.3,1c1.2,2.2,2.4,4.3,3.6,6.5c0.5,0.9,0.3,1.6-0.5,2.2
				c-8.6,6.7-18,11.8-28.4,15c-1.2,0.4-1.9,0.2-2.5-0.9c-1.4-2.5-2.7-5-4.1-7.4c-0.6-1.1-0.3-1.8,0.8-2.2c6.8-2.7,13.4-5.8,20-9
				c3-1.5,5.8-3.1,8.7-4.7C361.2,17.8,361.6,17.6,361.9,17.5z"/>
			<path class="st10" d="M64.8,26.7c-0.7,0.1-1.3-0.3-1.6-1.3c-0.8-2.8-1.6-5.7-2.4-8.5c-0.4-1.4,0.4-1.7,1.6-1.9
				c8.7-1.2,17.4-2.9,25.9-5c1.8-0.4,3.5-0.9,5.3-1.4c1.1-0.3,1.7,0.1,2,1.1c0.7,2.4,1.3,4.8,2,7.1c0.3,1.2-0.3,1.7-1.2,2.1
				c-7.1,3.1-14.5,5.4-22.2,6.7C71.1,26.1,68,26.3,64.8,26.7z"/>
			<path class="st17" d="M111.6,231.5c-6.7,0-12.2-5.5-12.2-12.3c0-6.6,5.6-12.1,12.4-12.1c6.6,0,12,5.6,12,12.3
				C123.8,226,118.2,231.5,111.6,231.5z"/>
			<path class="st15" d="M431.2,107c-2.7-0.4-5.8-1.5-9-2.3c-4.2-1.1-8.4-2.2-12.6-3.4c-1.1-0.3-2.2-0.6-3.1-1.2
				c-2-1.4-2.6-3.7-1.7-5.8s3.2-3.3,5.5-2.7c5.8,1.5,11.6,3.1,17.4,4.6c1.6,0.4,3.3,0.8,4.9,1.3c3.5,1,5.1,4,3.6,7
				C435.4,106.2,433.9,107,431.2,107z"/>
			<path class="st18" d="M20.2,231.6c2.5,0.1,4.2,1.4,4.8,3.5c0.6,1.9-0.1,3.9-1.9,5.1c-2,1.4-4.3,2.1-6.5,3.1
				c-4.9,2.3-9.8,4.5-14.8,6.8c-2.8,1.3-4.8,1-6.5-0.8c-1.8-1.9-1.7-4.9,0.4-6.6c0.5-0.5,1.1-0.9,1.8-1.2c6.8-3.1,13.6-6.2,20.4-9.3
				C18.8,231.9,19.7,231.8,20.2,231.6z"/>
			<path class="st12" d="M467.7,116.7c-2.6-0.4-5.1-1.2-7.6-1.9c-5.3-1.4-10.6-2.7-15.8-4.3c-3.9-1.1-5.2-5.1-2.7-7.9
				c1.5-1.6,3.4-1.8,5.4-1.3c7.3,1.9,14.5,3.9,21.8,5.9c2.7,0.8,4,2.4,4,4.7c0,2.1-1.3,3.9-3.3,4.4
				C468.8,116.6,468.2,116.6,467.7,116.7z"/>
			<path class="st10" d="M152,9.6c0-1.5,0-3.1,0-4.6c-0.1-1.2,0.5-1.9,1.7-2c3-0.3,6-0.5,8.9-0.8c1.3-0.1,1.9,0.5,2.1,1.8
				c1,6.9-0.2,13.5-3.1,19.7c-1.4,2.9-1.8,3.1-4.9,2.6c-1.5-0.2-3-0.5-4.5-0.8c-1.4-0.2-1.9-1.1-1.6-2.4
				C151.8,18.7,152.1,14.2,152,9.6z"/>
			<path class="st4" d="M83,58.9c-2.8,6.9-5.5,13.9-8.3,20.8c-0.3,0.8-0.8,1.6-1.2,2.4c-0.2,0.4-0.5,0.9-1,0.8
				c-0.6,0-0.8-0.5-0.9-0.9c-2.8-6.4-5.6-12.8-8.3-19.2c3.6-1.5,7.2-2.9,10.7-4.6c2.9-1.4,5.5-1.8,8.1,0.5
				C82.3,58.8,82.7,58.8,83,58.9z"/>
			<path class="st4" d="M173.6,41.2c-0.2-0.1-0.7-0.2-1.1-0.4c-2-1.2-3.9-2.4-5.9-3.5c-1.1-0.6-1.4-1.2-0.5-2.3
				c3.4-4.3,6.6-8.7,9.7-13.2c0.7-1,1.5-1.2,2.6-0.5c2.3,1.4,4.7,2.7,7.1,4c1.2,0.7,1.6,1.5,0.8,2.8c-2.9,4.8-6.4,9.2-10.8,12.7
				C174.8,41.2,174.5,41.2,173.6,41.2z"/>
			<path class="st10" d="M268.4,39.4c4.4,0.8,8.5,2.1,12.3,4.4c0.7,0.5,0.8,1.1,0.4,1.8c-1.7,2.9-3.5,5.7-5.2,8.6
				c-0.5,0.8-1.2,0.8-2,0.4c-3.7-2.3-7.4-4.6-11.1-6.9c-0.8-0.5-0.8-1.1-0.3-1.8c1.3-1.9,2.6-3.8,3.9-5.7
				C266.9,39.5,267.6,39.3,268.4,39.4z"/>
			<path class="st10" d="M66.1-5.5c0.9-0.1,1.6,0.3,2.1,1c1.7,2.5,3.3,5.2,4.3,8.1c0.8,2.2,0.3,3-2.1,3.3c-2.5,0.4-5,0.8-7.5,1.2
				c-1,0.2-1.6,0-1.9-1c-1.1-3.2-2.1-6.3-3.2-9.5c-0.5-1.4,0.1-1.9,1.4-2.1C61.6-4.8,63.9-5.2,66.1-5.5z"/>
			<path class="st10" d="M340.2,19.9c0,0.8-0.4,1.1-0.9,1.3c-2.8,1.2-5.6,2.5-8.4,3.7c-0.8,0.4-1.5,0.1-1.9-0.7
				c-1.7-2.6-3.4-5.2-5-7.9c-1.1-1.9-1-2.2,0.9-3s3.8-1.6,5.7-2.4c1.2-0.5,2.1-0.3,3,0.7c2.2,2.2,4.6,4.3,6.1,7.1
				C339.9,19.1,340.1,19.5,340.2,19.9z"/>
			<path class="st10" d="M352.3,7c0,0.5-0.4,0.8-0.7,1.2c-2.1,1.8-4.3,3.7-6.4,5.5c-0.8,0.7-1.5,0.7-2.3,0c-2.4-2.1-4.8-4.2-7.2-6.2
				c-1.2-1-1.3-1.9,0.1-3c1.6-1.2,3.1-2.5,4.6-3.8c0.9-0.8,1.8-0.9,2.9-0.4c2.8,1.4,5.5,2.8,7.9,5C351.7,5.7,352.2,6.3,352.3,7z"/>
			<path class="st10" d="M87.8-4.4c0,0.7-0.5,1-1,1.3c-2.5,1.3-5.1,2.5-7.6,3.8c-0.8,0.4-1.5,0.5-2-0.3c-1.9-2.8-3.8-5.5-5.7-8.3
				c-0.9-1.3-0.5-2.1,0.9-2.6c2-0.8,3.8-1.7,5.8-2.7c0.8-0.4,1.5-0.3,2.2,0.3c2.4,1.9,4.6,4,6.4,6.5C87.4-5.8,87.7-5.2,87.8-4.4z"/>
			<path class="st19" d="M532,55.4c1.2,0.2,1.9,1,2.6,1.7c2.9,2.7,3.4,2.4,0.1,5.1c-2.2,1.8-2.1,1.8-4-0.3c-0.2-0.2-0.4-0.4-0.6-0.6
				c-0.7-0.9-2.4-1.7-2-2.9c0.5-1.4,2.2-2.1,3.4-2.9C531.7,55.4,531.9,55.4,532,55.4z"/>
			<path class="st19" d="M524.1,62.8c-2.6,0.1-2.6,0.1-3.3-2.5c-1.1-3.7-1.1-3.7,2.7-4.3c2.5-0.4,2.9-0.2,3.5,2.3
				c0.1,0.2,0.2,0.4,0.2,0.7C527.9,62.7,527.9,62.7,524.1,62.8z"/>
			<path class="st4" d="M51-24.3c1.5,0.7,3.1,1.6,4.5,2.8c0.4,0.4,0.1,0.9-0.2,1.3c-0.7,0.9-1.4,1.9-2.1,2.8
				c-0.5,0.6-1.1,0.7-1.7,0.3c-1.2-0.9-2.5-1.7-3.7-2.6c-0.3-0.2-0.6-0.6-0.5-1C47.4-21.6,50-24.2,51-24.3z"/>
			<path class="st19" d="M365.4,4.7c-0.5,0-0.8-0.3-1-0.6c-0.5-0.5-0.9-0.9-1.4-1.4c-2.5-2.7-2.4-3.5,1-5.3c0.7-0.4,1.3-0.4,2,0.1
				c1,0.8,1.9,1.7,2.9,2.6c0.3,0.3,0.6,0.6,0.5,1.1C369.3,2,366.2,4.8,365.4,4.7z"/>
			<path class="st19" d="M102.2-10.5c0.3,0,0.8,0.3,1.2,0.8c0.2,0.3,0.4,0.6,0.6,0.9c2.5,3.8,2.8,3.4-1.7,5.6
				c-0.9,0.5-1.6,0.2-2.1-0.6c-0.7-1.2-1.3-2.4-2-3.6c-0.5-0.9-0.3-1.6,0.7-1.9C99.9-9.8,100.7-10.4,102.2-10.5z"/>
			<path class="st19" d="M356.9,4.1c-1.5,0.4-2.4-0.5-2.7-2.3c0-0.3-0.1-0.6-0.2-0.8c-0.8-2.8-0.7-3,2.2-3.2c1-0.1,2.3-0.9,3.1,0.3
				c0.9,1.4,1.1,3.2,1.2,4.9c0,0.6-0.4,0.8-0.9,0.9C358.9,4.1,358.1,4,356.9,4.1z"/>
			<path class="st4" d="M43.1-15.7c-0.7,0.1-1.3-0.2-1.6-0.8c-0.1-0.2-0.2-0.4-0.3-0.6c-2-4.1-2.6-3.7,2.5-5.3c0.9-0.3,1.6,0,2,0.7
				c0.6,1.2,1.2,2.4,1.7,3.7c0.3,0.7-0.1,1.2-0.8,1.5C45.4-16.1,44.3-15.9,43.1-15.7z"/>
			<path class="st19" d="M96.9-8.4c0,0.5,0,1.1,0,1.6c0,1-0.5,1.4-1.4,1.3c-1.1-0.1-2.2-0.3-3.3-0.5c-0.8-0.2-1.2-0.7-1.3-1.5
				c-0.1-0.6,0-1.3,0-1.9c0-3,0.1-3.1,3-2.8C97-11.9,97-11.9,96.9-8.4z"/>
			<path class="st20" d="M157.3,237.9c1.9,12.5,3.8,24.7,5.7,37.2c-2.2-0.9-4-2.2-5.9-3.3c-6-3.6-11.9-7.2-17.8-10.8
				c-1.1-0.6-1.4-1-0.4-2.1C145.1,252,151.1,245,157.3,237.9z"/>
			<path class="st20" d="M387.4,263c-2.5,0-4.9-0.5-7.1-1.8c-6-3.5-6.7-11.6-1.5-17.1c4.2-4.5,10.7-4.5,14.4,0
				c1,1.1,1.4,2.3,0.9,3.9c-1.2,4.1-2.4,8.2-2.9,12.5c-0.2,1.9-1.2,2.5-2.9,2.4C388,263,387.7,263,387.4,263z"/>
			<path class="st20" d="M338.7,180.2c-6.7,0-11.1-3.9-11.7-9.9c-0.5-5.7,3.9-11.4,9.5-12.1c3.4-0.4,6.2,0.9,8.4,3.6
				c0.7,0.9,0.8,1.9,0.6,3c-1.1,4.5-1.9,9.1-2.3,13.7c-0.1,1-0.5,1.4-1.4,1.4C340.7,179.9,339.6,180.1,338.7,180.2z"/>
			<path class="st20" d="M312.7,113.4c-6.4,0-11.1-8-8.1-15.6c2-5.1,7.1-7.4,11.9-5.6c1.7,0.6,2.7,1.6,2.9,3.5
				c0.5,4.7,1.3,9.3,2.8,13.8c0.3,0.8,0.1,1.3-0.7,1.7C319.1,112.5,316.6,113.4,312.7,113.4z"/>
			<path class="st20" d="M299.6,245.1c0-5.5,2.9-10,7.7-11.2c6.9-1.8,13,1.3,13.9,9.3c0.4,3,0,5.9-1.4,8.6c-1.9,3.5-5,5.2-8.8,5.2
				c-4.2,0-7.5-1.9-9.7-5.5C300.1,249.5,299.6,247.4,299.6,245.1z"/>
			<path class="st20" d="M441.5,167.5c0.1-6.2,3.8-10.9,9.1-11.7c7.7-1.2,13.4,4.3,12.6,12.1c-0.4,3.5-1.4,6.7-4.1,9.1
				c-3.1,2.7-6.8,2.9-10.5,1.5c-4.2-1.6-6.5-4.9-7.1-9.3C441.5,168.6,441.5,168.1,441.5,167.5z"/>
			<path class="st21" d="M356.3,48.3c1.3,0.1,2.1,1.5,1.5,2.6c-1.2,2.2-2.6,4.4-3.9,6.5c-0.5,0.9-1.5,1-2.3,0.5s-1.1-1.3-0.7-2.1
				c1.3-2.3,2.7-4.5,4.1-6.8C355.3,48.5,355.8,48.4,356.3,48.3z"/>
			<path class="st22" d="M349.7,63c-1.1-0.1-1.8-0.7-1.8-1.8c0-0.9,0.6-1.6,1.5-1.6c1.1-0.1,1.8,0.5,1.9,1.6
				C351.3,62.3,350.6,62.8,349.7,63z"/>
			<path class="st23" d="M107.7,226.6c-2.8-2.1-2.8-2.1-0.6-4.7c1.9-2.2,1.9-2.2-0.3-4.3c-0.2-0.2-0.4-0.4-0.7-0.6
				c-1.7-1.4-1.6-2.4,0.2-3.7c0.6-0.4,0.9-0.1,1.2,0.2c1.1,0.9,2.1,1.8,3.2,2.8c0.6,0.5,0.9,0.5,1.4-0.1c0.8-1.1,1.9-2,2.6-3.1
				c0.7-1,1.3-0.6,1.8,0.1s2.3,0.9,0.9,2.3c-0.9,1-1.8,2-2.7,3c-0.5,0.5-0.5,0.9,0.1,1.4c1.1,0.9,2.1,1.9,3.2,2.8
				c1,0.8,0.3,1.4-0.3,1.8s-0.8,2.1-2.1,0.9c-0.9-0.8-1.9-1.5-2.6-2.4c-1-1.1-1.6-0.8-2.4,0.2C109.7,224.5,108.7,225.5,107.7,226.6z
				"/>
		</g>
	</g>
	<g id="Layer_2_00000067221318560340026550000017914036351750432170_" class="st2">
	</g>
</g>
<g id="Layer_4">
	<g>
		<path class="st20" d="M519.4,208.6c-2.4-4.9-5.8-8.8-9.6-12.4c-5.7-5.4-12.1-11.4-18.1-17.1c-8.5-7.5-16-17.2-26.8-21.5
			c-3.7-1.4-7.7-2-11.6-1.9c-1.6,0-3.5-0.1-4.7-1c-2.2-1.4-3.2-5.6-3.9-8.4c-1.2-4.1,1.7-6.8,4.7-8.9c6.7-5.1,11.2-11.7,14.6-18.9
			c1.7-3.4,5.6-3.6,9-3.8c5.9-0.6,11.5-4.1,14.4-9.2c2.5-4.1,2.7-10,8-11.6c8.6-2.3,15.6-9.8,15.4-19c0-2.9-0.6-5.7-1.8-8.3
			c-0.9-2-2.1-4.1-2.2-6.3c-0.2-3.5,2.6-6.7,3.3-10c2.1-7.2-0.6-15.5-6.5-20.1c-3.2-3-8.1-3.2-11.3-5.9c-2.7-2.5-2.9-6.8-4.9-9.8
			c-3.2-5.5-9.4-9.2-15.8-9.3c-3.1-0.1-6.1,0.6-8.9,1.9c-2,0.9-4.2,2.2-6.4,2.1c-2.2,0.1-4.3-1.2-6.4-2.1c-2.8-1.3-5.9-2-9.1-1.9
			c-9.1,0.2-16.1,7.2-18.3,15.7c-1.9,5.9-8.7,5.5-12.9,8.9c-5.4,3.9-8.5,10.9-7.7,17.5c0.8,5,2.6,8.5-3.4,10.6
			c-3.9,1.5-7.6,3.4-10.9,5.8c-2.7,2.1-5.7,3.4-8.6,0.7c-15.1-15.5-34.8-17.1-55.2-12.1c-2.6,0.3-5.2,0.3-7.9,0.1
			c-7.9-0.8-15.7,1.4-23.4,2.7c-5.4,0.4-8.6-5.2-13.1-7.1c-10.3-4.3-22.6-2-32.9,1.4c-3.5,1-6.6,3.4-10.1,3.9
			c-2.5,0.3-4.7-1.3-6.6-2.7c-6.2-4.6-13.6-7.7-21.8-9c-2.8-0.3-11.2-1-16.2-0.2c-7.7,0.9-14.6,3.9-21.1,7.4
			c-3.1,0.9,0.4-5.9,0.4-7.4c4.6-22.6-22.5-30.7-40.9-30.9c-19.5-0.2-38.5,6.9-50.6,21.7c-3.1,3.2-5.1,9-8.8,11.7
			c-1.5,0.9-3.3,0.6-5.3-0.2c-2.3-0.9-4.8-1.8-7.4-2.4c-6.7-1.8-14.1-0.2-18.7,5.1c-5,5.9-8.4,12.9-10.8,20.3c-0.6,2-1.3,4-2.4,5.8
			c-2.1,3.4-5.7,5.5-8.7,8.3c-2.1,1.9-4.2,4.1-5.9,6.3c-16.4,19.3,0.1,32.1,15.4,44.5c3,3.1,4,7.3,5.8,11.1c1.9,4.1,4,7.5,6.6,11
			c1.2,2,3.9,3.8,4.5,6.1c0.4,1.8-1.5,2.9-2.7,3.9c-3.4,2.6-6.1,6.3-7.3,11.1c-1.3,8.2-3.3,8.6-9.5,13.1c-5.2,4.4-7.8,11.5-6.7,18.3
			c0.5,3.4,1.9,6.8,4,9.6c1.4,1.9,2.9,3.8,3.3,6.1c0.5,2.9-0.5,6-0.5,8.9c0,4.4,1.4,8.2,3.8,11.5c2.8,3.8,7.2,6.7,11.9,7.7
			c2.3,0.5,5,0.7,6.9,2.3c1.5,1.2,2.5,3,3.5,4.6c3.2,5,9,8.5,14.9,9.1c5.4,0.7,11.1-1.1,15.4-4.6c0.8-0.6,1.7-1.3,2.6-1.8
			c3.8-2.3,8.1-0.4,12.2-0.6c9-0.1,17.6-7.6,18.9-16.7c0.6-5.2,3.2-7.5,7.6-10.2c1.9-1.3,3.8-2.8,6.1-3.2c2.9-0.7,6.3-0.3,8.8-0.1
			c4.3,0.3,8.6,0.5,13.1,0.8c6.2,0.2,13.1,1.5,18.3,0.2c2.7-0.5,5.3-1.9,7.8-3.2c2.8-1.4,5.7-1.5,8.7-1.1c3.9,0.6,6.6,0.2,11.6-0.4
			c7.4-1.3,15.4-0.8,21.8-5.2c2.2-1.5,4-3.4,6.7-3.8c4.4-0.7,9.6,1.5,14.2,1.1c4.6,0,9.4-3.4,13.8-0.5c5.3,3.8,11.4,8.4,17.9,8.6
			c4.6,0.4,9.3-1.1,13.4-3.2c1.9-0.9,4.6-2,5.5,0.6c0.5,1.3,0.8,2.9,1.2,4.3c3.2,12.4,17.2,15.2,28.3,15.6
			c17.1,0.8,34.9-6.2,44.9-19.9c2.6-3.4,4.7-7.2,6.4-11.2c1.6-4.4,4-6,8.4-4.1c5.6,2.3,11.8,2.8,17.8,3.5c5.6,1.3,6.2,8.4,10.6,11.4
			c4.8,3.8,11,5,16.5,8.1c15.6,6.8,21.7-10.2,30.2-1.6c10.4,9.2,20,22.2,35,23.1c22.9,2,40.4-22.8,30.3-43.6L519.4,208.6z
			 M486.4,213.4c0.1-0.1,0.2-0.1,0.2-0.2C486.5,213.3,486.4,213.4,486.4,213.4z M486.2,213.5c-0.1,0.1-0.2,0.1-0.3,0.1
			C486.1,213.6,486.2,213.6,486.2,213.5z M485.9,213.7c-0.1,0-0.3,0.1-0.4,0.1C485.6,213.8,485.8,213.7,485.9,213.7z M485.4,213.7
			c-0.1,0-0.2,0-0.4-0.1C485.2,213.7,485.3,213.7,485.4,213.7z M484.9,213.6c-0.2-0.1-0.3-0.1-0.5-0.2
			C484.6,213.5,484.8,213.6,484.9,213.6z M484.7,233.8c-0.3-0.1-0.6-0.3-0.9-0.5C484.1,233.5,484.4,233.6,484.7,233.8z M486.1,234.4
			c-0.3-0.1-0.6-0.2-0.9-0.4C485.6,234.2,485.8,234.3,486.1,234.4z M486.7,213.1c0.1-0.1,0.2-0.2,0.3-0.4
			C486.9,212.9,486.8,213,486.7,213.1z M487.6,234.9c-0.3-0.1-0.6-0.2-0.9-0.3C487,234.8,487.3,234.9,487.6,234.9z M481.7,193.2
			c1.2,0.2,2.6,2.4,3.5,3.2c0.2,0.2,0.2,0.3,0.1,0.1c-0.1-0.1-0.2-0.2-0.3-0.3c-3.8-4.4-3.6-3.6-6.1,1.1c-0.1,0.2-0.3,0.6-0.4,0.7
			c0.3-0.6,0.8-1.5,1.3-2.4c0.6-0.9,0.8-2,1.7-2.4L481.7,193.2z M426.1,207.4c-0.1-0.1-0.1-0.1-0.2-0.1
			C426,207.3,426.1,207.4,426.1,207.4z M425.9,207.3c-0.1,0-0.2-0.1-0.3-0.1C425.7,207.2,425.8,207.2,425.9,207.3z M306.8,221.3
			c0-0.3,0-0.5,0.1-0.7C306.9,220.7,306.9,221,306.8,221.3z M432.2,128.4C432.2,128.4,432.2,128.4,432.2,128.4
			c0.1-0.1,0.2-0.1,0.3-0.2C432.4,128.3,432.3,128.4,432.2,128.4z M461.1,191.8c0-0.2,0.2-0.5,0.2-0.7c-0.1,0.2-0.1,0.4-0.2,0.6
			c-0.1,0.3-0.1,0.6,0,0.9c0,0-0.1-0.5,0-0.6L461.1,191.8z M464.3,185.8c0.4-0.6,1.1-1.7,1.5-2.4C465.5,184,464.7,185.1,464.3,185.8
			L464.3,185.8z M464.3,192.7C464.3,192.8,464.3,192.8,464.3,192.7C464.3,192.8,464.3,192.8,464.3,192.7z M464.1,193
			C464.1,193.1,464,193.1,464.1,193C464,193.1,464.1,193.1,464.1,193z M463.8,193.4C463.8,193.4,463.8,193.4,463.8,193.4
			C463.8,193.4,463.8,193.4,463.8,193.4z M463.5,193.6C463.5,193.6,463.5,193.6,463.5,193.6C463.5,193.6,463.5,193.6,463.5,193.6z
			 M463.2,193.7C463.2,193.7,463.2,193.7,463.2,193.7C463.2,193.7,463.2,193.7,463.2,193.7z M462.8,193.8c-0.1,0-0.2,0-0.3,0
			C462.6,193.7,462.7,193.8,462.8,193.8z M462.4,193.7c-0.1,0-0.3-0.1-0.5-0.2C462.1,193.6,462.3,193.7,462.4,193.7z M461.2,174.6
			c0,0,0.1,0.1,0.1,0.1C461.3,174.6,461.3,174.6,461.2,174.6z M36,200.3c0.1,0,0.1-0.1,0.2-0.1C36.1,200.2,36.1,200.3,36,200.3z
			 M36.7,200C36.8,200,36.8,199.9,36.7,200C36.8,199.9,36.8,200,36.7,200z M37.4,199.8c0,0,0.1,0,0.1,0
			C37.5,199.8,37.5,199.8,37.4,199.8z M38,199.7C38.1,199.7,38.1,199.7,38,199.7c0.1,0,0.1,0,0.1,0C38.1,199.7,38.1,199.7,38,199.7z
			 M114.4,58.8c0.1-0.1,0.2-0.2,0.2-0.3C114.5,58.6,114.4,58.7,114.4,58.8C114.4,58.8,114.4,58.8,114.4,58.8z M407.2,100.4
			c0-0.1,0-0.2,0-0.3C407.3,100.2,407.3,100.3,407.2,100.4z M407.8,106c-0.2-0.4-0.5-1.7-0.6-2.3C407.3,104.3,407.6,105.6,407.8,106
			L407.8,106z M407.4,99.5c0-0.1,0.1-0.2,0.1-0.4C407.4,99.2,407.4,99.4,407.4,99.5z M407.6,98.6c0-0.1,0.1-0.3,0.1-0.4
			C407.7,98.3,407.6,98.4,407.6,98.6z M407.9,97.6c0-0.1,0.1-0.3,0.1-0.4C408,97.4,407.9,97.5,407.9,97.6z M408.2,96.7
			c0.1-0.1,0.1-0.3,0.2-0.4C408.4,96.4,408.3,96.5,408.2,96.7z M408.7,95.8c0.1-0.1,0.2-0.3,0.2-0.4
			C408.8,95.5,408.7,95.6,408.7,95.8z M409.2,94.9c0.1-0.1,0.2-0.3,0.3-0.4C409.4,94.6,409.3,94.7,409.2,94.9z M410.6,110.4
			c1.1,1.2,4.6,2.9,5.8,3c0,0-0.2-0.1-0.4-0.1c-2.5-0.6-5-2.2-6.7-4.2c0,0,0.6,0.7,1.2,1.2L410.6,110.4z M409.8,94
			c0.1-0.1,0.2-0.2,0.3-0.4C410,93.8,409.9,93.9,409.8,94z M410.5,93.2c0.1-0.1,0.2-0.2,0.4-0.3C410.7,93,410.6,93.1,410.5,93.2z
			 M421.4,112.9c-0.2,0.1-0.3,0.1-0.5,0.1C421.1,113,421.2,113,421.4,112.9z M420.3,113.2c-0.2,0-0.4,0.1-0.5,0.1
			C420,113.3,420.1,113.2,420.3,113.2z M419.2,113.4c-0.2,0-0.4,0-0.6,0C418.8,113.4,419,113.4,419.2,113.4z M422.4,112.6
			c-0.2,0.1-0.3,0.1-0.5,0.2C422.1,112.7,422.3,112.6,422.4,112.6z M426.7,108.7C426.7,108.7,426.7,108.7,426.7,108.7
			c0,0.1-0.1,0.1-0.1,0.2C426.6,108.8,426.7,108.7,426.7,108.7z M426.3,109.3c-0.1,0.1-0.2,0.2-0.3,0.4
			C426.1,109.6,426.2,109.5,426.3,109.3z M425.7,110.1c-0.1,0.1-0.2,0.2-0.3,0.3C425.4,110.4,425.6,110.3,425.7,110.1z M425,110.9
			c-0.1,0.1-0.2,0.2-0.4,0.3C424.7,111.1,424.8,111,425,110.9z M424.2,111.5c-0.1,0.1-0.3,0.2-0.4,0.3
			C423.9,111.7,424.1,111.6,424.2,111.5z M423.3,112.1c-0.1,0.1-0.3,0.2-0.4,0.2C423.1,112.3,423.2,112.2,423.3,112.1z M456.1,46
			c3.6,0.2,7.3,1.8,10,4.2C463.4,47.8,459.7,46.2,456.1,46L456.1,46z M447,49.5c0.1-0.1,0.2-0.2,0.4-0.3
			C447.2,49.3,447.1,49.4,447,49.5z M457.9,74.7c2.4-0.4,4.9-1.5,6.9-2.9C462.9,73.2,460.3,74.3,457.9,74.7L457.9,74.7z M469,66.4
			c-0.4,0.9-1.3,2.3-1.9,3.1C467.6,68.8,468.6,67.3,469,66.4L469,66.4z M467.1,51.3c1.3,1.8,2.4,4,2.9,6.2
			C469.5,55.4,468.4,53,467.1,51.3L467.1,51.3z M411.5,92.3c-0.1,0.1-0.2,0.1-0.3,0.2C411.3,92.4,411.4,92.3,411.5,92.3
			C411.5,92.3,411.5,92.3,411.5,92.3z M370.8,124c0,0-0.1,0-0.1,0C370.7,124,370.8,124,370.8,124C370.8,124,370.8,124,370.8,124z
			 M409.2,162.4c0-0.1,0-0.2,0-0.4C409.2,162.2,409.2,162.3,409.2,162.4z M409.1,162c0-0.2,0-0.3-0.1-0.5
			C409.1,161.7,409.1,161.8,409.1,162z M409.1,161.4c0-0.2-0.1-0.4-0.1-0.6C409,161,409,161.2,409.1,161.4z M409,160.7
			c0-0.2-0.1-0.5-0.1-0.7C408.9,160.3,408.9,160.5,409,160.7z M408.8,159.9c-0.1-0.2-0.1-0.5-0.2-0.8
			C408.7,159.4,408.7,159.7,408.8,159.9z M408.5,159.1c-0.1-0.3-0.2-0.5-0.3-0.8C408.4,158.5,408.5,158.8,408.5,159.1z M408.2,158.2
			c-0.1-0.3-0.2-0.5-0.3-0.8C408,157.6,408.1,157.9,408.2,158.2z M407.8,157.2c-0.1-0.3-0.3-0.5-0.4-0.8
			C407.6,156.7,407.7,156.9,407.8,157.2z M407.3,156.3c-0.2-0.3-0.3-0.5-0.5-0.8C407,155.7,407.2,156,407.3,156.3z M406.8,155.4
			c-0.1-0.1-0.6-0.7-0.6-0.8C406.2,154.7,406.7,155.3,406.8,155.4L406.8,155.4z M406.1,154.5c-0.1-0.1-0.7-0.7-0.8-0.7
			C405.4,153.9,406,154.4,406.1,154.5L406.1,154.5z M387.8,163.2c0,0.3,0,0.6,0,0.9C387.8,163.8,387.8,163.5,387.8,163.2z
			 M388.4,166.9c0-0.2-0.1-0.3-0.1-0.4C388.3,166.6,388.4,166.8,388.4,166.9z M388.1,165.7c0-0.1-0.1-0.3-0.1-0.4
			C388,165.5,388.1,165.6,388.1,165.7z M388.8,168c-0.1-0.1-0.1-0.3-0.2-0.4C388.7,167.7,388.8,167.9,388.8,168z M390.6,170.8
			c-0.1-0.1-0.2-0.2-0.3-0.4C390.4,170.6,390.5,170.7,390.6,170.8z M389.9,170c-0.1-0.1-0.2-0.3-0.3-0.4
			C389.7,169.7,389.8,169.9,389.9,170z M389.3,169.1c-0.1-0.1-0.2-0.3-0.2-0.4C389.2,168.8,389.3,168.9,389.3,169.1z M395.9,152
			c-0.5,0.1-1.2,0.3-1.7,0.5C394.5,152.3,395.4,152.1,395.9,152L395.9,152z M398.8,151.6c-0.2,0-1,0-1.1,0
			C397.8,151.7,398.6,151.6,398.8,151.6L398.8,151.6z M405.2,153.8c-0.1-0.1-0.8-0.6-0.9-0.7C404.4,153.1,405.1,153.6,405.2,153.8
			L405.2,153.8z M404.3,153.1c-0.2-0.1-0.9-0.5-1.1-0.6C403.4,152.6,404.1,152.9,404.3,153.1L404.3,153.1z M403.2,152.5
			c-0.2-0.1-1-0.4-1.2-0.4C402.4,152.2,402.9,152.4,403.2,152.5L403.2,152.5z M401.9,152c-0.2-0.1-1.1-0.2-1.3-0.3
			C401,151.8,401.6,151.9,401.9,152L401.9,152z M400.5,151.7c-0.4,0-1-0.1-1.4-0.1C399.4,151.7,400.1,151.7,400.5,151.7L400.5,151.7
			z M421.5,183.4L421.5,183.4L421.5,183.4C421.5,183.4,421.5,183.4,421.5,183.4C421.5,183.4,421.5,183.4,421.5,183.4z M426.7,148.7
			c0.1,0.2,0.2,0.5,0.4,0.7C427,149.2,426.8,148.9,426.7,148.7z M427.3,149.9c0.1,0.2,0.2,0.5,0.3,0.7
			C427.6,150.4,427.4,150.1,427.3,149.9z M427.9,151.1c0.1,0.2,0.2,0.5,0.3,0.7C428.1,151.6,428,151.4,427.9,151.1z M428.4,152.4
			c0.1,0.2,0.2,0.5,0.3,0.7C428.6,152.8,428.5,152.6,428.4,152.4z M428.9,153.6c0.1,0.2,0.2,0.5,0.2,0.7
			C429,154.1,429,153.8,428.9,153.6z M429.3,154.8c0.1,0.2,0.1,0.5,0.2,0.7C429.4,155.3,429.3,155.1,429.3,154.8z M429.6,156.1
			c0.1,0.2,0.1,0.5,0.2,0.7C429.7,156.6,429.7,156.3,429.6,156.1z M429.9,157.3c0.1,0.2,0.1,0.5,0.1,0.7
			C430,157.8,430,157.6,429.9,157.3z M430.1,158.5c0,0.3,0.1,0.5,0.1,0.8C430.2,159.1,430.2,158.8,430.1,158.5z M430.3,159.7
			c0,0.2,0.1,1,0.1,1.2C430.4,160.8,430.3,159.9,430.3,159.7L430.3,159.7z M433.9,127.5c-0.2,0.1-0.5,0.3-0.7,0.4
			C433.4,127.8,433.6,127.7,433.9,127.5z M441.4,122c-0.2,0.2-0.4,0.4-0.6,0.6C441,122.4,441.2,122.2,441.4,122z M440.2,123.1
			c-0.2,0.2-0.4,0.3-0.6,0.5C439.8,123.4,440,123.3,440.2,123.1z M439.1,124.1c-0.2,0.2-0.4,0.3-0.6,0.5
			C438.6,124.4,438.8,124.3,439.1,124.1z M437.8,125c-0.2,0.2-0.4,0.3-0.7,0.5C437.4,125.3,437.6,125.2,437.8,125z M436.5,125.9
			c-0.2,0.1-0.5,0.3-0.7,0.4C436.1,126.2,436.3,126.1,436.5,125.9z M435.2,126.8c-0.2,0.1-0.5,0.3-0.7,0.4
			C434.8,127,435,126.9,435.2,126.8z M446.9,114.6C446.9,114.6,446.9,114.6,446.9,114.6c-0.1,0.2-0.2,0.4-0.3,0.5
			C446.7,115,446.8,114.8,446.9,114.6z M446.2,115.8c-0.1,0.2-0.3,0.5-0.4,0.7C446,116.3,446.1,116.1,446.2,115.8z M445.4,117.2
			c-0.2,0.2-0.3,0.5-0.5,0.7C445.1,117.7,445.2,117.4,445.4,117.2z M444.5,118.5c-0.2,0.2-0.3,0.4-0.5,0.6
			C444.2,118.9,444.3,118.7,444.5,118.5z M443.5,119.7c-0.2,0.2-0.3,0.4-0.5,0.6C443.2,120.1,443.3,119.9,443.5,119.7z M442.5,120.9
			c-0.2,0.2-0.4,0.4-0.6,0.6C442.1,121.3,442.3,121.1,442.5,120.9z M460.7,79c3.7-1.1,7.3-3.4,9.9-6.2C468,75.7,464.4,77.9,460.7,79
			L460.7,79z M401.3,75.4c-0.1,0-0.2,0.1-0.3,0.1C401.1,75.5,401.2,75.5,401.3,75.4C401.3,75.4,401.3,75.4,401.3,75.4z M394.4,80.2
			c0.2-0.2,0.4-0.3,0.5-0.5C394.8,79.8,394.6,80,394.4,80.2z M395.5,79.2c0.2-0.2,0.4-0.3,0.6-0.5C395.9,78.9,395.7,79,395.5,79.2z
			 M396.6,78.3c0.2-0.1,0.4-0.3,0.6-0.4C397,78,396.8,78.1,396.6,78.3z M397.8,77.4c0.2-0.1,0.4-0.3,0.6-0.4
			C398.2,77.2,398,77.3,397.8,77.4z M399.1,76.6c0.2-0.1,0.4-0.2,0.6-0.3C399.5,76.4,399.3,76.5,399.1,76.6z M391.4,83.5
			c0.2-0.2,0.3-0.4,0.5-0.6C391.7,83.1,391.6,83.3,391.4,83.5z M371.6,84.5c0-0.1,0-0.1-0.1-0.2C371.5,84.3,371.6,84.4,371.6,84.5
			C371.6,84.4,371.6,84.4,371.6,84.5z M367.8,78.1c0.2,0.2,0.3,0.4,0.5,0.6C368.1,78.5,368,78.3,367.8,78.1z M368.7,79.3
			c0.1,0.2,0.3,0.4,0.4,0.6C369,79.7,368.8,79.5,368.7,79.3z M369.5,80.5c0.1,0.2,0.3,0.4,0.4,0.7C369.7,80.9,369.6,80.7,369.5,80.5
			z M370.2,81.7c0.1,0.2,0.2,0.5,0.4,0.7C370.4,82.1,370.3,81.9,370.2,81.7z M370.9,83c0.1,0.2,0.2,0.5,0.3,0.7
			C371.1,83.4,371,83.2,370.9,83z M368.5,123.6c-0.1,0-0.2-0.1-0.3-0.1C368.3,123.5,368.4,123.5,368.5,123.6z M370.5,124
			c-0.1,0-0.1,0-0.2,0C370.4,124,370.4,124,370.5,124z M370.1,123.9c-0.1,0-0.1,0-0.2,0C370,123.9,370,123.9,370.1,123.9z
			 M369.6,123.8c-0.1,0-0.2,0-0.3-0.1C369.5,123.8,369.6,123.8,369.6,123.8z M369.1,123.7c-0.1,0-0.2,0-0.3-0.1
			C368.9,123.7,369,123.7,369.1,123.7z M363.1,121.2c0.1,0.1,0.3,0.2,0.4,0.2C363.3,121.4,363.2,121.3,363.1,121.2z M363.9,121.7
			c0.1,0.1,0.3,0.1,0.4,0.2C364.1,121.8,364,121.7,363.9,121.7z M364.7,122.1c0.1,0.1,0.3,0.1,0.4,0.2
			C364.9,122.2,364.8,122.1,364.7,122.1z M365.4,122.4c0.1,0.1,0.3,0.1,0.4,0.2C365.7,122.6,365.6,122.5,365.4,122.4z M366.2,122.8
			c0.1,0,0.2,0.1,0.4,0.1C366.4,122.9,366.3,122.8,366.2,122.8z M366.9,123c0.1,0,0.2,0.1,0.3,0.1C367.1,123.1,367,123.1,366.9,123z
			 M367.6,123.3c0.1,0,0.2,0.1,0.3,0.1C367.8,123.4,367.7,123.3,367.6,123.3z M181,63.2c0.2-0.1,0.3-0.2,0.5-0.3
			C181.3,63,181.1,63.1,181,63.2L181,63.2z M148.5,54.6c0.1-0.1,0.1-0.1,0.1-0.2C148.6,54.5,148.5,54.5,148.5,54.6z M146.7,55.4
			c0,0-1-0.1-0.3,0C146.7,55.4,147.1,55.3,146.7,55.4L146.7,55.4z M147.1,55.3c0.1,0,0.1,0,0.2-0.1
			C147.2,55.3,147.1,55.3,147.1,55.3z M147.5,55.2c0.1,0,0.1-0.1,0.2-0.1C147.6,55.2,147.5,55.2,147.5,55.2z M147.8,55
			c0.1,0,0.1-0.1,0.2-0.1C148,55,147.9,55,147.8,55z M148.2,54.8c0.1,0,0.1-0.1,0.2-0.1C148.3,54.7,148.2,54.8,148.2,54.8z
			 M136.4,51.6c0.5,0.1,1.2,0.3,1.8,0.4C137.8,51.9,136.9,51.7,136.4,51.6L136.4,51.6z M139.6,52.4c1,0.3,3,1,4,1.5
			C142.5,53.4,140.8,52.7,139.6,52.4L139.6,52.4z M117.7,55.1c0.2-0.2,0.5-0.3,0.7-0.5C118.2,54.8,118,54.9,117.7,55.1z M119.2,54.1
			c0.2-0.2,0.5-0.3,0.8-0.4C119.7,53.8,119.5,53.9,119.2,54.1z M120.9,53.2c0.3-0.1,0.5-0.2,0.8-0.4C121.4,52.9,121.1,53,120.9,53.2
			z M122.6,52.4c0.3-0.1,0.6-0.2,0.9-0.3C123.2,52.2,122.9,52.3,122.6,52.4z M124.5,51.8c0.3-0.1,0.6-0.1,1-0.2
			C125.2,51.7,124.8,51.7,124.5,51.8z M126.5,51.4c0.2,0,0.9-0.1,1-0.1C127.4,51.3,126.7,51.4,126.5,51.4L126.5,51.4z M128.7,51.2
			c0.2,0,1,0,1.1,0C129.6,51.1,128.8,51.1,128.7,51.2L128.7,51.2z M116.4,56.3c0.2-0.2,0.4-0.4,0.6-0.6
			C116.8,56,116.6,56.1,116.4,56.3z M115.2,57.7c0.2-0.2,0.4-0.4,0.5-0.6C115.5,57.3,115.3,57.5,115.2,57.7z M116,29.6
			c0.2,0,1-0.2,1.1-0.2C117,29.4,116.2,29.6,116,29.6L116,29.6z M109.9,31.5c0.2-0.1,0.9-0.3,1-0.4
			C110.8,31.2,110.1,31.5,109.9,31.5L109.9,31.5z M111.9,30.8c0.2-0.1,0.9-0.3,1-0.3C112.8,30.5,112.1,30.8,111.9,30.8L111.9,30.8z
			 M113.9,30.2c0.2,0,0.9-0.3,1.1-0.3C114.9,29.9,114.1,30.1,113.9,30.2L113.9,30.2z M90.3,46.9c0.1-0.2,0.6-0.8,0.6-0.9
			C90.9,46.1,90.4,46.8,90.3,46.9L90.3,46.9z M91.6,45.2c0.1-0.1,0.6-0.8,0.7-0.9C92.2,44.4,91.7,45,91.6,45.2L91.6,45.2z
			 M92.9,43.5c0.1-0.1,0.6-0.8,0.7-0.8C93.5,42.7,93,43.3,92.9,43.5L92.9,43.5z M87.2,52.8c0.1-0.2,0.4-0.9,0.5-1.1
			C87.6,51.9,87.3,52.6,87.2,52.8L87.2,52.8z M88.1,50.8c0.1-0.2,0.5-0.9,0.5-1C88.6,49.8,88.2,50.6,88.1,50.8L88.1,50.8z
			 M89.2,48.8c0.1-0.2,0.5-0.9,0.6-1C89.7,47.9,89.3,48.6,89.2,48.8L89.2,48.8z M65.8,63c-0.1-0.1-0.8-0.4-0.9-0.5
			C64.9,62.5,65.9,63,65.8,63L65.8,63z M28,94.7c-0.2,0.1-0.3,0.3-0.4,0.5C27.7,95,27.9,94.9,28,94.7z M29.4,93.4
			c-0.1,0.1-0.3,0.2-0.4,0.4C29.2,93.7,29.3,93.5,29.4,93.4z M53.7,144.6c-0.1-0.2-0.2-0.4-0.3-0.6
			C53.4,144.2,53.5,144.4,53.7,144.6z M53.8,176.9c-0.1,0-0.3-0.1-0.4-0.1C53.5,176.8,53.6,176.8,53.8,176.9L53.8,176.9z
			 M49.8,180.2c0,1,1.7,4.1,1.9,4.4c0-0.1-0.1-0.2-0.2-0.4c-1.1-2.1-2.9-5.2-0.1-7c0.3-0.2,0.4-0.3,0.4-0.3c-0.1,0.1-1.3,1-1.7,1.8
			c-0.2,0.4-0.3,0.9-0.2,1.3L49.8,180.2z M52.1,177c0.2-0.1,0.3-0.1,0.5-0.2C52.5,176.8,52.3,176.9,52.1,177z M52.7,176.8
			c0.1,0,0.3,0,0.4,0c0,0,0.1,0,0.1,0C53,176.8,52.8,176.8,52.7,176.8z M93.9,242.2c-0.1,0-0.1-0.1-0.2-0.1
			C93.8,242.1,93.8,242.1,93.9,242.2z M93.3,241.8c-0.1,0-0.1-0.1-0.2-0.1C93.2,241.8,93.2,241.8,93.3,241.8z M312.4,209
			C312.4,209,312.4,209,312.4,209C312.4,209,312.4,209,312.4,209C312.4,209,312.4,209,312.4,209C312.4,209,312.4,209,312.4,209z
			 M311.6,195.6c0.2,0.1,0.5,0.2,0.7,0.3C312.1,195.8,311.8,195.7,311.6,195.6z M312.1,208.9c-0.1,0-0.2,0-0.3,0c0,0,0,0,0.1,0
			C312,208.9,312.1,208.9,312.1,208.9z M308.9,194.3c0.1,0.1,0.8,0.4,0.9,0.5C309.7,194.7,309,194.4,308.9,194.3L308.9,194.3z
			 M310.3,195c0.3,0.1,0.5,0.3,0.8,0.4C310.8,195.2,310.5,195.1,310.3,195z M311.9,224.9c-0.2-0.1-1.1-0.3-1.3-0.3
			C311,224.7,311.6,224.9,311.9,224.9L311.9,224.9z M318.5,225.8c-0.5,0-1.2-0.1-1.7-0.1C317.1,225.7,318.1,225.8,318.5,225.8
			L318.5,225.8z M316.5,225.7c-0.5-0.1-1.4-0.2-2-0.3C315,225.5,316,225.6,316.5,225.7L316.5,225.7z M314,225.3
			c-0.3,0-1.2-0.2-1.4-0.3C312.8,225.1,313.7,225.3,314,225.3L314,225.3z M314.2,209.2c0.2,0,0.3,0,0.5,0.1
			C314.5,209.3,314.4,209.2,314.2,209.2z M316.1,209.4c0.1,0,0.2,0,0.3,0C316.3,209.4,316.2,209.4,316.1,209.4z M317.9,209.5
			c0.5,0,1.3,0,1.8-0.1C319.4,209.4,318.4,209.5,317.9,209.5L317.9,209.5z M320.5,225.9c-0.2,0-1.2,0-1.4-0.1
			C319.5,225.9,320.1,225.9,320.5,225.9L320.5,225.9z M312.9,196.1c0.2,0.1,0.5,0.2,0.7,0.3C313.3,196.3,313.1,196.2,312.9,196.1z
			 M314.2,196.5c0.2,0.1,0.5,0.2,0.7,0.2C314.7,196.7,314.4,196.6,314.2,196.5z M315.5,196.9c0.2,0.1,0.5,0.1,0.7,0.2
			C316,197,315.7,197,315.5,196.9z M316.8,197.2c0.2,0.1,0.5,0.1,0.7,0.1C317.3,197.3,317.1,197.3,316.8,197.2z M318.2,197.5
			c0.2,0,0.5,0.1,0.7,0.1C318.7,197.6,318.4,197.5,318.2,197.5z M319.6,197.7c0.2,0,0.5,0.1,0.7,0.1
			C320.1,197.7,319.8,197.7,319.6,197.7z M321,197.8c0.2,0,0.5,0,0.7,0C321.4,197.8,321.2,197.8,321,197.8z M322.3,197.8
			c0.2,0,0.4,0,0.6,0c-0.1,0-0.2,0-0.2,0C322.6,197.8,322.4,197.8,322.3,197.8z M308.6,194.1c-0.1,0-0.1-0.1-0.2-0.1h0
			C308.5,194.1,308.5,194.1,308.6,194.1z M375.4,186.2c0,0,0.1,0.1,0.1,0.1C375.5,186.3,375.4,186.3,375.4,186.2
			C375.4,186.2,375.4,186.2,375.4,186.2z M388.3,193c-0.3-0.1-0.5-0.1-0.8-0.2C387.8,192.9,388,193,388.3,193z M386.9,192.7
			c-0.3-0.1-0.5-0.2-0.7-0.2C386.4,192.5,386.7,192.6,386.9,192.7z M385.6,192.2c-0.3-0.1-0.5-0.2-0.7-0.3
			C385.1,192,385.3,192.1,385.6,192.2z M384.2,191.7c-0.3-0.1-0.5-0.2-0.7-0.3C383.7,191.5,384,191.6,384.2,191.7z M382.9,191.2
			c-0.3-0.1-0.5-0.2-0.8-0.4C382.4,190.9,382.7,191.1,382.9,191.2z M381.7,190.6c-0.3-0.1-0.5-0.3-0.8-0.4
			C381.2,190.3,381.4,190.4,381.7,190.6z M380.5,189.9c-0.2-0.1-0.8-0.5-0.9-0.6C379.6,189.4,380.3,189.8,380.5,189.9L380.5,189.9z
			 M379.3,189.2c-0.2-0.1-1-0.6-1.2-0.8C378.3,188.5,379,189,379.3,189.2L379.3,189.2z M377.9,188.3c-0.2-0.1-0.8-0.6-0.9-0.7
			C377.1,187.7,377.8,188.2,377.9,188.3L377.9,188.3z M376.6,187.3c-0.2-0.2-0.5-0.4-0.7-0.6C376.1,186.9,376.4,187.1,376.6,187.3z
			 M391.1,193.6c-0.3,0-0.5-0.1-0.8-0.1C390.6,193.5,390.8,193.6,391.1,193.6z M389.7,193.4c-0.3-0.1-0.5-0.1-0.8-0.2
			C389.2,193.2,389.4,193.3,389.7,193.4z M391,171.3c0.1,0.1,0.2,0.2,0.4,0.3C391.2,171.5,391.1,171.4,391,171.3z M397.8,174.7
			c-0.2,0-0.3,0-0.5-0.1C397.5,174.6,397.7,174.6,397.8,174.7z M396.8,174.5c-0.2,0-0.3-0.1-0.5-0.1
			C396.5,174.4,396.7,174.5,396.8,174.5z M395.8,174.2c-0.2,0-0.3-0.1-0.5-0.2C395.5,174.1,395.7,174.2,395.8,174.2z M394.8,173.9
			c-0.1-0.1-0.3-0.1-0.4-0.2C394.5,173.8,394.7,173.8,394.8,173.9z M393.9,173.5c-0.1-0.1-0.3-0.2-0.4-0.2
			C393.6,173.3,393.7,173.4,393.9,173.5z M393,172.9c-0.1-0.1-0.3-0.2-0.4-0.3C392.7,172.8,392.9,172.8,393,172.9z M392.1,172.3
			c-0.1-0.1-0.3-0.2-0.4-0.3C391.9,172.1,392,172.2,392.1,172.3z M398.9,174.7c-0.2,0-0.3,0-0.5,0
			C398.6,174.7,398.7,174.7,398.9,174.7z M457.8,173.1c0.1,0,0.2,0,0.2,0.1C457.9,173.1,457.8,173.1,457.8,173.1z M459,173.5
			c0.1,0,0.1,0.1,0.2,0.1C459.1,173.5,459.1,173.5,459,173.5z M460,173.9c0.1,0,0.2,0.1,0.3,0.1C460.2,174,460.1,174,460,173.9z
			 M474.9,196.8c0.1-0.3,0.2-0.4,0.2-0.3c-0.9,2-2.7,4.2-2.8,6.4c0-1.8,1.8-4.3,2.6-5.9L474.9,196.8z M475.7,202.7
			c-0.1,0.1-0.2,0.3-0.3,0.4C475.5,202.9,475.6,202.8,475.7,202.7z M475.3,203.2c-0.1,0.1-0.2,0.2-0.2,0.2
			C475.1,203.3,475.2,203.3,475.3,203.2z M475,203.5c-0.1,0.1-0.2,0.2-0.4,0.2C474.7,203.6,474.8,203.6,475,203.5z M474.5,203.7
			c-0.1,0-0.2,0.1-0.3,0.1C474.3,203.7,474.4,203.7,474.5,203.7z M474.1,203.7c-0.1,0-0.2,0-0.3,0
			C473.9,203.7,474,203.7,474.1,203.7z M473.6,203.7c-0.1,0-0.3-0.1-0.5-0.2C473.3,203.5,473.5,203.6,473.6,203.7z M470.4,182.5
			c-0.5,0.8-1.1,1.8-1.5,2.5C469.3,184.4,470.1,183.2,470.4,182.5L470.4,182.5z M467.3,181c-0.1,0.2-0.8,1.4-0.6,1.2
			c0.3-0.5,0.8-1.3,0.9-1.9c0.1-0.2-0.1,0.3-0.2,0.5L467.3,181z M465.2,177.8c-0.4-0.4-1.6-1.5-2-1.8
			C463.8,176.5,464.7,177.3,465.2,177.8L465.2,177.8z M462.2,175.2c0.1,0.1,0.2,0.1,0.2,0.2C462.3,175.3,462.2,175.3,462.2,175.2z
			 M454.6,172.6c-0.1,0-0.2,0-0.3,0c0,0,0.1,0,0.1,0C454.4,172.6,454.5,172.6,454.6,172.6z M456.9,172.9c-0.1,0-0.2,0-0.2-0.1
			C456.8,172.8,456.8,172.8,456.9,172.9z M455.6,172.7c-0.1,0-0.1,0-0.2,0C455.5,172.6,455.6,172.6,455.6,172.7z M451.6,172.9
			c0.1,0,0.2,0,0.3-0.1C451.8,172.9,451.7,172.9,451.6,172.9z M452.5,172.7c0.1,0,0.2,0,0.4,0C452.7,172.7,452.6,172.7,452.5,172.7z
			 M453.4,172.6c0.1,0,0.2,0,0.4,0C453.6,172.6,453.5,172.6,453.4,172.6z M466.3,95.9c-0.1,0,0.8,0.5,1.7,1.1
			c0.9,0.6,1.6,1.1,1.3,0.9C468.4,97.3,467.2,96.5,466.3,95.9L466.3,95.9z M470,98.3c0.1,0,0.1,0,0.2,0
			C470.1,98.3,470.1,98.3,470,98.3z M470.6,98.4c0.1,0,0.2,0,0.3,0c-0.1,0-0.1,0-0.2,0C470.7,98.4,470.7,98.4,470.6,98.4z
			 M471.1,98.4c0.3,0,1.1-0.4,1.2-0.6C472.2,98,471.4,98.4,471.1,98.4L471.1,98.4z M493.7,44.8c-0.1-0.2-0.6-0.9-0.7-0.9
			C493.1,43.9,493.6,44.6,493.7,44.8L493.7,44.8z M472.6,23.3c-0.2-0.3-1.1-0.8-1.4-0.9C471.5,22.5,472.4,23,472.6,23.3L472.6,23.3z
			 M471,22.4c-0.1,0-0.2,0-0.3,0c0,0,0.1,0,0.1,0C470.8,22.4,470.9,22.4,471,22.4z M470,22.6c0.1,0,0.1,0,0.2,0
			C470.1,22.5,470.1,22.5,470,22.6z M456.1,32.1c-1.7-1.2-12.2-8.5-13.3-9.2C446.6,25.5,452.5,29.6,456.1,32.1L456.1,32.1z
			 M442.2,22.6c-0.1,0-0.1,0-0.2,0C442,22.5,442.1,22.5,442.2,22.6z M441.5,22.4c-0.1,0-0.2,0-0.3,0c0.1,0,0.1,0,0.2,0
			C441.4,22.4,441.5,22.4,441.5,22.4z M440.5,22.6c0.2-0.1,0.3-0.1,0.5-0.1C440.9,22.5,440.7,22.5,440.5,22.6z M436,40.1
			c0.6-0.6,0.8-1.8,1.2-3.6c0.6-3.3,1.7-9.2,2.1-11.7c-0.2,1.1-1.6,8.8-2.3,12.6C436.8,38.4,436.6,39.4,436,40.1
			c-0.7,0.7-1.7,0.8-2.7,1.1c-3.7,0.7-11.5,2.1-12.6,2.3c1.3-0.2,5.1-0.9,7.3-1.4C430.5,41.6,434.2,41.5,436,40.1L436,40.1z
			 M419.7,43.5c-0.2,0.1-0.8,0.6-0.9,0.7C418.8,44.1,419.5,43.6,419.7,43.5L419.7,43.5z M393.9,80.7c-0.2,0.2-0.3,0.3-0.5,0.5
			C393.5,81,393.7,80.9,393.9,80.7z M392.4,82.3c0.2-0.2,0.3-0.4,0.5-0.6C392.7,81.9,392.5,82.1,392.4,82.3z M390.1,85.3
			c-0.1,0.1-0.2,0.3-0.2,0.4c0,0,0,0,0,0C390,85.6,390,85.4,390.1,85.3z M391,84.1c-0.1,0.2-0.3,0.4-0.4,0.6
			C390.7,84.5,390.8,84.3,391,84.1z M367.4,77.6c-0.2-0.2-0.3-0.4-0.5-0.6C367.1,77.2,367.3,77.4,367.4,77.6z M366.5,76.6
			c-0.2-0.2-0.3-0.4-0.5-0.5C366.2,76.2,366.3,76.4,366.5,76.6z M365.5,75.6c-0.2-0.2-0.4-0.3-0.5-0.5
			C365.2,75.2,365.4,75.4,365.5,75.6z M362.9,73.3c0.2,0.2,0.4,0.3,0.6,0.5C363.3,73.6,363.1,73.4,362.9,73.3z M364,74.1
			c0.2,0.2,0.4,0.3,0.6,0.5C364.3,74.5,364.2,74.3,364,74.1z M217.4,63.1c-1.2-0.7-3.2-1.7-4.5-2.2
			C214.2,61.4,216.2,62.3,217.4,63.1L217.4,63.1z M211.2,60.2c-2.9-0.9-6.2-1.5-9.4-1.8C205.1,58.7,208.4,59.3,211.2,60.2
			L211.2,60.2z M199.3,58.4c0.1,0,0.2,0,0.3,0c-0.2,0-0.4,0-0.6,0C199.1,58.4,199.2,58.4,199.3,58.4z M182.8,62.2
			c0.2-0.1,0.4-0.2,0.6-0.3C183.2,62,183,62.1,182.8,62.2z M184.1,61.6c0.2-0.1,0.4-0.2,0.6-0.3C184.6,61.4,184.3,61.5,184.1,61.6z
			 M185.5,61c0.2-0.1,0.4-0.2,0.7-0.3C185.9,60.8,185.7,60.9,185.5,61z M186.9,60.5c0.2-0.1,0.5-0.2,0.7-0.2
			C187.3,60.3,187.1,60.4,186.9,60.5z M188.3,60c0.2-0.1,0.5-0.1,0.7-0.2C188.8,59.9,188.5,59.9,188.3,60z M189.8,59.6
			c0.2-0.1,0.5-0.1,0.7-0.2C190.2,59.5,190,59.5,189.8,59.6z M191.2,59.3c0.3-0.1,0.5-0.1,0.8-0.2C191.7,59.2,191.5,59.2,191.2,59.3
			z M192.7,59c0.3,0,0.5-0.1,0.8-0.1C193.3,58.9,193,58.9,192.7,59z M194.3,58.8c0.3,0,0.5-0.1,0.8-0.1
			C194.8,58.7,194.5,58.7,194.3,58.8z M195.8,58.6c0.3,0,0.5,0,0.8-0.1C196.3,58.5,196.1,58.6,195.8,58.6z M197.4,58.5
			c0.3,0,0.6,0,0.8,0C197.9,58.5,197.6,58.5,197.4,58.5z M155.1,37.5c-1.6,4.5-4.4,12-6.1,16.6C150.4,50.2,153.8,41.1,155.1,37.5
			L155.1,37.5z M148.7,54.3c0.1-0.1,0.1-0.1,0.1-0.2C148.8,54.2,148.8,54.2,148.7,54.3z M130.1,28c3.1,0.1,6.9,0.4,10.1,1
			c-3-0.6-7.7-1-11.2-1c-0.1,0,0.3,0,0.9,0L130.1,28z M118.1,29.2c0.2,0,1-0.2,1.1-0.2C119.1,29,118.3,29.1,118.1,29.2L118.1,29.2z
			 M120.2,28.8c0.2,0,1-0.2,1.1-0.2C121.2,28.6,120.4,28.8,120.2,28.8L120.2,28.8z M122.4,28.5c0.2,0,1-0.1,1.1-0.1
			C123.4,28.4,122.6,28.5,122.4,28.5L122.4,28.5z M124.6,28.3c0.2,0,1-0.1,1.1-0.1C125.6,28.2,124.7,28.3,124.6,28.3L124.6,28.3z
			 M126.7,28.1c0.2,0,1,0,1.1,0C127.8,28.1,126.9,28.1,126.7,28.1L126.7,28.1z M109,31.9c-0.2,0.1-0.9,0.4-1,0.4
			C108.1,32.3,108.8,32,109,31.9L109,31.9z M107.1,32.7c-0.2,0.1-0.9,0.4-1,0.5C106.2,33.2,106.9,32.8,107.1,32.7L107.1,32.7z
			 M105.2,33.7c-0.2,0.1-0.8,0.5-0.9,0.5C104.3,34.1,105,33.8,105.2,33.7L105.2,33.7z M103.3,34.7c-0.1,0.1-0.8,0.5-0.9,0.6
			C102.5,35.2,103.2,34.8,103.3,34.7L103.3,34.7z M101.6,35.8c-0.1,0.1-0.8,0.5-0.9,0.6C100.8,36.3,101.4,35.9,101.6,35.8
			L101.6,35.8z M99.8,37c-0.1,0.1-0.8,0.6-0.8,0.6C99.1,37.5,99.7,37.1,99.8,37L99.8,37z M98.2,38.2c-0.1,0.1-0.7,0.6-0.8,0.7
			C97.4,38.9,98,38.4,98.2,38.2L98.2,38.2z M96.6,39.6c-0.1,0.1-0.7,0.7-0.8,0.7C95.9,40.3,96.5,39.7,96.6,39.6L96.6,39.6z
			 M95.1,41.1c-0.1,0.1-0.7,0.7-0.7,0.8C94.4,41.8,94.9,41.2,95.1,41.1L95.1,41.1z M61.1,60.7c-0.8-0.4-2.1-0.9-2.9-1.2
			C58.9,59.8,60.3,60.4,61.1,60.7L61.1,60.7z M21.6,102.9c0.4,0.6,1.4,2.1,2,2.7C23,104.9,22.1,103.7,21.6,102.9L21.6,102.9z
			 M26.6,96.2c-0.1,0.1-0.2,0.3-0.3,0.4C26.4,96.4,26.5,96.3,26.6,96.2z M25.1,98c-0.1,0.1-0.2,0.2-0.2,0.3
			C24.9,98.2,25,98.1,25.1,98z M23.9,99.5c-0.1,0.2-0.2,0.3-0.3,0.5C23.7,99.8,23.8,99.6,23.9,99.5z M22.9,101
			c-0.1,0.2-0.2,0.3-0.3,0.5C22.7,101.3,22.8,101.2,22.9,101z M24.8,107.2c0.7,0.9,1.9,2.1,2.7,3C26.8,109.5,25.4,108,24.8,107.2
			L24.8,107.2z M41.3,230.1c0,0.2-0.1,0.4-0.1,0.6C41.3,230.6,41.3,230.4,41.3,230.1z M42.5,233.1c0.1,0.1,0.1,0.1,0.2,0.1
			C42.6,233.2,42.6,233.1,42.5,233.1z M43.1,233.5c0.1,0,0.2,0.1,0.3,0.1C43.2,233.5,43.2,233.5,43.1,233.5z M43.7,233.7
			c0.1,0,0.2,0,0.3,0C43.9,233.7,43.8,233.7,43.7,233.7z M44.3,233.7C44.3,233.7,44.3,233.7,44.3,233.7c0.1,0,0.2,0,0.4,0
			C44.6,233.7,44.4,233.7,44.3,233.7z M46.2,233.4c0.9-0.3,2.2-0.8,3.1-1.2C48.5,232.5,47,233.1,46.2,233.4L46.2,233.4z M44.9,233.7
			c0.1,0,0.3-0.1,0.4-0.1C45.2,233.6,45.1,233.7,44.9,233.7z M45.6,233.6c0.2,0,0.3-0.1,0.5-0.1C45.9,233.5,45.7,233.5,45.6,233.6z
			 M67.1,249.3c0,0,0.1,0,0.2,0C67.2,249.4,67.2,249.4,67.1,249.3z M67.9,249.5c0.1,0,0.1,0,0.2,0C68.1,249.4,68,249.5,67.9,249.5
			C68,249.5,68,249.5,67.9,249.5z M68.5,249.4c0.1,0,0.1,0,0.2,0C68.6,249.4,68.6,249.4,68.5,249.4z M69.1,249.3
			c0.1,0,0.1,0,0.2-0.1C69.2,249.2,69.1,249.3,69.1,249.3z M69.6,249c0.1,0,0.1-0.1,0.2-0.1C69.8,249,69.7,249,69.6,249z M95,242.4
			c0.1,0,0.1,0,0.2,0c0,0,0,0,0,0C95.1,242.4,95.1,242.4,95,242.4z M94.3,242.3c0.1,0,0.1,0,0.2,0.1
			C94.5,242.4,94.4,242.3,94.3,242.3z M96.4,242.2c0.2-0.1,0.4-0.2,0.6-0.3C96.8,242,96.6,242.1,96.4,242.2z M95.3,242.4
			c0.1,0,0.3,0,0.4,0C95.6,242.4,95.4,242.4,95.3,242.4z M95.9,242.3c0.1,0,0.3-0.1,0.4-0.1C96.1,242.3,96,242.3,95.9,242.3z
			 M164.7,213.7l-0.2,0L164.7,213.7c0.1,0,0.2,0,0.3,0C164.9,213.7,164.8,213.7,164.7,213.7C164.7,213.7,164.7,213.7,164.7,213.7z
			 M165.2,213.6c0.1,0,0.2,0,0.2-0.1C165.4,213.6,165.3,213.6,165.2,213.6z M165.6,213.5c0.1,0,0.1-0.1,0.2-0.1
			C165.8,213.4,165.7,213.5,165.6,213.5z M166,213.3c0.1,0,0.1-0.1,0.2-0.2C166.2,213.2,166.1,213.2,166,213.3z M166.4,213
			c0.1-0.1,0.1-0.1,0.2-0.2C166.5,212.9,166.4,212.9,166.4,213z M167.1,211.9c0-0.1,0.1-0.3,0.1-0.4
			C167.1,211.6,167.1,211.7,167.1,211.9z M166.7,212.7c0.1-0.1,0.1-0.2,0.1-0.2C166.8,212.5,166.7,212.6,166.7,212.7z M166.9,212.3
			c0-0.1,0.1-0.2,0.1-0.3C167,212.1,167,212.2,166.9,212.3z M186.5,208.7c0,0.1,0.1,0.1,0.1,0.2
			C186.6,208.8,186.5,208.7,186.5,208.7z M185.9,207.5c0,0.1,0.1,0.3,0.1,0.4C186,207.7,186,207.6,185.9,207.5z M186.1,208
			c0,0.1,0.1,0.2,0.1,0.2C186.1,208.2,186.1,208.1,186.1,208z M186.3,208.4c0,0.1,0.1,0.1,0.1,0.2
			C186.3,208.5,186.3,208.4,186.3,208.4z M187.9,209.3c0,0-0.1,0-0.1,0c0.1,0,0.2,0,0.3,0C188,209.3,188,209.3,187.9,209.3z
			 M186.8,208.9c0.1,0,0.1,0.1,0.2,0.1C186.9,209,186.8,209,186.8,208.9z M187.1,209.1c0.1,0,0.1,0.1,0.2,0.1
			C187.2,209.2,187.1,209.1,187.1,209.1z M187.4,209.3c0.1,0,0.1,0,0.2,0C187.6,209.3,187.5,209.3,187.4,209.3z M238.5,200.7
			c0.1,0,0.2,0,0.3,0c0,0-0.1,0-0.1,0C238.7,200.7,238.6,200.7,238.5,200.7z M240,200.3c0.1,0,0.1-0.1,0.2-0.1
			C240.1,200.2,240,200.3,240,200.3z M239,200.7c0.1,0,0.1,0,0.2,0C239.1,200.7,239.1,200.7,239,200.7z M239.4,200.6
			c0.1,0,0.1,0,0.2-0.1C239.5,200.6,239.4,200.6,239.4,200.6z M239.7,200.5c0.1,0,0.1-0.1,0.2-0.1
			C239.8,200.4,239.7,200.5,239.7,200.5z M240.6,199.4c0-0.1,0.1-0.2,0.1-0.3C240.7,199.2,240.6,199.3,240.6,199.4z M240.2,200.1
			c0-0.1,0.1-0.1,0.1-0.2C240.3,199.9,240.3,200,240.2,200.1z M240.4,199.8c0-0.1,0.1-0.1,0.1-0.2
			C240.5,199.6,240.5,199.7,240.4,199.8z M271.8,208.8c0.2,0,0.4,0,0.6,0c0,0-0.1,0-0.1,0C272.1,208.9,271.9,208.9,271.8,208.8z
			 M274,208.5c0.2-0.1,0.5-0.2,0.7-0.4C274.5,208.3,274.3,208.4,274,208.5z M272.6,208.8c0.2,0,0.3,0,0.5-0.1
			C272.9,208.8,272.8,208.8,272.6,208.8z M273.3,208.7c0.2,0,0.3-0.1,0.5-0.2C273.6,208.6,273.5,208.7,273.3,208.7z M286.8,200.7
			c0,0-0.1,0.4-0.1,0.4c0,0,0.2-0.8,0.1-0.8c0,0,0,0.3,0,0.4L286.8,200.7z M310,224.5c-0.5-0.1-1.3-0.4-1.9-0.5
			C308.5,224.1,309.6,224.4,310,224.5L310,224.5z M321.1,225.9c0.2,0,1.2,0,1.4,0C322.1,226,321.4,226,321.1,225.9L321.1,225.9z
			 M325.2,225.8c-0.6,0-1.4,0.1-2,0.1C323.7,225.9,324.7,225.9,325.2,225.8L325.2,225.8z M336.1,223.4c0.5-0.2,1.2-0.5,1.7-0.7
			C337.4,222.9,336.5,223.3,336.1,223.4L336.1,223.4z M342.4,220.3c0.9-0.5,2-1.4,2.8-2C344.5,218.9,343.2,219.8,342.4,220.3
			L342.4,220.3z M348.5,215.3c0.3-0.3,1.2-1.4,1.5-1.8C349.7,213.9,348.9,214.9,348.5,215.3L348.5,215.3z M355.7,203.3
			c-0.4,1.3-1.8,4.6-2.2,5.3c0.4-0.8,0.9-2.1,1.3-3c1.5-3.7,2.4-7.5,3.1-11.5c0,0-0.1,0.3-0.2,0.9c-0.4,2.6-1.1,5.5-2,8L355.7,203.3
			z M351.4,211.7c0.4-0.5,1-1.6,1.4-2.2C352.5,210,351.7,211.3,351.4,211.7L351.4,211.7z M391.7,193.7c0.3,0,0.5,0.1,0.8,0.1
			C392.3,193.8,392,193.7,391.7,193.7z M393.2,193.9c0.3,0,0.5,0,0.8,0.1C393.7,193.9,393.4,193.9,393.2,193.9z M394.6,194
			c0.3,0,0.5,0,0.8,0C395.2,194,394.9,194,394.6,194z M396.3,194c-0.1,0-0.1,0-0.2,0c0.1,0,0.3,0,0.4,0
			C396.4,194,396.4,194,396.3,194z M398.9,193.9c0,0,0.8-0.1,0.7-0.1C399.4,193.9,398.9,193.9,398.9,193.9L398.9,193.9z
			 M417.1,207.6c0,0.3,0,0.5,0.1,0.7C417.1,208.1,417.1,207.8,417.1,207.6z M417.2,208.5c0,0.2,0.1,0.3,0.1,0.5
			C417.3,208.8,417.2,208.7,417.2,208.5z M417.4,209.1c0.1,0.2,0.2,0.3,0.3,0.5C417.6,209.4,417.5,209.3,417.4,209.1z M417.7,209.7
			c0.1,0.1,0.2,0.2,0.3,0.3C417.9,209.8,417.8,209.8,417.7,209.7z M418.1,210c0.1,0.1,0.3,0.1,0.4,0.2
			C418.4,210.1,418.3,210.1,418.1,210z M418.6,210.2c0.2,0,0.4,0,0.6,0c0,0-0.1,0-0.1,0C418.9,210.2,418.7,210.2,418.6,210.2z
			 M420.3,209.9c-0.3,0.1-0.4,0.2-0.3,0.1c1.5-0.7,3.6-1.8,5.1-2.7c-1.2,0.7-3.3,1.9-4.7,2.5L420.3,209.9z M419.3,210.2
			c0.2,0,0.4-0.1,0.6-0.1C419.6,210.2,419.4,210.2,419.3,210.2z M425.5,207.2c-0.1,0-0.2,0-0.3,0.1
			C425.3,207.2,425.4,207.2,425.5,207.2z M426.5,207.8c0.1,0.1,0.1,0.3,0.2,0.4C426.6,208.1,426.5,208,426.5,207.8z M426.2,207.5
			c0.1,0.1,0.1,0.1,0.2,0.2C426.3,207.7,426.3,207.6,426.2,207.5z M430.2,215c0.1,0.2,0.2,0.3,0.3,0.4
			C430.3,215.2,430.3,215.1,430.2,215z M430.5,215.4c0.1,0.1,0.2,0.1,0.3,0.2C430.7,215.5,430.6,215.5,430.5,215.4z M430.8,215.6
			c0.1,0,0.2,0,0.3,0c-0.1,0-0.1,0-0.2,0C430.9,215.6,430.9,215.6,430.8,215.6z M431.7,215.4c-0.2,0.1-0.3,0.1-0.5,0.2
			C431.3,215.5,431.5,215.5,431.7,215.4z M433.1,214.6c1-0.6,2.4-1.3,3.5-1.8C435.7,213.1,433.9,214.1,433.1,214.6L433.1,214.6z
			 M482,232c-0.4-0.3-0.9-0.8-1.3-1.1C480.9,231.2,481.6,231.8,482,232L482,232z M483.3,233c-0.2-0.1-0.8-0.6-0.9-0.6
			C482.5,232.4,483.1,232.9,483.3,233L483.3,233z M488.3,235.1c0.3,0.1,0.6,0.1,0.9,0.2C488.9,235.2,488.6,235.2,488.3,235.1z
			 M489.9,235.4c0.2,0,0.9,0.1,1,0.1C490.8,235.4,490,235.4,489.9,235.4L489.9,235.4z M491.5,235.5c0.1,0,1.3,0,1.6-0.1
			c-0.5,0-1.1,0.1-1.5,0.1L491.5,235.5z"/>
	</g>
</g>
<g id="Layer_2">
	<path class="st24" d="M471.6,22.6c0.7,0.3,1.3,1,1.4,1.8l2.9,16l15.9,2.9c0.8,0.1,1.4,0.7,1.8,1.4s0.2,1.6-0.2,2.3l-9.2,13.4
		l9.2,13.4c0.5,0.7,0.5,1.5,0.2,2.3s-1,1.3-1.8,1.4l-15.9,3l-2.9,16c-0.1,0.8-0.7,1.5-1.4,1.8c-0.7,0.3-1.6,0.2-2.2-0.2l-13.3-9.2
		L442.8,98c-0.7,0.5-1.5,0.5-2.2,0.2c-0.7-0.3-1.3-1-1.4-1.8l-2.9-16l-15.9-3c-0.8-0.1-1.4-0.7-1.8-1.4s-0.2-1.6,0.2-2.3l9.2-13.4
		L418.7,47c-0.5-0.7-0.5-1.5-0.2-2.3s1-1.3,1.8-1.4l15.9-3l2.9-16c0.1-0.8,0.7-1.5,1.4-1.8c0.7-0.3,1.6-0.2,2.2,0.2l13.3,9.2
		l13.3-9.2C470.1,22.4,470.9,22.3,471.6,22.6z M441.9,60.4c0-7.9,6.3-14.3,14.2-14.3c7.8,0,14.2,6.4,14.2,14.3s-6.3,14.3-14.2,14.3
		C448.3,74.7,441.9,68.3,441.9,60.4z M475,60.4c0-10.5-8.5-19-18.9-19c-10.4,0-18.9,8.5-18.9,19s8.5,19,18.9,19
		C466.5,79.4,475,70.9,475,60.4z"/>
	<g>
		<path class="st25" d="M75.7,88.8c0.3-1,0.7-1.9,1.3-2.7C76.7,87.1,76.3,88,75.7,88.8z"/>
		<path class="st25" d="M81.3,71.8c-0.2,0.1-0.3,0.1-0.5,0.2C80.9,71.8,81.1,71.8,81.3,71.8z"/>
		<path class="st25" d="M76.2,74.2c-2.3-5.5-7.1-9.7-12.4-12.2c-3.6-1.6-7.7-3.6-11.5-4.2c-4.5,6.8-8.9,14.4-8.4,22.8
			c0,0.5-0.2,1.7,0.5,1.7c8.7-1.4,15.3,4.4,20,10.1c4.1-0.3,3.9-4.5,3.2-7.7c-0.3-1.2,1.7-1,2.4-1.5c2.3,0.7,1.1,6.2,0.8,8.4
			c0.2,0.6,1.4,0.4,1.9,0.9c1.1-0.5,2.2-2.5,3-3.7C78.3,84.4,78.5,78.8,76.2,74.2z M69.3,79c0.2,0.4-0.1,0.9-0.5,1.1L67,80.8
			c-0.4,0.2-0.9-0.1-1.1-0.5l-0.7-1.8c-0.2-0.4,0.1-0.9,0.5-1.1l1.8-0.7c0.4-0.2,0.9,0.1,1.1,0.5L69.3,79z"/>
		<path class="st25" d="M74.2,98.5c-0.4-0.9-1-1.6-1.8-2.2l0,0c-1.5-1.2-3.7-1.8-5.6-1.2l0,0c-0.6,0-1,0.2-1.5,0.5l0,0
			c-3.3,1.4-4.7,5.9-3,9l0,0c0.4,0.9,1,1.7,1.8,2.2c0.2,0.3,0.5,0.4,0.8,0.6l0,0C70.4,111,77.6,104.2,74.2,98.5z M70.3,102
			c0.2,0.4-0.1,0.9-0.5,1.1l-1.8,0.7c-0.4,0.2-0.9-0.1-1.1-0.5l-0.7-1.8c-0.2-0.4,0.1-0.9,0.5-1.1l1.8-0.7c0.4-0.2,0.9,0.1,1.1,0.5
			L70.3,102z"/>
		<path class="st25" d="M21.6,103c4.4,6.6,11.1,13.2,19.1,15.4l0,0c2.7,1.6,2.4-4.7,4.3-6.4c2.9-4.8,7.5-7.6,12.9-8.8
			c1.9-4-1.9-5.6-5.5-6c-1.7,0.2-1-1.7-1.2-2.8c1.3-2,6.1,0.7,8,1.7c0.6,0.6,2-1.4,1.7-1.9C50.4,76.3,29.4,89.2,21.6,103z
			 M47.9,94.6l0.1,1.9c0,0.5-0.3,0.9-0.8,0.9l-1.9,0.1c-0.5,0-0.9-0.3-0.9-0.8l-0.1-1.9c0-0.5,0.3-0.9,0.8-0.9l1.9-0.1
			C47.5,93.8,47.9,94.1,47.9,94.6z"/>
		<path class="st25" d="M92.7,70.5L92.7,70.5c-4-0.4-8.2,0-11.9,1.5c-3.7,0.2,5.2,11.7-4.3,21.4c-0.3,0.5-1.2,1.1-0.6,1.6
			c1,0.8,1.1,2.9,2.7,2.4c2-0.1,4.1-0.6,5.7-1.8c0.6-0.5,0.8,0.4,1.2,0.7c3.9,3.7-5.7,3.7-7.1,4.9c-0.6,4.6,9.9,4.4,13,2.9l0,0
			c11.7-4.4,15.7-20.7,13.4-31.3C100.8,71.7,96.8,70.8,92.7,70.5z M91.6,94.4l-1.5,1.1c-0.4,0.3-0.9,0.2-1.2-0.2l-1.1-1.5
			c-0.3-0.4-0.2-0.9,0.2-1.2l1.5-1.1c0.4-0.3,0.9-0.2,1.2,0.2l1.1,1.5C92,93.6,92,94.1,91.6,94.4z"/>
		<path class="st25" d="M103.9,110.3L103.9,110.3c-0.2-0.4-0.2-0.9-0.6-1.2l0,0c-0.7-1.7-1.7-3.2-2.9-4.6c-0.4-0.4-0.8-1.6-1.5-1
			c-13.3,11.5-21.3-1.4-23.7,6.1c0.8,2.3,2.1,4.4,4.1,5.8c-0.5,0.7-1.3,3-2.3,2.6c-2.5-1.5-3.6-4.8-5.1-6.8c-2.3,0.3-2,1.3-2.1,3.4
			c-0.6,12.3,13.3,18.8,23.9,16.9c2.2-0.4,13.7-2.1,13.2-4.5C106.6,121.3,106.2,115.5,103.9,110.3z M84.8,119.7l-0.9,1.7
			c-0.2,0.4-0.7,0.5-1.1,0.3l-1.7-0.9c-0.4-0.2-0.5-0.7-0.3-1.1l0.9-1.7c0.2-0.4,0.7-0.5,1.1-0.3l1.7,0.9
			C84.9,118.8,85,119.3,84.8,119.7z"/>
		<path class="st25" d="M76.3,131.5c-6.9-3.8-10.7-11.7-9.7-19.5c-0.6-0.8-2.4-0.9-3.4-1.4c-2.3,1.3-3.4,4.3-4.8,5.8
			c-5.6-0.4-0.3-5.8,1.9-7.8c0.6-0.6-0.8-1.4-0.9-2.1c-1.6,0.3-3.5,0.7-5,1.5l0,0c-14.2,7.1-9.4,26.2-1.1,36c1.9,3.7,2.9,2.4,6.1,1
			c6.2-2.5,12.5-6,16.3-11.8C75.8,132.6,76.9,131.9,76.3,131.5z M57.7,120.5l-0.5,1.9c-0.1,0.4-0.6,0.7-1,0.6l-1.9-0.5
			c-0.4-0.1-0.7-0.6-0.6-1l0.5-1.9c0.1-0.4,0.6-0.7,1-0.6l1.9,0.5C57.6,119.6,57.9,120,57.7,120.5z"/>
	</g>
	<path class="st6" d="M162.7,94.7c0.4,0.7,0.7,1.4,0.7,2.1c0,0.9-0.4,1.8-1.6,2.9c-11.2,10.8-24,15.5-36,15.3
		c-22.9-0.4-42.8-18.4-42.3-43.8c0.5-30.3,23.5-43.5,47.2-43.1c8.9,0.2,17.3,2.4,23.3,6.5c0.7,0.5,1.2,1.6,1.2,2.6
		c0,0.3,0,0.5-0.1,0.8l-5.9,15.7c-0.3,0.8-1.3,1.7-2.4,1.7c-0.4,0-0.8-0.1-1.1-0.3c-3.1-2.1-8.6-3.9-14.3-4
		c-12.6-0.2-20,7.4-20.3,19.6c-0.2,11.8,8.6,18.8,19.1,18.9c7,0.1,15-2.8,21.4-9.4c0.4-0.4,1-0.6,1.5-0.6c1,0,2.1,0.6,2.5,1.4
		L162.7,94.7z"/>
	<path class="st26" d="M195.8,119c-16.3-1-29.8-13.6-28.7-31.2c1.3-20.6,17.3-30.3,34.9-29.2c22.1,1.3,30.5,19.2,29.7,32.2
		C230.4,110.2,210,119.8,195.8,119z M210.3,89.2c0.1-1.9,0.3-11.6-9.9-12.2c-8.4-0.5-11.2,6.4-11.5,10.9
		c-0.4,6.9,4.7,11.8,10.4,12.2C206.4,100.5,210,94.9,210.3,89.2z"/>
	<path class="st6" d="M246.3,122.6c-2.2,0-3.2-0.4-3.8-2.1l-4.3-11.6c-0.1-0.3-0.2-0.6-0.2-0.8c0-1.5,2-1.7,3.2-1.7
		c5.9,0,8.7-2.8,8.8-5.2c0-1.3-1.3-2.9-2.7-4.7l-2.7-3c-4.3-5-6.1-9.4-6.1-13.2c0.1-11.3,16.5-17.1,29.6-17c3.9,0,4.9,0.5,5.6,2.3
		l4.4,11.6c0.2,0.4,0.2,0.7,0.2,1c0,1.1-1.1,1.5-2.4,1.5l-0.4,0c-6-0.1-8.3,1.9-8.3,3.9c0,1.7,1.5,3.6,5.2,7.9
		c4.5,5,6.5,9.6,6.5,13.4c-0.1,11.8-18.1,18-31.5,17.9L246.3,122.6z"/>
	<path class="st27" d="M326.1,126.7l-0.2,0c-1,0-1.8-0.8-2-1.9l-2-21c-1-10.1-3.3-14.2-9.6-14.4l3.5,36.2c0.1,1.2-0.7,2.1-1.8,2.3
		l-18.6,1.8l-0.2,0c-1,0-1.8-0.8-2-1.9l-4.9-51.8l0-0.2c-0.1-1.1,0.7-1.9,1.7-2.1l6-0.6c5-1.9,10-3,14.8-3.2
		c4.5-0.2,8.7,0.3,12.7,1.6c6.3-2.7,12.3-4.1,17.9-4.3c17.6-0.8,31,9.7,32.9,27.8c0.7,6.5,2,11.3,6.9,14.8c0.6,0.5,1.9,1.4,1.9,2.5
		c0,0.5-0.1,1.1-0.7,1.6c0,0.2-8.1,8.7-8.1,8.7c-1.1,1-1.9,1.5-2.9,1.5c-1.4,0.1-17.2-2.3-19.3-21.9c-1-10.8-3.3-14.7-9-15.2
		l3.5,35.6c0.1,1.2-0.7,2.1-1.8,2.3L326.1,126.7z"/>
	<path class="st6" d="M414,132.3c-16.3-1-29.8-13.6-28.7-31.2c1.3-20.6,17.3-30.3,34.9-29.2c22.1,1.3,30.5,19.2,29.7,32.2
		C448.6,123.5,428.2,133.2,414,132.3z M428.5,102.5c0.1-1.9,0.3-11.6-9.9-12.2c-8.4-0.5-11.2,6.4-11.5,10.9
		c-0.4,6.9,4.7,11.8,10.4,12.2C424.6,113.8,428.2,108.2,428.5,102.5z"/>
	<path class="st27" d="M164.5,213.7l-25.2-1.7l-0.4,0l-20.8-1.3c-1.3-0.1-2.3-1.2-2.3-2.6l5.2-77.9c0.1-1.2,1.1-2.2,2.4-2.2l0.2,0
		l20.7,1.3c1.3,0.1,2.3,1.2,2.3,2.6l-3.7,55.2l23.3,1.5c1.4,0.1,2.4,1.3,2.4,2.6l-1.5,20.2c-0.1,1.2-1.1,2.3-2.4,2.3L164.5,213.7z"
		/>
	<path class="st6" d="M190.2,153.4c-8.2,0.6-15.3-5.4-15.9-13.5c-0.6-8.2,5.4-15.3,13.6-15.9c8.1-0.6,15.2,5.4,15.8,13.6
		C204.3,145.6,198.3,152.7,190.2,153.4z M188.3,209.3l-0.2,0c-1.1,0.1-2-0.7-2.2-1.8l-6.3-48.4c-0.1-1.2,0.6-2.2,1.8-2.4l19.9-2.6
		l0.2,0c1-0.1,2,0.7,2,1.7l6.3,48.5l0,0.2c0.1,1-0.7,2-1.7,2.1L188.3,209.3z"/>
	<path class="st26" d="M282,183.4c-0.7,5.6-0.1,10.2,3.5,14.5c0.5,0.6,1.4,1.7,1.2,2.8c-0.1,0.6-0.5,1.1-1.2,1.6
		c0,0.2-10.8,5.9-10.8,5.9c-1.1,0.7-2.1,0.8-3,0.7c-1.8-0.2-16.9-7.6-14.6-25.3l0.5-3.4c1.4-10.4-3.1-15.4-10.3-16.8l-6.7,35.7
		c-0.1,1-1.1,1.8-2.1,1.6l-0.2,0l-19.7-3.7c-1.2-0.3-1.8-1.3-1.7-2.4l9.6-51.2c0.2-1.1,1.3-1.8,2.2-1.7l0.2,0l11,2.1
		c4-0.3,7.7-0.2,11.3,0.3c20.1,2.7,33.7,17,31.2,36L282,183.4z"/>
	<path class="st6" d="M309.4,211.1c0.3-1.3,1.3-2.1,2.4-2.2c0.2,0,0.4,0.1,0.6,0.1c2.7,0.5,5.2,0.6,7.4,0.4
		c8.4-0.7,12.9-5.8,14.6-14c-3,1.2-6.4,2.1-9.5,2.4c-15.3,1.2-30.1-10-31.5-28.5c-0.9-12.1,5.1-27.3,26.1-28.9
		c4.8-0.4,9.4,0.2,13.5,1.5c0.2-1.1,1.1-1.4,2-1.5l0.5,0c0,0,16.4-0.2,18.7-0.3c1.6,0,2.7,1.2,2.8,2.7c1.2,17.6,2.5,35.7,0.8,50.9
		c-2.4,21.5-17,30.9-32.6,32.2c-5.8,0.5-11.7-0.2-17.1-1.9c-0.9-0.2-1.2-1-1.2-1.8c0-0.6,0-1.2,0.1-1.6L309.4,211.1z M335.4,176.7
		c-0.1-4-0.4-8.4-0.7-12.9c-0.8-4.7-4.9-6.8-9.1-6.5c-6.3,0.5-9.4,5.9-8.9,11.4c0.3,3.9,2.5,11.9,11.3,11.2c2.4-0.2,5.5-1.5,7-3
		L335.4,176.7z"/>
	<path class="st26" d="M398.9,193.9c-16.3,1.3-31.4-9.4-32.8-26.9c-1.6-20.5,12.9-32.4,30.4-33.8c22-1.7,32.9,14.8,33.9,27.7
		C432,180.4,413.1,192.8,398.9,193.9z M409.2,162.4c-0.1-1.9-1.3-11.5-11.5-10.7c-8.4,0.7-10.2,7.9-9.9,12.4c0.5,6.9,6.3,11,12,10.6
		C406.9,174.1,409.6,168.1,409.2,162.4z"/>
	<g id="Layer_2_00000074402492345794489740000000578869737775155078_">
		<g>
			<path class="st9" d="M470.4,182.6c2.8,2.7,5.3,5.1,7.8,7.4c0.6,0.6,0.3,1,0.1,1.5c-1,2.1-2.5,3.7-3.6,5.7c-0.7,1.2-1.3,2.5-2,3.7
				c-0.6,1-0.6,1.9,0.5,2.6c1.1,0.7,1.9,0.2,2.5-0.8c1.9-3.1,3.9-6.3,5.9-9.5c2.6,2.5,5.2,4.9,7.8,7.2c0.6,0.6,0.3,0.9,0.1,1.5
				c-0.8,1.8-2.2,3.3-3.1,5c-0.8,1.4-1.5,2.8-2.3,4.1c-0.6,1-0.5,1.8,0.4,2.4c1,0.7,1.9,0.3,2.5-0.7c1.8-3,3.6-6,5.6-9.4
				c4,4.5,9.1,7.4,11.6,12.7c2.1,4.3,1.1,10.4-2.1,14.1c-2.4,2.8-5.2,5-8.9,5.3c-4.8,0.4-9-1.2-12.5-4.5
				c-11.9-11.2-23.8-22.4-35.7-33.6c-8.2-7.8-5.2-20.9,5.7-24.1c4.6-1.4,8.9-0.1,12.6,2.9c1.4,1.1,2.6,2.4,3.9,3.6
				c0.5,0.5,0.5,0.7,0.1,1.4c-1.8,3.3-4.2,6.2-5.8,9.7c-0.5,1.1-0.8,2.1,0.4,2.8c1.2,0.7,2-0.1,2.5-1.1
				C466.4,189.2,468.4,186,470.4,182.6z"/>
		</g>
	</g>
	<g>
		<path class="st28" d="M97,241.9c-1.7,0.9-3.1,0.6-4.5-0.6c-6.2-5.4-12.5-10.7-18.6-16.2c-1.5-1.3-2.6-1.6-4.5-0.8
			c-7.4,3.1-14.9,5.9-22.4,8.8c-1.8,0.7-3.6,1.2-4.9-0.6c-1.4-1.9-0.3-3.5,1-5c5.2-6.1,10.4-12.3,15.7-18.2c1.4-1.6,1.4-2.8,0.7-4.5
			c-3-7.5-5.8-15-8.8-22.5c-0.7-1.8-1.1-3.6,0.8-4.9c1.7-1.2,3.2-0.3,4.6,0.9c6.3,5.4,12.6,10.8,18.9,16.3c1.1,1,2,1.2,3.5,0.7
			c7.7-3.1,15.4-6,23.1-9.1c1.8-0.7,3.6-1.1,4.9,0.7c1.4,1.9,0.3,3.5-1,5c-5.4,6.2-10.8,12.5-16.2,18.7c-0.9,1.1-1,1.9-0.5,3.3
			c3.2,7.9,6.2,15.8,9.3,23.7C98.6,239.2,98.4,240.6,97,241.9z"/>
		<path class="st28" d="M35.4,200.7c1.4-1,2.5-1.1,3.7-0.9c3.1,0.5,6.2,1,9.2,1.6c2.8,0.5,4,2.1,3.6,4.4c-0.4,2.2-2.1,3.4-4.8,3
			c-3.3-0.5-6.5-1.1-9.7-1.7c-1.6-0.3-2.7-1.3-3-2.9C34.1,202.7,34.6,201.4,35.4,200.7z"/>
		<path class="st28" d="M83.4,171.3c0.6,1.1,0.7,2.1,0.5,3.2c-0.5,3.2-1,6.3-1.6,9.5c-0.5,2.6-2.1,3.8-4.3,3.4
			c-2.1-0.3-3.4-2-3.1-4.6c0.5-3.3,1.1-6.7,1.7-10c0.3-1.6,1.2-2.8,3.1-3.1C81.4,169.6,82.5,170.3,83.4,171.3z"/>
		<path class="st28" d="M70.4,248.6c-1.4,1-2.7,1.1-4,0.5c-1.4-0.6-2.3-1.8-2.1-3.3c0.4-3.9,1-7.8,2-11.7c0.5-1.8,2-2.6,3.9-2.3
			c1.8,0.2,3.2,1.4,3.2,3.2c-0.2,4.2-1,8.3-2.1,12.4C71,247.9,70.8,248.5,70.4,248.6z"/>
		<path class="st28" d="M113.4,213.6c0.7,1.3,0.9,2.6,0.3,3.9c-0.6,1.3-1.7,2.1-3.1,2c-4-0.3-8-1-11.9-2.1c-1.8-0.5-2.5-2.1-2.2-3.9
			c0.3-1.7,1.2-3,3.1-3c4.3,0.1,8.5,1,12.6,2.1C112.6,212.7,113,213.3,113.4,213.6z"/>
	</g>
	<path class="st16" d="M416.6,191c0-3.6,0-7.1,0-10.9c3.5,2.3,6.7,4.5,9.9,6.7c4,2.8,8.1,5.6,12.1,8.5c2.7,1.9,2.6,3.4-0.2,4.9
		c-1.2,0.6-2.4,1.3-3.6,1.9c-0.9,0.4-1.2,0.8-0.6,1.8c1.3,2.2,2.4,4.6,3.7,6.8c0.5,0.8,0.3,1.2-0.5,1.6c-1.9,1-3.9,2-5.7,3.1
		c-0.8,0.4-1.1,0.3-1.5-0.4c-1.1-2.2-2.4-4.4-3.5-6.7c-0.5-1.1-1-1.4-2-0.7c-1.3,0.8-2.6,1.5-4,2.2c-2.2,1.1-3.5,0.2-3.6-2.2
		C416.8,201.9,416.7,196.5,416.6,191z"/>
</g>
</svg>
