<svg version="1.1" class="body_part" xmlns="http://www.w3.org/2000/svg" xmlns:xlink="http://www.w3.org/1999/xlink" x="0px" y="0px"
    viewBox="0 0 404.3 816.1" style="enable-background:new 0 0 404.3 816.1;" xml:space="preserve">
        <style type="text/css">
            .st0{fill:none;}
            .st1{fill:none;stroke:#5A4813;stroke-width:2.25;stroke-linecap:round;stroke-linejoin:round;stroke-miterlimit:10;}
            .st2{fill:none;stroke:#5A4813;stroke-width:3;stroke-linecap:round;stroke-linejoin:round;stroke-miterlimit:10;}
        </style>
        <g id="Layer_2">
            <polygon name="hair" class="st0" points="140.3,698.2 139.7,673.6 145.8,661.6 142.7,652 148.2,631.4 146.2,622.1 148.6,616.1 
                148.6,608.5 138,604.1 128.8,582 134.7,565 147.4,561.6 159.6,566.6 164.7,585.8 177.8,584.6 183.3,576.2 182.5,560.2 196.8,549.4 
                196.4,538.7 217.5,525.8 234.4,521.2 255.9,521.6 273.2,535.5 279.3,557.5 275.1,578.5 280.2,574.9 286.1,559.2 293.9,550.9 
                286.5,520.5 290.8,506.1 285.9,497.1 277.9,493.2 280.2,483.4 273.1,479.5 252.9,476.4 242.3,482.1 229.8,478.4 205.1,481.3 
                197.7,485.2 182.5,482.2 155.5,489.7 144.7,493.7 141.6,500.2 116.4,521.2 109.7,537.8 107.8,549.4 100.1,566.2 98.4,576.2 
                101.3,600.1 112.8,613.3 110.3,624.7 112.1,633.4 110,644.7 112.9,661.4 118.8,668.9 125.9,683.6 131.2,695.9 	"/>
            <polygon name="ear" class="st0" points="164.7,585.8 159.6,566.6 147.4,561.6 
                134.7,565 128.8,582 133.2,596.3 138,604.1 148.6,608.5 159.6,611.9 164.7,605.4 	"/>
            <polygon name="beard" class="st0" points="177.8,584.6 164.7,585.8 164.7,605.4 159.6,611.9 161.2,625.7 184.2,647.7 218.4,665.9 
                245.7,668.9 263.3,660.4 268.8,633.5 266,631.4 242.3,623.5 207.7,608.5 190.7,587.5 	"/>
            <polygon name="forehead" class="st0" points="196.8,549.4 212.8,546.2 232.3,540.3 261.3,547.2 273.2,556.1 279.3,557.5 273.2,535.5 
                255.9,521.6 234.4,521.2 217.5,525.8 196.4,538.7 	"/>
            <polygon name="mouth" class="st0" points="242.3,623.5 247.8,619.1 259.6,615.3 265.1,619.4 266,631.4 	"/>
            <polygon name="eye" class="st0" points="279.3,557.5 273.2,556.1 266.7,569.3 275.1,578.5 280.2,562.3 	"/>
            <polygon name="eyebrow" class="st0" points="206.5,547.5 212.8,557.5 233.9,550.8 259.6,557.5 273.2,556.1 261.3,547.2 232.3,540.3 
                212.8,546.2 	"/>
            <polygon name="nose" class="st0" points="267.4,610.9 252.9,605.8 250,600.1 255.9,592.1 257.4,576.2 261.2,569.3 259.6,557.5 
                273.2,556.1 266.7,569.3 274.1,579.2 274.1,584.6 278.6,602.1 	"/>
            <polygon name="eye" class="st0" points="212.8,557.5 218.4,570.2 257.4,576.2 
                261.2,569.3 259.6,557.5 233.9,550.8 	"/>
            <polygon name="cheek" class="st0" points="190.7,587.5 218.4,570.2 257.4,576.2 255.9,592.1 250,600.1 207.7,608.5 	"/>
            <polygon name="moustache" class="st0" points="268.8,633.5 267.8,624.7 265.1,619.4 259.6,615.3 227.9,616.4 223.6,609.2 
                252.9,605.8 267.4,610.9 272.7,620.9 	"/>
            <polygon name="neck" class="st0" points="159.6,611.9 148.6,608.5 148.6,616.1 146.2,622.1 148.2,631.4 142.7,652 145.8,661.6 
                139.7,673.6 140.3,698.2 139.7,721.7 122.2,745.2 101.2,758.2 122.6,767.1 182.8,773.2 200.6,775 214.7,782.1 225.9,783.2 
                272.7,755.5 293.9,727.3 274.9,711.9 255.9,711.4 242.3,671.1 245.7,668.9 218.4,665.9 184.2,647.7 161.2,625.7 	"/>


            <polygon name="hair" class="st0" points="53.7,24 55.5,19.1 61.2,12.1 66,10 
                76.8,9.2 89,9.7 99,13.8 101.9,13.6 105.9,19.5 106.5,26 106.6,28.5 101.8,33.5 101.5,27.9 95.4,25.6 89.7,25.6 86.2,27.5 83,29.7 
                78,28.2 76.4,29.5 77.2,34.5 71.5,35.8 69.2,38.5 64.5,34.8 60.5,35.4 59,40.1 60.4,44.6 64,47.4 61.3,55.8 61.8,59.3 60.2,66.8 
                55.2,63.2 53.1,54.6 54.1,49.8 52.8,42.5 50.3,39 50.9,33.2 50.3,30.3 52.9,28.7 	"/>
            <polygon name="ear" class="st0" points="67.6,48 62.4,46.2 59.6,42.1 
                59.6,36.7 61.3,34.9 63.6,34.9 65.5,35.5 67.6,39.2 	"/>
            <polygon name="head" class="st0" points="64.5,51.2 68.7,56 72.2,61.8 
                87.1,65.5 93.1,65.5 96.2,51.1 99.9,49.3 98.3,41.4 99.2,37 101.2,33.7 100.6,28.8 99.6,27.5 95.8,26.2 90.1,26.2 86,28.1 85.5,30 
                82.1,31.5 77.6,28.9 77.8,31.5 77.8,34.9 76.2,35.4 71.9,35.9 70.4,39 67.6,39.2 67.4,48 64.5,48 	"/>
            <polygon name="hair" class="st0" points="300.4,12.1 313.1,7.5 328.7,8.6 336.5,11.4 342,17 348.6,30.1 347.7,39.9 344.7,47.5 
                345.5,54.3 344.1,59.7 340.7,65.5 337.4,68.6 336.1,69.5 331.9,68.6 325,69.1 322.5,65.1 317.9,64.6 316.6,59.3 314,56.7 
                315.2,52.6 312.4,49.3 313.2,45.7 311.7,38.9 309.7,35.7 307.6,36.3 306.4,37.3 303.2,38.4 301.5,33.5 296.8,32.5 293.4,29.7 
                294.4,17.6 	"/>
            <polygon name="ear" class="st0" points="305,38.9 307.5,47.2 311.5,48.7 312.5,45.2 311.5,42.8 311,38.5 308.9,36.4 	"/>
            <polygon name="head" class="st0" points="301.5,34.7 297.6,34.2 300.3,39.7 301.7,52.8 305.7,66.9 308.1,66.9 310.3,58.3 314.2,57.6 
                314.2,52.2 311.5,48.7 307.6,48.1 305,38.9 303.2,38.4 	"/>
            <polygon name="finger" class="st0" points="122,82.6 108.7,72.5 104.6,76 104.1,81.7 107.4,85.1 108.2,89.3 106,96.8 	"/>
            <polygon name="hand" class="st0" points="138.4,103.2 123.7,110.2 121.3,108 119.3,107.2 115.1,105.6 108.3,99.3 106,96.8 122,82.6 
                124.3,82.2 136.8,99.6 	"/>
            <polygon name="arm" class="st0" points="120.4,120 119.3,107.2 121.3,108 123.7,110.2 138.4,103.2 145.2,111.8 153.5,120 
                158.3,126.4 160.8,137 140.1,142.7 130,128.5 	"/>
            <polygon name="shoulder" class="st0" points="40,122.4 20.8,128.5 20.8,111.9 25.6,97.6 38.3,91.1 44.1,87.2 	"/>
            <polygon name="arm" class="st0" points="32.2,223.4 30,214.7 33.9,201.3 
                35.3,192.9 32.7,172.9 39.9,153.1 41.5,132 40,122.4 20.8,128.5 18.7,142 17.4,165 15.5,172.9 15.5,181.3 14.7,197.2 17.4,222.1 
                19.5,230.2 	"/>
            <polygon name="elbow" class="st0" points="140.1,142.7 160.8,137 157,147.3 151.4,148.4 	"/>
            <polygon name="hand" class="st0" points="51.2,248.8 42.4,231.8 32.2,223.4 
                19.5,230.2 24.3,246.4 32.3,253.4 	"/>
            <polygon name="finger" class="st0" points="32.3,253.4 51.2,248.8 49.2,252.4 
                48.1,258.4 37.5,259.7 	"/>
            <polygon name="neck" class="st0" points="44.1,87.2 100.4,87.9 93.7,77.2 90.1,66.8 72.2,61.8 68.7,56 64.5,51.2 61.7,56.7 
                62.2,59.6 61,63.7 60.6,70.6 57.6,79.8 	"/>
            <polygon name="belly" class="st0" points="43.3,206.5 74.6,208.1 74.8,205.3 79.2,202 84.4,200.4 89.5,202.6 91.7,205.5 93.1,210.5 
                119.3,211.4 116.3,179.3 114.3,164.2 119.8,133.6 46.5,144.5 53.8,161.1 51.5,168.9 46.3,179.3 46.1,190.7 	"/>
            <polygon name="chest" class="st0" points="44.1,87.2 40,122.4 41.5,132 41.5,137.5 46.5,144.5 119.8,133.6 120.4,120 119.3,107.2 
                115.1,105.6 106,96.8 106,92.6 100.4,87.9 	"/>
            <polygon name="dick" class="st0" points="74,210.6 77.5,213.5 77.5,227.7 89.1,229.6 90.5,224.9 89,215.7 93.1,210.5 91.7,205.5 
                89.5,202.6 84.4,200.4 79.2,202 74.8,205.3 	"/>
            <polygon name="leg" class="st0" points="43.3,206.5 41.5,217.9 42.4,231.8 51.2,248.8 49.2,252.4 48.1,258.4 55.4,278.4 55.4,304.1 
                54.9,324.5 69.5,362.6 72.5,372.1 73,384.1 91.8,383.3 89.9,375.4 84.4,361.7 84.7,337.1 83.9,323.9 77.6,306.4 79.9,295.3 
                80.1,267.4 81.6,229 77.5,227.7 77.5,213.5 74,210.6 74.6,208.1 	"/>
            <polygon name="leg" class="st0" points="93.1,210.5 119.3,211.4 118.4,220.8 
                125.5,241.8 128.1,272.5 128.8,280.6 132.1,287.4 135.6,299.8 146.6,316.5 150.3,333 152.1,364.8 158.9,377.5 139.2,381.6 
                140.8,369.4 133.5,353.6 126,341.2 120.6,328.5 117,309.1 111.5,303.1 102.5,279.4 90.9,260.3 82,241.2 81.6,229 89.1,229.6 
                90.5,224.9 89,215.7 	"/>
            <polygon name="foot" class="st0" points="91.8,383.3 73,384.1 74.8,387.3 73,393.8 68,404.8 90.9,405.1 	"/>
            <polygon name="foot" class="st0" points="158.9,377.5 157.2,383.6 173.6,404.4 
                173.9,409.6 168.9,412.2 156.8,412 149.9,400.2 142.7,394.2 139.2,381.6 	"/>
            <polygon name="arm" class="st0" points="269.7,92 277.3,110.2 280.3,124.7 
                270.5,133.3 266,145.8 259.5,150 243.5,133.3 252.5,119.3 263,104.5 	"/>
            <polygon name="shoulder" class="st0" points="285.5,77.9 269.7,92 277.3,110.2 
                280.3,124.7 302.8,110.2 294.2,88 	"/>
            <polygon name="elbow" class="st0" points="243.5,133.3 259.5,150 247.8,151.9 
                243.5,145.8 	"/>
            <polygon name="neck" class="st0" points="314.2,57.6 310.3,58.3 308.1,66.9 
                306.8,70.5 298.3,73 303.1,79.6 342,79.6 337.4,76.4 336.1,69.5 325,69.1 322.5,65.1 317.9,64.6 316.6,59.3 	"/>
            <polygon name="back" class="st0" points="303.1,79.6 311.7,101.3 323.3,134.7 
                337.4,162.1 352.5,189.5 360.3,210.5 355.8,185.3 353.8,174.9 349.7,159.9 355.2,136.2 361.1,126 342,79.6 	"/>
            <polygon name="back" class="st0" points="302.8,110.2 280.3,124.7 283.2,133.3 283.4,147.4 288,169.6 286.2,186 285.8,205.5 
                353.9,204.6 347.4,190.9 328.9,164.2 314.2,142.6 305.9,119.5 	"/>
            <polygon name="shoulder" class="st0" points="342,79.6 368.9,97.2 377.1,111.9 
                379.1,122.9 361.1,126 	"/>
            <polygon name="arm" class="st0" points="376.8,217.6 372.7,203.7 369.3,185.5 
                368.6,173.1 358,136.8 355.2,136.2 361.1,126 379.1,122.9 381.8,154.8 388.4,175.4 390.9,205.5 389.6,219 	"/>
            <polygon name="hand" class="st0" points="376.8,217.6 389.6,219 389.6,223.2 
                382.8,240.9 372.7,241.2 367.7,238 363.1,241 361.5,235.3 367.2,227.3 375,223.2 	"/>
            <polygon name="booty" class="st0" points="285.8,205.5 353.9,204.6 359.3,220.9 353.9,231.4 350.1,235.5 332.1,237.3 320.9,235.5 
                308.5,241.8 296.6,240.7 293,237.5 285.3,225.7 	"/>
            <polygon name="leg" class="st0" points="359.3,220.9 360.3,229.4 359.3,241.2 357.1,249 355.6,251.3 356,257.9 347.5,286.4 
                348.5,316.2 345.7,337.6 341,351.5 337,351.1 335.2,343 335.2,334.4 330.4,321.5 335.8,314 333,302.7 325.6,302.3 322.5,300.1 
                322.3,241.2 320.9,235.5 332.1,237.3 350.1,235.5 353.9,231.4 	"/>
            <polygon name="leg" class="st0" points="285.3,225.7 296.6,240.7 
                308.5,241.8 320.9,235.5 317.1,252.3 301.1,276.2 295,294.6 285.3,317.7 280.8,336 268.4,362.3 265.4,381 246.5,381.6 248,373.3 
                252.7,363 256.2,320.5 274.1,281.9 279.3,247.5 	"/>
            <polygon name="foot" class="st0" points="246.5,381.6 265.4,381 263.3,396.5 
                230.9,408.4 228.9,405.5 	"/>
        </g>
        <g id="Layer_1">
            <path class="st2" d="M140.3,698.2c-0.4,5.4-0.3,11,0.2,16.5c0.4,5.8-1.5,10.5-5.1,14.9c-4.9,6.1-8.9,13.1-15.6,17.4
            c-5,3.2-10.2,6-15.5,8.8c-3.4,1.8-6.2,3.7-5.7,8.1c0.2,2.1,0.8,3.6,3,4.8c6.7,3.8,14,5.6,21.3,7.3c9.2,2,18.5,3.1,27.9,3.1
            c14.1,0.1,28.3,0.2,42.4,0.3c4.3,0.1,8.6,1.2,12.8,1.5c4.9,0.4,9.6,1.4,14.5,2.1c5.9,0.8,11.2-1.5,16.1-4.4
            c8.8-5.2,17.5-10.9,26.3-16.1c8.5-5,15.3-11.4,19.9-20.2c2.9-5.4,6.7-10.4,11.5-14.3c-1-1.5-2-2.5-3.2-3.3c-2.6-2-5.1-4-7.2-6.6
            c-5.3-6.7-12.5-7.9-20.5-6.1c-7,1.5-10.2-0.5-11-7.7c-0.7-6.5-3.4-12.4-5.4-18.5c-1-3-2.3-5.8-4-8.4c-1.7-2.6-1.1-5.1,1.3-7.1
            c3.1-2.5,6.9-3.8,10.5-5.3c6.7-2.8,9.6-7.5,9.4-14.6c-0.1-4.5,1.3-8.6,2.9-12.8c2.5-6.7,5.7-13.2,5.8-20.5c0-2.6-0.2-5.1-1.3-7.4"
            />
            <path class="st2" d="M139.7,673.6c0.9,8.2,1.2,16.3,0.6,24.6"/>
            <path class="st1" d="M102.3,758.1c5.7,4.3,12.3,6.6,18.9,9c1.8,0.6,4,0.8,6,0.7c4.5-0.1,8.7,1.2,13.1,1.5
                c6.6,0.5,13.3,0.4,19.9,1.4c9.1,1.4,18.2,1,27.3,1.7c7,0.5,13.6,1.8,19.8,4.9c1.5,0.8,2.9,1.7,3.7,3.3"/>
            <path class="st1" d="M159.6,567c-3.9-5.1-9.3-5.7-14.8-5.2c-3.4,0.3-6.7,1.7-9.4,3.9c-4.3,3.4-4.9,8.4-6.1,13.2
                c-1.9,7.5,2.7,15.9,5.4,19.6s1.7,2.2,3.4,5"/>
            <path class="st2" d="M182.5,646.6c6,3.8,11.4,8.4,17.8,11.5c6.7,3.2,13.5,6.3,20.6,8.6c4.9,1.6,10.2,2.4,15.5,2.1"/>
            <path class="st2" d="M139.7,698.5c-16.1-2.6-12-23.1-22.5-31c-4.3-2.9-6.5-10.6-4.7-15.8c-3.3-5.6-3.4-12.4-0.3-18.2
                c1.1-6.5-5.4-3.9,0.7-14.8c3.3-6.9-4.3-9.6-8-13.6c-6.9-5.5-2.9-14.2-5.4-21.5c-3-10.4,1.5-22.2,7.3-31c4.3-9.2,1.2-21.4,8.5-29.6
                c6.8-10.7,19.3-14.7,27.3-23.6c5.9-13.9,24.2-8.2,35.3-15.1c7.8-5.8,16.2,2.7,23.9-1.4c3-2,6.3-2.3,9.8-2c8.1,1.3,16-4.2,23.9-1.9
                c5.3,1.7,10.2,1.2,15.2-0.8c8.1-5,14.7,3.1,22.6,1.4c2.2-0.7,4.6,0.2,6,2.3c3.4,3.5,0.7,7.7-1.2,11.3c1,2,3,1.9,4.7,2.4
                c10.8,2.7,10,18.7,4,24.9c0,0,4.1,7.9,4,10.2c-0.5,8.4,9.2,18.8-0.7,25.2c-9.2,4.5-4.3,19.9-14.8,22.7"/>
            <path class="st1" d="M261.3,553.2c-9.1-5.7-19-8.4-29.6-7.6c-6.7,0.5-12.9,3.4-18.9,6.6"/>
            <path class="st1" d="M192.9,716.7c-1.2,4.8,0.2,9.5,1.1,14.1c1,5.1,2.2,10.2,3.9,15.2c1.6,4.7,3.7,9.1,7.1,12.8"/>
            <path class="st1" d="M153.5,579.9c-0.5-2,0.6-3.8,0.8-5.7c0.2-3-0.7-5.3-3.2-6.7c-2.6-1.4-5.4-1.8-8.4-0.1
                c-6.3,3.5-8.3,12.7-5.4,20c3,7.4,6.3,10.3,12.8,10.4"/>
            <path class="st1" d="M145.8,581.2c-0.6,2.5-2,4.7-1.7,7.4c0.4,3.5,4.3,6,7,3.9c2.6-2,4.9-0.6,7.2-0.4c2.2,0.3,2.3-0.4,2.8-2.2
                c0.9-3.1-1.5-5.8-0.8-8.8"/>
            <path class="st1" d="M244.8,564.4c2.2-4.4,0.2-7.3-5.4-8.1c-6.7-0.9-12.6,1.5-18.5,4.1c-1.1,0.5-2.2,1.1-3.4,1.7"/>
            <path class="st1" d="M229.6,704.6c0.6,3.5-1.3,6.2-2.7,9.1c-2.7,5.7-6.1,10.9-10.1,15.8c-1.6,2-3.1,4.1-6.1,4"/>
            <path class="st1" d="M265.3,625.7c1.6-3.5,0.4-7.9-4.7-9.4c-4.3-1.2-14.9,2.6-16.8,6"/>
            <path class="st1" d="M278.5,557.6c-4.5-0.8-6.9,1.9-8.8,5.4c-2,3.6-2.8,7.2,0,10.8c1.4,1.8,1.4,4.8,4.4,5.4"/>
            <path class="st1" d="M181.5,732.5c1.3,3.7,1,7.7,1.6,11.5c0.8,5.2-1.7,9.7-4.6,13.8"/>
            <path class="st1" d="M220.2,565.4c2.9-1.4,5.1,1.2,7.7,1.4c3.6,0.3,7,2,10.5,2.9c4.5,1.2,5.9,0.1,6.1-4.7"/>
            <path class="st2" d="M158.2,611.9c0.4,8.5,2.9,15.8,11.5,19.5"/>
            <path class="st1" d="M244.1,564.4c-1.5-3.1-4.3-2.6-7.1-2.7c-4.9-0.2-9.5,0.3-13.5,3.4"/>
            <path class="st1" d="M255.9,593c-4,0.7-5.6,3.6-6,7.1c-0.3,3.6,2.3,5.6,5.3,7.1"/>
            <path class="st1" d="M248.8,624.7c5.3,2.4,11,3.9,16.5,5.7c0.4,0.1,0.7,0.2,0.7,0.7"/>
            <path class="st1" d="M266,630.4c0.3-3.8-0.3-4.7-3.7-5.4c-1.5-0.3-2.8-1.3-4.1-1.8c-2.9-1.2-6.1-1.8-9,0.2"/>
            <path class="st2" d="M139.7,673.6c6-4.8,8.4-13.9,3.4-20.3c-1.4-2.7,1.4-5,2-7.5c0.8-2.4,0.7-5,1.3-7.4c0.6-2.5,2-5,1.7-7.3
                c0-2.6-2.5-4.5-2.9-6.9c0-1,0.7-1.8,1.3-2.6c3.6-3.8,3.3-8.2,2.9-13"/>
            <path class="st1" d="M259.6,562.3c0.4,3.5,2.7,6.7,1,10.5c-0.6,1.4-0.8,3-2.7,3.4"/>
            <path class="st1" d="M163.6,599.4c1.6,3.2,1.2,6.4-0.4,9.4c-1.1,2.1-3.9,3.2-6.7,2c-5.5-2.3-13.1-4.9-18.5-7.4"/>
            <path class="st1" d="M263.3,639.5c-2.8-4.2-6.8-5.2-11.5-4.4"/>
            <path class="st1" d="M266.7,604.1c-3.6-1.4-7.2-3.7-10.8,0"/>
            <path class="st1" d="M271.2,608.9c-1.2,0.7-2.5,1.4-3.8,2"/>
            <path class="st2" d="M274.2,579.5c-0.2,0.5-0.4,1-0.6,1.5c-0.8,1.6,0.5,3.8,1.1,5.7c1.3,4.1,3.4,8,3.8,12.4c0.4,3.5-0.1,5-3.1,7.1
                c-1.4,1-2.8,1.9-4.3,2.7"/>
            <path class="st2" d="M257.9,522.3c5.2,3.9,14.1,10.7,15.9,14.1c2.1,4.1,1.8,10.9,4.1,16.3c3.1,7.1,1.6,14.6-1.8,21.5
                c-0.8,1.7-1.2,3.5-1.9,5.3"/>
            <path class="st2" d="M178.8,584.6c10.9-10.8-2-20.1,7.4-27.3c2.8-2.4,7.2-2.2,9.5-5.2c1.1-1.6,1.4-3.7,1.3-5.6
                c-0.1-2.5-1.1-5-0.9-6.8c0.3-2.3,2.7-3.3,4.6-4.1c2.9-1.2,5.2-2.3,8-4c2.7-1.7,4.9-4.3,7.9-5.5c3.5-1.2,7.8-0.6,11.6-1.9
                c3.2-0.8,6-3.1,9.2-3c2.6,0.2,5.4,1,8.1,0.8c4.5-0.3,8.4-1.6,12.4,0.4"/>
            <path class="st1" d="M139.7,673.6c0.9,8.2,1.2,16.3,0.6,24.6c-0.4,5.4-0.3,11,0.2,16.5c0.4,5.8-1.5,10.5-5.1,14.9
                c-4.9,6.1-8.9,13.1-15.6,17.4c-5,3.2-10.2,6-15.5,8.8c-3.4,1.8-6.2,3.7-5.7,8.1c0.2,2.1,0.8,3.6,3,4.8c6.7,3.8,14,5.6,21.3,7.3
                c9.2,2,18.5,3.1,27.9,3.1c14.1,0.1,28.3,0.2,42.4,0.3c4.3,0.1,8.6,1.2,12.8,1.5c4.9,0.4,9.6,1.4,14.5,2.1
                c5.9,0.8,11.2-1.5,16.1-4.4c8.8-5.2,17.5-10.9,26.3-16.1c8.5-5,15.3-11.4,19.9-20.2c2.9-5.4,6.7-10.4,11.5-14.3
                c-1-1.5-2-2.5-3.2-3.3c-2.6-2-5.1-4-7.2-6.6c-5.3-6.7-12.5-7.9-20.5-6.1c-7,1.5-10.2-0.5-11-7.7c-0.7-6.5-3.4-12.4-5.4-18.5
                c-1-3-2.3-5.8-4-8.4c-1.7-2.6-1.1-5.1,1.3-7.1c3.1-2.5,6.9-3.8,10.5-5.3c6.7-2.8,9.6-7.5,9.4-14.6c-0.1-4.5,1.3-8.6,2.9-12.8
                c2.5-6.7,5.7-13.2,5.8-20.5c0-2.6-0.2-5.1-1.3-7.4"/>
            <path class="st1" d="M102.3,758.1c5.7,4.3,12.3,6.6,18.9,9c1.8,0.6,4,0.8,6,0.7c4.5-0.1,8.7,1.2,13.1,1.5
                c6.6,0.5,13.3,0.4,19.9,1.4c9.1,1.4,18.2,1,27.3,1.7c7,0.5,13.6,1.8,19.8,4.9c1.5,0.8,2.9,1.7,3.7,3.3"/>
            <path class="st1" d="M159.6,567c-3.9-5.1-9.3-5.7-14.8-5.2c-3.4,0.3-6.7,1.7-9.4,3.9c-4.3,3.4-4.9,8.4-6.1,13.2
                c-1.9,7.5,2.7,15.9,5.4,19.6s1.7,2.2,3.4,5"/>
            <path class="st1" d="M182.5,646.6c6,3.8,11.4,8.4,17.8,11.5c6.7,3.2,13.5,6.3,20.6,8.6c4.9,1.6,10.2,2.4,15.5,2.1"/>
            <path class="st1" d="M139.7,698.5c-16.1-2.6-12-23.1-22.5-31c-4.3-2.9-6.5-10.6-4.7-15.8c-3.3-5.6-3.4-12.4-0.3-18.2
                c1.1-6.5-5.4-3.9,0.7-14.8c3.3-6.9-4.3-9.6-8-13.6c-6.9-5.5-2.9-14.2-5.4-21.5c-3-10.4,1.5-22.2,7.3-31c4.3-9.2,1.2-21.4,8.5-29.6
                c6.8-10.7,19.3-14.7,27.3-23.6c5.9-13.9,24.2-8.2,35.3-15.1c7.8-5.8,16.2,2.7,23.9-1.4c3-2,6.3-2.3,9.8-2c8.1,1.3,16-4.2,23.9-1.9
                c5.3,1.7,10.2,1.2,15.2-0.8c8.1-5,14.7,3.1,22.6,1.4c2.2-0.7,4.6,0.2,6,2.3c3.4,3.5,0.7,7.7-1.2,11.3c1,2,3,1.9,4.7,2.4
                c10.8,2.7,10,18.7,4,24.9c0,0,4.1,7.9,4,10.2c-0.5,8.4,9.2,18.8-0.7,25.2c-9.2,4.5-4.3,19.9-14.8,22.7"/>
            <path class="st1" d="M261.3,553.2c-9.1-5.7-19-8.4-29.6-7.6c-6.7,0.5-12.9,3.4-18.9,6.6"/>
            <path class="st1" d="M192.9,716.7c-1.2,4.8,0.2,9.5,1.1,14.1c1,5.1,2.2,10.2,3.9,15.2c1.6,4.7,3.7,9.1,7.1,12.8"/>
            <path class="st1" d="M153.5,579.9c-0.5-2,0.6-3.8,0.8-5.7c0.2-3-0.7-5.3-3.2-6.7c-2.6-1.4-5.4-1.8-8.4-0.1
                c-6.3,3.5-8.3,12.7-5.4,20c3,7.4,6.3,10.3,12.8,10.4"/>
            <path class="st1" d="M145.8,581.2c-0.6,2.5-2,4.7-1.7,7.4c0.4,3.5,4.3,6,7,3.9c2.6-2,4.9-0.6,7.2-0.4c2.2,0.3,2.3-0.4,2.8-2.2
                c0.9-3.1-1.5-5.8-0.8-8.8"/>
            <path class="st1" d="M244.8,564.4c2.2-4.4,0.2-7.3-5.4-8.1c-6.7-0.9-12.6,1.5-18.5,4.1c-1.1,0.5-2.2,1.1-3.4,1.7"/>
            <path class="st1" d="M229.6,704.6c0.6,3.5-1.3,6.2-2.7,9.1c-2.7,5.7-6.1,10.9-10.1,15.8c-1.6,2-3.1,4.1-6.1,4"/>
            <path class="st1" d="M265.3,625.7c1.6-3.5,0.4-7.9-4.7-9.4c-4.3-1.2-14.9,2.6-16.8,6"/>
            <path class="st1" d="M278.5,557.6c-4.5-0.8-6.9,1.9-8.8,5.4c-2,3.6-2.8,7.2,0,10.8c1.4,1.8,1.4,4.8,4.4,5.4"/>
            <path class="st1" d="M181.5,732.5c1.3,3.7,1,7.7,1.6,11.5c0.8,5.2-1.7,9.7-4.6,13.8"/>
            <path class="st1" d="M220.2,565.4c2.9-1.4,5.1,1.2,7.7,1.4c3.6,0.3,7,2,10.5,2.9c4.5,1.2,5.9,0.1,6.1-4.7"/>
            <path class="st1" d="M158.2,611.9c0.4,8.5,2.9,15.8,11.5,19.5"/>
            <path class="st1" d="M244.1,564.4c-1.5-3.1-4.3-2.6-7.1-2.7c-4.9-0.2-9.5,0.3-13.5,3.4"/>
            <path class="st1" d="M255.9,593c-4,0.7-5.6,3.6-6,7.1c-0.3,3.6,2.3,5.6,5.3,7.1"/>
            <path class="st1" d="M248.8,624.7c5.3,2.4,11,3.9,16.5,5.7c0.4,0.1,0.7,0.2,0.7,0.7"/>
            <path class="st1" d="M266,630.4c0.3-3.8-0.3-4.7-3.7-5.4c-1.5-0.3-2.8-1.3-4.1-1.8c-2.9-1.2-6.1-1.8-9,0.2"/>
            <path class="st1" d="M139.7,673.6c6-4.8,8.4-13.9,3.4-20.3c-1.4-2.7,1.4-5,2-7.5c0.8-2.4,0.7-5,1.3-7.4c0.6-2.5,2-5,1.7-7.3
                c0-2.6-2.5-4.5-2.9-6.9c0-1,0.7-1.8,1.3-2.6c3.6-3.8,3.3-8.2,2.9-13"/>
            <path class="st1" d="M259.6,562.3c0.4,3.5,2.7,6.7,1,10.5c-0.6,1.4-0.8,3-2.7,3.4"/>
            <path class="st1" d="M163.6,599.4c1.6,3.2,1.2,6.4-0.4,9.4c-1.1,2.1-3.9,3.2-6.7,2c-5.5-2.3-13.1-4.9-18.5-7.4"/>
            <path class="st1" d="M263.3,639.5c-2.8-4.2-6.8-5.2-11.5-4.4"/>
            <path class="st1" d="M266.7,604.1c-3.6-1.4-7.2-3.7-10.8,0"/>
            <path class="st1" d="M257.9,522.3c5.2,3.9,14.1,10.7,15.9,14.1c2.1,4.1,1.8,10.9,4.1,16.3c3.1,7.1,1.6,14.6-1.8,21.5
                c-1.1,2.2-1.4,4.6-2.5,6.8c-0.8,1.6,0.5,3.8,1.1,5.7c1.3,4.1,3.4,8,3.8,12.4c0.4,3.5-0.1,5-3.1,7.1c-2.6,1.8-5.3,3.3-8.1,4.7"/>
            <path class="st1" d="M178.8,584.6c10.9-10.8-2-20.1,7.4-27.3c2.8-2.4,7.2-2.2,9.5-5.2c1.1-1.6,1.4-3.7,1.3-5.6
                c-0.1-2.5-1.1-5-0.9-6.8c0.3-2.3,2.7-3.3,4.6-4.1c2.9-1.2,5.2-2.3,8-4c2.7-1.7,4.9-4.3,7.9-5.5c3.5-1.2,7.8-0.6,11.6-1.9
                c3.2-0.8,6-3.1,9.2-3c2.6,0.2,5.4,1,8.1,0.8c4.5-0.3,8.4-1.6,12.4,0.4"/>
            <g id="POLYLINE_00000069358783946931057370000006859965440931026841_">
                <path class="st1" d="M82.1,238.8c0.8,4.4,2.1,8.8,4,12.9c3.6,7.6,9.6,15.4,13.9,22.6c0.9,1.6,1.8,3.3,2.5,5.1
                    c1.1,2.7,3.1,9.9,3.9,12.8c0.9,2.8,1.8,5.6,3.3,8.2c1.6,2.8,4.3,5.8,6.4,8.3c0.5,0.6,1.1,1.3,1.4,2.1c0.4,0.9,0.5,1.9,0.7,2.8
                    l1.1,7.9c1,6.3,2.7,12.6,5.8,18.2c1.8,3.3,4.6,6.6,6.5,9.9c0.7,1.3,1.3,2.6,1.9,4c1.6,4.1,4.2,11.3,5.6,15.4
                    c0.5,1.6,1.1,3.2,1.1,4.9c0,1.3-0.3,3-0.4,4.3c-0.1,0.8-0.1,1.6,0.1,2.4c0.1,0.5,0.3,1.1,0.6,1.5c0.3,0.5,0.6,1,0.9,1.4
                    c0.2,0.3,0.3,0.6,0.3,1c0.1,0.9,0,2.9,0.1,3.8c0,1.2,0.1,2.4,0.2,3.5c0.2,1.3,0.6,2.5,1.4,3.5c0.7,0.9,1.6,1.5,2.6,2.1l1.7,0.9
                    c0.8,0.4,1.5,0.9,2.1,1.5c1,1.1,1.6,2.5,2.2,3.9l1.2,3.2c0.5,1.3,1.1,2.7,2.1,3.8c0.4,0.4,0.9,0.8,1.4,1.1c0.6,0.3,1.3,0.3,2,0.3
                    c2.7,0,7.6,0.2,10.2-0.2c0.9-0.1,1.8-0.2,2.7-0.5c0.5-0.2,1-0.4,1.5-0.8c0.4-0.3,0.7-0.8,0.8-1.2c0.2-0.6,0.2-1.2,0.2-1.8
                    c0-1,0-2-0.2-2.9c-0.1-0.2-0.2-0.4-0.3-0.6c-0.3-0.4-0.7-0.7-1.1-1c-0.8-0.6-1.4-1.4-2-2.2c-1.1-1.4-3.7-5.1-4.7-6.5
                    c-1.3-1.7-5-6.3-6.3-8c-0.7-1-1.6-2-2.2-3.1c-0.1-0.3-0.2-0.5-0.3-0.8c-0.1-0.5,0-1,0.1-1.5c0.2-1.1,0.4-2.5,0.3-3.6
                    c0-0.6-0.2-1.1-0.4-1.7c-0.4-1.1-1.4-2.4-2-3.4c-0.6-1-1.1-2-1.6-3.1c-0.5-1.2-0.9-2.5-1.2-3.8c-0.5-2.1-0.8-4.2-1-6.3
                    c-0.3-2.7-0.2-8.6-0.3-11.4c-0.2-6-0.5-13.1-1.1-19.1c-0.2-2.2-0.6-4.4-1.2-6.6c-1.1-4-3-7.7-5.1-11.2c-1.9-3.1-4-6.3-6.3-9.1
                    l-1.7-2c-0.4-0.5-0.9-1.1-1.2-1.7c-0.5-1.1-0.8-2.2-1-3.4c-0.3-1.5-0.6-3.3-1-4.8c-0.3-1.1-0.7-2.1-1.1-3.2l-1.5-3.2
                    c-0.8-1.7-1.4-3.5-1.7-5.4c-0.2-1-0.3-2.2-0.4-3.2c-0.2-2.4-0.3-7.7-0.4-10.1c-0.4-7.5-1.3-15.2-2.8-22.5
                    c-0.9-4.3-1.9-8.7-3.5-12.9c-0.5-1.4-1.7-4.5-2.1-5.9c-0.3-0.9-0.4-1.8-0.5-2.8c-0.3-3.4-0.2-7.2-0.1-10.5c0-2.1,0.3-7,0.1-9.1
                    c-0.1-1.1-0.2-2.2-0.5-3.2c-0.3-1.4-0.8-3-1-4.4c-0.3-2.2,0.5-4.4,0.6-6.6c0.4-6.5-2.4-13.4-3.3-19.8c-0.1-0.8-0.1-1.7-0.1-2.5
                    c0.1-0.8,0.2-1.7,0.4-2.5c1-4.1,2.1-9.3,2.9-13.5c0.9-4.9,1.8-10.2,2.2-15.2c0.5-5.2,0.4-11.9,0.7-17.1"/>
            </g>
            <g id="POLYLINE_00000178187763500183560090000018087517227683553184_">
                <path class="st1" d="M113.2,409.3c-5.2-9.6-10.4-19.9-14.6-30c0.1-0.5,0.2-1,0.2-1.5c0-1.2-0.2-2.6-0.3-3.8
                    c-0.2-1.4-0.3-2.8-1.1-4c-0.7-1.1-2-1.6-3.2-1.7c-0.8-2.2-1.6-4.6-2.1-6.9c-0.3-1.3-0.5-2.7-0.5-4.1c0-0.8,0.1-1.6,0.4-2.4
                    c0.3-0.9,0.7-1.7,1.2-2.5c0.7-1.1,1.6-2.3,1.9-3.5c0.2-0.7,0.3-1.5,0.3-2.3c-0.1-1.4-0.5-2.7-1.1-3.9c-0.9-1.9-2.2-3.6-3-5.6
                    c-0.8-1.7-1.1-3.6-1.3-5.5c-0.1-1-0.1-2-0.1-3c0.1-3,0.5-7.5,0.5-10.6c0.1-2.8,0.1-9.3,0.4-12c0.1-0.7,0.2-1.3,0.4-2
                    c0.4-1.5,1.7-2.7,2.6-3.8c0.4-0.5,0.8-0.9,1-1.5c0.1-0.3,0.1-0.6,0-1c-0.1-0.2-0.2-0.4-0.4-0.6c-0.6-0.8-1.7-1.7-2.3-2.5
                    c-0.3-0.3-0.5-0.6-0.7-0.9c-0.1-0.2-0.2-0.5-0.3-0.8c0-0.3,0-0.6,0.1-0.9c0.1-0.5,0.2-1,0.2-1.5c0-0.4-0.1-0.8-0.3-1.2
                    c-0.3-0.8-0.9-1.4-1.4-2.1c-0.5-0.5-1-1.1-1.6-1.4c-0.4-0.3-0.9-0.5-1.5-0.5c-0.3,0-0.7,0-1,0.2c-0.5,0.2-0.9,0.6-1.3,1
                    c-1.4,1.5-2.6,3.2-3.7,4.9"/>
            </g>
            <g id="POLYLINE_00000158737943953481734630000000833690207065382046_">
                <path class="st1" d="M101.3,33.6c0.4,0,0.8,0,1.2-0.1c0.2-0.1,0.4-0.2,0.6-0.3c0.2-0.2,0.3-0.4,0.3-0.6c0.2-0.6,0.2-1.2,0.5-1.7
                    c0.4-0.5,1-0.8,1.6-1.2c0.4-0.3,0.9-0.6,1.1-1.1c0.2-0.3,0.2-0.7,0.2-1c0-0.5-0.1-1.1-0.3-1.6c-0.1-0.2-0.2-0.5-0.3-0.7
                    c-0.1-0.2-0.3-0.3-0.4-0.5c-0.1-0.1-0.1-0.2-0.1-0.3c0-0.1,0-0.3,0.1-0.4c0.2-0.6,0.6-1.3,0.7-2c0.1-0.7,0-1.4-0.3-2.1
                    c-0.3-0.6-0.7-1.2-1.3-1.6c-0.6-0.5-1.1-0.9-1.4-1.6c-0.5-1-0.8-2.3-1.5-3.1c-0.8-0.8-2-0.9-3-0.9c-1.3,0-2.7,0.1-3.9-0.3
                    c-1.2-0.4-2.4-1.2-3.6-1.8c-0.8-0.4-1.6-0.7-2.5-0.9c-1.7-0.3-3.4-0.3-5.1,0c-0.9,0.1-2,0.4-2.9,0.4c-0.2,0-0.5,0-0.7,0
                    c-0.2,0-0.5-0.1-0.7-0.2c-0.2-0.1-0.4-0.3-0.6-0.4c-0.6-0.5-1.3-1.2-2.2-1.3c-0.8-0.2-1.5,0-2.3,0.2c-0.6,0.2-1.2,0.4-1.7,0.8
                    c-0.2,0.1-0.3,0.2-0.5,0.4c-0.1,0.1-0.2,0.3-0.3,0.5c-0.1,0.1-0.2,0.2-0.3,0.3c-0.3,0.1-0.6,0.1-0.9,0.1c-1.6-0.1-3.3-0.4-4.8-0.4
                    c-0.4,0-0.8,0.1-1.2,0.2c-0.3,0.1-0.5,0.3-0.7,0.5c-0.3,0.3-0.5,0.7-0.7,1.1c-0.2,0.3-0.3,0.5-0.6,0.7c-0.4,0.3-1,0.4-1.6,0.5
                    c-0.4,0.1-0.8,0.2-1.2,0.4c-0.3,0.2-0.5,0.5-0.7,0.7c-0.4,0.6-0.9,1.3-1.3,1.9c-0.3,0.4-0.6,0.8-0.9,1.1c-0.4,0.4-0.9,0.8-1.2,1.2
                    c-0.2,0.2-0.3,0.4-0.4,0.7c-0.2,0.5-0.1,1.1-0.2,1.6c0,0.4-0.1,0.8-0.2,1.2c-0.2,0.4-0.4,0.8-0.7,1.1c-0.5,0.6-1.1,1.3-1.4,2
                    c-0.2,0.9,0.1,1.9,0,2.8c0,0.3-0.1,0.5-0.2,0.8c-0.2,0.4-0.5,0.7-0.8,1.1c-0.3,0.4-0.8,0.8-1.1,1.2c-0.2,0.2-0.3,0.5-0.4,0.7
                    c-0.1,0.5,0,1.1,0.1,1.6c0.2,0.7,0.4,1.5,0.4,2.2c0,0.5-0.2,1-0.3,1.5c-0.2,0.7-0.6,1.5-0.6,2.1c0,0.3,0,0.6,0.2,0.9
                    c0.3,0.6,1,1.1,1.5,1.6c0.3,0.3,0.6,0.6,0.8,1c0.2,0.6,0.1,1.2,0,1.8c0,0.3-0.1,0.7,0,1c0.1,0.4,0.2,0.8,0.4,1.2l0.5,1
                    c0.2,0.5,0.4,0.9,0.5,1.4c0,0.3,0,0.6,0,0.9c-0.2,1-0.8,2.1-1,3.1c-0.1,0.3-0.1,0.7-0.1,1c0,0.3,0.1,0.5,0.2,0.8
                    c0.4,1.1,1.3,2.1,1.7,3.2c0.2,0.7,0.2,1.4,0.2,2.1c0,0.7-0.2,1.6-0.1,2.3c0,0.4,0.1,0.7,0.3,1c0.2,0.3,0.4,0.5,0.6,0.7
                    c0.5,0.4,1.3,0.8,1.9,1.1c0.3,0.2,0.7,0.4,0.9,0.6c0.2,0.2,0.2,0.5,0.3,0.7c0.1,0.4,0.3,0.7,0.6,1c0.4,0.4,0.8,0.7,1.3,1"/>
            </g>
            <g id="POLYLINE_00000136397317949069330400000007516775988049260720_">
                <path class="st1" d="M90.1,65.5c0.2,1.5,0.5,3.1,0.9,4.5c0.5,1.7,1.2,3.3,2,4.8"/>
            </g>
            <g id="POLYLINE_00000098199772933160282120000002506582942413900980_">
                <path class="st1" d="M67.6,48c-1.3,0-2.6-0.3-3.9-0.8c-1.5-0.6-3-1.7-3.7-3.2c-0.6-1.2-0.9-2.5-1-3.8c0-1.2,0.1-2.3,0.6-3.4
                    c0.5-1.1,1.4-2,2.6-2.2c1-0.2,2.1,0,2.9,0.7c0.6,0.5,0.9,1.3,1.4,2c0.2,0.3,0.5,0.6,0.8,0.8c0.6,0.4,1.3,0.6,1.9,0.5
                    c0.3,0,0.7-0.2,0.9-0.4c0.5-0.5,0.7-1.3,1.2-1.8c0.5-0.5,1.3-0.6,1.9-0.6c0.9,0,2,0.1,2.9-0.3c0.6-0.3,1.1-0.8,1.4-1.4
                    c0.1-0.3,0.2-0.7,0.2-1.1c0-0.2-0.1-0.4-0.2-0.6c-0.2-0.4-0.6-0.8-0.7-1.3c-0.1-0.3-0.1-0.7,0-1c0.1-0.3,0.2-0.6,0.4-0.8
                    c0.1-0.2,0.3-0.3,0.5-0.4c0.1-0.1,0.3-0.1,0.5,0c0.5,0.1,1.1,0.5,1.5,0.8c0.6,0.4,1.3,0.7,2.1,0.8c0.9,0.1,1.9,0.1,2.6-0.5
                    c0.5-0.4,0.8-1.1,1.1-1.6c0.2-0.3,0.3-0.6,0.6-0.7c0.2-0.1,0.5-0.1,0.7-0.2c0.3,0,0.7,0,1.1-0.1c0.2-0.1,0.4-0.2,0.5-0.4
                    c0.5-0.4,0.9-0.9,1.6-1c0.9-0.1,1.8,0.3,2.7,0.4c0.3,0,0.5,0,0.8,0c0.4,0,0.8-0.2,1.2-0.3c0.3-0.1,0.7-0.1,1.1-0.1
                    c0.4,0.1,0.8,0.3,1.2,0.5c0.6,0.3,1.2,0.7,1.9,0.9c0.3,0.1,0.5,0.1,0.8,0.1c0.3,0,0.6-0.1,0.9,0c0.1,0,0.2,0.1,0.3,0.2
                    c0.1,0.1,0.2,0.3,0.2,0.4c0.2,0.8,0.1,2.1,0.1,3c0,0.8,0.1,1.9,0,2.7c0,0.4-0.1,0.9-0.3,1.2c-0.2,0.5-0.6,1-1,1.3L99.2,37
                    c-0.3,0.3-0.6,0.6-0.8,1c-0.2,0.3-0.3,0.7-0.3,1.1c0,0.5,0,1.1,0.1,1.6c0.3,2.3,1.1,4.9,1.6,7.2c0.1,0.5,0.2,1,0.1,1.5
                    c0,0.2-0.1,0.4-0.2,0.5c-0.1,0.2-0.2,0.3-0.4,0.4c-0.2,0.1-0.5,0.2-0.8,0.3c-0.5,0.1-1,0.2-1.6,0.2c-0.1,0-0.5,0-0.6,0.1
                    c0,0-0.1,0.1-0.1,0.1c0,0.1,0,0.2,0,0.3c0,0.7,0.2,1.6,0.3,2.3c0,0.3,0.1,0.6,0,0.9c0,0.2-0.2,0.4-0.3,0.6
                    c-0.1,0.1-0.1,0.3-0.1,0.4c0,0.4,0.1,0.8,0.1,1.2c0,0.6-0.4,1.2-0.6,1.8c-0.4,1.2-0.2,2.7-0.6,3.9c-0.4,1.2-1.4,2.2-2.6,2.7
                    c-1.6,0.7-3.5,0.6-5.2,0.5c-2.4-0.3-5-0.7-7.4-1.2c-1.7-0.4-3.4-0.9-4.9-1.5c-1.1-0.5-2.2-1.1-3.1-1.9c-1.4-1.3-2.3-3.1-3.1-4.8"
                    />
            </g>
            <g id="POLYLINE_00000178190015872226563860000010559162539916535190_">
                <path class="st1" d="M120.4,116.5l1,1.9c0.5,1,1.1,1.9,1.8,2.8c1.1,1.4,3.5,3.7,4.8,5c0.9,1,1.9,2,2.6,3.2
                    c0.7,1.1,1.3,2.6,1.8,3.8c0.6,1.4,1.4,2.7,2.3,3.9c1.1,1.4,2.3,2.7,3.5,4c1.5,1.4,3,2.8,4.8,3.9c1.3,0.8,2.8,1.5,4.3,2
                    c1.8,0.6,3.6,1.2,5.5,1.4c0.9,0.1,1.8,0.1,2.6-0.1c1.8-0.5,2.5-2.4,3-4c0.2-0.7,0.4-1.5,0.8-2.2c0.6-1.1,1.4-2.1,1.6-3.4
                    c0.2-1.1-0.1-2.2-0.5-3.3c-0.3-0.9-0.8-2.3-1-3.2c-0.2-0.9-0.3-2.3-0.4-3.2c-0.1-0.9-0.3-1.7-0.6-2.5c-0.5-1.3-1.4-2.5-2.3-3.7
                    c-1-1.2-2.2-2.4-3.4-3.4c-1-0.8-2.4-1.7-3.5-2.5c-0.7-0.5-1.4-1-2.1-1.6c-1.7-1.6-3.5-4.1-5-6c-0.9-1.1-2.1-2.4-3-3.5
                    c-0.3-0.3-0.5-0.7-0.7-1.1c-0.4-0.6-0.6-1.3-0.7-2c-0.2-1-0.5-2.1-0.9-3.1c-0.5-1.4-1.2-2.8-1.9-4.1c-1.1-2-2.3-4-3.6-5.8
                    c-1.1-1.6-2.4-3.1-3.8-4.5c-1.5-1.5-3.1-2.9-4.8-4.1"/>
            </g>
            <g id="POLYLINE_00000005964856454031434500000006528117141378614913_">
                <path class="st1" d="M139.5,138.4c-1.6-2-3.2-4.1-4.5-6.2c-3.2-5.2-6.9-13.9-9.7-19.3c-0.6-1.1-1.2-2.2-2-3.2
                    c-0.5-0.7-1.2-1.3-1.9-1.6c-0.5-0.3-1.1-0.5-1.7-0.6c-0.9-0.2-2-0.5-2.9-0.9c-1.2-0.5-2.4-1.3-3.4-2.1c-1.5-1.2-2.9-2.5-4.1-4
                    c-1.2-1.4-2.3-2.9-2.6-4.7c-0.1-0.6-0.1-1.2,0.1-1.8c0.3-1.5,1.2-3,1.6-4.5c0.2-0.5,0.3-1.1,0.2-1.6c0-0.4-0.1-0.8-0.3-1.2
                    c-0.8-1.8-2.5-3-3.8-4.4c-0.3-0.4-0.6-0.7-0.6-1.2c-0.1-0.7,0-1.4,0.1-2.2c0.2-1.1,0.4-2.3,0.9-3.4c0.3-0.6,0.6-1.2,1.2-1.7
                    c0.5-0.5,1.2-0.7,1.9-0.6c0.6,0,1.1,0.2,1.6,0.5c0.8,0.4,1.6,1,2.3,1.6c1.3,1.1,3.2,2.6,4.5,3.6c0.5,0.3,4.1,2.9,4.5,3.1
                    c0.2,0.1,0.4,0.2,0.6,0.2c0.2,0,0.3,0,0.5,0c0.2-0.1,0.4-0.3,0.5-0.4c0.3-0.4,0.4-0.8,0.5-1.3c0.1-0.6,0-1.3-0.2-1.9
                    c-0.3-0.9-0.8-1.7-1.3-2.4c-2-2.5-5-3.9-8.1-4.7c-1.4-0.4-2.9-0.7-4.4-0.8c-0.6,0-1.3-0.1-1.9,0.1c-1,0.2-1.7,0.9-2.4,1.5
                    c-0.8,0.7-1.8,1.8-2.7,2.4c-0.2,0.1-0.4,0.2-0.6,0.2c-0.2,0-0.5,0-0.7-0.1c-0.3-0.1-0.8-0.3-1.1-0.5c-0.8-0.4-1.6-0.6-2.4-0.8
                    c-0.7-0.2-1.4-0.3-2.1-0.3c-0.5,0-1,0.1-1.4,0.4c-0.3,0.3-0.4,0.7-0.4,1.2c0,0.9,0.3,1.7,0.6,2.5c1.2,2.9,2.6,5.8,4.6,8.2
                    c2.4,3,5.3,5.6,8.6,7.6"/>
            </g>
            <g id="POLYLINE_00000178904030053123166040000000824668508215781289_">
                <path class="st1" d="M81.4,210.5c-0.2,0.7-0.5,1.4-0.6,2.2c-0.1,0.8-0.2,1.6-0.1,2.4c0,1.5,0.2,3.1,0.7,4.5c0.4,1.1,1,2.3,2.1,2.8
                    c0.5,0.2,1.1,0.3,1.6,0c0.4-0.2,0.6-0.6,0.7-1c0.2-0.5,0.3-1,0.4-1.5c0.1-0.9,0.2-1.8,0.2-2.7c0.1-2.3,0-4.5-0.6-6.7"/>
            </g>
            <g id="POLYLINE_00000139290995290232995680000018328810134420531620_">
                <path class="st1" d="M78.8,217.2c-0.2,1-0.9,4.2-1.1,5.3c-0.1,0.5-0.2,1.1-0.2,1.6c-0.1,0.7-0.1,1.5,0.1,2.2
                    c0.1,0.6,0.4,1.1,0.8,1.6c0.3,0.4,0.7,0.7,1.1,0.9c0.7,0.3,1.4,0.4,2.1,0.3c0.6,0,1.2-0.1,1.7-0.4c0.2-0.1,0.4-0.3,0.7-0.3
                    c0.1,0,0.2,0,0.2,0c0.3,0.1,0.7,0.4,0.9,0.6c0.4,0.2,0.8,0.5,1.3,0.6c0.6,0.1,1.3,0,1.9-0.2c0.7-0.3,1.4-0.8,1.9-1.5
                    c0.3-0.4,0.4-0.9,0.4-1.4c0-0.5,0-0.9-0.1-1.4c-0.2-1.2-0.7-2.7-1.1-3.9c-0.2-0.7-0.5-1.6-0.6-2.3c-0.2-1-0.3-2-0.4-3"/>
            </g>
            <g id="POLYLINE_00000024704860685354240620000000810556310956198297_">
                <path class="st1" d="M76.4,212.2c-0.6-0.2-1.2-0.4-1.8-0.8c-0.3-0.2-0.6-0.5-0.7-0.8c-0.1-0.2-0.1-0.3,0-0.5
                    c0.1-0.4,0.3-0.8,0.4-1.1c0.1-0.3,0.2-0.5,0.3-0.8c0-0.3,0-0.6,0-0.9c0-0.5-0.2-1-0.1-1.5c0-0.1,0.1-0.3,0.3-0.4
                    c0.4-0.3,1-0.5,1.5-0.6c0.5-0.2,1-0.4,1.3-0.8c0.4-0.5,0.6-1.1,1-1.5c0.4-0.4,0.9-0.5,1.4-0.5c0.7-0.1,1.5-0.1,2.1-0.4
                    c0.5-0.2,1.1-0.7,1.6-0.9c0.2-0.1,0.4-0.1,0.6-0.1c0.4,0,0.7,0.2,1,0.5c0.4,0.3,0.9,0.7,1.4,0.9c0.3,0.1,0.6,0.2,0.9,0.2
                    c0.4,0,1,0,1.4,0.2c0.2,0.1,0.3,0.3,0.3,0.4c0.2,0.4,0.3,0.9,0.4,1.3c0.1,0.2,0.1,0.3,0.2,0.5c0.3,0.4,0.8,0.4,1.1,0.6
                    c0.4,0.2,0.5,0.7,0.7,1.1c0.1,0.5,0.2,1.1,0.5,1.6c0.2,0.4,0.6,0.7,0.6,1.1c0.1,0.4,0,0.8-0.2,1.1c-0.2,0.6-0.6,1.1-1.1,1.6"/>
            </g>
            <g id="POLYLINE_00000023968033082434419810000013773347090229043861_">
                <path class="st1" d="M77.9,126.3c-0.3,1.2-0.3,2.5-1,3.5c-0.4,0.6-1,1.1-1.6,1.5c-1.1,0.7-2.3,1.2-3.5,1.7
                    c-3.3,1.2-6.7,1.8-10.1,2.3c-3,0.3-6.1,0.5-9,0c-1.6-0.3-3.2-0.9-4.5-1.9c-1.5-1.1-2.6-2.7-3.4-4.4"/>
            </g>
            <g id="POLYLINE_00000075141982666910823050000004674991100453939873_">
                <path class="st1" d="M85.2,125c0.4,0.5,0.6,1.1,1.1,1.6c0.6,0.7,1.5,1,2.3,1.2c2.6,0.6,5.4,0.6,8.1,0.6c2.1,0,4.8-0.1,7-0.2
                    c1.5-0.1,3.3-0.2,4.7-0.4c1.8-0.3,3.6-0.7,5.2-1.7c1.1-0.7,2-1.7,2.7-2.8c0.9-1.4,1.6-3,2.1-4.7"/>
            </g>
            <g id="POLYLINE_00000048484350457698796230000004229777115812678313_">
                <path class="st1" d="M40,122.4c0.9,2.5,1.5,5.1,1.6,7.8c0.1,2.1-0.4,5.6-0.5,7.7c-0.2,2.4-0.4,8-0.6,10.4
                    c-0.2,3.1-0.6,6.3-1.4,9.4c-0.9,3.4-2.7,7.3-4,10.5c-0.5,1.3-1.1,2.7-1.4,4.1c-0.2,0.9-0.2,1.8-0.2,2.7c0,0.5,0.1,1.1,0.1,1.6
                    c0.2,1.7,0.7,5,0.9,6.6c0.3,3.3,1,7.6,0.9,10.9c0,1.4-0.2,2.8-0.5,4.1c-0.3,1.4-0.8,2.9-1.2,4.2c-0.9,2.7-2.5,6.7-3.1,9.4
                    c-0.2,0.9-0.4,1.9-0.4,2.8c0,0.9,0.1,1.9,0.2,2.8c0.4,1.9,1.3,4.1,2,5.9c0.2,0.4,0.4,0.8,0.6,1.2c0.1,0.2,0.3,0.4,0.5,0.5
                    c0.2,0.2,0.4,0.3,0.7,0.4c0.8,0.3,1.7,0.6,2.4,1c1.6,1,3.2,2.7,4.5,4.1c1.1,1,2.5,2.2,3.3,3.4c0.5,0.7,0.8,1.5,1.1,2.3
                    c0.5,1.4,1.1,3.1,1.8,4.4c1.1,2.1,2.6,4.5,3.5,6.7c0.3,0.7,0.5,1.4,0.5,2.2c0,0.4-0.1,0.9-0.4,1.2c-0.3,0.4-0.9,0.8-1.3,1.1
                    c-0.2,0.1-0.3,0.3-0.4,0.5c-0.2,0.4-0.2,0.9-0.1,1.3c0.1,0.7,0.2,1.5,0.1,2.2c-0.2,1.3-0.9,2.7-2.1,3.4c-0.9,0.5-2,0.7-3,0.8
                    c-1.7,0.2-3.4,0.2-5.1,0c-1.1-0.2-2.2-0.5-3-1.3c-0.9-0.8-1.3-2-1.9-3c-0.9-1.5-2.1-2.9-3.4-4.1c-1.4-1.4-3.2-2.6-4.9-3.8
                    c-0.6-0.4-1.2-0.9-1.6-1.5c-0.3-0.5-0.5-1-0.7-1.6c-0.2-0.5-0.4-2-0.5-2.5c-0.3-1.2-0.7-2.5-1.2-3.6c-0.7-1.4-1.7-3.1-2-4.7
                    c-0.2-0.9-0.1-1.8-0.1-2.7c0-0.8-0.2-1.5-0.5-2.2c-0.5-1.4-1.2-2.9-1.6-4.3c-0.2-0.9-0.2-1.8-0.2-2.7l0.1-2.4c0-1.1,0-2.2-0.1-3.2
                    c-0.3-3.1-1.3-8.1-1.7-11.2c-0.6-3.9-0.9-8-1-12c-0.1-3.1-0.1-6.4,0.2-9.6c0.1-1.3,0.4-2.9,0.7-4.1c0.2-0.8,0.3-1.6,0.2-2.3
                    c-0.1-1.6-0.5-3.2-0.4-4.8c0-1.6,0.7-3.3,1.2-4.8c0.3-0.9,0.5-1.8,0.7-2.7c0.3-1.5,0.4-3.2,0.4-4.8c0.1-5-0.1-10.9,0.6-15.9
                    c0.3-2.3,0.7-4.7,1.4-7c0.4-1.5,1.2-3.6,1.4-5.1c0.1-0.8,0.1-1.6-0.1-2.4c-0.1-0.9-0.5-2.3-0.6-3.2c-0.2-0.9-0.3-1.9-0.3-2.9
                    c-0.4-6.2,0.3-12.5,2.6-18.3c1.3-3,2.9-5.9,5.1-8.4c1.1-1.2,2.3-2.3,3.7-3.1c1.5-1,3.8-1.8,5.5-2.5c1.2-0.5,2.4-1.1,3.5-1.8
                    c1.4-0.9,3.1-2.3,4.5-3.2c1-0.6,2-1.2,3.1-1.7l3.6-1.6c2-0.9,3.9-2,5.4-3.6c2.1-2.3,3.1-5.4,3.5-8.4c0.3-2.5,0.4-5,0.2-7.5
                    c0-0.4,0-0.9,0.2-1.3c0.4-0.9,1.1-1.6,1.3-2.5c0.1-0.4,0.1-0.7,0-1.1c-0.1-0.8-0.4-1.6-0.3-2.4c0.1-1.4,1.1-2.5,1.3-3.8
                    c0.2-0.9,0-2,0.1-2.9c0.1-0.9,0.6-1.6,1.1-2.3"/>
            </g>
            <g id="POLYLINE_00000125575622571506150060000014377493812305512124_">
                <path class="st1" d="M71.2,405.7c-1.3,0-16.5-0.1-17.4,0.1c-0.4,0.1-0.9,0.2-1.2,0.4c-0.5,0.4-0.6,1-0.7,1.6
                    c-0.5,5.8-0.8,12.6-0.7,18.5c0,0.3,0,0.6,0.1,0.8c0,0.1,0.1,0.2,0.1,0.2c0.1,0.1,0.2,0.1,0.2,0.1c0.5,0.2,1.2,0.1,1.7,0.2
                    c1,0,114.2,0,115.1,0c0.4,0,0.8,0,1.2-0.2c0.3-0.1,0.5-0.2,0.8-0.4c0.3-0.2,0.5-0.6,0.6-0.9c0.1-0.3,0.2-0.7,0.3-1
                    c0.4-1.4,0.6-3,0.9-4.4c0.2-1.6,0.6-3.5,0.7-5.1c0-0.6,0.1-1.3,0.1-1.9c0-0.2-0.1-0.5-0.2-0.7c-0.2-0.2-0.4-0.3-0.7-0.4
                    c-0.6-0.2-1.2-0.2-1.9-0.2c-2.6-0.2-33.6-0.1-37-0.2c-1.9-0.1-4,0-5.9-0.4c-0.3-0.1-0.7-0.2-1-0.3c-0.1-0.1-0.3-0.2-0.4-0.3
                    c-0.2-0.2-0.3-0.5-0.5-0.7c-0.2-0.2-0.5-0.4-0.9-0.5c-0.4-0.2-0.9-0.3-1.4-0.4c-3.6-0.5-8.1-0.4-11.7-0.5c-1.2,0-6.6,0.1-7.8-0.1
                    c-1-0.1-1.9-0.4-2.9-0.7c-1.1-0.4-2.1-0.9-3.1-1.5c-1-0.6-2.1-0.9-3.2-1c-1.8-0.3-3.6-0.3-5.4-0.3"/>
            </g>
            <g id="POLYLINE_00000038407794490683725540000013505120224104650628_">
                <path class="st1" d="M82.2,229c0.1,7.5-0.2,15.5-0.8,23c-0.3,3.7-1.1,7.8-1.4,11.4c-0.2,2.4,0.3,5.6,0.5,8.1
                    c0.3,2.5,0.2,5-0.1,7.5c-0.2,1.8-0.6,4.3-0.5,6.1c0.1,2.4,0.6,5.2,0.7,7.7c0.1,3.4-0.5,6.7-1.5,10c-0.2,0.7-0.8,2.5-1,3.2
                    c0,0.2-0.1,0.3-0.1,0.5c0,0.2,0,0.4,0,0.6c0,0.2,0.1,0.4,0.2,0.6c0.2,0.5,1.2,2.7,1.5,3.2c1.2,2.7,2.3,5.5,3.1,8.3
                    c1.3,4.9,1.8,10,1.7,15c-0.1,3.8-0.5,8.8-0.5,12.6c0,3.6,0.2,7.3,0.6,10.9c0.5,4.1,1.2,8.2,2.4,12.1c0.8,2.7,2.2,5.3,3.5,7.8
                    c0.5,1,0.9,2,1.2,3c0.2,0.6,0.3,1.3,0.2,1.9c-0.1,1-0.5,2-0.7,3c-0.2,1.6,0.1,3.7,0.2,5.3c0.1,1.3,0.1,2.6,0,3.9
                    c-0.1,0.6-0.3,2.9-0.3,3.5c0,0.6,0,1.3,0,1.9c0,1.3,0.3,3,0.1,4.2c0,0.3-0.1,0.7-0.3,1c-0.1,0.1-0.2,0.2-0.3,0.3
                    c-0.1,0.1-0.2,0.1-0.3,0.2c-0.3,0.1-0.7,0.1-1.1,0.1c-0.7,0-18.1,0-19,0c-0.6,0-1.1-0.1-1.7-0.3c-0.3-0.1-0.5-0.3-0.6-0.6
                    c-0.1-0.2-0.1-0.5-0.1-0.7c0-0.4,0.1-0.8,0.3-1.1c0.4-1.2,1.2-2.5,1.8-3.6c1.6-2.7,3.4-5.6,4.3-8.6c0.2-0.6,0.4-1.3,0.5-2
                    c0.1-0.4,0.1-0.9,0.1-1.4c-0.1-1.2-1.2-2.2-1.8-3.2c-0.4-0.7-0.6-1.5-0.7-2.4c0-1,0.2-2.2,0.3-3.2c0.1-1.1,0.2-2.3,0.2-3.4
                    c-0.2-6.8-3.9-13.4-6.6-19.5c-3-6.6-6-13.8-8.4-20.6c-1.5-4.4-2.9-9-3.4-13.6c-0.5-3.8-0.4-7.7,0.1-11.5c0.5-3.6,1.4-7.6,1.4-11.2
                    c0-0.9-0.1-1.8-0.3-2.7c-0.2-1.1-0.7-2.8-0.8-3.9c-0.3-2.3-0.4-4.6-0.1-6.9c0.2-1.8,0.6-3.8,0.8-5.6c0-0.3,0-0.7,0-1
                    c-0.1-0.3-0.2-0.6-0.3-0.9l0-0.1l0-0.1l0-0.1l0-0.1l-0.1-0.1l-0.1-0.1l-0.1-0.1l-0.1-0.1l-0.1-0.1l-0.1-0.1l-0.2-0.3l-0.6-1
                    c-1-1.6-1.7-3.5-2.4-5.3c-1.3-3.7-2.4-7.9-3.4-11.7"/>
            </g>
            <g id="POLYLINE_00000110431101082474118490000008075613287955708858_">
                <path class="st1" d="M41.2,135.8c0.5,1.2,1.1,2.7,1.8,3.8c0.8,1.4,2.7,3.9,3.7,5.2c0.8,1.1,1.7,2.4,2.1,3.7
                    c0.3,0.7,0.3,1.6,0.4,2.4c0.1,0.9,0.3,1.7,0.6,2.5c1,2.6,2.5,5.1,3.9,7.5c0.1,0.1,0.1,0.2,0.2,0.4c0,0.1,0,0.2,0,0.3
                    c-0.1,1.2-0.6,2.5-0.9,3.6c-0.7,2.1-1.5,4.3-2.6,6.2c-0.9,1.6-2.2,3.6-2.7,5.3c-0.4,1.3-0.5,2.6-0.5,3.9c-0.1,1.5-0.1,3.9-0.3,5.3
                    c-0.1,0.9-0.3,1.8-0.5,2.7c-0.7,2.6-1.9,5.3-2.2,8.1c-0.2,2.1-0.1,4.5-0.3,6.5c-0.1,1.1-0.2,2.2-0.5,3.3c-0.7,2.8-1.9,5.8-2.3,8.7
                    c-0.7,5.5,0.5,11.2,1.4,16.6"/>
            </g>
            <g id="POLYLINE_00000149362474973479596600000001945631687015205250_">
                <path class="st1" d="M53.8,405.8c-0.3-0.3-0.6-0.7-0.8-1.1c-0.2-0.4-0.2-0.8-0.2-1.1c0-0.5,0.1-1,0.3-1.5c0.3-0.9,1.3-3.5,1.7-4.4
                    c0.5-1.4,1.1-3.1,1.6-4.5c1.4-4.5,2.6-9.1,3-13.7c0.1-1.8,0.2-3.6-0.2-5.4c-0.3-1.5-1-2.9-1.8-4.2c-0.5-0.8-1.1-1.5-1.7-2.1
                    c-0.6-0.6-1.3-1.2-2-1.7c-0.8-0.6-2.3-1.5-3.1-2.3c-0.2-0.2-0.4-0.5-0.5-0.7c-0.1-0.3-0.2-0.6-0.1-0.9c0.1-0.5,0.2-0.9,0.4-1.4
                    c1-2.3,2.5-4.4,3.9-6.5c0.5-0.8,1.1-1.6,1.7-2.3c0.1-0.1,0.2-0.2,0.4-0.3c0.2-0.1,0.5-0.1,0.8,0c0.6,0.2,1.4,0.8,1.9,1.2
                    c0.6,0.4,1.3,0.8,2,1.1c0.4,0.2,0.8,0.3,1.2,0.3c0.4,0,0.9-0.1,1.2-0.3c0.6-0.4,1-0.9,1.5-1.5"/>
            </g>
            <g id="POLYLINE_00000134953563924964690380000000245942630773083783_">
                <path class="st1" d="M291.3,234.7c0.8,1.4,1.6,2.9,2.7,4.1c0.7,0.8,1.6,1.4,2.5,1.8c1.4,0.6,2.8,0.9,4.3,1.1
                    c3.2,0.3,6.5,0,9.6-0.8c2.5-0.6,4.9-1.5,7-3c1-0.8,1.9-1.7,2.5-2.9c1.1-2.1,1.2-4.5,1.2-6.9c0-1.5-0.1-5.2-0.1-6.7
                    c0-1.4-0.1-2.8-0.3-4.2"/>
            </g>
            <g id="POLYLINE_00000096035720501611758150000011394204144974215078_">
                <path class="st1" d="M320.8,232.4c0.4,0.6,0.6,1.3,1,1.8c0.2,0.4,0.5,0.7,0.9,0.9c0.8,0.6,1.7,0.9,2.6,1.1c1.9,0.5,4,0.7,6,0.9
                    c4.1,0.3,8.4,0.4,12.5,0.1c1.4-0.1,2.8-0.3,4.2-0.7c1.4-0.5,2.7-1.3,3.8-2.4c1.2-1.2,2.2-2.6,2.9-4.1"/>
            </g>
            <g id="POLYLINE_00000021094220907994387900000017316456908422460567_">
                <path class="st1" d="M278.2,110.2c-0.1,2.7-0.1,5.4,0.3,8.1c0.3,2.1,0.9,4.1,1.7,6.1c1.3,3.5,3.2,7.5,3.4,11.3
                    c0.1,2.1-0.2,4.8-0.3,6.9c-0.1,1.6-0.1,3.2,0.1,4.8c0.7,5.4,2.8,11.2,3.9,16.6c0.4,1.8,0.7,3.8,0.7,5.6c0.1,2-0.2,4.1-0.5,6.1
                    c-0.4,2.5-1.1,6.1-1.4,8.7c-0.6,6.2-0.6,12.7-0.4,18.9c0.2,4.8,0.7,12.6,0.5,17.2c-0.1,2.7-0.4,5.5-1,8.1c-0.7,3.4-2.8,8.6-4,11.9
                    c-1.2,3.3-2.3,6.7-3.1,10.1c-1,4.5-1.7,9.3-2.1,13.9c-0.4,3.9-0.7,9.2-1.2,13.1c-0.3,2-0.6,4-1.1,5.9c-0.7,2.5-1.6,5-2.6,7.4
                    c-2.3,5.4-4.8,11.3-7.6,16.5c-1.8,3.3-4,6.8-5.4,10.4c-0.9,2.5-1.5,5.1-1.8,7.7c-0.5,3.8-0.6,10.4-0.8,14.3
                    c-0.2,4.6-0.6,9.6-1.2,14.2c-0.6,4.5-1.4,9.2-3.1,13.4c-0.5,1.3-1.1,2.6-1.9,3.8c-0.7,1.1-1.5,2.4-1.9,3.6
                    c-0.6,1.9-0.2,3.9-0.6,5.8c-0.2,0.8-0.5,1.5-0.8,2.1c-0.4,0.7-0.9,1.4-1.4,2.1c-1.1,1.4-2.7,3.6-3.7,5.1c-0.8,1.1-1.7,2.3-2.6,3.3
                    c-1.3,1.5-3.8,4.1-5.1,5.5c-1,1.1-2.1,2.3-3,3.6c-0.5,0.8-1,1.7-1.1,2.7c-0.1,0.8-0.1,1.6,0,2.4c0,0.2,0.1,0.4,0.2,0.6
                    c0.1,0.1,0.3,0.2,0.4,0.3c0.3,0.1,0.7,0.1,1,0c0.6-0.1,1.2-0.2,1.7-0.3c0.5-0.1,1.9-0.4,2.3-0.6c0.3-0.1,0.7-0.2,1-0.4
                    c1.2-0.7,2.8-1.7,4.1-2.3c2.7-1.4,5.8-2.3,8.7-3.1c3.7-1,9-2,12.4-3.6c0.9-0.4,1.7-1,2.4-1.7c0.6-0.6,1-1.4,1.2-2.2
                    c0.4-1.4,0.4-2.8,0.4-4.2c-0.1-2.2-0.3-5,0-7.1c0.2-0.9,0.5-1.9,0.8-2.7c0.6-1.5,1.4-2.9,1.6-4.5c0.3-2.4-0.1-5.2,0.1-7.6
                    c0.1-2.3,0.6-4.5,1.2-6.7c0.9-2.9,2.1-5.9,3.3-8.8c1.3-3.2,2.9-6.4,4.6-9.3c2-3.3,4.4-6.9,5.7-10.4c1-2.7,1.6-5.6,2-8.4l0.9-6.6
                    c0.2-1.5,0.5-3,0.9-4.5c0.4-1.2,0.9-2.4,1.5-3.5c2.8-4.8,5.1-10.2,7.2-15.3c1.3-3.1,2.6-6.4,3.5-9.6c0.4-1.4,0.9-3.8,1.3-5.3
                    c0.3-1.2,0.7-2.3,1.3-3.4c0.5-0.9,1.1-1.7,1.7-2.5c1.4-1.7,3.8-4.5,5.1-6.3c3.8-5,7-10.6,9.3-16.5c1.1-2.7,2-5.5,2.6-8.3
                    c0.5-2.3,0.9-4.7,1.1-7"/>
            </g>
            <g id="POLYLINE_00000056389118652500418260000018234227467342077570_">
                <path class="st1" d="M259,147.2l1.3-0.9c1.1-0.8,2.2-1.7,3-2.9c0.8-1.2,1.8-3,2.5-4.3c0.7-1.2,1.5-2.4,2.4-3.5
                    c3.3-4,8.4-7.5,12.1-11.1"/>
            </g>
            <g id="POLYLINE_00000119092415966718951890000011190496616632174245_">
                <path class="st1" d="M362.6,220.9c0.2-2.4,0.2-4.9,0-7.4c-0.8-7.3-3.4-15.4-5.5-22.4c-0.5-1.7-0.9-3.5-1.2-5.3
                    c-0.3-1.9-0.3-4-0.7-5.9c-0.6-3.4-1.9-6.7-3.2-9.9c-0.7-1.7-2-4.6-2.6-6.4c-0.3-0.9-0.5-1.9-0.5-2.9c0-1.5,0.5-3,1.1-4.4
                    c0.9-2.1,2-4.4,2.6-6.6c0.7-2.5,1.2-5.8,1.8-8.3c0.3-1.2,0.7-2.4,1.1-3.5c0.7-1.7,2.2-4.2,3.1-5.9c1.9-3.4,2.9-7.2,3.8-11"/>
            </g>
            <g id="POLYLINE_00000015352102505334460040000012719742081369246125_">
                <path class="st1" d="M361.9,238c0.3-2.1,0.8-4.2,1.9-6c0.7-1.2,1.6-2.2,2.6-3.1c1.5-1.4,3.2-2.6,5-3.7c1.4-0.9,3.2-1.7,4.1-3.1
                    c0.6-0.9,0.9-1.9,1-2.9c0.3-1.5,0.2-3,0.1-4.5c-0.4-3.3-2-6.9-3.1-10c-1.2-3.2-2.3-6.6-3.1-10c-0.7-3-1-6.1-1.2-9.2
                    c-0.1-2.7,0-6-0.1-8.7c0-1.2-0.3-2.5-0.7-3.6c-1-2.7-2.6-5.6-3.5-8.4c-1.5-4.3-3.2-10.8-4.4-15.2c-1.4-5.1-2.5-10.4-3.1-15.6"/>
            </g>
            <g id="POLYLINE_00000058590895855295491100000013192558371347609268_">
                <path class="st1" d="M358.4,249c-0.4-0.6-0.8-1.1-1-1.7c-0.2-0.5-0.2-1-0.2-1.5c0-0.5,0.1-1.1,0.2-1.6c0.4-2,1.2-4.4,1.6-6.4
                    c0.7-3.1,1.3-6.3,1.3-9.4c0-1.1,0-2.2-0.1-3.3c-0.3-2.1-0.9-4.3-1.4-6.3c-1.1-4-2.5-8.2-4-12.1c-2.1-5.4-4.6-10.8-7.4-15.8
                    c-2.4-4.3-5.2-8.5-8-12.4l-10.7-14.6c-5.4-7.6-10.4-15.8-14.6-24.1c-3.4-6.7-6.5-13.8-8.8-21c-2-6.1-3.8-13.8-6.1-19.8
                    c-1.4-3.7-3.1-7.4-5-10.8c-1.1-2.1-2.4-4.2-3.8-6.1c-0.4-0.6-0.9-1.1-1.4-1.6c-0.4-0.3-0.8-0.6-1.3-0.8c-0.6-0.2-1.3-0.2-1.9-0.2
                    c-1,0.1-1.9,0.5-2.9,0.8c-2.2,0.9-4.2,2.2-6.1,3.6c-2.2,1.8-4,3.9-5.8,6c-2.6,3.4-5,7-6.6,10.9c-0.7,1.7-1.8,4.4-2.7,6
                    c-0.7,1.3-1.6,2.5-2.5,3.7c-1.1,1.4-3.4,4-4.3,5.4c-1.3,1.9-3.2,5.1-4.5,6.9c-1.4,2.1-3.4,4.1-4.9,6.2c-0.9,1.3-1.7,2.7-2.1,4.2
                    c-0.5,1.6-0.7,3.2-0.8,4.9c-0.1,2.2,0.1,4.4,0.5,6.5c0.3,1.5,0.8,3.1,1.5,4.4c0.5,1,1.3,1.9,2.3,2.5c0.9,0.5,2,0.7,3.1,0.7
                    c1.6,0,3.3-0.4,4.9-0.8c1.5-0.4,3.1-0.9,4.5-1.5c1.3-0.5,2.6-1.1,3.8-1.8c1.4-0.9,2.7-2.1,3.5-3.5c0.9-1.4,1.4-3.1,1.9-4.7
                    l0.2-0.6l1.6-6.1"/>
            </g>
            <g id="POLYLINE_00000031170307113715010720000008394033310352359076_">
                <path class="st1" d="M372.7,241.2c-0.3-0.5-0.6-1.1-1.1-1.5c-0.4-0.4-0.8-0.7-1.3-1c-0.8-0.4-1.7-0.7-2.6-0.7
                    c-0.6,0-1.2,0.2-1.6,0.5c-0.9,0.6-1.5,1.5-2.3,2.2c-0.1,0.1-0.3,0.2-0.5,0.3l0,0l0,0l0,0l0,0l0,0l0,0l0,0h0h0h0h0h0h0h0l0,0l0,0
                    l0,0l0,0l0,0l0,0l0,0l0,0l0,0l0,0c-0.2-0.1-0.4-0.3-0.5-0.5c-0.4-0.7-0.5-1.6-0.7-2.4c-0.4-1.8-0.6-3.8-0.3-5.6
                    c0.1-0.4,0.1-0.7,0.2-1.1c0.2-0.9,0.4-1.8,0.6-2.7c0.3-1.9,0.5-3.9,0.3-5.8c-0.2-3.3-1-6.6-1.8-9.8c-1.5-5.5-3.5-11.2-5.5-16.6
                    c-1.7-4.5-3.7-8.9-5.9-13.2c-2.5-5.1-11.4-19.9-14.4-25.1c-2.8-4.9-6-10.4-8.4-15.6c-2.9-6.2-6.3-15.8-8.8-22.2
                    c-1.7-4.5-5.5-17.1-7-21.7c-2.4-7.3-5.1-14.7-9-21.3c-0.6-0.9-1.2-1.9-2.1-2.6c-0.6-0.4-1.2-0.7-1.9-0.8c-0.6,0-1.2,0-1.7,0.1
                    c-1.7,0.3-4.8,1.5-6.5,2.1c-1.4,0.5-2.9,1-4.2,1.7c-0.4,0.2-0.8,0.5-1.2,0.8c-0.3,0.3-0.6,0.6-0.9,0.9l-0.5,0.6"/>
            </g>
            <g id="POLYLINE_00000176013804400069284260000008567489773839591328_">
                <path class="st1" d="M307.2,46.8c0.2,0.4,0.4,0.7,0.7,1c0.3,0.3,0.6,0.5,1,0.7c0.5,0.3,1.1,0.5,1.7,0.5c0.3,0,0.6-0.1,0.8-0.3
                    c0.4-0.3,0.6-0.7,0.8-1.1c0.3-0.8,0.4-1.6,0.2-2.5c-0.1-0.6-0.5-1.2-0.8-1.7c-0.1-0.2-0.2-0.4-0.2-0.7c0-0.2-0.1-0.4-0.1-0.6
                    c0-0.6,0.1-1.2,0.1-1.7c0-0.4-0.1-0.9-0.2-1.3c-0.1-0.5-0.4-1-0.6-1.4c-0.2-0.3-0.5-0.7-0.8-1c-0.3-0.2-0.6-0.5-1-0.4
                    c-0.4,0-0.8,0.3-1.1,0.6c-0.7,0.6-1.3,1.3-2.2,1.5c-0.8,0.2-1.6,0.2-2.4-0.1c-0.6-0.2-1.2-0.5-1.5-1c-0.2-0.4-0.3-0.8-0.3-1.2
                    c-0.1-0.6,0-1.4-0.5-1.8c-0.2-0.1-0.4-0.2-0.6-0.3c-0.4-0.1-0.8-0.2-1.2-0.3c-0.8-0.2-1.8-0.2-2.6-0.5c-0.5-0.2-1.1-0.5-1.5-0.9
                    c-0.8-0.7-1.4-1.6-1.6-2.7c-0.1-0.7,0-1.3,0.1-2c0.2-1.1,0.5-2.3,0.6-3.5c0.1-1.6-0.1-3.4,0-5c0.1-0.8,0.2-1.5,0.7-2.2
                    c0.5-0.6,1.1-1,1.8-1.4c0.7-0.4,1.7-0.8,2.4-1.2c0.4-0.3,0.8-0.6,1.2-0.9c1.1-0.9,2.2-2.1,3.5-2.7c1.3-0.6,2.8-0.4,4.2-0.6
                    c1.4-0.2,2.4-1.2,3.6-1.8c0.6-0.3,1.3-0.4,2-0.4c2,0,4,0.8,6,0.4c1.4-0.2,2.8-0.9,4.2-0.9c0.6,0,1.2,0.1,1.8,0.3
                    c0.6,0.2,1.5,0.5,2.2,0.6c0.4,0.1,0.9,0.1,1.3,0.1l1.4,0c0.6,0,1.3,0.1,1.8,0.4c0.5,0.3,0.9,0.8,1.3,1.2c0.3,0.3,0.6,0.7,1,0.9
                    c0.7,0.3,1.5,0.3,2.3,0.4c0.6,0,1.2,0.1,1.7,0.4c0.6,0.3,1.2,0.7,1.6,1.2c0.7,0.8,1.2,1.7,1.6,2.6c0.2,0.6,0.6,1.5,0.8,2
                    c0.2,0.4,0.4,0.8,0.7,1.1l1,1.4c0.3,0.5,0.7,1,0.9,1.5c0.1,0.4,0.2,0.7,0.3,1.1c0.2,0.9,0.2,1.9,0.5,2.7c0.4,0.9,1.1,1.7,1.6,2.6
                    c0.2,0.3,0.3,0.6,0.4,0.9c0.2,0.5,0.2,1.1,0.2,1.6l0.1,1.8c0,1.5,0.6,3.2,0.7,4.7c0.1,0.7,0,1.4-0.4,2c-0.3,0.6-0.8,1.1-1.1,1.6
                    c-0.2,0.3-0.3,0.5-0.4,0.8c-0.1,0.4-0.1,0.8-0.1,1.2c0.1,0.5,0.2,1.1,0.1,1.6c0,0.3-0.1,0.6-0.3,0.8c-0.5,0.8-1.2,1.6-1.8,2.3
                    c-0.2,0.3-0.4,0.7-0.5,1.1c-0.2,0.7,0,1.4,0.2,2.1l0.5,1.6c0.3,0.9,0.5,1.9,0.6,2.9c0,0.5,0.1,1,0,1.4c0,0.2-0.1,0.4-0.2,0.6
                    c-0.2,0.3-0.4,0.6-0.6,0.8c-0.2,0.2-0.3,0.4-0.4,0.7c-0.1,0.3-0.2,0.7-0.2,1c-0.1,0.9-0.1,1.8-0.5,2.6c-0.2,0.4-0.6,0.8-0.9,1.1
                    L342,64c-0.3,0.3-0.6,0.5-0.8,0.9c-0.3,0.4-0.5,0.9-0.7,1.3c-0.4,0.9-0.7,2-1.4,2.7c-0.7,0.8-1.7,1.3-2.8,1.4
                    c-0.4,0-0.9,0-1.3-0.1c-0.9-0.3-1.7-0.7-2.7-0.8c-1.3-0.1-2.7,0.3-4,0.4c-0.6,0.1-1.3,0.1-1.9,0c-0.3,0-0.5-0.1-0.7-0.2
                    c-0.2-0.1-0.4-0.3-0.6-0.5c-0.5-0.5-0.8-1.2-1.2-1.8c-0.3-0.4-0.6-0.8-1-1.1c-0.6-0.4-1.2-0.5-1.9-0.7c-0.8-0.2-1.8-0.3-2.6-0.6
                    c-0.2-0.1-0.5-0.3-0.6-0.4c-0.5-0.5-0.6-1.2-0.7-1.9c-0.1-0.8-0.2-1.9-0.6-2.6c-0.2-0.4-0.5-0.8-0.8-1.2c-0.4-0.5-1-1-1.3-1.5
                    c-0.2-0.4-0.4-0.8-0.4-1.2c0-0.8,0.3-1.7,0.4-2.5c0-0.3,0.1-0.7,0-1c-0.2-0.6-0.6-1.1-1-1.6c-0.3-0.3-0.6-0.7-0.7-1.1
                    c-0.3-0.6-0.4-1.2-0.4-1.9"/>
            </g>
            <g id="POLYLINE_00000130604416584938524530000011253470156443525537_">
                <path class="st1" d="M378.7,241c-1.7-0.2-3.4-0.3-5.1,0c-1.1,0.2-2.3,0.5-3.3,1.1c-1.3,0.8-2.3,2.3-3.2,3.5
                    c-0.6,0.8-1.3,1.6-2.2,2.1c-0.7,0.4-1.5,0.6-2.3,0.8c-1.6,0.3-3.5,0.3-5.1,0.8c-0.5,0.1-0.9,0.3-1.3,0.7c-0.4,0.3-0.6,0.8-0.6,1.3
                    c-0.1,1.1,0.5,2.1,1.2,2.8c0.7,0.8,1.5,1.4,2.4,2c0.9,0.6,1.9,1.1,2.9,1.4c1.8,0.6,3.8,0.5,5.7,0.2c1.5-0.2,3.1-0.5,4.5-1.1
                    c1.2-0.5,2.3-1.1,3.2-2.1c1.6-1.9,2-4.5,3-6.7c0.5-1.2,1.5-2.3,2.3-3.4c0.8-1.1,1.5-2.3,2.1-3.5c1.2-2.7,2.5-6,3.7-8.6
                    c0.7-1.6,1.8-3.3,2.7-4.8c0.4-0.7,0.8-1.4,1.1-2.1c0.2-0.5,0.4-1.1,0.4-1.6c0.1-0.8-0.1-1.6-0.3-2.3l-0.5-2
                    c-0.2-0.8-0.3-1.6-0.3-2.5c0-1.7,0.5-4.5,0.7-6.1c0.7-5.5,0.5-11.1,0.2-16.6c-0.5-7.1-1.2-14.4-2.8-21.3c-0.5-2-1.1-3.9-2-5.7
                    c-0.7-1.6-1.8-3.2-2.4-4.8c-0.5-1.1-0.8-2.3-1-3.5c-1-5.1-1.3-12.2-2.1-17.3c-0.4-2.8-1.3-7-1.3-9.8c0-1.7,0.1-4.8,0.1-6.5
                    c0-1.5-0.1-3-0.3-4.5c-0.3-2.9-0.9-5.9-1.7-8.7c-0.8-2.7-1.8-5.4-3.1-7.9c-1.8-3.4-4.3-6.4-7.2-8.7c-3.4-2.9-8.2-5.1-12-7.3
                    c-3.5-2-7-4.9-10.5-7.1c-1.7-1-3.9-2.2-5.4-3.5c-0.5-0.5-0.9-1-1.2-1.6c-0.2-0.4-0.3-0.9-0.3-1.3c-0.1-1.2,0-3.2-0.1-4.5"/>
            </g>
            <g id="POLYLINE_00000080886862295940454090000008491617802901482163_">
                <path class="st1" d="M298.3,74.1c2.3-0.7,5.3-2.1,7.5-3c0.5-0.2,1-0.5,1.5-0.9c0.3-0.2,0.7-0.5,0.9-0.9c0.2-0.3,0.3-0.7,0.4-1.1
                    c0.1-0.7,0.1-1.6,0.1-2.3c0.1-2.5,0.9-5.2,1.5-7.5"/>
            </g>
            <g id="POLYLINE_00000114782551250118815690000015731236990005386149_">
                <path class="st1" d="M308.7,66.8c-0.7,0.1-1.5,0.1-2.2-0.2c-0.7-0.3-1.2-0.9-1.4-1.6c-0.1-0.4-0.1-0.9-0.2-1.3
                    c0-1,0.1-2.2-0.1-3.3c-0.3-1.5-1.2-3-1.7-4.4c-0.2-0.5-0.4-1-0.5-1.6c-0.1-0.4-0.2-1-0.4-1.4c-0.1-0.1-0.1-0.2-0.2-0.3
                    c-0.1-0.1-0.3-0.1-0.4-0.1c-0.2,0-0.5,0-0.7-0.1l0,0l0,0l0,0c-0.1-0.1-0.2-0.2-0.2-0.4c-0.1-0.3-0.1-0.6-0.2-0.8
                    c-0.1-1.6,0.1-3.8,0.1-5.3c0-1.4,0.1-2.9-0.2-4.3c-0.1-0.3-0.2-0.7-0.3-1c-0.2-0.4-0.5-0.8-0.7-1.1c-1.2-1.8-1.7-4-1.8-6.1"/>
            </g>
            <g id="POLYLINE_00000020369942627281183140000013324868556547858348_">
                <path class="st1" d="M320.9,235.5c0.8,3.3,1.3,6.8,1.7,10.1c0.3,3.1,0.6,6.4,0.7,9.5c0.1,3.6-0.4,11.8-0.6,15.5
                    c-0.3,9.2-0.3,20.2-0.1,29.4"/>
            </g>
            <g id="POLYLINE_00000154387699945295370470000008250513641732696987_">
                <path class="st1" d="M341,351.5c2.3-5.6,4.2-11.4,5.6-17.2c1.3-5.4,2.1-11,2-16.6c-0.1-6.1-1.2-13.2-1.6-19.2
                    c-0.2-3.7-0.1-7.5,0.4-11.3c0.5-3.4,1.3-6.8,2.4-10.1l5.1-15.2c0.7-2.2,1.6-5.3,2.3-7.6"/>
            </g>
            <g id="POLYLINE_00000000218101150104602530000000145060458494119094_">
                <path class="st1" d="M360.9,427.6c0.7,0,1.5,0,2.2-0.1c0.2,0,0.5-0.1,0.7-0.2c0.2-0.1,0.4-0.2,0.5-0.3c0.1-0.1,0.2-0.3,0.2-0.5
                    c0.1-0.3,0.1-0.7,0.1-1.1c0-0.5-0.3-3.2-0.3-3.8c-0.1-0.6-0.6-7.9-0.7-8.3c-0.1-1.2-0.3-2.5-0.5-3.7c-0.1-0.6-0.2-1.2-0.4-1.7
                    c-0.2-0.5-0.5-1.1-1-1.4c-0.3-0.2-0.7-0.3-1.1-0.4c-0.9-0.2-2.7-0.4-3.7-0.5c-1.3-0.1-2.6-0.4-3.8-0.7c-1.6-0.4-3.2-0.9-4.7-1.4
                    c-1.4-0.5-3.1-1.4-4.5-2c-0.7-0.3-1.4-0.5-2.1-0.7c-0.7-0.1-1.4-0.2-2.2-0.2c-1.8,0-3.6,0.2-5.3,0.5c-1.8,0.3-4.1,0.7-5.9,0.9
                    c-1.8,0.2-4,0.4-5.9,0.6c-1.4,0.1-3.6,0.1-5,0.3c-1.4,0.1-2.8,0.4-4.2,0.8c-1.1,0.3-2.8,0.9-3.9,1.1c-1.2,0.3-2.5,0.2-3.8,0.2
                    c-3.5-0.2-9.9-0.8-13.4-0.8c-1.9,0-4.1,0.4-6,0.6c-2.4,0.3-4.9,0.3-7.3,0.4c-1.8,0-6,0-7.7,0c-0.4,0-0.9-0.1-1.2-0.3
                    c-0.3-0.2-0.6-0.4-0.8-0.7c-1-1.1-2.1-2.7-3.1-3.7c-0.7-0.7-1.4-1.4-2.3-1.8c-1-0.5-2.2-0.7-3.3-0.5"/>
            </g>
            <g id="POLYLINE_00000062887230333594881260000017132530444368422067_">
                <path class="st1" d="M230.9,408.4c-0.6,0.4-1.3,0.8-1.8,1.3c-0.2,0.1-0.3,0.3-0.4,0.5c-0.1,0.2-0.2,0.3-0.2,0.5
                    c-0.1,0.5,0,0.9,0.1,1.4c0.6,2.4,1.2,6.4,1.6,8.9c0.3,1.6,0.6,3.2,1.2,4.7c0.2,0.5,0.4,1.1,0.7,1.5c0.1,0.1,0.2,0.2,0.3,0.3
                    c0.1,0.1,0.2,0.1,0.4,0.1l128.3,0"/>
            </g>
            <g id="POLYLINE_00000083061570659210812440000017485792541400020635_">
                <path class="st1" d="M296,404.5c3.3-4.8,5.1-10.4,6.8-15.9c1.1-4.2,6.1-21.1,7-25c0.3-1.4,0.6-2.8,0.7-4.2
                    c0.1-0.9,0.1-1.9,0.1-2.9c-0.1-1.2-0.2-2.4-0.5-3.6l-0.6-3.1c-0.2-1.2-0.4-2.4-0.4-3.6c0-1.7,0.2-3.3,0.5-5c0.4-2.2,1-4.9,1.2-7.1
                    c0.2-2.3,0.1-4.7-0.3-7c-0.3-1.7-1.2-3.6-1.8-5.2c-0.3-0.9-0.6-1.8-0.6-2.7c0-1.9,0.9-3.7,1.4-5.5c0.5-1.7,0.5-3.6,0.3-5.3
                    c-0.2-1.6-0.6-3.3-1.3-4.8c-0.9-1.9-2.3-3.9-3.1-5.9c-0.5-1.1-0.8-2.3-0.4-3.5c0.3-1.4,1.4-2.4,2.5-3.3c1.4-1.1,2.9-2,4.6-2.6
                    c0.7-0.2,1.5-0.4,2.3-0.3c0.7,0.2,1.3,0.6,1.8,1.2c0.6,0.6,1.1,1.4,1.6,2.1c1.8,2.8,3.7,6.7,5.6,9.4c0.3,0.4,0.6,0.8,1,1.1
                    c0.2,0.1,0.4,0.2,0.7,0.2c0.9,0.1,2,0.1,2.9,0.1c0.8,0,3.3-0.1,4,0c0.5,0,0.9,0.1,1.3,0.4c0.2,0.2,0.4,0.4,0.5,0.7
                    c0.2,0.4,0.2,0.9,0.3,1.3c0.2,1.6,0.9,5.6,1.2,7.2c0.1,0.5,0.2,1.1,0.2,1.7c0,0.2,0,0.3,0,0.5c0,0.2-0.1,0.3-0.1,0.5
                    c-0.1,0.2-0.2,0.3-0.3,0.5c-0.8,1.1-2.4,2.9-3.1,4c-0.5,0.7-1,1.5-1.3,2.4c-0.3,0.9-0.3,1.9-0.1,2.8c0.3,1.4,0.9,2.8,1.6,4
                    c0.9,1.7,2.2,3.6,2.8,5.4c0.6,1.7,0.9,3.4,0.9,5.2c0,1.4-0.3,2.8-0.4,4.1c-0.1,0.8,0,1.5,0.2,2.3c0,0.2,0.3,1.9,0.4,2l0.2,1.4
                    c0.1,0.8,0.3,1.8,1.1,2.3c0.4,0.3,1,0.4,1.5,0.5c1.3,0.1,2.6,0,3.9-0.2c0.6-0.1,2.7-0.4,3.2-0.5c0.8-0.1,1.6-0.1,2.4,0.2
                    c1,0.4,1.8,1.3,2.4,2.2c1.2,1.6,2.2,3.5,3,5.4c0.6,1.4,1.2,2.9,1.5,4.4c0.1,0.5,0.1,1-0.1,1.5c-0.1,0.4-0.4,0.7-0.7,1
                    c-0.4,0.4-1,0.8-1.4,1.3c-0.8,0.7-1.5,1.5-2.1,2.3c-0.8,1.1-1.6,2.3-2.1,3.5c-0.4,1-0.7,2.1-0.9,3.2c-0.2,1.8-0.2,3.6,0.1,5.3
                    c0.3,2.3,0.8,4.7,1.5,7c1.1,3.7,2.5,7.4,4.3,10.8c1.3,2.5,3,4.8,4.8,6.9"/>
            </g>
            <g id="POLYLINE_00000131343572867995719440000010875873728714759862_">
                <path class="st2" d="M360.9,427.6c0.9,0,1.9,0.1,2.7-0.2c0.3-0.1,0.6-0.3,0.8-0.6c0.1-0.2,0.2-0.5,0.2-0.7c0.1-1-0.2-3.5-0.3-4.5
                    c-0.3-3.5-0.6-9.4-1.3-12.9c-0.1-0.5-0.3-1.1-0.6-1.5c-0.1-0.2-0.3-0.4-0.5-0.6c-0.2-0.2-0.5-0.3-0.8-0.4
                    c-0.9-0.3-1.9-0.4-2.8-0.5c-1.8-2.1-3.5-4.5-4.8-6.9c-1.8-3.3-3.1-6.8-4.2-10.3c-0.7-2.3-1.2-4.7-1.6-7c-0.3-1.9-0.4-3.8-0.1-5.6
                    c0.1-1.1,0.4-2.1,0.8-3.1c0.5-1.1,1.1-2.2,1.8-3.2c0.7-1,1.5-1.9,2.4-2.8c0.5-0.5,1-0.9,1.5-1.3c0.3-0.3,0.6-0.6,0.7-1
                    c0.2-0.5,0.2-1,0.1-1.4c-0.1-0.7-0.3-1.3-0.5-1.9c-0.3-1.1-0.8-2.1-1.3-3.1c-0.9-1.9-1.9-3.9-3.3-5.5c-0.6-0.7-1.3-1.3-2.2-1.6
                    c-0.4-0.1-0.9-0.2-1.3-0.2c-0.3,0-0.6,0-0.9,0.1c-1.3,0.2-3.2,0.5-4.5,0.6c2.3-5.6,4.2-11.4,5.6-17.2c1.3-5.4,2.1-11,2-16.6
                    c-0.1-6.1-1.2-13.2-1.6-19.2c-0.2-3.7-0.1-7.5,0.4-11.3c0.5-3.4,1.3-6.8,2.4-10.1l5.1-15.2c0.7-2.2,1.6-5.3,2.3-7.6
                    c0.7,0.8,1.6,1.4,2.5,2c1,0.6,2.1,1.1,3.2,1.3c2.2,0.5,4.5,0.2,6.6-0.3c2-0.4,4.2-1.1,5.7-2.6c0.8-0.7,1.3-1.7,1.7-2.6
                    c0.7-1.5,1.1-3.3,1.8-4.8c0.5-1.1,1.4-2.1,2.1-3c0.8-1.1,1.5-2.3,2.1-3.5c1.2-2.7,2.5-6,3.7-8.6c0.7-1.6,1.8-3.3,2.7-4.8
                    c0.4-0.7,0.8-1.4,1.1-2.1c0.2-0.5,0.4-1.1,0.4-1.6c0.1-0.8-0.1-1.6-0.3-2.3l-0.5-2c-0.2-0.8-0.3-1.6-0.3-2.5
                    c0-1.7,0.5-4.5,0.7-6.1c0.7-5.5,0.5-11.1,0.2-16.6c-0.5-7.1-1.2-14.4-2.8-21.3c-0.5-2-1.1-3.9-2-5.7c-0.7-1.6-1.8-3.2-2.4-4.8
                    c-0.5-1.1-0.8-2.3-1-3.5c-1-5.1-1.3-12.2-2.1-17.3c-0.4-2.8-1.3-7-1.3-9.8c0-1.7,0.1-4.8,0.1-6.5c0-1.5-0.1-3-0.3-4.5
                    c-0.3-2.9-0.9-5.9-1.7-8.7c-0.8-2.7-1.8-5.4-3.1-7.9c-1.8-3.4-4.3-6.4-7.2-8.7c-3.4-2.9-8.2-5.1-12-7.3c-3.5-2-7-4.9-10.5-7.1
                    c-1.7-1-3.9-2.2-5.4-3.5c-0.5-0.5-0.9-1-1.2-1.6c-0.2-0.4-0.3-0.9-0.3-1.3c-0.1-1.2,0-3.2-0.1-4.5c0.7-0.3,1.3-0.7,1.8-1.3
                    c0.6-0.7,0.9-1.8,1.3-2.6c0.2-0.5,0.4-0.9,0.7-1.3c0.2-0.3,0.5-0.6,0.8-0.9l0.7-0.6c0.4-0.3,0.7-0.7,0.9-1.1
                    c0.4-0.8,0.4-1.7,0.5-2.6c0-0.4,0.1-0.7,0.2-1c0.1-0.3,0.3-0.5,0.4-0.7c0.2-0.2,0.5-0.5,0.6-0.8c0.1-0.2,0.2-0.4,0.2-0.6
                    c0.1-0.5,0.1-1,0-1.5c-0.1-1-0.4-1.9-0.6-2.8l-0.5-1.6c-0.2-0.7-0.4-1.4-0.2-2.1c0.1-0.4,0.3-0.7,0.5-1.1c0.5-0.8,1.3-1.5,1.8-2.3
                    c0.1-0.3,0.2-0.5,0.3-0.8c0.1-0.5,0-1.1-0.1-1.6c0-0.4-0.1-0.8,0.1-1.2c0.1-0.3,0.3-0.6,0.4-0.8c0.4-0.6,0.9-1.1,1.2-1.7
                    c0.3-0.6,0.4-1.2,0.3-1.8c-0.1-1.6-0.7-3.2-0.7-4.8l-0.1-1.8c0-0.5-0.1-1.1-0.2-1.6c-0.1-0.4-0.3-0.7-0.4-1
                    c-0.5-0.8-1.2-1.6-1.5-2.5c-0.3-0.9-0.3-1.9-0.5-2.8c-0.2-0.9-0.6-1.7-1.2-2.5l-1-1.4c-0.3-0.4-0.5-0.7-0.7-1.1
                    c-0.3-0.5-0.6-1.4-0.8-2c-0.4-1-0.9-1.9-1.6-2.6c-0.5-0.5-1-0.9-1.6-1.2c-0.5-0.2-1.1-0.3-1.7-0.4c-0.7-0.1-1.6,0-2.3-0.4
                    c-0.4-0.2-0.7-0.5-1-0.9c-0.4-0.4-0.8-0.9-1.3-1.2c-0.6-0.3-1.2-0.3-1.8-0.4l-1.4,0c-0.5,0-1-0.1-1.5-0.2
                    c-0.9-0.2-1.9-0.6-2.8-0.8c-0.7-0.2-1.5-0.1-2.2,0.1c-0.8,0.2-1.9,0.6-2.7,0.7c-0.5,0.1-1.1,0.2-1.6,0.1c-1.2,0-2.7-0.4-3.8-0.5
                    c-0.5-0.1-1.1-0.1-1.6,0c-1.3,0.2-2.3,1.2-3.4,1.8c-0.4,0.2-0.9,0.3-1.3,0.4c-1.1,0.1-2.2,0-3.3,0.3c-0.7,0.2-1.2,0.5-1.8,0.9
                    c-0.9,0.7-1.8,1.6-2.8,2.3c-0.5,0.4-1.1,0.7-1.6,1c-0.8,0.4-1.8,0.8-2.6,1.4c-0.4,0.3-0.8,0.7-1,1.1c-0.5,0.9-0.5,2-0.5,3.1
                    c0,1.5,0.2,3.2,0,4.7c-0.1,0.9-0.4,2-0.5,2.9c-0.1,0.6-0.1,1.2,0,1.8c0.2,1.2,1,2.3,2.1,2.9c0.6,0.4,1.4,0.6,2.1,0.8
                    c0.1,2.1,0.7,4.3,1.8,6.1c0.2,0.4,0.5,0.7,0.7,1.1c0.1,0.3,0.2,0.7,0.3,1c0.3,1.4,0.2,2.9,0.2,4.3c0,1.6-0.2,3.8-0.1,5.3
                    c0,0.3,0.1,0.6,0.2,0.8c0.1,0.1,0.1,0.3,0.2,0.4l0,0l0,0l0,0c0.2,0.1,0.5,0.1,0.7,0.1c0.1,0,0.3,0,0.4,0.1
                    c0.1,0.1,0.2,0.2,0.2,0.3c0.2,0.4,0.3,0.9,0.4,1.4c0.1,0.5,0.3,1.1,0.5,1.6c0.6,1.4,1.5,2.9,1.7,4.4c0.2,1,0.1,2.2,0.1,3.3
                    c0,0.4,0,0.9,0.2,1.3c0.1,0.3,0.3,0.7,0.5,0.9c0.2,0.3,0.6,0.5,0.9,0.6c0.7,0.3,1.4,0.4,2.2,0.2c0,0.9-0.1,1.9-0.6,2.7
                    c-0.3,0.4-0.8,0.7-1.2,1c-0.5,0.3-1,0.5-1.5,0.7c-2.1,0.9-4.9,2.2-7.1,2.8c-0.6-0.1-1.2-0.1-1.8,0c-1.9,0.3-4.9,1.5-6.8,2.1
                    c-1.4,0.5-2.9,1-4.2,1.7c-0.4,0.2-0.8,0.5-1.2,0.8c-0.3,0.3-0.6,0.6-0.9,0.9l-0.5,0.6c-2.2,0.9-4.2,2.1-6,3.6
                    c-2.2,1.8-4,3.9-5.8,6c-2.6,3.4-5,7-6.6,10.9c-0.7,1.7-1.8,4.4-2.7,6c-0.7,1.3-1.6,2.5-2.5,3.7c-1.1,1.4-3.4,4-4.3,5.4
                    c-1.3,1.9-3.2,5.1-4.5,6.9c-1.4,2.1-3.4,4.1-4.9,6.2c-0.9,1.3-1.7,2.7-2.1,4.2c-0.5,1.6-0.7,3.2-0.8,4.9c-0.1,2.2,0.1,4.4,0.5,6.5
                    c0.3,1.5,0.8,3.1,1.5,4.4c0.5,1,1.3,1.9,2.3,2.5c0.9,0.5,2,0.7,3.1,0.7c1.6,0,3.3-0.4,4.9-0.8c1.5-0.4,3.1-0.9,4.5-1.5
                    c1.3-0.5,2.6-1.1,3.8-1.8c1.4-0.9,2.7-2.1,3.5-3.5c0.9-1.4,1.4-3.1,1.9-4.7l0.2-0.6l1.6-6.1c3-3,6.7-5.7,9.8-8.6
                    c1.3,3.5,3.1,7.3,3.3,11c0.1,2.1-0.2,4.8-0.3,6.9c-0.1,1.5-0.1,3,0.1,4.5c0.6,5.5,2.8,11.4,3.9,16.9c0.4,1.8,0.7,3.8,0.7,5.6
                    c0.1,2-0.2,4.1-0.5,6.1c-0.4,2.5-1.1,6.1-1.4,8.7c-0.6,6.2-0.6,12.7-0.4,18.9c0.2,4.8,0.7,12.6,0.5,17.2c-0.1,2.7-0.4,5.5-1,8.1
                    c-0.7,3.4-2.8,8.6-4,11.9c-1.2,3.3-2.3,6.7-3.1,10.1c-1,4.5-1.7,9.3-2.1,13.9c-0.4,3.9-0.7,9.2-1.2,13.1c-0.3,2-0.6,4-1.1,5.9
                    c-0.7,2.5-1.6,5-2.6,7.4c-2.3,5.4-4.8,11.3-7.6,16.5c-1.8,3.3-4,6.8-5.4,10.4c-0.9,2.5-1.5,5.1-1.8,7.7
                    c-0.5,3.8-0.6,10.4-0.8,14.3c-0.2,4.6-0.6,9.6-1.2,14.2c-0.6,4.5-1.4,9.2-3.1,13.4c-0.5,1.3-1.1,2.6-1.9,3.8
                    c-0.7,1.1-1.5,2.4-1.9,3.6c-0.6,1.9-0.2,3.9-0.6,5.8c-0.2,0.8-0.5,1.5-0.8,2.1c-0.4,0.7-0.9,1.4-1.4,2.1c-1.1,1.4-2.7,3.6-3.7,5.1
                    c-0.8,1.1-1.7,2.3-2.6,3.3c-1.3,1.5-3.8,4.1-5.1,5.5c-0.9,1-1.9,2.1-2.7,3.2c-0.4,0.6-0.8,1.2-1.1,1.9c-0.2,0.5-0.3,1.1-0.4,1.6
                    c-0.1,0.7,0,1.4,0.1,2c0,0.3,0.1,0.5,0.3,0.7c0.1,0.1,0.3,0.2,0.5,0.2c0.3,0,0.7,0,1,0c-0.6,0.4-1.3,0.8-1.8,1.3
                    c-0.2,0.1-0.3,0.3-0.4,0.5c-0.1,0.2-0.2,0.3-0.2,0.5c-0.1,0.5,0,0.9,0.1,1.4c0.6,2.4,1.2,6.4,1.6,8.9c0.3,1.6,0.6,3.2,1.2,4.7
                    c0.2,0.5,0.4,1.1,0.7,1.5c0.1,0.1,0.2,0.2,0.3,0.3c0.1,0.1,0.2,0.1,0.4,0.1L360.9,427.6z"/>
            </g>
            <g id="POLYLINE_00000055706370881309647290000000619526267575692475_">
                <path class="st2" d="M362.6,220.9c0.2-2.4,0.2-4.9,0-7.4c-0.8-7.3-3.4-15.4-5.5-22.4c-0.5-1.7-0.9-3.5-1.2-5.3
                    c-0.3-1.9-0.3-4-0.7-5.9c-0.6-3.4-1.9-6.7-3.2-9.9c-0.7-1.7-2-4.6-2.6-6.4c-0.3-0.9-0.5-1.9-0.5-2.9c0-1.5,0.5-3,1.1-4.4
                    c0.7-1.6,1.7-3.7,2.2-5.3c0.5-1.3,0.8-2.8,1.1-4.1c0.5-2.4,1-5.6,1.9-7.9c0.6-1.7,1.6-3.5,2.5-5.1c0.5,5.3,1.7,10.5,3.1,15.6
                    c1.3,4.4,3,10.9,4.4,15.2c0.9,2.8,2.5,5.7,3.5,8.4c0.4,1.2,0.6,2.4,0.7,3.6c0.1,2.7-0.1,6,0.1,8.7c0.1,3.1,0.5,6.2,1.2,9.2
                    c1,4.6,2.8,9.4,4.6,13.9c0.8,2.1,1.4,4.2,1.7,6.4c0.2,1.5,0.2,3-0.1,4.5c-0.2,1-0.5,1.9-1,2.7c-0.9,1.4-2.7,2.2-4.1,3.1
                    c-1.8,1.1-3.5,2.3-5,3.7c-1,0.9-1.9,1.9-2.6,3.1c-1.1,1.8-1.6,3.9-1.9,6c-0.3-1.6-0.5-3.3-0.4-4.9c0.1-1.2,0.5-2.3,0.7-3.5
                    c0.3-1.5,0.5-3,0.6-4.5C362.9,223.7,362.8,222.3,362.6,220.9z"/>
            </g>
            <g id="POLYLINE_00000092450458209044805690000012601559142173199006_">
                <path class="st2" d="M322.5,300.1c-2-3.1-3.9-7.3-6.2-10.1c-0.4-0.5-0.9-1-1.4-1.4c-0.4-0.2-0.8-0.4-1.2-0.4
                    c-0.9-0.1-1.7,0.2-2.5,0.5c-1.8,0.8-3.5,1.8-4.9,3.2c-0.6,0.6-1.2,1.3-1.5,2.2c-0.3,0.7-0.3,1.5-0.1,2.3c0.1,0.7,0.4,1.3,0.7,2
                    c0.7,1.6,1.9,3.5,2.7,5c0.6,1.1,1,2.4,1.2,3.6c0.2,1.1,0.4,2.3,0.4,3.4c0,1,0,2-0.3,2.9c-0.3,1.4-1,2.9-1.3,4.3
                    c-0.2,1-0.3,1.9-0.1,2.9c0.4,2,1.5,4,2.1,6c0.7,2.6,0.8,5.3,0.5,7.9c-0.2,2.2-0.8,4.9-1.2,7.1c-0.3,1.6-0.5,3.3-0.5,5
                    c0,1.2,0.2,2.4,0.4,3.6l0.6,3.1c0.2,1.2,0.4,2.5,0.5,3.7c0,1.1,0,2.3-0.2,3.4c-0.2,1.9-0.7,3.8-1.2,5.6
                    c-1.6,5.5-6.1,22.4-7.9,27.6c-1.3,3.9-3,7.8-5.3,11.2c-1.6-0.1-3.3-0.2-4.9-0.1c-1.4,0-3.7,0.4-5.1,0.6c-2.4,0.3-4.9,0.3-7.3,0.4
                    c-1.8,0-6,0-7.7,0c-0.4,0-0.9-0.1-1.2-0.3c-0.3-0.2-0.6-0.4-0.8-0.7c-1-1.1-2.1-2.7-3.1-3.7c-0.7-0.7-1.4-1.4-2.3-1.8
                    c-1-0.5-2.2-0.7-3.3-0.5c4.1-1.8,4.7-4.1,4.6-8.3c-0.1-2.2-0.3-5,0-7.1c0.2-0.9,0.5-1.9,0.8-2.7c0.6-1.5,1.4-2.9,1.6-4.5
                    c0.3-2.4-0.1-5.2,0.1-7.6c0.1-2.3,0.6-4.5,1.2-6.7c0.9-2.9,2.1-5.9,3.3-8.8c1.3-3.2,2.9-6.4,4.6-9.3c2-3.3,4.4-6.9,5.7-10.4
                    c1-2.7,1.6-5.6,2-8.4l0.9-6.6c0.2-1.5,0.5-3,0.9-4.5c0.4-1.2,0.9-2.4,1.5-3.5c2.8-4.8,5.1-10.2,7.2-15.3c1.3-3.1,2.6-6.4,3.5-9.6
                    c0.4-1.4,0.9-3.8,1.3-5.3c0.3-1.2,0.7-2.3,1.3-3.4c0.5-0.9,1.1-1.7,1.7-2.5c1.4-1.7,3.8-4.5,5.1-6.3c3.8-5,7-10.6,9.3-16.5
                    c1.1-2.7,2-5.5,2.6-8.3c0.5-2.3,0.9-4.7,1.1-7c0.8,3.3,1.3,6.8,1.7,10.1c0.3,3.1,0.6,6.4,0.7,9.5c0.1,3.6-0.4,11.8-0.6,15.5
                    C322.4,279.9,322.4,290.8,322.5,300.1z"/>
            </g>
            <g id="POLYLINE_00000043414863398903395080000008270074675382577809_">
                <path class="st2" d="M120.4,116.5l1,1.9c0.5,1,1.1,1.9,1.8,2.8c1.1,1.4,3.5,3.7,4.8,5c0.9,1,1.9,2,2.6,3.2
                    c0.7,1.1,1.3,2.6,1.8,3.8c0.6,1.4,1.4,2.7,2.3,3.9c1.1,1.4,2.3,2.7,3.5,4c1.5,1.4,3,2.8,4.8,3.9c1.3,0.8,2.8,1.5,4.3,2
                    c1.8,0.6,3.6,1.2,5.5,1.4c0.9,0.1,1.8,0.1,2.6-0.1c1.8-0.5,2.5-2.4,3-4c0.2-0.7,0.4-1.5,0.8-2.2c0.6-1.1,1.4-2.1,1.6-3.4
                    c0.2-1.1-0.1-2.2-0.5-3.3c-0.3-0.9-0.8-2.3-1-3.2c-0.2-0.9-0.3-2.3-0.4-3.2c-0.1-0.9-0.3-1.7-0.6-2.5c-0.5-1.3-1.4-2.5-2.3-3.7
                    c-1-1.2-2.2-2.4-3.4-3.4c-1-0.8-2.4-1.7-3.5-2.5c-0.7-0.5-1.4-1-2.1-1.6c-1.7-1.6-3.5-4.1-5-6c-0.9-1.1-2.1-2.4-3-3.5
                    c-0.3-0.3-0.5-0.7-0.7-1.1c-0.4-0.6-0.6-1.3-0.7-2c-0.2-1-0.5-2.1-0.9-3.1c-0.5-1.4-1.2-2.8-1.9-4.1c-1.1-2-2.3-4-3.6-5.8
                    c-1.1-1.6-2.4-3.1-3.8-4.5c-1.5-1.5-3.1-2.9-4.8-4.1c0.4-1.1,0.1-2.3-0.4-3.3c-1-2-2.8-3.6-4.8-4.6c-1.7-0.9-3.5-1.5-5.3-1.9
                    c-1.4-0.3-2.9-0.6-4.4-0.5c-0.5,0-1.1,0.1-1.6,0.3c-0.7,0.3-1.2,0.8-1.8,1.3c-0.8,0.7-1.8,1.8-2.7,2.4c-0.2,0.1-0.4,0.2-0.6,0.2
                    c-0.2,0-0.5,0-0.7-0.1c-0.3-0.1-0.8-0.3-1.1-0.5c-1.2-0.6-2.5-0.9-3.8-1.1c-0.6-0.1-1.3-0.1-1.9,0.2c-0.2,0.1-0.4,0.3-0.5,0.5
                    c-0.2,0.3-0.2,0.6-0.2,0.9c-0.9-1.5-1.5-3.1-2-4.8c-0.4-1.5-0.8-3-0.9-4.5c0.8-0.1,1.5-0.2,2.2-0.5c0.9-0.4,1.7-1.1,2.2-2
                    c0.4-0.8,0.6-1.7,0.6-2.5c0.1-0.6,0.1-1.4,0.3-2c0.1-0.5,0.4-1,0.6-1.5c0.1-0.2,0.1-0.3,0.1-0.5c0-0.3,0-0.6-0.1-0.8
                    c0-0.1,0-0.3,0-0.4c0-0.1,0.1-0.2,0.1-0.3c0.1-0.2,0.2-0.4,0.3-0.6c0.1-0.3,0-0.6,0-0.9c-0.1-0.7-0.3-1.6-0.3-2.3
                    c0-0.1,0-0.2,0-0.3c0,0,0.1-0.1,0.1-0.1c0,0,0.1,0,0.1,0c0.1,0,0.4,0,0.5,0c0.5,0,1.1-0.1,1.6-0.2c0.3-0.1,0.5-0.1,0.8-0.3
                    c0.2-0.1,0.3-0.2,0.4-0.4c0.1-0.2,0.2-0.4,0.2-0.5c0.1-0.5,0-1-0.1-1.5c-0.5-2.3-1.3-4.8-1.6-7.2c-0.1-0.5-0.1-1.1-0.1-1.6
                    c0-0.4,0.1-0.8,0.3-1.2c0.2-0.4,0.5-0.7,0.7-0.9l0.8-0.7c0.4-0.4,0.7-0.7,1-1.2c0.2-0.5,0.3-1,0.4-1.5c0.4,0,0.8,0,1.2-0.1
                    c0.2-0.1,0.4-0.2,0.6-0.3c0.2-0.2,0.3-0.4,0.3-0.6c0.2-0.6,0.2-1.2,0.5-1.7c0.4-0.5,1-0.8,1.6-1.2c0.4-0.3,0.9-0.6,1.1-1.1
                    c0.2-0.3,0.2-0.7,0.2-1c0-0.5-0.1-1.1-0.3-1.6c-0.1-0.2-0.2-0.5-0.3-0.7c-0.1-0.2-0.3-0.3-0.4-0.5c-0.1-0.1-0.1-0.2-0.1-0.3
                    c0-0.1,0-0.3,0.1-0.4c0.2-0.6,0.6-1.3,0.7-2c0.1-0.7,0-1.4-0.3-2.1c-0.3-0.6-0.7-1.2-1.3-1.6c-0.6-0.5-1.1-0.9-1.4-1.6
                    c-0.5-1-0.8-2.3-1.5-3.1c-0.8-0.8-2-0.9-3-0.9c-1.3,0-2.7,0.1-3.9-0.3c-1.2-0.4-2.4-1.2-3.6-1.8c-0.8-0.4-1.6-0.7-2.5-0.9
                    c-1.7-0.3-3.4-0.3-5.1,0c-0.9,0.1-2,0.4-2.9,0.4c-0.2,0-0.5,0-0.7,0c-0.2,0-0.5-0.1-0.7-0.2c-0.2-0.1-0.4-0.3-0.6-0.4
                    c-0.6-0.5-1.3-1.2-2.2-1.3c-0.8-0.2-1.5,0-2.3,0.2c-0.6,0.2-1.2,0.4-1.7,0.8c-0.2,0.1-0.3,0.2-0.5,0.4c-0.1,0.1-0.2,0.3-0.3,0.5
                    c-0.1,0.1-0.2,0.2-0.3,0.3c-0.3,0.1-0.6,0.1-0.9,0.1c-1.6-0.1-3.3-0.4-4.8-0.4c-0.4,0-0.8,0.1-1.2,0.2c-0.3,0.1-0.5,0.3-0.7,0.5
                    c-0.3,0.3-0.5,0.7-0.7,1.1c-0.2,0.3-0.3,0.5-0.6,0.7c-0.4,0.3-1,0.4-1.6,0.5c-0.4,0.1-0.8,0.2-1.2,0.4c-0.3,0.2-0.5,0.5-0.7,0.7
                    c-0.4,0.6-0.9,1.3-1.3,1.9c-0.3,0.4-0.6,0.8-0.9,1.1c-0.4,0.4-0.9,0.8-1.2,1.2c-0.2,0.2-0.3,0.4-0.4,0.7c-0.2,0.5-0.1,1.1-0.2,1.6
                    c0,0.4-0.1,0.8-0.2,1.2c-0.2,0.4-0.4,0.8-0.7,1.1c-0.5,0.6-1.1,1.3-1.4,2c-0.2,0.9,0.1,1.9,0,2.8c0,0.3-0.1,0.5-0.2,0.8
                    c-0.2,0.4-0.5,0.7-0.8,1.1c-0.3,0.4-0.8,0.8-1.1,1.2c-0.2,0.2-0.3,0.5-0.4,0.7c-0.1,0.5,0,1.1,0.1,1.6c0.2,0.7,0.4,1.5,0.4,2.2
                    c0,0.5-0.2,1-0.3,1.5c-0.2,0.7-0.6,1.5-0.6,2.1c0,0.3,0,0.6,0.2,0.9c0.3,0.6,1,1.1,1.5,1.6c0.3,0.3,0.6,0.6,0.8,1
                    c0.2,0.6,0.1,1.2,0,1.8c0,0.3-0.1,0.7,0,1c0.1,0.4,0.2,0.8,0.4,1.2l0.5,1c0.2,0.5,0.4,0.9,0.5,1.4c0,0.3,0,0.6,0,0.9
                    c-0.2,1-0.8,2.1-1,3.1c-0.1,0.3-0.1,0.7-0.1,1c0,0.3,0.1,0.5,0.2,0.8c0.4,1.1,1.3,2.1,1.7,3.2c0.2,0.7,0.2,1.4,0.2,2.1
                    c0,0.7-0.2,1.6-0.1,2.3c0,0.4,0.1,0.7,0.3,1c0.2,0.3,0.4,0.5,0.6,0.7c0.5,0.4,1.3,0.8,1.9,1.1c0.3,0.2,0.7,0.4,0.9,0.6
                    c0.2,0.2,0.2,0.5,0.3,0.7c0.1,0.4,0.3,0.7,0.6,1c0.4,0.4,0.8,0.7,1.3,1c-0.2,4.3-1.2,8.8-4.3,11.9c-1.3,1.3-3.1,2.2-4.8,3L48.1,85
                    C47,85.5,46,86,45,86.6c-1.4,0.9-3.1,2.3-4.5,3.2c-1.1,0.7-2.3,1.3-3.5,1.8c-1.7,0.7-4,1.5-5.5,2.5c-1.4,0.8-2.7,1.9-3.7,3.1
                    c-2.2,2.4-3.8,5.4-5.1,8.4c-1.4,3.4-2.2,7.1-2.6,10.8c-0.2,2.6-0.3,5.3,0,7.9c0.1,0.9,0.2,1.9,0.4,2.8c0.1,0.7,0.5,2.2,0.6,2.9
                    c0.1,0.8,0.2,1.5,0,2.3c-0.2,1.6-1,3.6-1.4,5.1c-0.7,2.3-1.1,4.7-1.4,7c-0.7,5-0.4,10.9-0.6,15.9c-0.1,2.5-0.3,5-1.1,7.4
                    c-0.5,1.5-1.2,3.2-1.2,4.8c0,1.6,0.4,3.2,0.4,4.8c0,0.8-0.1,1.6-0.2,2.3c-0.3,1.3-0.6,2.8-0.7,4.1c-0.3,3.1-0.3,6.4-0.2,9.6
                    c0.1,4,0.4,8.1,1,12c0.4,3.1,1.4,8.1,1.7,11.2c0.1,1.1,0.2,2.2,0.1,3.2l-0.1,2.4c0,0.9,0,1.8,0.2,2.7c0.3,1.4,1.1,3,1.6,4.3
                    c0.3,0.7,0.5,1.4,0.5,2.2c0.1,0.9,0,1.8,0.1,2.7c0.3,1.5,1.3,3.2,2,4.7c0.6,1.1,1,2.4,1.2,3.6c0.3,1.1,0.5,2.7,1,3.7
                    c0.3,0.6,0.8,1,1.2,1.4c1.2,1,2.7,1.9,3.9,2.8c1.1,0.9,2.2,2,3.1,3.1c0.5,0.6,1,1.3,1.5,2c0.3,0.5,0.7,1.2,1,1.7
                    c0.4,0.8,0.9,1.6,1.7,2.1c0.7,0.5,1.6,0.7,2.4,0.9c1.6,0.3,3.3,0.3,5,0.1c1.5-0.2,3.2-0.5,4.3-1.7c1,3.9,2.1,8,3.4,11.7
                    c0.7,1.8,1.4,3.6,2.4,5.3c0.6,0.9,1.3,1.9,1.5,2.9c0.1,0.4,0.1,0.7,0.1,1.1c-0.1,1.3-0.5,3.1-0.6,4.4c-0.4,2.6-0.4,5.2-0.1,7.7
                    c0.1,1.3,0.5,2.8,0.8,4c0.6,2.6,0.3,5.3-0.1,7.9c-0.5,3.1-1.2,6.7-1.4,9.8c-0.2,2.5-0.1,5.1,0.2,7.7c0.5,4.3,1.7,8.6,3,12.7
                    c2.1,6.3,4.8,12.8,7.5,18.8c-0.4,0.5-0.9,1.1-1.5,1.5c-0.4,0.2-0.8,0.4-1.2,0.3c-0.4,0-0.8-0.2-1.2-0.3c-0.7-0.3-1.3-0.7-2-1.1
                    c-0.6-0.4-1.3-0.9-1.9-1.2c-0.3-0.1-0.5-0.1-0.8,0c-0.2,0.1-0.3,0.2-0.4,0.3c-0.6,0.7-1.2,1.5-1.7,2.3c-1.4,2.1-2.8,4.2-3.9,6.5
                    c-0.2,0.4-0.4,0.9-0.4,1.4c0,0.3,0,0.6,0.1,0.9c0.1,0.3,0.3,0.5,0.5,0.7c0.7,0.7,2.2,1.7,3.1,2.3c0.7,0.5,1.4,1.1,2,1.7
                    c0.6,0.6,1.2,1.4,1.7,2.1c0.8,1.3,1.5,2.7,1.8,4.2c0.3,1.8,0.3,3.6,0.2,5.4c-0.3,4.7-1.6,9.3-3,13.7c-0.5,1.4-1,3.1-1.6,4.5
                    c-0.4,0.9-1.4,3.5-1.7,4.4c-0.1,0.5-0.3,1-0.3,1.5c0,0.4,0.1,0.8,0.2,1.1c0.2,0.4,0.5,0.8,0.8,1.1c-0.5,0.1-1,0.2-1.4,0.5
                    c-0.2,0.2-0.4,0.4-0.4,0.7c-0.1,0.3-0.1,0.6-0.2,1c-0.4,5.6-0.7,12.2-0.7,17.7c0,0.4,0,0.9,0.1,1.3c0,0.1,0,0.2,0.1,0.3
                    c0.1,0.1,0.2,0.2,0.3,0.2c0.5,0.2,1.2,0.2,1.8,0.2l114.5,0c0.3,0,0.7,0,1,0c0.5,0,1.1-0.1,1.5-0.5c0.6-0.4,0.8-1.2,1-1.8
                    c0.4-1.4,0.7-3.1,0.9-4.5c0.2-1.6,0.5-3.5,0.7-5.1c0-0.5,0.1-1.1,0.1-1.6c0-0.2,0-0.3-0.1-0.5c0-0.2-0.1-0.4-0.3-0.5
                    c-0.2-0.2-0.5-0.3-0.7-0.3c-0.3-0.1-0.6-0.1-0.9-0.1c-1.6-0.2-3.8-0.1-5.5-0.2c1.7,0,3.4-0.1,5-0.4c0.9-0.2,1.9-0.5,2.6-1.2
                    c0.4-0.3,0.6-0.7,0.8-1.2c0.2-0.4,0.2-0.9,0.2-1.3c0-1,0.1-2.1-0.1-3c-0.1-0.3-0.2-0.6-0.3-0.9c-0.3-0.4-0.8-0.7-1.1-1
                    c-0.8-0.6-1.4-1.4-2-2.2c-1.1-1.4-3.7-5.1-4.7-6.5c-1.3-1.7-5-6.3-6.3-8c-0.7-1-1.6-2-2.2-3.1c-0.1-0.3-0.2-0.5-0.3-0.8
                    c-0.1-0.5,0-1,0.1-1.5c0.2-1.1,0.4-2.5,0.3-3.6c0-0.6-0.2-1.1-0.4-1.7c-0.4-1.1-1.4-2.4-2-3.4c-0.6-1-1.1-2-1.6-3.1
                    c-0.5-1.2-0.9-2.5-1.2-3.8c-0.5-2.1-0.8-4.2-1-6.3c-0.3-2.7-0.2-8.6-0.3-11.4c-0.2-6-0.5-13.1-1.1-19.1c-0.2-2.2-0.6-4.4-1.2-6.6
                    c-1.1-4-3-7.7-5.1-11.2c-1.9-3.1-4-6.3-6.3-9.1l-1.7-2c-0.4-0.5-0.9-1.1-1.2-1.7c-0.5-1.1-0.8-2.2-1-3.4c-0.3-1.5-0.6-3.3-1-4.8
                    c-0.3-1.1-0.7-2.1-1.1-3.2l-1.5-3.2c-0.8-1.7-1.4-3.5-1.7-5.4c-0.2-1-0.3-2.2-0.4-3.2c-0.2-2.4-0.3-7.7-0.4-10.1
                    c-0.4-7.5-1.3-15.2-2.8-22.5c-0.9-4.3-1.9-8.7-3.5-12.9c-0.5-1.4-1.7-4.5-2.1-5.9c-0.3-0.9-0.4-1.8-0.5-2.8
                    c-0.3-3.4-0.2-7.2-0.1-10.5c0-2.1,0.3-7,0.1-9.1c-0.1-1.1-0.2-2.2-0.5-3.2c-0.3-1.4-0.8-3-1-4.4c-0.3-2.2,0.5-4.4,0.6-6.6
                    c0.4-6.5-2.4-13.4-3.3-19.8c-0.1-0.8-0.1-1.7-0.1-2.5c0.1-0.8,0.2-1.7,0.4-2.5c1-4.1,2.1-9.3,2.9-13.5c0.9-4.9,1.8-10.2,2.2-15.2
                    C120.3,128.5,120.2,121.7,120.4,116.5z"/>
            </g>
            <g id="POLYLINE_00000152947136390441858030000008169686648779826610_">
                <path class="st2" d="M41.2,135.8c0.5,1.2,1.1,2.7,1.8,3.8c0.8,1.4,2.7,3.9,3.7,5.2c0.8,1.1,1.7,2.4,2.1,3.7
                    c0.3,0.7,0.3,1.6,0.4,2.4c0.1,0.9,0.3,1.7,0.6,2.5c1,2.6,2.5,5.1,3.9,7.5c0.1,0.1,0.1,0.2,0.2,0.4c0,0.1,0,0.2,0,0.3
                    c-0.1,1.2-0.6,2.5-0.9,3.6c-0.7,2.1-1.5,4.3-2.6,6.2c-0.9,1.6-2.2,3.6-2.7,5.3c-0.4,1.3-0.5,2.6-0.5,3.9c-0.1,1.5-0.1,3.9-0.3,5.3
                    c-0.1,0.9-0.3,1.8-0.5,2.7c-0.7,2.6-1.9,5.3-2.2,8.1c-0.2,2.1-0.1,4.5-0.3,6.5c-0.1,1.1-0.2,2.2-0.5,3.3c-0.7,2.8-1.9,5.8-2.3,8.7
                    c-0.7,5.5,0.5,11.2,1.4,16.6l-1.3-1.2c-1.4-1.3-2.9-3.1-4.5-4.1c-0.7-0.5-1.6-0.7-2.4-1c-0.2-0.1-0.5-0.2-0.7-0.4
                    c-0.2-0.2-0.4-0.3-0.5-0.5c-0.3-0.4-0.5-0.8-0.6-1.2c-0.7-1.9-1.6-4-2-6c-0.3-1.8-0.3-3.5,0.1-5.3c0.6-2.8,2.2-6.9,3.1-9.7
                    c0.5-1.4,0.9-2.8,1.2-4.2c0.3-1.4,0.5-2.8,0.5-4.1c0.1-3.3-0.6-7.6-0.9-10.9c-0.2-1.6-0.7-5-0.9-6.6c-0.1-0.5-0.1-1.1-0.1-1.6
                    c0-0.9,0-1.8,0.2-2.7c0.3-1.4,0.8-2.8,1.4-4.1c1.4-3.2,3.2-7.1,4-10.5C40.8,150.8,40.4,142.9,41.2,135.8z"/>
            </g>
            <g id="POLYLINE_00000099627731500461090160000002283639654909597882_">
                <path class="st2" d="M82.1,238.8c0.8,4.4,2.1,8.8,4,12.9c3.6,7.6,9.6,15.4,13.9,22.6c0.9,1.6,1.8,3.3,2.5,5.1
                    c1.1,2.7,3.1,9.9,3.9,12.8c0.9,2.8,1.8,5.6,3.3,8.2c1.6,2.8,4.3,5.8,6.4,8.3c0.5,0.6,1.1,1.3,1.4,2.1c0.4,0.9,0.5,1.9,0.7,2.8
                    l1.1,7.9c1,6.3,2.7,12.6,5.8,18.2c1.8,3.3,4.6,6.6,6.5,9.9c0.7,1.3,1.3,2.6,1.9,4c1.6,4.1,4.2,11.3,5.6,15.4
                    c0.5,1.6,1.1,3.2,1.1,4.9c0,1.3-0.3,3-0.4,4.3c-0.1,0.8-0.1,1.6,0.1,2.4c0.1,0.5,0.3,1.1,0.6,1.5c0.3,0.5,0.6,1,0.9,1.4
                    c0.2,0.3,0.3,0.6,0.3,1c0.1,0.9,0,2.9,0.1,3.8c0,1.2,0.1,2.4,0.2,3.5c0.2,1.3,0.6,2.5,1.4,3.5c0.7,0.9,1.6,1.5,2.6,2.1l1.7,0.9
                    c0.8,0.4,1.5,0.9,2.1,1.5c1,1.1,1.6,2.5,2.2,3.9l1.2,3.2c0.5,1.4,1.2,2.8,2.2,3.8c0.4,0.4,0.8,0.8,1.4,1c0.6,0.3,1.3,0.3,2,0.3
                    c-4.1-0.1-27.6,0.2-31.1-0.3c-0.5-0.1-1.1-0.2-1.6-0.5c-0.3-0.2-0.4-0.4-0.6-0.7c-0.4-0.6-1.1-0.8-1.7-1c-0.7-0.2-1.4-0.3-2.1-0.3
                    c-2.7-0.3-5.9-0.3-8.6-0.3c-5.2-9.6-10.4-19.9-14.6-30c0.1-0.5,0.2-1,0.2-1.5c0-1.2-0.2-2.6-0.3-3.8c-0.2-1.4-0.3-2.8-1.1-4
                    c-0.7-1.1-2-1.6-3.2-1.7c-0.8-2.2-1.6-4.6-2.1-6.9c-0.3-1.3-0.5-2.7-0.5-4.1c0-0.8,0.1-1.6,0.4-2.4c0.3-0.9,0.7-1.7,1.2-2.5
                    c0.7-1.1,1.6-2.3,1.9-3.5c0.2-0.7,0.3-1.5,0.3-2.3c-0.1-1.4-0.5-2.7-1.1-3.9c-0.9-1.9-2.2-3.6-3-5.6c-0.8-1.7-1.1-3.6-1.3-5.5
                    c-0.1-1-0.1-2-0.1-3c0.1-3,0.5-7.5,0.5-10.6c0.1-2.8,0.1-9.3,0.4-12c0.1-0.7,0.2-1.3,0.4-2c0.4-1.5,1.7-2.7,2.6-3.8
                    c0.4-0.5,0.8-0.9,1-1.5c0.1-0.3,0.1-0.6,0-1c-0.1-0.2-0.2-0.4-0.4-0.6c-0.6-0.8-1.7-1.7-2.3-2.5c-0.3-0.3-0.5-0.6-0.7-0.9
                    c-0.1-0.2-0.2-0.5-0.3-0.8c0-0.3,0-0.6,0.1-0.9c0.1-0.5,0.2-1,0.2-1.5c0-0.4-0.1-0.8-0.3-1.2c-0.3-0.8-0.9-1.4-1.4-2.1
                    c-0.5-0.5-1-1.1-1.6-1.4c-0.4-0.3-0.9-0.5-1.5-0.5c-0.3,0-0.7,0-1,0.2c-0.5,0.2-0.9,0.6-1.3,1c-1.4,1.5-2.6,3.2-3.7,4.9
                    c-0.1-2-0.6-4.8-0.6-6.8c-0.1-1.6,0.3-4.1,0.5-5.7c0.3-2.5,0.4-5,0.1-7.5c-0.2-1.8-0.6-4.7-0.6-6.4c0-1.3,0.1-2.6,0.2-3.9
                    c0.3-2.2,0.8-5.5,1-7.7C81.7,248.8,81.9,243.5,82.1,238.8z"/>
            </g>
            <script  xmlns=""></script>
        </g>
    </svg>