<?xml version="1.0" encoding="utf-8"?>
<!-- Generator: Adobe Illustrator 28.4.1, SVG Export Plug-In . SVG Version: 6.00 Build 0)  -->
<svg version="1.1" xmlns="http://www.w3.org/2000/svg" xmlns:xlink="http://www.w3.org/1999/xlink" x="0px" y="0px"
	 viewBox="0 0 404.3 816.1" style="enable-background:new 0 0 404.3 816.1;" xml:space="preserve">
<style type="text/css">
	.st0{fill:#C346FF;}
	.st1{fill:none;stroke:#5A4813;stroke-width:3;stroke-linecap:round;stroke-linejoin:round;stroke-miterlimit:10;}
	.st2{fill:none;stroke:#5A4813;stroke-width:2.25;stroke-linecap:round;stroke-linejoin:round;stroke-miterlimit:10;}
</style>
<g id="Layer_1">
</g>
<g id="Layer_3">
	<polygon id="ear_00000140007631354666264460000000717142111641277877_" class="st0" points="164.7,585.8 159.6,566.6 147.4,561.6 
		134.7,565 128.8,582 133.2,596.3 138,604.1 148.6,608.5 159.6,611.9 164.7,605.4 	"/>
	<polygon id="beard" class="st0" points="177.8,584.6 164.7,585.8 164.7,605.4 159.6,611.9 161.2,625.7 184.2,647.7 218.4,665.9 
		245.7,668.9 263.3,660.4 268.8,633.5 266,631.4 242.3,623.5 207.7,608.5 190.7,587.5 	"/>
	<polygon id="forehead" class="st0" points="196.8,549.4 212.8,546.2 232.3,540.3 261.3,547.2 273.2,556.1 279.3,557.5 273.2,535.5 
		255.9,521.6 234.4,521.2 217.5,525.8 196.4,538.7 	"/>
	<polygon id="mouth" class="st0" points="242.3,623.5 247.8,619.1 259.6,615.3 265.1,619.4 266,631.4 	"/>
	<polyline id="eye" class="st0" points="273.7,578.4 275.1,578.5 280.2,562.3 279.3,557.5 273.2,556.1 266.7,569.3 271.9,575 	"/>
	<polygon id="eyebrow" class="st0" points="206.5,547.5 212.8,557.5 233.9,550.8 259.6,557.5 273.2,556.1 261.3,547.2 232.3,540.3 
		212.8,546.2 	"/>
	<polygon id="nose" class="st0" points="267.4,610.9 252.9,605.8 250,600.1 255.9,592.1 257.4,576.2 261.2,569.3 259.6,557.5 
		273.2,556.1 266.7,569.3 274.1,579.2 274.1,584.6 278.6,602.1 	"/>
	<polygon id="eye_00000080912204145567066000000007764396480699999908_" class="st0" points="212.8,557.5 218.4,570.2 257.4,576.2 
		261.2,569.3 259.6,557.5 233.9,550.8 	"/>
	<polygon id="cheek" class="st0" points="190.7,587.5 218.4,570.2 257.4,576.2 255.9,592.1 250,600.1 207.7,608.5 	"/>
	<polygon id="moustache" class="st0" points="268.8,633.5 267.8,624.7 265.1,619.4 259.6,615.3 227.9,616.4 223.6,609.2 
		252.9,605.8 267.4,610.9 272.7,620.9 	"/>
	<polygon id="hair" class="st0" points="140.3,698.2 139.7,673.6 145.8,661.6 142.7,652 148.2,631.4 146.2,622.1 148.6,616.1 
		148.6,608.5 138,604.1 128.8,582 134.7,565 147.4,561.6 159.6,566.6 164.7,585.8 177.8,584.6 183.3,576.2 182.5,560.2 196.8,549.4 
		196.4,538.7 217.5,525.8 234.4,521.2 255.9,521.6 273.2,535.5 279.3,557.5 275.1,578.5 280.2,574.9 286.1,559.2 293.9,550.9 
		286.5,520.5 290.8,506.1 285.9,497.1 277.9,493.2 280.2,483.4 273.1,479.5 252.9,476.4 242.3,482.1 229.8,478.4 205.1,481.3 
		197.7,485.2 182.5,482.2 155.5,489.7 144.7,493.7 141.6,500.2 116.4,521.2 109.7,537.8 107.8,549.4 100.1,566.2 98.4,576.2 
		101.3,600.1 112.8,613.3 110.3,624.7 112.1,633.4 110,644.7 112.9,661.4 118.8,668.9 125.9,683.6 131.2,695.9 	"/>
	<polygon id="neck" class="st0" points="159.6,611.9 148.6,608.5 148.6,616.1 146.2,622.1 148.2,631.4 142.7,652 145.8,661.6 
		139.7,673.6 140.3,698.2 139.7,721.7 122.2,745.2 98.4,758.8 100.5,768 134.6,778 196.5,779.6 225.9,783.2 272.7,755.5 
		293.9,727.3 274.9,711.9 255.9,711.4 242.3,671.1 245.7,668.9 218.4,665.9 184.2,647.7 161.2,625.7 	"/>
</g>
<g id="Layer_2">
	<path class="st1" d="M140.3,698.2c-0.4,5.4-0.3,11,0.2,16.5c0.4,5.8-1.5,10.5-5.1,14.9c-4.9,6.1-8.9,13.1-15.6,17.4
		c-5,3.2-10.2,6-15.5,8.8c-3.4,1.8-6.2,3.7-5.7,8.1c0.2,2.1,0.8,3.6,3,4.8c6.7,3.8,14,5.6,21.3,7.3c9.2,2,18.5,3.1,27.9,3.1
		c14.1,0.1,28.3,0.2,42.4,0.3c4.3,0.1,8.6,1.2,12.8,1.5c4.9,0.4,9.6,1.4,14.5,2.1c5.9,0.8,11.2-1.5,16.1-4.4
		c8.8-5.2,17.5-10.9,26.3-16.1c8.5-5,15.3-11.4,19.9-20.2c2.9-5.4,6.7-10.4,11.5-14.3c-1-1.5-2-2.5-3.2-3.3c-2.6-2-5.1-4-7.2-6.6
		c-5.3-6.7-12.5-7.9-20.5-6.1c-7,1.5-10.2-0.5-11-7.7c-0.7-6.5-3.4-12.4-5.4-18.5c-1-3-2.3-5.8-4-8.4c-1.7-2.6-1.1-5.1,1.3-7.1
		c3.1-2.5,6.9-3.8,10.5-5.3c6.7-2.8,9.6-7.5,9.4-14.6c-0.1-4.5,1.3-8.6,2.9-12.8c2.5-6.7,5.7-13.2,5.8-20.5c0-2.6-0.2-5.1-1.3-7.4"
		/>
	<path class="st1" d="M139.7,673.6c0.9,8.2,1.2,16.3,0.6,24.6"/>
	<path class="st2" d="M102.3,758.1c5.7,4.3,12.3,6.6,18.9,9c1.8,0.6,4,0.8,6,0.7c4.5-0.1,8.7,1.2,13.1,1.5
		c6.6,0.5,13.3,0.4,19.9,1.4c9.1,1.4,18.2,1,27.3,1.7c7,0.5,13.6,1.8,19.8,4.9c1.5,0.8,2.9,1.7,3.7,3.3"/>
	<path class="st2" d="M159.6,567c-3.9-5.1-9.3-5.7-14.8-5.2c-3.4,0.3-6.7,1.7-9.4,3.9c-4.3,3.4-4.9,8.4-6.1,13.2
		c-1.9,7.5,2.7,15.9,5.4,19.6s1.7,2.2,3.4,5"/>
	<path class="st1" d="M182.5,646.6c6,3.8,11.4,8.4,17.8,11.5c6.7,3.2,13.5,6.3,20.6,8.6c4.9,1.6,10.2,2.4,15.5,2.1"/>
	<path class="st1" d="M139.7,698.5c-16.1-2.6-12-23.1-22.5-31c-4.3-2.9-6.5-10.6-4.7-15.8c-3.3-5.6-3.4-12.4-0.3-18.2
		c1.1-6.5-5.4-3.9,0.7-14.8c3.3-6.9-4.3-9.6-8-13.6c-6.9-5.5-2.9-14.2-5.4-21.5c-3-10.4,1.5-22.2,7.3-31c4.3-9.2,1.2-21.4,8.5-29.6
		c6.8-10.7,19.3-14.7,27.3-23.6c5.9-13.9,24.2-8.2,35.3-15.1c7.8-5.8,16.2,2.7,23.9-1.4c3-2,6.3-2.3,9.8-2c8.1,1.3,16-4.2,23.9-1.9
		c5.3,1.7,10.2,1.2,15.2-0.8c8.1-5,14.7,3.1,22.6,1.4c2.2-0.7,4.6,0.2,6,2.3c3.4,3.5,0.7,7.7-1.2,11.3c1,2,3,1.9,4.7,2.4
		c10.8,2.7,10,18.7,4,24.9c0,0,4.1,7.9,4,10.2c-0.5,8.4,9.2,18.8-0.7,25.2c-9.2,4.5-4.3,19.9-14.8,22.7"/>
	<path class="st2" d="M261.3,553.2c-9.1-5.7-19-8.4-29.6-7.6c-6.7,0.5-12.9,3.4-18.9,6.6"/>
	<path class="st2" d="M192.9,716.7c-1.2,4.8,0.2,9.5,1.1,14.1c1,5.1,2.2,10.2,3.9,15.2c1.6,4.7,3.7,9.1,7.1,12.8"/>
	<path class="st2" d="M153.5,579.9c-0.5-2,0.6-3.8,0.8-5.7c0.2-3-0.7-5.3-3.2-6.7c-2.6-1.4-5.4-1.8-8.4-0.1
		c-6.3,3.5-8.3,12.7-5.4,20c3,7.4,6.3,10.3,12.8,10.4"/>
	<path class="st2" d="M145.8,581.2c-0.6,2.5-2,4.7-1.7,7.4c0.4,3.5,4.3,6,7,3.9c2.6-2,4.9-0.6,7.2-0.4c2.2,0.3,2.3-0.4,2.8-2.2
		c0.9-3.1-1.5-5.8-0.8-8.8"/>
	<path class="st2" d="M244.8,564.4c2.2-4.4,0.2-7.3-5.4-8.1c-6.7-0.9-12.6,1.5-18.5,4.1c-1.1,0.5-2.2,1.1-3.4,1.7"/>
	<path class="st2" d="M229.6,704.6c0.6,3.5-1.3,6.2-2.7,9.1c-2.7,5.7-6.1,10.9-10.1,15.8c-1.6,2-3.1,4.1-6.1,4"/>
	<path class="st2" d="M265.3,625.7c1.6-3.5,0.4-7.9-4.7-9.4c-4.3-1.2-14.9,2.6-16.8,6"/>
	<path class="st2" d="M278.5,557.6c-4.5-0.8-6.9,1.9-8.8,5.4c-2,3.6-2.8,7.2,0,10.8c1.4,1.8,1.4,4.8,4.4,5.4"/>
	<path class="st2" d="M181.5,732.5c1.3,3.7,1,7.7,1.6,11.5c0.8,5.2-1.7,9.7-4.6,13.8"/>
	<path class="st2" d="M220.2,565.4c2.9-1.4,5.1,1.2,7.7,1.4c3.6,0.3,7,2,10.5,2.9c4.5,1.2,5.9,0.1,6.1-4.7"/>
	<path class="st1" d="M158.2,611.9c0.4,8.5,2.9,15.8,11.5,19.5"/>
	<path class="st2" d="M244.1,564.4c-1.5-3.1-4.3-2.6-7.1-2.7c-4.9-0.2-9.5,0.3-13.5,3.4"/>
	<path class="st2" d="M255.9,593c-4,0.7-5.6,3.6-6,7.1c-0.3,3.6,2.3,5.6,5.3,7.1"/>
	<path class="st2" d="M248.8,624.7c5.3,2.4,11,3.9,16.5,5.7c0.4,0.1,0.7,0.2,0.7,0.7"/>
	<path class="st2" d="M266,630.4c0.3-3.8-0.3-4.7-3.7-5.4c-1.5-0.3-2.8-1.3-4.1-1.8c-2.9-1.2-6.1-1.8-9,0.2"/>
	<path class="st1" d="M139.7,673.6c6-4.8,8.4-13.9,3.4-20.3c-1.4-2.7,1.4-5,2-7.5c0.8-2.4,0.7-5,1.3-7.4c0.6-2.5,2-5,1.7-7.3
		c0-2.6-2.5-4.5-2.9-6.9c0-1,0.7-1.8,1.3-2.6c3.6-3.8,3.3-8.2,2.9-13"/>
	<path class="st2" d="M259.6,562.3c0.4,3.5,2.7,6.7,1,10.5c-0.6,1.4-0.8,3-2.7,3.4"/>
	<path class="st2" d="M163.6,599.4c1.6,3.2,1.2,6.4-0.4,9.4c-1.1,2.1-3.9,3.2-6.7,2c-5.5-2.3-13.1-4.9-18.5-7.4"/>
	<path class="st2" d="M263.3,639.5c-2.8-4.2-6.8-5.2-11.5-4.4"/>
	<path class="st2" d="M266.7,604.1c-3.6-1.4-7.2-3.7-10.8,0"/>
	<path class="st2" d="M271.2,608.9c-1.2,0.7-2.5,1.4-3.8,2"/>
	<path class="st1" d="M274.2,579.5c-0.2,0.5-0.4,1-0.6,1.5c-0.8,1.6,0.5,3.8,1.1,5.7c1.3,4.1,3.4,8,3.8,12.4c0.4,3.5-0.1,5-3.1,7.1
		c-1.4,1-2.8,1.9-4.3,2.7"/>
	<path class="st1" d="M257.9,522.3c5.2,3.9,14.1,10.7,15.9,14.1c2.1,4.1,1.8,10.9,4.1,16.3c3.1,7.1,1.6,14.6-1.8,21.5
		c-0.8,1.7-1.2,3.5-1.9,5.3"/>
	<path class="st1" d="M178.8,584.6c10.9-10.8-2-20.1,7.4-27.3c2.8-2.4,7.2-2.2,9.5-5.2c1.1-1.6,1.4-3.7,1.3-5.6
		c-0.1-2.5-1.1-5-0.9-6.8c0.3-2.3,2.7-3.3,4.6-4.1c2.9-1.2,5.2-2.3,8-4c2.7-1.7,4.9-4.3,7.9-5.5c3.5-1.2,7.8-0.6,11.6-1.9
		c3.2-0.8,6-3.1,9.2-3c2.6,0.2,5.4,1,8.1,0.8c4.5-0.3,8.4-1.6,12.4,0.4"/>
</g>
</svg>
