<?xml version="1.0" encoding="utf-8"?>
<!-- Generator: Adobe Illustrator 28.4.1, SVG Export Plug-In . SVG Version: 6.00 Build 0)  -->
<svg version="1.1" xmlns="http://www.w3.org/2000/svg" xmlns:xlink="http://www.w3.org/1999/xlink" x="0px" y="0px"
	 viewBox="0 0 404.6 439.1" style="enable-background:new 0 0 404.6 439.1;" xml:space="preserve">
<style type="text/css">
	.st0{fill:#C346FF;}
	.st1{fill:none;stroke:#5A4813;stroke-width:2.25;stroke-linecap:round;stroke-linejoin:round;stroke-miterlimit:10;}
	.st2{fill:none;stroke:#5A4813;stroke-width:3;stroke-linecap:round;stroke-linejoin:round;stroke-miterlimit:10;}
</style>
<g id="Layer_2">
	<polygon id="hair_00000080205903481488902540000002292281018222540202_" class="st0" points="53.7,24 55.5,19.1 61.2,12.1 66,10 
		76.8,9.2 89,9.7 99,13.8 101.9,13.6 105.9,19.5 106.5,26 106.6,28.5 101.8,33.5 101.1,28 94.8,26.1 89.3,26.2 86.2,27.5 85.2,30.4 
		78.3,28.8 77,31.3 77.2,34.5 71.7,36 69.2,38.5 64.5,34.8 60.5,35.4 59,40.1 60.4,44.6 63.7,47.2 63,53.6 60.2,66.8 55.2,63.2 
		53.1,54.6 54.1,49.8 52.8,42.5 50.3,39 50.9,33.2 50.3,30.3 52.9,28.7 	"/>
	<polygon id="ear_00000167397082771639467760000002932524944913554877_" class="st0" points="67.6,48 62.4,46.2 59.6,42.1 
		59.6,36.7 61.3,34.9 63.6,34.9 65.5,35.5 67.6,39.2 	"/>
	<polygon id="head_00000076563162986047373300000006027165397418505367_" class="st0" points="64.5,51.2 68.7,56 72.2,61.8 
		87.1,65.5 93.1,65.5 96.2,51.1 99.9,49.3 98.3,41.4 99.2,37 101.2,33.7 101.8,27.4 99.6,27.5 95.8,27.4 90.1,26.2 86,28.1 85.5,30 
		82.1,31.5 78.4,30.3 78.4,31.7 78.5,34.9 76.2,35.4 71.9,35.9 70.4,39 67.6,39.2 67.4,48 64.5,48 	"/>
</g>
<g id="Layer_1">
	<g id="N-TEXT">
	</g>
	<g id="_x32_D_x24_AG-DETAILS-DIAGRAM">
	</g>
	<g id="POLYLINE_00000069358783946931057370000006859965440931026841_">
		<path class="st1" d="M82.1,238.8c0.8,4.4,2.1,8.8,4,12.9c3.6,7.6,9.6,15.4,13.9,22.6c0.9,1.6,1.8,3.3,2.5,5.1
			c1.1,2.7,3.1,9.9,3.9,12.8c0.9,2.8,1.8,5.6,3.3,8.2c1.6,2.8,4.3,5.8,6.4,8.3c0.5,0.6,1.1,1.3,1.4,2.1c0.4,0.9,0.5,1.9,0.7,2.8
			l1.1,7.9c1,6.3,2.7,12.6,5.8,18.2c1.8,3.3,4.6,6.6,6.5,9.9c0.7,1.3,1.3,2.6,1.9,4c1.6,4.1,4.2,11.3,5.6,15.4
			c0.5,1.6,1.1,3.2,1.1,4.9c0,1.3-0.3,3-0.4,4.3c-0.1,0.8-0.1,1.6,0.1,2.4c0.1,0.5,0.3,1.1,0.6,1.5c0.3,0.5,0.6,1,0.9,1.4
			c0.2,0.3,0.3,0.6,0.3,1c0.1,0.9,0,2.9,0.1,3.8c0,1.2,0.1,2.4,0.2,3.5c0.2,1.3,0.6,2.5,1.4,3.5c0.7,0.9,1.6,1.5,2.6,2.1l1.7,0.9
			c0.8,0.4,1.5,0.9,2.1,1.5c1,1.1,1.6,2.5,2.2,3.9l1.2,3.2c0.5,1.3,1.1,2.7,2.1,3.8c0.4,0.4,0.9,0.8,1.4,1.1c0.6,0.3,1.3,0.3,2,0.3
			c2.7,0,7.6,0.2,10.2-0.2c0.9-0.1,1.8-0.2,2.7-0.5c0.5-0.2,1-0.4,1.5-0.8c0.4-0.3,0.7-0.8,0.8-1.2c0.2-0.6,0.2-1.2,0.2-1.8
			c0-1,0-2-0.2-2.9c-0.1-0.2-0.2-0.4-0.3-0.6c-0.3-0.4-0.7-0.7-1.1-1c-0.8-0.6-1.4-1.4-2-2.2c-1.1-1.4-3.7-5.1-4.7-6.5
			c-1.3-1.7-5-6.3-6.3-8c-0.7-1-1.6-2-2.2-3.1c-0.1-0.3-0.2-0.5-0.3-0.8c-0.1-0.5,0-1,0.1-1.5c0.2-1.1,0.4-2.5,0.3-3.6
			c0-0.6-0.2-1.1-0.4-1.7c-0.4-1.1-1.4-2.4-2-3.4c-0.6-1-1.1-2-1.6-3.1c-0.5-1.2-0.9-2.5-1.2-3.8c-0.5-2.1-0.8-4.2-1-6.3
			c-0.3-2.7-0.2-8.6-0.3-11.4c-0.2-6-0.5-13.1-1.1-19.1c-0.2-2.2-0.6-4.4-1.2-6.6c-1.1-4-3-7.7-5.1-11.2c-1.9-3.1-4-6.3-6.3-9.1
			l-1.7-2c-0.4-0.5-0.9-1.1-1.2-1.7c-0.5-1.1-0.8-2.2-1-3.4c-0.3-1.5-0.6-3.3-1-4.8c-0.3-1.1-0.7-2.1-1.1-3.2l-1.5-3.2
			c-0.8-1.7-1.4-3.5-1.7-5.4c-0.2-1-0.3-2.2-0.4-3.2c-0.2-2.4-0.3-7.7-0.4-10.1c-0.4-7.5-1.3-15.2-2.8-22.5
			c-0.9-4.3-1.9-8.7-3.5-12.9c-0.5-1.4-1.7-4.5-2.1-5.9c-0.3-0.9-0.4-1.8-0.5-2.8c-0.3-3.4-0.2-7.2-0.1-10.5c0-2.1,0.3-7,0.1-9.1
			c-0.1-1.1-0.2-2.2-0.5-3.2c-0.3-1.4-0.8-3-1-4.4c-0.3-2.2,0.5-4.4,0.6-6.6c0.4-6.5-2.4-13.4-3.3-19.8c-0.1-0.8-0.1-1.7-0.1-2.5
			c0.1-0.8,0.2-1.7,0.4-2.5c1-4.1,2.1-9.3,2.9-13.5c0.9-4.9,1.8-10.2,2.2-15.2c0.5-5.2,0.4-11.9,0.7-17.1"/>
	</g>
	<g id="POLYLINE_00000178187763500183560090000018087517227683553184_">
		<path class="st1" d="M113.2,409.3c-5.2-9.6-10.4-19.9-14.6-30c0.1-0.5,0.2-1,0.2-1.5c0-1.2-0.2-2.6-0.3-3.8
			c-0.2-1.4-0.3-2.8-1.1-4c-0.7-1.1-2-1.6-3.2-1.7c-0.8-2.2-1.6-4.6-2.1-6.9c-0.3-1.3-0.5-2.7-0.5-4.1c0-0.8,0.1-1.6,0.4-2.4
			c0.3-0.9,0.7-1.7,1.2-2.5c0.7-1.1,1.6-2.3,1.9-3.5c0.2-0.7,0.3-1.5,0.3-2.3c-0.1-1.4-0.5-2.7-1.1-3.9c-0.9-1.9-2.2-3.6-3-5.6
			c-0.8-1.7-1.1-3.6-1.3-5.5c-0.1-1-0.1-2-0.1-3c0.1-3,0.5-7.5,0.5-10.6c0.1-2.8,0.1-9.3,0.4-12c0.1-0.7,0.2-1.3,0.4-2
			c0.4-1.5,1.7-2.7,2.6-3.8c0.4-0.5,0.8-0.9,1-1.5c0.1-0.3,0.1-0.6,0-1c-0.1-0.2-0.2-0.4-0.4-0.6c-0.6-0.8-1.7-1.7-2.3-2.5
			c-0.3-0.3-0.5-0.6-0.7-0.9c-0.1-0.2-0.2-0.5-0.3-0.8c0-0.3,0-0.6,0.1-0.9c0.1-0.5,0.2-1,0.2-1.5c0-0.4-0.1-0.8-0.3-1.2
			c-0.3-0.8-0.9-1.4-1.4-2.1c-0.5-0.5-1-1.1-1.6-1.4c-0.4-0.3-0.9-0.5-1.5-0.5c-0.3,0-0.7,0-1,0.2c-0.5,0.2-0.9,0.6-1.3,1
			c-1.4,1.5-2.6,3.2-3.7,4.9"/>
	</g>
	<g id="POLYLINE_00000158737943953481734630000000833690207065382046_">
		<path class="st1" d="M101.3,33.6c0.4,0,0.8,0,1.2-0.1c0.2-0.1,0.4-0.2,0.6-0.3c0.2-0.2,0.3-0.4,0.3-0.6c0.2-0.6,0.2-1.2,0.5-1.7
			c0.4-0.5,1-0.8,1.6-1.2c0.4-0.3,0.9-0.6,1.1-1.1c0.2-0.3,0.2-0.7,0.2-1c0-0.5-0.1-1.1-0.3-1.6c-0.1-0.2-0.2-0.5-0.3-0.7
			c-0.1-0.2-0.3-0.3-0.4-0.5c-0.1-0.1-0.1-0.2-0.1-0.3c0-0.1,0-0.3,0.1-0.4c0.2-0.6,0.6-1.3,0.7-2c0.1-0.7,0-1.4-0.3-2.1
			c-0.3-0.6-0.7-1.2-1.3-1.6c-0.6-0.5-1.1-0.9-1.4-1.6c-0.5-1-0.8-2.3-1.5-3.1c-0.8-0.8-2-0.9-3-0.9c-1.3,0-2.7,0.1-3.9-0.3
			c-1.2-0.4-2.4-1.2-3.6-1.8c-0.8-0.4-1.6-0.7-2.5-0.9c-1.7-0.3-3.4-0.3-5.1,0c-0.9,0.1-2,0.4-2.9,0.4c-0.2,0-0.5,0-0.7,0
			c-0.2,0-0.5-0.1-0.7-0.2c-0.2-0.1-0.4-0.3-0.6-0.4c-0.6-0.5-1.3-1.2-2.2-1.3c-0.8-0.2-1.5,0-2.3,0.2c-0.6,0.2-1.2,0.4-1.7,0.8
			c-0.2,0.1-0.3,0.2-0.5,0.4c-0.1,0.1-0.2,0.3-0.3,0.5c-0.1,0.1-0.2,0.2-0.3,0.3c-0.3,0.1-0.6,0.1-0.9,0.1c-1.6-0.1-3.3-0.4-4.8-0.4
			c-0.4,0-0.8,0.1-1.2,0.2c-0.3,0.1-0.5,0.3-0.7,0.5c-0.3,0.3-0.5,0.7-0.7,1.1c-0.2,0.3-0.3,0.5-0.6,0.7c-0.4,0.3-1,0.4-1.6,0.5
			c-0.4,0.1-0.8,0.2-1.2,0.4c-0.3,0.2-0.5,0.5-0.7,0.7c-0.4,0.6-0.9,1.3-1.3,1.9c-0.3,0.4-0.6,0.8-0.9,1.1c-0.4,0.4-0.9,0.8-1.2,1.2
			c-0.2,0.2-0.3,0.4-0.4,0.7c-0.2,0.5-0.1,1.1-0.2,1.6c0,0.4-0.1,0.8-0.2,1.2c-0.2,0.4-0.4,0.8-0.7,1.1c-0.5,0.6-1.1,1.3-1.4,2
			c-0.2,0.9,0.1,1.9,0,2.8c0,0.3-0.1,0.5-0.2,0.8c-0.2,0.4-0.5,0.7-0.8,1.1c-0.3,0.4-0.8,0.8-1.1,1.2c-0.2,0.2-0.3,0.5-0.4,0.7
			c-0.1,0.5,0,1.1,0.1,1.6c0.2,0.7,0.4,1.5,0.4,2.2c0,0.5-0.2,1-0.3,1.5c-0.2,0.7-0.6,1.5-0.6,2.1c0,0.3,0,0.6,0.2,0.9
			c0.3,0.6,1,1.1,1.5,1.6c0.3,0.3,0.6,0.6,0.8,1c0.2,0.6,0.1,1.2,0,1.8c0,0.3-0.1,0.7,0,1c0.1,0.4,0.2,0.8,0.4,1.2l0.5,1
			c0.2,0.5,0.4,0.9,0.5,1.4c0,0.3,0,0.6,0,0.9c-0.2,1-0.8,2.1-1,3.1c-0.1,0.3-0.1,0.7-0.1,1c0,0.3,0.1,0.5,0.2,0.8
			c0.4,1.1,1.3,2.1,1.7,3.2c0.2,0.7,0.2,1.4,0.2,2.1c0,0.7-0.2,1.6-0.1,2.3c0,0.4,0.1,0.7,0.3,1c0.2,0.3,0.4,0.5,0.6,0.7
			c0.5,0.4,1.3,0.8,1.9,1.1c0.3,0.2,0.7,0.4,0.9,0.6c0.2,0.2,0.2,0.5,0.3,0.7c0.1,0.4,0.3,0.7,0.6,1c0.4,0.4,0.8,0.7,1.3,1"/>
	</g>
	<g id="POLYLINE_00000136397317949069330400000007516775988049260720_">
		<path class="st1" d="M90.1,65.5c0.2,1.5,0.5,3.1,0.9,4.5c0.5,1.7,1.2,3.3,2,4.8"/>
	</g>
	<g id="POLYLINE_00000098199772933160282120000002506582942413900980_">
		<path class="st1" d="M67.6,48c-1.3,0-2.6-0.3-3.9-0.8c-1.5-0.6-3-1.7-3.7-3.2c-0.6-1.2-0.9-2.5-1-3.8c0-1.2,0.1-2.3,0.6-3.4
			c0.5-1.1,1.4-2,2.6-2.2c1-0.2,2.1,0,2.9,0.7c0.6,0.5,0.9,1.3,1.4,2c0.2,0.3,0.5,0.6,0.8,0.8c0.6,0.4,1.3,0.6,1.9,0.5
			c0.3,0,0.7-0.2,0.9-0.4c0.5-0.5,0.7-1.3,1.2-1.8c0.5-0.5,1.3-0.6,1.9-0.6c0.9,0,2,0.1,2.9-0.3c0.6-0.3,1.1-0.8,1.4-1.4
			c0.1-0.3,0.2-0.7,0.2-1.1c0-0.2-0.1-0.4-0.2-0.6c-0.2-0.4-0.6-0.8-0.7-1.3c-0.1-0.3-0.1-0.7,0-1c0.1-0.3,0.2-0.6,0.4-0.8
			c0.1-0.2,0.3-0.3,0.5-0.4c0.1-0.1,0.3-0.1,0.5,0c0.5,0.1,1.1,0.5,1.5,0.8c0.6,0.4,1.3,0.7,2.1,0.8c0.9,0.1,1.9,0.1,2.6-0.5
			c0.5-0.4,0.8-1.1,1.1-1.6c0.2-0.3,0.3-0.6,0.6-0.7c0.2-0.1,0.5-0.1,0.7-0.2c0.3,0,0.7,0,1.1-0.1c0.2-0.1,0.4-0.2,0.5-0.4
			c0.5-0.4,0.9-0.9,1.6-1c0.9-0.1,1.8,0.3,2.7,0.4c0.3,0,0.5,0,0.8,0c0.4,0,0.8-0.2,1.2-0.3c0.3-0.1,0.7-0.1,1.1-0.1
			c0.4,0.1,0.8,0.3,1.2,0.5c0.6,0.3,1.2,0.7,1.9,0.9c0.3,0.1,0.5,0.1,0.8,0.1c0.3,0,0.6-0.1,0.9,0c0.1,0,0.2,0.1,0.3,0.2
			c0.1,0.1,0.2,0.3,0.2,0.4c0.2,0.8,0.1,2.1,0.1,3c0,0.8,0.1,1.9,0,2.7c0,0.4-0.1,0.9-0.3,1.2c-0.2,0.5-0.6,1-1,1.3L99.2,37
			c-0.3,0.3-0.6,0.6-0.8,1c-0.2,0.3-0.3,0.7-0.3,1.1c0,0.5,0,1.1,0.1,1.6c0.3,2.3,1.1,4.9,1.6,7.2c0.1,0.5,0.2,1,0.1,1.5
			c0,0.2-0.1,0.4-0.2,0.5c-0.1,0.2-0.2,0.3-0.4,0.4c-0.2,0.1-0.5,0.2-0.8,0.3c-0.5,0.1-1,0.2-1.6,0.2c-0.1,0-0.5,0-0.6,0.1
			c0,0-0.1,0.1-0.1,0.1c0,0.1,0,0.2,0,0.3c0,0.7,0.2,1.6,0.3,2.3c0,0.3,0.1,0.6,0,0.9c0,0.2-0.2,0.4-0.3,0.6
			c-0.1,0.1-0.1,0.3-0.1,0.4c0,0.4,0.1,0.8,0.1,1.2c0,0.6-0.4,1.2-0.6,1.8c-0.4,1.2-0.2,2.7-0.6,3.9c-0.4,1.2-1.4,2.2-2.6,2.7
			c-1.6,0.7-3.5,0.6-5.2,0.5c-2.4-0.3-5-0.7-7.4-1.2c-1.7-0.4-3.4-0.9-4.9-1.5c-1.1-0.5-2.2-1.1-3.1-1.9c-1.4-1.3-2.3-3.1-3.1-4.8"
			/>
	</g>
	<g id="POLYLINE_00000178190015872226563860000010559162539916535190_">
		<path class="st1" d="M120.4,116.5l1,1.9c0.5,1,1.1,1.9,1.8,2.8c1.1,1.4,3.5,3.7,4.8,5c0.9,1,1.9,2,2.6,3.2
			c0.7,1.1,1.3,2.6,1.8,3.8c0.6,1.4,1.4,2.7,2.3,3.9c1.1,1.4,2.3,2.7,3.5,4c1.5,1.4,3,2.8,4.8,3.9c1.3,0.8,2.8,1.5,4.3,2
			c1.8,0.6,3.6,1.2,5.5,1.4c0.9,0.1,1.8,0.1,2.6-0.1c1.8-0.5,2.5-2.4,3-4c0.2-0.7,0.4-1.5,0.8-2.2c0.6-1.1,1.4-2.1,1.6-3.4
			c0.2-1.1-0.1-2.2-0.5-3.3c-0.3-0.9-0.8-2.3-1-3.2c-0.2-0.9-0.3-2.3-0.4-3.2c-0.1-0.9-0.3-1.7-0.6-2.5c-0.5-1.3-1.4-2.5-2.3-3.7
			c-1-1.2-2.2-2.4-3.4-3.4c-1-0.8-2.4-1.7-3.5-2.5c-0.7-0.5-1.4-1-2.1-1.6c-1.7-1.6-3.5-4.1-5-6c-0.9-1.1-2.1-2.4-3-3.5
			c-0.3-0.3-0.5-0.7-0.7-1.1c-0.4-0.6-0.6-1.3-0.7-2c-0.2-1-0.5-2.1-0.9-3.1c-0.5-1.4-1.2-2.8-1.9-4.1c-1.1-2-2.3-4-3.6-5.8
			c-1.1-1.6-2.4-3.1-3.8-4.5c-1.5-1.5-3.1-2.9-4.8-4.1"/>
	</g>
	<g id="POLYLINE_00000005964856454031434500000006528117141378614913_">
		<path class="st1" d="M139.5,138.4c-1.6-2-3.2-4.1-4.5-6.2c-3.2-5.2-6.9-13.9-9.7-19.3c-0.6-1.1-1.2-2.2-2-3.2
			c-0.5-0.7-1.2-1.3-1.9-1.6c-0.5-0.3-1.1-0.5-1.7-0.6c-0.9-0.2-2-0.5-2.9-0.9c-1.2-0.5-2.4-1.3-3.4-2.1c-1.5-1.2-2.9-2.5-4.1-4
			c-1.2-1.4-2.3-2.9-2.6-4.7c-0.1-0.6-0.1-1.2,0.1-1.8c0.3-1.5,1.2-3,1.6-4.5c0.2-0.5,0.3-1.1,0.2-1.6c0-0.4-0.1-0.8-0.3-1.2
			c-0.8-1.8-2.5-3-3.8-4.4c-0.3-0.4-0.6-0.7-0.6-1.2c-0.1-0.7,0-1.4,0.1-2.2c0.2-1.1,0.4-2.3,0.9-3.4c0.3-0.6,0.6-1.2,1.2-1.7
			c0.5-0.5,1.2-0.7,1.9-0.6c0.6,0,1.1,0.2,1.6,0.5c0.8,0.4,1.6,1,2.3,1.6c1.3,1.1,3.2,2.6,4.5,3.6c0.5,0.3,4.1,2.9,4.5,3.1
			c0.2,0.1,0.4,0.2,0.6,0.2c0.2,0,0.3,0,0.5,0c0.2-0.1,0.4-0.3,0.5-0.4c0.3-0.4,0.4-0.8,0.5-1.3c0.1-0.6,0-1.3-0.2-1.9
			c-0.3-0.9-0.8-1.7-1.3-2.4c-2-2.5-5-3.9-8.1-4.7c-1.4-0.4-2.9-0.7-4.4-0.8c-0.6,0-1.3-0.1-1.9,0.1c-1,0.2-1.7,0.9-2.4,1.5
			c-0.8,0.7-1.8,1.8-2.7,2.4c-0.2,0.1-0.4,0.2-0.6,0.2c-0.2,0-0.5,0-0.7-0.1c-0.3-0.1-0.8-0.3-1.1-0.5c-0.8-0.4-1.6-0.6-2.4-0.8
			c-0.7-0.2-1.4-0.3-2.1-0.3c-0.5,0-1,0.1-1.4,0.4c-0.3,0.3-0.4,0.7-0.4,1.2c0,0.9,0.3,1.7,0.6,2.5c1.2,2.9,2.6,5.8,4.6,8.2
			c2.4,3,5.3,5.6,8.6,7.6"/>
	</g>
	<g id="POLYLINE_00000178904030053123166040000000824668508215781289_">
		<path class="st1" d="M81.4,210.5c-0.2,0.7-0.5,1.4-0.6,2.2c-0.1,0.8-0.2,1.6-0.1,2.4c0,1.5,0.2,3.1,0.7,4.5c0.4,1.1,1,2.3,2.1,2.8
			c0.5,0.2,1.1,0.3,1.6,0c0.4-0.2,0.6-0.6,0.7-1c0.2-0.5,0.3-1,0.4-1.5c0.1-0.9,0.2-1.8,0.2-2.7c0.1-2.3,0-4.5-0.6-6.7"/>
	</g>
	<g id="POLYLINE_00000139290995290232995680000018328810134420531620_">
		<path class="st1" d="M78.8,217.2c-0.2,1-0.9,4.2-1.1,5.3c-0.1,0.5-0.2,1.1-0.2,1.6c-0.1,0.7-0.1,1.5,0.1,2.2
			c0.1,0.6,0.4,1.1,0.8,1.6c0.3,0.4,0.7,0.7,1.1,0.9c0.7,0.3,1.4,0.4,2.1,0.3c0.6,0,1.2-0.1,1.7-0.4c0.2-0.1,0.4-0.3,0.7-0.3
			c0.1,0,0.2,0,0.2,0c0.3,0.1,0.7,0.4,0.9,0.6c0.4,0.2,0.8,0.5,1.3,0.6c0.6,0.1,1.3,0,1.9-0.2c0.7-0.3,1.4-0.8,1.9-1.5
			c0.3-0.4,0.4-0.9,0.4-1.4c0-0.5,0-0.9-0.1-1.4c-0.2-1.2-0.7-2.7-1.1-3.9c-0.2-0.7-0.5-1.6-0.6-2.3c-0.2-1-0.3-2-0.4-3"/>
	</g>
	<g id="POLYLINE_00000024704860685354240620000000810556310956198297_">
		<path class="st1" d="M76.4,212.2c-0.6-0.2-1.2-0.4-1.8-0.8c-0.3-0.2-0.6-0.5-0.7-0.8c-0.1-0.2-0.1-0.3,0-0.5
			c0.1-0.4,0.3-0.8,0.4-1.1c0.1-0.3,0.2-0.5,0.3-0.8c0-0.3,0-0.6,0-0.9c0-0.5-0.2-1-0.1-1.5c0-0.1,0.1-0.3,0.3-0.4
			c0.4-0.3,1-0.5,1.5-0.6c0.5-0.2,1-0.4,1.3-0.8c0.4-0.5,0.6-1.1,1-1.5c0.4-0.4,0.9-0.5,1.4-0.5c0.7-0.1,1.5-0.1,2.1-0.4
			c0.5-0.2,1.1-0.7,1.6-0.9c0.2-0.1,0.4-0.1,0.6-0.1c0.4,0,0.7,0.2,1,0.5c0.4,0.3,0.9,0.7,1.4,0.9c0.3,0.1,0.6,0.2,0.9,0.2
			c0.4,0,1,0,1.4,0.2c0.2,0.1,0.3,0.3,0.3,0.4c0.2,0.4,0.3,0.9,0.4,1.3c0.1,0.2,0.1,0.3,0.2,0.5c0.3,0.4,0.8,0.4,1.1,0.6
			c0.4,0.2,0.5,0.7,0.7,1.1c0.1,0.5,0.2,1.1,0.5,1.6c0.2,0.4,0.6,0.7,0.6,1.1c0.1,0.4,0,0.8-0.2,1.1c-0.2,0.6-0.6,1.1-1.1,1.6"/>
	</g>
	<g id="POLYLINE_00000023968033082434419810000013773347090229043861_">
		<path class="st1" d="M77.9,126.3c-0.3,1.2-0.3,2.5-1,3.5c-0.4,0.6-1,1.1-1.6,1.5c-1.1,0.7-2.3,1.2-3.5,1.7
			c-3.3,1.2-6.7,1.8-10.1,2.3c-3,0.3-6.1,0.5-9,0c-1.6-0.3-3.2-0.9-4.5-1.9c-1.5-1.1-2.6-2.7-3.4-4.4"/>
	</g>
	<g id="POLYLINE_00000075141982666910823050000004674991100453939873_">
		<path class="st1" d="M85.2,125c0.4,0.5,0.6,1.1,1.1,1.6c0.6,0.7,1.5,1,2.3,1.2c2.6,0.6,5.4,0.6,8.1,0.6c2.1,0,4.8-0.1,7-0.2
			c1.5-0.1,3.3-0.2,4.7-0.4c1.8-0.3,3.6-0.7,5.2-1.7c1.1-0.7,2-1.7,2.7-2.8c0.9-1.4,1.6-3,2.1-4.7"/>
	</g>
	<g id="POLYLINE_00000048484350457698796230000004229777115812678313_">
		<path class="st1" d="M40,122.4c0.9,2.5,1.5,5.1,1.6,7.8c0.1,2.1-0.4,5.6-0.5,7.7c-0.2,2.4-0.4,8-0.6,10.4
			c-0.2,3.1-0.6,6.3-1.4,9.4c-0.9,3.4-2.7,7.3-4,10.5c-0.5,1.3-1.1,2.7-1.4,4.1c-0.2,0.9-0.2,1.8-0.2,2.7c0,0.5,0.1,1.1,0.1,1.6
			c0.2,1.7,0.7,5,0.9,6.6c0.3,3.3,1,7.6,0.9,10.9c0,1.4-0.2,2.8-0.5,4.1c-0.3,1.4-0.8,2.9-1.2,4.2c-0.9,2.7-2.5,6.7-3.1,9.4
			c-0.2,0.9-0.4,1.9-0.4,2.8c0,0.9,0.1,1.9,0.2,2.8c0.4,1.9,1.3,4.1,2,5.9c0.2,0.4,0.4,0.8,0.6,1.2c0.1,0.2,0.3,0.4,0.5,0.5
			c0.2,0.2,0.4,0.3,0.7,0.4c0.8,0.3,1.7,0.6,2.4,1c1.6,1,3.2,2.7,4.5,4.1c1.1,1,2.5,2.2,3.3,3.4c0.5,0.7,0.8,1.5,1.1,2.3
			c0.5,1.4,1.1,3.1,1.8,4.4c1.1,2.1,2.6,4.5,3.5,6.7c0.3,0.7,0.5,1.4,0.5,2.2c0,0.4-0.1,0.9-0.4,1.2c-0.3,0.4-0.9,0.8-1.3,1.1
			c-0.2,0.1-0.3,0.3-0.4,0.5c-0.2,0.4-0.2,0.9-0.1,1.3c0.1,0.7,0.2,1.5,0.1,2.2c-0.2,1.3-0.9,2.7-2.1,3.4c-0.9,0.5-2,0.7-3,0.8
			c-1.7,0.2-3.4,0.2-5.1,0c-1.1-0.2-2.2-0.5-3-1.3c-0.9-0.8-1.3-2-1.9-3c-0.9-1.5-2.1-2.9-3.4-4.1c-1.4-1.4-3.2-2.6-4.9-3.8
			c-0.6-0.4-1.2-0.9-1.6-1.5c-0.3-0.5-0.5-1-0.7-1.6c-0.2-0.5-0.4-2-0.5-2.5c-0.3-1.2-0.7-2.5-1.2-3.6c-0.7-1.4-1.7-3.1-2-4.7
			c-0.2-0.9-0.1-1.8-0.1-2.7c0-0.8-0.2-1.5-0.5-2.2c-0.5-1.4-1.2-2.9-1.6-4.3c-0.2-0.9-0.2-1.8-0.2-2.7l0.1-2.4c0-1.1,0-2.2-0.1-3.2
			c-0.3-3.1-1.3-8.1-1.7-11.2c-0.6-3.9-0.9-8-1-12c-0.1-3.1-0.1-6.4,0.2-9.6c0.1-1.3,0.4-2.9,0.7-4.1c0.2-0.8,0.3-1.6,0.2-2.3
			c-0.1-1.6-0.5-3.2-0.4-4.8c0-1.6,0.7-3.3,1.2-4.8c0.3-0.9,0.5-1.8,0.7-2.7c0.3-1.5,0.4-3.2,0.4-4.8c0.1-5-0.1-10.9,0.6-15.9
			c0.3-2.3,0.7-4.7,1.4-7c0.4-1.5,1.2-3.6,1.4-5.1c0.1-0.8,0.1-1.6-0.1-2.4c-0.1-0.9-0.5-2.3-0.6-3.2c-0.2-0.9-0.3-1.9-0.3-2.9
			c-0.4-6.2,0.3-12.5,2.6-18.3c1.3-3,2.9-5.9,5.1-8.4c1.1-1.2,2.3-2.3,3.7-3.1c1.5-1,3.8-1.8,5.5-2.5c1.2-0.5,2.4-1.1,3.5-1.8
			c1.4-0.9,3.1-2.3,4.5-3.2c1-0.6,2-1.2,3.1-1.7l3.6-1.6c2-0.9,3.9-2,5.4-3.6c2.1-2.3,3.1-5.4,3.5-8.4c0.3-2.5,0.4-5,0.2-7.5
			c0-0.4,0-0.9,0.2-1.3c0.4-0.9,1.1-1.6,1.3-2.5c0.1-0.4,0.1-0.7,0-1.1c-0.1-0.8-0.4-1.6-0.3-2.4c0.1-1.4,1.1-2.5,1.3-3.8
			c0.2-0.9,0-2,0.1-2.9c0.1-0.9,0.6-1.6,1.1-2.3"/>
	</g>
	<g id="POLYLINE_00000125575622571506150060000014377493812305512124_">
		<path class="st1" d="M71.2,405.7c-1.3,0-16.5-0.1-17.4,0.1c-0.4,0.1-0.9,0.2-1.2,0.4c-0.5,0.4-0.6,1-0.7,1.6
			c-0.5,5.8-0.8,12.6-0.7,18.5c0,0.3,0,0.6,0.1,0.8c0,0.1,0.1,0.2,0.1,0.2c0.1,0.1,0.2,0.1,0.2,0.1c0.5,0.2,1.2,0.1,1.7,0.2
			c1,0,114.2,0,115.1,0c0.4,0,0.8,0,1.2-0.2c0.3-0.1,0.5-0.2,0.8-0.4c0.3-0.2,0.5-0.6,0.6-0.9c0.1-0.3,0.2-0.7,0.3-1
			c0.4-1.4,0.6-3,0.9-4.4c0.2-1.6,0.6-3.5,0.7-5.1c0-0.6,0.1-1.3,0.1-1.9c0-0.2-0.1-0.5-0.2-0.7c-0.2-0.2-0.4-0.3-0.7-0.4
			c-0.6-0.2-1.2-0.2-1.9-0.2c-2.6-0.2-33.6-0.1-37-0.2c-1.9-0.1-4,0-5.9-0.4c-0.3-0.1-0.7-0.2-1-0.3c-0.1-0.1-0.3-0.2-0.4-0.3
			c-0.2-0.2-0.3-0.5-0.5-0.7c-0.2-0.2-0.5-0.4-0.9-0.5c-0.4-0.2-0.9-0.3-1.4-0.4c-3.6-0.5-8.1-0.4-11.7-0.5c-1.2,0-6.6,0.1-7.8-0.1
			c-1-0.1-1.9-0.4-2.9-0.7c-1.1-0.4-2.1-0.9-3.1-1.5c-1-0.6-2.1-0.9-3.2-1c-1.8-0.3-3.6-0.3-5.4-0.3"/>
	</g>
	<g id="POLYLINE_00000038407794490683725540000013505120224104650628_">
		<path class="st1" d="M82.2,229c0.1,7.5-0.2,15.5-0.8,23c-0.3,3.7-1.1,7.8-1.4,11.4c-0.2,2.4,0.3,5.6,0.5,8.1
			c0.3,2.5,0.2,5-0.1,7.5c-0.2,1.8-0.6,4.3-0.5,6.1c0.1,2.4,0.6,5.2,0.7,7.7c0.1,3.4-0.5,6.7-1.5,10c-0.2,0.7-0.8,2.5-1,3.2
			c0,0.2-0.1,0.3-0.1,0.5c0,0.2,0,0.4,0,0.6c0,0.2,0.1,0.4,0.2,0.6c0.2,0.5,1.2,2.7,1.5,3.2c1.2,2.7,2.3,5.5,3.1,8.3
			c1.3,4.9,1.8,10,1.7,15c-0.1,3.8-0.5,8.8-0.5,12.6c0,3.6,0.2,7.3,0.6,10.9c0.5,4.1,1.2,8.2,2.4,12.1c0.8,2.7,2.2,5.3,3.5,7.8
			c0.5,1,0.9,2,1.2,3c0.2,0.6,0.3,1.3,0.2,1.9c-0.1,1-0.5,2-0.7,3c-0.2,1.6,0.1,3.7,0.2,5.3c0.1,1.3,0.1,2.6,0,3.9
			c-0.1,0.6-0.3,2.9-0.3,3.5c0,0.6,0,1.3,0,1.9c0,1.3,0.3,3,0.1,4.2c0,0.3-0.1,0.7-0.3,1c-0.1,0.1-0.2,0.2-0.3,0.3
			c-0.1,0.1-0.2,0.1-0.3,0.2c-0.3,0.1-0.7,0.1-1.1,0.1c-0.7,0-18.1,0-19,0c-0.6,0-1.1-0.1-1.7-0.3c-0.3-0.1-0.5-0.3-0.6-0.6
			c-0.1-0.2-0.1-0.5-0.1-0.7c0-0.4,0.1-0.8,0.3-1.1c0.4-1.2,1.2-2.5,1.8-3.6c1.6-2.7,3.4-5.6,4.3-8.6c0.2-0.6,0.4-1.3,0.5-2
			c0.1-0.4,0.1-0.9,0.1-1.4c-0.1-1.2-1.2-2.2-1.8-3.2c-0.4-0.7-0.6-1.5-0.7-2.4c0-1,0.2-2.2,0.3-3.2c0.1-1.1,0.2-2.3,0.2-3.4
			c-0.2-6.8-3.9-13.4-6.6-19.5c-3-6.6-6-13.8-8.4-20.6c-1.5-4.4-2.9-9-3.4-13.6c-0.5-3.8-0.4-7.7,0.1-11.5c0.5-3.6,1.4-7.6,1.4-11.2
			c0-0.9-0.1-1.8-0.3-2.7c-0.2-1.1-0.7-2.8-0.8-3.9c-0.3-2.3-0.4-4.6-0.1-6.9c0.2-1.8,0.6-3.8,0.8-5.6c0-0.3,0-0.7,0-1
			c-0.1-0.3-0.2-0.6-0.3-0.9l0-0.1l0-0.1l0-0.1l0-0.1l-0.1-0.1l-0.1-0.1l-0.1-0.1l-0.1-0.1l-0.1-0.1l-0.1-0.1l-0.2-0.3l-0.6-1
			c-1-1.6-1.7-3.5-2.4-5.3c-1.3-3.7-2.4-7.9-3.4-11.7"/>
	</g>
	<g id="POLYLINE_00000110431101082474118490000008075613287955708858_">
		<path class="st1" d="M41.2,135.8c0.5,1.2,1.1,2.7,1.8,3.8c0.8,1.4,2.7,3.9,3.7,5.2c0.8,1.1,1.7,2.4,2.1,3.7
			c0.3,0.7,0.3,1.6,0.4,2.4c0.1,0.9,0.3,1.7,0.6,2.5c1,2.6,2.5,5.1,3.9,7.5c0.1,0.1,0.1,0.2,0.2,0.4c0,0.1,0,0.2,0,0.3
			c-0.1,1.2-0.6,2.5-0.9,3.6c-0.7,2.1-1.5,4.3-2.6,6.2c-0.9,1.6-2.2,3.6-2.7,5.3c-0.4,1.3-0.5,2.6-0.5,3.9c-0.1,1.5-0.1,3.9-0.3,5.3
			c-0.1,0.9-0.3,1.8-0.5,2.7c-0.7,2.6-1.9,5.3-2.2,8.1c-0.2,2.1-0.1,4.5-0.3,6.5c-0.1,1.1-0.2,2.2-0.5,3.3c-0.7,2.8-1.9,5.8-2.3,8.7
			c-0.7,5.5,0.5,11.2,1.4,16.6"/>
	</g>
	<g id="POLYLINE_00000149362474973479596600000001945631687015205250_">
		<path class="st1" d="M53.8,405.8c-0.3-0.3-0.6-0.7-0.8-1.1c-0.2-0.4-0.2-0.8-0.2-1.1c0-0.5,0.1-1,0.3-1.5c0.3-0.9,1.3-3.5,1.7-4.4
			c0.5-1.4,1.1-3.1,1.6-4.5c1.4-4.5,2.6-9.1,3-13.7c0.1-1.8,0.2-3.6-0.2-5.4c-0.3-1.5-1-2.9-1.8-4.2c-0.5-0.8-1.1-1.5-1.7-2.1
			c-0.6-0.6-1.3-1.2-2-1.7c-0.8-0.6-2.3-1.5-3.1-2.3c-0.2-0.2-0.4-0.5-0.5-0.7c-0.1-0.3-0.2-0.6-0.1-0.9c0.1-0.5,0.2-0.9,0.4-1.4
			c1-2.3,2.5-4.4,3.9-6.5c0.5-0.8,1.1-1.6,1.7-2.3c0.1-0.1,0.2-0.2,0.4-0.3c0.2-0.1,0.5-0.1,0.8,0c0.6,0.2,1.4,0.8,1.9,1.2
			c0.6,0.4,1.3,0.8,2,1.1c0.4,0.2,0.8,0.3,1.2,0.3c0.4,0,0.9-0.1,1.2-0.3c0.6-0.4,1-0.9,1.5-1.5"/>
	</g>
	<g id="POLYLINE_00000134953563924964690380000000245942630773083783_">
		<path class="st1" d="M291.3,234.7c0.8,1.4,1.6,2.9,2.7,4.1c0.7,0.8,1.6,1.4,2.5,1.8c1.4,0.6,2.8,0.9,4.3,1.1
			c3.2,0.3,6.5,0,9.6-0.8c2.5-0.6,4.9-1.5,7-3c1-0.8,1.9-1.7,2.5-2.9c1.1-2.1,1.2-4.5,1.2-6.9c0-1.5-0.1-5.2-0.1-6.7
			c0-1.4-0.1-2.8-0.3-4.2"/>
	</g>
	<g id="POLYLINE_00000096035720501611758150000011394204144974215078_">
		<path class="st1" d="M320.8,232.4c0.4,0.6,0.6,1.3,1,1.8c0.2,0.4,0.5,0.7,0.9,0.9c0.8,0.6,1.7,0.9,2.6,1.1c1.9,0.5,4,0.7,6,0.9
			c4.1,0.3,8.4,0.4,12.5,0.1c1.4-0.1,2.8-0.3,4.2-0.7c1.4-0.5,2.7-1.3,3.8-2.4c1.2-1.2,2.2-2.6,2.9-4.1"/>
	</g>
	<g id="POLYLINE_00000021094220907994387900000017316456908422460567_">
		<path class="st1" d="M278.2,110.2c-0.1,2.7-0.1,5.4,0.3,8.1c0.3,2.1,0.9,4.1,1.7,6.1c1.3,3.5,3.2,7.5,3.4,11.3
			c0.1,2.1-0.2,4.8-0.3,6.9c-0.1,1.6-0.1,3.2,0.1,4.8c0.7,5.4,2.8,11.2,3.9,16.6c0.4,1.8,0.7,3.8,0.7,5.6c0.1,2-0.2,4.1-0.5,6.1
			c-0.4,2.5-1.1,6.1-1.4,8.7c-0.6,6.2-0.6,12.7-0.4,18.9c0.2,4.8,0.7,12.6,0.5,17.2c-0.1,2.7-0.4,5.5-1,8.1c-0.7,3.4-2.8,8.6-4,11.9
			c-1.2,3.3-2.3,6.7-3.1,10.1c-1,4.5-1.7,9.3-2.1,13.9c-0.4,3.9-0.7,9.2-1.2,13.1c-0.3,2-0.6,4-1.1,5.9c-0.7,2.5-1.6,5-2.6,7.4
			c-2.3,5.4-4.8,11.3-7.6,16.5c-1.8,3.3-4,6.8-5.4,10.4c-0.9,2.5-1.5,5.1-1.8,7.7c-0.5,3.8-0.6,10.4-0.8,14.3
			c-0.2,4.6-0.6,9.6-1.2,14.2c-0.6,4.5-1.4,9.2-3.1,13.4c-0.5,1.3-1.1,2.6-1.9,3.8c-0.7,1.1-1.5,2.4-1.9,3.6
			c-0.6,1.9-0.2,3.9-0.6,5.8c-0.2,0.8-0.5,1.5-0.8,2.1c-0.4,0.7-0.9,1.4-1.4,2.1c-1.1,1.4-2.7,3.6-3.7,5.1c-0.8,1.1-1.7,2.3-2.6,3.3
			c-1.3,1.5-3.8,4.1-5.1,5.5c-1,1.1-2.1,2.3-3,3.6c-0.5,0.8-1,1.7-1.1,2.7c-0.1,0.8-0.1,1.6,0,2.4c0,0.2,0.1,0.4,0.2,0.6
			c0.1,0.1,0.3,0.2,0.4,0.3c0.3,0.1,0.7,0.1,1,0c0.6-0.1,1.2-0.2,1.7-0.3c0.5-0.1,1.9-0.4,2.3-0.6c0.3-0.1,0.7-0.2,1-0.4
			c1.2-0.7,2.8-1.7,4.1-2.3c2.7-1.4,5.8-2.3,8.7-3.1c3.7-1,9-2,12.4-3.6c0.9-0.4,1.7-1,2.4-1.7c0.6-0.6,1-1.4,1.2-2.2
			c0.4-1.4,0.4-2.8,0.4-4.2c-0.1-2.2-0.3-5,0-7.1c0.2-0.9,0.5-1.9,0.8-2.7c0.6-1.5,1.4-2.9,1.6-4.5c0.3-2.4-0.1-5.2,0.1-7.6
			c0.1-2.3,0.6-4.5,1.2-6.7c0.9-2.9,2.1-5.9,3.3-8.8c1.3-3.2,2.9-6.4,4.6-9.3c2-3.3,4.4-6.9,5.7-10.4c1-2.7,1.6-5.6,2-8.4l0.9-6.6
			c0.2-1.5,0.5-3,0.9-4.5c0.4-1.2,0.9-2.4,1.5-3.5c2.8-4.8,5.1-10.2,7.2-15.3c1.3-3.1,2.6-6.4,3.5-9.6c0.4-1.4,0.9-3.8,1.3-5.3
			c0.3-1.2,0.7-2.3,1.3-3.4c0.5-0.9,1.1-1.7,1.7-2.5c1.4-1.7,3.8-4.5,5.1-6.3c3.8-5,7-10.6,9.3-16.5c1.1-2.7,2-5.5,2.6-8.3
			c0.5-2.3,0.9-4.7,1.1-7"/>
	</g>
	<g id="POLYLINE_00000056389118652500418260000018234227467342077570_">
		<path class="st1" d="M259,147.2l1.3-0.9c1.1-0.8,2.2-1.7,3-2.9c0.8-1.2,1.8-3,2.5-4.3c0.7-1.2,1.5-2.4,2.4-3.5
			c3.3-4,8.4-7.5,12.1-11.1"/>
	</g>
	<g id="POLYLINE_00000119092415966718951890000011190496616632174245_">
		<path class="st1" d="M362.6,220.9c0.2-2.4,0.2-4.9,0-7.4c-0.8-7.3-3.4-15.4-5.5-22.4c-0.5-1.7-0.9-3.5-1.2-5.3
			c-0.3-1.9-0.3-4-0.7-5.9c-0.6-3.4-1.9-6.7-3.2-9.9c-0.7-1.7-2-4.6-2.6-6.4c-0.3-0.9-0.5-1.9-0.5-2.9c0-1.5,0.5-3,1.1-4.4
			c0.9-2.1,2-4.4,2.6-6.6c0.7-2.5,1.2-5.8,1.8-8.3c0.3-1.2,0.7-2.4,1.1-3.5c0.7-1.7,2.2-4.2,3.1-5.9c1.9-3.4,2.9-7.2,3.8-11"/>
	</g>
	<g id="POLYLINE_00000015352102505334460040000012719742081369246125_">
		<path class="st1" d="M361.9,238c0.3-2.1,0.8-4.2,1.9-6c0.7-1.2,1.6-2.2,2.6-3.1c1.5-1.4,3.2-2.6,5-3.7c1.4-0.9,3.2-1.7,4.1-3.1
			c0.6-0.9,0.9-1.9,1-2.9c0.3-1.5,0.2-3,0.1-4.5c-0.4-3.3-2-6.9-3.1-10c-1.2-3.2-2.3-6.6-3.1-10c-0.7-3-1-6.1-1.2-9.2
			c-0.1-2.7,0-6-0.1-8.7c0-1.2-0.3-2.5-0.7-3.6c-1-2.7-2.6-5.6-3.5-8.4c-1.5-4.3-3.2-10.8-4.4-15.2c-1.4-5.1-2.5-10.4-3.1-15.6"/>
	</g>
	<g id="POLYLINE_00000058590895855295491100000013192558371347609268_">
		<path class="st1" d="M358.4,249c-0.4-0.6-0.8-1.1-1-1.7c-0.2-0.5-0.2-1-0.2-1.5c0-0.5,0.1-1.1,0.2-1.6c0.4-2,1.2-4.4,1.6-6.4
			c0.7-3.1,1.3-6.3,1.3-9.4c0-1.1,0-2.2-0.1-3.3c-0.3-2.1-0.9-4.3-1.4-6.3c-1.1-4-2.5-8.2-4-12.1c-2.1-5.4-4.6-10.8-7.4-15.8
			c-2.4-4.3-5.2-8.5-8-12.4l-10.7-14.6c-5.4-7.6-10.4-15.8-14.6-24.1c-3.4-6.7-6.5-13.8-8.8-21c-2-6.1-3.8-13.8-6.1-19.8
			c-1.4-3.7-3.1-7.4-5-10.8c-1.1-2.1-2.4-4.2-3.8-6.1c-0.4-0.6-0.9-1.1-1.4-1.6c-0.4-0.3-0.8-0.6-1.3-0.8c-0.6-0.2-1.3-0.2-1.9-0.2
			c-1,0.1-1.9,0.5-2.9,0.8c-2.2,0.9-4.2,2.2-6.1,3.6c-2.2,1.8-4,3.9-5.8,6c-2.6,3.4-5,7-6.6,10.9c-0.7,1.7-1.8,4.4-2.7,6
			c-0.7,1.3-1.6,2.5-2.5,3.7c-1.1,1.4-3.4,4-4.3,5.4c-1.3,1.9-3.2,5.1-4.5,6.9c-1.4,2.1-3.4,4.1-4.9,6.2c-0.9,1.3-1.7,2.7-2.1,4.2
			c-0.5,1.6-0.7,3.2-0.8,4.9c-0.1,2.2,0.1,4.4,0.5,6.5c0.3,1.5,0.8,3.1,1.5,4.4c0.5,1,1.3,1.9,2.3,2.5c0.9,0.5,2,0.7,3.1,0.7
			c1.6,0,3.3-0.4,4.9-0.8c1.5-0.4,3.1-0.9,4.5-1.5c1.3-0.5,2.6-1.1,3.8-1.8c1.4-0.9,2.7-2.1,3.5-3.5c0.9-1.4,1.4-3.1,1.9-4.7
			l0.2-0.6l1.6-6.1"/>
	</g>
	<g id="POLYLINE_00000031170307113715010720000008394033310352359076_">
		<path class="st1" d="M372.7,241.2c-0.3-0.5-0.6-1.1-1.1-1.5c-0.4-0.4-0.8-0.7-1.3-1c-0.8-0.4-1.7-0.7-2.6-0.7
			c-0.6,0-1.2,0.2-1.6,0.5c-0.9,0.6-1.5,1.5-2.3,2.2c-0.1,0.1-0.3,0.2-0.5,0.3l0,0l0,0l0,0l0,0l0,0l0,0l0,0h0h0h0h0h0h0h0l0,0l0,0
			l0,0l0,0l0,0l0,0l0,0l0,0l0,0l0,0c-0.2-0.1-0.4-0.3-0.5-0.5c-0.4-0.7-0.5-1.6-0.7-2.4c-0.4-1.8-0.6-3.8-0.3-5.6
			c0.1-0.4,0.1-0.7,0.2-1.1c0.2-0.9,0.4-1.8,0.6-2.7c0.3-1.9,0.5-3.9,0.3-5.8c-0.2-3.3-1-6.6-1.8-9.8c-1.5-5.5-3.5-11.2-5.5-16.6
			c-1.7-4.5-3.7-8.9-5.9-13.2c-2.5-5.1-11.4-19.9-14.4-25.1c-2.8-4.9-6-10.4-8.4-15.6c-2.9-6.2-6.3-15.8-8.8-22.2
			c-1.7-4.5-5.5-17.1-7-21.7c-2.4-7.3-5.1-14.7-9-21.3c-0.6-0.9-1.2-1.9-2.1-2.6c-0.6-0.4-1.2-0.7-1.9-0.8c-0.6,0-1.2,0-1.7,0.1
			c-1.7,0.3-4.8,1.5-6.5,2.1c-1.4,0.5-2.9,1-4.2,1.7c-0.4,0.2-0.8,0.5-1.2,0.8c-0.3,0.3-0.6,0.6-0.9,0.9l-0.5,0.6"/>
	</g>
	<g id="POLYLINE_00000176013804400069284260000008567489773839591328_">
		<path class="st1" d="M307.2,46.8c0.2,0.4,0.4,0.7,0.7,1c0.3,0.3,0.6,0.5,1,0.7c0.5,0.3,1.1,0.5,1.7,0.5c0.3,0,0.6-0.1,0.8-0.3
			c0.4-0.3,0.6-0.7,0.8-1.1c0.3-0.8,0.4-1.6,0.2-2.5c-0.1-0.6-0.5-1.2-0.8-1.7c-0.1-0.2-0.2-0.4-0.2-0.7c0-0.2-0.1-0.4-0.1-0.6
			c0-0.6,0.1-1.2,0.1-1.7c0-0.4-0.1-0.9-0.2-1.3c-0.1-0.5-0.4-1-0.6-1.4c-0.2-0.3-0.5-0.7-0.8-1c-0.3-0.2-0.6-0.5-1-0.4
			c-0.4,0-0.8,0.3-1.1,0.6c-0.7,0.6-1.3,1.3-2.2,1.5c-0.8,0.2-1.6,0.2-2.4-0.1c-0.6-0.2-1.2-0.5-1.5-1c-0.2-0.4-0.3-0.8-0.3-1.2
			c-0.1-0.6,0-1.4-0.5-1.8c-0.2-0.1-0.4-0.2-0.6-0.3c-0.4-0.1-0.8-0.2-1.2-0.3c-0.8-0.2-1.8-0.2-2.6-0.5c-0.5-0.2-1.1-0.5-1.5-0.9
			c-0.8-0.7-1.4-1.6-1.6-2.7c-0.1-0.7,0-1.3,0.1-2c0.2-1.1,0.5-2.3,0.6-3.5c0.1-1.6-0.1-3.4,0-5c0.1-0.8,0.2-1.5,0.7-2.2
			c0.5-0.6,1.1-1,1.8-1.4c0.7-0.4,1.7-0.8,2.4-1.2c0.4-0.3,0.8-0.6,1.2-0.9c1.1-0.9,2.2-2.1,3.5-2.7c1.3-0.6,2.8-0.4,4.2-0.6
			c1.4-0.2,2.4-1.2,3.6-1.8c0.6-0.3,1.3-0.4,2-0.4c2,0,4,0.8,6,0.4c1.4-0.2,2.8-0.9,4.2-0.9c0.6,0,1.2,0.1,1.8,0.3
			c0.6,0.2,1.5,0.5,2.2,0.6c0.4,0.1,0.9,0.1,1.3,0.1l1.4,0c0.6,0,1.3,0.1,1.8,0.4c0.5,0.3,0.9,0.8,1.3,1.2c0.3,0.3,0.6,0.7,1,0.9
			c0.7,0.3,1.5,0.3,2.3,0.4c0.6,0,1.2,0.1,1.7,0.4c0.6,0.3,1.2,0.7,1.6,1.2c0.7,0.8,1.2,1.7,1.6,2.6c0.2,0.6,0.6,1.5,0.8,2
			c0.2,0.4,0.4,0.8,0.7,1.1l1,1.4c0.3,0.5,0.7,1,0.9,1.5c0.1,0.4,0.2,0.7,0.3,1.1c0.2,0.9,0.2,1.9,0.5,2.7c0.4,0.9,1.1,1.7,1.6,2.6
			c0.2,0.3,0.3,0.6,0.4,0.9c0.2,0.5,0.2,1.1,0.2,1.6l0.1,1.8c0,1.5,0.6,3.2,0.7,4.7c0.1,0.7,0,1.4-0.4,2c-0.3,0.6-0.8,1.1-1.1,1.6
			c-0.2,0.3-0.3,0.5-0.4,0.8c-0.1,0.4-0.1,0.8-0.1,1.2c0.1,0.5,0.2,1.1,0.1,1.6c0,0.3-0.1,0.6-0.3,0.8c-0.5,0.8-1.2,1.6-1.8,2.3
			c-0.2,0.3-0.4,0.7-0.5,1.1c-0.2,0.7,0,1.4,0.2,2.1l0.5,1.6c0.3,0.9,0.5,1.9,0.6,2.9c0,0.5,0.1,1,0,1.4c0,0.2-0.1,0.4-0.2,0.6
			c-0.2,0.3-0.4,0.6-0.6,0.8c-0.2,0.2-0.3,0.4-0.4,0.7c-0.1,0.3-0.2,0.7-0.2,1c-0.1,0.9-0.1,1.8-0.5,2.6c-0.2,0.4-0.6,0.8-0.9,1.1
			L342,64c-0.3,0.3-0.6,0.5-0.8,0.9c-0.3,0.4-0.5,0.9-0.7,1.3c-0.4,0.9-0.7,2-1.4,2.7c-0.7,0.8-1.7,1.3-2.8,1.4
			c-0.4,0-0.9,0-1.3-0.1c-0.9-0.3-1.7-0.7-2.7-0.8c-1.3-0.1-2.7,0.3-4,0.4c-0.6,0.1-1.3,0.1-1.9,0c-0.3,0-0.5-0.1-0.7-0.2
			c-0.2-0.1-0.4-0.3-0.6-0.5c-0.5-0.5-0.8-1.2-1.2-1.8c-0.3-0.4-0.6-0.8-1-1.1c-0.6-0.4-1.2-0.5-1.9-0.7c-0.8-0.2-1.8-0.3-2.6-0.6
			c-0.2-0.1-0.5-0.3-0.6-0.4c-0.5-0.5-0.6-1.2-0.7-1.9c-0.1-0.8-0.2-1.9-0.6-2.6c-0.2-0.4-0.5-0.8-0.8-1.2c-0.4-0.5-1-1-1.3-1.5
			c-0.2-0.4-0.4-0.8-0.4-1.2c0-0.8,0.3-1.7,0.4-2.5c0-0.3,0.1-0.7,0-1c-0.2-0.6-0.6-1.1-1-1.6c-0.3-0.3-0.6-0.7-0.7-1.1
			c-0.3-0.6-0.4-1.2-0.4-1.9"/>
	</g>
	<g id="POLYLINE_00000130604416584938524530000011253470156443525537_">
		<path class="st1" d="M378.7,241c-1.7-0.2-3.4-0.3-5.1,0c-1.1,0.2-2.3,0.5-3.3,1.1c-1.3,0.8-2.3,2.3-3.2,3.5
			c-0.6,0.8-1.3,1.6-2.2,2.1c-0.7,0.4-1.5,0.6-2.3,0.8c-1.6,0.3-3.5,0.3-5.1,0.8c-0.5,0.1-0.9,0.3-1.3,0.7c-0.4,0.3-0.6,0.8-0.6,1.3
			c-0.1,1.1,0.5,2.1,1.2,2.8c0.7,0.8,1.5,1.4,2.4,2c0.9,0.6,1.9,1.1,2.9,1.4c1.8,0.6,3.8,0.5,5.7,0.2c1.5-0.2,3.1-0.5,4.5-1.1
			c1.2-0.5,2.3-1.1,3.2-2.1c1.6-1.9,2-4.5,3-6.7c0.5-1.2,1.5-2.3,2.3-3.4c0.8-1.1,1.5-2.3,2.1-3.5c1.2-2.7,2.5-6,3.7-8.6
			c0.7-1.6,1.8-3.3,2.7-4.8c0.4-0.7,0.8-1.4,1.1-2.1c0.2-0.5,0.4-1.1,0.4-1.6c0.1-0.8-0.1-1.6-0.3-2.3l-0.5-2
			c-0.2-0.8-0.3-1.6-0.3-2.5c0-1.7,0.5-4.5,0.7-6.1c0.7-5.5,0.5-11.1,0.2-16.6c-0.5-7.1-1.2-14.4-2.8-21.3c-0.5-2-1.1-3.9-2-5.7
			c-0.7-1.6-1.8-3.2-2.4-4.8c-0.5-1.1-0.8-2.3-1-3.5c-1-5.1-1.3-12.2-2.1-17.3c-0.4-2.8-1.3-7-1.3-9.8c0-1.7,0.1-4.8,0.1-6.5
			c0-1.5-0.1-3-0.3-4.5c-0.3-2.9-0.9-5.9-1.7-8.7c-0.8-2.7-1.8-5.4-3.1-7.9c-1.8-3.4-4.3-6.4-7.2-8.7c-3.4-2.9-8.2-5.1-12-7.3
			c-3.5-2-7-4.9-10.5-7.1c-1.7-1-3.9-2.2-5.4-3.5c-0.5-0.5-0.9-1-1.2-1.6c-0.2-0.4-0.3-0.9-0.3-1.3c-0.1-1.2,0-3.2-0.1-4.5"/>
	</g>
	<g id="POLYLINE_00000080886862295940454090000008491617802901482163_">
		<path class="st1" d="M298.3,74.1c2.3-0.7,5.3-2.1,7.5-3c0.5-0.2,1-0.5,1.5-0.9c0.3-0.2,0.7-0.5,0.9-0.9c0.2-0.3,0.3-0.7,0.4-1.1
			c0.1-0.7,0.1-1.6,0.1-2.3c0.1-2.5,0.9-5.2,1.5-7.5"/>
	</g>
	<g id="POLYLINE_00000114782551250118815690000015731236990005386149_">
		<path class="st1" d="M308.7,66.8c-0.7,0.1-1.5,0.1-2.2-0.2c-0.7-0.3-1.2-0.9-1.4-1.6c-0.1-0.4-0.1-0.9-0.2-1.3
			c0-1,0.1-2.2-0.1-3.3c-0.3-1.5-1.2-3-1.7-4.4c-0.2-0.5-0.4-1-0.5-1.6c-0.1-0.4-0.2-1-0.4-1.4c-0.1-0.1-0.1-0.2-0.2-0.3
			c-0.1-0.1-0.3-0.1-0.4-0.1c-0.2,0-0.5,0-0.7-0.1l0,0l0,0l0,0c-0.1-0.1-0.2-0.2-0.2-0.4c-0.1-0.3-0.1-0.6-0.2-0.8
			c-0.1-1.6,0.1-3.8,0.1-5.3c0-1.4,0.1-2.9-0.2-4.3c-0.1-0.3-0.2-0.7-0.3-1c-0.2-0.4-0.5-0.8-0.7-1.1c-1.2-1.8-1.7-4-1.8-6.1"/>
	</g>
	<g id="POLYLINE_00000020369942627281183140000013324868556547858348_">
		<path class="st1" d="M320.9,235.5c0.8,3.3,1.3,6.8,1.7,10.1c0.3,3.1,0.6,6.4,0.7,9.5c0.1,3.6-0.4,11.8-0.6,15.5
			c-0.3,9.2-0.3,20.2-0.1,29.4"/>
	</g>
	<g id="POLYLINE_00000154387699945295370470000008250513641732696987_">
		<path class="st1" d="M341,351.5c2.3-5.6,4.2-11.4,5.6-17.2c1.3-5.4,2.1-11,2-16.6c-0.1-6.1-1.2-13.2-1.6-19.2
			c-0.2-3.7-0.1-7.5,0.4-11.3c0.5-3.4,1.3-6.8,2.4-10.1l5.1-15.2c0.7-2.2,1.6-5.3,2.3-7.6"/>
	</g>
	<g id="POLYLINE_00000000218101150104602530000000145060458494119094_">
		<path class="st1" d="M360.9,427.6c0.7,0,1.5,0,2.2-0.1c0.2,0,0.5-0.1,0.7-0.2c0.2-0.1,0.4-0.2,0.5-0.3c0.1-0.1,0.2-0.3,0.2-0.5
			c0.1-0.3,0.1-0.7,0.1-1.1c0-0.5-0.3-3.2-0.3-3.8c-0.1-0.6-0.6-7.9-0.7-8.3c-0.1-1.2-0.3-2.5-0.5-3.7c-0.1-0.6-0.2-1.2-0.4-1.7
			c-0.2-0.5-0.5-1.1-1-1.4c-0.3-0.2-0.7-0.3-1.1-0.4c-0.9-0.2-2.7-0.4-3.7-0.5c-1.3-0.1-2.6-0.4-3.8-0.7c-1.6-0.4-3.2-0.9-4.7-1.4
			c-1.4-0.5-3.1-1.4-4.5-2c-0.7-0.3-1.4-0.5-2.1-0.7c-0.7-0.1-1.4-0.2-2.2-0.2c-1.8,0-3.6,0.2-5.3,0.5c-1.8,0.3-4.1,0.7-5.9,0.9
			c-1.8,0.2-4,0.4-5.9,0.6c-1.4,0.1-3.6,0.1-5,0.3c-1.4,0.1-2.8,0.4-4.2,0.8c-1.1,0.3-2.8,0.9-3.9,1.1c-1.2,0.3-2.5,0.2-3.8,0.2
			c-3.5-0.2-9.9-0.8-13.4-0.8c-1.9,0-4.1,0.4-6,0.6c-2.4,0.3-4.9,0.3-7.3,0.4c-1.8,0-6,0-7.7,0c-0.4,0-0.9-0.1-1.2-0.3
			c-0.3-0.2-0.6-0.4-0.8-0.7c-1-1.1-2.1-2.7-3.1-3.7c-0.7-0.7-1.4-1.4-2.3-1.8c-1-0.5-2.2-0.7-3.3-0.5"/>
	</g>
	<g id="POLYLINE_00000062887230333594881260000017132530444368422067_">
		<path class="st1" d="M230.9,408.4c-0.6,0.4-1.3,0.8-1.8,1.3c-0.2,0.1-0.3,0.3-0.4,0.5c-0.1,0.2-0.2,0.3-0.2,0.5
			c-0.1,0.5,0,0.9,0.1,1.4c0.6,2.4,1.2,6.4,1.6,8.9c0.3,1.6,0.6,3.2,1.2,4.7c0.2,0.5,0.4,1.1,0.7,1.5c0.1,0.1,0.2,0.2,0.3,0.3
			c0.1,0.1,0.2,0.1,0.4,0.1l128.3,0"/>
	</g>
	<g id="POLYLINE_00000083061570659210812440000017485792541400020635_">
		<path class="st1" d="M296,404.5c3.3-4.8,5.1-10.4,6.8-15.9c1.1-4.2,6.1-21.1,7-25c0.3-1.4,0.6-2.8,0.7-4.2
			c0.1-0.9,0.1-1.9,0.1-2.9c-0.1-1.2-0.2-2.4-0.5-3.6l-0.6-3.1c-0.2-1.2-0.4-2.4-0.4-3.6c0-1.7,0.2-3.3,0.5-5c0.4-2.2,1-4.9,1.2-7.1
			c0.2-2.3,0.1-4.7-0.3-7c-0.3-1.7-1.2-3.6-1.8-5.2c-0.3-0.9-0.6-1.8-0.6-2.7c0-1.9,0.9-3.7,1.4-5.5c0.5-1.7,0.5-3.6,0.3-5.3
			c-0.2-1.6-0.6-3.3-1.3-4.8c-0.9-1.9-2.3-3.9-3.1-5.9c-0.5-1.1-0.8-2.3-0.4-3.5c0.3-1.4,1.4-2.4,2.5-3.3c1.4-1.1,2.9-2,4.6-2.6
			c0.7-0.2,1.5-0.4,2.3-0.3c0.7,0.2,1.3,0.6,1.8,1.2c0.6,0.6,1.1,1.4,1.6,2.1c1.8,2.8,3.7,6.7,5.6,9.4c0.3,0.4,0.6,0.8,1,1.1
			c0.2,0.1,0.4,0.2,0.7,0.2c0.9,0.1,2,0.1,2.9,0.1c0.8,0,3.3-0.1,4,0c0.5,0,0.9,0.1,1.3,0.4c0.2,0.2,0.4,0.4,0.5,0.7
			c0.2,0.4,0.2,0.9,0.3,1.3c0.2,1.6,0.9,5.6,1.2,7.2c0.1,0.5,0.2,1.1,0.2,1.7c0,0.2,0,0.3,0,0.5c0,0.2-0.1,0.3-0.1,0.5
			c-0.1,0.2-0.2,0.3-0.3,0.5c-0.8,1.1-2.4,2.9-3.1,4c-0.5,0.7-1,1.5-1.3,2.4c-0.3,0.9-0.3,1.9-0.1,2.8c0.3,1.4,0.9,2.8,1.6,4
			c0.9,1.7,2.2,3.6,2.8,5.4c0.6,1.7,0.9,3.4,0.9,5.2c0,1.4-0.3,2.8-0.4,4.1c-0.1,0.8,0,1.5,0.2,2.3c0,0.2,0.3,1.9,0.4,2l0.2,1.4
			c0.1,0.8,0.3,1.8,1.1,2.3c0.4,0.3,1,0.4,1.5,0.5c1.3,0.1,2.6,0,3.9-0.2c0.6-0.1,2.7-0.4,3.2-0.5c0.8-0.1,1.6-0.1,2.4,0.2
			c1,0.4,1.8,1.3,2.4,2.2c1.2,1.6,2.2,3.5,3,5.4c0.6,1.4,1.2,2.9,1.5,4.4c0.1,0.5,0.1,1-0.1,1.5c-0.1,0.4-0.4,0.7-0.7,1
			c-0.4,0.4-1,0.8-1.4,1.3c-0.8,0.7-1.5,1.5-2.1,2.3c-0.8,1.1-1.6,2.3-2.1,3.5c-0.4,1-0.7,2.1-0.9,3.2c-0.2,1.8-0.2,3.6,0.1,5.3
			c0.3,2.3,0.8,4.7,1.5,7c1.1,3.7,2.5,7.4,4.3,10.8c1.3,2.5,3,4.8,4.8,6.9"/>
	</g>
	<g id="POLYLINE_00000131343572867995719440000010875873728714759862_">
		<path class="st2" d="M360.9,427.6c0.9,0,1.9,0.1,2.7-0.2c0.3-0.1,0.6-0.3,0.8-0.6c0.1-0.2,0.2-0.5,0.2-0.7c0.1-1-0.2-3.5-0.3-4.5
			c-0.3-3.5-0.6-9.4-1.3-12.9c-0.1-0.5-0.3-1.1-0.6-1.5c-0.1-0.2-0.3-0.4-0.5-0.6c-0.2-0.2-0.5-0.3-0.8-0.4
			c-0.9-0.3-1.9-0.4-2.8-0.5c-1.8-2.1-3.5-4.5-4.8-6.9c-1.8-3.3-3.1-6.8-4.2-10.3c-0.7-2.3-1.2-4.7-1.6-7c-0.3-1.9-0.4-3.8-0.1-5.6
			c0.1-1.1,0.4-2.1,0.8-3.1c0.5-1.1,1.1-2.2,1.8-3.2c0.7-1,1.5-1.9,2.4-2.8c0.5-0.5,1-0.9,1.5-1.3c0.3-0.3,0.6-0.6,0.7-1
			c0.2-0.5,0.2-1,0.1-1.4c-0.1-0.7-0.3-1.3-0.5-1.9c-0.3-1.1-0.8-2.1-1.3-3.1c-0.9-1.9-1.9-3.9-3.3-5.5c-0.6-0.7-1.3-1.3-2.2-1.6
			c-0.4-0.1-0.9-0.2-1.3-0.2c-0.3,0-0.6,0-0.9,0.1c-1.3,0.2-3.2,0.5-4.5,0.6c2.3-5.6,4.2-11.4,5.6-17.2c1.3-5.4,2.1-11,2-16.6
			c-0.1-6.1-1.2-13.2-1.6-19.2c-0.2-3.7-0.1-7.5,0.4-11.3c0.5-3.4,1.3-6.8,2.4-10.1l5.1-15.2c0.7-2.2,1.6-5.3,2.3-7.6
			c0.7,0.8,1.6,1.4,2.5,2c1,0.6,2.1,1.1,3.2,1.3c2.2,0.5,4.5,0.2,6.6-0.3c2-0.4,4.2-1.1,5.7-2.6c0.8-0.7,1.3-1.7,1.7-2.6
			c0.7-1.5,1.1-3.3,1.8-4.8c0.5-1.1,1.4-2.1,2.1-3c0.8-1.1,1.5-2.3,2.1-3.5c1.2-2.7,2.5-6,3.7-8.6c0.7-1.6,1.8-3.3,2.7-4.8
			c0.4-0.7,0.8-1.4,1.1-2.1c0.2-0.5,0.4-1.1,0.4-1.6c0.1-0.8-0.1-1.6-0.3-2.3l-0.5-2c-0.2-0.8-0.3-1.6-0.3-2.5
			c0-1.7,0.5-4.5,0.7-6.1c0.7-5.5,0.5-11.1,0.2-16.6c-0.5-7.1-1.2-14.4-2.8-21.3c-0.5-2-1.1-3.9-2-5.7c-0.7-1.6-1.8-3.2-2.4-4.8
			c-0.5-1.1-0.8-2.3-1-3.5c-1-5.1-1.3-12.2-2.1-17.3c-0.4-2.8-1.3-7-1.3-9.8c0-1.7,0.1-4.8,0.1-6.5c0-1.5-0.1-3-0.3-4.5
			c-0.3-2.9-0.9-5.9-1.7-8.7c-0.8-2.7-1.8-5.4-3.1-7.9c-1.8-3.4-4.3-6.4-7.2-8.7c-3.4-2.9-8.2-5.1-12-7.3c-3.5-2-7-4.9-10.5-7.1
			c-1.7-1-3.9-2.2-5.4-3.5c-0.5-0.5-0.9-1-1.2-1.6c-0.2-0.4-0.3-0.9-0.3-1.3c-0.1-1.2,0-3.2-0.1-4.5c0.7-0.3,1.3-0.7,1.8-1.3
			c0.6-0.7,0.9-1.8,1.3-2.6c0.2-0.5,0.4-0.9,0.7-1.3c0.2-0.3,0.5-0.6,0.8-0.9l0.7-0.6c0.4-0.3,0.7-0.7,0.9-1.1
			c0.4-0.8,0.4-1.7,0.5-2.6c0-0.4,0.1-0.7,0.2-1c0.1-0.3,0.3-0.5,0.4-0.7c0.2-0.2,0.5-0.5,0.6-0.8c0.1-0.2,0.2-0.4,0.2-0.6
			c0.1-0.5,0.1-1,0-1.5c-0.1-1-0.4-1.9-0.6-2.8l-0.5-1.6c-0.2-0.7-0.4-1.4-0.2-2.1c0.1-0.4,0.3-0.7,0.5-1.1c0.5-0.8,1.3-1.5,1.8-2.3
			c0.1-0.3,0.2-0.5,0.3-0.8c0.1-0.5,0-1.1-0.1-1.6c0-0.4-0.1-0.8,0.1-1.2c0.1-0.3,0.3-0.6,0.4-0.8c0.4-0.6,0.9-1.1,1.2-1.7
			c0.3-0.6,0.4-1.2,0.3-1.8c-0.1-1.6-0.7-3.2-0.7-4.8l-0.1-1.8c0-0.5-0.1-1.1-0.2-1.6c-0.1-0.4-0.3-0.7-0.4-1
			c-0.5-0.8-1.2-1.6-1.5-2.5c-0.3-0.9-0.3-1.9-0.5-2.8c-0.2-0.9-0.6-1.7-1.2-2.5l-1-1.4c-0.3-0.4-0.5-0.7-0.7-1.1
			c-0.3-0.5-0.6-1.4-0.8-2c-0.4-1-0.9-1.9-1.6-2.6c-0.5-0.5-1-0.9-1.6-1.2c-0.5-0.2-1.1-0.3-1.7-0.4c-0.7-0.1-1.6,0-2.3-0.4
			c-0.4-0.2-0.7-0.5-1-0.9c-0.4-0.4-0.8-0.9-1.3-1.2c-0.6-0.3-1.2-0.3-1.8-0.4l-1.4,0c-0.5,0-1-0.1-1.5-0.2
			c-0.9-0.2-1.9-0.6-2.8-0.8c-0.7-0.2-1.5-0.1-2.2,0.1c-0.8,0.2-1.9,0.6-2.7,0.7c-0.5,0.1-1.1,0.2-1.6,0.1c-1.2,0-2.7-0.4-3.8-0.5
			c-0.5-0.1-1.1-0.1-1.6,0c-1.3,0.2-2.3,1.2-3.4,1.8c-0.4,0.2-0.9,0.3-1.3,0.4c-1.1,0.1-2.2,0-3.3,0.3c-0.7,0.2-1.2,0.5-1.8,0.9
			c-0.9,0.7-1.8,1.6-2.8,2.3c-0.5,0.4-1.1,0.7-1.6,1c-0.8,0.4-1.8,0.8-2.6,1.4c-0.4,0.3-0.8,0.7-1,1.1c-0.5,0.9-0.5,2-0.5,3.1
			c0,1.5,0.2,3.2,0,4.7c-0.1,0.9-0.4,2-0.5,2.9c-0.1,0.6-0.1,1.2,0,1.8c0.2,1.2,1,2.3,2.1,2.9c0.6,0.4,1.4,0.6,2.1,0.8
			c0.1,2.1,0.7,4.3,1.8,6.1c0.2,0.4,0.5,0.7,0.7,1.1c0.1,0.3,0.2,0.7,0.3,1c0.3,1.4,0.2,2.9,0.2,4.3c0,1.6-0.2,3.8-0.1,5.3
			c0,0.3,0.1,0.6,0.2,0.8c0.1,0.1,0.1,0.3,0.2,0.4l0,0l0,0l0,0c0.2,0.1,0.5,0.1,0.7,0.1c0.1,0,0.3,0,0.4,0.1
			c0.1,0.1,0.2,0.2,0.2,0.3c0.2,0.4,0.3,0.9,0.4,1.4c0.1,0.5,0.3,1.1,0.5,1.6c0.6,1.4,1.5,2.9,1.7,4.4c0.2,1,0.1,2.2,0.1,3.3
			c0,0.4,0,0.9,0.2,1.3c0.1,0.3,0.3,0.7,0.5,0.9c0.2,0.3,0.6,0.5,0.9,0.6c0.7,0.3,1.4,0.4,2.2,0.2c0,0.9-0.1,1.9-0.6,2.7
			c-0.3,0.4-0.8,0.7-1.2,1c-0.5,0.3-1,0.5-1.5,0.7c-2.1,0.9-4.9,2.2-7.1,2.8c-0.6-0.1-1.2-0.1-1.8,0c-1.9,0.3-4.9,1.5-6.8,2.1
			c-1.4,0.5-2.9,1-4.2,1.7c-0.4,0.2-0.8,0.5-1.2,0.8c-0.3,0.3-0.6,0.6-0.9,0.9l-0.5,0.6c-2.2,0.9-4.2,2.1-6,3.6
			c-2.2,1.8-4,3.9-5.8,6c-2.6,3.4-5,7-6.6,10.9c-0.7,1.7-1.8,4.4-2.7,6c-0.7,1.3-1.6,2.5-2.5,3.7c-1.1,1.4-3.4,4-4.3,5.4
			c-1.3,1.9-3.2,5.1-4.5,6.9c-1.4,2.1-3.4,4.1-4.9,6.2c-0.9,1.3-1.7,2.7-2.1,4.2c-0.5,1.6-0.7,3.2-0.8,4.9c-0.1,2.2,0.1,4.4,0.5,6.5
			c0.3,1.5,0.8,3.1,1.5,4.4c0.5,1,1.3,1.9,2.3,2.5c0.9,0.5,2,0.7,3.1,0.7c1.6,0,3.3-0.4,4.9-0.8c1.5-0.4,3.1-0.9,4.5-1.5
			c1.3-0.5,2.6-1.1,3.8-1.8c1.4-0.9,2.7-2.1,3.5-3.5c0.9-1.4,1.4-3.1,1.9-4.7l0.2-0.6l1.6-6.1c3-3,6.7-5.7,9.8-8.6
			c1.3,3.5,3.1,7.3,3.3,11c0.1,2.1-0.2,4.8-0.3,6.9c-0.1,1.5-0.1,3,0.1,4.5c0.6,5.5,2.8,11.4,3.9,16.9c0.4,1.8,0.7,3.8,0.7,5.6
			c0.1,2-0.2,4.1-0.5,6.1c-0.4,2.5-1.1,6.1-1.4,8.7c-0.6,6.2-0.6,12.7-0.4,18.9c0.2,4.8,0.7,12.6,0.5,17.2c-0.1,2.7-0.4,5.5-1,8.1
			c-0.7,3.4-2.8,8.6-4,11.9c-1.2,3.3-2.3,6.7-3.1,10.1c-1,4.5-1.7,9.3-2.1,13.9c-0.4,3.9-0.7,9.2-1.2,13.1c-0.3,2-0.6,4-1.1,5.9
			c-0.7,2.5-1.6,5-2.6,7.4c-2.3,5.4-4.8,11.3-7.6,16.5c-1.8,3.3-4,6.8-5.4,10.4c-0.9,2.5-1.5,5.1-1.8,7.7
			c-0.5,3.8-0.6,10.4-0.8,14.3c-0.2,4.6-0.6,9.6-1.2,14.2c-0.6,4.5-1.4,9.2-3.1,13.4c-0.5,1.3-1.1,2.6-1.9,3.8
			c-0.7,1.1-1.5,2.4-1.9,3.6c-0.6,1.9-0.2,3.9-0.6,5.8c-0.2,0.8-0.5,1.5-0.8,2.1c-0.4,0.7-0.9,1.4-1.4,2.1c-1.1,1.4-2.7,3.6-3.7,5.1
			c-0.8,1.1-1.7,2.3-2.6,3.3c-1.3,1.5-3.8,4.1-5.1,5.5c-0.9,1-1.9,2.1-2.7,3.2c-0.4,0.6-0.8,1.2-1.1,1.9c-0.2,0.5-0.3,1.1-0.4,1.6
			c-0.1,0.7,0,1.4,0.1,2c0,0.3,0.1,0.5,0.3,0.7c0.1,0.1,0.3,0.2,0.5,0.2c0.3,0,0.7,0,1,0c-0.6,0.4-1.3,0.8-1.8,1.3
			c-0.2,0.1-0.3,0.3-0.4,0.5c-0.1,0.2-0.2,0.3-0.2,0.5c-0.1,0.5,0,0.9,0.1,1.4c0.6,2.4,1.2,6.4,1.6,8.9c0.3,1.6,0.6,3.2,1.2,4.7
			c0.2,0.5,0.4,1.1,0.7,1.5c0.1,0.1,0.2,0.2,0.3,0.3c0.1,0.1,0.2,0.1,0.4,0.1L360.9,427.6z"/>
	</g>
	<g id="POLYLINE_00000055706370881309647290000000619526267575692475_">
		<path class="st2" d="M362.6,220.9c0.2-2.4,0.2-4.9,0-7.4c-0.8-7.3-3.4-15.4-5.5-22.4c-0.5-1.7-0.9-3.5-1.2-5.3
			c-0.3-1.9-0.3-4-0.7-5.9c-0.6-3.4-1.9-6.7-3.2-9.9c-0.7-1.7-2-4.6-2.6-6.4c-0.3-0.9-0.5-1.9-0.5-2.9c0-1.5,0.5-3,1.1-4.4
			c0.7-1.6,1.7-3.7,2.2-5.3c0.5-1.3,0.8-2.8,1.1-4.1c0.5-2.4,1-5.6,1.9-7.9c0.6-1.7,1.6-3.5,2.5-5.1c0.5,5.3,1.7,10.5,3.1,15.6
			c1.3,4.4,3,10.9,4.4,15.2c0.9,2.8,2.5,5.7,3.5,8.4c0.4,1.2,0.6,2.4,0.7,3.6c0.1,2.7-0.1,6,0.1,8.7c0.1,3.1,0.5,6.2,1.2,9.2
			c1,4.6,2.8,9.4,4.6,13.9c0.8,2.1,1.4,4.2,1.7,6.4c0.2,1.5,0.2,3-0.1,4.5c-0.2,1-0.5,1.9-1,2.7c-0.9,1.4-2.7,2.2-4.1,3.1
			c-1.8,1.1-3.5,2.3-5,3.7c-1,0.9-1.9,1.9-2.6,3.1c-1.1,1.8-1.6,3.9-1.9,6c-0.3-1.6-0.5-3.3-0.4-4.9c0.1-1.2,0.5-2.3,0.7-3.5
			c0.3-1.5,0.5-3,0.6-4.5C362.9,223.7,362.8,222.3,362.6,220.9z"/>
	</g>
	<g id="POLYLINE_00000092450458209044805690000012601559142173199006_">
		<path class="st2" d="M322.5,300.1c-2-3.1-3.9-7.3-6.2-10.1c-0.4-0.5-0.9-1-1.4-1.4c-0.4-0.2-0.8-0.4-1.2-0.4
			c-0.9-0.1-1.7,0.2-2.5,0.5c-1.8,0.8-3.5,1.8-4.9,3.2c-0.6,0.6-1.2,1.3-1.5,2.2c-0.3,0.7-0.3,1.5-0.1,2.3c0.1,0.7,0.4,1.3,0.7,2
			c0.7,1.6,1.9,3.5,2.7,5c0.6,1.1,1,2.4,1.2,3.6c0.2,1.1,0.4,2.3,0.4,3.4c0,1,0,2-0.3,2.9c-0.3,1.4-1,2.9-1.3,4.3
			c-0.2,1-0.3,1.9-0.1,2.9c0.4,2,1.5,4,2.1,6c0.7,2.6,0.8,5.3,0.5,7.9c-0.2,2.2-0.8,4.9-1.2,7.1c-0.3,1.6-0.5,3.3-0.5,5
			c0,1.2,0.2,2.4,0.4,3.6l0.6,3.1c0.2,1.2,0.4,2.5,0.5,3.7c0,1.1,0,2.3-0.2,3.4c-0.2,1.9-0.7,3.8-1.2,5.6
			c-1.6,5.5-6.1,22.4-7.9,27.6c-1.3,3.9-3,7.8-5.3,11.2c-1.6-0.1-3.3-0.2-4.9-0.1c-1.4,0-3.7,0.4-5.1,0.6c-2.4,0.3-4.9,0.3-7.3,0.4
			c-1.8,0-6,0-7.7,0c-0.4,0-0.9-0.1-1.2-0.3c-0.3-0.2-0.6-0.4-0.8-0.7c-1-1.1-2.1-2.7-3.1-3.7c-0.7-0.7-1.4-1.4-2.3-1.8
			c-1-0.5-2.2-0.7-3.3-0.5c4.1-1.8,4.7-4.1,4.6-8.3c-0.1-2.2-0.3-5,0-7.1c0.2-0.9,0.5-1.9,0.8-2.7c0.6-1.5,1.4-2.9,1.6-4.5
			c0.3-2.4-0.1-5.2,0.1-7.6c0.1-2.3,0.6-4.5,1.2-6.7c0.9-2.9,2.1-5.9,3.3-8.8c1.3-3.2,2.9-6.4,4.6-9.3c2-3.3,4.4-6.9,5.7-10.4
			c1-2.7,1.6-5.6,2-8.4l0.9-6.6c0.2-1.5,0.5-3,0.9-4.5c0.4-1.2,0.9-2.4,1.5-3.5c2.8-4.8,5.1-10.2,7.2-15.3c1.3-3.1,2.6-6.4,3.5-9.6
			c0.4-1.4,0.9-3.8,1.3-5.3c0.3-1.2,0.7-2.3,1.3-3.4c0.5-0.9,1.1-1.7,1.7-2.5c1.4-1.7,3.8-4.5,5.1-6.3c3.8-5,7-10.6,9.3-16.5
			c1.1-2.7,2-5.5,2.6-8.3c0.5-2.3,0.9-4.7,1.1-7c0.8,3.3,1.3,6.8,1.7,10.1c0.3,3.1,0.6,6.4,0.7,9.5c0.1,3.6-0.4,11.8-0.6,15.5
			C322.4,279.9,322.4,290.8,322.5,300.1z"/>
	</g>
	<g id="POLYLINE_00000043414863398903395080000008270074675382577809_">
		<path class="st2" d="M120.4,116.5l1,1.9c0.5,1,1.1,1.9,1.8,2.8c1.1,1.4,3.5,3.7,4.8,5c0.9,1,1.9,2,2.6,3.2
			c0.7,1.1,1.3,2.6,1.8,3.8c0.6,1.4,1.4,2.7,2.3,3.9c1.1,1.4,2.3,2.7,3.5,4c1.5,1.4,3,2.8,4.8,3.9c1.3,0.8,2.8,1.5,4.3,2
			c1.8,0.6,3.6,1.2,5.5,1.4c0.9,0.1,1.8,0.1,2.6-0.1c1.8-0.5,2.5-2.4,3-4c0.2-0.7,0.4-1.5,0.8-2.2c0.6-1.1,1.4-2.1,1.6-3.4
			c0.2-1.1-0.1-2.2-0.5-3.3c-0.3-0.9-0.8-2.3-1-3.2c-0.2-0.9-0.3-2.3-0.4-3.2c-0.1-0.9-0.3-1.7-0.6-2.5c-0.5-1.3-1.4-2.5-2.3-3.7
			c-1-1.2-2.2-2.4-3.4-3.4c-1-0.8-2.4-1.7-3.5-2.5c-0.7-0.5-1.4-1-2.1-1.6c-1.7-1.6-3.5-4.1-5-6c-0.9-1.1-2.1-2.4-3-3.5
			c-0.3-0.3-0.5-0.7-0.7-1.1c-0.4-0.6-0.6-1.3-0.7-2c-0.2-1-0.5-2.1-0.9-3.1c-0.5-1.4-1.2-2.8-1.9-4.1c-1.1-2-2.3-4-3.6-5.8
			c-1.1-1.6-2.4-3.1-3.8-4.5c-1.5-1.5-3.1-2.9-4.8-4.1c0.4-1.1,0.1-2.3-0.4-3.3c-1-2-2.8-3.6-4.8-4.6c-1.7-0.9-3.5-1.5-5.3-1.9
			c-1.4-0.3-2.9-0.6-4.4-0.5c-0.5,0-1.1,0.1-1.6,0.3c-0.7,0.3-1.2,0.8-1.8,1.3c-0.8,0.7-1.8,1.8-2.7,2.4c-0.2,0.1-0.4,0.2-0.6,0.2
			c-0.2,0-0.5,0-0.7-0.1c-0.3-0.1-0.8-0.3-1.1-0.5c-1.2-0.6-2.5-0.9-3.8-1.1c-0.6-0.1-1.3-0.1-1.9,0.2c-0.2,0.1-0.4,0.3-0.5,0.5
			c-0.2,0.3-0.2,0.6-0.2,0.9c-0.9-1.5-1.5-3.1-2-4.8c-0.4-1.5-0.8-3-0.9-4.5c0.8-0.1,1.5-0.2,2.2-0.5c0.9-0.4,1.7-1.1,2.2-2
			c0.4-0.8,0.6-1.7,0.6-2.5c0.1-0.6,0.1-1.4,0.3-2c0.1-0.5,0.4-1,0.6-1.5c0.1-0.2,0.1-0.3,0.1-0.5c0-0.3,0-0.6-0.1-0.8
			c0-0.1,0-0.3,0-0.4c0-0.1,0.1-0.2,0.1-0.3c0.1-0.2,0.2-0.4,0.3-0.6c0.1-0.3,0-0.6,0-0.9c-0.1-0.7-0.3-1.6-0.3-2.3
			c0-0.1,0-0.2,0-0.3c0,0,0.1-0.1,0.1-0.1c0,0,0.1,0,0.1,0c0.1,0,0.4,0,0.5,0c0.5,0,1.1-0.1,1.6-0.2c0.3-0.1,0.5-0.1,0.8-0.3
			c0.2-0.1,0.3-0.2,0.4-0.4c0.1-0.2,0.2-0.4,0.2-0.5c0.1-0.5,0-1-0.1-1.5c-0.5-2.3-1.3-4.8-1.6-7.2c-0.1-0.5-0.1-1.1-0.1-1.6
			c0-0.4,0.1-0.8,0.3-1.2c0.2-0.4,0.5-0.7,0.7-0.9l0.8-0.7c0.4-0.4,0.7-0.7,1-1.2c0.2-0.5,0.3-1,0.4-1.5c0.4,0,0.8,0,1.2-0.1
			c0.2-0.1,0.4-0.2,0.6-0.3c0.2-0.2,0.3-0.4,0.3-0.6c0.2-0.6,0.2-1.2,0.5-1.7c0.4-0.5,1-0.8,1.6-1.2c0.4-0.3,0.9-0.6,1.1-1.1
			c0.2-0.3,0.2-0.7,0.2-1c0-0.5-0.1-1.1-0.3-1.6c-0.1-0.2-0.2-0.5-0.3-0.7c-0.1-0.2-0.3-0.3-0.4-0.5c-0.1-0.1-0.1-0.2-0.1-0.3
			c0-0.1,0-0.3,0.1-0.4c0.2-0.6,0.6-1.3,0.7-2c0.1-0.7,0-1.4-0.3-2.1c-0.3-0.6-0.7-1.2-1.3-1.6c-0.6-0.5-1.1-0.9-1.4-1.6
			c-0.5-1-0.8-2.3-1.5-3.1c-0.8-0.8-2-0.9-3-0.9c-1.3,0-2.7,0.1-3.9-0.3c-1.2-0.4-2.4-1.2-3.6-1.8c-0.8-0.4-1.6-0.7-2.5-0.9
			c-1.7-0.3-3.4-0.3-5.1,0c-0.9,0.1-2,0.4-2.9,0.4c-0.2,0-0.5,0-0.7,0c-0.2,0-0.5-0.1-0.7-0.2c-0.2-0.1-0.4-0.3-0.6-0.4
			c-0.6-0.5-1.3-1.2-2.2-1.3c-0.8-0.2-1.5,0-2.3,0.2c-0.6,0.2-1.2,0.4-1.7,0.8c-0.2,0.1-0.3,0.2-0.5,0.4c-0.1,0.1-0.2,0.3-0.3,0.5
			c-0.1,0.1-0.2,0.2-0.3,0.3c-0.3,0.1-0.6,0.1-0.9,0.1c-1.6-0.1-3.3-0.4-4.8-0.4c-0.4,0-0.8,0.1-1.2,0.2c-0.3,0.1-0.5,0.3-0.7,0.5
			c-0.3,0.3-0.5,0.7-0.7,1.1c-0.2,0.3-0.3,0.5-0.6,0.7c-0.4,0.3-1,0.4-1.6,0.5c-0.4,0.1-0.8,0.2-1.2,0.4c-0.3,0.2-0.5,0.5-0.7,0.7
			c-0.4,0.6-0.9,1.3-1.3,1.9c-0.3,0.4-0.6,0.8-0.9,1.1c-0.4,0.4-0.9,0.8-1.2,1.2c-0.2,0.2-0.3,0.4-0.4,0.7c-0.2,0.5-0.1,1.1-0.2,1.6
			c0,0.4-0.1,0.8-0.2,1.2c-0.2,0.4-0.4,0.8-0.7,1.1c-0.5,0.6-1.1,1.3-1.4,2c-0.2,0.9,0.1,1.9,0,2.8c0,0.3-0.1,0.5-0.2,0.8
			c-0.2,0.4-0.5,0.7-0.8,1.1c-0.3,0.4-0.8,0.8-1.1,1.2c-0.2,0.2-0.3,0.5-0.4,0.7c-0.1,0.5,0,1.1,0.1,1.6c0.2,0.7,0.4,1.5,0.4,2.2
			c0,0.5-0.2,1-0.3,1.5c-0.2,0.7-0.6,1.5-0.6,2.1c0,0.3,0,0.6,0.2,0.9c0.3,0.6,1,1.1,1.5,1.6c0.3,0.3,0.6,0.6,0.8,1
			c0.2,0.6,0.1,1.2,0,1.8c0,0.3-0.1,0.7,0,1c0.1,0.4,0.2,0.8,0.4,1.2l0.5,1c0.2,0.5,0.4,0.9,0.5,1.4c0,0.3,0,0.6,0,0.9
			c-0.2,1-0.8,2.1-1,3.1c-0.1,0.3-0.1,0.7-0.1,1c0,0.3,0.1,0.5,0.2,0.8c0.4,1.1,1.3,2.1,1.7,3.2c0.2,0.7,0.2,1.4,0.2,2.1
			c0,0.7-0.2,1.6-0.1,2.3c0,0.4,0.1,0.7,0.3,1c0.2,0.3,0.4,0.5,0.6,0.7c0.5,0.4,1.3,0.8,1.9,1.1c0.3,0.2,0.7,0.4,0.9,0.6
			c0.2,0.2,0.2,0.5,0.3,0.7c0.1,0.4,0.3,0.7,0.6,1c0.4,0.4,0.8,0.7,1.3,1c-0.2,4.3-1.2,8.8-4.3,11.9c-1.3,1.3-3.1,2.2-4.8,3L48.1,85
			C47,85.5,46,86,45,86.6c-1.4,0.9-3.1,2.3-4.5,3.2c-1.1,0.7-2.3,1.3-3.5,1.8c-1.7,0.7-4,1.5-5.5,2.5c-1.4,0.8-2.7,1.9-3.7,3.1
			c-2.2,2.4-3.8,5.4-5.1,8.4c-1.4,3.4-2.2,7.1-2.6,10.8c-0.2,2.6-0.3,5.3,0,7.9c0.1,0.9,0.2,1.9,0.4,2.8c0.1,0.7,0.5,2.2,0.6,2.9
			c0.1,0.8,0.2,1.5,0,2.3c-0.2,1.6-1,3.6-1.4,5.1c-0.7,2.3-1.1,4.7-1.4,7c-0.7,5-0.4,10.9-0.6,15.9c-0.1,2.5-0.3,5-1.1,7.4
			c-0.5,1.5-1.2,3.2-1.2,4.8c0,1.6,0.4,3.2,0.4,4.8c0,0.8-0.1,1.6-0.2,2.3c-0.3,1.3-0.6,2.8-0.7,4.1c-0.3,3.1-0.3,6.4-0.2,9.6
			c0.1,4,0.4,8.1,1,12c0.4,3.1,1.4,8.1,1.7,11.2c0.1,1.1,0.2,2.2,0.1,3.2l-0.1,2.4c0,0.9,0,1.8,0.2,2.7c0.3,1.4,1.1,3,1.6,4.3
			c0.3,0.7,0.5,1.4,0.5,2.2c0.1,0.9,0,1.8,0.1,2.7c0.3,1.5,1.3,3.2,2,4.7c0.6,1.1,1,2.4,1.2,3.6c0.3,1.1,0.5,2.7,1,3.7
			c0.3,0.6,0.8,1,1.2,1.4c1.2,1,2.7,1.9,3.9,2.8c1.1,0.9,2.2,2,3.1,3.1c0.5,0.6,1,1.3,1.5,2c0.3,0.5,0.7,1.2,1,1.7
			c0.4,0.8,0.9,1.6,1.7,2.1c0.7,0.5,1.6,0.7,2.4,0.9c1.6,0.3,3.3,0.3,5,0.1c1.5-0.2,3.2-0.5,4.3-1.7c1,3.9,2.1,8,3.4,11.7
			c0.7,1.8,1.4,3.6,2.4,5.3c0.6,0.9,1.3,1.9,1.5,2.9c0.1,0.4,0.1,0.7,0.1,1.1c-0.1,1.3-0.5,3.1-0.6,4.4c-0.4,2.6-0.4,5.2-0.1,7.7
			c0.1,1.3,0.5,2.8,0.8,4c0.6,2.6,0.3,5.3-0.1,7.9c-0.5,3.1-1.2,6.7-1.4,9.8c-0.2,2.5-0.1,5.1,0.2,7.7c0.5,4.3,1.7,8.6,3,12.7
			c2.1,6.3,4.8,12.8,7.5,18.8c-0.4,0.5-0.9,1.1-1.5,1.5c-0.4,0.2-0.8,0.4-1.2,0.3c-0.4,0-0.8-0.2-1.2-0.3c-0.7-0.3-1.3-0.7-2-1.1
			c-0.6-0.4-1.3-0.9-1.9-1.2c-0.3-0.1-0.5-0.1-0.8,0c-0.2,0.1-0.3,0.2-0.4,0.3c-0.6,0.7-1.2,1.5-1.7,2.3c-1.4,2.1-2.8,4.2-3.9,6.5
			c-0.2,0.4-0.4,0.9-0.4,1.4c0,0.3,0,0.6,0.1,0.9c0.1,0.3,0.3,0.5,0.5,0.7c0.7,0.7,2.2,1.7,3.1,2.3c0.7,0.5,1.4,1.1,2,1.7
			c0.6,0.6,1.2,1.4,1.7,2.1c0.8,1.3,1.5,2.7,1.8,4.2c0.3,1.8,0.3,3.6,0.2,5.4c-0.3,4.7-1.6,9.3-3,13.7c-0.5,1.4-1,3.1-1.6,4.5
			c-0.4,0.9-1.4,3.5-1.7,4.4c-0.1,0.5-0.3,1-0.3,1.5c0,0.4,0.1,0.8,0.2,1.1c0.2,0.4,0.5,0.8,0.8,1.1c-0.5,0.1-1,0.2-1.4,0.5
			c-0.2,0.2-0.4,0.4-0.4,0.7c-0.1,0.3-0.1,0.6-0.2,1c-0.4,5.6-0.7,12.2-0.7,17.7c0,0.4,0,0.9,0.1,1.3c0,0.1,0,0.2,0.1,0.3
			c0.1,0.1,0.2,0.2,0.3,0.2c0.5,0.2,1.2,0.2,1.8,0.2l114.5,0c0.3,0,0.7,0,1,0c0.5,0,1.1-0.1,1.5-0.5c0.6-0.4,0.8-1.2,1-1.8
			c0.4-1.4,0.7-3.1,0.9-4.5c0.2-1.6,0.5-3.5,0.7-5.1c0-0.5,0.1-1.1,0.1-1.6c0-0.2,0-0.3-0.1-0.5c0-0.2-0.1-0.4-0.3-0.5
			c-0.2-0.2-0.5-0.3-0.7-0.3c-0.3-0.1-0.6-0.1-0.9-0.1c-1.6-0.2-3.8-0.1-5.5-0.2c1.7,0,3.4-0.1,5-0.4c0.9-0.2,1.9-0.5,2.6-1.2
			c0.4-0.3,0.6-0.7,0.8-1.2c0.2-0.4,0.2-0.9,0.2-1.3c0-1,0.1-2.1-0.1-3c-0.1-0.3-0.2-0.6-0.3-0.9c-0.3-0.4-0.8-0.7-1.1-1
			c-0.8-0.6-1.4-1.4-2-2.2c-1.1-1.4-3.7-5.1-4.7-6.5c-1.3-1.7-5-6.3-6.3-8c-0.7-1-1.6-2-2.2-3.1c-0.1-0.3-0.2-0.5-0.3-0.8
			c-0.1-0.5,0-1,0.1-1.5c0.2-1.1,0.4-2.5,0.3-3.6c0-0.6-0.2-1.1-0.4-1.7c-0.4-1.1-1.4-2.4-2-3.4c-0.6-1-1.1-2-1.6-3.1
			c-0.5-1.2-0.9-2.5-1.2-3.8c-0.5-2.1-0.8-4.2-1-6.3c-0.3-2.7-0.2-8.6-0.3-11.4c-0.2-6-0.5-13.1-1.1-19.1c-0.2-2.2-0.6-4.4-1.2-6.6
			c-1.1-4-3-7.7-5.1-11.2c-1.9-3.1-4-6.3-6.3-9.1l-1.7-2c-0.4-0.5-0.9-1.1-1.2-1.7c-0.5-1.1-0.8-2.2-1-3.4c-0.3-1.5-0.6-3.3-1-4.8
			c-0.3-1.1-0.7-2.1-1.1-3.2l-1.5-3.2c-0.8-1.7-1.4-3.5-1.7-5.4c-0.2-1-0.3-2.2-0.4-3.2c-0.2-2.4-0.3-7.7-0.4-10.1
			c-0.4-7.5-1.3-15.2-2.8-22.5c-0.9-4.3-1.9-8.7-3.5-12.9c-0.5-1.4-1.7-4.5-2.1-5.9c-0.3-0.9-0.4-1.8-0.5-2.8
			c-0.3-3.4-0.2-7.2-0.1-10.5c0-2.1,0.3-7,0.1-9.1c-0.1-1.1-0.2-2.2-0.5-3.2c-0.3-1.4-0.8-3-1-4.4c-0.3-2.2,0.5-4.4,0.6-6.6
			c0.4-6.5-2.4-13.4-3.3-19.8c-0.1-0.8-0.1-1.7-0.1-2.5c0.1-0.8,0.2-1.7,0.4-2.5c1-4.1,2.1-9.3,2.9-13.5c0.9-4.9,1.8-10.2,2.2-15.2
			C120.3,128.5,120.2,121.7,120.4,116.5z"/>
	</g>
	<g id="POLYLINE_00000152947136390441858030000008169686648779826610_">
		<path class="st2" d="M41.2,135.8c0.5,1.2,1.1,2.7,1.8,3.8c0.8,1.4,2.7,3.9,3.7,5.2c0.8,1.1,1.7,2.4,2.1,3.7
			c0.3,0.7,0.3,1.6,0.4,2.4c0.1,0.9,0.3,1.7,0.6,2.5c1,2.6,2.5,5.1,3.9,7.5c0.1,0.1,0.1,0.2,0.2,0.4c0,0.1,0,0.2,0,0.3
			c-0.1,1.2-0.6,2.5-0.9,3.6c-0.7,2.1-1.5,4.3-2.6,6.2c-0.9,1.6-2.2,3.6-2.7,5.3c-0.4,1.3-0.5,2.6-0.5,3.9c-0.1,1.5-0.1,3.9-0.3,5.3
			c-0.1,0.9-0.3,1.8-0.5,2.7c-0.7,2.6-1.9,5.3-2.2,8.1c-0.2,2.1-0.1,4.5-0.3,6.5c-0.1,1.1-0.2,2.2-0.5,3.3c-0.7,2.8-1.9,5.8-2.3,8.7
			c-0.7,5.5,0.5,11.2,1.4,16.6l-1.3-1.2c-1.4-1.3-2.9-3.1-4.5-4.1c-0.7-0.5-1.6-0.7-2.4-1c-0.2-0.1-0.5-0.2-0.7-0.4
			c-0.2-0.2-0.4-0.3-0.5-0.5c-0.3-0.4-0.5-0.8-0.6-1.2c-0.7-1.9-1.6-4-2-6c-0.3-1.8-0.3-3.5,0.1-5.3c0.6-2.8,2.2-6.9,3.1-9.7
			c0.5-1.4,0.9-2.8,1.2-4.2c0.3-1.4,0.5-2.8,0.5-4.1c0.1-3.3-0.6-7.6-0.9-10.9c-0.2-1.6-0.7-5-0.9-6.6c-0.1-0.5-0.1-1.1-0.1-1.6
			c0-0.9,0-1.8,0.2-2.7c0.3-1.4,0.8-2.8,1.4-4.1c1.4-3.2,3.2-7.1,4-10.5C40.8,150.8,40.4,142.9,41.2,135.8z"/>
	</g>
	<g id="POLYLINE_00000099627731500461090160000002283639654909597882_">
		<path class="st2" d="M82.1,238.8c0.8,4.4,2.1,8.8,4,12.9c3.6,7.6,9.6,15.4,13.9,22.6c0.9,1.6,1.8,3.3,2.5,5.1
			c1.1,2.7,3.1,9.9,3.9,12.8c0.9,2.8,1.8,5.6,3.3,8.2c1.6,2.8,4.3,5.8,6.4,8.3c0.5,0.6,1.1,1.3,1.4,2.1c0.4,0.9,0.5,1.9,0.7,2.8
			l1.1,7.9c1,6.3,2.7,12.6,5.8,18.2c1.8,3.3,4.6,6.6,6.5,9.9c0.7,1.3,1.3,2.6,1.9,4c1.6,4.1,4.2,11.3,5.6,15.4
			c0.5,1.6,1.1,3.2,1.1,4.9c0,1.3-0.3,3-0.4,4.3c-0.1,0.8-0.1,1.6,0.1,2.4c0.1,0.5,0.3,1.1,0.6,1.5c0.3,0.5,0.6,1,0.9,1.4
			c0.2,0.3,0.3,0.6,0.3,1c0.1,0.9,0,2.9,0.1,3.8c0,1.2,0.1,2.4,0.2,3.5c0.2,1.3,0.6,2.5,1.4,3.5c0.7,0.9,1.6,1.5,2.6,2.1l1.7,0.9
			c0.8,0.4,1.5,0.9,2.1,1.5c1,1.1,1.6,2.5,2.2,3.9l1.2,3.2c0.5,1.4,1.2,2.8,2.2,3.8c0.4,0.4,0.8,0.8,1.4,1c0.6,0.3,1.3,0.3,2,0.3
			c-4.1-0.1-27.6,0.2-31.1-0.3c-0.5-0.1-1.1-0.2-1.6-0.5c-0.3-0.2-0.4-0.4-0.6-0.7c-0.4-0.6-1.1-0.8-1.7-1c-0.7-0.2-1.4-0.3-2.1-0.3
			c-2.7-0.3-5.9-0.3-8.6-0.3c-5.2-9.6-10.4-19.9-14.6-30c0.1-0.5,0.2-1,0.2-1.5c0-1.2-0.2-2.6-0.3-3.8c-0.2-1.4-0.3-2.8-1.1-4
			c-0.7-1.1-2-1.6-3.2-1.7c-0.8-2.2-1.6-4.6-2.1-6.9c-0.3-1.3-0.5-2.7-0.5-4.1c0-0.8,0.1-1.6,0.4-2.4c0.3-0.9,0.7-1.7,1.2-2.5
			c0.7-1.1,1.6-2.3,1.9-3.5c0.2-0.7,0.3-1.5,0.3-2.3c-0.1-1.4-0.5-2.7-1.1-3.9c-0.9-1.9-2.2-3.6-3-5.6c-0.8-1.7-1.1-3.6-1.3-5.5
			c-0.1-1-0.1-2-0.1-3c0.1-3,0.5-7.5,0.5-10.6c0.1-2.8,0.1-9.3,0.4-12c0.1-0.7,0.2-1.3,0.4-2c0.4-1.5,1.7-2.7,2.6-3.8
			c0.4-0.5,0.8-0.9,1-1.5c0.1-0.3,0.1-0.6,0-1c-0.1-0.2-0.2-0.4-0.4-0.6c-0.6-0.8-1.7-1.7-2.3-2.5c-0.3-0.3-0.5-0.6-0.7-0.9
			c-0.1-0.2-0.2-0.5-0.3-0.8c0-0.3,0-0.6,0.1-0.9c0.1-0.5,0.2-1,0.2-1.5c0-0.4-0.1-0.8-0.3-1.2c-0.3-0.8-0.9-1.4-1.4-2.1
			c-0.5-0.5-1-1.1-1.6-1.4c-0.4-0.3-0.9-0.5-1.5-0.5c-0.3,0-0.7,0-1,0.2c-0.5,0.2-0.9,0.6-1.3,1c-1.4,1.5-2.6,3.2-3.7,4.9
			c-0.1-2-0.6-4.8-0.6-6.8c-0.1-1.6,0.3-4.1,0.5-5.7c0.3-2.5,0.4-5,0.1-7.5c-0.2-1.8-0.6-4.7-0.6-6.4c0-1.3,0.1-2.6,0.2-3.9
			c0.3-2.2,0.8-5.5,1-7.7C81.7,248.8,81.9,243.5,82.1,238.8z"/>
	</g>
	<script  xmlns=""></script>
</g>
</svg>
