<?xml version="1.0" encoding="utf-8"?>
<!-- Generator: Adobe Illustrator 28.4.1, SVG Export Plug-In . SVG Version: 6.00 Build 0)  -->
<svg version="1.1" id="Layer_1" xmlns="http://www.w3.org/2000/svg" xmlns:xlink="http://www.w3.org/1999/xlink" x="0px" y="0px"
	 viewBox="0 0 750 750" style="enable-background:new 0 0 750 750;" xml:space="preserve">
<style type="text/css">
	.st0{fill:none;}
	.st1{fill:none;stroke:#5a4813;stroke-width:2.25;stroke-linecap:round;stroke-linejoin:round;stroke-miterlimit:10;}
	.st2{fill:none;stroke:#5a4813;stroke-width:3;stroke-linecap:round;stroke-linejoin:round;stroke-miterlimit:10;}
</style>
<g id="SELECT">
	<g name="suit">
		<polygon id="suit" class="st0" points="284.7,187.2 299.3,196.9 336.6,210.4 351.3,248.3 356.7,316.9 353,358.3 341.6,412.4 
			333.1,409.8 323.5,367.5 324.1,356.4 329.7,329.5 320.2,287.9 316.2,318.9 323.2,358.2 321.7,369.5 332.2,408.8 326.2,423.1 
			306.2,434.6 284.3,432.5 274.4,424.3 258.1,358.3 237.5,410.9 226.1,422.6 212.2,423.4 193.8,411.8 188.5,400.1 202.8,347.8 
			207.7,305 205.2,281.5 198.9,319.4 196.9,345.2 198.9,357.6 188.5,397.7 182.7,406.5 171,366.8 169.9,292 180.4,231.6 
			194.2,209.7 234.2,193.3 241.8,187.3 246.5,221.7 259.7,306.4 281.8,215 		"/>
	</g>
	<g name="bow tie">
		<polygon id="bow_tie" class="st0" points="279.9,197.1 263.5,202.7 246.1,200.9 249.2,221.7 253.7,221.7 263.3,212.2 268,211.1 
			272.4,215.3 279.9,220.2 283.3,206.7 		"/>
	</g>
	<g name="shirt">
		<polygon class="st0" points="244.2,186.3 260.2,201.1 257.3,202.1 246.1,200.9 244.9,204.6 241.8,187.3 		"/>
		<polygon class="st0" points="265.3,202.1 284.7,187.2 282.8,205.3 279.9,197.1 		"/>
		<polygon class="st0" points="259.7,306.4 279.9,220.2 268,211.1 263.3,212.2 253.7,221.7 249.2,221.7 246.1,218.7 		"/>
	</g>
	<g name="pants">
		<polygon class="st0" points="193.8,411.8 203.8,471 206.4,549.8 203.5,567.8 210.2,650.1 214.8,652.3 237.1,649.9 245.9,480.1 
			259.5,424.6 270.9,452.5 281.6,520.9 287.3,541.2 290.7,592.3 287.1,622.1 292.3,651.9 317.1,652.9 323.5,575.4 326.2,423.1 
			306.2,434.6 284.3,432.5 274.4,424.3 258.1,358.3 237.5,410.9 226.1,422.6 212.2,423.4 		"/>
	</g>
	<g name="shoes">
		<polygon class="st0" points="237.1,649.9 217.7,653.7 210.2,650.1 206.2,660.4 190.6,666.2 192.4,674.2 237.7,675.4 		"/>
		<polygon class="st0" points="317.1,652.9 293.6,654.7 291.4,674.8 321.1,674.8 		"/>
	</g>
	<g name="dress">
		<polygon class="st0" points="452.5,263.3 458.7,257.5 476.6,252.5 503.5,255.4 528.6,250.4 554.7,250 568.6,256.6 567.1,274.9 
			549.8,268.9 547,277.9 545.3,300.7 541.9,313.8 548.2,336.2 548.4,388.8 542.3,403.2 546.2,421.5 546.8,439.2 554.3,441.6 
			579.2,669.8 570.8,674.8 530.8,673 510.8,668.6 471.7,675.4 448.9,674.1 447.7,671 464.3,444.5 458.1,402 459.1,367 469.2,327.9 
			472.4,305.3 466.7,277.6 464.8,272.9 452.8,279.7 		"/>
	</g>
</g>
<g id="AG-PEOPLE">
	<g id="POLYLINE_573_">
		<path class="st1" d="M497.5,194c1.1,1.7,2.2,3.4,3.7,4.8c1.3,1.2,2.8,2.3,4.3,3.2c3.3,2,7,3.5,10.7,4.4c2.9,0.7,6,0.9,8.8,0
			c1.6-0.5,3.2-1.5,3.8-3.2c0.5-1.4,0.2-3,0.6-4.4c0.2-0.7,0.6-1.4,0.9-2.1c0.4-0.8,0.4-1.4,0.4-2.2c0-1.8,1.5-3.2,2.5-4.6
			c1.4-1.9,2.4-3.9,2.4-6.3c0-3.4-1.4-6.6-1.4-9.9c0-1.9,0.4-3.8,0.5-5.6s0-3.6-0.4-5.4c-0.9-5.2-3-12.6-8.9-14.2
			c-3.1-0.9-6.6-0.1-9.7,0.4c-1.9,0.3-3.9,0.6-5.8,0.7c-1.8,0.1-3.6-0.1-5.4,0c-1.5,0.1-2.9,0.5-3.6,2s-0.7,3.3-0.9,4.9
			c-0.2,1.5-0.3,3-0.8,4.4c-0.6,1.6-1.5,3-2.3,4.5c-1.2,2.5-0.6,4.9-0.3,7.5c0.2,1.7,0.4,3.5,0.2,5.2c-0.1,0.8-0.3,2.7-1.5,1.8
			c-1.4-1.1-2.2-2.9-3.3-4.3c-0.9-1.1-1.8-2-3-2.8c-1.4-0.9-3-1.3-4.4-0.4c-1.4,0.9-2.1,2.5-2,4.2c0.2,3.2,2.3,6.4,4.1,8.9
			c1.5,2.1,3.4,4,6.1,3.8c1-0.1,1.9-0.3,2.8-0.8"/>
	</g>
	<g id="POLYLINE_572_">
		<path class="st1" d="M484.3,172.4c-1.9-5.5-3.2-12.3-1.1-17.9c1.7-4.6,5.7-9.1,10.4-10.9c5.9-2.3,12.6-0.2,18.7-1.5
			c2.7-0.6,5.2-1.5,8-1.5c2.3,0,4.6,0.5,6.7,1.5c2.1,1,4.1,2.6,4.9,4.8c0.5,1.2,0.5,2.5,0.6,3.8c0.2,1.9,0.4,3.7,0.7,5.6
			c0.1,0.7,0.2,1.5,0.2,2.2"/>
	</g>
	<g id="POLYLINE_571_">
		<path class="st1" d="M482.5,157.6c-1.4,0.4-3.8,0.6-4.8-0.6c-0.6-0.7-0.7-1.6-1.5-2.1c-0.9-0.5-2-0.7-3-1.1
			c-0.9-0.4-1.8-0.8-2.1-1.8c-0.3-0.9-0.2-1.9,0.1-2.8c0.3-0.9,0.9-1.6,1.4-2.4c0.5-0.8,0.2-1.6-0.2-2.4c-0.8-1.9-2-3.4-1.6-5.6
			c0.3-1.5,1-3.3,2.6-3.8c0.8-0.3,1.8-0.1,2.6-0.6c0.7-0.4,0.9-1.3,1.2-2.1c0.3-0.9,0.5-1.9,1.1-2.7c0.8-1,1.9-1,2.8-1.7
			c1.7-1.3,1.1-3.9,3.8-4.1c0.9-0.1,1.8,0,2.7-0.3c1-0.3,1.9-1,2.8-1.6c1-0.6,2-0.9,3.1-0.6c1,0.2,1.9,0.7,2.9,0.9
			c2.2,0.5,3.1-1.8,4.7-2.8c1.6-1.1,3.7-0.1,5.4,0.2c0.6,0.1,1.2,0.1,1.8,0c0.8-0.1,1.8-0.6,2.6-0.4c0.8,0.2,1,1.2,1.3,1.8
			c0.5,1,1.2,1.4,2.3,1.6c1.5,0.2,3.7-0.3,4.9,0.8c1.5,1.3,0.6,4,2.4,5c0.8,0.4,1.7,0.5,2.5,0.8c1,0.4,1.2,1,1.3,2
			c0.1,1.1,0.2,1.9,1.1,2.6c0.7,0.5,1.5,0.8,1.5,1.8s-0.4,1.8,0.2,2.6c0.9,1.1,2,1.7,2,3.3c0,0.8-0.2,1.7-0.4,2.5"/>
	</g>
	<g id="POLYLINE_570_">
		<path class="st1" d="M546.4,294.1c0.6,5.8,1.2,11.7,1.5,17.6c0.3,6,0.2,12,0.2,18c0,4.7,0.2,9.5,0.3,14.2
			c0.2,7.1,0.4,14.2,0.6,21.3c0.1,5.3,0.2,10.6,0.1,15.8c-0.1,2.6-0.2,5.2-0.7,7.8c-0.5,2-1.3,3.7-2.4,5.4c-2.6,4.2-4,8.8-3.6,13.8
			c0.4,4.1,3,7.5,3.6,11.6c0.8,5.5,0.3,11.1,0.5,16.6c0,1,0,2.1,0.3,3c0.4,1.3,1.5,1.9,2.8,2.1c1.7,0.2,3.6-0.2,5.2-0.8
			c4.5-1.7,6.3-6,7.2-10.4c1-5,1.3-10.1,0.9-15.2c-0.2-3-0.6-6.1-1-9.1c-0.3-2.4-0.7-4.9-0.6-7.4c0.1-2.4,0.8-4.6,1.2-6.9
			c0.4-2.6,0.2-5.2,0.2-7.8c-0.1-5.1,0.3-10.1,1-15.1c0.8-6,1.7-12.1,2.2-18.1c0.5-5.7,0.5-11.3,0.2-16.9s-1.1-11.2-0.8-16.8
			c0.2-5.6,0.9-11.1,1.1-16.6c0.2-5.8,0.4-11.7,0.5-17.6c0.1-2.9,0.1-5.8,0.1-8.8"/>
	</g>
	<g id="POLYLINE_569_">
		<path class="st1" d="M548.2,336.2c-1.3-4-3-7.9-4.4-11.8c-1.3-3.6-2.3-7.4-1.8-11.3c0.5-4.3,2.2-8.2,3.3-12.4
			c1-4,1.4-8.1,1.5-12.2c0.2-4.4,0-8.8,0.3-13.2c0.1-1.4,0.2-2.9,0.6-4.3c0.5-1.6,1.6-2.2,3.2-2.2c3.2-0.1,6.5,1.1,9.4,2.3
			c1.8,0.8,3.5,1.7,5.4,2.3c0.5,0.2,1.2,0.5,1.7,0.2s0.4-1.1,0.5-1.7c0.1-4.3,0-8.7-0.4-13c-0.1-1.4-0.4-2.9-1.4-3.9
			s-2.5-1.5-3.9-1.9c-3.9-1.3-7.8-2.1-11.9-2.5c-4.4-0.5-8.8-0.6-13.2-0.6c-4.2,0-8.5,0.3-12.7,0.8s-8.4,1.3-12.5,2.3
			c-3.9,1-7.6,2.4-11.7,2.1c-4.3-0.3-8.6-1.3-12.9-2c-4-0.6-7.9-0.9-11.9-0.6c-3.6,0.3-7.2,1.2-10.6,2.4c-2.1,0.7-4.1,1.6-6.1,2.5
			c-1.6,0.8-3.4,1.6-4.8,2.8c-1.3,1.1-1.4,2.4-1.4,3.9c-0.1,2.4-0.1,4.8-0.2,7.1c0,1.2-0.6,8.9,1.8,8.4c0.7-0.1,1.3-0.9,1.8-1.3
			c0.7-0.7,1.3-1.3,2-1.9c1.4-1.1,3.1-1.8,4.7-2.5c0.8-0.4,1.5-0.8,2.2-1.1c0.5-0.3,1-0.6,1.4,0.1c0.4,0.6,0.4,1.7,0.4,2.4
			c0.1,1.1,0.1,2.3,0.1,3.4c0.1,3.7,0.4,7.2,2,10.6c0.8,1.9,1.8,3.8,2.4,5.8c0.5,1.8,0.8,3.7,1,5.5c0.4,4.1,0.4,8.2,0,12.3
			c-0.4,4.3-1.2,8.6-2.3,12.8c-1.2,4.5-2.8,8.9-4.3,13.3c-1.3,3.8-2.5,7.6-3.4,11.4c-1,4.3-1.8,8.6-2.5,12.9
			c-0.6,4.2-1.1,8.3-1.4,12.5c-0.3,4.4-0.6,8.8-0.6,13.2c0,4.3,0.1,8.6,0.5,12.9s1,8.6,1.9,12.8c0.9,4.3,1.9,8.6,2.7,12.9
			c0.8,4.3,1.3,8.7,1.5,13c0.2,4.2,0.2,8.5-0.1,12.7c-0.2,3.5-0.5,7-0.8,10.6c-0.5,5.1-1,10.2-1.5,15.3c-0.6,5.9-1.1,11.8-1.7,17.7
			c-0.1,1.4-0.3,2.8-0.4,4.2c-0.1,1.9-0.3,3.8-0.4,5.7c-0.3,3.6-0.5,7.1-0.8,10.7c-0.4,4.8-0.7,9.7-1.1,14.5
			c-0.4,5.8-0.8,11.7-1.3,17.5c-0.5,6.4-0.9,12.8-1.4,19.2c-0.5,6.7-1,13.3-1.4,20c-0.5,6.6-1,13.2-1.4,19.9
			c-0.4,6.2-0.9,12.3-1.3,18.5c-0.4,5.4-0.8,10.8-1.2,16.2c-0.3,4.3-0.6,8.6-0.9,12.9c-0.2,2.8-0.4,5.7-0.6,8.5
			c-0.1,1-0.2,2.1-0.2,3.1c-0.1,1.3-0.5,3.5,0.2,4.7s2.6,1.5,3.8,1.8c4.1,0.9,8.3,1,12.5,1c4.3,0,8.5-0.3,12.8-0.9
			c4.3-0.6,8.6-1.4,12.8-2.2c4.3-0.8,8.5-1.7,12.8-2.2c4.2-0.5,8.4-0.6,12.6-0.1c4.3,0.5,8.6,1.6,12.8,2.5c4,0.8,8,1.2,12.1,1.1
			c4.3-0.1,8.6-0.5,13-0.6c4.5,0,9,0.2,13.6,0.1c3.2,0,6.7,0,9.7-1.1c1.6-0.6,2.9-1.7,3.3-3.4c0.3-1.3,0.1-2.7-0.1-4
			c-0.8-4.2-2.2-8.3-3-12.6c-0.7-3.9-1.2-7.9-1.5-11.8c-0.4-4.6-0.6-9.1-1-13.7c-0.4-5.4-0.8-10.9-1.2-16.3c-0.3-3.9-0.7-7.8-1-11.7
			c-0.4-4-0.8-8-1.2-12c-0.5-4.9-1.1-9.8-1.7-14.7c-0.4-3.3-0.7-6.7-1.2-10c-0.4-3-0.8-6.1-1.2-9.1c-0.8-5.7-1.5-11.5-2.3-17.2
			c-0.9-6.6-1.8-13.2-2.7-19.8c-0.7-5.5-1.5-10.9-2.2-16.4c-0.3-2.5-0.7-4.9-1-7.4c-0.5-4.1-1-8.2-1.4-12.4
			c-0.5-4.6-0.9-9.2-1.3-13.9c-0.3-4-0.6-8.1-0.9-12.1c-0.3-4.3-0.5-8.6-0.8-12.9"/>
	</g>
	<g id="POLYLINE_568_">
		<path class="st1" d="M488.7,672.6c0.8,1.6,1.9,2.4,3.7,2.7c1.8,0.2,3.6,0.2,5.3,0.2c2.4,0,4.8,0,7.3,0c1.4,0,3.2,0,4.5-0.6
			c1.7-0.8,1.3-3.5,1.3-5.1"/>
	</g>
	<g id="POLYLINE_567_">
		<path class="st1" d="M533.8,673.5c-1,1.5-2.5,1.8-4.2,1.9c-2,0.1-4.1,0.1-6.2,0.1c-2.1,0-4.1,0-6.2,0c-1.3,0-2.9,0-4-0.7
			c-1.5-0.9-1.1-3.5-1.1-5"/>
	</g>
	<g id="POLYLINE_566_">
		<path class="st1" d="M464.3,447.6c-4.2-2-8-5-11-8.6c-3.2-3.8-5.3-8.1-5.5-13.1c-0.2-3.2,0.1-6.4,0.3-9.6c0.2-2.7,0.1-5.3-0.1-8
			c-0.3-3-0.7-5.9-0.9-8.9c-0.2-3,0.3-5.7,0.8-8.6c0.8-4.9,1-10,1.1-14.9c0.2-8,0.4-15.9,0.6-23.9c0.1-5.1,0.3-10.2,1-15.2
			c0.7-6,2.2-11.8,3.4-17.7c1.2-5.9,1.8-11.8,1.9-17.7c0.1-6-0.1-12-0.5-18c-0.1-1.5-0.2-2.9-0.4-4.4"/>
	</g>
	<g id="POLYLINE_565_">
		<path class="st1" d="M488.5,222.3c0.2,4.3,1.1,8.4,3.5,12c2.5,3.8,6.4,7.3,10.9,8.4c2.9,0.7,5.7,0,8.2-1.5c4.5-2.6,8-7,11-11.2
			c1.5-2.2,2.9-4.5,4.1-6.9c0.6-1.2,1.1-2.4,1.5-3.6c0.3-0.9,1.2-2.5,0.8-3.4c-0.3-0.7-1.2-0.9-1.7-0.4c-0.3,0.3-0.4,0.9-0.5,1.3
			c-0.2,0.6-0.4,1.2-0.6,1.8c-0.9,2.4-2,4.7-3.3,6.8c-2.7,4.6-6.2,9.1-10.4,12.4c-2.8,2.2-6,3.5-9.5,2.3c-3.9-1.4-7.3-4.7-9.4-8.2
			c-1.1-1.8-1.8-3.7-2.2-5.8c-0.2-1-0.3-1.9-0.4-2.9c-0.1-0.8,0.2-1.9-0.7-2.3C489.2,221,488.5,221.5,488.5,222.3z"/>
	</g>
	<g id="POLYLINE_564_">
		<path class="st1" d="M454.6,259.6c-0.6-3.9-0.5-7.8-0.2-11.7c0.3-3.4,0.6-7,2.5-9.9c1.9-2.8,5.1-4.2,8.2-5.2
			c3.9-1.3,7.9-2.4,11.7-3.8c4-1.5,8.2-3.2,11.7-5.9"/>
	</g>
	<g id="POLYLINE_563_">
		<path class="st1" d="M490.3,221.5c2.7-2.7,4.2-6.2,5-9.9c1-4.6,1.1-9.4,0.4-14c-0.4-2.9-1.1-5.8-2.2-8.5"/>
	</g>
	<g id="POLYLINE_562_">
		<path class="st1" d="M522.7,206.9c0.3,2.6,0.6,5.1,2.3,7.2c0.5,0.6,1.1,1.2,1.8,1.7"/>
	</g>
	<g id="POLYLINE_561_">
		<path class="st1" d="M528.4,217.1c3.5,2.4,7.5,4.2,11.5,5.5c4.2,1.4,8.7,1.9,12.9,3.1c3,0.9,5.9,2.3,8,4.6
			c2.3,2.7,3.4,6.2,4.1,9.6c0.8,4.4,1,8.8,1,13.2c0,0.6,0,1.2,0,1.8"/>
	</g>
	<g id="POLYLINE_560_">
		<path class="st1" d="M293.6,653c0,2.3-0.2,4.4-0.8,6.6c-0.6,2.4-1.2,4.8-1.4,7.3c-0.2,1.7-0.3,3.4-0.5,5c-0.1,0.7-0.3,1.6,0,2.3
			c0.7,1.6,4,1.3,5.3,1.3c5.7,0.1,11.4-0.2,17.1-0.1c1.8,0,4.3,0.3,5.8-0.9c1.4-1.1,1.4-3.2,1.3-4.8c-0.2-2.3-0.7-4.5-1.1-6.7
			c-0.6-2.9-1.1-5.9-1.8-8.8c-0.2-0.6-0.3-1.3-0.5-1.9"/>
	</g>
	<g id="POLYLINE_559_">
		<path class="st1" d="M211.6,651.9c-1.4,1.4-2.8,2.8-4,4.3c-0.9,1.2-1.5,2.5-2.6,3.5c-2.4,2.4-6.3,3-9.3,4.2c-2.5,1-4.5,2.6-5,5.4
			c-0.4,2.4,0.4,4.6,2.8,5.4c3.1,1.1,6.8,0.8,10.1,0.8c3.9,0,7.8-0.2,11.7-0.1c4.3,0,8.7,0.2,13,0.2c1.9,0,3.9,0,5.9-0.2
			c1.2-0.1,2.7-0.3,3.8-1.1c1.2-0.8,1.1-2.3,1-3.5c-0.1-2-0.3-4-0.5-6c-0.3-4-0.3-8.1-1-12c-0.2-0.9-0.3-1.9-0.5-2.8"/>
	</g>
	<g id="POLYLINE_558_">
		<path class="st1" d="M193.8,411.4c0.4,4,0.8,8.1,1.6,12.1c0.8,4.4,1.9,8.7,2.9,13c1.8,7.8,3.4,15.6,4.4,23.5
			c1,8.2,1.8,16.4,2.2,24.6c0.6,9.4,0.9,18.9,1.3,28.3c0.3,7.4,0.7,14.9,0.2,22.3c-0.5,8.4-1.9,16.8-2.6,25.2c-0.3,4-0.4,8-0.1,12
			c0.3,4.4,1,8.8,1.6,13.1c0.9,7.1,1.4,14.2,1.5,21.3c0.2,9.3,0.3,18.5,0.8,27.8c0.2,3.9,0.4,8,1.3,11.8c0.6,2.4,1.5,5.1,3.9,6.2
			c2.8,1.3,6.5,1,9.5,0.8c3.7-0.2,7.6-0.4,11.2-1.5c2.6-0.8,4.6-2.3,5.4-5c0.9-3.3,0.5-6.9,0.3-10.2c-0.4-8.1-0.2-16.2,0.2-24.3
			c0.3-5.5,0.6-11,0.9-16.5c0.6-11.7,1.2-23.4,1.8-35c0.6-11.5,1.2-23.1,1.8-34.6c0.3-5.3,0.5-10.6,0.8-15.9
			c0.5-8.3,1.2-16.5,2.1-24.7c1-8.4,2.4-16.8,4.2-25c1.8-8.1,4.1-16,5.9-24.1c0.9-3.9,1.3-8,2.6-11.7c0.1-0.4,0.4-1.3,0.9-1.4
			c0.5,0,0.8,0.9,1,1.3c0.8,1.8,1.3,3.7,1.9,5.6c1.2,3.7,2.9,7.3,4.3,10.9c1.5,3.7,2.5,7.6,3.4,11.5c1.8,8,3,16.1,4.1,24.2
			c1.2,8.7,2.2,17.5,3.3,26.2c1,7.7,2.3,15.4,4.7,22.9c1.2,3.9,2.7,7.7,3.7,11.6c0.9,3.7,0.9,7.4,0.8,11.2
			c-0.1,4.3-0.2,8.5,0.1,12.8c0.2,4,0.6,8,1,12c0.4,4.3,0.9,8.6,1.1,12.9c0.2,3.9-0.1,7.8-0.6,11.8c-1.1,8-2.2,15.9-2,24
			c0.2,8,1.3,16,3.1,23.8c0.6,2.8,1.1,6.4,4.2,7.5c1.2,0.4,2.5,0.5,3.8,0.6c2,0.1,3.9,0.2,5.9,0.3c3.5,0.1,7.3,0.3,10.7-0.8
			c2.5-0.8,3.8-2.5,4.2-5.1c0.6-3.9,0.4-7.9,0.7-11.8c0.3-4.6,0.8-9.2,1.2-13.8c0.7-8.1,1.3-16.2,1.8-24.3c0.5-8.4,0.8-16.7,1-25.1
			c0.2-7.7,0.2-15.4,0.1-23.1c-0.1-8.9-0.2-17.7-0.2-26.6c0-8.5,0.1-17,0.2-25.6c0.1-8.5,0.3-17.1,0.5-25.6c0.2-9,0.5-18,0.8-26.9
			c0.3-7.5,0.8-15.1,1.3-22.6"/>
	</g>
	<g id="POLYLINE_557_">
		<path class="st1" d="M290,143c0.9-0.4,2.5-1.4,3.2-0.2c0.7,1.3,0.3,3.6,0.1,5c-0.4,4.1-1,8.3-2.4,12.3c-0.3,0.8-0.6,1.7-1.2,2.3
			s-1.2,0.4-2,0.1"/>
	</g>
	<g id="POLYLINE_556_">
		<path class="st1" d="M237.3,143c-0.7,0-1.5-0.2-2.1,0.3c-0.6,0.4-0.7,1.2-0.8,1.8c-0.3,1.5-0.2,3.1,0,4.7c0.3,3.9,0.9,8,2.5,11.7
			c0.3,0.7,0.6,1.5,1.3,2s1.4,0.2,2.1-0.2"/>
	</g>
	<g id="POLYLINE_555_">
		<path class="st1" d="M248.7,162.9c-1,0.5-1.9,0.9-2.9,0.1c-0.8-0.6-1.3-1.6-1.8-2.5c-1.3-2.7-2-5.6-2.6-8.5
			c-1.1-6.4-1.3-13-1.1-19.5c0.2-4.7,0.1-12,4.9-14.7c1.8-1,3.9-1.4,5.9-1.4c2.8-0.1,5.4,0.9,8.1,0.9c5.7,0,11.8-2.6,17.5-0.8
			c4.6,1.4,7.9,5.9,9,10.4c1.4,5.7,1.1,12,0.6,17.8c-0.3,3.4-0.6,6.7-1.2,10.1c-0.3,2.2-0.5,5.5-2.5,7c-1.5,1.1-3.7,0.7-5.4,0.2
			c-2.9-0.8-5.4-2.4-8.3-3.3c-5.3-1.5-11.1,0-16.1,2.2C251.6,161.5,250.2,162.2,248.7,162.9z"/>
	</g>
	<g id="POLYLINE_554_">
		<path class="st1" d="M267.9,187.3c-2.4,1-4.9,1.5-7.5,1.1c-3.8-0.6-7.6-2.3-10.5-4.7c-2.7-2.3-4.3-5.4-5.7-8.6
			c-1.8-4-3.3-8.1-4.1-12.5c-0.8-4.5-1-9-1.7-13.5c-0.7-4.4-1.6-8.7-1.9-13.2c-0.3-4.7-0.8-9.5-0.6-14.3c0.2-3.8,0.8-7.7,2.8-10.9
			c2.2-3.5,5.7-5.9,9.4-7.6c4-1.8,8.2-3,12.5-3.7c3.4-0.5,7.2-1,10.5,0c1.3,0.4,2.5,1.2,3.3,2.4c0.9,1.3,1.2,3.2,2.5,4.2
			c1.2,0.9,3.1-0.1,4.4-0.2s2.5,0.4,3.6,1.1c2.5,1.6,4.4,4.2,5.6,6.9c1.5,3.4,1.9,7.1,1.8,10.8c-0.2,4.7-1,9.3-1.7,14
			c-0.7,4.6-1.2,9.3-1.7,13.9c-0.5,4.4-0.8,8.8-1.8,13.2c-0.9,3.7-2.3,7.4-4.6,10.5c-2.5,3.3-5.8,6-9.3,8.2
			C271.6,185.5,269.7,186.5,267.9,187.3z"/>
	</g>
	<g id="POLYLINE_553_">
		<path class="st1" d="M265.1,202.4c0.9-1.3,1.7-2.4,3.1-3.3c1.6-1.1,3.3-2,4.9-3c2.8-1.8,5.4-3.9,7.6-6.4c1.3-1.5,2.5-3,3.7-4.6"/>
	</g>
	<g id="POLYLINE_552_">
		<path class="st1" d="M243.3,183.3c1,1.5,1.7,3,2.5,4.7c0.6,1.4,1.4,2.6,2.4,3.7c2.6,2.7,5.9,4.6,8.8,6.9c1.8,1.5,3.5,3.1,5.2,4.7"
			/>
	</g>
	<g id="POLYLINE_551_">
		<path class="st1" d="M280.9,218.7c-2.2-0.3-4.3-1.2-6.2-2.2c-1.8-0.9-3.6-2-5-3.5c-0.7-0.8-1.2-1.7-1.7-2.7"/>
	</g>
	<g id="POLYLINE_550_">
		<path class="st1" d="M267.2,203c1-1.1,2.1-2.1,3.4-2.8c1.7-0.9,3.5-1.6,5.2-2.2c0.9-0.3,3-1.3,4-0.8c0.5,0.2,0.7,1.1,0.8,1.6
			c0.3,0.9,0.5,1.8,0.8,2.6c0.6,2.3,1.2,4.7,1.8,7"/>
	</g>
	<g id="POLYLINE_549_">
		<path class="st1" d="M262.5,210.8c-1.5,3.6-3.7,7.2-7,9.5c-0.8,0.5-1.7,1-2.6,1.3c-2,0.6-3.3-0.4-4.1-2.2c-1.7-3.6-2.1-8.1-2.4-12
			c-0.1-1.7-0.6-3.9,0-5.6c0.6-1.7,2.7-1.5,4.2-1.3c3.2,0.5,6.4,1.7,9,3.7c0.2,0.2,0.5,0.4,0.7,0.6"/>
	</g>
	<g id="POLYLINE_548_">
		<path class="st1" d="M264.3,211.1c-1.3,0.1-2.1-0.4-2.9-1.5c-0.4-0.6-0.7-1.3-1-1.9c-0.7-2-0.2-3.6,1.7-4.4
			c0.8-0.4,1.7-0.6,2.5-0.8c0.7-0.2,1.6-0.5,2.2,0.1c0.5,0.6,0.7,1.5,0.9,2.3c0.3,1.1,0.6,2.2,0.8,3.2
			C269,210.8,266.3,211,264.3,211.1z"/>
	</g>
	<g id="POLYLINE_547_">
		<path class="st1" d="M189.8,397.6c-0.6,1.6-1.6,3.1-2.6,4.4c-0.7,0.9-1.5,1.8-2.2,2.6c-0.5,0.6-1,1.3-1.7,1.7
			c-1.4,0.8-1.9-1.1-2.2-2.1c-0.7-2.2-1-4.5-1.5-6.8c-0.9-4.3-2.3-8.2-3.9-12.3c-1.5-3.8-2.4-7.7-2.9-11.7c-0.5-4.6-0.7-9.2-1-13.8
			c-0.3-4.5-0.8-8.9-1.3-13.4c-0.5-4.3-1-8.6-1.2-13c-0.2-4.3-0.3-8.6-0.2-12.9c0.1-4.4,0.3-8.8,0.7-13.2c0.4-4.5,0.8-9,1.3-13.5
			c0.6-4.9,1.3-9.7,1.9-14.6c0.6-4.5,1.2-9.1,1.8-13.6c0.6-4.3,1-8.7,1.5-13c0.5-4.1,1.2-8.3,2.3-12.3c1.1-3.9,2.7-7.6,4.4-11.2
			c1.9-4,3.9-8,6-12c1.6-3,3.4-6.2,6.3-8.2c3-2.1,6.7-3.1,10.1-4.2c4.4-1.4,8.8-2.7,13-4.5c3.7-1.7,7.3-3.6,11.2-4.6
			c1.9-0.5,3.9-0.9,5.9-1.2"/>
	</g>
	<g id="POLYLINE_546_">
		<path class="st1" d="M199.9,358.3c-1.2-5.1-2-10.3-2.5-15.6c-0.5-5.3-0.8-10.6-0.2-15.9c0.3-2.6,1-4.9,1.7-7.4s0.6-5,0.7-7.5
			c0-5.1,2-9.8,2.7-14.8c0.8-5.3,1.1-10.6,3-15.6c0.3-0.7,0.5-1.4,0.8-2.1"/>
	</g>
	<g id="POLYLINE_545_">
		<path class="st1" d="M259.3,358.1c-1.4,4.6-2.9,9.2-4.6,13.7c-1.8,4.8-3.8,9.5-5.7,14.2c-1.7,4.2-3.4,8.4-5.3,12.6
			c-1.9,4.2-3.9,8.4-6.3,12.3c-2.2,3.7-4.9,7.3-8.4,9.9c-2.7,2-6,3.2-9.4,3.4c-3.6,0.2-7.1-0.5-10.4-1.8c-3.9-1.5-7.5-3.8-10.8-6.5
			c-2.7-2.2-5.4-4.7-6.9-7.9c-1.7-3.6-1.9-7.9-1.7-11.8c0.2-4.5,1.1-8.9,2.2-13.3c1.2-4.5,2.8-9,4.2-13.5c1.5-4.6,3.1-9.3,4.4-14
			c1.3-4.5,2.5-9.1,3.5-13.7c1-4.5,1.8-9,2.3-13.5c0.5-4.8,0.8-9.7,1-14.6c0.2-4.8,0.3-9.5,0.2-14.3s-0.6-9.6-1.1-14.4
			c-0.5-4.5-0.9-8.9-1.2-13.4c-0.3-4.9-0.6-9.8-0.8-14.7c-0.1-2.5-0.2-5-0.3-7.6"/>
	</g>
	<g id="POLYLINE_544_">
		<path class="st1" d="M322.2,362.5c1.2-2.6,2.3-5.3,3.1-8c0.7-2.6,1.3-5.2,1.8-7.8c0.6-3.4,1.2-6.9,1.7-10.3
			c0.4-2.2,0.9-4.5,0.9-6.8c-0.1-1.7-0.9-3.2-1.4-4.8c-0.7-1.9-0.4-3.9-0.9-5.9c-0.7-2.4-1.9-4.6-2.5-7c-0.5-2.2,0-4.4-0.2-6.6
			c-0.4-5.6-1.8-11.3-3.4-16.7c-0.2-0.7-0.4-1.4-0.6-2.1"/>
	</g>
	<g id="POLYLINE_543_">
		<path class="st1" d="M332.2,408.8c1.5,1.7,4.7,4.3,7.1,3.3c1.5-0.6,2.3-2.5,2.8-4c0.7-2,1.2-4.1,1.6-6.2c1-4.5,2.5-8.8,3.9-13.2
			c1.2-3.9,2.4-7.9,2.1-12c-0.1-1.5-0.4-3.1-0.1-4.6c0.4-2,1.3-3.9,1.8-5.9c1.2-4.4,1.8-9,2.5-13.6s1.2-9.2,1.6-13.9
			c0.4-4.4,0.7-8.8,0.9-13.2c0.2-4.7,0.3-9.4,0.3-14.1c-0.1-4.5-0.3-9.1-0.7-13.6c-0.4-4.3-0.9-8.6-1.4-12.9
			c-0.6-4.9-1.2-9.8-1.6-14.7c-0.2-2.3-0.4-4.6-0.5-6.9c-0.1-2.2,0.1-4.4,0.2-6.6c0.1-4.2-1.1-8.3-2.5-12.2
			c-1.5-4.2-3.4-8.3-5.2-12.4c-0.8-1.9-1.6-3.9-2.2-5.9c-0.7-2.2-1.1-4.5-1.5-6.8c-0.7-3.2-1.7-7.2-4.5-9.2c-1.5-1-3.4-1.2-5-1.6
			c-2.1-0.4-4-1.1-6-1.8c-4.8-1.8-9.6-3.8-14.3-5.7c-3.9-1.6-7.9-2.9-11.9-4.4c-2.1-0.7-4.1-1.5-6.2-2.2"/>
	</g>
	<g id="POLYLINE_542_">
		<path class="st1" d="M242.9,186.3c-3.6,3.3-6.7,6.9-9.6,11c-2.7,3.8-5.2,7.9-6.8,12.2c-0.4,1.2-0.8,2.4-1.2,3.5
			c-0.3,1-0.5,1.3-1.6,1.2c-1.2-0.1-2.4-0.4-3.7-0.5c-0.6-0.1-1.7-0.3-2.2,0c-0.8,0.4,0,1.7,0.2,2.2c0.3,1,0.6,2,0.9,2.9
			c0.8,2.9,1.5,5.9,2.3,8.8c1.3,4.9,2.6,9.8,4.1,14.6c1.5,5,3.2,10,5,14.9c1.8,4.9,3.7,9.8,5.7,14.7c1.9,4.6,3.9,9.1,6,13.6
			c2.3,4.9,4.7,9.8,7.1,14.7c2.3,4.6,4.8,9.1,7.4,13.6c0.6,1,1.2,2,1.7,3"/>
	</g>
	<g id="POLYLINE_541_">
		<path class="st1" d="M260.2,308.8c-1-4.3-2.1-8.7-3.1-13.1s-1.8-8.8-2.6-13.2c-0.8-4.5-1.5-9.1-2.1-13.6c-0.7-4.7-1.3-9.5-2-14.2
			c-0.6-4.2-1.1-8.5-1.6-12.8c-0.4-3.6-0.9-7.1-1.3-10.7c-0.7-5.7-1.3-11.5-2-17.2c-0.4-3.6-1-7.2-1.7-10.7c-0.9-4-2.1-8.1-1.7-12.2
			c0.2-2,0.6-4,0.9-6c0.3-2.4,0.5-4.8,0.8-7.2c0.1-0.9,0.2-1.8,0.3-2.7"/>
	</g>
	<g id="POLYLINE_540_">
		<path class="st1" d="M256.4,324.8c3.3-4.7,6.5-9.5,9.5-14.4c2.9-4.6,5.6-9.3,8.2-14.1c2.7-4.9,5.1-9.9,7.5-14.9s4.7-10.1,7-15.2
			c1.9-4.4,3.8-8.9,5.7-13.3c3-7.3,6.1-14.6,9.1-21.9c1.7-4.1,3.6-8.1,5.4-12.2c0.2-0.6,1-1.9,0.4-2.4s-2.2,0.1-2.9,0.2
			c-0.8,0.2-2,0.6-2.7,0.2c-0.7-0.4-0.7-1.5-0.8-2.2c-0.5-2.2-1.6-4.3-2.6-6.4c-1.2-2.6-2.3-5.1-3.5-7.7c-1.1-2.3-2.3-4.5-4-6.3
			s-3.7-3.3-5.3-5.1c-0.9-1-1.9-2-2.8-3"/>
	</g>
	<g id="POLYLINE_539_">
		<path class="st1" d="M324.9,248.8c-0.2,8.3-0.7,16.6-1.9,24.9c-1.2,8.2-3.5,16.2-4.7,24.4c-1.2,8-1.7,16.1-1.3,24.2
			c0.2,4,0.6,8,1.5,11.9s2.2,7.8,3.1,11.7c0.9,3.8,1.1,7.5,0.9,11.3c-0.2,4.1-0.6,8.2,0.2,12.3c0.8,4,2.6,7.8,3.8,11.8
			c1.2,3.8,1.8,7.7,2.5,11.7c0.4,2.1,0.7,4.2,1.1,6.2c0.4,1.9,1,3.7,1.5,5.6c0.7,2.8,0.6,5.4-0.2,8.1c-1.1,3.4-2.8,6.8-4.8,9.8
			s-5,4.7-8.2,6.2c-6.9,3.2-14.6,5.6-22.2,5.9c-6.6,0.3-13.3-1.3-17.9-6.3c-5.2-5.7-7.4-14-9.2-21.3c-1.8-7.1-3.2-14.2-4.6-21.4
			c-1.9-10.1-3.8-20.2-5.7-30.3c-1.4-7.4-2.8-14.8-2.9-22.3c-0.1-8.4,2.3-16.3,4.4-24.3c2-7.2,3.6-14.5,5.2-21.8
			c2.1-9.9,4.3-19.8,6.4-29.7c1.6-7.4,3.2-14.9,5-22.2c2-8.2,4.2-16.3,6.1-24.6c1.7-7.5,2.9-15.4,1.8-23.1
			c-0.6-3.9-1.2-7.8-1.5-11.7"/>
	</g>
</g>
<g id="AG-OUTLINE">
	<g id="POLYLINE_31_">
		<path class="st2" d="M332.2,408.8c2,2.2,6.2,5.4,8.6,2.1c1.1-1.5,1.6-3.4,2.1-5.1c0.7-2.5,1.1-5,1.8-7.5c1.3-4.9,3.3-9.7,4.4-14.7
			c0.5-2.3,0.8-4.5,0.6-6.8c-0.1-1.8-0.4-3.5,0.1-5.3c0.6-2.4,1.5-4.6,2.1-7c0.6-2.6,1-5.2,1.4-7.8c0.8-5.1,1.5-10.1,2-15.2
			c0.5-5.2,0.9-10.5,1.2-15.8c0.2-5.3,0.4-10.6,0.2-16c-0.1-5-0.5-10-1-15c-0.6-6-1.3-11.9-2-17.8c-0.5-4.8-1.2-9.5-1.2-14.3
			c0-2.5,0.3-5.1,0.2-7.6c-0.1-2.2-0.7-4.4-1.3-6.6c-1.5-5.1-3.6-9.9-5.8-14.8c-0.9-2.1-1.8-4.2-2.5-6.3c-0.8-2.5-1.2-5-1.8-7.6
			c-0.7-3.5-2-8.4-5.8-9.9c-2-0.8-4.2-1-6.3-1.6c-2-0.6-4-1.3-5.9-2.1c-5.4-2.2-10.7-4.4-16.2-6.4c-2.6-0.9-5.2-1.8-7.8-2.8
			c-1.6-0.6-3.2-1.1-4.8-1.7c-0.9-0.3-1.2-0.5-1.9-1.2c-1.6-1.7-3.5-3.2-5.2-4.9c-0.4-0.4-0.8-0.9-1.2-1.3c-0.5-0.5-1.3-1.1-1.7-1.8
			c-0.5-0.9-0.5-2.5-0.7-3.6c-0.2-1.3-0.3-2.5-0.4-3.8c-0.1-0.6-0.1-1.3-0.2-1.9c-0.1-0.8-0.2-1.2,0.3-1.8c1.2-1.9,2.1-4,2.8-6.1
			c0.7-2.1,1.1-4.2,1.5-6.4c0.6,0.2,1.3,0.5,1.9,0.1s0.9-1.2,1.1-1.8c0.7-1.8,1.1-3.7,1.5-5.6c0.4-2.1,0.7-4.2,1-6.3
			c0.2-1.7,0.5-3.5,0.2-5.2c-0.4-2-2.1-1.2-3.4-0.5c0.7-4.8,1.6-9.7,2.1-14.5c0.4-4.2,0.5-8.5-0.8-12.5c-1-3.2-2.9-6.3-5.6-8.3
			c-0.9-0.7-2-1.3-3.2-1.6c-0.8-0.1-1.6-0.1-2.4,0.1s-1.9,0.5-2.7,0.3c-1.5-0.5-2.1-2.9-2.8-4.1c-0.8-1.3-2-2.2-3.4-2.7
			c-3.5-1.2-7.7-0.6-11.3,0c-4.5,0.8-9,2.1-13,4.1s-7.6,5-9.4,9.2c-1.6,3.7-1.8,7.8-1.7,11.8c0.1,5,0.4,10,1,14.9
			c0.1,1.1,0.3,2.2,0.5,3.3c-0.7,0-1.5-0.2-2.1,0.3c-0.6,0.4-0.7,1.2-0.8,1.8c-0.3,1.5-0.2,3.1,0,4.7c0.3,3.9,0.9,8,2.5,11.7
			c0.3,0.7,0.6,1.5,1.3,2s1.4,0.2,2.1-0.2c0,1.2,0.6,2.5,0.9,3.6c0.3,1.2,0.7,2.3,1.1,3.4c0.4,1.1,0.9,2.3,1.4,3.4
			c0.2,0.4,0.5,0.9,0.6,1.3c0,0.4-0.1,0.9-0.1,1.3c-0.3,2.8-0.6,5.7-0.9,8.5c-0.1,0.6-0.1,1.1-0.4,1.5c-0.4,0.5-1,0.9-1.5,1.4
			c-0.9,0.8-1.7,1.7-2.5,2.6c-0.7,0.8-1.5,1.7-2.2,2.6c-0.3,0.4-0.6,1-1.1,1.2s-1.3,0.2-1.9,0.3c-2.2,0.4-4.4,0.9-6.5,1.7
			c-4.4,1.5-8.4,4-12.8,5.5c-4.7,1.7-9.6,2.9-14.2,4.7c-3.6,1.4-6.4,3.2-8.6,6.5c-2.7,4.1-4.7,8.7-6.9,13.1
			c-2.1,4.2-4.1,8.4-5.5,12.9c-1.4,4.6-2.1,9.3-2.7,14.1c-0.6,5.1-1.2,10.2-1.8,15.2c-0.7,5.5-1.5,11-2.2,16.4
			c-0.6,4.6-1.2,9.2-1.7,13.8c-0.5,5.2-1,10.4-1.2,15.6c-0.2,4.9-0.4,9.9-0.2,14.9c0.1,4.7,0.5,9.3,1,14c0.6,5.5,1.3,11,1.7,16.5
			c0.3,5,0.5,9.9,1.1,14.9c0.3,2.3,0.7,4.5,1.3,6.7c0.7,2.5,1.7,4.8,2.6,7.2c1.8,4.6,2.6,9.3,3.7,14.1c0.2,1,0.7,4.4,2.1,4.3
			c0.7,0,1.3-0.8,1.8-1.3c0.8-0.9,1.6-1.8,2.4-2.8c1.2-1.5,2.3-3.1,3-4.9c0,3.6,0.3,7.3,1.8,10.5c0.3,0.7,0.7,1.4,1.1,2
			c0.4,0.6,0.9,1,1,1.7c0.4,2.3,0.5,4.6,0.8,6.9c1.1,8.5,3.5,16.7,5.2,25.1c1.7,8.5,3,17,3.8,25.6c0.8,7.8,1.3,15.6,1.6,23.4
			c0.4,9.5,1,19,1.2,28.5c0.2,8.3-0.2,16.5-1.1,24.8c-1,8.8-2.4,17.7-1.7,26.6c0.3,4.4,1,8.7,1.6,13.1c0.5,4.1,0.9,8.3,1.2,12.4
			c0.6,9.6,0.6,19.2,0.9,28.7c0.1,3.4,0.2,6.9,0.4,10.3c0.3,3.8,0.5,7.7,1.8,11.3c0.5,1.2,1.1,2.5,2.1,3.3c-1.3,1.3-2.6,2.7-3.8,4.1
			c-0.8,1.1-1.5,2.3-2.4,3.3c-2.1,2.3-5.6,3.1-8.5,4.1c-2.5,0.9-5.1,2.1-6,4.9c-0.5,1.6-0.6,3.9,0.7,5.2c1.7,1.9,5.2,1.8,7.5,1.9
			c4.1,0.1,8.2,0,12.3-0.1c7.2-0.1,14.5,0.6,21.8,0c2.5-0.2,5.8-0.5,5.9-3.6c0.1-3.4-0.5-6.8-0.7-10.1c-0.1-2-0.2-4-0.4-6
			c-0.2-1.8-0.7-3.6-0.9-5.5c0-0.5,0.1-0.5,0.4-0.8c0.2-0.3,0.4-0.6,0.6-0.9c0.2-0.4,0.4-0.8,0.5-1.3c0.4-1.1,0.5-2.2,0.6-3.4
			c0.2-3.7-0.2-7.4-0.3-11c-0.2-3.9-0.1-7.8,0-11.7c0.1-4.7,0.4-9.4,0.6-14.1c0.5-8.6,0.9-17.3,1.4-25.9c0.6-11.5,1.2-22.9,1.8-34.4
			c0.5-9.4,1-18.8,1.5-28.2c0.3-4.8,0.5-9.6,0.9-14.4c0.5-7.4,1.2-14.8,2.2-22.2c1-7.5,2.3-15,4-22.4c1.8-7.7,3.9-15.4,5.7-23.1
			c0.8-3.7,1.4-7.4,2.4-11c0.2-0.6,0.7-2.9,1.6-2c0.8,0.8,1.1,2.4,1.4,3.4c1.2,3.9,2.6,7.6,4.2,11.3c1.3,3.2,2.5,6.5,3.5,9.9
			c2,7.5,3.2,15.2,4.4,22.9c1.2,8.1,2.1,16.2,3.2,24.2c0.9,7,1.8,14,3.2,20.9c0.7,3.6,1.7,7.1,2.8,10.6c1.2,3.6,2.5,7.1,3.4,10.8
			c0.8,3.3,0.9,6.6,0.8,9.9c-0.1,4.1-0.2,8.2,0,12.2c0.4,8,1.3,15.9,2,23.9c0.6,7.4-0.5,14.5-1.4,21.8c-1,7-1.2,13.9-0.7,21
			c0.5,7.4,1.5,14.9,3.5,22c0.3,1.2,0.7,2.5,1.5,3.5c0.3,0.4,0.8,0.6,1.2,1c0.4,0.4,0.1,1.6,0.1,2.2c-0.2,3.2-1.3,6.2-1.8,9.3
			c-0.3,2-0.5,4-0.7,6c-0.1,1-0.6,2.9-0.1,3.9c0.6,1,2.2,1,3.3,1.1c1.6,0.1,3.1,0.1,4.7,0c4-0.1,8-0.2,12-0.1c1.8,0,3.6,0.2,5.4,0
			c1.2-0.1,2.6-0.4,3.4-1.4c1.5-2.1,0.6-5.8,0.2-8.1c-0.7-3.7-1.4-7.5-2.2-11.2c-0.1-0.4-0.2-0.8-0.3-1.2c-0.1-0.2-0.1-0.4-0.2-0.6
			c-0.1-0.5-0.2-0.5,0.2-0.8c0.6-0.6,1-1.3,1.2-2.1c0.3-1,0.4-2.1,0.5-3.2c0.3-3.8,0.3-7.6,0.6-11.5c0.6-7.9,1.4-15.9,2.1-23.8
			c0.6-7.8,1-15.6,1.3-23.4c0.3-7.6,0.5-15.2,0.6-22.8c0.1-7.8,0-15.5-0.1-23.3c-0.1-7.9-0.1-15.9-0.1-23.8c0-7.6,0.1-15.1,0.2-22.7
			s0.3-15.1,0.4-22.6c0.2-8.2,0.5-16.3,0.7-24.5c0.3-7.6,0.7-15.2,1.2-22.8c0-0.7-0.1-1.7,0.2-2.4c0.2-0.6,0.8-1.2,1.1-1.8
			c0.9-1.4,1.7-2.9,2.4-4.4C330.9,414.4,332.1,411.6,332.2,408.8z"/>
	</g>
	<g id="POLYLINE_32_">
		<path class="st2" d="M566,255c0-5.5-0.1-11.1-1.3-16.4c-0.9-3.9-2.5-7.6-5.8-10c-3.9-2.9-8.9-3.4-13.5-4.5
			c-5.1-1.1-10.1-2.9-14.7-5.5c-0.6-0.4-1.2-0.7-1.8-1.1c-0.4-0.3-0.4-0.2-0.3-0.7c0-0.2,0-0.3,0-0.5c-0.2-0.7-0.9-0.8-1.5-0.6
			c-0.2,0.1-0.2,0.2-0.4,0.2s-0.5-0.4-0.6-0.5c-0.4-0.3-0.7-0.7-1-1c-0.5-0.6-0.9-1.2-1.2-1.8s-0.5-1.2-0.7-1.8
			c-0.1-0.5-0.2-1-0.3-1.4s-0.4-1.8-0.2-2.1c0.1-0.3,1.5-0.4,1.9-0.5c0.6-0.2,1.2-0.4,1.8-0.7c1-0.5,2-1.3,2.4-2.4
			c0.4-1,0.4-2.1,0.5-3.2c0.2-2,1.6-3.6,1.6-5.6c-0.1-2.4,2.3-4.2,3.4-6.1c0.7-1.2,1.3-2.5,1.4-3.9c0.2-2.1-0.4-4.1-0.8-6.2
			c-0.5-2.2-0.7-4.4-0.5-6.7c0.2-2.5,0.6-4.9,0.3-7.5c-0.3-2.5-1.1-4.9-1.4-7.4c-0.3-2.7-0.5-5.4-0.9-8c-0.2-1.7-1-3.2-2.2-4.4
			c-0.4-0.4-0.4-0.4-0.2-1c0.1-0.4,0.2-0.9,0.2-1.4c0.1-1.7-0.8-2.4-1.9-3.6c-0.8-0.9-0.4-1.7-0.4-2.8s-1.2-1.4-1.9-2.1
			c-0.8-0.7-0.6-1.8-0.8-2.7c-0.2-1.1-0.7-1.5-1.8-1.7c-0.9-0.2-1.9-0.3-2.5-1c-0.7-0.8-0.8-2.1-1.1-3.1c-0.7-2.3-2.8-2.1-4.8-2.2
			c-0.9,0-1.9-0.1-2.6-0.7c-0.7-0.7-0.7-1.9-1.4-2.5c-0.7-0.6-1.9,0-2.6,0.1s-1.3,0.1-2,0.1c-1.8-0.2-4-1.3-5.7-0.1
			c-1.8,1.3-2.5,3.4-5.1,2.6c-1.1-0.3-2.2-1-3.4-0.9c-1.2,0.1-2.3,0.9-3.3,1.6c-0.8,0.5-1.7,0.9-2.7,1s-2.4-0.2-3.2,0.6
			c-0.9,0.8-1,2.1-1.6,3c-0.7,1-1.8,1-2.7,1.7c-0.8,0.6-1.2,1.6-1.5,2.6c-0.3,0.9-0.4,2.1-1.2,2.7c-0.8,0.5-1.8,0.4-2.7,0.7
			c-0.9,0.3-1.5,1-2,1.9c-0.8,1.7-0.9,3.5-0.1,5.3c0.5,1,1.2,2.1,1.5,3.2c0.3,1.2-0.5,1.8-1.1,2.8c-1,1.8-1.2,4.4,0.9,5.4
			c1,0.5,2.1,0.7,3.1,1.1c1.2,0.5,1.3,1.2,1.9,2.2c1,1.4,3.5,1.2,5,0.8c-0.4,2.4-0.2,4.9,0.1,7.3c0.2,1.4,0.4,2.8,0.8,4.2
			c0.2,0.6,0.3,1.3,0.5,1.9c0.1,0.3,0.2,0.6,0.3,0.9c0.2,0.7,0.2,0.6-0.3,1.1c-1.7,1.8-1.3,4.2-0.5,6.2c0.9,2.5,2.3,4.8,3.9,6.9
			c1.2,1.5,2.6,2.9,4.6,3.1c0.3,0,0.5,0,0.8,0c0.2,0,0.4-0.1,0.6,0c0.3,0.1,0.3,0.3,0.5,0.7c0.5,1.5,1,3,1.3,4.5
			c1.3,5.6,1.5,11.7,0.2,17.3c-0.5,2.4-1.3,4.8-2.6,6.9c-0.5,0.8-1.1,1.6-1.7,2.3c-0.1,0.2-0.3,0.5-0.5,0.6c-0.3,0.2-0.2,0-0.5-0.1
			s-0.6-0.1-0.9,0c-0.3,0.2-0.5,0.4-0.6,0.8c0,0.2,0,0.5,0,0.7c-0.1,0.4-0.2,0.5-0.6,0.8c-1.1,0.8-2.3,1.5-3.5,2.1
			c-2.7,1.4-5.4,2.5-8.3,3.5c-3.1,1.1-6.2,2-9.3,3c-2.4,0.7-4.8,1.5-6.9,2.9c-4.4,2.8-5.1,8.1-5.5,12.9c-0.2,2.9-0.4,5.9-0.1,8.8
			c0.1,0.7,0.1,1.4,0.2,2.2c0.1,0.5,0.1,0.5-0.2,0.8c-0.1,0.2-0.4,0.3-0.5,0.4c-0.9,0.8-1.4,1.7-1.4,2.9c-0.2,3-0.2,6-0.2,8.9
			c0,1.5,0,2.9,0.1,4.4c0.1,0.9,0.1,2.2,0.7,2.9c0.6,0.7,1.3,0.4,1.9-0.1c0.7,7.8,1.1,15.7,0.9,23.6c-0.1,3.9-0.4,7.8-1,11.7
			c-0.7,4.2-1.6,8.3-2.5,12.4c-1.6,7.1-2.4,14.3-2.6,21.6c-0.3,9.2-0.5,18.5-0.7,27.7c-0.1,3.1-0.2,6.3-0.5,9.4
			c-0.1,1.8-0.3,3.6-0.6,5.3c-0.3,2-0.8,4-0.9,6.1c-0.1,3.8,0.6,7.5,1,11.3c0.3,4,0.1,7.9-0.1,11.8c-0.2,3.5-0.4,7.1,0.7,10.5
			c0.9,3,2.5,5.7,4.5,8c2,2.4,4.3,4.5,6.8,6.3c1.2,0.9,2.5,1.6,3.9,2.3c0.5,0.2,0.6,0.2,0.7,0.7s0,1,0,1.5c0,1.1-0.1,2.1-0.1,3.2
			c-0.3,7.1-1.1,14.3-1.8,21.4c-0.9,8.8-1.8,17.7-2.6,26.5c-0.3,3.2-0.5,6.4-0.7,9.6c-0.6,8.2-1.2,16.4-1.8,24.6
			c-0.8,11.2-1.6,22.4-2.4,33.5c-0.9,12.1-1.8,24.2-2.6,36.2c-0.8,10.9-1.6,21.8-2.4,32.7c-0.6,7.7-1.1,15.4-1.7,23.1
			c-0.2,3.3-0.6,6.7-0.7,10c0,1.3,0.1,2.4,1.2,3.1c1.3,0.8,2.9,1,4.4,1.3c3.7,0.6,7.5,0.7,11.2,0.7c7.9,0,15.7-1.2,23.5-2.7
			c0.4-0.1,0.7-0.2,0.9,0c0.2,0.1,0.3,0.6,0.5,0.8c0.5,0.8,1.2,1.2,2.1,1.5c1.3,0.3,2.7,0.3,4,0.4c3.9,0,7.9,0.2,11.9-0.1
			c1-0.1,2.4-0.2,3.1-1.1c0.8-1.1,0.5-3.3,0.5-4.5c0.3,0,1.1-0.1,1.3,0.1c0.2,0.3,0,1.6,0,2c0,0.6,0,1.3,0.2,1.9
			c0.5,1.2,2.1,1.4,3.3,1.5c4.1,0.4,8.3,0.2,12.3,0.1c1.5,0,3.2,0,4.5-0.7c0.5-0.3,0.7-0.8,1.2-1.1c0.3-0.2,0.9-0.1,1.3,0
			c0.9,0.1,1.9,0.1,2.8,0.1c4.2,0,8.5-0.4,12.7-0.5c4.6-0.2,9.2,0,13.8,0.1c3.5,0.1,7.1,0.1,10.5-0.6c2.7-0.6,5-2.2,5.1-5.2
			c0.1-3.7-1.4-7.5-2.3-11c-1.8-7.4-2.3-15-2.8-22.5c-0.7-9.3-1.2-18.6-2-27.8c-0.7-8.2-1.5-16.3-2.5-24.4
			c-0.9-7.4-1.7-14.8-2.7-22.2c-1.4-10.3-2.8-20.7-4.2-31c-1.5-10.8-2.9-21.6-4.4-32.4c-0.9-6.5-1.6-13-2.2-19.5
			c-0.8-8.2-1.4-16.3-1.9-24.5c-0.2-3-0.4-6-0.6-9c0-0.4-0.4-1.8-0.1-2.2c0.1-0.2,1.1-0.4,1.4-0.6c2.7-1.3,4.4-3.6,5.4-6.4
			c1.3-3.5,1.7-7.4,1.9-11.1c0.3-3.7,0.1-7.4-0.3-11c-0.5-4.3-1.3-8.6-1.3-12.9c0-3.4,1.4-6.7,1.5-10.1c0.1-4.1-0.2-8.1,0-12.1
			c0.3-4.3,0.9-8.5,1.5-12.7c1.1-8.4,2.2-16.7,2-25.2c-0.2-8.1-1.5-16.3-0.9-24.4c0.7-8.7,1.1-17.4,1.3-26.2c0-2,0.1-4,0.1-6
			c0-1.4,0-2.8,0.1-4.2c0-1.2-0.2-2.6,0.1-3.8c0.1-0.5-0.1-0.1,0.3-0.4c0.2-0.2,0.4-0.2,0.5-0.5c0.3-0.6,0.1-1.6,0.1-2.2
			c0-2-0.1-4.1-0.2-6.1c-0.1-2.1-0.1-4.1-0.3-6.2C567.2,257.4,567,256,566,255z"/>
	</g>
</g>
</svg>
