<?xml version="1.0" encoding="utf-8"?>
<!-- Generator: Adobe Illustrator 27.0.0, SVG Export Plug-In . SVG Version: 6.00 Build 0)  -->
<svg version="1.1" id="Layer_1" xmlns="http://www.w3.org/2000/svg" xmlns:xlink="http://www.w3.org/1999/xlink" x="0px" y="0px"
	 viewBox="0 0 404 404" style="enable-background:new 0 0 404 404;" xml:space="preserve">
<style type="text/css">
	.st0{fill:none;stroke:#000000;stroke-miterlimit:10;}
	.st1{display:none;}
	.st2{display:inline;}
	.st3{fill:none;stroke:#000000;stroke-width:5;stroke-miterlimit:10;}
</style>
<g id="SELECT">
	<g>
		<polygon points="145.4,75.9 154.6,82 178.1,90.5 187.4,114.4 190.8,157.5 188.4,183.6 181.3,217.7 175.9,216 169.9,189.4 
			170.2,182.4 173.8,165.5 167.8,139.3 165.3,158.8 169.7,183.6 168.7,190.7 175.3,215.4 171.6,224.4 159,231.7 145.2,230.3 
			139,225.2 128.7,183.6 115.7,216.7 108.5,224.1 99.8,224.6 88.2,217.3 84.9,209.9 93.9,177 97,150.1 95.4,135.3 91.4,159.1 
			90.2,175.4 91.4,183.2 84.9,208.4 81.2,214 73.8,189 73.2,141.9 79.8,103.8 88.5,90.1 113.6,79.7 118.4,75.9 121.4,97.6 
			129.7,150.9 143.6,93.4 		"/>
	</g>
	<g>
		<polygon id="bow_tie" points="142.4,82.1 132.1,85.6 121.1,84.5 123.1,97.6 125.9,97.6 132,91.6 134.9,90.9 137.7,93.6 
			142.4,96.7 144.6,88.2 		"/>
	</g>
	<g>
		<polygon points="119.9,75.3 130,84.6 128.2,85.3 121.1,84.5 120.4,86.8 118.4,75.9 		"/>
		<polygon points="133.2,85.3 145.4,75.9 144.2,87.3 142.4,82.1 		"/>
		<polygon points="129.7,150.9 142.4,96.7 134.9,90.9 132,91.6 125.9,97.6 123.1,97.6 121.1,95.7 		"/>
	</g>
	<g>
		<polygon points="88.2,217.3 94.5,254.6 96.1,304.2 94.3,315.5 98.5,367.4 101.4,368.7 115.5,367.2 121,260.3 129.6,225.4 
			136.7,242.9 143.5,286 147.1,298.8 149.2,331 146.9,349.7 150.2,368.5 165.8,369.1 169.9,320.3 171.6,224.4 159,231.7 
			145.2,230.3 139,225.2 128.7,183.6 115.7,216.7 108.5,224.1 99.8,224.6 		"/>
	</g>
	<g>
		<polygon points="115.5,367.2 103.2,369.6 98.5,367.4 96,373.8 86.2,377.5 87.3,382.5 115.8,383.3 		"/>
		<polygon points="165.8,369.1 151,370.2 149.7,382.9 168.4,382.9 		"/>
	</g>
	<g>
		<polygon points="251.1,123.8 255,120.1 266.3,117 283.2,118.8 299,115.7 315.4,115.4 324.2,119.6 323.3,131.1 312.4,127.3 
			310.6,133 309.5,147.3 307.4,155.6 311.4,169.7 311.5,202.8 307.6,211.9 310.1,223.4 310.5,234.6 315.2,236.1 330.9,379.8 
			325.6,382.9 300.4,381.8 287.8,379 263.2,383.3 248.8,382.5 248.1,380.5 258.5,237.9 254.6,211.1 255.2,189.1 261.6,164.5 
			263.6,150.2 260,132.8 258.8,129.8 251.3,134.1 		"/>
	</g>
	<g>
		<polygon points="274.1,361.5 282.1,360 287.3,359.7 289.7,359.7 302.5,362.1 300.7,363.3 289.6,363 288.3,361.1 287.9,363 
			285.1,363 275.4,363.3 		"/>
	</g>
</g>
<g id="AG-HUMANS">
	<g id="POLYLINE_573_">
		<path class="st0" d="M279.4,80.2c0.7,1.1,1.4,2.1,2.3,3c0.8,0.8,1.8,1.4,2.7,2c2.1,1.3,4.4,2.2,6.7,2.8c1.8,0.4,3.8,0.6,5.5,0
			c1-0.3,2-0.9,2.4-2c0.3-0.9,0.1-1.9,0.4-2.8c0.1-0.4,0.4-0.9,0.6-1.3c0.3-0.5,0.3-0.9,0.3-1.4c0-1.1,0.9-2,1.6-2.9
			c0.9-1.2,1.5-2.5,1.5-4c0-2.1-0.9-4.2-0.9-6.2c0-1.2,0.3-2.4,0.3-3.5s0-2.3-0.3-3.4c-0.6-3.3-1.9-7.9-5.6-8.9
			c-2-0.6-4.2-0.1-6.1,0.3c-1.2,0.2-2.5,0.4-3.7,0.4c-1.1,0.1-2.3-0.1-3.4,0c-0.9,0.1-1.8,0.3-2.3,1.3s-0.4,2.1-0.6,3.1
			c-0.1,0.9-0.2,1.9-0.5,2.8c-0.4,1-0.9,1.9-1.4,2.8c-0.8,1.6-0.4,3.1-0.2,4.7c0.1,1.1,0.3,2.2,0.1,3.3c-0.1,0.5-0.2,1.7-0.9,1.1
			c-0.9-0.7-1.4-1.8-2.1-2.7c-0.6-0.7-1.1-1.3-1.9-1.8c-0.9-0.6-1.9-0.8-2.8-0.3c-0.9,0.6-1.3,1.6-1.3,2.6c0.1,2,1.4,4,2.6,5.6
			c0.9,1.3,2.1,2.5,3.8,2.4c0.6-0.1,1.2-0.2,1.8-0.5"/>
	</g>
	<g id="POLYLINE_572_">
		<path class="st0" d="M271.1,66.6c-1.2-3.5-2-7.7-0.7-11.3c1.1-2.9,3.6-5.7,6.5-6.9c3.7-1.4,7.9-0.1,11.8-0.9
			c1.7-0.4,3.3-0.9,5-0.9c1.4,0,2.9,0.3,4.2,0.9c1.3,0.6,2.6,1.6,3.1,3c0.3,0.8,0.3,1.6,0.4,2.4c0.1,1.2,0.3,2.3,0.4,3.5
			c0.1,0.4,0.1,0.9,0.1,1.4"/>
	</g>
	<g id="POLYLINE_571_">
		<path class="st0" d="M270,57.2c-0.9,0.3-2.4,0.4-3-0.4c-0.4-0.4-0.4-1-0.9-1.3c-0.6-0.3-1.3-0.4-1.9-0.7s-1.1-0.5-1.3-1.1
			c-0.2-0.6-0.1-1.2,0.1-1.8s0.6-1,0.9-1.5s0.1-1-0.1-1.5c-0.5-1.2-1.3-2.1-1-3.5c0.2-0.9,0.6-2.1,1.6-2.4c0.5-0.2,1.1-0.1,1.6-0.4
			c0.4-0.3,0.6-0.8,0.8-1.3c0.2-0.6,0.3-1.2,0.7-1.7c0.5-0.6,1.2-0.6,1.8-1.1c1.1-0.8,0.7-2.5,2.4-2.6c0.6-0.1,1.1,0,1.7-0.2
			s1.2-0.6,1.8-1c0.6-0.4,1.3-0.6,2-0.4c0.6,0.1,1.2,0.4,1.8,0.6c1.4,0.3,2-1.1,3-1.8s2.3-0.1,3.4,0.1c0.4,0.1,0.8,0.1,1.1,0
			c0.5-0.1,1.1-0.4,1.6-0.3c0.5,0.1,0.6,0.8,0.8,1.1c0.3,0.6,0.8,0.9,1.4,1c0.9,0.1,2.3-0.2,3.1,0.5c0.9,0.8,0.4,2.5,1.5,3.1
			c0.5,0.3,1.1,0.3,1.6,0.5c0.6,0.3,0.8,0.6,0.8,1.3c0.1,0.7,0.1,1.2,0.7,1.6c0.4,0.3,0.9,0.5,0.9,1.1s-0.3,1.1,0.1,1.6
			c0.6,0.7,1.3,1.1,1.3,2.1c0,0.5-0.1,1.1-0.3,1.6"/>
	</g>
	<g id="POLYLINE_570_">
		<path class="st0" d="M310.2,143.2c0.4,3.7,0.8,7.4,0.9,11.1c0.2,3.8,0.1,7.6,0.1,11.3c0,3,0.1,6,0.2,8.9c0.1,4.5,0.3,8.9,0.4,13.4
			c0.1,3.3,0.1,6.7,0.1,9.9c-0.1,1.6-0.1,3.3-0.4,4.9c-0.3,1.3-0.8,2.3-1.5,3.4c-1.6,2.6-2.5,5.5-2.3,8.7c0.3,2.6,1.9,4.7,2.3,7.3
			c0.5,3.5,0.2,7,0.3,10.5c0,0.6,0,1.3,0.2,1.9c0.3,0.8,0.9,1.2,1.8,1.3c1.1,0.1,2.3-0.1,3.3-0.5c2.8-1.1,4-3.8,4.5-6.5
			c0.6-3.1,0.8-6.4,0.6-9.6c-0.1-1.9-0.4-3.8-0.6-5.7c-0.2-1.5-0.4-3.1-0.4-4.7c0.1-1.5,0.5-2.9,0.8-4.3c0.3-1.6,0.1-3.3,0.1-4.9
			c-0.1-3.2,0.2-6.4,0.6-9.5c0.5-3.8,1.1-7.6,1.4-11.4c0.3-3.6,0.3-7.1,0.1-10.6c-0.2-3.5-0.7-7.1-0.5-10.6c0.1-3.5,0.6-7,0.7-10.5
			c0.1-3.7,0.3-7.4,0.3-11.1c0.1-1.8,0.1-3.7,0.1-5.5"/>
	</g>
	<g id="POLYLINE_569_">
		<path class="st0" d="M311.4,169.7c-0.8-2.5-1.9-5-2.8-7.4c-0.8-2.3-1.4-4.7-1.1-7.1c0.3-2.7,1.4-5.2,2.1-7.8
			c0.6-2.5,0.9-5.1,0.9-7.7c0.1-2.8,0-5.5,0.2-8.3c0.1-0.9,0.1-1.8,0.4-2.7c0.3-1,1-1.4,2-1.4c2-0.1,4.1,0.7,5.9,1.4
			c1.1,0.5,2.2,1.1,3.4,1.4c0.3,0.1,0.8,0.3,1.1,0.1c0.3-0.2,0.3-0.7,0.3-1.1c0.1-2.7,0-5.5-0.3-8.2c-0.1-0.9-0.3-1.8-0.9-2.5
			c-0.6-0.6-1.6-0.9-2.5-1.2c-2.5-0.8-4.9-1.3-7.5-1.6c-2.8-0.3-5.5-0.4-8.3-0.4c-2.6,0-5.4,0.2-8,0.5s-5.3,0.8-7.9,1.4
			c-2.5,0.6-4.8,1.5-7.4,1.3c-2.7-0.2-5.4-0.8-8.1-1.3c-2.5-0.4-5-0.6-7.5-0.4c-2.3,0.2-4.5,0.8-6.7,1.5c-1.3,0.4-2.6,1-3.8,1.6
			c-1,0.5-2.1,1-3,1.8c-0.8,0.7-0.9,1.5-0.9,2.5c-0.1,1.5-0.1,3-0.1,4.5c0,0.8-0.4,5.6,1.1,5.3c0.4-0.1,0.8-0.6,1.1-0.8
			c0.4-0.4,0.8-0.8,1.3-1.2c0.9-0.7,2-1.1,3-1.6c0.5-0.3,0.9-0.5,1.4-0.7c0.3-0.2,0.6-0.4,0.9,0.1c0.3,0.4,0.3,1.1,0.3,1.5
			c0.1,0.7,0.1,1.4,0.1,2.1c0.1,2.3,0.3,4.5,1.3,6.7c0.5,1.2,1.1,2.4,1.5,3.7c0.3,1.1,0.5,2.3,0.6,3.5c0.3,2.6,0.3,5.2,0,7.7
			c-0.3,2.7-0.8,5.4-1.4,8.1c-0.8,2.8-1.8,5.6-2.7,8.4c-0.8,2.4-1.6,4.8-2.1,7.2c-0.6,2.7-1.1,5.4-1.6,8.1c-0.4,2.6-0.7,5.2-0.9,7.9
			c-0.2,2.8-0.4,5.5-0.4,8.3c0,2.7,0.1,5.4,0.3,8.1s0.6,5.4,1.2,8.1c0.6,2.7,1.2,5.4,1.7,8.1c0.5,2.7,0.8,5.5,0.9,8.2
			c0.1,2.6,0.1,5.4-0.1,8c-0.1,2.2-0.3,4.4-0.5,6.7c-0.3,3.2-0.6,6.4-0.9,9.6c-0.4,3.7-0.7,7.4-1.1,11.1c-0.1,0.9-0.2,1.8-0.3,2.6
			c-0.1,1.2-0.2,2.4-0.3,3.6c-0.2,2.3-0.3,4.5-0.5,6.7c-0.3,3-0.4,6.1-0.7,9.1c-0.3,3.7-0.5,7.4-0.8,11c-0.3,4-0.6,8.1-0.9,12.1
			c-0.3,4.2-0.6,8.4-0.9,12.6c-0.3,4.2-0.6,8.3-0.9,12.5c-0.3,3.9-0.6,7.7-0.8,11.6c-0.3,3.4-0.5,6.8-0.8,10.2
			c-0.2,2.7-0.4,5.4-0.6,8.1c-0.1,1.8-0.3,3.6-0.4,5.4c-0.1,0.6-0.1,1.3-0.1,2c-0.1,0.8-0.3,2.2,0.1,3c0.4,0.8,1.6,0.9,2.4,1.1
			c2.6,0.6,5.2,0.6,7.9,0.6c2.7,0,5.4-0.2,8.1-0.6s5.4-0.9,8.1-1.4s5.4-1.1,8.1-1.4c2.6-0.3,5.3-0.4,7.9-0.1c2.7,0.3,5.4,1,8.1,1.6
			c2.5,0.5,5,0.8,7.6,0.7c2.7-0.1,5.4-0.3,8.2-0.4c2.8,0,5.7,0.1,8.6,0.1c2,0,4.2,0,6.1-0.7c1-0.4,1.8-1.1,2.1-2.1
			c0.2-0.8,0.1-1.7-0.1-2.5c-0.5-2.6-1.4-5.2-1.9-7.9c-0.4-2.5-0.8-5-0.9-7.4c-0.3-2.9-0.4-5.7-0.6-8.6c-0.3-3.4-0.5-6.9-0.8-10.3
			c-0.2-2.5-0.4-4.9-0.6-7.4c-0.3-2.5-0.5-5-0.8-7.6c-0.3-3.1-0.7-6.2-1.1-9.3c-0.3-2.1-0.4-4.2-0.8-6.3c-0.3-1.9-0.5-3.8-0.8-5.7
			c-0.5-3.6-0.9-7.2-1.4-10.8c-0.6-4.2-1.1-8.3-1.7-12.5c-0.4-3.5-0.9-6.9-1.4-10.3c-0.2-1.6-0.4-3.1-0.6-4.7
			c-0.3-2.6-0.6-5.2-0.9-7.8c-0.3-2.9-0.6-5.8-0.8-8.8c-0.2-2.5-0.4-5.1-0.6-7.6c-0.2-2.7-0.3-5.4-0.5-8.1"/>
	</g>
	<g id="POLYLINE_568_">
		<path class="st0" d="M273.9,381.5c0.5,1,1.2,1.5,2.3,1.7c1.1,0.1,2.3,0.1,3.3,0.1c1.5,0,3,0,4.6,0c0.9,0,2,0,2.8-0.4
			c1.1-0.5,0.8-2.2,0.8-3.2"/>
	</g>
	<g id="POLYLINE_567_">
		<path class="st0" d="M302.3,382.1c-0.6,0.9-1.6,1.1-2.6,1.2c-1.3,0.1-2.6,0.1-3.9,0.1s-2.6,0-3.9,0c-0.8,0-1.8,0-2.5-0.4
			c-0.9-0.6-0.7-2.2-0.7-3.1"/>
	</g>
	<g id="POLYLINE_566_">
		<path class="st0" d="M258.5,239.8c-2.6-1.3-5-3.1-6.9-5.4c-2-2.4-3.3-5.1-3.5-8.2c-0.1-2,0.1-4,0.2-6c0.1-1.7,0.1-3.3-0.1-5
			c-0.2-1.9-0.4-3.7-0.6-5.6c-0.1-1.9,0.2-3.6,0.5-5.4c0.5-3.1,0.6-6.3,0.7-9.4c0.1-5,0.3-10,0.4-15c0.1-3.2,0.2-6.4,0.6-9.6
			c0.4-3.8,1.4-7.4,2.1-11.1c0.8-3.7,1.1-7.4,1.2-11.1c0.1-3.8-0.1-7.6-0.3-11.3c-0.1-0.9-0.1-1.8-0.3-2.8"/>
	</g>
	<g id="POLYLINE_565_">
		<path class="st0" d="M273.8,98c0.1,2.7,0.7,5.3,2.2,7.6c1.6,2.4,4,4.6,6.9,5.3c1.8,0.4,3.6,0,5.2-0.9c2.8-1.6,5-4.4,6.9-7.1
			c0.9-1.4,1.8-2.8,2.6-4.3c0.4-0.8,0.7-1.5,0.9-2.3c0.2-0.6,0.8-1.6,0.5-2.1c-0.2-0.4-0.8-0.6-1.1-0.3c-0.2,0.2-0.3,0.6-0.3,0.8
			c-0.1,0.4-0.3,0.8-0.4,1.1c-0.6,1.5-1.3,3-2.1,4.3c-1.7,2.9-3.9,5.7-6.5,7.8c-1.8,1.4-3.8,2.2-6,1.4c-2.5-0.9-4.6-3-5.9-5.2
			c-0.7-1.1-1.1-2.3-1.4-3.7c-0.1-0.6-0.2-1.2-0.3-1.8c-0.1-0.5,0.1-1.2-0.4-1.4C274.2,97.2,273.8,97.5,273.8,98z"/>
	</g>
	<g id="POLYLINE_564_">
		<path class="st0" d="M252.4,121.5c-0.4-2.5-0.3-4.9-0.1-7.4c0.2-2.1,0.4-4.4,1.6-6.2c1.2-1.8,3.2-2.6,5.2-3.3
			c2.5-0.8,5-1.5,7.4-2.4c2.5-0.9,5.2-2,7.4-3.7"/>
	</g>
	<g id="POLYLINE_563_">
		<path class="st0" d="M274.9,97.5c1.7-1.7,2.6-3.9,3.1-6.2c0.6-2.9,0.7-5.9,0.3-8.8c-0.3-1.8-0.7-3.7-1.4-5.4"/>
	</g>
	<g id="POLYLINE_562_">
		<path class="st0" d="M295.3,88.3c0.2,1.6,0.4,3.2,1.4,4.5c0.3,0.4,0.7,0.8,1.1,1.1"/>
	</g>
	<g id="POLYLINE_561_">
		<path class="st0" d="M298.9,94.7c2.2,1.5,4.7,2.6,7.2,3.5c2.6,0.9,5.5,1.2,8.1,2c1.9,0.6,3.7,1.4,5,2.9c1.4,1.7,2.1,3.9,2.6,6
			c0.5,2.8,0.6,5.5,0.6,8.3c0,0.4,0,0.8,0,1.1"/>
	</g>
	<g id="POLYLINE_560_">
		<path class="st0" d="M151,369.2c0,1.4-0.1,2.8-0.5,4.2c-0.4,1.5-0.8,3-0.9,4.6c-0.1,1.1-0.2,2.1-0.3,3.1c-0.1,0.4-0.2,1,0,1.4
			c0.4,1,2.5,0.8,3.3,0.8c3.6,0.1,7.2-0.1,10.8-0.1c1.1,0,2.7,0.2,3.7-0.6c0.9-0.7,0.9-2,0.8-3c-0.1-1.4-0.4-2.8-0.7-4.2
			c-0.4-1.8-0.7-3.7-1.1-5.5c-0.1-0.4-0.2-0.8-0.3-1.2"/>
	</g>
	<g id="POLYLINE_559_">
		<path class="st0" d="M99.4,368.5c-0.9,0.9-1.8,1.8-2.5,2.7c-0.6,0.8-0.9,1.6-1.6,2.2c-1.5,1.5-4,1.9-5.9,2.6
			c-1.6,0.6-2.8,1.6-3.1,3.4c-0.3,1.5,0.3,2.9,1.8,3.4c2,0.7,4.3,0.5,6.4,0.5c2.5,0,4.9-0.1,7.4-0.1c2.7,0,5.5,0.1,8.2,0.1
			c1.2,0,2.5,0,3.7-0.1c0.8-0.1,1.7-0.2,2.4-0.7c0.8-0.5,0.7-1.4,0.6-2.2c-0.1-1.3-0.2-2.5-0.3-3.8c-0.2-2.5-0.2-5.1-0.6-7.6
			c-0.1-0.6-0.2-1.2-0.3-1.8"/>
	</g>
	<g id="POLYLINE_558_">
		<path class="st0" d="M88.2,217.1c0.3,2.5,0.5,5.1,1,7.6c0.5,2.8,1.2,5.5,1.8,8.2c1.1,4.9,2.1,9.8,2.8,14.8
			c0.6,5.2,1.1,10.3,1.4,15.5c0.4,5.9,0.6,11.9,0.8,17.8c0.2,4.7,0.4,9.4,0.1,14c-0.3,5.3-1.2,10.6-1.6,15.9c-0.2,2.5-0.3,5-0.1,7.6
			c0.2,2.8,0.6,5.5,1,8.2c0.6,4.5,0.9,8.9,0.9,13.4c0.1,5.9,0.2,11.6,0.5,17.5c0.1,2.5,0.3,5,0.8,7.4c0.4,1.5,0.9,3.2,2.5,3.9
			c1.8,0.8,4.1,0.6,6,0.5c2.3-0.1,4.8-0.3,7.1-0.9c1.6-0.5,2.9-1.4,3.4-3.1c0.6-2.1,0.3-4.3,0.2-6.4c-0.3-5.1-0.1-10.2,0.1-15.3
			c0.2-3.5,0.4-6.9,0.6-10.4c0.4-7.4,0.8-14.7,1.1-22c0.4-7.2,0.8-14.5,1.1-21.8c0.2-3.3,0.3-6.7,0.5-10c0.3-5.2,0.8-10.4,1.3-15.6
			c0.6-5.3,1.5-10.6,2.6-15.7c1.1-5.1,2.6-10.1,3.7-15.2c0.6-2.5,0.8-5,1.6-7.4c0.1-0.3,0.3-0.8,0.6-0.9c0.3,0,0.5,0.6,0.6,0.8
			c0.5,1.1,0.8,2.3,1.2,3.5c0.8,2.3,1.8,4.6,2.7,6.9c0.9,2.3,1.6,4.8,2.1,7.2c1.1,5,1.9,10.1,2.6,15.2c0.8,5.5,1.4,11,2.1,16.5
			c0.6,4.8,1.4,9.7,3,14.4c0.8,2.5,1.7,4.8,2.3,7.3c0.6,2.3,0.6,4.7,0.5,7.1c-0.1,2.7-0.1,5.4,0.1,8.1c0.1,2.5,0.4,5,0.6,7.6
			c0.3,2.7,0.6,5.4,0.7,8.1c0.1,2.5-0.1,4.9-0.4,7.4c-0.7,5-1.4,10-1.3,15.1c0.1,5,0.8,10.1,2,15c0.4,1.8,0.7,4,2.6,4.7
			c0.8,0.3,1.6,0.3,2.4,0.4c1.3,0.1,2.5,0.1,3.7,0.2c2.2,0.1,4.6,0.2,6.7-0.5c1.6-0.5,2.4-1.6,2.6-3.2c0.4-2.5,0.3-5,0.4-7.4
			c0.2-2.9,0.5-5.8,0.8-8.7c0.4-5.1,0.8-10.2,1.1-15.3c0.3-5.3,0.5-10.5,0.6-15.8c0.1-4.8,0.1-9.7,0.1-14.5
			c-0.1-5.6-0.1-11.1-0.1-16.7c0-5.4,0.1-10.7,0.1-16.1c0.1-5.4,0.2-10.8,0.3-16.1c0.1-5.7,0.3-11.3,0.5-16.9
			c0.2-4.7,0.5-9.5,0.8-14.2"/>
	</g>
	<g id="POLYLINE_557_">
		<path class="st0" d="M148.8,48.1c0.6-0.3,1.6-0.9,2-0.1c0.4,0.8,0.2,2.3,0.1,3.1c-0.3,2.6-0.6,5.2-1.5,7.7
			c-0.2,0.5-0.4,1.1-0.8,1.4c-0.4,0.4-0.8,0.3-1.3,0.1"/>
	</g>
	<g id="POLYLINE_556_">
		<path class="st0" d="M115.6,48.1c-0.4,0-0.9-0.1-1.3,0.2s-0.4,0.8-0.5,1.1c-0.2,0.9-0.1,2,0,3c0.2,2.5,0.6,5,1.6,7.4
			c0.2,0.4,0.4,0.9,0.8,1.3c0.4,0.3,0.9,0.1,1.3-0.1"/>
	</g>
	<g id="POLYLINE_555_">
		<path class="st0" d="M122.8,60.6c-0.6,0.3-1.2,0.6-1.8,0.1c-0.5-0.4-0.8-1-1.1-1.6c-0.8-1.7-1.3-3.5-1.6-5.4
			c-0.7-4-0.8-8.2-0.7-12.3c0.1-3,0.1-7.6,3.1-9.3c1.1-0.6,2.5-0.9,3.7-0.9c1.8-0.1,3.4,0.6,5.1,0.6c3.6,0,7.4-1.6,11-0.5
			c2.9,0.9,5,3.7,5.7,6.5c0.9,3.6,0.7,7.6,0.4,11.2c-0.2,2.1-0.4,4.2-0.8,6.4c-0.2,1.4-0.3,3.5-1.6,4.4c-0.9,0.7-2.3,0.4-3.4,0.1
			c-1.8-0.5-3.4-1.5-5.2-2.1c-3.3-0.9-7,0-10.1,1.4C124.6,59.7,123.7,60.1,122.8,60.6z"/>
	</g>
	<g id="POLYLINE_554_">
		<path class="st0" d="M134.9,75.9c-1.5,0.6-3.1,0.9-4.7,0.7c-2.4-0.4-4.8-1.4-6.6-3c-1.7-1.4-2.7-3.4-3.6-5.4
			c-1.1-2.5-2.1-5.1-2.6-7.9c-0.5-2.8-0.6-5.7-1.1-8.5c-0.4-2.8-1-5.5-1.2-8.3c-0.2-3-0.5-6-0.4-9c0.1-2.4,0.5-4.8,1.8-6.9
			c1.4-2.2,3.6-3.7,5.9-4.8c2.5-1.1,5.2-1.9,7.9-2.3c2.1-0.3,4.5-0.6,6.6,0c0.8,0.3,1.6,0.8,2.1,1.5c0.6,0.8,0.8,2,1.6,2.6
			s2-0.1,2.8-0.1c0.8-0.1,1.6,0.3,2.3,0.7c1.6,1,2.8,2.6,3.5,4.3c0.9,2.1,1.2,4.5,1.1,6.8c-0.1,3-0.6,5.9-1.1,8.8
			c-0.4,2.9-0.8,5.9-1.1,8.8c-0.3,2.8-0.5,5.5-1.1,8.3c-0.6,2.3-1.4,4.7-2.9,6.6c-1.6,2.1-3.7,3.8-5.9,5.2
			C137.2,74.8,136,75.4,134.9,75.9z"/>
	</g>
	<g id="POLYLINE_553_">
		<path class="st0" d="M133.1,85.5c0.6-0.8,1.1-1.5,2-2.1c1-0.7,2.1-1.3,3.1-1.9c1.8-1.1,3.4-2.5,4.8-4c0.8-0.9,1.6-1.9,2.3-2.9"/>
	</g>
	<g id="POLYLINE_552_">
		<path class="st0" d="M119.4,73.4c0.6,0.9,1.1,1.9,1.6,3c0.4,0.9,0.9,1.6,1.5,2.3c1.6,1.7,3.7,2.9,5.5,4.3c1.1,0.9,2.2,2,3.3,3"/>
	</g>
	<g id="POLYLINE_551_">
		<path class="st0" d="M143,95.7c-1.4-0.2-2.7-0.8-3.9-1.4c-1.1-0.6-2.3-1.3-3.1-2.2c-0.4-0.5-0.8-1.1-1.1-1.7"/>
	</g>
	<g id="POLYLINE_550_">
		<path class="st0" d="M134.4,85.8c0.6-0.7,1.3-1.3,2.1-1.8c1.1-0.6,2.2-1,3.3-1.4c0.6-0.2,1.9-0.8,2.5-0.5c0.3,0.1,0.4,0.7,0.5,1
			c0.2,0.6,0.3,1.1,0.5,1.6c0.4,1.4,0.8,3,1.1,4.4"/>
	</g>
	<g id="POLYLINE_549_">
		<path class="st0" d="M131.5,90.7c-0.9,2.3-2.3,4.5-4.4,6c-0.5,0.3-1.1,0.6-1.6,0.8c-1.3,0.4-2.1-0.3-2.6-1.4
			c-1.1-2.3-1.3-5.1-1.5-7.6c-0.1-1.1-0.4-2.5,0-3.5c0.4-1.1,1.7-0.9,2.6-0.8c2,0.3,4,1.1,5.7,2.3c0.1,0.1,0.3,0.3,0.4,0.4"/>
	</g>
	<g id="POLYLINE_548_">
		<path class="st0" d="M132.6,90.9c-0.8,0.1-1.3-0.3-1.8-0.9c-0.3-0.4-0.4-0.8-0.6-1.2c-0.4-1.3-0.1-2.3,1.1-2.8
			c0.5-0.3,1.1-0.4,1.6-0.5c0.4-0.1,1-0.3,1.4,0.1c0.3,0.4,0.4,0.9,0.6,1.4c0.2,0.7,0.4,1.4,0.5,2C135.6,90.7,133.9,90.9,132.6,90.9
			z"/>
	</g>
	<g id="POLYLINE_547_">
		<path class="st0" d="M85.7,208.4c-0.4,1-1,2-1.6,2.8c-0.4,0.6-0.9,1.1-1.4,1.6c-0.3,0.4-0.6,0.8-1.1,1.1c-0.9,0.5-1.2-0.7-1.4-1.3
			c-0.4-1.4-0.6-2.8-0.9-4.3c-0.6-2.7-1.4-5.2-2.5-7.7c-0.9-2.4-1.5-4.8-1.8-7.4c-0.3-2.9-0.4-5.8-0.6-8.7c-0.2-2.8-0.5-5.6-0.8-8.4
			c-0.3-2.7-0.6-5.4-0.8-8.2c-0.1-2.7-0.2-5.4-0.1-8.1c0.1-2.8,0.2-5.5,0.4-8.3c0.3-2.8,0.5-5.7,0.8-8.5c0.4-3.1,0.8-6.1,1.2-9.2
			c0.4-2.8,0.8-5.7,1.1-8.6c0.4-2.7,0.6-5.5,0.9-8.2c0.3-2.6,0.8-5.2,1.4-7.7c0.7-2.5,1.7-4.8,2.8-7.1c1.2-2.5,2.5-5,3.8-7.6
			c1-1.9,2.1-3.9,4-5.2c1.9-1.3,4.2-2,6.4-2.6c2.8-0.9,5.5-1.7,8.2-2.8c2.3-1.1,4.6-2.3,7.1-2.9c1.2-0.3,2.5-0.6,3.7-0.8"/>
	</g>
	<g id="POLYLINE_546_">
		<path class="st0" d="M92,183.6c-0.8-3.2-1.3-6.5-1.6-9.8c-0.3-3.3-0.5-6.7-0.1-10c0.2-1.6,0.6-3.1,1.1-4.7
			c0.4-1.6,0.4-3.1,0.4-4.7c0-3.2,1.3-6.2,1.7-9.3c0.5-3.3,0.7-6.7,1.9-9.8c0.2-0.4,0.3-0.9,0.5-1.3"/>
	</g>
	<g id="POLYLINE_545_">
		<path class="st0" d="M129.4,183.5c-0.9,2.9-1.8,5.8-2.9,8.6c-1.1,3-2.4,6-3.6,8.9c-1.1,2.6-2.1,5.3-3.3,7.9
			c-1.2,2.6-2.5,5.3-4,7.7c-1.4,2.3-3.1,4.6-5.3,6.2c-1.7,1.3-3.8,2-5.9,2.1c-2.3,0.1-4.5-0.3-6.5-1.1c-2.5-0.9-4.7-2.4-6.8-4.1
			c-1.7-1.4-3.4-3-4.3-5c-1.1-2.3-1.2-5-1.1-7.4c0.1-2.8,0.7-5.6,1.4-8.4c0.8-2.8,1.8-5.7,2.6-8.5c0.9-2.9,2-5.9,2.8-8.8
			c0.8-2.8,1.6-5.7,2.2-8.6c0.6-2.8,1.1-5.7,1.4-8.5c0.3-3,0.5-6.1,0.6-9.2c0.1-3,0.2-6,0.1-9s-0.4-6-0.7-9.1
			c-0.3-2.8-0.6-5.6-0.8-8.4c-0.2-3.1-0.4-6.2-0.5-9.3c-0.1-1.6-0.1-3.1-0.2-4.8"/>
	</g>
	<g id="POLYLINE_544_">
		<path class="st0" d="M169,186.3c0.8-1.6,1.4-3.3,2-5c0.4-1.6,0.8-3.3,1.1-4.9c0.4-2.1,0.8-4.3,1.1-6.5c0.3-1.4,0.6-2.8,0.6-4.3
			c-0.1-1.1-0.6-2-0.9-3c-0.4-1.2-0.3-2.5-0.6-3.7c-0.4-1.5-1.2-2.9-1.6-4.4c-0.3-1.4,0-2.8-0.1-4.2c-0.3-3.5-1.1-7.1-2.1-10.5
			c-0.1-0.4-0.3-0.9-0.4-1.3"/>
	</g>
	<g id="POLYLINE_543_">
		<path class="st0" d="M175.3,215.4c0.9,1.1,3,2.7,4.5,2.1c0.9-0.4,1.4-1.6,1.8-2.5c0.4-1.3,0.8-2.6,1-3.9c0.6-2.8,1.6-5.5,2.5-8.3
			c0.8-2.5,1.5-5,1.3-7.6c-0.1-0.9-0.3-2-0.1-2.9c0.3-1.3,0.8-2.5,1.1-3.7c0.8-2.8,1.1-5.7,1.6-8.6c0.4-2.9,0.8-5.8,1-8.8
			c0.3-2.8,0.4-5.5,0.6-8.3c0.1-3,0.2-5.9,0.2-8.9c-0.1-2.8-0.2-5.7-0.4-8.6c-0.3-2.7-0.6-5.4-0.9-8.1c-0.4-3.1-0.8-6.2-1-9.3
			c-0.1-1.4-0.3-2.9-0.3-4.3c-0.1-1.4,0.1-2.8,0.1-4.2c0.1-2.6-0.7-5.2-1.6-7.7c-0.9-2.6-2.1-5.2-3.3-7.8c-0.5-1.2-1-2.5-1.4-3.7
			c-0.4-1.4-0.7-2.8-0.9-4.3c-0.4-2-1.1-4.5-2.8-5.8c-0.9-0.6-2.1-0.8-3.1-1c-1.3-0.3-2.5-0.7-3.8-1.1c-3-1.1-6-2.4-9-3.6
			c-2.5-1-5-1.8-7.5-2.8c-1.3-0.4-2.6-0.9-3.9-1.4"/>
	</g>
	<g id="POLYLINE_542_">
		<path class="st0" d="M119.1,75.3c-2.3,2.1-4.2,4.3-6,6.9c-1.7,2.4-3.3,5-4.3,7.7c-0.3,0.8-0.5,1.5-0.8,2.2c-0.2,0.6-0.3,0.8-1,0.8
			c-0.8-0.1-1.5-0.3-2.3-0.3c-0.4-0.1-1.1-0.2-1.4,0c-0.5,0.3,0,1.1,0.1,1.4c0.2,0.6,0.4,1.3,0.6,1.8c0.5,1.8,0.9,3.7,1.4,5.5
			c0.8,3.1,1.6,6.2,2.6,9.2c0.9,3.1,2,6.3,3.1,9.4s2.3,6.2,3.6,9.3c1.2,2.9,2.5,5.7,3.8,8.6c1.4,3.1,3,6.2,4.5,9.3
			c1.4,2.9,3,5.7,4.7,8.6c0.4,0.6,0.8,1.3,1.1,1.9"/>
	</g>
	<g id="POLYLINE_541_">
		<path class="st0" d="M130,152.4c-0.6-2.7-1.3-5.5-2-8.2c-0.6-2.8-1.1-5.5-1.6-8.3s-0.9-5.7-1.3-8.6c-0.4-3-0.8-6-1.3-8.9
			c-0.4-2.6-0.7-5.4-1-8.1c-0.3-2.3-0.6-4.5-0.8-6.7c-0.4-3.6-0.8-7.2-1.3-10.8c-0.3-2.3-0.6-4.5-1.1-6.7c-0.6-2.5-1.3-5.1-1.1-7.7
			c0.1-1.3,0.4-2.5,0.6-3.8c0.2-1.5,0.3-3,0.5-4.5c0.1-0.6,0.1-1.1,0.2-1.7"/>
	</g>
	<g id="POLYLINE_540_">
		<path class="st0" d="M127.6,162.5c2.1-3,4.1-6,6-9.1c1.8-2.9,3.5-5.9,5.2-8.9c1.7-3.1,3.2-6.2,4.7-9.4c1.5-3.1,3-6.4,4.4-9.6
			c1.2-2.8,2.4-5.6,3.6-8.4c1.9-4.6,3.8-9.2,5.7-13.8c1.1-2.6,2.3-5.1,3.4-7.7c0.1-0.4,0.6-1.2,0.3-1.5c-0.4-0.3-1.4,0.1-1.8,0.1
			c-0.5,0.1-1.3,0.4-1.7,0.1s-0.4-0.9-0.5-1.4c-0.3-1.4-1-2.7-1.6-4c-0.8-1.6-1.4-3.2-2.2-4.8c-0.7-1.4-1.4-2.8-2.5-4
			c-1.1-1.1-2.3-2.1-3.3-3.2c-0.6-0.6-1.2-1.3-1.8-1.9"/>
	</g>
	<g id="POLYLINE_539_">
		<path class="st0" d="M170.7,114.7c-0.1,5.2-0.4,10.5-1.2,15.7s-2.2,10.2-3,15.4c-0.8,5-1.1,10.1-0.8,15.2c0.1,2.5,0.4,5,0.9,7.5
			c0.6,2.5,1.4,4.9,2,7.4c0.6,2.4,0.7,4.7,0.6,7.1c-0.1,2.6-0.4,5.2,0.1,7.7s1.6,4.9,2.4,7.4c0.8,2.4,1.1,4.8,1.6,7.4
			c0.3,1.3,0.4,2.6,0.7,3.9c0.3,1.2,0.6,2.3,0.9,3.5c0.4,1.8,0.4,3.4-0.1,5.1c-0.7,2.1-1.8,4.3-3,6.2c-1.3,1.9-3.1,3-5.2,3.9
			c-4.3,2-9.2,3.5-14,3.7c-4.2,0.2-8.4-0.8-11.3-4c-3.3-3.6-4.7-8.8-5.8-13.4c-1.1-4.5-2-8.9-2.9-13.5c-1.2-6.4-2.4-12.7-3.6-19.1
			c-0.9-4.7-1.8-9.3-1.8-14c-0.1-5.3,1.4-10.3,2.8-15.3c1.3-4.5,2.3-9.1,3.3-13.7c1.3-6.2,2.7-12.5,4-18.7c1-4.7,2-9.4,3.1-14
			c1.3-5.2,2.6-10.3,3.8-15.5c1.1-4.7,1.8-9.7,1.1-14.5c-0.4-2.5-0.8-4.9-0.9-7.4"/>
	</g>
</g>
<g id="AG-OUTLINE" class="st1">
	<g id="POLYLINE_31_" class="st2">
		<path d="M175.3,215.4c1.3,1.4,3.9,3.4,5.4,1.3c0.7-0.9,1-2.1,1.3-3.2c0.4-1.6,0.7-3.1,1.1-4.7c0.8-3.1,2.1-6.1,2.8-9.3
			c0.3-1.4,0.5-2.8,0.4-4.3c-0.1-1.1-0.3-2.2,0.1-3.3c0.4-1.5,0.9-2.9,1.3-4.4c0.4-1.6,0.6-3.3,0.9-4.9c0.5-3.2,0.9-6.4,1.3-9.6
			c0.3-3.3,0.6-6.6,0.8-9.9c0.1-3.3,0.3-6.7,0.1-10.1c-0.1-3.1-0.3-6.3-0.6-9.4c-0.4-3.8-0.8-7.5-1.3-11.2c-0.3-3-0.8-6-0.8-9
			c0-1.6,0.2-3.2,0.1-4.8c-0.1-1.4-0.4-2.8-0.8-4.2c-0.9-3.2-2.3-6.2-3.7-9.3c-0.6-1.3-1.1-2.6-1.6-4c-0.5-1.6-0.8-3.1-1.1-4.8
			c-0.4-2.2-1.3-5.3-3.7-6.2c-1.3-0.5-2.6-0.6-4-1c-1.3-0.4-2.5-0.8-3.7-1.3c-3.4-1.4-6.7-2.8-10.2-4c-1.6-0.6-3.3-1.1-4.9-1.8
			c-1-0.4-2-0.7-3-1.1c-0.6-0.2-0.8-0.3-1.2-0.8c-1-1.1-2.2-2-3.3-3.1c-0.3-0.3-0.5-0.6-0.8-0.8c-0.3-0.3-0.8-0.7-1.1-1.1
			c-0.3-0.6-0.3-1.6-0.4-2.3c-0.1-0.8-0.2-1.6-0.3-2.4c-0.1-0.4-0.1-0.8-0.1-1.2c-0.1-0.5-0.1-0.8,0.2-1.1c0.8-1.2,1.3-2.5,1.8-3.8
			c0.4-1.3,0.7-2.6,0.9-4c0.4,0.1,0.8,0.3,1.2,0.1c0.4-0.3,0.6-0.8,0.7-1.1c0.4-1.1,0.7-2.3,0.9-3.5c0.3-1.3,0.4-2.6,0.6-4
			c0.1-1.1,0.3-2.2,0.1-3.3c-0.3-1.3-1.3-0.8-2.1-0.3c0.4-3,1-6.1,1.3-9.1c0.3-2.6,0.3-5.4-0.5-7.9c-0.6-2-1.8-4-3.5-5.2
			c-0.6-0.4-1.3-0.8-2-1c-0.5-0.1-1-0.1-1.5,0.1c-0.5,0.1-1.2,0.3-1.7,0.2c-0.9-0.3-1.3-1.8-1.8-2.6c-0.5-0.8-1.3-1.4-2.1-1.7
			c-2.2-0.8-4.8-0.4-7.1,0c-2.8,0.5-5.7,1.3-8.2,2.6c-2.5,1.3-4.8,3.1-5.9,5.8c-1,2.3-1.1,4.9-1.1,7.4c0.1,3.1,0.3,6.3,0.6,9.4
			c0.1,0.7,0.2,1.4,0.3,2.1c-0.4,0-0.9-0.1-1.3,0.2s-0.4,0.8-0.5,1.1c-0.2,0.9-0.1,2,0,3c0.2,2.5,0.6,5,1.6,7.4
			c0.2,0.4,0.4,0.9,0.8,1.3c0.4,0.3,0.9,0.1,1.3-0.1c0,0.8,0.4,1.6,0.6,2.3c0.2,0.8,0.4,1.4,0.7,2.1c0.3,0.7,0.6,1.4,0.9,2.1
			c0.1,0.3,0.3,0.6,0.4,0.8c0,0.3-0.1,0.6-0.1,0.8c-0.2,1.8-0.4,3.6-0.6,5.4c-0.1,0.4-0.1,0.7-0.3,0.9c-0.3,0.3-0.6,0.6-0.9,0.9
			c-0.6,0.5-1.1,1.1-1.6,1.6c-0.4,0.5-0.9,1.1-1.4,1.6c-0.2,0.3-0.4,0.6-0.7,0.8c-0.3,0.1-0.8,0.1-1.2,0.2c-1.4,0.3-2.8,0.6-4.1,1.1
			c-2.8,0.9-5.3,2.5-8.1,3.5c-3,1.1-6,1.8-8.9,3c-2.3,0.9-4,2-5.4,4.1c-1.7,2.6-3,5.5-4.3,8.2c-1.3,2.6-2.6,5.3-3.5,8.1
			c-0.9,2.9-1.3,5.9-1.7,8.9c-0.4,3.2-0.8,6.4-1.1,9.6c-0.4,3.5-0.9,6.9-1.4,10.3c-0.4,2.9-0.8,5.8-1.1,8.7
			c-0.3,3.3-0.6,6.5-0.8,9.8c-0.1,3.1-0.3,6.2-0.1,9.4c0.1,3,0.3,5.9,0.6,8.8c0.4,3.5,0.8,6.9,1.1,10.4c0.2,3.1,0.3,6.2,0.7,9.4
			c0.2,1.4,0.4,2.8,0.8,4.2c0.4,1.6,1.1,3,1.6,4.5c1.1,2.9,1.6,5.9,2.3,8.9c0.1,0.6,0.4,2.8,1.3,2.7c0.4,0,0.8-0.5,1.1-0.8
			c0.5-0.6,1-1.1,1.5-1.8c0.8-0.9,1.4-2,1.9-3.1c0,2.3,0.2,4.6,1.1,6.6c0.2,0.4,0.4,0.9,0.7,1.3c0.3,0.4,0.6,0.6,0.6,1.1
			c0.3,1.4,0.3,2.9,0.5,4.3c0.7,5.4,2.2,10.5,3.3,15.8c1.1,5.4,1.9,10.7,2.4,16.1c0.5,4.9,0.8,9.8,1,14.7c0.3,6,0.6,12,0.8,17.9
			c0.1,5.2-0.1,10.4-0.7,15.6c-0.6,5.5-1.5,11.1-1.1,16.7c0.2,2.8,0.6,5.5,1,8.2c0.3,2.6,0.6,5.2,0.8,7.8c0.4,6,0.4,12.1,0.6,18.1
			c0.1,2.1,0.1,4.3,0.3,6.5c0.2,2.4,0.3,4.8,1.1,7.1c0.3,0.8,0.7,1.6,1.3,2.1c-0.8,0.8-1.6,1.7-2.4,2.6c-0.5,0.7-0.9,1.4-1.5,2.1
			c-1.3,1.4-3.5,2-5.4,2.6c-1.6,0.6-3.2,1.3-3.8,3.1c-0.3,1-0.4,2.5,0.4,3.3c1.1,1.2,3.3,1.1,4.7,1.2c2.6,0.1,5.2,0,7.7-0.1
			c4.5-0.1,9.1,0.4,13.7,0c1.6-0.1,3.7-0.3,3.7-2.3c0.1-2.1-0.3-4.3-0.4-6.4c-0.1-1.3-0.1-2.5-0.3-3.8c-0.1-1.1-0.4-2.3-0.6-3.5
			c0-0.3,0.1-0.3,0.3-0.5c0.1-0.2,0.3-0.4,0.4-0.6c0.1-0.3,0.3-0.5,0.3-0.8c0.3-0.7,0.3-1.4,0.4-2.1c0.1-2.3-0.1-4.7-0.2-6.9
			c-0.1-2.5-0.1-4.9,0-7.4c0.1-3,0.3-5.9,0.4-8.9c0.3-5.4,0.6-10.9,0.9-16.3c0.4-7.2,0.8-14.4,1.1-21.7c0.3-5.9,0.6-11.8,0.9-17.8
			c0.2-3,0.3-6,0.6-9.1c0.3-4.7,0.8-9.3,1.4-14s1.4-9.4,2.5-14.1c1.1-4.8,2.5-9.7,3.6-14.5c0.5-2.3,0.9-4.7,1.5-6.9
			c0.1-0.4,0.4-1.8,1-1.3c0.5,0.5,0.7,1.5,0.9,2.1c0.8,2.5,1.6,4.8,2.6,7.1c0.8,2,1.6,4.1,2.2,6.2c1.3,4.7,2,9.6,2.8,14.4
			c0.8,5.1,1.3,10.2,2,15.2c0.6,4.4,1.1,8.8,2,13.2c0.4,2.3,1.1,4.5,1.8,6.7c0.8,2.3,1.6,4.5,2.1,6.8c0.5,2.1,0.6,4.2,0.5,6.2
			c-0.1,2.6-0.1,5.2,0,7.7c0.3,5,0.8,10,1.3,15c0.4,4.7-0.3,9.1-0.9,13.7c-0.6,4.4-0.8,8.8-0.4,13.2c0.3,4.7,0.9,9.4,2.2,13.9
			c0.2,0.8,0.4,1.6,0.9,2.2c0.2,0.3,0.5,0.4,0.8,0.6c0.3,0.3,0.1,1,0.1,1.4c-0.1,2-0.8,3.9-1.1,5.9c-0.2,1.3-0.3,2.5-0.4,3.8
			c-0.1,0.6-0.4,1.8-0.1,2.5c0.4,0.6,1.4,0.6,2.1,0.7c1,0.1,2,0.1,3,0c2.5-0.1,5-0.1,7.6-0.1c1.1,0,2.3,0.1,3.4,0
			c0.8-0.1,1.6-0.3,2.1-0.9c0.9-1.3,0.4-3.7,0.1-5.1c-0.4-2.3-0.9-4.7-1.4-7.1c-0.1-0.3-0.1-0.5-0.2-0.8c-0.1-0.1-0.1-0.3-0.1-0.4
			c-0.1-0.3-0.1-0.3,0.1-0.5c0.4-0.4,0.6-0.8,0.8-1.3c0.2-0.6,0.3-1.3,0.3-2c0.2-2.4,0.2-4.8,0.4-7.2c0.4-5,0.9-10,1.3-15
			c0.4-4.9,0.6-9.8,0.8-14.7c0.2-4.8,0.3-9.6,0.4-14.4c0.1-4.9,0-9.8-0.1-14.7c-0.1-5-0.1-10-0.1-15c0-4.8,0.1-9.5,0.1-14.3
			c0.1-4.8,0.2-9.5,0.3-14.2c0.1-5.2,0.3-10.3,0.4-15.4c0.2-4.8,0.4-9.6,0.8-14.4c0-0.4-0.1-1.1,0.1-1.5c0.1-0.4,0.5-0.8,0.7-1.1
			c0.6-0.9,1.1-1.8,1.5-2.8C174.5,218.9,175.3,217.2,175.3,215.4z"/>
	</g>
	<g id="POLYLINE_32_" class="st2">
		<path d="M322.6,118.6c0-3.5-0.1-7-0.8-10.3c-0.6-2.5-1.6-4.8-3.7-6.3c-2.5-1.8-5.6-2.1-8.5-2.8c-3.2-0.7-6.4-1.8-9.3-3.5
			c-0.4-0.3-0.8-0.4-1.1-0.7c-0.3-0.2-0.3-0.1-0.2-0.4c0-0.1,0-0.2,0-0.3c-0.1-0.4-0.6-0.5-0.9-0.4C298,94,298,94,297.8,94
			c-0.1,0-0.3-0.3-0.4-0.3c-0.3-0.2-0.4-0.4-0.6-0.6c-0.3-0.4-0.6-0.8-0.8-1.1c-0.2-0.4-0.3-0.8-0.4-1.1c-0.1-0.3-0.1-0.6-0.2-0.9
			s-0.3-1.1-0.1-1.3c0.1-0.2,0.9-0.3,1.2-0.3c0.4-0.1,0.8-0.3,1.1-0.4c0.6-0.3,1.3-0.8,1.5-1.5c0.3-0.6,0.3-1.3,0.3-2
			c0.1-1.3,1-2.3,1-3.5c-0.1-1.5,1.4-2.6,2.1-3.8c0.4-0.8,0.8-1.6,0.9-2.5c0.1-1.3-0.3-2.6-0.5-3.9c-0.3-1.4-0.4-2.8-0.3-4.2
			c0.1-1.6,0.4-3.1,0.2-4.7c-0.2-1.6-0.7-3.1-0.9-4.7c-0.2-1.7-0.3-3.4-0.6-5c-0.1-1.1-0.6-2-1.4-2.8c-0.3-0.3-0.3-0.3-0.1-0.6
			c0.1-0.3,0.1-0.6,0.1-0.9c0.1-1.1-0.5-1.5-1.2-2.3c-0.5-0.6-0.3-1.1-0.3-1.8s-0.8-0.9-1.2-1.3c-0.5-0.4-0.4-1.1-0.5-1.7
			c-0.1-0.7-0.4-0.9-1.1-1.1c-0.6-0.1-1.2-0.2-1.6-0.6c-0.4-0.5-0.5-1.3-0.7-2c-0.4-1.4-1.8-1.3-3-1.4c-0.6,0-1.2-0.1-1.6-0.4
			c-0.4-0.4-0.4-1.2-0.9-1.6c-0.4-0.4-1.2,0-1.6,0.1s-0.8,0.1-1.3,0.1c-1.1-0.1-2.5-0.8-3.6-0.1c-1.1,0.8-1.6,2.1-3.2,1.6
			c-0.7-0.2-1.4-0.6-2.1-0.6c-0.8,0.1-1.4,0.6-2.1,1c-0.5,0.3-1.1,0.6-1.7,0.6c-0.6,0.1-1.5-0.1-2,0.4c-0.6,0.5-0.6,1.3-1,1.9
			c-0.4,0.6-1.1,0.6-1.7,1.1c-0.5,0.4-0.8,1-0.9,1.6c-0.2,0.6-0.3,1.3-0.8,1.7c-0.5,0.3-1.1,0.3-1.7,0.4c-0.6,0.2-0.9,0.6-1.3,1.2
			c-0.5,1.1-0.6,2.2-0.1,3.3c0.3,0.6,0.8,1.3,0.9,2c0.2,0.8-0.3,1.1-0.7,1.8c-0.6,1.1-0.8,2.8,0.6,3.4c0.6,0.3,1.3,0.4,2,0.7
			c0.8,0.3,0.8,0.8,1.2,1.4c0.6,0.9,2.2,0.8,3.1,0.5c-0.3,1.5-0.1,3.1,0.1,4.6c0.1,0.9,0.3,1.8,0.5,2.6c0.1,0.4,0.2,0.8,0.3,1.2
			c0.1,0.2,0.1,0.4,0.2,0.6c0.1,0.4,0.1,0.4-0.2,0.7c-1.1,1.1-0.8,2.6-0.3,3.9c0.6,1.6,1.4,3,2.5,4.3c0.8,0.9,1.6,1.8,2.9,2
			c0.2,0,0.3,0,0.5,0c0.1,0,0.3-0.1,0.4,0c0.2,0.1,0.2,0.2,0.3,0.4c0.3,0.9,0.6,1.9,0.8,2.8c0.8,3.5,0.9,7.4,0.1,10.9
			c-0.3,1.5-0.8,3-1.6,4.3c-0.3,0.5-0.7,1-1.1,1.4c-0.1,0.1-0.2,0.3-0.3,0.4c-0.2,0.1-0.1,0-0.3-0.1c-0.2-0.1-0.4-0.1-0.6,0
			s-0.3,0.3-0.4,0.5c0,0.1,0,0.3,0,0.4c-0.1,0.3-0.1,0.3-0.4,0.5c-0.7,0.5-1.4,0.9-2.2,1.3c-1.7,0.9-3.4,1.6-5.2,2.2
			c-2,0.7-3.9,1.3-5.9,1.9c-1.5,0.4-3,0.9-4.3,1.8c-2.8,1.8-3.2,5.1-3.5,8.1c-0.1,1.8-0.3,3.7-0.1,5.5c0.1,0.4,0.1,0.9,0.1,1.4
			c0.1,0.3,0.1,0.3-0.1,0.5c-0.1,0.1-0.3,0.2-0.3,0.3c-0.6,0.5-0.9,1.1-0.9,1.8c-0.1,1.9-0.1,3.8-0.1,5.6c0,0.9,0,1.8,0.1,2.8
			c0.1,0.6,0.1,1.4,0.4,1.8c0.4,0.4,0.8,0.3,1.2-0.1c0.4,4.9,0.7,9.9,0.6,14.9c-0.1,2.5-0.3,4.9-0.6,7.4c-0.4,2.6-1,5.2-1.6,7.8
			c-1,4.5-1.5,9-1.6,13.6c-0.2,5.8-0.3,11.6-0.4,17.4c-0.1,2-0.1,4-0.3,5.9c-0.1,1.1-0.2,2.3-0.4,3.3c-0.2,1.3-0.5,2.5-0.6,3.8
			c-0.1,2.4,0.4,4.7,0.6,7.1c0.2,2.5,0.1,5-0.1,7.4c-0.1,2.2-0.3,4.5,0.4,6.6c0.6,1.9,1.6,3.6,2.8,5c1.3,1.5,2.7,2.8,4.3,4
			c0.8,0.6,1.6,1,2.5,1.4c0.3,0.1,0.4,0.1,0.4,0.4c0.1,0.3,0,0.6,0,0.9c0,0.7-0.1,1.3-0.1,2c-0.2,4.5-0.7,9-1.1,13.5
			c-0.6,5.5-1.1,11.1-1.6,16.7c-0.2,2-0.3,4-0.4,6c-0.4,5.2-0.8,10.3-1.1,15.5c-0.5,7.1-1,14.1-1.5,21.1c-0.6,7.6-1.1,15.2-1.6,22.8
			c-0.5,6.9-1,13.7-1.5,20.6c-0.4,4.8-0.7,9.7-1.1,14.5c-0.1,2.1-0.4,4.2-0.4,6.3c0,0.8,0.1,1.5,0.8,2c0.8,0.5,1.8,0.6,2.8,0.8
			c2.3,0.4,4.7,0.4,7.1,0.4c5,0,9.9-0.8,14.8-1.7c0.3-0.1,0.4-0.1,0.6,0c0.1,0.1,0.2,0.4,0.3,0.5c0.3,0.5,0.8,0.8,1.3,0.9
			c0.8,0.2,1.7,0.2,2.5,0.3c2.5,0,5,0.1,7.5-0.1c0.6-0.1,1.5-0.1,2-0.7c0.5-0.7,0.3-2.1,0.3-2.8c0.2,0,0.7-0.1,0.8,0.1
			c0.1,0.2,0,1,0,1.3c0,0.4,0,0.8,0.1,1.2c0.3,0.8,1.3,0.9,2.1,0.9c2.6,0.3,5.2,0.1,7.7,0.1c0.9,0,2,0,2.8-0.4
			c0.3-0.2,0.4-0.5,0.8-0.7c0.2-0.1,0.6-0.1,0.8,0c0.6,0.1,1.2,0.1,1.8,0.1c2.6,0,5.4-0.3,8-0.3c2.9-0.1,5.8,0,8.7,0.1
			c2.2,0.1,4.5,0.1,6.6-0.4c1.7-0.4,3.1-1.4,3.2-3.3c0.1-2.3-0.9-4.7-1.4-6.9c-1.1-4.7-1.4-9.4-1.8-14.2c-0.4-5.9-0.8-11.7-1.3-17.5
			c-0.4-5.2-0.9-10.3-1.6-15.4c-0.6-4.7-1.1-9.3-1.7-14c-0.9-6.5-1.8-13-2.6-19.5c-0.9-6.8-1.8-13.6-2.8-20.4
			c-0.6-4.1-1-8.2-1.4-12.3c-0.5-5.2-0.9-10.3-1.2-15.4c-0.1-1.9-0.3-3.8-0.4-5.7c0-0.3-0.3-1.1-0.1-1.4c0.1-0.1,0.7-0.3,0.9-0.4
			c1.7-0.8,2.8-2.3,3.4-4c0.8-2.2,1.1-4.7,1.2-7c0.2-2.3,0.1-4.7-0.2-6.9c-0.3-2.7-0.8-5.4-0.8-8.1c0-2.1,0.9-4.2,0.9-6.4
			c0.1-2.6-0.1-5.1,0-7.6c0.2-2.7,0.6-5.4,0.9-8c0.7-5.3,1.4-10.5,1.3-15.9c-0.1-5.1-0.9-10.3-0.6-15.4c0.4-5.5,0.7-11,0.8-16.5
			c0-1.3,0.1-2.5,0.1-3.8c0-0.9,0-1.8,0.1-2.6c0-0.8-0.1-1.6,0.1-2.4c0.1-0.3-0.1-0.1,0.2-0.3c0.1-0.1,0.3-0.1,0.3-0.3
			c0.2-0.4,0.1-1,0.1-1.4c0-1.3-0.1-2.6-0.1-3.8c-0.1-1.3-0.1-2.6-0.2-3.9C323.3,120.1,323.2,119.2,322.6,118.6z"/>
	</g>
</g>
<line class="st3" x1="0" y1="0" x2="19" y2="-18"/>
</svg>
