<?xml version="1.0" encoding="utf-8"?>
<!-- Generator: Adobe Illustrator 27.0.0, SVG Export Plug-In . SVG Version: 6.00 Build 0)  -->
<svg version="1.1" id="Layer_1" xmlns="http://www.w3.org/2000/svg" xmlns:xlink="http://www.w3.org/1999/xlink" x="0px" y="0px"
	 viewBox="0 0 404 404" style="enable-background:new 0 0 404 404;" xml:space="preserve">
<style type="text/css">
	.st0{fill:none;stroke:#000000;stroke-miterlimit:10;}
	.st1{fill:none;stroke:#000000;stroke-width:2.75;stroke-linecap:round;stroke-linejoin:round;stroke-miterlimit:10;}
	.st2{fill:none;stroke:#000000;stroke-width:3.5;stroke-linecap:round;stroke-linejoin:round;stroke-miterlimit:10;}
</style>
<g id="SELECT">
	<g id="sunglasses">
		<polygon class="st0" points="122.6,42.7 139,44.9 154.9,44.9 154.2,47.8 151.5,49.8 149.6,53 142.6,53.8 139,46.9 136,49.9 
			131.1,53 124,50.4 		"/>
	</g>
	<g id="shoes_00000121982986587861731330000005023910209947338393_">
		<polygon class="st0" points="282.2,366.2 294.4,366.8 295.3,374.2 300.2,370.5 301.3,364.9 313.3,369.4 311.3,381.9 276.7,381.3 
			278.6,375.2 		"/>
	</g>
	<g id="shoes">
		<polygon class="st0" points="77,370.9 95.1,372.9 94.3,382.1 74.3,382.1 		"/>
		<polygon class="st0" points="139.1,369.3 142.8,373.3 154.4,373.9 157.6,372.2 159.4,381.7 139.5,381.5 		"/>
	</g>
	<g id="shorts_00000052822568416311577500000008305349687273736077_">
		<polygon class="st0" points="97.7,183.6 117.1,184.9 126.2,187 163.4,181.9 173.7,210.4 167.7,244.4 166.3,267.8 159.5,272.8 
			136.8,271.5 135.7,255.7 131.1,232.9 127.9,246.3 125.7,273.7 95.6,272.9 84.8,268.7 89.2,221.2 87.2,206.2 95.9,190.8 		"/>
	</g>
	<g id="shorts">
		<polygon class="st0" points="252.4,210.4 255.8,185.1 262.2,179.1 271.2,175.1 277.3,172.6 304.1,172.5 307.2,179 310.8,183.6 
			306.7,202.1 301,213.3 292.3,219.2 261,213.3 		"/>
		<polygon class="st0" points="319.3,194.3 324.6,211.9 313.8,211.4 		"/>
	</g>
	<g id="shirt">
		<polygon class="st0" points="147.5,75.7 152.6,80.5 171,87.7 180.3,102.8 183.2,127 185.8,143.3 188,153.6 180.3,157.1 
			167.8,159.6 165.3,161.6 163.4,180.1 139.4,183.6 124,184.9 109.2,181.5 100.1,182.2 95.5,178 97.9,159.4 95.5,153.4 92.8,157.2 
			74.2,149.4 78.8,125 79.3,107.1 90.7,86.2 100.3,82.3 111.2,78.4 119.7,70 119.9,79.1 128.1,91.9 132.8,94.2 137.9,89.6 
			146.1,80.5 		"/>
	</g>
	<g id="blazer">
		<polygon class="st0" points="313.8,92.3 313.9,104.2 314.6,110.5 317.4,121.1 315.5,139.6 311.4,136.2 305.6,124.1 304.1,130.9 
			302,128.3 297.3,116.9 293,124.7 289.1,130.6 284.1,112.5 277.3,99.3 277,95.4 273.1,97.5 261.1,104.6 255.6,110.4 252.5,144.5 
			249.4,170.2 250.7,173.4 257.1,174.3 252.6,182.2 252.9,185 262.2,179.1 267.5,176.2 277,170.2 292.1,172 303.6,171.5 308,180.1 
			311.4,180.5 313.8,170.2 325.7,172.6 328.8,175.2 332.7,112.8 328.4,97.1 		"/>
	</g>
</g>
<g id="AG-HUMANS">
	<g id="POLYLINE_331_">
		<path class="st1" d="M80.7,367.5c-1.3,0.5-2.1,1.5-2.9,2.5c-1.1,1.5-2,3.1-2.5,4.9c-0.4,1.6-0.6,3.5-0.4,5.1
			c0.2,1.8,1.7,2.7,3.4,2.8c1.8,0.1,3.6,0,5.4,0c2,0.1,4.1,0.1,6.1,0c1.3-0.1,2.7-0.2,4-0.7c1.6-0.7,1.7-2.2,1.6-3.7
			c-0.2-3.7,0.4-7.4-0.8-10.9c-0.1-0.4-0.3-0.8-0.4-1.2"/>
	</g>
	<g id="POLYLINE_330_">
		<path class="st1" d="M140.8,365.6c-2.3,3.2-2.3,7.1-2.1,10.9c0.1,1.6,0.1,3.5,0.8,5c0.8,1.6,2.8,1.4,4.2,1.3
			c2.2-0.1,4.4-0.1,6.6,0c2,0.1,4.1,0.1,6.1,0c1.5-0.1,3.2-0.4,3.4-2.1c0.2-1.5-0.4-3-0.7-4.4c-0.8-3.4-2-6.5-4.3-9.1
			c-0.3-0.3-0.6-0.6-0.8-0.9"/>
	</g>
	<g id="POLYLINE_329_">
		<path class="st1" d="M139.1,272.1c0.1,1.6,0,3.3,0.3,4.9c0.3,1.8,0.9,3.5,1.5,5.3c0.9,3.2,2.1,6.4,1.9,9.7c-0.1,3.2-1.4,6.1-2,9.2
			c-0.7,3.4-0.6,6.9-0.3,10.3c0.3,3.8,1,7.5,1.3,11.3c0.2,3.3,0.3,6.6,0.3,9.9c0.1,4.4,0.1,8.8,0.1,13.2c0,3.8,0.1,7.6,0.1,11.4
			c-0.1,1.7-0.1,3.4-0.4,5.1c-0.4,1.6-0.9,2.9-0.9,4.6c-0.1,2.5,0.3,6.6,3.4,7c1.7,0.3,3.5,0,5.3-0.1c0.8-0.1,1.6-0.1,2.3-0.1
			c0.8,0,1.6,0.1,2.4,0.1c1.6,0,1.4-1.6,1.2-2.7c-0.3-1.6-0.9-3.2-1.3-4.7c-0.9-3.3-0.9-6.8-0.6-10.2c0.3-3.7,0.9-7.5,1.6-11.1
			c0.7-3.5,1.6-7.1,2.4-10.6c0.9-4.1,2-8.2,2.9-12.3c0.8-3.6,1.6-7.2,2-10.8c0.4-3.6,0.6-7.3,0.3-10.9c-0.3-3.7-0.9-7.4-1.2-11.1
			s-0.4-7.5-0.5-11.3c-0.1-1.9-0.1-3.8-0.1-5.7"/>
	</g>
	<g id="POLYLINE_328_">
		<path class="st1" d="M90.4,270.8c0.2,3.3,0,6.8-1.3,9.8c-0.7,1.7-1.6,3.3-2.1,5.1c-0.6,1.8-0.8,3.8-1.1,5.7
			c-0.8,3.7-2.5,7-3.9,10.4c-1.3,3.4-2,7-2.1,10.6c-0.2,4,0,8,0.4,11.9c0.4,4.1,0.9,8.2,1.4,12.2c0.4,3.9,1,7.7,1.3,11.6
			c0.3,3.4,0.6,7-0.6,10.2c-0.4,1.1-0.9,2-0.8,3.2c0.2,1.3,0.8,2.5,0.4,3.9c-0.3,0.8-0.8,1.5-1.3,2.2s-0.9,1.4-1.3,2.2
			c-0.3,0.7-0.7,1.5-0.1,2.1s1.8,0.4,2.6,0.4c1.9,0,3.8,0,5.6,0.2c0.9,0.1,1.8,0.2,2.7,0.4c0.8,0.1,1.8,0.7,2.5,0.3
			c0.9-0.5,1.2-2,1.3-2.9c0.4-1.9,0-3.5-0.3-5.4c-0.2-1.3,0.2-2.4,0.6-3.7c0.4-1.6,0.4-3.2,0.4-4.8c0-2,0-4,0.3-6
			c0.3-1.8,0.6-3.6,1-5.4c0.9-3.9,2-7.8,3.1-11.7c1.1-3.8,2.1-7.6,3.4-11.3c0.8-2,1.6-3.9,1.9-6c0.3-1.7,0.3-3.5,0.2-5.2
			c-0.1-2-0.2-3.9-0.1-5.9c0.1-1.6,0.5-3.3,1.1-4.9c0.6-1.8,1.5-3.5,2.1-5.2c0.6-2,1-4,1.4-6c0.7-3.4,2.3-6.6,3.5-9.8
			c0.8-2.1,1.5-4.2,2.2-6.3"/>
	</g>
	<g id="POLYLINE_327_">
		<path class="st1" d="M173.3,211.9c2-0.6,3.6-1.3,5.2-2.6c1.4-1.1,2.7-2.4,3.9-3.8c1-1.3,2-2.6,2.3-4.2c0.3-2,0-4,0.1-5.9
			c0.2-4.3,1.1-8.5,1.7-12.7c0.6-4.2,0.8-8.6,0.8-12.9c0-4.3-0.3-8.5-0.8-12.8c-0.1-0.5-0.1-1-0.2-1.6"/>
	</g>
	<g id="POLYLINE_326_">
		<path class="st1" d="M170.6,200.5c1.6-1.1,3.2-2.4,3.8-4.4c0.8-2.7,0.4-5.7,0-8.4c-0.6-3.2-1.4-6.3-2.1-9.4
			c-0.7-2.8-1.2-5.7-1.5-8.5c-0.4-3-0.6-6-0.6-9c0-0.4,0-0.8,0-1.2"/>
	</g>
	<g id="POLYLINE_325_">
		<path class="st1" d="M93.1,196.1c-0.4-2.5-0.8-4.9-0.8-7.4c-0.1-2.3,0.1-4.7,0.3-7c0.4-5.1,0.8-10,0.6-15
			c-0.1-3.2-0.2-6.3-0.4-9.5"/>
	</g>
	<g id="POLYLINE_324_">
		<path class="st1" d="M87.2,208.4c-1.1-1-2.2-2-3-3.4c-0.7-1.3-0.9-2.8-1.1-4.2c-0.3-2-0.3-3.9-0.5-5.8c-0.2-2-0.5-4.1-0.9-6.1
			c-0.8-4-2-7.8-3-11.8c-0.9-3.8-1.5-7.6-1.8-11.6c-0.3-4.1-0.1-8.2,0.3-12.3c0.1-0.4,0.1-0.9,0.1-1.3"/>
	</g>
	<g id="POLYLINE_323_">
		<path class="st1" d="M97.9,181.1c-0.1,2.7-0.5,5.3-1.3,7.8c-0.8,2.6-2,5-3.5,7.2c-1.6,2.3-3.5,4.4-4.9,7c-1.3,2.4-1.3,4.8-0.7,7.5
			c0.6,2.8,1.6,5.4,1.7,8.3c0.1,3.2-0.5,6.3-0.8,9.4c-0.3,2.7-0.5,5.4-0.8,8.2c-0.3,3.4-0.6,6.8-0.9,10.2c-0.3,2.7-0.6,5.5-0.9,8.2
			c-0.4,3.1-1,6.2-1,9.4c0,0.9,0.1,1.8,0.3,2.6c0.4,1.2,1.5,1.9,2.7,2.5c2.5,1.4,5.1,2.7,7.8,3.5c2.7,0.8,5.4,0.9,8.3,0.8
			c3.1-0.2,6.2-0.7,9.4-0.9c3-0.2,5.9,0,8.9,0.1c1,0,2.5,0.1,3.4-0.5s0.4-2.3,0.3-3.2c-0.2-2.8,0.2-5.8,0.6-8.6
			c0.4-2.8,0.8-5.7,1.2-8.6c0.4-3.7,0.9-7.3,1.4-10.9c0.4-2.9,0.8-5.8,1.1-8.7c0.2-1.4,0.4-2.8,0.6-4.1c0.1-0.6,0.2-1.1,0.4-1.6
			c0.1-0.1,0.1-0.6,0.3-0.6s0.3,0.4,0.3,0.6c0.3,1.1,0.4,2.4,0.6,3.5c0.3,1.7,0.4,3.4,0.8,5.1c0.5,3.1,1.1,6.2,1.6,9.3
			c0.4,2.9,0.9,5.8,1.1,8.8c0.3,3,0.3,6,0.2,9c-0.1,1.5-0.1,3-0.2,4.6c0,1.1-0.1,2.2,0.4,3.2c1,2.3,4.2,2.4,6.3,2.6
			c3,0.3,5.9,0.3,8.9,0.3s6.1,0,9.1-0.4c1.8-0.3,3.4-0.8,4.6-2.2c1.1-1.3,1.9-3,2.2-4.7c0.4-2.8-0.1-5.8-0.3-8.7
			c-0.2-2.9-0.1-5.9,0.2-8.8c0.3-3.2,0.7-6.4,1.1-9.6c0.4-3.2,0.8-6.3,1.2-9.5c0.4-2.8,0.7-5.6,1.3-8.3c0.3-1.4,0.6-2.7,1.1-4
			c0.5-1.4,1.1-2.7,1.5-4.1c0.6-2.7-0.1-5.3-0.9-7.8c-1-2.8-2.3-5.6-3.5-8.3c-1.1-2.7-2-5.4-2.7-8.3c-0.7-2.7-1.5-5.4-2.6-8"/>
	</g>
	<g id="POLYLINE_322_">
		<path class="st1" d="M96.6,145.1c-0.4,2.1-1,4.1-1.4,6.2c-0.2,1.1-0.4,2.1-0.6,3.2c-0.1,0.7-0.3,1.4-0.6,2c-0.8,1.4-2.5,0.4-3.7,0
			c-2.1-0.9-4.2-1.8-6.3-2.5c-2-0.7-4-1.4-6.1-1.8c-1.6-0.4-3.7-0.6-3.7-2.8c-0.1-1.7,0.6-3.4,1.1-5c0.7-2.2,1.3-4.4,1.9-6.6
			c1-4.2,1.5-8.5,1.6-12.8c0.2-4.4-0.2-8.8-0.1-13.1c0.1-4.4,1.5-8.3,3.5-12.1c2-3.9,4.4-7.8,6.8-11.4c0.9-1.4,2-2.7,3.4-3.7
			c1.5-1,3.2-1.4,4.9-1.8c2-0.4,4.1-0.7,6.1-1.3c1.9-0.5,3.8-1.2,5.6-1.9c1.1-0.4,2.3-0.9,3.4-1.3"/>
	</g>
	<g id="POLYLINE_321_">
		<path class="st1" d="M164.8,144.4c0.4,2.2,1,4.4,1.5,6.6c0.4,2.1,0.6,4.2,1.2,6.2c0.2,0.7,0.5,1.5,1.1,1.8
			c0.6,0.4,1.4,0.4,2.1,0.3c2.3-0.3,4.6-1,6.8-1.6c2.1-0.5,4.2-0.9,6.2-1.6c1.5-0.4,3.8-0.9,4.3-2.5s-0.1-3.6-0.4-5.2
			c-0.6-2.5-1.3-4.9-2-7.4c-1.1-4.1-2-8.3-2.3-12.6c-0.4-4.6-0.6-9.3-1.1-14c-0.4-4.6-1.1-9-2.4-13.4c-1.3-4.2-3.2-8.1-5.9-11.4
			c-1.1-1.4-2.5-2.7-4-3.5c-1.6-0.9-3.4-1.2-5.1-1.6c-2.1-0.6-4.1-1.5-6.1-2.3s-3.9-1.9-5.6-3.1c-0.8-0.6-1.6-1.2-2.4-1.8"/>
	</g>
	<g id="POLYLINE_320_">
		<path class="st1" d="M96.9,119.2c0.7,3,0.9,5.9,0.3,9c-0.3,1.8-0.7,3.5-0.9,5.4c-0.1,1.7-0.2,3.4-0.1,5.1
			c0.1,3.9,0.4,7.8,0.7,11.8c0.2,3.2,0.3,6.4,0.2,9.6c-0.1,3.4-0.3,6.8-0.8,10.2c-0.4,2.5-1.8,5.2-0.8,7.7c0.8,2,2.6,3.6,4.6,4.2
			c1.4,0.4,2.8,0.4,4.3,0.5c1.6,0.1,3.3,0.2,4.9,0.4c3.5,0.6,7,1.4,10.6,2c3.4,0.6,6.8,0.8,10.3,0.6c3.2-0.1,6.4-0.5,9.7-1
			c3.8-0.6,7.5-1.1,11.3-1.6c3.4-0.5,7-0.8,10.2-1.9c1-0.4,2.3-0.8,2.8-1.8c0.7-1.1,0.4-2.6,0.9-3.8c0.4-1.2,1-2.3,1.1-3.7
			c0.1-1.5,0-3.1-0.1-4.6c-0.4-3.5-0.8-7-0.9-10.5s-0.3-7.1-0.3-10.7c0-1.7,0.1-3.4,0.3-5.1c0.3-1.7,0.7-3.4,1.1-5.1
			c0.3-1.1,0.5-2.3,0.4-3.5c-0.1-1.4-0.7-2.7-0.9-4.1c-0.4-2.3,0.8-4.6,0.9-6.9c0.1-1.5-0.1-3-0.3-4.5"/>
	</g>
	<g id="POLYLINE_319_">
		<path class="st1" d="M117.6,46c-0.2-1.5-0.3-3.1-0.3-4.6c0.1-1.5,0.4-3,0.6-4.6s0.4-3,0.5-4.6c0.1-1.3,0.3-2.6,0.7-3.8
			c0.8-2,2.6-3.1,4.5-3.9c1-0.4,2.1-0.9,3-1.6c0.9-0.8,1.8-1.6,3-2.1c2.2-1.1,4.7-0.7,7.1-1.1c1.1-0.2,2.2-0.6,3.4-0.8
			c0.9-0.1,1.9,0.1,2.8,0.4c2.3,0.6,5.1,1.6,6.8,3.5c0.9,1,1.6,2.1,2.5,3.2c0.8,1,1.9,1.8,2.7,2.8c1.4,1.9,1.6,4.6,1.7,6.8
			c0.1,3.3-0.6,6.6-1,9.8c-0.1,0.6-0.2,1.1-0.3,1.6"/>
	</g>
	<g id="POLYLINE_318_">
		<path class="st1" d="M154.4,46.9c1.6,0,1.6,1.7,1.5,2.8c-0.3,1.7-0.8,3.4-1,5.1c-0.2,1-0.3,2.1-0.6,3.1c-0.1,0.6-0.3,1.4-0.6,2
			c-0.7,1.2-2.3-0.3-3,1.1c-0.5,1.3-0.5,2.9-1,4.3c-0.5,1.4-1.3,2.7-2.3,3.7c-2.1,2.5-5,4.3-8.3,4.7c-3.4,0.4-6.8-0.4-9.7-1.9
			c-2.6-1.3-5.2-3.3-6.5-5.9c-0.6-1.1-0.8-2.3-0.9-3.6c-0.1-0.9-0.1-1.9-0.1-2.8c0-0.4,0-1.2-0.5-1.2c-0.4,0-0.8,0.4-1,0.6
			c-0.3,0.1-0.5,0.2-0.8,0.2c-0.6-0.1-1.1-0.8-1.4-1.3c-0.8-1.4-1.2-3.1-1.5-4.7c-0.3-1.7-0.6-3.5-0.5-5.2c0-0.6,0.1-1.3,0.6-1.7
			c0.6-0.5,1.3-0.3,1.7,0.2s0.8,1.2,1,1.8c0.3,0.7,0.6,1.7,1.1,2.3c0.5,0.5,0.8-0.3,0.9-0.7c0.3-0.8,0.5-1.8,0.7-2.6
			s0.4-1.5,0.8-2.1"/>
	</g>
	<g id="POLYLINE_317_">
		<path class="st1" d="M124,42.6c0.8-2.7-0.1-6.1,1.9-8.3c1.8-2,4.7-2.3,7.1-2.5c2-0.2,4-0.3,5.9-0.6c1.6-0.2,3.1-0.4,4.7-0.3
			c2.2,0.3,5.4,1.2,6.3,3.5c0.6,1.6,0.6,3.5,0.8,5.2c0.1,0.6,0.1,1.3,0.3,2c0.1,0.6,0.4,1.1,0.5,1.6c0.1,0.4,0.1,0.8,0.2,1.1"/>
	</g>
	<g id="POLYLINE_315_">
		<path class="st1" d="M137.6,46.9c-0.9,1.1-1.3,2.6-2.1,3.7c-0.6,0.8-1.4,1.5-2.3,1.9c-2,0.9-4.7,0.4-6.6-0.5
			c-1.1-0.5-1.9-1.3-2.3-2.4c-0.4-1.2-0.2-2.8-0.9-3.9c-0.4-0.6-0.8-1-0.8-1.8c0.1-0.7,0.6-1,1.3-1.1c1.6-0.2,3.3,0,4.9,0.1
			c1.8,0.2,3.6,0.4,5.4,0.8c0.8,0.2,1.7,0.4,2.5,0.6c0.8,0.2,1.6,0.6,2.3,0.6c0.7-0.1,1.3-0.3,2-0.5c0.8-0.2,1.5-0.3,2.2-0.4
			c1.7-0.1,3.4-0.1,5.1,0.1c1.6,0.1,3.3,0.3,4.8,0.7c0.7,0.2,1.1,0.6,1.2,1.3c0.1,0.5,0.2,1.3-0.1,1.7c-0.4,0.5-1.2,0-1.8,0.1
			c-0.5,0.1-0.6,0.6-0.7,1.1c-0.3,1.2-0.4,2.6-1.4,3.5c-0.8,0.8-1.8,1-2.9,1.2c-1.3,0.2-2.7,0.2-4-0.1c-1.4-0.4-2.2-1.3-2.7-2.6
			c-0.3-0.8-0.6-1.6-0.8-2.4c-0.2-0.6-0.3-1.3-0.9-1.7C138.5,46.5,137.9,46.5,137.6,46.9z"/>
	</g>
	<g id="POLYLINE_314_">
		<path class="st1" d="M136.4,92.3c1.4-0.9,3-1.4,4.5-2c1.1-0.4,2.3-0.9,3.6-1c2.8-0.3,4.4,2,5.9,3.9c0.3,0.3,0.7,1,1.1,1
			c0.4,0,0.6-0.8,0.6-1.1c0.3-1.5,0.4-3.1,0.4-4.6c0.2-2.8,0-5.4-0.9-8.1c-0.9-2.8-2.1-5.8-3.9-8.3c-0.2-0.3-0.4-0.6-0.7-0.9"/>
	</g>
	<g id="POLYLINE_313_">
		<path class="st1" d="M121.7,68.5c-1.5,0.8-2.9,1.8-4.3,2.8c-1.3,1-2.5,2-3.4,3.3c-1.5,2-1.7,4.2-1.4,6.6c0.2,1.7,0.5,3.4,0.4,5.1
			c0,0.9-0.1,1.7-0.1,2.6c0,0.5,0,1.1,0.4,1.5c0.7,0.7,2.3,0.1,3.1-0.1c1.5-0.4,3.1-0.9,4.7-0.9c2.5,0,5,1.1,7,2.5
			c0.3,0.2,0.4,0.4,0.7,0.6"/>
	</g>
	<g id="POLYLINE_312_">
		<path class="st1" d="M121.9,62.9c0.2,2.3,0.1,4.6-0.5,6.8c-0.4,1.6-1.5,3.2-1.5,4.9c0,2,0.8,3.9,1.6,5.7c1,2.4,2.2,4.7,3.5,7
			c1.2,2.1,2.5,4.1,4.4,5.8c0.8,0.7,1.6,1.3,2.4,1.8c0.9,0.6,1.6,0.7,2.5-0.1c0.9-0.8,1.6-2,2.4-2.9c0.8-0.9,1.7-1.6,2.6-2.4
			c1.8-1.6,3.4-3.4,4.6-5.5c1.3-2.1,2.3-4.3,3-6.6c0.6-2.2,0.2-4.4,0.4-6.7c0.1-0.6,0.1-1.2,0.2-1.8"/>
	</g>
	<g id="POLYLINE_311_">
		<path class="st1" d="M292.3,79.2c-1,0.9-2.3,1.4-3.7,1.6c-1.9,0.4-3.9,0.4-5.9,0.4c-3,0-6-0.5-8-3c-1.1-1.4-2-3.1-2.7-4.8
			c-0.8-1.9-1.5-3.8-2.1-5.8c-1.1-3.8-1.9-7.8-1.3-11.7c0.5-3.7,2.1-7.1,4.7-9.8c2.2-2.2,5.3-4.2,8.5-4.4c2.9-0.2,5.4,1.6,7.3,3.6
			c2.7,2.7,4.9,6.1,6.3,9.7c1.5,3.8,2.1,7.9,1.8,11.9c-0.4,3.8-1.5,7.9-3.9,10.9C293.1,78.4,292.8,78.9,292.3,79.2z"/>
	</g>
	<g id="POLYLINE_310_">
		<path class="st1" d="M275.1,78.6c0.9,2.3,1.8,4.8,2.2,7.3c0.4,2.5,0.2,5.1,0.1,7.7c-0.1,2.3,0.1,4.4,0.8,6.6
			c0.9,2.5,2.2,4.8,3.4,7.1c2.3,4.6,4.6,9.3,5.7,14.4c0.6,2.5,0.8,5.2,1.4,7.7c0.1,0.3,0.1,1,0.4,1.2c0.3,0.3,0.6-0.2,0.7-0.5
			c0.6-1,0.9-2.1,1.5-3.2c1-1.7,2.6-3,3.6-4.8c1.1-2,1.7-4.4,2.1-6.6c0.1-0.6,0.1-1.1,0.2-1.7"/>
	</g>
	<g id="POLYLINE_309_">
		<path class="st1" d="M293.1,78.5c-0.9,2.3-1.7,4.5-1.9,7c-0.2,2.5,0.1,5,0.4,7.5c0.3,2.6,0.5,5.2,0.9,7.8c0.4,2.5,1.1,5,1.6,7.5
			c0.4,2.5,0.5,4.9,0.4,7.5c0,0.3-0.1,1,0.1,1.3c0.3,0.3,0.6-0.3,0.7-0.5c0.3-0.5,0.6-1.1,1-1.6c0.2-0.3,0.6-0.9,0.9-1
			c0.7-0.1,0.8,1.6,0.9,2.1c0.3,1.3,0.4,2.7,0.8,4c0.5,2.5,1.3,4.8,2.5,7.1c0.5,0.9,1,2,1.6,2.8c0.3,0.3,0.6,0.9,1.1,0.9
			c0.4,0.1,0.6-0.4,0.6-0.8c0.3-1.1,0.2-2.3,0.3-3.5c0-0.5-0.1-2.3,0.6-2.5c0.8-0.3,1.8,1.8,2.1,2.2c0.6,1,1.2,2.1,1.7,3.2
			c1.2,2.5,2.3,5,3.4,7.5c0.4,0.9,0.8,1.8,1.3,2.7c0.1,0.3,0.4,0.8,0.8,0.8s0.6-0.6,0.6-0.9c0.3-1.1,0.4-2.3,0.6-3.4
			c0.2-1.3,0.4-2.6,0.7-3.9c0.4-2.3,0.7-4.6,0.6-7c-0.1-2.5-0.3-5.1-0.8-7.5c-0.4-2.5-1.2-4.9-2-7.3c-0.7-2.1-0.8-4.2-0.7-6.3
			c0.1-2.5,0.6-5.1,0.4-7.5c-0.2-1.8-1.3-3-2.4-4.4c-1.6-1.8-3.2-3.6-4.4-5.8c-1.2-2.1-2.1-4.4-2.9-6.8c-0.8-2.3-1.3-4.6-1.6-7
			c-0.3-2.5-0.2-5.1-0.4-7.6c-0.3-5-1.5-10.1-3.5-14.7c-2.1-4.7-5.8-8.2-9.9-11.2c-3.6-2.5-8-4.9-12.5-4.3c-4.7,0.6-8.5,4.2-11.1,8
			c-2.7,4.1-4.4,9-5.1,13.8c-0.7,5.2-0.4,10.4,0,15.6c0.2,2.1,0.4,4.2-0.1,6.2c-0.6,2.4-1.7,4.6-2.5,6.9c-1.7,4.8-1.5,9.5-0.9,14.5
			c0.3,2.5,0.2,4.9,0,7.5"/>
	</g>
	<g id="POLYLINE_308_">
		<path class="st1" d="M277.3,93.5c-0.6,0.3-1.1,0.6-1.6,1.1c-0.6,0.6-1.1,1.3-1.6,2c-0.9,0.9-1.8,1.6-3.1,2
			c-3.3,1.2-6.5,2.6-9.4,4.6c-2.3,1.6-4.5,3.5-5.6,6.2c-1.3,3.2-1.1,6.7-1.3,10.1c-0.1,3.3-0.3,6.5-0.6,9.8
			c-0.3,4.2-0.7,8.3-0.9,12.5c-0.3,3.9-0.3,7.8-0.4,11.8c-0.1,3.2-0.1,6.4-1.2,9.4c-0.9,2.7-2,5.8-1.6,8.7c0.1,0.6,0.3,1.3,0.7,1.7
			s1.1,0.4,1.6,0.4c1.1-0.1,2.2-0.3,3.4-0.1c0.8,0.1,1.5,0.4,2.3,0.6"/>
	</g>
	<g id="POLYLINE_307_">
		<path class="st1" d="M265.9,121.1c0.3,2.3,0.6,4.7,0.6,7.1c0.1,2.7-0.3,5.2-0.4,7.9c-0.2,2.4,0,4.9,0,7.3c0,2.6-0.6,4.9-1.4,7.3
			c-1.4,4.6-1.5,9.5-2.7,14.2c-0.6,2.2-1.4,4.4-2.4,6.4c-0.5,1-1.1,2-1.7,3c-0.7,1-1.6,1.8-2.3,2.8c-1.3,1.5-2.5,3.2-3,5.1
			c-0.3,0.9-0.4,2,0.3,2.8c0.8,0.9,2,0.8,2.9,0.1c1.8-1.3,3.3-3.2,4.9-4.7c1.7-1.6,3.6-3,5.8-3.9c2-0.8,4.1-0.9,5.9-1.9
			c1.6-0.9,3-2.1,4.8-2.7c2.2-0.6,4.6-0.4,6.9-0.3c2.7,0.2,5.3,0.4,8,0.4c2.5,0,5-0.3,7.5-0.6c1.6-0.2,4-0.5,5.2,0.9
			c1.3,1.5,1.2,3.7,1.8,5.4c0.7,1.9,2.1,3.1,3.3,4.7c0.6,0.8,1.1,1.6,1.5,2.4"/>
	</g>
	<g id="POLYLINE_306_">
		<path class="st1" d="M321.7,116.5c-0.4,4.3-0.9,8.6-1.3,12.8c-0.4,3.7-0.8,7.3-1.2,11c-0.4,3.7-0.9,7.3-1.5,11s-1.3,7.3-2.5,10.7
			c-0.6,1.7-1.3,3.4-2,5c-0.6,1.3-1.8,3.2-1,4.6c0.2,0.4,0.4,0.6,0.8,0.9"/>
	</g>
	<g id="POLYLINE_305_">
		<path class="st1" d="M316.6,170.3c-1.1-0.2-1.9,0.1-2.7,0.9c-0.6,0.7-1.1,1.5-1.4,2.4c-0.9,2.5-1,5.2-1.1,7.9
			c-0.1,2.8-0.4,5.5-0.9,8.3c-0.6,2.8-1.3,5.5-2.2,8.2c-0.9,2.7-2,5.2-3.2,7.8c-1.3,2.6-2.7,5-4.1,7.5c-1.3,2.3-2.1,4.7-2.6,7.3
			c-0.5,2.8-0.7,5.8-0.9,8.7c-0.1,1.3-0.3,2.6-0.3,3.9c0,0.9,0.3,1.7,0.9,2.3c1.2,1.3,2.8,1.8,4.6,2c1.8,0.1,4.6,0.2,5.9-1.3
			c0.7-0.8,0.9-1.9,1.1-2.8c0.3-1.3,0.4-2.7,0.6-4c0.6-2.7,1.7-5.3,2.1-8c0.4-2.8,0.4-5.7,0.9-8.5s1.3-5.4,2.1-8.1
			c0.9-2.8,1.9-5.5,3-8.2c1.2-3.2,2.5-6.3,3.7-9.4c0.9-2.3,1.8-4.6,2.6-7c0.6-1.9,1.2-4,0.9-6c-0.4-2.6-3.2-2.6-5.2-3
			C319.3,170.8,317.9,170.5,316.6,170.3z"/>
	</g>
	<g id="POLYLINE_304_">
		<path class="st1" d="M324.7,181.2c1.3-0.3,2.7-0.7,3.4-2c0.6-1.2,0.6-2.7,0.7-4c0.2-3.7,0.4-7.4,0.9-11.1c0.4-3.6,1-7.2,1.5-10.8
			c0.4-3.7,0.8-7.3,0.8-10.9c0.1-3.6,0.3-7.1,0.5-10.7c0.3-3.8,0.8-7.6,0.8-11.4c0-3.7-0.5-7.3-1.1-11c-0.4-3.1-0.3-6.6-1.6-9.5
			c-1.1-2.6-3.8-3.9-6.4-4.9c-3.4-1.2-6.9-1.7-10.2-2.8c-0.8-0.3-1.7-0.6-2.5-0.9"/>
	</g>
	<g id="POLYLINE_303_">
		<path class="st1" d="M255.8,184.9c-0.1,3-0.3,6.1-0.4,9.2c-0.1,2.3-0.2,4.5-0.6,6.7c-0.4,2.3-1.3,4.7-1.4,7.1c0,1,0.3,2,1.1,2.7
			s2,1.1,3,1.5c4.9,2,10.2,3,15.5,4c2.5,0.4,5.1,0.8,7.6,1.1c2.6,0.3,5.4,0.4,7.8,1.3c1,0.3,2,0.9,3,1c1.1,0.1,2-0.4,2.8-1.1
			c1.5-1.5,2.7-3.3,4.8-3.9c0.5-0.2,1-0.3,1.6-0.4"/>
	</g>
	<g id="POLYLINE_302_">
		<path class="st1" d="M313.8,211.4c0.9-0.1,2-0.3,2.9-0.3s1.9,0.2,2.8,0.4c1.1,0.3,2.1,0.6,3.2,0.8c0.6,0.1,1.5,0.3,1.9-0.4
			c0.3-0.6,0-1.6-0.1-2.2c-0.2-0.9-0.4-2-0.6-2.9c-0.5-2.4-0.9-4.7-1.5-7.1c-0.6-2.7-1.2-5.3-1.8-7.9"/>
	</g>
	<g id="POLYLINE_301_">
		<path class="st1" d="M254.3,210.4c0,2.6,0.1,5.1,0.6,7.6c0.6,2.4,1.3,4.8,2,7.2c1.5,5.1,3,10.1,4.3,15.2
			c1.4,5.7,2.6,11.4,4.2,17.1c1.5,5.3,3.3,10.6,4.5,16c0.7,3,1.2,6.1,1.8,9.2c0.4,2.3,0.9,4.6,1.1,6.9c0.4,5.2-0.3,10.5,0.2,15.7
			c0.5,5.1,1.6,10.2,2.7,15.2c1.2,5.6,2.3,11.1,3.7,16.7c1.3,5.4,3.1,10.6,4.9,15.7c0.3,0.8,0.6,1.7,0.6,2.6c0.1,1-0.1,2-0.3,3
			c-0.3,2.5,0.3,4.9,0.4,7.4c0,0.3-0.2,1.1,0.1,1.3c0.3,0.2,1.1-0.3,1.3-0.3c0.7-0.3,1.3-0.4,2-0.5c0.9-0.1,2,0.1,2.9,0.3
			c0.9,0.2,2.1,0.5,3.1,0.1c0.8-0.3,0.9-1.1,1-2c0.1-1.2-0.1-2.5-0.2-3.7c-0.1-2.1-1.2-4-1.9-6.1c-1.7-4.7-1.3-9.7-1.1-14.6
			c0.2-5.6,0.4-11.2,0.4-16.8c0-5.4,0.3-10.9-0.6-16.2c-0.5-2.8-1.1-5.6-1.4-8.5c-0.3-2.6,0.2-5.1,0.6-7.6s0.7-4.9,0.9-7.5
			c0.1-2.5-0.1-4.9-0.4-7.4c-0.7-5.6-1.6-11-2.1-16.6c-0.4-5.3-0.6-10.6-0.6-15.9c0.1-5.7,0.3-11.3,0.6-16.9
			c0.1-2.7,0.3-5.2,0.5-7.9"/>
	</g>
	<g id="POLYLINE_300_">
		<path class="st1" d="M284.9,364.9c-0.8,0.4-1.6,0.8-2,1.6c-0.3,0.6-0.4,1.3-0.6,2c-0.3,1.7-0.6,3.4-1.5,4.9s-2.3,2.7-3,4.4
			c-0.3,0.7-0.4,1.5-0.5,2.1s-0.2,1.5,0.3,2s1.3,0.6,1.9,0.6c1.1,0.1,2.1,0.1,3.3,0.1c2.1,0.1,4.3,0.1,6.5,0.1
			c1.6-0.1,3.7-0.1,5.1-0.9c1.5-0.8,1.5-2.8,1.5-4.4c0.1-2.3,0.1-4.6,0.4-6.8c0.1-1.5,0.3-3-0.3-4.5c-0.1-0.4-0.3-0.8-0.5-1.1"/>
	</g>
	<g id="POLYLINE_299_">
		<path class="st1" d="M292.7,219.5c0.3,2.6,0.4,5.1,1.1,7.6c0.6,2.5,1.5,4.9,2.3,7.2c2,5.1,4.1,10.1,6,15.2
			c1.8,5.1,3.4,10.2,4.4,15.5c1.1,5.6,2.1,11.1,3.2,16.7c0.4,2.3,0.8,4.6,0.9,6.8c0.2,2.5,0,5-0.4,7.5c-0.8,5.2-2,10.4-2.1,15.8
			c-0.1,2.7,0.1,5.4,0.3,8.1c0.2,2.7,0.3,5.4,0.4,8.1c0.2,5.4,0.4,10.9,0.2,16.2c-0.1,2.5-0.3,4.9-1.1,7.3c-0.8,2.5-2,4.7-2.5,7.3
			c-0.3,1.3-0.5,2.5-0.6,3.8c-0.1,0.8-0.3,2,0.1,2.8c0.6,0.9,2,1.4,2.9,1.8c1.1,0.6,2.1,1.2,3.3,1.8c0.6,0.3,1.6,0.9,2.2,0.4
			c0.7-0.6,0.9-2,1.2-2.9c0.8-2.3,2.1-4.6,2.5-7.1c0.3-2.1-0.3-4.1-0.3-6.2c0.1-2.1,0.9-4,1.6-6c1.8-5.1,3.2-10.4,4.6-15.6
			c1.4-5.1,2.6-10.2,3.8-15.4c1.2-5.1,2.5-10.3,3-15.6c0.6-5.7,0.3-11.4,0.3-17.1c0-4.9-0.3-9.9-0.5-14.8
			c-0.3-5.5-0.1-11.1-0.4-16.6c-0.3-5.3-0.8-10.7-1.5-16c-0.7-5.2-1.4-10.5-2.3-15.7c-0.4-2.7-0.9-5.4-1.5-8.1"/>
	</g>
	<g id="POLYLINE_298_">
		<path class="st1" d="M305.5,358.8c-2,0.8-2.3,3.7-2.8,5.4c-0.6,2.2-1.5,4.3-2.5,6.3s-2.3,4-3,6.1c-0.3,0.9-0.4,1.9-0.5,2.8
			c-0.1,0.7-0.3,1.8,0.2,2.3c0.5,0.6,1.8,0.6,2.5,0.8c1.2,0.1,2.4,0.3,3.7,0.3c2.3,0.1,4.6,0.2,6.8-0.3c0.9-0.2,1.9-0.4,2.5-1.2
			c0.6-0.6,0.8-1.5,0.9-2.3c0.4-2.3,0.4-4.6,1.2-6.8c0.8-2,2-3.9,2.7-5.9c0.4-1.2,0.4-2.4,0-3.6c-0.1-0.5-0.4-0.9-0.6-1.5"/>
	</g>
	<g id="POLYLINE_297_">
		<path class="st1" d="M251.3,173.7c-0.5,3.5-0.9,7-1,10.4c-0.1,4.1-0.3,8.3-0.6,12.4c-0.3,3.6-0.9,7.2-1.6,10.7
			c-0.4,1.8-0.8,3.6-0.9,5.4c-0.1,1.6,0.1,3.4,0,5c-0.3,3.6-1.2,7.1-1.6,10.7c-0.3,2.7,1.1,5.1,2.4,7.4c0.9,1.6,2,3,3.1,4.5
			c0.8,1.1,1.8,2.6,3.1,3.2c1.3,0.5,1.8-1.7,2.1-2.5c0.4-1,0.8-2.1,0.8-3.2c-0.1-1.3-0.8-2.3-1.4-3.4c-0.6-1.1-1.1-2.2-1.3-3.5
			c-0.3-1.4-0.2-2.8,0.1-4.2s0.8-2.8,0.9-4.2c0.1-0.7,0-1.3-0.1-2"/>
	</g>
</g>
<g id="AG-OUTLINE_00000136372999750469691650000005099756357789211576_">
	<g id="POLYLINE_18_">
		<path class="st2" d="M163.4,180.1c1.1,2.6,1.9,5.2,2.6,8c0.7,2.7,1.4,5.3,2.5,7.8c0.6,1.6,1.4,3.1,2,4.6c1.6-1.1,3.2-2.4,3.8-4.4
			c0.8-2.7,0.4-5.7,0-8.4c-0.6-3.2-1.4-6.3-2.1-9.4c-0.7-2.8-1.2-5.7-1.5-8.5c-0.4-3-0.6-6-0.6-9c0-0.4,0-0.8,0-1.2
			c-2.1,0.1-2.6-2.3-2.9-4c-0.4-2.4-0.9-4.7-1.5-7.1c-0.3-1.3-0.6-2.6-0.9-3.9c-0.2,5.2,0.1,10.4,0.4,15.6c0.2,2.6,0.6,5.2,0.8,7.8
			c0.2,2,0.3,4-0.3,5.8c-0.4,1.1-0.9,2.1-1.1,3.2C164.4,178.1,164.4,179.3,163.4,180.1z"/>
	</g>
	<g id="POLYLINE_19_">
		<path class="st2" d="M77.4,151.9c-0.8-0.2-1.9-0.4-2.5-0.9c-0.6-0.6-0.7-1.5-0.6-2.3c0.2-2.4,1.1-4.8,1.8-7.1
			c1.4-4.6,2.2-9.3,2.5-14c0.2-2.5,0.3-4.9,0.3-7.4s-0.2-5-0.1-7.5c0-2.5,0.3-4.9,1-7.3c0.7-2.3,1.8-4.5,2.9-6.6
			c1.2-2.2,2.5-4.4,3.8-6.5s2.5-4.3,4.2-6.1c2.9-3.3,7.4-3.4,11.4-4.3c2.3-0.5,4.5-1.3,6.6-2.1c0.5-0.2,1-0.4,1.6-0.6
			c0.4-0.2,0.8-0.3,1.3-0.5c0.3-0.1,0.8-0.2,0.9-0.4c0.3-0.3,0.3-1.2,0.5-1.6c0.8-1.9,2.3-3.4,3.9-4.6c0.9-0.8,1.9-1.5,2.8-2.1
			c0.5-0.3,1-0.6,1.5-0.9c0.3-0.2,0.5-0.2,0.6-0.6c0.1-0.2,0.1-0.5,0.1-0.7c0.3-2.1,0.1-4.1-0.1-6.2c0-0.7-0.1-1.3-0.1-2
			c0-0.3,0-0.7-0.2-0.9c-0.4-0.4-1.4,0.8-2.1,0.7c-0.8-0.1-1.4-1.2-1.7-1.9c-0.4-0.9-0.7-1.9-0.9-2.9c-0.4-2.1-0.9-4.4-0.8-6.6
			c0.1-0.9,0.5-2,1.6-1.8c-0.3-2.2-0.3-4.4,0-6.6c0.4-2.3,0.8-4.6,0.9-7c0.1-1.7,0.3-3.7,1.3-5.1c0.8-1.2,2.2-2,3.5-2.6
			c0.9-0.4,1.8-0.8,2.6-1.3c0.8-0.4,1.4-1.1,2.1-1.6c1.2-0.9,2.5-1.5,3.9-1.6c2.1-0.3,4.2-0.3,6.3-0.8c1.3-0.4,2.5-0.4,3.9-0.1
			c2,0.4,4,1.3,5.8,2.3c1.6,0.9,2.5,2.4,3.7,3.9c1.1,1.4,2.7,2.5,3.5,4c0.9,1.5,1.2,3.5,1.3,5.2c0.1,2,0,4-0.3,5.9
			c-0.3,1.6-0.4,3.2-0.7,4.9c-0.1,0.4-0.1,0.8-0.2,1.1c-0.1,0.3-0.1,0.5,0,0.8c0.1,0.1,0.2,0.3,0.3,0.4c0.3,0.7,0.1,1.6,0,2.3
			c-0.2,1.1-0.5,2.2-0.7,3.4c-0.4,2-0.5,4.2-1.2,6c-0.4,1-0.9,0.9-1.8,0.8c-0.9-0.1-1.2,0.4-1.4,1.2c-0.3,0.9-0.3,2-0.6,2.9
			c-0.3,0.8-0.6,1.6-1,2.4s-1,1.3-1.5,2c-0.3,0.4-0.2,1.1-0.3,1.6c0,0.2-0.1,0.5-0.1,0.8s0.3,0.5,0.4,0.7c0.6,0.9,1.1,1.8,1.6,2.7
			c0.3,0.4,0.4,0.9,0.7,1.4c0.3,0.6,0.4,1.1,0.9,1.5c3.4,2.8,7.5,4.8,11.6,6.4c2,0.8,4.1,1,6.1,1.8c1.6,0.6,3,1.8,4.2,3
			c3,3.2,5.1,7.1,6.5,11.3c1.5,4.5,2.2,9.2,2.7,13.8c0.5,4.8,0.8,9.6,1.2,14.4c0.4,4.5,1.3,8.8,2.5,13.1c0.7,2.5,1.5,5.1,2.1,7.6
			c0.4,1.5,1.1,4,0.1,5.4c-0.3,0.4-0.6,0.6-1.1,0.9c-0.1,0.1-0.4,0.1-0.4,0.2c-0.1,0.2,0.1,0.9,0.1,1.1c0.1,1.1,0.3,2.3,0.4,3.5
			c0.2,2.3,0.3,4.6,0.4,7c0.1,4.7-0.1,9.5-0.6,14.3c-0.5,4.6-1.6,9.2-1.8,13.8c-0.1,2.1,0.3,4.4-0.1,6.4c-0.4,1.8-1.6,3.3-2.8,4.6
			c-1.4,1.5-2.9,3-4.6,4.2c-0.9,0.6-1.8,0.9-2.8,1.3c-0.3,0.1-0.6,0.1-0.8,0.3c-0.3,0.1-0.3,0.1-0.3,0.4c-0.1,0.6-0.3,1.1-0.4,1.6
			c-0.8,2.1-1.6,4.2-2.1,6.4c-0.4,2.1-0.8,4.2-1.1,6.3c-0.7,5.2-1.3,10.5-2,15.7c-0.6,4.4-1,8.8-0.9,13.2c0.1,4,1.3,8.3-0.3,12.1
			c-0.4,1.2-1.1,2.3-2.1,3.2c-0.6,0.6-1.3,0.9-2,1.2c-0.4,0.1-1,0.1-1.3,0.3c-0.1,0.1-0.1,0-0.1,0.1s0,0.4,0,0.6c0,0.3,0,0.6,0,0.8
			c0,4.8,0.1,9.6,0.4,14.4c0.3,4.7,1.1,9.3,1.4,14c0.3,4.6-0.3,9-1.1,13.5c-0.8,4.4-1.9,8.8-3,13.2c-1.2,5.1-2.5,10.2-3.5,15.3
			c-0.9,4.5-1.7,9-1.9,13.7c-0.1,2.2-0.1,4.4,0.3,6.6c0.1,0.5,0.1,1.2,0.4,1.7c0.2,0.4,0.6,0.7,0.9,1c0.6,0.6,1.1,1.3,1.5,2
			c1.1,1.6,1.7,3.5,2.3,5.4c0.5,1.8,1.2,3.7,1.2,5.6c0,0.9-0.3,1.8-1.2,2.1c-0.6,0.3-1.3,0.4-2,0.4c-2.4,0.2-4.8,0.1-7.2,0
			c-2.3-0.1-4.6,0.1-6.9,0.1c-0.8,0-1.6,0-2.2-0.4c-0.8-0.4-1-1.3-1.2-2.1c-0.4-2.2-0.5-4.5-0.6-6.7c0-2.1,0.2-4.3,1.1-6.3
			c0.2-0.4,0.4-0.9,0.8-1.3c0.3-0.4,0.3-0.6,0.4-1.1c0.2-1,0.6-1.9,0.8-2.9c0.4-2.2,0.4-4.6,0.4-6.8c0.1-5.2-0.1-10.5-0.1-15.7
			c0-4.4,0-8.8-0.2-13.1c-0.1-2.3-0.2-4.7-0.4-7c-0.3-2.4-0.7-4.7-0.9-7.1c-0.4-4.2-0.4-8.5,0.6-12.7c0.5-2,1.1-4,1.5-6.1
			c0.3-1.8,0.2-3.7-0.2-5.4c-0.8-4.3-2.9-8.3-3.3-12.6c-0.1-0.5-0.1-0.9-0.1-1.5c0-0.4,0-0.8,0-1.1c0-0.1,0.1-0.6,0-0.8
			c-0.1-0.2-0.9-0.3-1.1-0.3c-0.3-0.1-0.6-0.3-0.9-0.5c-1.6-1-1.6-3-1.5-4.7c0.1-4.7,0.3-9.4-0.1-14c-0.4-4.9-1.3-9.8-2.1-14.7
			c-0.4-2.1-0.7-4.2-1-6.3c-0.2-1.3-0.3-2.5-0.5-3.7c-0.1-0.3-0.3-2-0.7-1.7c-0.3,0.1-0.3,0.9-0.4,1.2c-0.1,0.4-0.2,0.9-0.3,1.5
			c-0.2,1.1-0.4,2.1-0.5,3.2c-0.3,2-0.6,4-0.8,6.1c-0.6,5.1-1.2,10.1-1.9,15.2c-0.7,4.9-1.6,9.8-1.6,14.7c0,1,0.1,2,0.2,3
			c0.1,0.9-0.2,1.5-1.1,1.7c-2,0.6-4.2,0.2-6.3,0.2c-0.6,0-1.1,0-1.7-0.1c-0.3,0-1.5-0.2-1.7,0s-0.3,0.9-0.4,1.2
			c-0.3,0.8-0.6,1.5-0.8,2.3c-0.8,2.3-1.6,4.6-2.5,6.8c-0.8,1.9-1.5,3.8-1.9,5.8c-0.5,2.3-0.9,4.7-1.8,6.9c-0.8,2.1-1.8,4.1-2.4,6.3
			c-0.5,2-0.6,4-0.5,6c0.1,2.3,0.3,4.6,0.1,6.9c-0.3,2.3-1.1,4.6-2,6.8c-1.7,4.7-3,9.5-4.3,14.3c-1.2,4.3-2.5,8.6-3.2,13
			c-0.3,2.1-0.4,4.3-0.4,6.4s0.1,4.1-0.6,6.1c-0.6,1.8-0.7,3.5-0.1,5.2c0.7,1.9,1.1,3.7,1.1,5.8c0,1.2-0.1,2.3-0.1,3.5
			c0,1.1,0.1,2.2,0.1,3.4c0,0.8-0.1,1.6-0.8,2.3c-0.5,0.5-1.3,0.7-2,0.9c-1.8,0.4-3.8,0.4-5.7,0.4c-2.5-0.1-5.1-0.1-7.6-0.1
			c-1.9,0-4.2-0.4-4.5-2.7c-0.3-1.9,0-4.1,0.6-5.9c0.6-2,1.8-3.9,3.2-5.4c0.5-0.6,1.1-1,1.8-1.3c0.6-0.3,1-1.1,1.3-1.7
			c0.6-1.4,0-2.8-0.3-4.3s0.6-2.7,1-4c0.6-1.7,0.6-3.6,0.6-5.4c-0.1-2.4-0.3-4.8-0.5-7.1c-0.5-5.2-1.3-10.4-1.9-15.6
			c-0.5-4.2-0.9-8.5-0.9-12.8c-0.1-4.4,0.3-8.9,1.6-13.1c1.4-4.2,3.6-8,4.5-12.3c0.4-2.2,0.6-4.4,1.5-6.5c0.8-2,1.9-3.9,2.5-5.9
			c0.5-1.9,0.7-3.9,0.7-5.9c0-0.5,0-1-0.1-1.5c0-0.2,0-0.4-0.1-0.6c-0.2-0.2-0.6-0.3-0.8-0.4c-0.9-0.5-2-1-2.9-1.6
			c-1.5-1-1.8-2.4-1.9-4.1c-0.1-2.1,0.3-4.2,0.6-6.3c0.6-4.4,1.1-8.7,1.5-13.1c0.5-5.4,0.9-10.9,1.5-16.3c0.4-4.3,1.5-8.8,0.6-13.1
			c-0.4-2.1-1.2-4.2-1.5-6.4c-0.1-0.3,0-0.6-0.1-0.8c-0.1-0.3-0.4-0.4-0.6-0.6c-0.4-0.4-0.8-0.8-1.2-1.2c-0.4-0.5-0.8-1-1.1-1.6
			c-0.9-1.6-1.1-3.5-1.3-5.3c-0.3-2.3-0.3-4.7-0.6-7.1c-0.7-5-2.1-9.8-3.4-14.6c-1.1-4.2-1.8-8.6-2-13
			C76.7,160.7,76.9,156.3,77.4,151.9z"/>
	</g>
	<g id="POLYLINE_22_">
		<path class="st2" d="M257.4,107.1c0.3-2.8,0.3-5.6-0.1-8.4c-0.3-2.6-0.4-5.1-0.3-7.7c0.3-2.6,0.9-5,1.8-7.4
			c0.8-2.1,1.9-4.4,2.1-6.7c0.3-2.5-0.3-5.1-0.4-7.6c-0.2-2.8-0.3-5.6-0.2-8.3c0.1-2.7,0.4-5.4,1-8c0.6-2.5,1.5-5.1,2.7-7.4
			c1.2-2.4,2.7-4.6,4.6-6.5c1.8-1.8,3.9-3.3,6.3-4c2-0.6,4.2-0.7,6.3-0.2c2.5,0.6,4.7,1.8,6.8,3.2c2.3,1.5,4.6,3.3,6.5,5.2
			c1.8,1.8,3.4,3.9,4.4,6.3c1.1,2.4,2,5,2.5,7.6c0.6,2.7,1.1,5.4,1.2,8.1c0.2,2.7,0.1,5.4,0.4,8.1c0.3,2.5,1,5,1.9,7.4
			s2,4.7,3.3,6.9c0.6,1,1.4,2,2.1,2.9c0.2,0.2,0.4,0.6,0.6,0.7c0.3,0.2,0.6,0.3,0.8,0.3c0.7,0.3,1.4,0.5,2.1,0.7
			c2.6,0.8,5.2,1.3,7.9,2.1c2.2,0.6,4.6,1.4,6.4,2.9c1.6,1.3,2.3,3.2,2.7,5.2c0.5,2.6,0.6,5.2,1,7.9c0.4,2.8,0.8,5.6,0.9,8.3
			c0.1,2.5-0.1,5-0.3,7.5c-0.3,3.1-0.6,6.1-0.8,9.2c-0.2,2.9-0.2,5.8-0.3,8.7c-0.1,2.5-0.3,5.1-0.6,7.6c-0.4,3.2-0.8,6.3-1.3,9.5
			c-0.4,2.5-0.7,5-0.9,7.5c-0.3,2.8-0.3,5.5-0.5,8.3c-0.1,0.9-0.3,1.8-0.8,2.6c-0.6,0.8-1.5,1.2-2.5,1.5c-0.3,0.1-0.6,0.1-0.8,0.3
			c-0.2,0.3-0.3,0.7-0.3,0.9c-0.3,0.6-0.4,1.3-0.7,1.9c-0.5,1.3-1,2.7-1.6,3.9c-0.4,0.9-0.8,1.8-1.1,2.7c-0.1,0.3-0.3,0.7-0.3,1
			c0.1,0.8,0.4,1.7,0.6,2.5c0.2,0.7,0.3,1.3,0.5,2c0.6,2.8,1.2,5.6,1.8,8.4c0.3,1.4,0.6,2.7,0.9,4.1c0.2,0.8,0.8,2.3,0.3,3
			c-0.1,0.1-0.2,0.2-0.4,0.3c-0.3,0.2-0.3,0-0.2,0.4c0.1,0.9,0.3,1.9,0.5,2.8c0.3,1.3,0.5,2.7,0.7,4c0.4,2.7,0.9,5.3,1.3,8
			c0.4,2.9,0.8,5.8,1.2,8.7c0.4,2.7,0.7,5.5,0.9,8.2c0.3,2.8,0.5,5.8,0.6,8.6c0.1,3,0.2,6,0.2,9c0.1,2.5,0.1,5,0.2,7.5
			c0.1,3.1,0.4,6.1,0.4,9.2c0.1,2.9,0.1,5.9,0.1,8.8c0,2.7,0.1,5.4,0,8.1c-0.1,2.6-0.3,5.2-0.6,7.8c-0.4,2.9-1.1,5.8-1.7,8.6
			c-0.5,2.5-1.1,5-1.7,7.5c-0.8,3.1-1.5,6.1-2.3,9.2c-0.6,2.5-1.3,5-2,7.5c-0.8,2.8-1.6,5.7-2.5,8.5c-0.8,2.4-1.9,4.7-2.3,7.3
			c-0.4,2,0.2,4.1,0.2,6.1c0,1-0.2,2-0.4,3c-0.1,0.4-0.1,0.5,0.1,0.9c0.1,0.3,0.2,0.5,0.3,0.8c0.1,0.4,0.3,0.8,0.3,1.1
			c0.3,1.7-0.4,3.2-1.1,4.7c-1.1,2.3-2.1,4.4-2.5,7c-0.2,1.3-0.3,2.5-0.5,3.8c-0.2,1-0.6,2-1.5,2.7c-0.8,0.5-1.9,0.7-2.8,0.8
			c-1.3,0.1-2.5,0.1-3.7,0.1c-1.4,0-2.8-0.1-4.2-0.2c-1.1-0.1-2.4-0.1-3.5-0.5c-0.9-0.3-0.9-1.3-0.9-2.1c0.1-1.1,0.3-2.1,0.5-3.2
			c0.7-2.5,2.2-4.6,3.4-6.9c1.2-2.4,2-4.9,2.7-7.5c0.3-0.9,0.6-2,1.1-2.7c0.2-0.3,0.4-0.5,0.7-0.7c0.2-0.1,0.4-0.2,0.5-0.3
			c0.1-0.3,0.2-0.7,0.3-1c0.1-0.3,0.2-0.6,0.3-0.9c0.8-2.5,2-4.9,2.5-7.5c0.5-2.5,0.6-5.2,0.5-7.8c0-3.2-0.1-6.3-0.1-9.5
			c-0.1-2.7-0.1-5.3-0.3-8c-0.1-2.8-0.4-5.6-0.6-8.4c-0.1-2.7,0-5.4,0.3-8.1c0.4-3,0.9-5.9,1.3-8.9c0.4-2.6,0.8-5.2,0.9-7.8
			c0-2.6-0.3-5.2-0.8-7.7c-0.5-3.1-1.2-6.1-1.8-9.2c-0.6-2.7-1-5.4-1.5-8.2c-0.4-2.5-0.9-5-1.6-7.4c-0.7-2.7-1.6-5.2-2.5-7.8
			c-0.9-2.5-1.9-5.1-2.9-7.6c-1.1-2.9-2.3-5.8-3.4-8.7c-0.9-2.5-1.8-4.9-2.4-7.5c-0.6-2.5-0.8-4.9-1-7.5c-0.9,0.3-1.8,0.1-2.7-0.3
			c-0.2,3.2-0.4,6.5-0.6,9.7c-0.1,3-0.3,6.1-0.4,9.1c-0.1,2.9-0.1,5.8-0.1,8.7c0,3,0.1,6.1,0.3,9.2c0.2,3.2,0.4,6.3,0.8,9.4
			c0.4,3.2,0.9,6.4,1.4,9.6c0.4,2.6,0.7,5.2,0.6,7.9c-0.1,2.8-0.4,5.6-0.9,8.5c-0.3,1.5-0.6,3-0.7,4.6c-0.1,1.3,0,2.6,0.1,3.9
			c0.4,3,1,5.9,1.5,8.9c0.4,2.7,0.4,5.5,0.4,8.2c0,3.4,0.1,6.7,0,10c0,2.8-0.1,5.6-0.2,8.3c-0.1,3.2-0.3,6.5-0.3,9.7
			c-0.1,2.9,0,5.8,0.8,8.6c0.7,2.4,2.1,4.6,2.3,7.1c0.1,1.3,0.3,2.7,0.3,3.9c0,0.2-0.1,0.4,0,0.6c0,0.3,0.2,0.5,0.3,0.8
			c0.2,0.4,0.3,0.8,0.4,1.2c0.3,0.9,0.2,2,0.1,3c-0.1,1.5-0.3,2.9-0.4,4.4s-0.1,2.9-0.1,4.4c-0.1,0.9-0.2,2-0.9,2.7
			c-0.7,0.7-1.8,0.9-2.8,1c-1.3,0.2-2.7,0.3-4,0.3c-1.6,0-3.2,0-4.8-0.1c-1.3,0-2.6,0-3.9-0.2c-0.8-0.1-1.8-0.2-2.1-1
			c-0.3-0.9-0.1-2.2,0.2-3.1c0.6-2.2,2.5-3.7,3.6-5.7c0.5-0.9,0.8-2,0.9-3c0.2-1.1,0.3-2.3,0.8-3.3c0.3-0.6,0.7-0.9,1.2-1.3
			c0.2-0.1,0.7-0.3,0.8-0.4c0.1-0.2,0-0.6-0.1-0.8c-0.2-1.5-0.4-3-0.3-4.5c0.1-1.3,0.4-2.5,0.3-3.9c0-0.9-0.3-1.8-0.5-2.7
			c-0.9-2.9-2-5.8-2.9-8.7c-0.9-2.8-1.6-5.8-2.3-8.7c-0.8-3.2-1.5-6.5-2.1-9.8c-0.6-2.9-1.3-5.8-1.8-8.7c-0.6-2.8-1.2-5.7-1.6-8.6
			s-0.7-5.8-0.7-8.7c0-3,0.3-5.9,0.1-8.9c-0.1-2.6-0.5-5.1-1-7.6c-0.7-3.4-1.3-6.8-2-10.1c-0.6-2.7-1.3-5.2-2.1-7.8
			c-0.9-3.4-2-6.6-2.9-10c-0.8-2.8-1.4-5.7-2.1-8.5c-0.8-3.2-1.5-6.3-2.3-9.4c-0.7-2.7-1.4-5.2-2.2-7.8c-0.9-3.1-1.9-6.3-2.8-9.4
			c0.1,1,0.1,2.1-0.1,3.1c-0.3,1.3-0.8,2.5-0.9,3.9c-0.3,2-0.1,4.2,0.8,6.1c0.9,1.8,2.1,3.2,1.7,5.3c-0.3,1.2-0.8,2.4-1.2,3.5
			c-0.4,1-1,1.6-2,0.8c-1-0.7-1.8-1.7-2.5-2.7c-0.9-1.2-1.8-2.5-2.7-3.7c-1.3-2-2.7-4.2-3-6.6c-0.1-0.9,0-2,0.1-2.9
			c0.3-1.5,0.5-3,0.8-4.6c0.3-1.5,0.4-3,0.6-4.4c0.1-1.5,0.1-2.8,0-4.2c-0.1-2.9,0.8-5.8,1.3-8.7c0.6-3,0.9-6,1.2-9
			c0.3-3.3,0.4-6.6,0.5-9.9c0.1-3,0.2-6,0.6-9c0.1-0.7,0.2-1.5,0.3-2.1c0.1-0.4,0.3-1,0.2-1.5c0-0.3,0.1-0.1-0.1-0.3
			c-0.1-0.1-0.3-0.1-0.3-0.2c-0.7-0.6-0.8-1.7-0.8-2.6c-0.1-2.6,0.7-5.1,1.6-7.5c0.4-1.2,0.8-2.5,1-3.7c0.2-1.5,0.3-3,0.3-4.4
			c0.1-3.1,0.1-6.3,0.2-9.4c0.1-2.8,0.3-5.5,0.5-8.2c0.3-3.7,0.6-7.3,0.8-10.9c0.3-3.2,0.4-6.4,0.5-9.6c0.1-2.5,0.2-5.1,1.1-7.5
			C256.3,108.6,256.8,107.8,257.4,107.1z"/>
	</g>
</g>
<line class="st0" x1="0" y1="0" x2="22.6" y2="-17.2"/>
</svg>
