<?xml version="1.0" encoding="utf-8"?>
<!-- Generator: Adobe Illustrator 27.0.0, SVG Export Plug-In . SVG Version: 6.00 Build 0)  -->
<svg version="1.1" id="Layer_1" xmlns="http://www.w3.org/2000/svg" xmlns:xlink="http://www.w3.org/1999/xlink" x="0px" y="0px"
	 viewBox="0 0 404 404" style="enable-background:new 0 0 404 404;" xml:space="preserve">
<style type="text/css">
	.st0{opacity:0.31;}
	.st1{fill:none;stroke:#000000;stroke-miterlimit:10;}
	.st2{display:none;}
	.st3{display:inline;}
	.st4{fill:none;stroke:#000000;stroke-width:6;stroke-miterlimit:10;}
</style>
<g id="SELECT">
	<g id="Gloves">
		<polygon points="90.2,181.9 74.6,192.7 79.3,198.4 85.8,205 89.9,204.9 96.4,200.8 101.2,196.2 100.5,192.2 93.4,183.7 		"/>
		<polygon points="172.6,167.2 176.3,170.4 180.1,177.6 179.6,183 176.1,188.7 173.2,188.9 168.6,187 165.3,179.6 164.7,173.6 
			165.2,172.2 167.4,172 168.9,172.2 168.7,168.6 170.1,167.1 		"/>
		<polygon points="271.5,212.6 260,212.2 258.2,222.5 259,229 262.4,233.6 266.9,236.6 270.8,236.3 272.7,234 274.3,231.2 
			273.6,223.6 		"/>
		<polygon points="368.6,218.5 355.3,219 350.3,237 351.8,240.5 357.1,242.7 362.5,241 368.3,232.8 369.1,220.3 		"/>
	</g>
	<g id="Sweater">
		<polygon points="138.6,80.6 143,93.8 147.8,117.1 151.3,140.4 153,159.5 153.3,164 155.1,171.3 155.9,175.4 156.8,183.5 
			155.9,187.6 149.1,189.2 130.2,192.3 117.2,192.8 100.8,191.4 97.7,186.6 103.2,164.3 105.4,148.2 107.8,128.5 110.3,107.7 
			109.5,98 107,86.7 106.7,83.5 107.9,78.4 113.1,82.3 125.1,85.8 134.6,85.4 137.1,82.9 		"/>
		<polygon points="300.6,126.2 303.5,129.4 306.1,132 311.2,134 318,135.2 326.6,133.7 334.5,129.3 336.5,127.3 335.8,142.1 
			331.4,176.7 329.1,194 328.2,204.4 318.7,205.1 311,204.9 303.5,203.4 301.9,170.3 		"/>
	</g>
	<g id="Coat_00000086677789261743561220000003218431014934503071_">
		<polygon points="108.1,53.4 88.1,54.2 78.1,58.8 71.3,74.5 72.5,79.4 66.9,83.4 56,110.2 49.6,123.6 44.9,141 48.6,156.6 
			55.2,171.1 37.4,214.9 79.6,236.9 88.8,237.8 92.3,204.4 86.8,205.9 78.9,198.7 74.6,192.7 90.5,181.6 96.9,186 103.1,161.8 
			109,118.4 109.5,102.4 106.2,82.8 110.6,61.3 		"/>
		<polygon points="136.9,58.9 148.2,60 163.1,68.9 168.9,76.3 170.7,82.4 170.7,91.7 166,96.2 165.7,107.5 171.3,137.8 176.1,153.9 
			180.3,175.6 174.1,167.6 168.8,166.5 168.6,171.6 164.5,172.1 165,179.1 168.1,187 174.8,189.8 180.3,231.9 159.7,228.5 
			157.8,199.3 154.2,188.6 157.4,187 156.3,173 154.2,164.5 150.4,129.5 144.4,97.3 138.9,79.9 140.3,75.9 135.9,63.8 		"/>
	</g>
	<g id="Scarf_00000012454649944040221260000015270811838426625190_" class="st0">
		<polygon points="135.9,63.8 140.3,75.9 138.9,79.9 134.2,85.5 123.9,85.6 112.7,82.1 107.4,78 111.1,62.9 114.4,69.5 119.3,71.9 
			123.8,79 129,78.7 134.9,71.3 		"/>
	</g>
	<g id="Scarf">
		<polygon points="309.1,77.6 305.4,81 296.8,84.5 292,90.9 292.2,98.2 294.6,110.5 294.1,115.4 301,126.8 305.6,131.2 316.6,134.8 
			327.2,133.5 339.6,125.4 348.8,110.8 345.4,104.7 347.8,94.9 348.8,88.4 331.8,77.2 329.3,83.6 322.4,89.3 316.1,87.5 		"/>
	</g>
	<g id="Coat">
		<polygon points="280.8,100.9 273.6,105.8 270.4,129.9 269.6,138.3 275.4,133.1 277.9,146.1 280.2,148.2 284,160.4 286.7,153.4 
			289.8,145.5 289.8,125.4 294.1,115.4 300.2,126.7 304.7,233.3 304.4,322.4 302.7,324.2 270.6,317.2 253.8,309.7 266.9,236.6 
			271.5,236.3 274.5,230.8 272.2,213.2 271.2,212.2 258.7,212.3 256.4,209.4 261.2,177.5 267.8,145.6 270.2,129.8 270.7,122.8 
			273.4,104.9 281.4,100.3 280.8,106.7 272.4,126.3 271.3,124.9 274.2,105.8 		"/>
		<polygon points="348.8,110.8 357.5,119.9 358.5,129.6 363.4,135 362.5,151.5 364.7,161.6 369.6,217.4 355.1,218.6 350.3,237 
			351.8,240.5 357.1,242.7 357.7,311.2 356,314.8 329.6,319 328.4,323.9 325.7,322.5 323.3,316.9 325.2,292.9 325,266.3 
			328.2,204.4 334.8,156.1 336.6,138.1 336.8,126.8 		"/>
	</g>
	<g id="Pants_00000121997278358193286840000011418377564752939161_">
		<polygon points="154.2,188.6 127.7,193.1 100.5,192.2 101.6,196.2 92.3,204.4 90.7,223.9 93,231.9 95.4,254.1 92.1,280.7 
			86,289.4 74.6,330.8 69.8,346 70,355.8 74,359.8 87.6,364.3 91.1,362 96.4,353 92.1,340.6 98.1,331.6 110.5,299.7 115.5,289.7 
			118.6,285.6 125.3,253.4 127.8,283.2 125.8,293.5 125.3,306.2 119.1,338 115.5,350.5 119.5,361.7 116.4,370 120.8,371.4 
			132,370.2 141.6,365.7 142.3,357.9 144.9,353.4 142.7,341.1 146.9,330.6 149.1,307 152.1,293.4 153.5,282.5 154.9,277.9 
			154.9,264.5 159.7,231.1 158.4,204.8 		"/>
	</g>
	<g id="Pants">
		<polygon points="328.2,204.4 315.8,205.3 303.5,203.4 304.4,322.4 302.7,324.2 291.9,322.1 292.3,340.3 297.7,347.5 299.2,362.7 
			313,360.9 313.3,347.9 311.5,341.8 313,335.1 311.8,317.6 314.4,331.2 315.8,343.1 315.4,349.8 318.4,357.3 318.4,360.9 
			323.9,362.7 331.9,361.2 334.6,344 332.7,328.7 333.4,318.1 329.6,319 328.4,323.9 325.7,322.5 323.3,316.9 		"/>
	</g>
	<g id="Shoes_00000144299387683429601870000009260370406360954030_">
		<polygon points="331.9,361.2 323.9,362.7 318.4,360.9 314.4,381.1 312.7,375.2 313,360.9 299.2,362.7 297.4,385.9 311.4,386.6 
			314,384 317.7,386.6 330.5,386.6 331.9,374.1 331.3,362.7 		"/>
	</g>
	<g id="Shoes">
		<polygon points="141.6,365.7 132,370.2 120.8,371.4 116.4,370 117.6,386.5 159.1,386.3 162.2,383.5 160.5,379.6 148.8,376.9 		"/>
		<polygon points="87.6,364.3 74,359.8 70,355.8 72.4,385.9 87.3,387 93.7,384.6 89.5,365.7 		"/>
	</g>
</g>
<g id="AG-HUMANS">
	<g id="POLYLINE_683_">
		<path class="st1" d="M89.7,86.7c1.6,1,3.2,2.1,4.8,3c1.5,0.9,3.2,1.5,4.8,2.3c1.4,0.8,2.8,1.6,3.7,2.9c0.9,1.1,1.4,2.5,1.8,3.8
			c1.1,3.7,1.3,7.6,1.5,11.4c0.2,3.9,0.4,7.8,0.6,11.7c0.1,4.1,0.2,8.3-0.1,12.4c-0.1,0.4-0.1,0.9-0.1,1.4"/>
	</g>
	<g id="POLYLINE_682_">
		<path class="st1" d="M77.9,116.5c0.2,1.8,0.4,3.5,0.2,5.3c-0.2,1.8-0.6,3.7-0.9,5.5c-0.4,2.1-0.9,4.2-1.5,6.3s-1.2,4.1-1.8,6.2
			c-0.4,1.5-0.9,3-0.9,4.6c-0.1,1.6,0.1,3.3,0.4,4.9c0.7,3.6,2.4,7,3.6,10.5c0.6,2,1.2,4,2,5.9c0.6,1.5,1.5,2.7,2.6,3.9
			c2.7,2.9,5.7,5.6,7.8,8.9c0.6,0.9,2,2.6,0.8,3.4c-0.7,0.5-1.6,0.8-2.4,1.3c-0.8,0.4-1.5,0.8-2.2,1.2c-3.4,2-6.4,4.4-9.4,7
			c-0.8,0.7-1.6,1.5-2.5,2.2c-0.6,0.5-1.2,1.1-2,1.1c-1.5,0.1-2.7-1.6-3.5-2.5c-2.5-3.2-4.4-6.8-6.4-10.2c-2-3.5-4-7.2-5.9-10.8
			s-3.7-7.2-5.6-10.8c-1.7-3.4-3.7-6.9-4.4-10.7c-0.2-0.9-0.3-1.9-0.4-2.8c-0.1-0.9-0.4-1.9-0.6-2.8c-0.4-1.8-0.3-3.7,0.1-5.6
			c0.6-3.6,2.7-6.7,3.7-10.2c0.8-2.8,0.4-5.9,1.9-8.5c0.9-1.5,2.1-2.8,2.9-4.4c0.9-1.6,1.5-3.4,2.3-5.1c0.8-1.6,2.1-2.8,3-4.4
			c0.9-1.5,0.6-2.9,0.8-4.6c0.2-1.4,0.9-2.7,1.6-3.9c0.9-1.7,1.8-3.5,2.5-5.3s1.3-3.7,1.9-5.6c0.5-1.7,0.8-3.6,2.5-4.6
			c0.6-0.4,1.3-0.6,2-1c0.8-0.4,1.5-1,2.1-1.6"/>
	</g>
	<g id="POLYLINE_681_">
		<path class="st1" d="M74.6,192.7c2.1,3.5,4.9,6.6,7.5,9.7c0.9,1.1,1.8,2.3,3.2,3c1.4,0.7,2.9,0.6,4.4,0.2c1.9-0.6,3.7-1.5,5.3-2.6
			c1.6-1.1,3.3-2.2,4.7-3.6c1-1,2-2.2,2-3.7c0.1-1.8-1.1-3.5-2-4.9c-2.1-3.3-4.5-6.3-7.8-8.5c-0.4-0.3-0.8-0.5-1.3-0.8"/>
	</g>
	<g id="POLYLINE_680_">
		<path class="st1" d="M92.3,204.4c-0.9,4.5-1.4,9-1.7,13.5c-0.3,4.8-0.4,9.6-0.7,14.4c-0.1,1.1-0.1,2.3-0.3,3.4
			c-0.1,0.7-0.3,1.5-0.9,2c-1.3,0.9-3.5,0.5-5,0.2c-4.4-0.8-8.5-2.7-12.5-4.6c-3.5-1.8-6.9-3.7-10.3-5.6c-5.8-3.2-11.5-6.4-17.3-9.5
			c-1.2-0.7-2.5-1.3-3.7-2c-0.8-0.4-1.6-0.8-2.2-1.5c-0.6-0.6-0.5-1.2-0.2-1.9c0.4-0.9,1.1-1.8,1.6-2.7c0.6-0.9,1.1-2,1.6-3
			c0.8-1.6,1.5-3.2,2.1-4.7c2-4.9,4-9.7,6-14.5c2.2-5.2,4.4-10.6,6.6-15.8c0.1-0.3,0.3-0.6,0.4-0.9"/>
	</g>
	<g id="POLYLINE_679_">
		<path class="st1" d="M100.2,191.9c3.5,0.6,7,1.1,10.5,1.3c3.5,0.3,7.1,0.3,10.7,0.3c3.5-0.1,7.1-0.4,10.6-0.8
			c3.6-0.4,7.1-0.9,10.7-1.5c3.5-0.6,6.9-1.4,10.3-2.3c0.4-0.1,0.8-0.2,1.2-0.3"/>
	</g>
	<g id="POLYLINE_678_">
		<path class="st1" d="M107.4,78c1.6,1.5,3.2,2.8,5,3.9c1.6,0.9,3.5,1.6,5.3,2.2c4,1.2,8.3,2,12.5,2.1c1.3,0,2.7-0.1,4-0.7
			c1.2-0.6,2.1-1.5,2.9-2.6c1.1-1.5,2.1-3.3,2.7-5.1c0.5-1.3,0.6-2.7,0.2-4c-0.6-1.8-1.6-3.4-2.1-5.2c-0.4-1.4-0.6-2.7-1.4-3.9
			c-0.2-0.3-0.4-0.6-0.6-0.9"/>
	</g>
	<g id="POLYLINE_677_">
		<path class="st1" d="M108.3,46.3c-0.3,3.7,0.1,7.3,1.1,10.8c0.6,2,1.1,3.9,1.8,5.8c0.6,1.7,1.1,3.4,2.1,5c1.4,2.3,3.5,3.7,6.1,4
			c2.7,0.3,5.4-0.3,7.7-1.5c3-1.6,5.6-4.3,7.2-7.3c0.2-0.4,0.4-0.8,0.6-1.1"/>
	</g>
	<g id="POLYLINE_676_">
		<path class="st1" d="M118.9,71.7c0.6,1.1,1.3,2,1.9,3c0.6,0.9,1,1.8,1.6,2.7c0.9,1.3,2.3,1.9,3.9,2c1.8,0.1,3.1-0.8,4.1-2.1
			c1.3-1.8,2.9-3.5,3.8-5.6c0.9-2.1,1.3-4.4,1.6-6.6c0.4-2.5,0.9-5.1,1.5-7.6c0.1-0.7,0.3-1.8,0.9-2.2c0.4-0.3,0.9-0.3,1.3-0.3
			c0.7-0.1,1.3-0.5,1.8-1c1.2-1.3,2-3.1,2.5-4.8c0.3-1,0.4-2.1,0.3-3.1c-0.1-0.8-0.1-1.9-0.6-2.6c-1.1-1.7-3.3,1.3-3.7,2.2
			c-0.3,0.8-0.5,1.6-0.7,2.3c-0.1,0.8-0.3,2.4-1.1,2.8c-0.9,0.4-0.9-1.7-0.9-2.1c-0.2-1.1-0.5-2.3-0.8-3.4c-0.4-1.2-0.9-2.3-1.4-3.4
			c-0.4-0.8-0.8-1.8-0.7-2.7c0.2-1.9,3-3.1,1.9-5.2c-0.4-0.9-1.5-1-2.4-1c-1.1-0.1-2.3,0.1-3.4,0c-2.2-0.1-4.4-0.6-6.6-1.1
			c-2.3-0.6-4.6-1.5-7-1.7c-1.5-0.1-3,0.3-4.2,1.3c-1.4,1.1-2,2.7-2.3,4.4c-0.4,2.3-0.6,4.7-1.1,7c-0.3,1.3-0.6,2.5-0.8,3.7"/>
	</g>
	<g id="POLYLINE_675_">
		<path class="st1" d="M109.5,57.7c-1.8,1.6-3.5,3.4-5.2,5.2c-1.9,2-3.9,3.9-5.8,5.8c-0.6,0.6-1.1,1.2-0.9,2.1c0.3,1.1,1.4,2,2.1,3
			c0.6,0.8,1,2,0.4,2.8c-0.4,0.8-1.5,0.9-2.2,1.3c-0.9,0.4-1.3,1.1-1.7,2c-0.4,0.9-0.9,1.3-2,1.4c-0.9,0.1-1.6,0.2-2.4,0.6
			c-0.7,0.4-1.4,0.8-1.8,1.5c-0.5,0.8-0.4,1.5-0.3,2.3c0.2,1.1,0.1,2.1-0.1,3.2c-0.1,1.1,0,2.3-0.1,3.4c-0.1,1-0.6,1.6-1.6,2
			c-1.8,0.7-4-0.1-5.8-0.8c-1.2-0.5-2-1.4-2.8-2.3c-0.9-1-1.8-2-2.7-3c-0.7-0.8-1.7-1.4-1.9-2.5c-0.2-1.1-0.2-2.2-0.4-3.3
			c-0.4-2.1-2.5-3.2-3-5.2c-0.4-1.6,0.1-3.2,0.5-4.7c0.4-1.1,0.6-2.3,0.9-3.5c0.3-0.9,0.8-1.8,1.2-2.7c0.5-1,0.7-2.1,1.4-3
			c0.6-0.9,1.5-1.6,2.2-2.4c0.7-0.9,1-2,1.8-2.8c0.8-0.7,1.7-1.2,2.7-1.6c1.2-0.5,2.4-0.8,3.6-1.1c0.9-0.3,1.6-0.6,2.4-1.1
			c0.8-0.6,2-0.4,3-0.4c1.1,0.1,2.3,0.2,3.4,0c0.9-0.1,1.7-0.5,2.6-0.6c1-0.1,2-0.1,3,0c2,0.2,3.9,0.8,5.9,0.5
			c0.9-0.1,1.7-0.3,2.6-0.6"/>
	</g>
	<g id="POLYLINE_674_">
		<path class="st1" d="M111,62.4c-0.8,1.7-1.5,3.5-1.8,5.3c-0.3,2-0.4,4.1-0.7,6.1c-0.3,2.1-1,4.1-1.6,6.1c-0.4,1.4-0.7,2.8-0.6,4.3
			c0.1,1.8,0.7,3.5,1.2,5.2c0.6,2,1.1,4,1.5,6c0.7,4,0.9,8,0.8,12.1c-0.1,4-0.4,8-0.9,12c-0.5,4.4-1.1,8.8-1.6,13.2
			c-0.6,5.2-1.3,10.3-1.9,15.5c-0.4,3.5-0.9,7.1-1.6,10.7c-0.8,4.2-1.7,8.4-2.7,12.6c-0.9,4-2,8.1-3.2,12.1
			c-0.3,1.1-0.6,2.3-0.9,3.4"/>
	</g>
	<g id="POLYLINE_537_">
		<path class="st1" d="M108.4,45.6c-0.6-1.3-1-2.5-1.2-3.9c-0.2-1.3-0.1-2.5,0-3.8c0.3-3.2,0.2-6.4,0.9-9.5c0.6-2.3,1.3-5.1,3.1-6.7
			c0.8-0.8,1.8-1.1,2.7-1.7c0.9-0.8,1.6-1.9,2.4-2.8c1.5-1.6,3.5-2.5,5.8-2.4c1.6,0.1,3.2,0.6,4.8,0.7c1.5,0.1,3,0.1,4.4,0.4
			c1.3,0.4,2.3,1.3,3.2,2.1c1.2,1,2.5,1.8,3.7,2.6c2.3,1.5,4,3.3,5.2,5.8c0.9,1.9,1.3,3.9,0.9,5.9c-0.3,1.3-0.7,2.7-1,4
			s-0.4,2.6-0.6,3.9c-0.1,0.8-0.1,1.6-0.2,2.4"/>
	</g>
	<g id="POLYLINE_536_">
		<path class="st1" d="M136.7,60c3.7,2.7,7.4,5.4,11.1,8.2c3.7,2.8,7.3,5.7,11,8.6c1.6,1.3,3.2,2.5,4.7,3.9c0.6,0.6,1.5,1.1,1.9,1.9
			s-0.1,1.1-0.8,1.5c-1.8,0.8-3.9,0.9-5.4,2.1c-1.3,1.1-1.8,2.8-2.1,4.4c-1,4.2-1.4,8.5-1.6,12.8c-0.3,4.4-0.3,8.9,0,13.2
			s0.7,8.7,1.5,13c0.8,4.5,1.8,8.9,2.9,13.3c1,4,2.2,7.9,3.4,11.9c1.4,4.7,2.7,9.4,4.1,14.2c0.3,1.1,0.6,2.1,0.9,3.2"/>
	</g>
	<g id="POLYLINE_535_">
		<path class="st1" d="M137,58.8c1.5,0.3,2.9,0.5,4.4,0.6s2.8,0.1,4.3,0.3c1,0.2,2,0.4,2.9,1c1.1,0.6,2,1.5,3.2,2
			c1.3,0.5,2.7,0.8,4,1.3c1.2,0.5,2,1.3,3,2.3c0.9,0.9,1.8,1.5,3,2c1.5,0.6,2.8,1.1,3.9,2.3c0.9,1.1,1.5,2.5,2.4,3.8
			c0.6,0.9,1.5,1.6,2,2.7c0.8,1.6,0.9,3.6,0.8,5.3c-0.1,0.9-0.4,1.8-0.8,2.7c-0.5,1.3,0.2,2.1,0.8,3.2c0.4,0.9,0.6,1.7,0.3,2.7
			c-0.2,0.6-0.5,1.1-1,1.4c-0.6,0.3-1,0.4-1.4,1c-0.6,0.8-1,2-2,2.5c-1.1,0.6-2.2-0.1-3.1-0.7c-0.4-0.3-0.9-0.7-1.5-0.9
			c-0.6-0.3-1.2-0.4-1.8-0.6c-1-0.4-1.8-1.2-2.5-2.1c-0.3-0.4-0.6-0.9-0.8-1.5"/>
	</g>
	<g id="POLYLINE_534_">
		<path class="st1" d="M154.1,188.6c0.7,1.2,1.5,2.4,2,3.7c0.4,1.1,0.8,2.3,1,3.5c0.6,2.8,0.9,5.6,1.2,8.3c0.6,6,1.2,12.1,1.4,18.1
			c0.1,5.5-0.3,11.1-1.1,16.5c-0.9,6.9-2,13.8-2.9,20.7c-0.4,2.5-0.6,5-0.8,7.5c-0.1,1.4-0.1,2.8-0.1,4.1c0.1,1.4,0.2,2.7,0.3,4
			c0.1,2.5-0.8,4.9-1.5,7.3c-0.8,2.5-1.4,5.1-1.5,7.8c-0.1,2.8,0.1,5.6-0.6,8.4c-0.7,2.8-1.7,5.6-2.3,8.3
			c-1.3,5.8-1.1,11.6-1.5,17.5c-0.2,2.7-0.5,5.4-1.3,8.1c-0.9,2.8-2.2,5.4-3.4,8c-1.1,2.4,0.1,5.1,0.9,7.4c0.6,2,1.6,4.4,0.8,6.4
			c-0.6,1.3-1.6,2.3-2.3,3.4c-0.5,0.9-0.6,1.8-0.6,2.8c0.1,2.3,0.8,5.4-1.8,6.5c-1.1,0.4-2.2,0.6-3.2,1.1c-1.1,0.4-2,1.1-3.1,1.5
			c-2.6,0.9-5.4,1.3-8.2,1.5c-2.3,0.1-4.9,0.1-7-0.9c-2.1-1.1-2-3.3-1.2-5.2c0.3-0.8,0.8-1.6,1.3-2.3c0.8-1,1.3-1.6,0.5-2.8
			c-0.7-0.9-1.4-1.8-1.9-3c-0.5-1.1-0.9-2.3-1.1-3.4c-0.4-2.1-0.7-4.3-0.2-6.4c0.6-2.7,2.1-5.2,2.9-7.8c1.8-5.8,2.5-11.9,3.4-17.9
			c0.4-2.8,0.8-5.7,1.4-8.5c0.5-2.9,1.3-5.6,2.3-8.3c0.8-2.2,0.4-4.4,0.2-6.6c-0.3-2.5-0.3-4.9,0.4-7.3c0.4-1.3,0.9-2.7,1.4-4
			c0.3-0.9,0.5-1.9,0.3-2.8c-0.3-1.1-0.8-2-1-3.1s-0.1-2.2-0.1-3.4c0.2-2.8,0.4-5.6,0.1-8.5c-0.3-3.2-0.7-6.4-1-9.5
			c-0.3-2.7-0.6-5.5-0.9-8.2"/>
	</g>
	<g id="POLYLINE_533_">
		<path class="st1" d="M138.9,79.9c1.3,3.5,2.7,7.1,3.7,10.7c1.1,3.7,2,7.5,2.8,11.3s1.5,7.6,2.3,11.4c0.6,3.4,1.3,6.9,1.8,10.3
			c0.6,4.1,1.3,8.3,1.8,12.5c0.5,3.6,0.9,7.2,1.3,10.9c0.4,4,0.7,8.2,0.9,12.2c0.1,1.6,0.2,3.3,0.4,4.9c0.3,1.7,0.8,3.4,1.2,5.1
			c0.5,1.7,1,3.4,1.3,5.2c0.2,1.6,0,3.2,0.3,4.9c0.4,2.7,1.4,5.6-0.4,7.9c-0.6,0.8-1.4,1.2-2.3,1.5"/>
	</g>
	<g id="POLYLINE_532_">
		<path class="st1" d="M159.7,227.8c2.2,0.6,4.5,1.1,6.8,1.6c2,0.5,4.1,1.1,6.1,1.6c1.8,0.4,3.7,0.9,5.6,0.9c0.7,0,1.6-0.1,2-0.8
			c0.4-0.6,0.3-1.4,0.3-2c-0.2-2-0.7-3.9-0.9-5.9c-0.3-1.9-0.4-3.9-0.5-5.8c-0.4-4.6-0.6-9.3-1.4-13.8c-0.8-4.2-2-8.2-3.4-12.2
			c-0.2-0.6-0.4-1.1-0.6-1.6"/>
	</g>
	<g id="POLYLINE_531_">
		<path class="st1" d="M168.9,167.6c0.9-1.8,3.2-1.2,4.6-0.4c1.9,1.2,3.4,3,4.5,4.9c2.3,3.8,2.9,8.2,1.1,12.4
			c-0.8,1.7-1.9,3.5-3.5,4.6c-1.8,1.2-3.7,0.4-5.4-0.7c-1.8-1.2-2.9-2.8-3.7-4.9c-0.9-2.4-1.7-4.9-2.3-7.5c-0.3-1-0.4-2-0.2-3
			c0.3-1,1.1-2,2.2-1.8c0.7,0.2,1.9,1.3,2.4,0.3c0.4-0.8,0.1-2,0.1-2.9C168.8,168.3,168.8,168,168.9,167.6z"/>
	</g>
	<g id="POLYLINE_530_">
		<path class="st1" d="M168.9,167.6c-0.8-4.5-1.3-9-1.8-13.5c-0.4-4.8-0.8-9.7-1.2-14.5c-0.3-4.4-0.6-8.7-0.9-13.1
			c-0.3-4.8-0.7-9.6-0.9-14.4c-0.3-5.6-0.6-11.3-0.9-16.9c0-0.2,0-0.3,0-0.5"/>
	</g>
	<g id="POLYLINE_529_">
		<path class="st1" d="M165.3,96c-0.1,5.4,0.1,10.9,1.4,16.2c0.6,2.8,1.3,5.7,1.7,8.7c0.4,2.9,0.6,5.8,0.9,8.7c0.4,2.6,1,5.1,2,7.6
			c1.1,2.8,2.3,5.6,3.2,8.5c0.9,2.7,1.3,5.4,1.6,8.2c0.4,2.7,0.8,5.5,1.5,8.2c0.3,1.2,0.6,2.4,1.1,3.6c0.4,1.1,1,2.1,1.3,3.2
			c0.6,2.3,0.6,4.7,0.4,7.1c-0.1,0.6-0.1,1.1-0.3,1.6"/>
	</g>
	<g id="POLYLINE_528_">
		<path class="st1" d="M117.4,369.6c-0.8,3.2-1.1,6.4-1,9.7c0,1.6,0.1,3.3,0.3,4.9c0.2,1.4,0.5,2.3,2,2.7c1.4,0.3,2.8,0.3,4.2,0.3
			c2,0,3.9-0.1,5.8-0.1c3-0.1,6.1-0.1,9.1-0.1c4,0,8,0.1,11.9,0.1c3.1,0,6.4,0.1,9.4-0.8c1.4-0.4,2.9-1.1,3.1-2.8
			c0.1-1.3-0.5-2.7-1.4-3.7c-0.8-0.8-1.9-1.2-3-1.3c-1.6-0.3-3.2-0.3-4.7-0.6c-2.2-0.4-4.1-1.5-5.6-3.2c-1.9-2-2.9-4.7-4.9-6.7
			c-0.5-0.5-1.1-1-1.7-1.5"/>
	</g>
	<g id="POLYLINE_527_">
		<path class="st1" d="M136.8,221.1c-3.2,4.5-5.9,9.2-7.7,14.4c-1.8,5.4-3.2,10.9-4.4,16.4c-1.3,5.9-2.4,11.8-3.2,17.7
			c-0.4,3-0.7,5.9-1.1,8.9c-0.3,2.3-0.7,4.9-1.8,7.1c-0.6,1.1-1.5,1.8-2.3,2.7c-0.8,0.8-1.1,1.7-1.5,2.7c-0.8,2.2-1.1,4.9-2.7,6.8
			c-0.8,0.8-1.7,1.5-2.3,2.4c-0.5,0.8-0.8,1.8-0.9,2.7c-0.6,2.7-1.2,5.4-2.3,7.9c-1.1,2.8-2.5,5.6-3.8,8.3c-1.2,2.5-2.1,5.1-2.9,7.8
			c-0.8,2.4-1.7,4.6-3,6.7c-1.5,2.3-3.4,4.5-4.7,7c-0.2,0.4-0.4,0.9-0.4,1.3c0.1,0.5,0.4,0.8,0.8,1.1c0.9,0.9,1.5,2,2,3.1
			c0.9,1.9,1.8,4,1.8,6.1c0.1,2.7-2,4-3.4,6c-1.1,1.7-1.5,4.2-3.2,5.5c-1.8,1.4-4.8,0.3-6.7-0.4c-2.6-0.9-5.2-1.6-7.8-2.8
			c-2.3-1.1-4-2.7-5.2-4.9c-1.1-2.1-1.8-4.8-1.3-7.2c0.2-0.8,0.6-1.6,1-2.3c0.7-1.1,1.7-2.2,2-3.5c0.3-1.2,0-2.4,0.1-3.5
			c0-1,0.3-1.9,0.6-2.8c0.9-2.7,2.1-5.2,2.8-8c0.7-2.4,1.2-4.8,1.7-7.3c1.3-6.2,2.5-12.5,4.2-18.5c1.5-5.4,3.4-10.7,6.3-15.5
			c0.6-1.1,1.3-2.1,2.1-3c0.9-1,2-1.7,2.5-3.1c0.8-2.4,0.9-5,1.1-7.5c0.1-1.1,0.1-2.1,0.5-3.1s0.8-2,0.9-3.1
			c0.1-2.2-0.6-4.4-0.1-6.6c0.3-1.3,0.6-2.5,0.8-3.8c0.2-1.3,0.1-2.6,0.1-3.9c-0.1-2.3-0.4-4.6-0.7-6.9c-0.8-6.5-1.5-13-2.4-19.5
			c-0.4-2.8-0.9-5.5-1.5-8.2"/>
	</g>
	<g id="POLYLINE_526_">
		<path class="st1" d="M70,355.8c-0.4,2.7-0.6,5.4-0.4,8.1c0.3,2.8,1.1,5.5,1.6,8.2c0.4,2.7,0.3,5.3,0.2,8c-0.1,1.8-0.3,4.4,1.1,5.8
			c0.8,0.8,2,0.9,3,0.9c1.3,0.1,2.7,0.1,3.9,0.2c2.7,0.1,5.3,0.1,8-0.1c1.8-0.2,4.4-0.4,5.7-2c1.2-1.5,0.6-3.9,0.1-5.5
			c-0.4-1.1-0.9-2.2-1.5-3.3c-0.5-1-0.8-2.1-1.1-3.2c-0.6-2.4-0.9-4.9-1.1-7.3c0-0.6-0.1-1.3,0-2"/>
	</g>
	<g id="POLYLINE_525_">
		<path class="st1" d="M310.6,80.9c-1.6,1.4-1.6,3.6-0.6,5.3c0.5,0.8,1.1,1.6,1.5,2.5c0.4,1.1,0.7,2,1.8,2.5c1.3,0.6,2.7,0.8,4.1,1
			c1,0.1,2.1,0.3,3.1,0.1c1.4-0.3,2.7-0.8,4-1.3c0.7-0.3,1.5-0.4,2.1-0.7c0.8-0.3,1.3-0.8,1.9-1.3s1.1-1,1.8-1.5
			c0.5-0.3,0.9-0.6,1.1-1.2c0.3-0.6,0.3-1.5,0.1-2.1c-0.2-0.7-0.8-1.2-1.1-1.9c-0.1-0.2-0.1-0.4-0.1-0.6"/>
	</g>
	<g id="POLYLINE_296_">
		<path class="st1" d="M329.6,319c3.3-0.6,6.5-1.1,9.8-1.6c3.3-0.4,6.6-0.8,9.9-1.2c1.6-0.2,3.2-0.4,4.7-0.8c1.1-0.3,2.3-0.5,3-1.4
			c1.1-1.4,0.8-3.8,0.8-5.5c0-3.9-0.1-7.6-0.1-11.5c-0.1-4.9-0.1-9.7-0.1-14.6c0-2.7,0-5.4-0.1-8c0-2.2-0.1-4.4-0.1-6.6
			c-0.1-4.9-0.2-9.7-0.3-14.6c-0.1-3.5-0.1-7-0.2-10.5c0-0.2,0-0.4,0-0.5"/>
	</g>
	<g id="POLYLINE_295_">
		<path class="st1" d="M355.1,218.6c-0.8,2.3-1.3,4.6-2,7c-0.6,2.1-1.3,4.3-1.9,6.4c-0.5,1.9-1.1,4-0.8,6c0.3,1.8,1.6,2.9,3.4,3.5
			c2.8,0.9,6,1.2,8.6-0.4c2.8-1.8,4.6-5.1,5.6-8.2c1.4-4.2,1.4-8.8,1.1-13.2c-0.1-0.5-0.1-1-0.1-1.6"/>
	</g>
	<g id="POLYLINE_294_">
		<path class="st1" d="M318.7,360.4c-0.9,4.8-1.7,9.7-2.5,14.5c-0.4,2.3-0.9,4.5-0.9,6.8c-0.1,1.4-0.4,4.2,1.1,5
			c0.8,0.4,1.7,0.4,2.5,0.4c1.3,0,2.7,0,4,0c1.8,0,3.7,0.1,5.6-0.4c1.6-0.4,2.7-1.4,3.1-3c0.4-1.8,0.3-3.7,0.2-5.5
			c-0.3-4.7-0.9-9.4-1-14.2c0-0.7,0-1.3-0.1-2"/>
	</g>
	<g id="POLYLINE_293_">
		<path class="st1" d="M299.4,362.2c-1,4.6-1.6,9.2-1.8,13.9c-0.1,2.3-0.3,4.7-0.1,7c0.1,0.8,0.2,1.8,0.8,2.5c0.4,0.6,1.2,0.9,2,1.1
			c2.1,0.4,4.3,0.4,6.4,0.3c1.2,0,2.4-0.1,3.6-0.1c0.8-0.1,1.8-0.1,2.5-0.6c1.7-1,1.2-4,1.1-5.6c-0.2-2.7-0.5-5.3-0.8-8
			c-0.2-2-0.4-4-0.2-6c0.2-1.8,0.6-3.5,0.3-5.3c-0.1-0.4-0.2-0.9-0.3-1.4"/>
	</g>
	<g id="POLYLINE_292_">
		<path class="st1" d="M311.9,317.9c0.2,2,0.3,3.9,0.8,5.9c0.4,1.8,1.2,3.5,1.5,5.4c0.3,1.8,0.1,3.6,0.2,5.4
			c0.1,1.9,0.6,3.8,0.9,5.6c0.3,1.4,0.6,2.8,0.4,4.3c-0.2,1.3-0.8,2.5-0.8,3.8c0,0.5,0.1,1,0.3,1.5c0.3,0.9,1.1,1.5,1.4,2.4
			c0.2,0.6-0.1,1.3,0.2,2c0.3,0.7,0.7,1.3,1.1,2c0.6,1.3,0.3,2.6,0.6,4c0.3,1.5,1.7,2,3,2.2c1.6,0.3,3.4,0.3,5.1,0.3
			c1.5-0.1,3.3-0.2,4.7-0.8c1.5-0.6,1.5-2.2,1.6-3.6c0.1-1.6,0.1-3.1,0.7-4.6c0.6-1.6,0.2-3.2,0.3-4.9c0.1-1.6,0.6-3.1,0.6-4.7
			c-0.1-2-0.6-4.1-0.9-6.1c-0.3-1.8-0.6-3.5-0.7-5.3c-0.3-3.8-0.1-7.6,0.2-11.4c0.1-0.9,0.2-1.9,0.3-2.8"/>
	</g>
	<g id="POLYLINE_291_">
		<path class="st1" d="M291.9,322c0.2,3.2,0.2,6.4,0.1,9.6c-0.1,2.8-0.3,5.8,0.3,8.7c0.2,1,0.5,2,1.1,2.9c0.7,0.9,1.7,1.5,2.7,2.1
			c2,1.5,2.7,4,2,6.4c-0.3,1.3-0.9,2.6-0.3,3.9c0.6,1.1,1.1,1.8,1.1,3.1c0.1,1-0.3,2.8,0.5,3.6c0.8,0.8,2.4,0.5,3.4,0.4
			c2.8-0.2,5.9-0.6,8.7-1.5c1.2-0.4,1.7-0.9,1.8-2.2c0.1-1.5,0-2.9-0.1-4.4c-0.1-1.3-0.1-2.5,0.1-3.8s0.4-2.3-0.1-3.7
			c-0.5-1.1-1.1-2.1-1.4-3.4c-0.4-1.4,0.1-2.7,0.7-3.9c0.9-2.1,0.7-4,0.2-6.3c-0.6-2.9-0.9-5.8-0.9-8.8c0.1-3.1,0.3-6.2,0.3-9.3
			c0-2.5-0.1-5.1-0.1-7.6c-0.1-4.6-0.2-9.1-0.3-13.6c-0.1-2-0.1-4.1-0.1-6.2c0-4.2,0-8.3-0.1-12.5c0-1.8,0-3.7,0-5.6
			c0.1-4,0.1-8.1,0.1-12.1c0.1-4,0.1-8.2,0.1-12.2c0-0.7,0-1.3,0-2"/>
	</g>
	<g id="POLYLINE_290_">
		<path class="st1" d="M349.1,128c0,3.2,0.1,6.5,0,9.7c0,3.4-0.1,6.8-0.2,10.1c-0.1,3.4-0.2,6.7-0.1,10.1c0.1,3.4,0.3,6.8,0.5,10.2
			c0.2,3,0.5,6,0.9,9c0.5,3.9,0.9,7.6,1.5,11.5c0.4,3.2,0.7,6.4,1,9.7c0.3,3.2,0.6,6.5,0.8,9.8c0.1,1.8,0.2,3.5,0.3,5.4
			c0.1,1.4,0.1,2.9,0.3,4.3c0.2,1.3,2,0.8,3,0.8c1.6-0.1,3.1-0.1,4.7,0s3.3,0.1,4.9,0.1c0.9-0.1,2.4-0.1,3.1-0.9
			c0.4-0.5,0.4-1.2,0.4-1.8c0-0.8,0-1.6-0.1-2.3c-0.1-1.6-0.2-3.3-0.3-4.9c-0.3-3.2-0.8-6.3-1.2-9.5c-0.5-3.4-1-6.8-1.3-10.1
			c-0.2-1.6-0.2-3.3-0.3-4.9c-0.1-1.4-0.4-2.7-0.8-4c-0.4-1.1-0.6-2.3-0.6-3.4c-0.1-1.5,0.1-3,0.1-4.6c0-2.7-0.9-5.3-0.9-8
			c0-1.3,0.3-2.7,0.3-4c0-1.1-0.3-2.1-0.6-3.1c-0.7-2.4-1.8-4.8-1.6-7.3c0.1-1.5,0.3-3,0.4-4.6c0.1-1.8,0.2-3.5,0.3-5.2
			c0.1-1.6,0.1-3.1,0.3-4.7"/>
	</g>
	<g id="POLYLINE_289_">
		<path class="st1" d="M303.4,203.4c3.2,0.8,6.5,1.5,9.9,1.7c3.2,0.3,6.4,0.3,9.7,0c1.8-0.2,3.5-0.4,5.3-0.7"/>
	</g>
	<g id="POLYLINE_288_">
		<path class="st1" d="M260.2,211.8c-1.5,4-2.1,8.3-2,12.5c0.1,1.9,0.4,3.9,1.2,5.6c0.7,1.5,1.8,2.6,3,3.7c1.5,1.3,3.1,3,5.1,3.4
			c1.5,0.3,3.1-0.1,4.3-0.9c3.1-2,2.6-6.8,2.4-10c-0.3-4.6-1.1-9.2-2.3-13.6c-0.2-0.6-0.3-1.2-0.5-1.8"/>
	</g>
	<g id="POLYLINE_287_">
		<path class="st1" d="M271.2,128.3c-0.3-2.2-0.4-4.4-0.3-6.6c0.2-2.1,0.9-4,1.3-6c0.5-2.1,0.4-4.4,0.6-6.6c0.1-1.6,0.3-3.4,1.8-4.3
			c0.9-0.6,1.9-1,2.8-1.6c1.1-0.7,2.2-1.5,3.4-2.1"/>
	</g>
	<g id="POLYLINE_286_">
		<path class="st1" d="M277.9,146.1c0.3,6,0.3,11.9,0.4,18c0.1,5.5,0.4,11,0,16.5c-0.3,5.4-1.4,10.7-3,15.9
			c-0.8,2.8-1.8,5.6-2.6,8.3c-0.3,1.1-0.6,2.3-0.8,3.5c-0.1,0.9-0.1,2.4-1.1,3s-2.5,0.5-3.5,0.6c-1.3,0.1-2.7,0.1-4,0.1
			c-1.6,0-5.2,0.3-6.1-1.5c-0.4-0.8-0.2-2,0-2.8c0.3-1.4,0.6-2.7,0.8-4.1c0.4-2.8,0.6-5.6,0.9-8.3c0.4-2.7,1.3-5.3,2-8
			c0.6-2.5,0.4-5.1,0.3-7.7c0-1.1-0.1-2.1,0.2-3.2c0.3-0.9,0.9-1.6,1.2-2.5c0.6-1.8-0.3-3.9-0.1-5.8c0.1-1.3,0.9-2.2,1.6-3.3
			c0.5-0.7,0.8-1.5,0.9-2.3c0.3-2.1,0.1-4,0.8-6c0.8-2.2,1.7-4.1,1.8-6.4c0.1-2.6,0.2-5.1,0.8-7.6c0.3-1.3,0.6-2.5,1-3.7"/>
	</g>
	<g id="POLYLINE_285_">
		<path class="st1" d="M300.1,125.4c0.1,3,0.3,5.9,0.4,8.9c0.3,7,0.6,13.9,0.9,20.9c0.3,7.9,0.6,15.9,1,23.8
			c0.3,6.1,0.5,12.1,0.8,18.2c0.1,2.4,0.2,4.8,0.3,7.1c0.2,6.7,0.4,13.4,0.5,20.2c0.1,5.1,0.1,10.2,0.2,15.4
			c0.1,3.9,0.1,7.6,0.1,11.5c0,5.9,0,11.9,0.1,17.9c0,7.8,0,15.5,0.1,23.3c0,3.5-0.1,7.1,0,10.6c0.1,3.4,0.2,6.7,0.3,10.1
			c0.1,2.3,0.2,4.6,0.1,6.8c-0.1,1.8-0.3,4.6-2.7,4.2c-1.2-0.1-2.4-0.6-3.6-0.9c-1.1-0.3-2.3-0.6-3.5-0.8c-5.1-0.9-10.3-1-15.4-2.3
			c-5.3-1.3-10.3-3.7-15.4-5.8c-2.3-0.9-4.6-1.6-6.9-2.5c-0.9-0.4-2-0.8-2.7-1.5c-0.8-0.8-0.7-1.6-0.4-2.7c0.7-2.5,1.5-4.9,2-7.3
			c0.6-2.7,1.1-5.4,1.6-8c0.8-4,1.5-8.2,2.2-12.2c1.3-7.3,2.5-14.5,3.8-21.7c0.8-4.4,1.5-8.7,2.3-13.1c0.5-2.8,1.1-5.6,1.6-8.5"/>
	</g>
	<g id="POLYLINE_284_">
		<path class="st1" d="M352.9,116.1c-1.1,3.3-2.2,6.6-3.2,9.9c-0.9,3.1-1.7,6.2-2.4,9.4c-0.7,3.3-1.3,6.6-1.8,9.9
			c-0.4,3.1-0.9,6.3-1.2,9.4c-0.4,3.7-0.8,7.3-1.1,10.9c-0.1,1.2-0.2,2.5-0.3,3.7c-0.3,3.3-0.6,6.6-0.8,9.9
			c-0.4,4.6-0.8,9.2-1.1,13.8c-0.4,5.1-0.8,10.1-1.3,15.2c-0.4,4.7-0.8,9.5-1.2,14.2c-0.3,3.5-0.6,7.1-0.9,10.7
			c-0.1,1.6-0.3,3.2-0.4,4.8c-0.3,2.8-0.5,5.6-0.8,8.4c-0.3,2.8-0.6,5.7-0.9,8.5c-0.5,4.1-1,8.3-1.5,12.4c-0.5,4-0.9,8-1.5,12
			c-0.3,2.7-0.6,5.3-0.8,8c-0.3,3.4-0.6,6.8-0.8,10.1c-0.2,3.7-0.4,7.3-0.5,11c-0.1,3.2-0.3,6.4-0.6,9.5c-0.1,1.2-0.4,7-2.7,5.9
			c-1.9-0.8-2.7-3.5-3-5.4c-0.4-2.9-0.3-5.9,0-8.9c0.3-3.7,0.6-7.3,0.8-10.9c0.1-3.1,0.2-6.3,0.2-9.4c0-3.9-0.1-7.8-0.1-11.8
			c-0.1-2.8-0.1-5.7-0.1-8.5c0.1-3.4,0.1-6.7,0.2-10.1c0.1-3.5,0.3-7.1,0.4-10.6c0.2-3.4,0.4-6.7,0.6-10c0.2-3.8,0.4-7.6,0.6-11.4
			c0.2-2.9,0.4-5.9,0.6-8.8c0.3-3.8,0.4-7.6,0.7-11.4c0.3-3.3,0.5-6.6,0.8-9.9c0.3-3.4,0.8-6.8,1.1-10.1c0.3-2.5,0.7-4.9,1.1-7.4
			c0.7-4.6,1.5-9,2.1-13.6c0.4-3,0.9-5.9,1.4-8.9c0.5-3.4,1-6.8,1.3-10.2c0.3-3.2,0.6-6.4,0.6-9.7c0.1-3.4,0.1-6.7,0.2-10.1"/>
	</g>
	<g id="POLYLINE_283_">
		<path class="st1" d="M291.6,94.5c1.4,2.3,3.1,4.4,4.9,6.3c1.9,2,3.9,3.9,6.2,5.3c4.7,3,10.6,4.1,16.1,5.1c3,0.6,6.1,1.3,9.2,1.1"
			/>
	</g>
	<g id="POLYLINE_282_">
		<path class="st1" d="M346,99.9c-0.8,0.9-1.5,1.8-2.1,2.8c-0.7,1.3-1.3,2.6-1.8,3.9c-1.1,2.3-2.6,4.2-4.2,6.2
			c-1.5,2-3.1,4.4-5.3,5.7c-2,1.2-4.6,1.1-6.9,1.1c-3.2,0.1-6.4,0.1-9.6,0.2"/>
	</g>
	<g id="POLYLINE_281_">
		<path class="st1" d="M294.1,114.2c1.2,2.5,2.6,4.9,3.9,7.3c1.1,2,2,4.1,3.5,5.9c2.8,3.5,7.4,5.6,11.6,6.6
			c4.6,1.2,9.6,1.1,14.2-0.5c4.7-1.7,8.6-5.1,11.8-8.9c3.3-3.9,6.1-8.2,8.2-12.8c0.3-0.6,0.5-1.2,0.8-1.8"/>
	</g>
	<g id="POLYLINE_280_">
		<path class="st1" d="M309.1,77.6c-1.1,1.3-2.1,2.7-3.7,3.4c-1.8,0.8-3.7,1.3-5.4,1.9c-3.6,1.3-6.6,3.7-7.8,7.5
			c-1.2,3.6-0.1,7.3,0.8,10.9c0.9,3.4,1.8,6.8,1.5,10.4c-0.3,4-1.8,7.5-3.4,11.1c-0.7,1.6-1.3,3.2-1.5,4.8c-0.3,2-0.3,4-0.1,5.9
			c0.3,4,0.9,8,0.4,12c-0.5,3.6-2.9,6.4-3.8,9.8c-0.3,1-0.4,2-0.6,3c-0.1,0.6-0.1,1.8-0.6,2.3c-0.8,0.9-2.1-3.1-2.3-3.5
			c-0.6-1.8-1-3.5-1.3-5.4c-0.3-1.5-0.5-3-1.6-4.2s-2.3-2.1-2.8-3.7c-0.4-1.5-0.4-3.2-0.5-4.7c0-1.1,0-2.1-0.1-3.2
			c-0.1-0.8,0-1.7-0.4-2.4c-0.8-1.5-3,1.3-3.5,2c-0.6,0.8-1.2,1.6-1.8,2.3c-0.3,0.4-0.9,1.2-1.3,0.5c-0.3-0.6-0.2-1.4-0.2-2
			c0.1-0.9,0.1-1.8,0.3-2.7c0.3-1.7,0.8-3.4,1.6-5c0.8-1.7,1.9-3.2,2.8-4.9c1.8-3.5,2-7.5,3.3-11.2c0.6-1.6,1.4-2.8,2.4-4.1
			c0.9-1.2,1.6-2.4,1.6-4c0.3-4-1.1-8-0.8-11.9c0.1-1.3,0.4-2.6,1-3.8c0.8-1.5,2-2.6,3.2-3.9c2.3-2.5,2.6-5.9,3.2-9.2
			c0.3-1.7,0.6-3.4,1.4-5c0.7-1.6,1.8-2.8,3.1-4c1.5-1.3,2.9-2.5,4.1-4c1.1-1.5,2-3,2.8-4.6c1.8-3.6,3.5-7.3,5.9-10.6
			c2-2.7,4.8-5.3,8-6.6c1.6-0.6,3.2-0.6,4.9-0.7c1.7-0.1,3.4-0.6,5.1-0.6c3.5,0.1,7.1,2.2,9.9,4.3c2.9,2.2,5.1,4.9,6.6,8.2
			c1.8,3.7,3.1,7.6,4.9,11.4c1.8,3.7,4.1,7,6.1,10.6c0.9,1.8,1.8,3.5,2.4,5.4c0.5,1.6,0.7,3.4,0.8,5.1c0.3,3.7,0.2,7.3,1.6,10.7
			c1.5,3.5,3.9,6.6,5.4,10c1.6,3.5,2.7,7.3,2.1,11.2c-0.3,2-0.8,3.8-1,5.8c-0.2,1.8,0,3.7,0.4,5.5c0.4,1.9,1.1,3.8,1.5,5.7
			c0.1,0.4,0.4,1.6-0.2,1.6s-1.3-0.8-1.7-1.1c-2.1-1.9-4-4-4.2-7c-0.1-1.8,0.2-3.5,0.1-5.2c-0.1-0.9-0.3-1.6-0.8-2.3
			c-0.6-0.7-1.4-1.2-2.1-1.7c-3-2.1-5.4-5.2-7.1-8.3c-1.5-2.7-2.3-5.6-1.8-8.7c0.3-2,1.1-3.8,1.7-5.7c0.4-1.3,0.8-2.7,0.8-4.1
			c-0.2-3.7-3.9-5.4-6.8-7c-3.5-2-6.7-4.3-10-6.5"/>
	</g>
	<g id="POLYLINE_279_">
		<path class="st1" d="M321.7,52.3c-1.2-0.8-2.5-1.3-3.9-0.9c-1.3,0.4-2.5,1.3-3.5,2.3c-2.5,2.3-3.9,5.4-4.8,8.7
			c-1,3.6-1.6,7.5-1.2,11.3c0.4,3.5,1.8,6.6,3.8,9.5c1.7,2.3,3.9,4.7,6.7,5.8c2.3,0.8,4.6,0.2,6.6-1.2c2.7-1.9,4.9-4.9,5.8-8.1
			c0.9-3,0.1-5.8-0.5-8.8c-0.8-3.9-1.1-8-1.6-11.9c-0.2-1.3-0.3-2.9-1.5-3.6c-1.2-0.7-2.7-0.9-3.9-1.6
			C322.9,53.2,322.4,52.7,321.7,52.3z"/>
	</g>
</g>
<g id="AG-OUTLINE" class="st2">
	<g id="POLYLINE_00000168075108779659254970000013897940110826490033_" class="st3">
		<path d="M260.2,211.8c-1.3-0.1-2.9-0.4-3.2-2c-0.3-1.5,0.4-3.2,0.6-4.7c0.8-3.9,0.8-7.9,1.5-11.8c0.4-2,1.1-3.8,1.5-5.7
			c0.4-1.7,0.6-3.4,0.6-5.2s-0.3-3.7,0-5.6c0.1-0.6,0.2-1.1,0.5-1.6c0.3-0.6,0.8-1.2,0.9-1.9c0.3-1.5-0.2-3-0.3-4.5
			c-0.1-1.7,0.7-2.8,1.6-4.2c1.6-2.3,0.8-5.4,1.6-8c0.5-1.5,1.3-3,1.6-4.6c0.4-1.6,0.3-3.4,0.4-5.1c0.1-1.8,0.4-3.5,0.8-5.2
			c0.2-0.8,0.4-1.7,0.7-2.5c0.1-0.3,0.2-0.6,0.1-0.8c0-0.1-0.2-0.2-0.2-0.3c-0.1-0.3-0.1-0.7-0.1-1c-0.1-1.6,0.2-3.3,0.6-4.8
			c0.2-0.8,0.4-1.7,0.8-2.5c0.2-0.4,0.4-0.9,0.6-1.3c0.3-0.5,0.2-0.8,0.1-1.3c-0.2-1.8-0.3-3.7-0.2-5.5c0.1-1.8,0.6-3.5,1.1-5.2
			c0.4-1.6,0.6-3.2,0.8-4.9c0.1-1.8,0.1-3.7,0.6-5.3c0.5-1.5,1.7-2,3-2.7c0.9-0.4,1.6-1,2.5-1.6c0.4-0.3,0.8-0.5,1.1-0.8
			c0.3-0.1,0.9-0.4,0.9-0.6c0.1-0.1-0.1-0.4-0.1-0.6c-0.1-0.4-0.1-0.7-0.1-1.1c-0.1-0.6-0.2-1.3-0.3-1.9c-0.1-0.8-0.2-1.7-0.2-2.5
			c-0.1-1.6,0.1-3.1,0.5-4.6c0.4-1.3,1-2.4,2-3.4c1-1.1,2.1-2.1,2.9-3.4c0.8-1.5,1.2-3.1,1.5-4.7c0.4-1.8,0.6-3.7,1.1-5.6
			c0.4-1.5,0.9-2.9,1.9-4.1c1.1-1.5,2.6-2.7,4-3.9c2.7-2.5,4.4-5.6,5.9-8.9c1.8-3.5,3.5-7.1,6.1-10.1c2-2.3,4.7-4.6,7.7-5.5
			c1.6-0.4,3.2-0.3,4.8-0.5c1.7-0.2,3.4-0.6,5.1-0.4c3.4,0.4,6.8,2.5,9.5,4.6c2.8,2.2,4.8,4.9,6.3,8.1c1.8,3.6,3,7.4,4.7,11
			c1.7,3.5,3.9,6.8,5.9,10.2c1.8,3.2,3.2,6.4,3.5,10.1c0.3,3.6,0.1,7.3,1.3,10.7c1.3,3.4,3.5,6.4,5.1,9.6c1.7,3.3,3,7,3,10.6
			c0,3.7-1.5,7.3-1.1,11c0.2,1.7,0.6,3.4,1.1,5c0.3,1,0.6,2,0.8,3c0.1,0.3,0.2,0.7,0.1,1c0,0.3-0.2,0.3-0.3,0.5
			c-0.2,0.3-0.1,1.1-0.1,1.5c0,0.3-0.1,0.7-0.1,1c-0.1,1.4-0.1,2.8-0.2,4.2c-0.1,1.8-0.2,3.7-0.4,5.5c-0.2,1.4-0.4,2.8-0.1,4.2
			c0.3,1.7,0.9,3.4,1.5,5c0.4,1.3,0.7,2.6,0.7,3.9c-0.1,1.5-0.4,3-0.2,4.6c0.2,1.8,0.7,3.5,0.8,5.3c0.2,1.8-0.1,3.7-0.1,5.6
			c0,1.5,0.3,2.9,0.8,4.4c0.6,1.7,0.7,3.3,0.8,5.1c0.1,3.9,0.7,7.6,1.3,11.4c0.6,4.2,1.2,8.3,1.6,12.5c0.2,1.9,0.3,3.8,0.3,5.8
			c0,0.8,0.1,1.8-0.3,2.4c-0.2,0.3-0.6,0.4-0.7,0.6c-0.1,0.3,0.1,1.1,0.1,1.5c0.3,3.8,0.3,7.7-0.6,11.4c-0.8,3-2.1,5.9-4.2,8.2
			c-1.9,2.1-4.4,3.1-7.2,2.8c0,2.5,0.1,5.1,0.1,7.6c0.1,5.9,0.1,11.8,0.2,17.8c0.1,6.8,0.2,13.7,0.3,20.5c0.1,5.2,0.1,10.5,0.2,15.7
			c0,2.5,0.2,5.1,0.1,7.6c-0.1,1.6-0.6,3-2.2,3.7c-1.9,0.7-4.1,0.9-6.1,1.1c-4.4,0.6-8.8,1-13.2,1.7c-0.8,0.1-1.6,0.3-2.3,0.4
			c-0.1,0-0.4,0-0.5,0.1s-0.1,0.7-0.1,0.9c-0.1,1.1-0.2,2.1-0.3,3.2c-0.2,2.1-0.3,4.3-0.3,6.4s0.1,4.2,0.4,6.2
			c0.3,2.3,0.8,4.6,1.1,6.8c0.3,2,0.1,3.7-0.3,5.6c-0.3,1.7,0.1,3.5-0.2,5.2c-0.2,0.8-0.6,1.5-0.8,2.3c-0.2,1-0.1,2.1-0.2,3.1
			c0,0.8-0.1,1.6-0.3,2.4c-0.1,0.3-0.3,0.6-0.6,0.9c-0.2,0.2-0.4,0.3-0.6,0.4c-0.1,0.1-0.5,0.1-0.6,0.2c-0.3,0.3,0,1.5,0,1.8
			c0,0.5,0,1,0.1,1.5c0.1,1.1,0.1,2.3,0.1,3.4c0.1,2.4,0.4,4.8,0.6,7.2c0.2,1.9,0.4,3.8,0.3,5.7c-0.1,1.4-0.3,3.1-1.3,4.1
			c-1.1,0.9-2.7,1.1-4,1.3c-2.3,0.2-4.7,0.1-7,0.1c-1.6,0-3.6,0.1-4-1.8c-0.4-1.7-0.3-3.6-0.1-5.3c0.2-1.9,0.6-3.8,0.9-5.7
			c0.4-2.8,0.9-5.7,1.4-8.5c0.1-0.8,0.3-1.5,0.4-2.3s0.3-1.5,0.4-2.3c0.1-0.5,0.1-0.8,0.1-1.3c-0.1-0.8,0-1.5-0.1-2.3
			s-0.4-1.4-0.8-2.1c-0.4-0.8-0.9-1.5-0.9-2.4s-0.3-1.5-0.8-2.2c-0.8-1.2-1.1-2.5-0.8-4c0.3-1.6,0.8-2.9,0.6-4.6
			c-0.3-2.1-0.9-4.2-1.2-6.3c-0.3-2,0-4-0.2-6c-0.2-2.1-1-4-1.6-5.9c-0.6-2-0.8-4.1-0.9-6.2c-0.1,2.7-0.3,5.4-0.3,8.2
			c0,2.5,0.4,5,0.9,7.5c0.4,1.8,0.8,3.5,0.2,5.3c-0.3,1.1-0.9,2.1-1.1,3.2c-0.1,0.9,0.1,1.8,0.4,2.6c0.4,1.1,1.2,2.2,1.5,3.5
			c0.3,1-0.2,2-0.3,3c-0.3,2.5,0.2,4.9,0.1,7.3c0,0.4-0.1,0.8-0.1,1.2c-0.1,0.3-0.2,0.4-0.2,0.6s0.1,0.6,0.2,0.8
			c0.1,0.8,0.3,1.6,0.2,2.5c-0.1,1.1-0.3,2.3-0.4,3.4s-0.1,2.3,0,3.5c0.2,2.9,0.6,5.8,0.8,8.7c0.1,1.1,0.2,2.2,0.3,3.3
			c0.1,1.1,0.1,2.4-0.6,3.4c-0.5,0.8-1.5,1-2.4,1.1c-1.2,0.1-2.5,0.1-3.7,0.2c-2.3,0.1-4.9,0.2-7.2-0.4c-0.9-0.3-1.8-0.7-2.1-1.6
			c-0.4-0.8-0.4-1.8-0.4-2.7c-0.1-2.7,0.1-5.3,0.3-7.9c0.2-2.5,0.4-5.1,0.8-7.6c0.2-1.3,0.5-2.7,0.8-4c0.1-0.3,0.2-0.6,0.1-0.8
			c-0.1-0.2-0.3-0.3-0.4-0.5c-0.2-0.5-0.2-1-0.2-1.5c0-1.1,0.1-2.1-0.3-3.2c-0.4-0.9-1.1-1.7-1.1-2.8c0.1-1.1,0.6-2.2,0.8-3.3
			c0.2-1.1,0.1-2.1-0.3-3.2c-0.4-0.9-0.9-1.7-1.7-2.3c-0.8-0.6-1.6-1-2.3-1.7c-1.5-1.5-1.7-3.5-1.8-5.5c-0.2-2.7-0.1-5.3,0.1-8
			c0.1-1.3,0.1-2.5,0.1-3.7c0-0.6-0.1-1.1-0.1-1.7c0-0.4-0.1-0.9-0.1-1.4c0-0.4,0.1-0.9-0.1-1.3c-0.1-0.3-0.1-0.2-0.4-0.3
			c-0.4-0.1-0.8-0.1-1.1-0.1c-0.6-0.1-1.2-0.1-1.8-0.2c-1.4-0.1-2.8-0.3-4.1-0.4c-2.5-0.3-4.9-0.8-7.2-1.6c-5.2-1.6-10.1-4-15.2-5.9
			c-2.2-0.8-4.7-1.4-6.8-2.7c-1-0.6-1.5-1.3-1.3-2.4c0.2-1.2,0.7-2.3,1-3.5c1.5-5,2.4-10.1,3.4-15.2c0.8-4.4,1.6-8.8,2.3-13.2
			c1.3-7.6,2.7-15.2,4-22.8c0.8-4.4,1.5-8.7,2.3-13c0.2-0.9,0.3-1.8,0.5-2.7c0.1-0.2,0.3-1,0.3-1.2c-0.1-0.1-0.6-0.1-0.7-0.2
			c-0.3-0.1-0.5-0.2-0.8-0.3c-0.5-0.3-0.9-0.6-1.4-0.9c-1.6-1.3-3.4-2.7-4.7-4.5c-2.5-3.5-2.1-8.6-1.6-12.6
			C258.9,216.1,259.5,213.9,260.2,211.8z"/>
	</g>
	<g id="POLYLINE_24_" class="st3">
		<path d="M90.6,218.4c-0.3,4-0.4,8.2-0.6,12.2c-0.1,1.5-0.1,2.9-0.3,4.4c-0.1,1.3-0.3,2.7-1.8,3.1c-1.3,0.3-2.7,0.1-3.9-0.1
			c-1.6-0.3-3.3-0.7-4.9-1.3c-3.4-1.1-6.7-2.8-9.9-4.4c-2.5-1.3-4.9-2.7-7.3-4c-4.6-2.6-9.3-5.2-13.9-7.7c-2.7-1.5-5.4-3-8.1-4.5
			c-0.9-0.5-2.7-1.2-2.6-2.4c0-0.6,0.4-1.2,0.8-1.7c0.5-0.8,1-1.6,1.5-2.3c1.4-2.5,2.5-5.1,3.5-7.7c1.6-3.8,3.2-7.6,4.7-11.4
			c2-4.9,4-9.7,6-14.6c0.6-1.4,1.1-2.8,1.8-4.2c0.1-0.1,0.3-0.4,0.3-0.6c0-0.4-0.6-1.1-0.8-1.5c-1.8-3.6-3.7-7.2-5.5-10.8
			c-1.5-3-3.2-6.2-3.7-9.5c-0.3-1.8-0.6-3.5-0.9-5.2c-0.3-1.6-0.3-3.4-0.1-5c0.5-3.4,2.2-6.3,3.4-9.5c0.4-1.3,0.8-2.5,1-3.9
			c0.2-1.5,0.3-3.1,0.7-4.6c0.4-1.3,1.2-2.3,2-3.4c0.9-1.3,1.6-2.5,2.3-3.9c0.7-1.5,1.3-3.1,2.1-4.5s2.1-2.5,2.8-3.9
			c0.6-1.3,0.4-2.7,0.6-4.1C60,100,60.5,99,61.1,98c1.8-3.2,3.1-6.4,4.2-9.9c0.5-1.5,0.8-3.2,1.6-4.7c0.7-1.4,2.3-1.8,3.5-2.5
			c0.4-0.3,0.8-0.5,1.1-0.8c0.2-0.1,0.9-0.6,0.9-0.8c0-0.1-0.4-0.6-0.5-0.8c-0.2-0.3-0.3-0.6-0.4-0.9c-0.4-0.9-0.4-2.1-0.3-3.1
			c0.1-0.6,0.3-1.3,0.5-1.8c0.3-0.8,0.4-1.6,0.6-2.4c0.4-1.5,0.9-2.7,1.6-4c0.3-0.6,0.5-1.4,0.8-2c0.3-0.7,0.8-1.2,1.3-1.8
			c0.6-0.6,1.1-1.1,1.6-1.8c0.5-0.6,0.8-1.4,1.2-2c1.8-2.7,5.5-2.5,8.2-3.7c0.6-0.3,0.9-0.8,1.5-0.9c0.7-0.3,1.5-0.2,2.2-0.2
			c1.5,0.1,2.8,0.3,4.2-0.1c1.4-0.4,2.6-0.6,4-0.5c1.6,0.1,3.1,0.4,4.7,0.6c1.1,0.1,2.3,0,3.4-0.2c0.3-0.1,0.6-0.1,0.9-0.3
			c0.4-0.1,0.4-0.2,0.3-0.6c-0.1-0.8-0.2-1.6-0.2-2.5s0-1.8,0-2.6c0-0.4,0-0.9,0.1-1.3c0.1-0.6,0.1-0.7-0.1-1.2
			c-0.6-1.4-1-2.8-1.1-4.3c-0.1-1.7,0.1-3.4,0.3-5.1c0.1-1.6,0.1-3.3,0.3-4.9c0.4-2.8,1.3-6,3-8.3c0.8-1.1,1.8-1.5,2.9-2.1
			c1.1-0.7,1.8-2,2.7-2.9c1.8-2,4.2-2.8,6.8-2.4c1.8,0.3,3.6,0.6,5.5,0.7c1.5,0.1,2.9,0.2,4.2,1c1.3,0.9,2.5,2,3.8,2.9
			s2.7,1.6,3.9,2.7c2,1.8,3.6,4.5,4.1,7.1c0.5,2.7-0.7,5.1-1.2,7.6c-0.3,1.6-0.4,3.3-0.6,4.9c0,0.2-0.1,0.6-0.1,0.8
			c0.1,0.2,0,0,0.1,0.1c0.2,0.2,0.4,0.3,0.5,0.5c0.3,0.6,0.4,1.3,0.5,1.9c0.4,2.7-0.5,5.6-2,7.8c-0.4,0.6-1,1.3-1.8,1.6
			c-0.6,0.3-1.5,0.1-2,0.5c-0.9,0.7-1,2.7-1.2,3.7c1.5,0.3,2.9,0.5,4.4,0.6s2.8,0.1,4.3,0.3c1,0.2,2,0.4,2.8,1c1.1,0.6,2,1.5,3.2,2
			c1.3,0.5,2.7,0.8,4,1.3c1.2,0.5,2,1.3,2.9,2.2c0.9,0.9,1.8,1.6,3.1,2.1c1.4,0.6,2.8,1,3.8,2.2c1,1.1,1.6,2.6,2.4,3.8
			c0.6,0.9,1.5,1.6,2,2.7c0.8,1.6,0.9,3.6,0.8,5.3c-0.1,0.9-0.4,1.8-0.8,2.7c-0.5,1.3,0.1,2.1,0.7,3.2c0.4,0.9,0.7,1.8,0.4,2.7
			c-0.2,0.5-0.4,1.1-0.9,1.4c-0.5,0.4-1,0.4-1.5,1c-0.6,0.8-1,2-1.9,2.5c-0.2,0.1-0.4,0.2-0.7,0.3c-0.2,0-0.3,0-0.4,0
			c-0.3,0-0.2-0.1-0.3,0.2c-0.1,0.3,0,0.9-0.1,1.3c0,0.4,0,0.8,0,1.1c0,2.9,0.2,5.9,0.6,8.8c0.4,3,1.1,5.9,1.8,8.9
			c0.6,3,0.9,6.1,1.3,9.2c0.3,3,0.6,5.9,1.4,8.8c0.8,2.9,2.1,5.8,3.2,8.6c1,2.8,1.9,5.5,2.3,8.4c0.4,3,0.8,6.1,1.4,9.1
			c0.3,1.4,0.6,2.8,1,4.2c0.4,1.3,1,2.3,1.5,3.6c0.9,2.3,0.9,5,0.8,7.4c-0.1,0.6-0.1,1.2-0.3,1.8c-0.1,0.7,0.1,1.3,0.1,2
			c0.1,1.2-0.1,2.4-0.4,3.5c-0.6,2-1.6,4-3.1,5.6c-0.8,0.8-1.8,1.5-2.9,1.5c0.1,0,0.9,2.9,1.1,3.2c0.3,0.9,0.6,2,0.9,2.9
			c0.6,2,1.2,4.1,1.6,6.2c0.9,4.4,1.2,8.9,1.5,13.3c0.3,4.2,0.8,8.4,1.5,12.6c0.2,1.2,0.6,3.2-0.8,3.7c-1.6,0.6-3.9-0.1-5.5-0.4
			c-2.3-0.5-4.5-1.1-6.7-1.7c-2-0.5-4-0.9-6-1.5c-0.5-0.1-1.1-0.3-1.6-0.4c-0.1,3.2-0.4,6.4-0.8,9.7c-0.4,3-0.8,6-1.3,9
			c-0.6,4.2-1.2,8.4-1.8,12.6c-0.4,2.7-0.7,5.3-0.9,7.9c-0.1,1.5-0.2,3.1-0.1,4.6c0.1,1.5,0.3,2.8,0.2,4.3c-0.1,2.8-1.2,5.5-2,8.2
			c-0.4,1.4-0.8,2.8-0.9,4.3c-0.2,1.6-0.1,3.2-0.1,4.9c0,3-0.6,5.8-1.5,8.5c-1,3.2-1.8,6.4-2.3,9.9c-0.4,3.2-0.4,6.5-0.6,9.8
			c-0.1,3-0.3,6-0.9,9s-1.8,5.8-3.1,8.5c-0.7,1.4-1.6,2.8-1.3,4.4c0.2,1.3,0.6,2.5,0.9,3.7c0.8,2.3,2.2,5.2,1.1,7.6
			c-0.6,1.4-1.8,2.4-2.4,3.7c-0.5,1-0.4,2.1-0.4,3.2c0.1,1.3,0.3,2.8-0.2,4.1c-0.1,0.2-0.1,0.4-0.3,0.6c-0.1,0.1-0.3,0.4-0.3,0.4
			c0,0.2,0.6,0.6,0.8,0.7c0.5,0.4,0.9,0.9,1.4,1.4c1.8,2,2.7,4.5,4.6,6.4c1.5,1.5,3.2,2.5,5.2,2.8c1.5,0.3,3,0.3,4.5,0.5
			c1.1,0.1,2.1,0.4,3,1c0.9,0.7,1.5,1.8,1.7,3c0.4,1.8-0.6,3-2.1,3.6c-2.6,1-5.6,1-8.3,1.1c-3.2,0.1-6.3,0-9.5,0
			c-3.5,0-7.1-0.1-10.6,0c-3.2,0-6.4,0.2-9.6,0.1c-1.2,0-2.5,0-3.7-0.4c-1.3-0.4-1.5-1.5-1.6-2.7c-0.4-3-0.4-6.2-0.2-9.2
			c0.1-1.5,0.4-2.9,0.7-4.4c0.1-0.2,0.2-0.6,0.2-0.8c0-0.1-0.1-0.1-0.1-0.3c-0.1-0.3-0.3-0.4-0.4-0.7c-0.2-0.6-0.3-1.3-0.1-1.9
			c0.1-0.8,0.4-1.6,0.8-2.3c0.3-0.4,0.5-0.9,0.8-1.3c0.4-0.5,0.9-1.1,1.1-1.7c0.4-1.1-0.9-2.1-1.5-2.9c-0.7-1.1-1.2-2.3-1.6-3.5
			c-0.7-2.3-1.1-4.9-0.7-7.3c0.5-2.9,2.1-5.5,3-8.3c0.9-3,1.5-6.1,2-9.1c0.6-3.7,1.1-7.5,1.8-11.3c0.4-2.9,0.9-5.8,1.5-8.6
			c0.3-1.5,0.8-2.9,1.3-4.4c0.4-1.1,0.8-2.3,0.9-3.5c0.3-2.8-0.6-5.5-0.5-8.3c0.1-2.9,1.5-5.4,2.2-8.2c0.3-1.1,0.2-2-0.2-3
			c-0.4-1.1-0.8-2.1-0.9-3.3c-0.2-3,0.4-6,0.3-9c-0.2-3.3-0.7-6.6-1-9.9c-0.4-3.2-0.7-6.4-1.1-9.5c-0.7,3.2-1.3,6.3-2,9.5
			c-0.6,3-1.1,6.1-1.5,9.2c-0.4,3.2-0.8,6.3-1.3,9.5c-0.4,2.4-0.7,5.4-2.3,7.3c-0.8,1-1.9,1.7-2.5,2.8c-0.6,1.1-0.9,2.4-1.3,3.6
			s-0.7,2.5-1.3,3.6c-0.6,1.1-1.6,1.8-2.5,2.7c-1.6,1.8-1.8,4.7-2.4,7c-0.7,2.7-1.8,5.2-2.9,7.8c-1.4,3-2.9,5.9-4,9
			c-1,2.7-1.6,5.6-3,8.2c-1.4,2.7-3.4,5.1-5,7.6c-0.5,0.8-1.6,2.1-1.4,3.1c0.1,0.5,0.6,0.8,0.9,1.1c0.4,0.4,0.8,0.9,1.1,1.5
			c1.2,2.1,2.2,4.6,2.5,7c0.1,1.1,0,2.1-0.6,3.1c-0.8,1.2-1.8,2.1-2.7,3.3c-0.7,1-1.1,2.2-1.6,3.3c-0.2,0.4-0.4,0.8-0.6,1.2
			c-0.1,0.1-0.2,0.3-0.3,0.4c-0.1,0.2-0.5,0.4-0.6,0.6c-0.1,0.3,0,0.8,0,1.1c0.1,2.8,0.4,5.6,1.1,8.3c0.6,2.6,2.1,4.8,2.8,7.4
			c0.5,2,0.5,4.4-1.6,5.4c-2.1,1.1-5,1.1-7.3,1.1c-3,0.1-6.1,0-9.2-0.3c-1.1-0.1-2.4-0.3-3.2-1.3c-0.6-0.9-0.8-2-0.8-3.1
			c-0.2-2.8,0.2-5.7,0-8.5c-0.3-3.1-1.3-6.1-1.7-9.2c-0.2-1.5-0.3-3.1-0.1-4.7c0.1-0.7,0.1-1.5,0.2-2.1c0.1-0.4,0.1-0.8,0.1-1.1
			c0.1-0.3,0.2-0.8,0.2-1.1c-0.1-0.4-0.5-1-0.7-1.5s-0.4-1-0.5-1.5c-0.3-1-0.4-2-0.4-3c0.1-2.3,1.4-3.9,2.5-5.8
			c0.8-1.3,0.7-2.6,0.6-4c-0.1-1.1,0.1-2,0.4-3c0.9-2.8,2.2-5.6,3-8.4c0.8-2.6,1.3-5.2,1.9-7.9c0.8-3.8,1.6-7.6,2.4-11.4
			c0.6-2.8,1.3-5.6,2.1-8.3c0.9-2.9,1.9-5.8,3.1-8.7c1.2-2.7,2.6-5.3,4.4-7.6c0.8-1.1,2.1-1.9,2.8-3.2c0.5-1.1,0.7-2.3,0.9-3.4
			c0.4-2.6,0.1-5.4,0.9-7.9c0.4-1.1,0.9-2.1,0.9-3.3c0-1.4-0.3-2.7-0.3-4.1c-0.1-2.5,1-4.8,1.1-7.3c0.1-2.6-0.2-5.1-0.5-7.7
			c-0.5-3.9-0.9-7.8-1.5-11.8c-0.3-2.8-0.6-5.7-1.1-8.5C91.8,224.4,91.1,221.4,90.6,218.4z"/>
	</g>
</g>
<line class="st4" x1="0" y1="0" x2="26" y2="-11.5"/>
</svg>
