<?xml version="1.0" encoding="utf-8"?>
<!-- Generator: Adobe Illustrator 28.4.1, SVG Export Plug-In . SVG Version: 6.00 Build 0)  -->
<svg version="1.1" id="Layer_1" xmlns="http://www.w3.org/2000/svg" xmlns:xlink="http://www.w3.org/1999/xlink" x="0px" y="0px"
	 viewBox="0 0 750 750" style="enable-background:new 0 0 750 750;" xml:space="preserve">
<style type="text/css">
	.st0{fill:none;}
	.st1{fill:none;stroke:#000000;stroke-width:2.75;stroke-linecap:round;stroke-linejoin:round;stroke-miterlimit:10;}
	.st2{fill:none;stroke:#000000;stroke-width:3.5;stroke-linecap:round;stroke-linejoin:round;stroke-miterlimit:10;}
</style>
<g id="SELECT_00000106125544805038079590000008657367585336007834_">
	<g id="coat">
		<polygon class="st0" points="213,147.3 181.4,148.6 165.6,155.8 154.8,180.7 156.8,188.4 147.9,194.7 130.7,237.2 120.5,258.3 
			113,285.8 118.9,310.5 129.4,333.5 101.2,402.7 167.9,437.5 182.5,438.9 188.1,386.2 179.4,388.5 166.9,377.1 160,367.6 
			185.2,350 195.3,357.1 205.2,318.8 214.4,250.1 215.3,224.8 210.1,193.8 217,159.8 		"/>
		<polygon class="st0" points="258.6,155.9 276.5,157.7 300.1,171.8 309.3,183.5 312,193.1 312,207.8 304.6,214.9 304.2,232.8 
			313,280.8 320.6,306.3 327.2,340.6 317.4,327.9 309,326.1 308.8,334.3 302.2,335 303,346.1 308,358.6 318.6,363 327.2,429.7 
			294.6,424.3 291.6,378 285.9,361.1 291.1,358.6 289.3,336.4 285.9,323 280,267.6 270.5,216.7 261.8,189.2 264,182.8 257.1,163.7 
					"/>
	</g>
	<g id="scarf_00000031197814789027195180000016062762660159793809_">
		<polygon class="st0" points="257.1,163.7 264,182.8 261.8,189.2 254.4,198.1 238,198.2 220.4,192.7 212,186.2 217.8,162.3 
			223,172.7 230.8,176.5 241.1,175 252.1,166.1 255.3,160.8 		"/>
	</g>
	<g id="scarf">
		<polygon class="st0" points="531,185.6 525.2,190.9 511.6,196.4 503.9,206.6 504.3,218.2 508,237.6 507.2,245.4 518.2,263.4 
			525.4,270.3 542.9,276.1 559.7,274 579.3,261.2 593.8,238 588.4,228.4 592.2,212.9 593.8,202.7 566.9,185 563,195 552,204.1 
			542.1,201.2 		"/>
	</g>
	<g id="coat_00000163761010649773454020000002405761621832519835_">
		<polygon class="st0" points="486.3,222.4 474.8,230.1 469.7,268.3 465.8,293.3 455.2,345.8 448.7,394.7 451.8,398.1 472.1,398.1 
			472.4,387.6 482.6,354.5 481.6,293.9 485.3,297.2 491.3,316.5 495.6,305.4 500.5,293 500.5,261.2 507.2,245.4 516.9,263.3 
			524.1,431.8 523.5,572.8 520.9,575.6 470.1,564.5 443.5,552.7 464.3,437 471.5,436.6 476.2,427.9 472.6,400.1 471,398.4 
			451.2,398.6 447.6,394.1 455.3,343.5 465.6,293.1 469.5,268.1 470.3,257.1 474.6,228.8 487.2,221.4 486.3,231.6 472.9,262.6 
			471.2,260.3 475.8,230.2 		"/>
		<polygon class="st0" points="593.8,238 607.5,252.5 609.2,267.8 616.9,276.4 615.5,302.4 619,318.5 626.7,406.7 603.8,408.6 
			596.2,437.7 598.6,443.3 606.9,446.7 607.9,555 605.2,560.8 563.5,567.4 561.6,575.1 557.2,573 553.4,564.1 556.4,526.1 
			556.2,484.1 561.2,386.2 571.6,309.7 574.5,281.2 574.8,263.4 		"/>
	</g>
	<g id="pants_00000170274015285525122530000009302010042857351305_">
		<polygon class="st0" points="285.9,361.1 244.1,368.2 201,366.9 202.7,373.1 188.1,386.2 185.5,417 189.1,429.7 192.9,464.7 
			187.7,506.9 178.1,520.6 160.1,586.1 152.4,610.1 152.8,625.6 159.1,631.9 180.7,639.1 186.1,635.5 194.5,621.2 187.7,601.6 
			197.3,587.4 216.8,536.8 224.8,521.1 229.6,514.6 240.3,463.6 244.2,510.8 241,527.1 240.3,547.2 230.4,597.5 224.8,617.2 
			231.1,634.9 226.1,648.1 233.2,650.3 250.8,648.4 266,641.3 267.1,628.9 271.3,621.8 267.8,602.4 274.4,585.7 277.9,548.4 
			282.7,526.9 284.9,509.6 287.1,502.4 287.1,481.2 294.7,428.3 292.6,386.7 		"/>
	</g>
	<g id="pants_00000039842799633609732590000006297983267821763259_">
		<polygon class="st0" points="561.2,386.2 541.6,387.6 522.1,384.6 523.5,572.8 520.9,575.6 503.8,572.3 504.4,601.1 513,612.5 
			515.3,636.5 537.2,633.7 537.7,613.1 534.8,603.5 537.1,592.8 535.3,565.2 539.4,586.7 541.6,605.6 541,616.1 545.7,628 
			545.7,633.7 554.4,636.5 567,634.1 571.3,607 568.3,582.7 569.4,566 563.5,567.4 561.6,575.1 557.2,573 553.4,564.1 		"/>
	</g>
	<g id="shoes_00000173136077742825753060000009939644710673710743_">
		<polygon class="st0" points="567,634.1 554.4,636.5 545.7,633.7 539.4,665.6 536.7,656.3 537.2,633.7 515.3,636.5 512.5,673.3 
			534.6,674.3 538.7,670.3 544.6,674.3 564.8,674.3 567,654.6 566.1,636.5 		"/>
	</g>
	<g id="shoes_00000166634507994863776080000015602848770592582560_">
		<polygon class="st0" points="266,641.3 250.8,648.4 233.2,650.3 226.1,648.1 228,674.2 293.8,673.8 298.7,669.4 295.9,663.2 
			277.5,659 		"/>
		<polygon class="st0" points="180.7,639.1 159.1,631.9 152.8,625.6 156.6,673.2 180.2,674.9 190.3,671.1 183.7,641.2 		"/>
	</g>
</g>
<g id="AG-PEOPLE_00000057143213782451718070000012354128416771010474_">
	<g id="POLYLINE_683_">
		<path class="st1" d="M183.9,200c2.5,1.6,5,3.4,7.6,4.8c2.4,1.4,5.1,2.3,7.6,3.6c2.2,1.2,4.4,2.6,5.9,4.6c1.4,1.8,2.2,3.9,2.9,6
			c1.8,5.8,2.1,12.1,2.4,18.1c0.3,6.1,0.7,12.3,0.9,18.5c0.2,6.5,0.3,13.1-0.2,19.6c-0.1,0.7-0.1,1.5-0.2,2.2"/>
	</g>
	<g id="POLYLINE_682_">
		<path class="st1" d="M165.3,247.1c0.3,2.8,0.6,5.6,0.3,8.4c-0.3,2.9-0.9,5.8-1.5,8.7c-0.7,3.3-1.4,6.6-2.3,9.9
			c-0.9,3.3-1.9,6.5-2.9,9.8c-0.7,2.4-1.4,4.8-1.5,7.3c-0.2,2.6,0.2,5.2,0.7,7.8c1.1,5.7,3.8,11,5.7,16.6c1,3.1,1.9,6.3,3.2,9.3
			c1,2.3,2.4,4.3,4.1,6.2c4.2,4.6,9,8.8,12.4,14.1c0.9,1.4,3.1,4.1,1.3,5.4c-1.1,0.8-2.6,1.3-3.8,2c-1.2,0.6-2.4,1.2-3.5,1.9
			c-5.3,3.2-10.2,7-14.9,11.1c-1.3,1.1-2.6,2.3-3.9,3.5c-0.9,0.8-1.9,1.7-3.1,1.8c-2.3,0.2-4.2-2.5-5.5-4c-3.9-5-7-10.7-10.2-16.2
			c-3.2-5.6-6.3-11.4-9.3-17.1s-5.9-11.4-8.8-17.1c-2.7-5.4-5.9-10.9-6.9-16.9c-0.3-1.5-0.4-3-0.6-4.4c-0.2-1.5-0.6-3-0.9-4.5
			c-0.6-2.9-0.5-5.9,0.1-8.9c1-5.7,4.2-10.6,5.9-16.1c1.3-4.4,0.7-9.4,3-13.5c1.4-2.4,3.3-4.5,4.6-7c1.4-2.6,2.3-5.4,3.7-8
			c1.3-2.6,3.3-4.5,4.8-6.9c1.4-2.3,1-4.6,1.3-7.2c0.3-2.2,1.5-4.2,2.6-6.1c1.5-2.7,2.8-5.5,3.9-8.4c1.1-2.9,2.1-5.8,3-8.8
			c0.8-2.7,1.3-5.7,4-7.2c1-0.6,2.1-1,3.2-1.6c1.2-0.7,2.3-1.6,3.3-2.6"/>
	</g>
	<g id="POLYLINE_681_">
		<path class="st1" d="M160,367.6c3.3,5.5,7.8,10.4,11.8,15.4c1.4,1.8,2.9,3.6,5,4.7c2.2,1.1,4.6,0.9,6.9,0.3c3-0.9,5.8-2.4,8.4-4.1
			c2.6-1.7,5.2-3.5,7.4-5.7c1.6-1.6,3.2-3.5,3.2-5.9c0.1-2.8-1.7-5.5-3.2-7.7c-3.3-5.2-7.1-10-12.3-13.4c-0.6-0.4-1.3-0.8-2-1.2"/>
	</g>
	<g id="POLYLINE_680_">
		<path class="st1" d="M188.1,386.2c-1.4,7.1-2.2,14.2-2.7,21.4c-0.5,7.6-0.7,15.2-1.1,22.7c-0.1,1.8-0.2,3.6-0.4,5.4
			c-0.2,1.1-0.4,2.4-1.4,3.2c-2,1.5-5.6,0.8-7.9,0.3c-6.9-1.2-13.5-4.2-19.7-7.3c-5.5-2.8-10.9-5.9-16.3-8.9
			c-9.1-5-18.2-10.1-27.3-15.1c-1.9-1.1-3.9-2.1-5.8-3.2c-1.2-0.7-2.5-1.3-3.5-2.3c-0.9-0.9-0.8-1.9-0.3-3c0.7-1.5,1.8-2.8,2.6-4.2
			c0.9-1.5,1.7-3.1,2.5-4.7c1.2-2.5,2.3-5,3.3-7.5c3.2-7.7,6.3-15.3,9.5-23c3.5-8.3,6.9-16.7,10.4-25c0.2-0.5,0.4-1,0.6-1.5"/>
	</g>
	<g id="POLYLINE_679_">
		<path class="st1" d="M200.5,366.3c5.5,0.9,11,1.7,16.6,2.1s11.2,0.5,16.9,0.4c5.6-0.2,11.2-0.6,16.8-1.2
			c5.7-0.6,11.3-1.4,16.9-2.4c5.5-1,10.9-2.2,16.3-3.6c0.6-0.2,1.2-0.3,1.9-0.5"/>
	</g>
	<g id="POLYLINE_678_">
		<path class="st1" d="M212,186.2c2.5,2.3,5,4.5,7.9,6.2c2.6,1.5,5.5,2.6,8.4,3.5c6.3,1.9,13.2,3.2,19.8,3.3c2.1,0,4.3-0.2,6.3-1.1
			c1.9-0.9,3.4-2.4,4.6-4.1c1.8-2.4,3.3-5.2,4.3-8c0.8-2.1,1-4.2,0.3-6.3c-0.9-2.8-2.5-5.4-3.3-8.3c-0.6-2.2-1-4.2-2.2-6.2
			c-0.3-0.5-0.7-1-1-1.5"/>
	</g>
	<g id="POLYLINE_677_">
		<path class="st1" d="M213.3,136c-0.5,5.9,0.1,11.5,1.7,17.1c0.9,3.1,1.8,6.1,2.8,9.2c0.9,2.7,1.8,5.4,3.3,7.9
			c2.2,3.6,5.5,5.8,9.7,6.3s8.5-0.4,12.2-2.4c4.8-2.5,8.8-6.8,11.4-11.5c0.3-0.6,0.6-1.2,0.9-1.8"/>
	</g>
	<g id="POLYLINE_676_">
		<path class="st1" d="M230.1,176.3c0.9,1.7,2,3.2,3,4.8c0.9,1.4,1.6,2.8,2.5,4.2c1.4,2.1,3.7,3,6.1,3.1c2.8,0.1,4.9-1.2,6.5-3.4
			c2.1-2.9,4.6-5.6,6-8.9c1.4-3.3,2-7,2.6-10.5c0.7-4,1.5-8.1,2.3-12.1c0.2-1.1,0.5-2.8,1.5-3.5c0.6-0.4,1.4-0.4,2.1-0.5
			c1.1-0.2,2-0.8,2.8-1.6c1.9-2.1,3.2-4.9,3.9-7.6c0.4-1.6,0.6-3.3,0.4-4.9c-0.1-1.3-0.2-3-0.9-4.1c-1.7-2.7-5.2,2.1-5.9,3.5
			c-0.5,1.2-0.8,2.5-1.1,3.7c-0.2,1.2-0.4,3.8-1.7,4.5c-1.4,0.7-1.4-2.7-1.5-3.4c-0.3-1.8-0.8-3.6-1.3-5.4c-0.6-1.9-1.4-3.7-2.2-5.4
			c-0.6-1.3-1.3-2.8-1.1-4.2c0.3-3,4.8-4.9,3-8.3c-0.7-1.4-2.4-1.6-3.8-1.6c-1.8-0.1-3.6,0.1-5.3,0c-3.5-0.2-7-1-10.4-1.8
			c-3.6-0.9-7.3-2.4-11-2.7c-2.4-0.2-4.8,0.5-6.7,2.1c-2.2,1.8-3.2,4.3-3.6,7c-0.6,3.7-0.9,7.4-1.7,11c-0.4,2-0.9,3.9-1.3,5.9"/>
	</g>
	<g id="POLYLINE_675_">
		<path class="st1" d="M215.3,154.1c-2.9,2.6-5.6,5.4-8.3,8.2c-3,3.1-6.1,6.1-9.1,9.2c-0.9,0.9-1.8,1.9-1.5,3.3
			c0.4,1.8,2.2,3.2,3.3,4.7c0.9,1.3,1.6,3.1,0.7,4.5c-0.7,1.2-2.4,1.4-3.5,2c-1.5,0.7-2.1,1.8-2.7,3.2c-0.7,1.4-1.5,2-3.1,2.2
			c-1.4,0.2-2.6,0.3-3.8,1c-1.1,0.6-2.2,1.3-2.9,2.4c-0.8,1.2-0.7,2.3-0.5,3.7c0.3,1.7,0.1,3.3-0.1,5c-0.2,1.8,0,3.6-0.2,5.4
			c-0.1,1.6-1,2.6-2.5,3.2c-2.9,1.1-6.4-0.2-9.1-1.3c-1.9-0.8-3.1-2.2-4.4-3.7c-1.4-1.6-2.9-3.1-4.3-4.7c-1.1-1.2-2.7-2.2-3-3.9
			s-0.3-3.5-0.6-5.2c-0.6-3.3-4-5.1-4.8-8.3c-0.6-2.6,0.1-5,0.8-7.5c0.6-1.8,0.9-3.7,1.5-5.6c0.5-1.5,1.2-2.8,1.9-4.3
			c0.8-1.6,1.1-3.3,2.2-4.8c1-1.4,2.4-2.5,3.5-3.8c1.1-1.4,1.6-3.2,2.9-4.4c1.2-1.1,2.7-1.9,4.2-2.5c1.9-0.8,3.8-1.2,5.7-1.7
			c1.5-0.4,2.5-0.9,3.8-1.8c1.3-0.9,3.1-0.7,4.7-0.6c1.8,0.1,3.6,0.3,5.3,0c1.4-0.2,2.7-0.8,4.1-1c1.6-0.2,3.2-0.1,4.8,0
			c3.1,0.3,6.1,1.2,9.3,0.8c1.4-0.2,2.7-0.4,4.1-0.9"/>
	</g>
	<g id="POLYLINE_674_">
		<path class="st1" d="M217.6,161.5c-1.3,2.7-2.4,5.5-2.9,8.4c-0.5,3.2-0.6,6.5-1.1,9.7c-0.5,3.4-1.6,6.5-2.6,9.7
			c-0.7,2.2-1.1,4.4-0.9,6.8c0.2,2.8,1.1,5.5,1.9,8.2c0.9,3.1,1.8,6.3,2.4,9.5c1.1,6.3,1.5,12.7,1.3,19.1c-0.1,6.4-0.7,12.7-1.5,19
			c-0.8,7-1.7,13.9-2.6,20.9c-1,8.2-2,16.3-3,24.5c-0.7,5.6-1.5,11.3-2.5,16.9c-1.2,6.7-2.7,13.3-4.3,20c-1.5,6.4-3.2,12.8-5,19.1
			c-0.5,1.8-1,3.6-1.5,5.3"/>
	</g>
	<g id="POLYLINE_537_">
		<path class="st1" d="M213.6,134.9c-0.9-2-1.6-3.9-1.9-6.1c-0.3-2-0.2-4,0-6c0.4-5,0.3-10.1,1.5-15c0.9-3.6,2.1-8,4.9-10.6
			c1.2-1.2,2.9-1.7,4.2-2.7c1.5-1.2,2.5-3,3.8-4.4c2.4-2.6,5.6-4,9.2-3.8c2.6,0.2,5.1,0.9,7.6,1.1c2.3,0.2,4.7,0.1,6.9,0.7
			c2,0.6,3.6,2.1,5.1,3.4c1.9,1.6,3.9,2.8,5.9,4.1c3.6,2.3,6.4,5.2,8.2,9.1c1.4,3,2.1,6.1,1.5,9.3c-0.4,2.1-1.1,4.2-1.6,6.3
			c-0.5,2.1-0.7,4.1-0.9,6.2c-0.1,1.3-0.2,2.5-0.3,3.8"/>
	</g>
	<g id="POLYLINE_536_">
		<path class="st1" d="M258.3,157.7c5.9,4.2,11.7,8.5,17.5,12.9c5.8,4.5,11.6,9,17.4,13.6c2.5,2,5,4,7.4,6.1c1,0.9,2.3,1.8,3,3
			s-0.1,1.8-1.2,2.3c-2.8,1.2-6.2,1.4-8.6,3.4c-2,1.7-2.8,4.5-3.4,7c-1.6,6.6-2.2,13.5-2.6,20.2c-0.4,7-0.4,14,0,20.9
			s1.1,13.8,2.3,20.6c1.2,7.1,2.8,14.1,4.6,21c1.6,6.3,3.5,12.5,5.3,18.8c2.2,7.5,4.3,14.9,6.5,22.4c0.5,1.7,1,3.4,1.5,5.1"/>
	</g>
	<g id="POLYLINE_535_">
		<path class="st1" d="M258.7,155.8c2.3,0.4,4.6,0.8,7,0.9c2.3,0.1,4.5,0.1,6.8,0.5c1.6,0.3,3.2,0.7,4.6,1.6c1.7,1,3.2,2.3,5.1,3.1
			c2,0.8,4.2,1.2,6.3,2.1c1.9,0.8,3.2,2.1,4.7,3.6c1.4,1.4,2.9,2.4,4.8,3.2c2.3,0.9,4.5,1.7,6.1,3.6c1.5,1.8,2.4,4,3.8,6
			c1,1.5,2.4,2.6,3.2,4.3c1.3,2.5,1.5,5.7,1.2,8.4c-0.2,1.5-0.7,2.8-1.2,4.3c-0.8,2.1,0.3,3.3,1.2,5.1c0.7,1.4,1,2.7,0.5,4.2
			c-0.3,0.9-0.8,1.7-1.6,2.2c-0.9,0.5-1.6,0.7-2.2,1.6c-1,1.3-1.6,3.1-3.1,3.9c-1.7,0.9-3.5-0.1-4.9-1.1c-0.7-0.5-1.5-1.1-2.3-1.5
			c-0.9-0.4-1.9-0.6-2.8-1c-1.6-0.6-2.9-1.9-3.9-3.4c-0.5-0.7-0.9-1.5-1.2-2.3"/>
	</g>
	<g id="POLYLINE_534_">
		<path class="st1" d="M285.8,361.1c1.1,1.9,2.3,3.8,3.2,5.9c0.7,1.8,1.2,3.7,1.6,5.6c0.9,4.4,1.5,8.8,1.9,13.2
			c1,9.5,1.9,19.1,2.2,28.7c0.2,8.7-0.4,17.5-1.7,26.1c-1.5,10.9-3.1,21.8-4.6,32.7c-0.6,3.9-1,7.9-1.3,11.8
			c-0.2,2.2-0.2,4.4-0.2,6.5c0.1,2.2,0.3,4.3,0.4,6.4c0.1,4-1.3,7.8-2.4,11.6c-1.2,4-2.2,8-2.3,12.3c-0.1,4.5,0.1,8.9-1,13.3
			c-1.1,4.5-2.7,8.8-3.7,13.2c-2.1,9.1-1.8,18.4-2.3,27.7c-0.3,4.3-0.8,8.6-2.1,12.8c-1.4,4.4-3.5,8.5-5.4,12.7
			c-1.8,3.8,0.2,8,1.4,11.7c1,3.2,2.6,6.9,1.2,10.2c-0.9,2-2.5,3.6-3.6,5.4c-0.8,1.4-1,2.9-1,4.5c0.1,3.6,1.2,8.5-2.9,10.3
			c-1.7,0.7-3.5,1-5.1,1.7c-1.7,0.7-3.2,1.7-4.9,2.3c-4.1,1.4-8.6,2.1-12.9,2.3c-3.6,0.2-7.7,0.2-11-1.5s-3.1-5.2-1.9-8.2
			c0.5-1.3,1.2-2.5,2.1-3.6c1.2-1.6,2-2.6,0.8-4.5c-1.1-1.5-2.2-2.9-3-4.7c-0.8-1.7-1.4-3.6-1.8-5.4c-0.7-3.3-1.1-6.8-0.3-10.1
			c1-4.3,3.3-8.2,4.6-12.4c2.8-9.1,3.9-18.8,5.3-28.3c0.7-4.5,1.3-9,2.2-13.5c0.8-4.6,2.1-8.8,3.6-13.2c1.2-3.5,0.7-6.9,0.3-10.5
			c-0.5-4-0.4-7.8,0.7-11.6c0.7-2.1,1.5-4.2,2.2-6.3c0.4-1.5,0.8-3,0.4-4.5c-0.4-1.7-1.3-3.2-1.6-4.9c-0.3-1.7-0.2-3.5-0.1-5.3
			c0.3-4.5,0.6-8.9,0.1-13.4c-0.5-5-1.1-10.1-1.6-15.1c-0.5-4.3-0.9-8.7-1.5-13"/>
	</g>
	<g id="POLYLINE_533_">
		<path class="st1" d="M261.8,189.2c2,5.6,4.2,11.2,5.9,17c1.7,5.9,3.2,11.8,4.5,17.8s2.4,12,3.6,18.1c1,5.4,2,10.9,2.8,16.3
			c1,6.5,2,13.1,2.9,19.7c0.8,5.7,1.5,11.4,2.1,17.2c0.7,6.4,1.1,12.9,1.5,19.3c0.2,2.6,0.3,5.2,0.7,7.8c0.4,2.7,1.2,5.3,1.9,8
			c0.8,2.7,1.6,5.4,2,8.2c0.3,2.6,0,5.1,0.4,7.7c0.7,4.2,2.2,8.8-0.7,12.5c-0.9,1.2-2.2,1.9-3.6,2.3"/>
	</g>
	<g id="POLYLINE_532_">
		<path class="st1" d="M294.7,423.1c3.5,1,7.1,1.8,10.7,2.6c3.2,0.8,6.5,1.7,9.7,2.5c2.9,0.7,5.9,1.5,8.9,1.5c1.1,0,2.5-0.1,3.2-1.2
			c0.6-0.9,0.5-2.2,0.4-3.2c-0.3-3.1-1.1-6.2-1.5-9.4c-0.4-3-0.6-6.1-0.8-9.1c-0.6-7.3-0.9-14.7-2.2-21.9c-1.2-6.6-3.1-13-5.4-19.3
			c-0.3-0.9-0.6-1.8-0.9-2.6"/>
	</g>
	<g id="POLYLINE_531_">
		<path class="st1" d="M309.3,327.9c1.4-2.8,5.1-1.9,7.2-0.6c3,1.9,5.3,4.8,7.1,7.8c3.6,6,4.6,13,1.7,19.6c-1.2,2.7-3,5.6-5.5,7.3
			c-2.9,1.9-5.9,0.6-8.5-1.1c-2.9-1.9-4.6-4.5-5.9-7.7c-1.5-3.8-2.7-7.8-3.6-11.8c-0.4-1.6-0.7-3.2-0.3-4.8c0.4-1.6,1.7-3.2,3.5-2.8
			c1.1,0.3,3,2,3.8,0.5c0.7-1.3,0.1-3.2,0.2-4.6C309,329.1,309,328.5,309.3,327.9z"/>
	</g>
	<g id="POLYLINE_530_">
		<path class="st1" d="M309.3,327.9c-1.2-7.1-2.1-14.2-2.8-21.3c-0.7-7.6-1.3-15.3-1.9-22.9c-0.5-6.9-1-13.8-1.5-20.7
			c-0.5-7.6-1.1-15.2-1.5-22.8c-0.5-8.9-1-17.8-1.5-26.7c0-0.3,0-0.5,0-0.8"/>
	</g>
	<g id="POLYLINE_529_">
		<path class="st1" d="M303.5,214.6c-0.2,8.6,0.2,17.3,2.2,25.7c1,4.5,2.1,9,2.7,13.7c0.6,4.6,0.9,9.2,1.5,13.8
			c0.6,4.1,1.6,8.1,3.1,12c1.7,4.5,3.6,8.9,5.1,13.5c1.4,4.3,2,8.6,2.5,13c0.6,4.3,1.3,8.7,2.3,12.9c0.5,1.9,1,3.8,1.7,5.7
			c0.7,1.7,1.6,3.3,2.1,5.1c0.9,3.6,1,7.5,0.6,11.2c-0.1,0.9-0.2,1.7-0.4,2.6"/>
	</g>
	<g id="POLYLINE_528_">
		<path class="st1" d="M227.7,647.5c-1.2,5.1-1.7,10.1-1.6,15.4c0,2.6,0.1,5.2,0.5,7.8c0.3,2.2,0.8,3.7,3.1,4.2
			c2.2,0.5,4.5,0.4,6.7,0.4c3.1,0,6.1-0.1,9.2-0.2c4.8-0.1,9.6-0.1,14.4-0.1c6.3,0,12.6,0.1,18.9,0.1c4.9,0,10.2,0.1,14.9-1.3
			c2.2-0.6,4.6-1.8,4.9-4.4c0.2-2.1-0.8-4.3-2.2-5.8c-1.3-1.3-3-1.9-4.7-2.1c-2.5-0.4-5-0.4-7.4-0.9c-3.5-0.6-6.5-2.3-8.9-5
			c-3-3.2-4.6-7.5-7.7-10.6c-0.8-0.8-1.8-1.6-2.7-2.4"/>
	</g>
	<g id="POLYLINE_527_">
		<path class="st1" d="M258.4,412.6c-5.1,7.1-9.4,14.5-12.2,22.8c-2.9,8.5-5,17.2-6.9,25.9c-2,9.3-3.8,18.6-5.1,28
			c-0.6,4.7-1.1,9.4-1.8,14.1c-0.5,3.7-1.1,7.8-2.8,11.2c-0.9,1.8-2.3,2.9-3.7,4.3c-1.2,1.2-1.8,2.7-2.4,4.3
			c-1.2,3.5-1.7,7.8-4.3,10.7c-1.2,1.3-2.7,2.3-3.6,3.8c-0.8,1.3-1.2,2.8-1.5,4.3c-1,4.3-1.9,8.5-3.6,12.5c-1.8,4.5-4,8.8-6,13.2
			c-1.9,4-3.3,8.1-4.6,12.3c-1.2,3.8-2.7,7.3-4.8,10.6c-2.4,3.7-5.4,7.1-7.4,11c-0.3,0.6-0.7,1.4-0.6,2.1c0.1,0.8,0.7,1.2,1.2,1.7
			c1.4,1.4,2.3,3.2,3.1,4.9c1.4,3,2.8,6.3,2.9,9.6c0.2,4.2-3.2,6.3-5.3,9.5c-1.7,2.7-2.3,6.6-5,8.7c-2.9,2.2-7.6,0.4-10.6-0.6
			c-4.1-1.4-8.3-2.6-12.3-4.5c-3.6-1.7-6.4-4.2-8.2-7.8c-1.8-3.4-2.9-7.6-2.1-11.4c0.3-1.3,0.9-2.6,1.6-3.7c1.1-1.8,2.7-3.5,3.1-5.6
			c0.4-1.9,0-3.8,0.1-5.6c0-1.6,0.4-3,1-4.5c1.5-4.2,3.3-8.2,4.5-12.6c1.1-3.8,1.9-7.6,2.7-11.5c2.1-9.8,3.9-19.7,6.6-29.3
			c2.3-8.5,5.4-17,10-24.5c1-1.7,2.1-3.3,3.4-4.7c1.4-1.6,3.1-2.7,3.9-4.9c1.3-3.8,1.5-7.9,1.7-11.8c0.1-1.7,0.2-3.3,0.8-4.9
			s1.3-3.1,1.5-4.9c0.2-3.5-0.9-6.9-0.2-10.4c0.4-2,1-4,1.2-6c0.3-2,0.2-4.1,0.1-6.1c-0.2-3.6-0.6-7.3-1.1-10.9
			c-1.2-10.3-2.3-20.6-3.8-30.9c-0.7-4.4-1.5-8.7-2.3-13"/>
	</g>
	<g id="POLYLINE_526_">
		<path class="st1" d="M152.8,625.6c-0.6,4.2-1,8.5-0.7,12.8c0.4,4.4,1.8,8.7,2.5,13c0.7,4.2,0.4,8.4,0.3,12.6
			c-0.1,2.8-0.4,7,1.7,9.2c1.2,1.2,3.2,1.4,4.8,1.5c2.1,0.2,4.2,0.2,6.2,0.3c4.2,0.1,8.4,0.2,12.6-0.1c2.9-0.3,7-0.6,9-3.1
			c1.9-2.4,1-6.1,0.2-8.7c-0.6-1.8-1.5-3.5-2.3-5.2c-0.8-1.6-1.3-3.3-1.7-5.1c-0.9-3.8-1.5-7.7-1.7-11.6c0-1-0.1-2.1,0-3.1"/>
	</g>
	<g id="POLYLINE_525_">
		<path class="st1" d="M533.4,190.8c-2.6,2.2-2.6,5.7-0.9,8.4c0.8,1.3,1.7,2.5,2.3,4c0.6,1.7,1.1,3.2,2.8,4c2,1,4.3,1.3,6.5,1.6
			c1.6,0.2,3.3,0.5,4.9,0.2c2.2-0.4,4.3-1.3,6.4-2.1c1.1-0.4,2.3-0.7,3.4-1.1c1.2-0.4,2.1-1.2,3-2s1.7-1.6,2.8-2.3
			c0.8-0.5,1.4-1,1.8-1.9c0.4-1,0.5-2.3,0.2-3.4c-0.3-1.1-1.3-1.9-1.7-3c-0.1-0.3-0.2-0.6-0.2-0.9"/>
	</g>
	<g id="POLYLINE_296_">
		<path class="st1" d="M563.5,567.4c5.2-0.9,10.3-1.8,15.5-2.6c5.2-0.7,10.5-1.3,15.7-1.9c2.5-0.3,5-0.7,7.5-1.2
			c1.7-0.4,3.6-0.8,4.8-2.2c1.8-2.2,1.2-6,1.2-8.7c0-6.1-0.1-12.1-0.1-18.2c-0.1-7.7-0.1-15.4-0.2-23.1c0-4.2,0-8.5-0.1-12.7
			c0-3.5-0.1-6.9-0.2-10.4c-0.1-7.7-0.3-15.4-0.4-23.1c-0.1-5.5-0.2-11-0.3-16.6c0-0.3,0-0.6,0-0.8"/>
	</g>
	<g id="POLYLINE_295_">
		<path class="st1" d="M603.8,408.6c-1.2,3.6-2.1,7.3-3.2,11c-1,3.4-2.1,6.8-3,10.2c-0.8,3-1.7,6.4-1.3,9.5c0.4,2.9,2.6,4.6,5.3,5.5
			c4.4,1.5,9.5,1.9,13.6-0.7c4.4-2.9,7.3-8,8.9-12.9c2.2-6.7,2.2-13.9,1.7-20.9c-0.1-0.8-0.1-1.6-0.2-2.5"/>
	</g>
	<g id="POLYLINE_294_">
		<path class="st1" d="M546.2,632.9c-1.5,7.6-2.7,15.3-4,22.9c-0.6,3.6-1.4,7.1-1.5,10.7c-0.1,2.2-0.6,6.6,1.8,7.9
			c1.2,0.6,2.7,0.6,4,0.7c2.1,0,4.3,0,6.4,0c2.9,0,5.9,0.1,8.8-0.6c2.6-0.6,4.3-2.2,4.9-4.8c0.7-2.8,0.5-5.8,0.3-8.7
			c-0.5-7.5-1.4-14.9-1.6-22.5c0-1.1,0-2.1-0.1-3.2"/>
	</g>
	<g id="POLYLINE_293_">
		<path class="st1" d="M515.7,635.8c-1.6,7.3-2.5,14.6-2.9,22c-0.2,3.7-0.5,7.4-0.2,11.1c0.1,1.3,0.3,2.8,1.2,3.9
			c0.7,1,1.9,1.5,3.1,1.7c3.3,0.7,6.8,0.6,10.1,0.5c1.9,0,3.8-0.1,5.7-0.2c1.3-0.1,2.8-0.2,4-0.9c2.7-1.6,1.9-6.3,1.7-8.9
			c-0.3-4.2-0.8-8.4-1.2-12.6c-0.3-3.1-0.6-6.3-0.3-9.5c0.3-2.8,0.9-5.5,0.5-8.4c-0.1-0.7-0.3-1.4-0.4-2.2"/>
	</g>
	<g id="POLYLINE_292_">
		<path class="st1" d="M535.5,565.7c0.3,3.1,0.5,6.2,1.3,9.3c0.7,2.8,1.9,5.6,2.4,8.5c0.5,2.8,0.2,5.7,0.3,8.5c0.1,3,0.9,6,1.5,8.9
			c0.5,2.2,1,4.5,0.7,6.8c-0.3,2-1.2,3.9-1.2,6c0,0.8,0.2,1.6,0.5,2.4c0.5,1.4,1.8,2.4,2.2,3.8c0.3,1-0.1,2.1,0.3,3.2
			c0.4,1.1,1.1,2.1,1.7,3.2c1,2.1,0.5,4.1,0.9,6.3c0.4,2.3,2.7,3.1,4.7,3.5c2.6,0.5,5.4,0.5,8,0.4c2.4-0.1,5.2-0.3,7.5-1.3
			s2.4-3.5,2.5-5.7c0.1-2.6,0.1-4.9,1.1-7.3c0.9-2.5,0.3-5.1,0.5-7.7c0.2-2.5,1-4.9,0.9-7.5c-0.1-3.2-0.9-6.5-1.5-9.6
			c-0.5-2.8-0.9-5.6-1.1-8.4c-0.4-6-0.2-12.1,0.3-18c0.1-1.5,0.3-3,0.5-4.5"/>
	</g>
	<g id="POLYLINE_291_">
		<path class="st1" d="M503.8,572.1c0.3,5.1,0.3,10.1,0.2,15.2c-0.1,4.5-0.4,9.2,0.4,13.7c0.3,1.6,0.8,3.2,1.8,4.6
			c1.1,1.5,2.7,2.3,4.2,3.4c3.2,2.4,4.2,6.3,3.2,10.1c-0.5,2-1.5,4.1-0.4,6.1c0.9,1.7,1.7,2.9,1.8,4.9c0.1,1.6-0.5,4.4,0.8,5.7
			c1.3,1.2,3.8,0.8,5.3,0.7c4.5-0.3,9.3-0.9,13.7-2.4c1.9-0.6,2.7-1.5,2.9-3.5c0.2-2.3,0-4.6-0.1-6.9c-0.1-2-0.2-4,0.1-6
			c0.3-2.1,0.7-3.7-0.2-5.8c-0.8-1.8-1.8-3.4-2.2-5.3c-0.6-2.2,0.2-4.2,1.1-6.2c1.4-3.4,1.1-6.3,0.3-9.9c-0.9-4.6-1.5-9.2-1.4-13.9
			c0.1-4.9,0.5-9.8,0.5-14.7c0-4-0.1-8.1-0.2-12.1c-0.1-7.2-0.3-14.4-0.4-21.5c-0.1-3.2-0.2-6.5-0.2-9.8c0-6.6,0-13.1-0.1-19.7
			c0-2.9,0-5.9,0-8.8c0.1-6.4,0.1-12.8,0.2-19.2c0.1-6.4,0.1-12.9,0.2-19.3c0-1.1,0-2.1,0-3.2"/>
	</g>
	<g id="POLYLINE_290_">
		<path class="st1" d="M594.3,265.3c0,5.1,0.1,10.3,0,15.4c0,5.3-0.1,10.7-0.3,16s-0.3,10.6-0.2,15.9c0.1,5.4,0.4,10.7,0.8,16.1
			c0.3,4.7,0.8,9.5,1.4,14.2c0.8,6.1,1.5,12.1,2.3,18.2c0.6,5.1,1.1,10.2,1.6,15.3c0.5,5.1,0.9,10.3,1.2,15.5
			c0.2,2.8,0.3,5.6,0.5,8.5c0.1,2.2,0.1,4.6,0.5,6.8c0.3,2,3.2,1.3,4.7,1.2c2.5-0.1,4.9-0.1,7.4,0c2.6,0.1,5.2,0.2,7.7,0.1
			c1.5-0.1,3.8-0.2,4.9-1.4c0.6-0.8,0.6-1.9,0.6-2.8c0-1.2,0-2.5-0.1-3.7c-0.1-2.6-0.3-5.2-0.5-7.8c-0.5-5-1.2-10-1.9-15
			c-0.8-5.3-1.6-10.7-2.1-16c-0.3-2.6-0.3-5.2-0.4-7.8c-0.1-2.2-0.6-4.2-1.3-6.3c-0.6-1.8-1-3.6-1-5.4c-0.1-2.4,0.1-4.8,0.1-7.2
			c0-4.3-1.5-8.4-1.5-12.7c0-2.1,0.5-4.2,0.4-6.3c0-1.7-0.4-3.3-0.9-4.9c-1.1-3.8-2.8-7.6-2.6-11.6c0.1-2.4,0.5-4.8,0.7-7.2
			c0.2-2.8,0.3-5.5,0.4-8.3c0.1-2.5,0.2-4.9,0.4-7.4"/>
	</g>
	<g id="POLYLINE_289_">
		<path class="st1" d="M521.9,384.6c5.1,1.3,10.3,2.3,15.6,2.7c5.1,0.4,10.2,0.4,15.3,0c2.8-0.3,5.6-0.7,8.4-1.1"/>
	</g>
	<g id="POLYLINE_288_">
		<path class="st1" d="M453.7,397.8c-2.3,6.3-3.4,13.1-3.1,19.8c0.1,3,0.6,6.1,1.9,8.8c1.1,2.3,2.9,4.1,4.8,5.8
			c2.3,2.1,4.9,4.8,8.1,5.4c2.3,0.4,4.9-0.2,6.8-1.4c4.9-3.1,4.1-10.8,3.8-15.8c-0.5-7.3-1.8-14.5-3.7-21.5
			c-0.3-0.9-0.5-1.9-0.8-2.8"/>
	</g>
	<g id="POLYLINE_287_">
		<path class="st1" d="M471,265.7c-0.5-3.5-0.7-7-0.4-10.5c0.3-3.3,1.4-6.3,2.1-9.5c0.8-3.4,0.7-7,1-10.5c0.2-2.5,0.5-5.3,2.8-6.8
			c1.4-0.9,3-1.6,4.5-2.6c1.8-1.1,3.5-2.4,5.3-3.4"/>
	</g>
	<g id="POLYLINE_286_">
		<path class="st1" d="M481.6,293.9c0.4,9.5,0.5,18.9,0.7,28.4c0.2,8.7,0.6,17.4,0,26.1c-0.5,8.6-2.2,16.9-4.7,25.2
			c-1.3,4.4-2.8,8.8-4.1,13.2c-0.5,1.8-1,3.7-1.3,5.6c-0.2,1.5-0.1,3.8-1.7,4.7c-1.6,0.9-3.9,0.8-5.6,0.9c-2.1,0.1-4.3,0.1-6.4,0.1
			c-2.5,0-8.2,0.5-9.6-2.3c-0.7-1.3-0.3-3.1,0-4.5c0.4-2.2,0.9-4.3,1.2-6.5c0.6-4.4,0.9-8.8,1.5-13.2c0.6-4.3,2.1-8.4,3.1-12.6
			c0.9-4,0.6-8.1,0.5-12.2c0-1.7-0.1-3.4,0.3-5c0.4-1.4,1.4-2.5,1.9-3.9c1-2.9-0.5-6.2-0.2-9.2c0.2-2.1,1.5-3.5,2.6-5.2
			c0.8-1.1,1.2-2.4,1.4-3.7c0.4-3.3,0.2-6.4,1.3-9.5c1.2-3.5,2.7-6.5,2.9-10.2c0.2-4.1,0.3-8,1.2-12c0.5-2,1-3.9,1.6-5.8"/>
	</g>
	<g id="POLYLINE_285_">
		<path class="st1" d="M516.8,261.2c0.2,4.7,0.4,9.4,0.6,14.1c0.5,11,0.9,22,1.4,33c0.5,12.5,1,25.1,1.6,37.6
			c0.4,9.6,0.8,19.2,1.2,28.8c0.2,3.8,0.3,7.6,0.4,11.3c0.3,10.6,0.6,21.2,0.8,31.9c0.2,8.1,0.2,16.2,0.3,24.3
			c0.1,6.1,0.2,12.1,0.2,18.2c0,9.4,0,18.8,0.1,28.3c0,12.3,0,24.5,0.1,36.8c0,5.6-0.1,11.2,0,16.7c0.1,5.3,0.3,10.6,0.4,15.9
			c0.1,3.6,0.3,7.2,0.1,10.8c-0.1,2.9-0.4,7.2-4.3,6.7c-1.9-0.2-3.8-1-5.7-1.5c-1.8-0.5-3.7-0.9-5.6-1.2c-8-1.5-16.3-1.6-24.3-3.6
			c-8.4-2.1-16.3-5.9-24.3-9.1c-3.6-1.4-7.3-2.6-10.9-4c-1.5-0.6-3.2-1.2-4.3-2.3c-1.3-1.2-1.1-2.6-0.6-4.2
			c1.1-3.9,2.3-7.7,3.2-11.6c1-4.2,1.8-8.5,2.6-12.7c1.2-6.4,2.4-12.9,3.5-19.3c2-11.5,4-22.9,6-34.4c1.2-6.9,2.3-13.8,3.6-20.7
			c0.8-4.5,1.7-8.9,2.5-13.4"/>
	</g>
	<g id="POLYLINE_284_">
		<path class="st1" d="M600.3,246.5c-1.7,5.2-3.5,10.4-5,15.6c-1.5,4.9-2.7,9.8-3.8,14.8c-1.1,5.2-2,10.4-2.8,15.7
			c-0.7,4.9-1.4,9.9-1.9,14.9c-0.6,5.8-1.3,11.5-1.8,17.3c-0.2,1.9-0.3,3.9-0.5,5.8c-0.4,5.2-0.9,10.4-1.3,15.6
			c-0.6,7.3-1.2,14.6-1.8,21.8c-0.7,8-1.3,16-2,24c-0.6,7.5-1.2,15-1.9,22.5c-0.5,5.6-0.9,11.3-1.4,16.9c-0.2,2.5-0.4,5.1-0.6,7.6
			c-0.4,4.4-0.8,8.9-1.3,13.3c-0.5,4.5-0.9,9-1.5,13.5c-0.8,6.5-1.6,13.1-2.4,19.6c-0.8,6.3-1.5,12.7-2.3,19
			c-0.5,4.2-0.9,8.4-1.3,12.6c-0.5,5.3-0.9,10.7-1.2,16c-0.3,5.8-0.6,11.6-0.8,17.4c-0.2,5-0.4,10.1-1,15.1c-0.2,1.9-0.6,11-4.2,9.4
			c-3-1.3-4.3-5.6-4.7-8.5c-0.7-4.6-0.4-9.4,0-14c0.5-5.8,1-11.5,1.3-17.3c0.2-4.9,0.3-9.9,0.3-14.8c0-6.2-0.1-12.4-0.2-18.7
			c-0.1-4.5-0.1-9-0.1-13.5c0.1-5.3,0.1-10.6,0.3-15.9c0.2-5.6,0.4-11.2,0.7-16.8c0.3-5.3,0.6-10.6,0.9-15.8c0.3-6,0.7-12,1-18.1
			c0.3-4.6,0.6-9.3,0.9-13.9c0.4-6,0.7-12,1.1-18c0.4-5.2,0.8-10.4,1.3-15.6c0.5-5.3,1.2-10.7,1.8-16c0.5-3.9,1.1-7.8,1.7-11.7
			c1.1-7.2,2.3-14.3,3.4-21.5c0.7-4.7,1.5-9.3,2.2-14c0.8-5.3,1.6-10.7,2.1-16.1c0.5-5.1,0.9-10.2,1-15.3c0.2-5.3,0.2-10.6,0.3-16"
			/>
	</g>
	<g id="POLYLINE_283_">
		<path class="st1" d="M503.3,212.3c2.2,3.6,4.9,6.9,7.8,10c3,3.1,6.1,6.1,9.8,8.4c7.5,4.7,16.8,6.5,25.4,8.1
			c4.8,0.9,9.7,2,14.6,1.8"/>
	</g>
	<g id="POLYLINE_282_">
		<path class="st1" d="M589.4,220.9c-1.3,1.4-2.4,2.8-3.3,4.5c-1.1,2-2,4.1-2.9,6.2c-1.7,3.6-4.1,6.7-6.6,9.8c-2.4,3.1-4.9,7-8.4,9
			c-3.2,1.9-7.3,1.8-10.9,1.8c-5.1,0.1-10.1,0.2-15.2,0.3"/>
	</g>
	<g id="POLYLINE_281_">
		<path class="st1" d="M507.2,243.5c1.9,3.9,4.1,7.7,6.2,11.5c1.7,3.1,3.2,6.5,5.5,9.3c4.5,5.5,11.7,8.8,18.4,10.5
			c7.3,1.9,15.2,1.8,22.4-0.8c7.5-2.7,13.6-8.1,18.7-14.1c5.2-6.1,9.7-12.9,13-20.2c0.4-0.9,0.8-1.9,1.2-2.8"/>
	</g>
	<g id="POLYLINE_280_">
		<path class="st1" d="M531,185.6c-1.7,2.1-3.3,4.2-5.8,5.3c-2.8,1.3-5.8,2-8.6,3c-5.7,2.1-10.5,5.9-12.4,11.9
			c-1.9,5.7-0.2,11.6,1.3,17.2c1.5,5.4,2.8,10.8,2.4,16.4c-0.5,6.3-2.9,11.9-5.4,17.6c-1.1,2.5-2,5-2.4,7.6
			c-0.5,3.1-0.4,6.3-0.2,9.4c0.4,6.3,1.4,12.7,0.6,19c-0.8,5.7-4.6,10.1-6,15.5c-0.4,1.6-0.7,3.2-1,4.8c-0.2,1-0.2,2.9-0.9,3.7
			c-1.2,1.4-3.4-4.9-3.6-5.6c-1-2.8-1.6-5.6-2-8.6c-0.4-2.4-0.8-4.8-2.5-6.6c-1.8-1.9-3.7-3.3-4.4-5.9c-0.7-2.4-0.7-5-0.8-7.4
			c0-1.7,0-3.4-0.1-5.1c-0.1-1.2,0-2.7-0.6-3.8c-1.3-2.4-4.7,2.1-5.5,3.1c-1,1.2-1.9,2.5-2.9,3.7c-0.5,0.6-1.5,1.9-2.1,0.8
			c-0.4-0.9-0.3-2.2-0.3-3.1c0.1-1.4,0.2-2.8,0.5-4.2c0.5-2.7,1.3-5.4,2.5-7.9c1.3-2.7,3-5.1,4.4-7.7c2.8-5.5,3.2-11.8,5.2-17.7
			c0.9-2.5,2.2-4.4,3.8-6.5c1.5-1.9,2.5-3.8,2.6-6.3c0.4-6.3-1.8-12.6-1.2-18.9c0.2-2.1,0.6-4.1,1.6-6c1.2-2.4,3.2-4.1,5-6.1
			c3.6-4,4.1-9.4,5-14.5c0.5-2.7,1-5.4,2.2-7.9c1.1-2.5,2.9-4.5,4.9-6.3c2.3-2,4.6-3.9,6.5-6.4c1.8-2.3,3.2-4.8,4.5-7.3
			c2.9-5.7,5.5-11.6,9.4-16.8c3.2-4.3,7.6-8.4,12.7-10.4c2.5-1,5-0.9,7.7-1.1s5.3-1,8-0.9c5.6,0.1,11.2,3.5,15.6,6.8
			c4.6,3.5,8,7.8,10.5,13c2.9,5.9,4.9,12.1,7.8,18c2.8,5.8,6.5,11.1,9.6,16.7c1.5,2.8,2.9,5.6,3.8,8.6c0.8,2.6,1.1,5.3,1.3,8
			c0.4,5.8,0.3,11.5,2.6,16.9c2.4,5.5,6.1,10.4,8.6,15.8c2.5,5.5,4.2,11.6,3.4,17.7c-0.4,3.1-1.2,6-1.6,9.1c-0.3,2.9,0,5.8,0.6,8.7
			c0.7,3,1.7,6,2.4,9c0.1,0.6,0.7,2.6-0.3,2.5c-0.9,0-2-1.3-2.7-1.8c-3.3-3-6.3-6.4-6.7-11.1c-0.2-2.8,0.3-5.5,0.2-8.3
			c-0.1-1.4-0.4-2.6-1.3-3.7c-0.9-1.1-2.2-1.9-3.3-2.7c-4.7-3.4-8.5-8.2-11.3-13.2c-2.4-4.3-3.7-8.9-2.8-13.7c0.5-3.1,1.7-6,2.7-9
			c0.7-2.1,1.3-4.3,1.2-6.5c-0.3-5.9-6.2-8.5-10.7-11.1c-5.5-3.1-10.6-6.8-15.8-10.3"/>
	</g>
	<g id="POLYLINE_279_">
		<path class="st1" d="M551,145.5c-1.9-1.3-3.9-2-6.2-1.4c-2.1,0.6-4,2.1-5.6,3.6c-3.9,3.7-6.2,8.6-7.6,13.8
			c-1.6,5.7-2.5,11.9-1.9,17.9c0.6,5.5,2.8,10.5,6,15c2.7,3.7,6.2,7.5,10.6,9.1c3.7,1.3,7.3,0.3,10.4-1.9c4.3-3,7.7-7.8,9.2-12.8
			c1.4-4.7,0.2-9.2-0.8-13.9c-1.3-6.2-1.7-12.6-2.6-18.9c-0.3-2.1-0.5-4.6-2.4-5.7c-1.9-1.1-4.2-1.4-6.1-2.5
			C552.9,147,552,146.2,551,145.5z"/>
	</g>
</g>
<g id="AG-OUTLINE_00000049924757187553461070000011728675346841709241_">
	<g id="POLYLINE_00000168075108779659254970000013897940110826490033_">
		<path class="st2" d="M453.7,397.8c-2-0.2-4.6-0.7-5-3.1s0.6-5.1,1-7.4c1.2-6.2,1.2-12.5,2.4-18.7c0.6-3.1,1.7-6,2.4-9
			c0.7-2.7,0.9-5.4,0.9-8.2c0-2.9-0.4-5.9,0-8.8c0.1-0.9,0.3-1.7,0.8-2.5c0.5-1,1.2-1.9,1.5-3c0.5-2.3-0.3-4.8-0.4-7.1
			c-0.1-2.7,1.1-4.4,2.6-6.6c2.5-3.7,1.2-8.5,2.5-12.7c0.8-2.4,2-4.7,2.6-7.2c0.6-2.6,0.5-5.4,0.6-8.1c0.1-2.8,0.6-5.5,1.2-8.2
			c0.3-1.3,0.7-2.7,1.1-4c0.1-0.4,0.3-0.9,0.2-1.2c0-0.1-0.3-0.3-0.3-0.5c-0.2-0.5-0.2-1.1-0.2-1.6c-0.1-2.5,0.3-5.2,0.9-7.6
			c0.3-1.3,0.7-2.7,1.2-4c0.3-0.7,0.6-1.4,0.9-2.1c0.4-0.8,0.3-1.2,0.2-2.1c-0.3-2.9-0.5-5.8-0.3-8.7c0.2-2.8,1-5.5,1.7-8.3
			c0.7-2.5,1-5.1,1.2-7.7c0.2-2.8,0.1-5.8,1-8.4c0.8-2.3,2.7-3.1,4.7-4.2c1.4-0.7,2.6-1.6,3.9-2.5c0.6-0.4,1.2-0.8,1.8-1.2
			c0.4-0.2,1.4-0.6,1.5-1c0.1-0.2-0.1-0.7-0.1-0.9c-0.1-0.6-0.1-1.1-0.2-1.7c-0.1-1-0.3-2-0.4-3c-0.2-1.3-0.3-2.7-0.3-4
			c-0.1-2.5,0.1-4.9,0.8-7.3c0.6-2,1.6-3.8,3.1-5.4c1.6-1.7,3.4-3.3,4.6-5.3c1.3-2.3,1.9-4.9,2.3-7.5c0.6-2.9,1-5.9,1.7-8.8
			c0.6-2.4,1.5-4.6,3-6.5c1.8-2.4,4.1-4.2,6.3-6.1c4.3-3.9,6.9-8.9,9.4-14c2.8-5.6,5.5-11.2,9.6-16c3.2-3.7,7.5-7.3,12.2-8.7
			c2.5-0.7,5.1-0.5,7.6-0.8c2.7-0.3,5.3-1,8-0.7c5.4,0.6,10.8,3.9,15,7.2c4.4,3.5,7.6,7.8,10,12.8c2.8,5.7,4.7,11.7,7.4,17.4
			c2.7,5.6,6.2,10.8,9.3,16.2c2.9,5,5,10.2,5.5,16c0.5,5.7,0.1,11.5,2.1,16.9s5.5,10.1,8.1,15.2c2.7,5.2,4.7,11,4.7,16.8
			c0,5.9-2.4,11.5-1.8,17.4c0.3,2.7,1,5.3,1.7,7.9c0.4,1.6,0.9,3.2,1.3,4.8c0.1,0.5,0.3,1.1,0.2,1.6c0,0.5-0.3,0.5-0.5,0.8
			c-0.3,0.5-0.1,1.7-0.2,2.3c0,0.5-0.1,1.1-0.1,1.6c-0.1,2.2-0.2,4.5-0.3,6.7c-0.1,2.9-0.3,5.8-0.6,8.7c-0.3,2.2-0.6,4.4-0.2,6.7
			c0.4,2.7,1.5,5.3,2.3,7.9c0.6,2,1.1,4.1,1.1,6.2c-0.1,2.4-0.6,4.8-0.3,7.3c0.3,2.8,1.1,5.6,1.3,8.4c0.3,2.9-0.1,5.9-0.1,8.8
			c0,2.4,0.5,4.6,1.2,6.9c0.9,2.7,1.1,5.2,1.2,8c0.2,6.1,1.1,12.1,2,18.1c0.9,6.6,1.9,13.1,2.5,19.8c0.3,3,0.5,6,0.5,9.1
			c0,1.2,0.2,2.8-0.5,3.8c-0.3,0.4-0.9,0.6-1.1,1c-0.2,0.5,0.1,1.8,0.1,2.3c0.4,6,0.5,12.2-0.9,18.1c-1.2,4.8-3.4,9.4-6.7,13
			c-3,3.3-6.9,4.9-11.4,4.5c0,4,0.1,8,0.1,12c0.1,9.4,0.2,18.7,0.3,28.1c0.1,10.8,0.3,21.6,0.4,32.4c0.1,8.3,0.2,16.6,0.3,24.9
			c0,4,0.3,8.1,0.1,12c-0.1,2.6-0.9,4.8-3.5,5.8c-3,1.1-6.5,1.4-9.6,1.8c-7,0.9-13.9,1.6-20.9,2.7c-1.2,0.2-2.5,0.4-3.7,0.6
			c-0.1,0-0.7,0-0.8,0.1c-0.2,0.2-0.1,1.1-0.2,1.4c-0.2,1.7-0.3,3.4-0.5,5.1c-0.3,3.4-0.4,6.8-0.4,10.2c0,3.3,0.2,6.6,0.6,9.8
			c0.5,3.6,1.3,7.2,1.8,10.8c0.5,3.1,0.2,5.8-0.4,8.8c-0.5,2.7,0.2,5.5-0.3,8.2c-0.3,1.3-0.9,2.4-1.2,3.7c-0.3,1.6-0.2,3.3-0.3,4.9
			c0,1.2-0.1,2.6-0.5,3.8c-0.2,0.5-0.5,1-1,1.4c-0.3,0.3-0.7,0.5-1,0.6c-0.2,0.1-0.8,0.2-1,0.3c-0.4,0.4,0,2.3,0,2.9
			c0,0.8,0,1.6,0.1,2.4c0.1,1.8,0.1,3.6,0.2,5.4c0.2,3.8,0.6,7.6,1,11.4c0.3,3,0.6,6,0.5,9c-0.1,2.2-0.4,4.9-2.1,6.5
			c-1.7,1.5-4.2,1.8-6.4,2c-3.7,0.3-7.4,0.1-11.1,0.1c-2.5,0-5.7,0.1-6.4-2.9c-0.6-2.7-0.4-5.7-0.1-8.4c0.3-3,1-6,1.5-9
			c0.7-4.5,1.5-9,2.2-13.5c0.2-1.2,0.4-2.4,0.6-3.6c0.2-1.2,0.5-2.4,0.7-3.6c0.2-0.8,0.1-1.3,0.1-2.1c-0.1-1.2,0-2.4-0.1-3.6
			c-0.2-1.2-0.7-2.2-1.2-3.3c-0.7-1.2-1.4-2.3-1.4-3.8s-0.4-2.3-1.3-3.5c-1.3-1.9-1.8-4-1.3-6.3c0.5-2.5,1.3-4.6,1-7.2
			c-0.4-3.4-1.5-6.7-1.9-10c-0.4-3.2,0-6.4-0.3-9.5c-0.3-3.3-1.6-6.3-2.5-9.4c-0.9-3.2-1.2-6.5-1.5-9.8c-0.2,4.3-0.5,8.6-0.4,12.9
			c0,4,0.6,7.9,1.4,11.9c0.6,2.8,1.2,5.6,0.3,8.4c-0.5,1.7-1.5,3.3-1.8,5.1c-0.2,1.4,0.1,2.8,0.6,4.1c0.7,1.8,1.9,3.5,2.3,5.5
			c0.4,1.6-0.3,3.2-0.4,4.8c-0.4,3.9,0.3,7.7,0.1,11.6c0,0.6-0.1,1.3-0.2,1.9c-0.1,0.4-0.3,0.6-0.3,1s0.2,0.9,0.3,1.3
			c0.2,1.3,0.4,2.6,0.3,3.9c-0.1,1.8-0.5,3.6-0.7,5.4c-0.2,1.8-0.1,3.7,0,5.5c0.3,4.6,0.9,9.2,1.3,13.7c0.2,1.7,0.3,3.5,0.4,5.2
			c0.1,1.7,0.1,3.8-0.9,5.3c-0.8,1.2-2.4,1.6-3.8,1.7c-1.9,0.2-3.9,0.2-5.8,0.3c-3.7,0.1-7.8,0.3-11.4-0.6c-1.5-0.4-2.8-1.1-3.4-2.6
			c-0.6-1.3-0.7-2.8-0.7-4.2c-0.2-4.2,0.2-8.4,0.4-12.5c0.3-4,0.6-8,1.2-12c0.3-2.1,0.8-4.2,1.2-6.3c0.1-0.4,0.3-0.9,0.2-1.2
			s-0.4-0.5-0.6-0.8c-0.3-0.8-0.3-1.6-0.3-2.4c0-1.7,0.2-3.4-0.5-5c-0.6-1.5-1.8-2.7-1.8-4.4c0.1-1.8,0.9-3.5,1.2-5.2s0.1-3.4-0.5-5
			c-0.6-1.4-1.5-2.7-2.7-3.7s-2.6-1.6-3.7-2.7c-2.3-2.3-2.7-5.6-2.9-8.7c-0.3-4.2-0.1-8.4,0.1-12.6c0.1-2,0.1-3.9,0.1-5.9
			c0-0.9-0.1-1.8-0.1-2.7c0-0.7-0.1-1.5-0.1-2.2c0-0.6,0.1-1.5-0.1-2c-0.1-0.4-0.2-0.3-0.7-0.4c-0.6-0.1-1.2-0.2-1.8-0.2
			c-0.9-0.1-1.9-0.2-2.8-0.3c-2.2-0.2-4.4-0.5-6.5-0.7c-3.9-0.5-7.7-1.3-11.4-2.5c-8.2-2.6-16-6.3-24-9.3c-3.5-1.3-7.4-2.2-10.7-4.2
			c-1.6-0.9-2.4-2-2.1-3.8c0.3-1.9,1.1-3.7,1.6-5.5c2.4-7.9,3.8-16,5.3-24.1c1.3-7,2.5-13.9,3.7-20.9c2.1-12,4.2-24.1,6.3-36.1
			c1.2-6.9,2.4-13.7,3.7-20.5c0.3-1.4,0.5-2.9,0.8-4.3c0.1-0.3,0.5-1.6,0.4-1.9c-0.1-0.1-0.9-0.2-1.1-0.3c-0.4-0.1-0.8-0.3-1.2-0.5
			c-0.8-0.4-1.5-0.9-2.2-1.5c-2.6-2.1-5.4-4.3-7.4-7.1c-3.9-5.6-3.4-13.6-2.5-20C451.6,404.7,452.5,401.2,453.7,397.8z"/>
	</g>
	<g id="POLYLINE_24_">
		<path class="st2" d="M185.3,408.2c-0.4,6.4-0.6,12.9-0.9,19.3c-0.1,2.3-0.2,4.6-0.4,6.9c-0.2,2.1-0.4,4.3-2.8,4.9
			c-2,0.5-4.2,0.2-6.1-0.1c-2.6-0.4-5.2-1.1-7.7-2c-5.4-1.8-10.6-4.4-15.7-7c-3.9-2.1-7.8-4.2-11.6-6.4c-7.3-4.1-14.7-8.2-22-12.2
			c-4.3-2.4-8.5-4.7-12.8-7.1c-1.4-0.8-4.2-1.9-4.1-3.8c0-1,0.7-1.9,1.2-2.7c0.8-1.2,1.6-2.5,2.3-3.7c2.2-3.9,3.9-8,5.6-12.2
			c2.5-6,5-12,7.5-18c3.2-7.7,6.4-15.4,9.5-23.1c0.9-2.2,1.8-4.5,2.8-6.7c0.1-0.2,0.4-0.7,0.4-1c0-0.7-0.9-1.8-1.2-2.4
			c-2.9-5.7-5.9-11.4-8.7-17.1c-2.4-4.8-5-9.8-5.8-15.1c-0.4-2.8-0.9-5.5-1.4-8.2c-0.5-2.6-0.5-5.3-0.1-7.9c0.8-5.4,3.5-10,5.3-15
			c0.7-2,1.3-4,1.6-6.1c0.3-2.4,0.4-4.9,1.1-7.3c0.6-2,1.9-3.7,3.1-5.4c1.4-2,2.6-4,3.6-6.2c1.1-2.4,2-4.9,3.3-7.1
			c1.3-2.2,3.3-3.9,4.5-6.2c1-2,0.6-4.3,0.9-6.5c0.2-1.8,1.1-3.4,2-5c2.8-5.1,4.9-10.2,6.7-15.7c0.8-2.4,1.3-5.1,2.5-7.4
			c1.1-2.2,3.7-2.8,5.6-4c0.6-0.4,1.2-0.8,1.7-1.2c0.3-0.2,1.5-1,1.5-1.3c0-0.2-0.7-1-0.8-1.2c-0.3-0.4-0.5-0.9-0.7-1.4
			c-0.6-1.5-0.6-3.3-0.4-4.9c0.1-1,0.5-2,0.8-2.9c0.4-1.2,0.7-2.5,1-3.8c0.6-2.3,1.4-4.3,2.5-6.4c0.5-1,0.8-2.2,1.3-3.2
			c0.5-1.1,1.2-1.9,2-2.8c0.9-0.9,1.8-1.8,2.6-2.8s1.2-2.2,1.9-3.2c2.9-4.2,8.7-4,12.9-5.8c0.9-0.4,1.5-1.2,2.3-1.5
			c1.1-0.4,2.4-0.3,3.5-0.3c2.3,0.1,4.5,0.4,6.7-0.2c2.2-0.6,4.1-1,6.4-0.8c2.5,0.1,4.9,0.7,7.4,1c1.8,0.2,3.6,0,5.4-0.3
			c0.5-0.1,1-0.2,1.5-0.4c0.7-0.2,0.6-0.3,0.5-1c-0.2-1.3-0.3-2.6-0.3-3.9c0-1.4,0-2.8,0-4.1c0-0.7,0-1.4,0.1-2.1
			c0.1-0.9,0.2-1.1-0.1-1.9c-0.9-2.2-1.6-4.4-1.7-6.8c-0.1-2.7,0.2-5.4,0.4-8.1c0.2-2.6,0.1-5.2,0.5-7.8c0.7-4.4,2-9.5,4.7-13.2
			c1.2-1.7,2.9-2.3,4.6-3.4c1.8-1.1,2.8-3.1,4.2-4.6c2.9-3.2,6.6-4.4,10.8-3.8c2.9,0.4,5.7,1,8.7,1.1c2.3,0.1,4.6,0.3,6.6,1.6
			c2.1,1.4,3.9,3.2,6,4.6c2.1,1.4,4.3,2.5,6.2,4.2c3.2,2.8,5.7,7.1,6.5,11.3c0.8,4.2-1.1,8-1.9,12c-0.5,2.6-0.7,5.2-0.9,7.7
			c0,0.3-0.2,0.9-0.1,1.2s0,0,0.2,0.2c0.3,0.3,0.6,0.4,0.8,0.8c0.5,0.9,0.6,2,0.8,3c0.6,4.3-0.8,8.8-3.2,12.4
			c-0.7,1-1.6,2.1-2.8,2.6c-1,0.4-2.3,0.2-3.1,0.8c-1.5,1.1-1.6,4.2-1.9,5.8c2.3,0.4,4.6,0.8,7,0.9c2.3,0.1,4.5,0.1,6.8,0.5
			c1.6,0.3,3.1,0.7,4.5,1.6c1.7,1,3.2,2.4,5.1,3.1c2,0.8,4.2,1.2,6.3,2.1c1.9,0.8,3.2,2.1,4.6,3.5c1.4,1.5,2.9,2.5,4.9,3.3
			c2.2,0.9,4.4,1.6,6,3.5c1.6,1.8,2.5,4.1,3.8,6c1,1.5,2.4,2.6,3.2,4.3c1.3,2.5,1.5,5.7,1.2,8.4c-0.2,1.5-0.7,2.8-1.2,4.2
			c-0.8,2.1,0.2,3.3,1.1,5.1c0.7,1.4,1.1,2.8,0.6,4.3c-0.3,0.8-0.7,1.7-1.5,2.2c-0.8,0.6-1.6,0.7-2.3,1.6c-1,1.3-1.6,3.1-3,4
			c-0.3,0.2-0.7,0.3-1.1,0.4c-0.3,0-0.5,0-0.7,0c-0.5,0-0.3-0.2-0.5,0.3s0,1.5-0.1,2c0,0.6,0,1.2,0,1.7c0,4.6,0.3,9.3,0.9,13.9
			c0.6,4.8,1.8,9.4,2.8,14.1c1,4.8,1.5,9.6,2,14.5c0.5,4.7,0.9,9.3,2.2,13.9c1.3,4.6,3.3,9.1,5,13.6c1.6,4.4,3,8.7,3.6,13.3
			c0.7,4.8,1.3,9.6,2.2,14.4c0.5,2.2,0.9,4.5,1.6,6.6c0.6,2,1.6,3.7,2.4,5.7c1.4,3.6,1.5,7.9,1.2,11.7c-0.1,1-0.2,1.9-0.4,2.9
			c-0.2,1.1,0.1,2.1,0.1,3.2c0.1,1.9-0.2,3.8-0.7,5.6c-0.9,3.2-2.6,6.4-4.9,8.8c-1.2,1.2-2.8,2.3-4.6,2.3c0.2,0,1.5,4.6,1.7,5
			c0.5,1.5,1,3.1,1.5,4.6c1,3.2,1.9,6.5,2.6,9.8c1.4,6.9,1.9,14,2.4,21c0.5,6.7,1.2,13.3,2.4,20c0.3,1.9,1,5-1.3,5.9
			c-2.6,1-6.1-0.1-8.7-0.6c-3.6-0.8-7.1-1.8-10.6-2.7c-3.2-0.8-6.4-1.4-9.5-2.3c-0.8-0.2-1.7-0.4-2.5-0.7
			c-0.2,5.1-0.7,10.2-1.3,15.3c-0.6,4.8-1.3,9.5-2,14.3c-0.9,6.6-1.9,13.3-2.8,19.9c-0.6,4.2-1.1,8.4-1.4,12.5
			c-0.2,2.4-0.3,4.9-0.1,7.3c0.1,2.3,0.4,4.5,0.3,6.8c-0.2,4.4-1.9,8.7-3.1,12.9c-0.6,2.2-1.2,4.5-1.4,6.8c-0.3,2.6-0.2,5.1-0.2,7.7
			c0,4.7-1,9.1-2.4,13.5c-1.6,5.1-2.9,10.2-3.6,15.6c-0.6,5.1-0.7,10.3-0.9,15.5c-0.2,4.8-0.4,9.5-1.4,14.2s-2.9,9.1-4.9,13.4
			c-1.1,2.2-2.5,4.4-2.1,6.9c0.3,2,0.9,3.9,1.5,5.8c1.2,3.6,3.5,8.3,1.8,12.1c-1,2.2-2.8,3.8-3.8,5.9c-0.8,1.6-0.7,3.3-0.6,5
			c0.1,2.1,0.4,4.4-0.3,6.5c-0.1,0.3-0.2,0.6-0.4,0.9c-0.1,0.1-0.5,0.6-0.5,0.7c0,0.3,1,0.9,1.2,1.1c0.8,0.7,1.5,1.4,2.2,2.2
			c2.8,3.1,4.3,7.1,7.3,10.1c2.3,2.3,5,3.9,8.2,4.5c2.3,0.5,4.7,0.5,7.1,0.8c1.7,0.2,3.4,0.6,4.8,1.6c1.4,1.1,2.4,2.9,2.7,4.7
			c0.6,2.8-0.9,4.7-3.4,5.7c-4.1,1.6-8.8,1.6-13.2,1.7c-5,0.1-10,0-15,0c-5.6,0-11.2-0.1-16.8,0c-5.1,0-10.2,0.3-15.2,0.2
			c-1.9,0-4,0-5.8-0.6c-2-0.6-2.3-2.4-2.5-4.3c-0.6-4.8-0.6-9.8-0.3-14.6c0.2-2.3,0.6-4.6,1.1-6.9c0.1-0.3,0.3-0.9,0.3-1.2
			c0-0.2-0.1-0.2-0.2-0.4c-0.2-0.4-0.5-0.7-0.6-1.1c-0.3-0.9-0.4-2-0.2-3c0.2-1.3,0.6-2.5,1.2-3.7c0.4-0.7,0.8-1.5,1.3-2.1
			c0.6-0.8,1.5-1.7,1.8-2.7c0.6-1.7-1.5-3.4-2.3-4.6c-1.1-1.7-1.9-3.6-2.5-5.5c-1.1-3.7-1.7-7.8-1.1-11.6c0.8-4.6,3.3-8.7,4.7-13.2
			c1.5-4.7,2.4-9.6,3.2-14.4c1-5.9,1.8-11.9,2.8-17.9c0.7-4.6,1.4-9.1,2.4-13.6c0.5-2.4,1.2-4.6,2-6.9c0.6-1.8,1.3-3.6,1.5-5.5
			c0.4-4.4-1-8.7-0.8-13.1c0.2-4.6,2.4-8.6,3.5-13c0.4-1.7,0.3-3.2-0.3-4.8c-0.7-1.7-1.3-3.4-1.4-5.2c-0.3-4.8,0.7-9.5,0.4-14.3
			c-0.3-5.2-1.1-10.5-1.6-15.7c-0.6-5-1.1-10.1-1.7-15.1c-1.1,5-2.1,10-3.1,15.1c-0.9,4.8-1.7,9.7-2.3,14.5c-0.7,5-1.2,10-2,15
			c-0.6,3.8-1.1,8.5-3.7,11.6c-1.3,1.6-3,2.7-4,4.4c-1,1.8-1.5,3.8-2,5.7c-0.6,1.9-1.1,4-2.1,5.7c-1,1.8-2.6,2.8-3.9,4.3
			c-2.6,2.8-2.9,7.5-3.8,11c-1.1,4.3-2.8,8.3-4.6,12.3c-2.2,4.7-4.6,9.4-6.4,14.3c-1.6,4.3-2.6,8.8-4.7,13c-2.2,4.3-5.3,8-7.9,12
			c-0.8,1.2-2.5,3.3-2.2,4.9c0.2,0.8,0.9,1.3,1.5,1.8c0.7,0.7,1.2,1.5,1.7,2.4c1.9,3.3,3.5,7.3,4,11.1c0.2,1.7,0,3.4-0.9,4.9
			c-1.2,1.9-2.9,3.3-4.2,5.2c-1.1,1.6-1.7,3.5-2.6,5.2c-0.3,0.7-0.6,1.3-1,1.9c-0.1,0.2-0.3,0.4-0.4,0.6c-0.2,0.3-0.8,0.7-1,1
			c-0.2,0.4,0,1.3,0,1.8c0.1,4.4,0.7,8.9,1.7,13.2c1,4.1,3.4,7.6,4.4,11.7c0.8,3.2,0.8,6.9-2.6,8.6c-3.4,1.7-7.9,1.7-11.6,1.8
			c-4.8,0.1-9.7,0-14.5-0.4c-1.8-0.2-3.8-0.4-5-2c-1-1.4-1.2-3.2-1.3-4.9c-0.3-4.5,0.3-9,0-13.5c-0.4-4.9-2.1-9.6-2.7-14.5
			c-0.3-2.4-0.4-4.9-0.2-7.4c0.1-1.1,0.2-2.3,0.3-3.4c0.1-0.6,0.1-1.2,0.2-1.7c0.1-0.5,0.3-1.3,0.3-1.8c-0.1-0.7-0.8-1.6-1.1-2.3
			c-0.3-0.8-0.6-1.6-0.8-2.4c-0.4-1.6-0.6-3.2-0.6-4.8c0.1-3.6,2.2-6.1,4-9.1c1.2-2.1,1.1-4.1,1-6.4c-0.1-1.7,0.1-3.2,0.6-4.8
			c1.4-4.5,3.5-8.8,4.8-13.3c1.2-4.1,2.1-8.3,3-12.5c1.3-6,2.5-12,3.8-18c0.9-4.4,2.1-8.8,3.3-13.1c1.4-4.6,3-9.2,4.9-13.7
			c1.9-4.2,4.1-8.4,7-12c1.3-1.7,3.4-3,4.4-5c0.8-1.7,1.1-3.6,1.4-5.4c0.6-4.1,0.1-8.6,1.5-12.5c0.6-1.7,1.4-3.3,1.4-5.2
			c0-2.2-0.5-4.3-0.5-6.5c-0.1-3.9,1.6-7.6,1.7-11.5c0.2-4.1-0.3-8.1-0.8-12.2c-0.8-6.2-1.5-12.4-2.3-18.7c-0.5-4.5-1-9-1.7-13.4
			C187.2,417.7,186.2,413,185.3,408.2z"/>
	</g>
</g>
</svg>
