<?xml version="1.0" encoding="utf-8"?>
<!-- Generator: Adobe Illustrator 28.4.1, SVG Export Plug-In . SVG Version: 6.00 Build 0)  -->
<svg class="cloth_part" version="1.1" id="Layer_1" xmlns="http://www.w3.org/2000/svg" xmlns:xlink="http://www.w3.org/1999/xlink" x="0px" y="0px"
	 viewBox="0 0 750 750" style="enable-background:new 0 0 750 750;" xml:space="preserve">
<style type="text/css">
	.st0{fill:none;}
	.st1{fill:none;stroke:#5A4813;stroke-width:2.25;stroke-linecap:round;stroke-linejoin:round;stroke-miterlimit:10;}
    .st2{fill:none;stroke:#5A4813;stroke-width:3;stroke-linecap:round;stroke-linejoin:round;stroke-miterlimit:10;}
</style>
<g id="SELECT">
	<g name="swimsuit">
		<path class="st0" d="M208.4,366.7c-3.6,16-2.2,71.4,1.5,73.9c57.2,1.9,107.6-0.2,107.6-0.2l-1-72.2l-54.6,5.7
			C261.9,373.9,229.5,370.8,208.4,366.7z"/>
	</g>
	<g name="swimsuit">
		<path class="st0" d="M455.8,267.8c7.6,0,15.8,4.5,15.8,4.5l11.7,11.4l7.9-9.7c0,0,8.6-7.5,18.1-6.2c9.5,1.3,16.2,7.2,16.2,7.2
			l1.3,12.5l-7.8,9.7c0,0-4.4,4.5-14.8,3.5c-10.4-1-22.3-6.4-22.3-6.4l-14.6,6.1c0,0-8.1,0.1-16.1-1.9s-8.9-8.1-8.9-8.1
			s-2.1-5.2-1.9-11.2c0.1-6,7.6-10.1,7.6-10.1S448.2,267.8,455.8,267.8z"/>
		<path class="st0" d="M438.7,369l-2.6,6.5l11.9,7l23.6,18.9c0,0,9.2,17,11.5,15.6c2.3-1.4,7-8.4,7-8.4s11-11.4,19.2-19.5
			s20.9-12.3,20.9-12.3s1.9-8.3-3.6-7.5s-36,5.6-36,5.6l-27-1.3L438.7,369z"/>
	</g>
</g>
<g id="AG-HUMANS">
	<g id="POLYLINE_118_">
		<path class="st1" d="M524,273.2c-4.8-3.4-10.4-5-16.3-4.9c-6.5,0.1-12.8,2.3-17.7,6.6c-2.8,2.5-5.1,5.5-6.8,8.8
			c-3.5-5.5-8.7-10.2-14.5-13.1c-6-3-12.8-3.8-19.2-1.5c-2.4,0.8-4.8,2.1-6.5,4c-1.3,1.5-2,3.4-2.4,5.3c-0.4,1.6-0.2,3.3-0.1,4.9
			s0.4,3.2,0.8,4.8c0.6,2.1,1.6,4.1,3.1,5.8c3.6,4.2,8.8,5.6,14,6.5c7,1.2,13.8-0.4,20-3.9c0.8-0.5,1.6-0.9,2.4-1.5
			c0.3-0.2,0.7-0.5,1-0.7c0.2-0.2,0.9-0.9,1.2-0.9c0.2,0,0.9,0.7,1.1,0.8c0.3,0.2,0.6,0.5,1,0.7c0.6,0.4,1.1,0.8,1.7,1.1
			c2.8,1.6,6.1,2.6,9.2,3.3c5.9,1.4,12.5,1.9,18.3-0.1c4.6-1.5,8.8-4.6,10.9-9c1.1-2.3,1.5-4.9,1.6-7.5c0-2.5-0.1-5.6-1.3-7.9
			C525.2,274.3,524.7,273.7,524,273.2z"/>
	</g>
	<g id="POLYLINE_117_">
		<path class="st1" d="M436.3,376.2c-1.7,5.1-3,10.4-3.7,15.7c-0.7,5.5-0.8,11-0.5,16.5c0.3,5.6,1.1,11.2,1.9,16.8
			c0.9,5.7,1.9,11.3,3.1,17c0.8,4.1,1.7,8.1,2.6,12.1c1.6,7.5,3.3,15,4.9,22.5c1.5,6.7,2.9,13.4,4.4,20.1c0.6,2.8,1.5,5.7,1,8.6
			c-1.2,5.7-2.3,11.4-3.1,17.1c-0.8,5.5-1.5,11-1.6,16.6c-0.1,5.4,0.5,10.9,1.5,16.2c1,5,2.2,9.9,3.6,14.7c2,6.9,4,13.7,6,20.6
			c1.4,4.9,2.8,9.7,4.1,14.7c1.5,5.6,2.8,11.2,4,16.9c1.1,5.3,2,10.7,2.5,16.1c0.2,2.6,0.7,5.3,0.6,7.9c0,0.6-0.1,1-0.5,1.4
			c-0.5,0.5-1,0.7-1.1,1.4c-0.3,1.1,0,2.5,0.4,3.6c0.3,0.7,0.5,1.1,0.3,1.8c-0.5,1.9-1.8,3.7-2.8,5.3c-1.5,2.3-3.3,4.5-5.4,6.4
			c-1.9,1.6-4,2.9-5.8,4.7c-1,1-1.9,2.6-0.6,3.8c0.6,0.5,1.2,0.5,1.9,0.6c0.8,0.1,1.3,0.8,2,1.1c1.1,0.5,2.2-0.5,3.3,0.1
			c0.5,0.3,0.8,0.6,1.4,0.8s1.3,0.2,1.9,0.2c2.6,0,5.1-0.2,7.6-0.1c2.4,0.1,4.7,0.3,7.1-0.2c0.8-0.2,1.8-0.4,2.4-1
			c0.6-0.7,0.5-1.8,0.5-2.7c0.1-3,0.1-6,0.3-9c0.2-2.6,0.4-5.2,0.8-7.9c0.3-2.5,1-5.2,0.8-7.7s-0.7-5-0.9-7.4
			c-0.3-2.9-0.5-5.8-0.7-8.8c-0.4-5.9-0.7-11.8-0.9-17.8c-0.2-5.3-0.2-10.6-0.1-15.8c0.1-6.1,0.3-12.2,0.5-18.3
			c0.2-5.6,0.4-11.2,0.5-16.8c0.1-5.7-0.1-11.4-0.6-17.1c-0.5-5.7-1.4-11.3-2-16.9c-0.3-2.4-0.5-4.9-0.4-7.4
			c0.2-2.3,0.8-4.5,1.3-6.8c1-5.5,1.4-11.1,1.7-16.6c0.2-4.3,0.4-8.6,0.5-12.9c0.2-7.3,0.4-14.6,0.6-21.9c0.2-7.1,0.4-14.3,0.6-21.4
			c0.1-4.2,0.3-8.5,0.4-12.7c0.1-3.7,0.3-7.4,0.4-11c0-0.7-0.1-1.5,0.1-2.2"/>
	</g>
	<g id="POLYLINE_116_">
		<path class="st1" d="M443.2,292.2c0.9,4.8,1.7,9.6,2.5,14.4c0.9,5.6,1.8,11.1,2.6,16.7c0.6,4.9,1.3,9.9,0.8,14.8
			c-0.4,4.9-2,9.6-3.7,14.2c-1.9,5.3-4.1,10.6-6.2,15.8c-0.1,0.2-0.2,0.5-0.3,0.7"/>
	</g>
	<g id="POLYLINE_115_">
		<path class="st1" d="M439.4,368.8c1.7,0,3.5,0.5,5.1,0.9c2.8,0.6,5.7,1.3,8.5,1.9c4.8,1,9.6,2,14.4,2.6c4.9,0.6,9.8,0.9,14.7,0.9
			c5.1,0,10.3-0.2,15.4-0.6c5.2-0.4,10.5-1.1,15.7-1.9c2.4-0.4,4.8-0.8,7.1-1.4c2.1-0.5,4.1-1.3,6.1-2c0.8-0.2,1.5-0.4,1.9,0.4
			c0.3,0.4,0.4,1,0.5,1.4c0.3,1.1,0.6,2.1,1,3.2c0.2,0.6,0.6,1.5,0.4,2.2c-0.1,0.3-0.3,0.6-0.6,0.7c-1.4,0.9-3.3,1.2-4.8,1.9
			c-4.4,1.8-8.3,4.5-12.1,7.3c-3.9,2.9-7.7,6-11.3,9.3c-3.6,3.3-7,6.7-9.9,10.6c-1.5,2.1-2.8,4.3-4.1,6.5c-0.7,1.2-1.4,2.5-2.5,3.4
			c-1.6,1.3-3.5,0.5-4.6-1c-1.2-1.7-1.9-3.6-2.8-5.4c-1.1-2.1-2.3-4-3.8-5.8c-3-3.8-6.7-7.1-10.4-10.3c-3.7-3.2-7.7-6.2-11.8-8.9
			c-4.1-2.7-8.3-4.9-12.7-6.8c-1.1-0.5-2.8-1.1-2.9-2.6c-0.1-1.3,0.6-2.8,1.2-3.9c0.3-0.8,0.7-2.1,1.5-2.6
			C438.9,368.9,439.2,368.8,439.4,368.8z"/>
	</g>
	<g id="POLYLINE_114_">
		<path class="st1" d="M527.8,369.1c-1.8-5.3-3.8-10.4-5.8-15.6c-1.7-4.4-3.4-9-4.1-13.7c-0.7-4.8-0.3-9.7,0.3-14.5
			c0.7-5.4,1.7-10.8,2.7-16.1c1-5.5,2.1-11,3.2-16.4c0-0.2,0.1-0.5,0.1-0.7"/>
	</g>
	<g id="POLYLINE_113_">
		<path class="st1" d="M483.5,417c0.1,0.4,0.1,0.8,0.1,1.2c0.1,1.4,0.2,2.9,0.3,4.3c0.1,2.2,0.3,4.3,0.4,6.5
			c0.3,7.7,0.6,15.3,0.9,23c0.2,4.6,0.4,9.1,0.7,13.7c0.3,6.1,0.7,12.2,0.9,18.3c0.2,5.7-0.3,11.3-0.2,16.9
			c0.1,5.5,1.5,10.9,2.1,16.3c0.5,5.3,0,10.4-0.5,15.7c-0.7,5.9-1.3,11.7-1.6,17.6c-0.2,4.6-0.2,9.2-0.1,13.8
			c0.2,7.9,0.4,15.8,0.5,23.7c0.1,5.1,0.2,10.1,0.2,15.2c0,5.5-0.1,11.1-0.2,16.6c-0.2,5.5-0.5,11-1,16.5c-0.3,3.5-0.6,7-0.8,10.6
			c-0.1,1.5-0.3,3.2,0,4.7c1,4.8,0.6,9.8,0.9,14.7c0.1,2.6,0.2,5.3,0.7,7.8c0.2,1,0.5,2,1.3,2.7c0.9,0.7,2.1,0.9,3.2,1
			c1.2,0.1,2.3-0.1,3.5-0.1c0.6,0,1.2,0.1,1.8,0.1c1.3,0,2.5-0.8,3.9-0.7c0.7,0,1.1,0.5,1.8,0.7c1.2,0.3,2.6-0.4,3.7-0.6
			c1.7-0.3,3.5,0,5.1-0.3c1.3-0.3,2.8-1.1,3.7-2c0.3-0.3,0.5-0.6,0.6-1c0.4-3.1-2.7-4.1-4.7-5.5c-3.8-2.6-7.2-6.1-9-10.4
			c-0.6-1.3-1.1-2.8-1.1-4.2c0-1,0.5-1.3,0.9-2.1c0.1-0.2,0.1-0.3,0.1-0.5s-0.2-0.5-0.3-0.7c-0.3-0.5-0.6-1.1-0.8-1.7
			c-0.5-1.5-0.3-3.2-0.7-4.7c-0.3-1-0.3-1.8-0.2-3c0.6-5.3,1.8-10.5,2.9-15.7c1.4-6.4,2.8-12.8,4.2-19.2c1.2-5.3,2.6-10.6,4-15.8
			c1.5-5.5,3.1-11,4.7-16.4c1.7-5.7,3.4-11.3,4.8-17c1.3-5.2,2.1-10.5,1.9-15.9c-0.2-5.5-1.1-10.9-1.9-16.3c-0.9-6-1.9-12-3-18
			c-0.3-1.7-0.7-3.4-0.4-5.1c0.6-2.7,1.5-5.3,2.2-8c1.6-6,2.9-12,4.3-18c1-4.4,2-8.7,3-13.1c1.7-7.7,3.4-15.4,5.1-23.1
			c1-4.5,2-9.1,2.7-13.7c0.8-5.4,1.2-10.8,1.3-16.3c0-5.6-0.4-11.2-1.3-16.7c-0.9-5.4-2.2-10.6-3.7-15.9"/>
	</g>
	<g id="POLYLINE_112_">
		<path class="st1" d="M478.8,412.2C478.8,412.3,478.8,412.3,478.8,412.2"/>
	</g>
	<g id="POLYLINE_84_">
		<path class="st1" d="M316.2,368c-0.7-4.1-1.5-8.1-2.7-12c-1.2-4.1-2.8-8.1-4.2-12.1c-1.2-3.3-2.2-6.7-2.5-10.2
			c-0.3-3.8,0.3-7.5,0.8-11.3c0.3-1.9,0.6-3.8,0.7-5.8s0-3.9,0.1-5.9c0.1-4,0.5-8,0.9-11.9c0.8-7.4,1.8-14.9,2.9-22.3
			c1.5-10.3,3-20.6,4.5-30.9c0-0.3,0.1-0.5,0.1-0.8"/>
	</g>
	<g id="POLYLINE_83_">
		<path class="st1" d="M209.5,366.9c6.7,1.5,13.5,2.8,20.3,3.9c6.7,1.1,13.5,2,20.3,2.6c6.7,0.6,13.4,0.7,20,0.4
			c6.5-0.4,13-1.1,19.5-2c7.1-1,14.2-2.2,21.3-3.5c1.5-0.3,5.2-1.5,5.9,0.8c0.3,1,0.3,2.1,0.3,3.2c0.1,1.4,0.1,2.7,0.2,4.1
			c0.1,3.3,0.2,6.5,0.3,9.8c0.3,7.9,0.5,15.7,0.8,23.6c0.2,6.7,0.3,13.4,0.2,20.1c0,3.1,0.1,6.4-0.5,9.4c-0.1,0.5-0.2,1-0.7,1.3
			c-0.3,0.2-0.7,0.2-1.1,0.2c-1.2,0.1-2.5,0-3.7,0c-3.6,0-7.2-0.1-10.8-0.1c-6.9,0.1-13.8,0.2-20.7,0.6c-3.7,0.2-7.4,0.4-11.2,0.5
			c-1.2,0-2.4,0-3.7-0.1c-1.5-0.1-3.1,0.1-4.6,0.1c-6.9,0.1-13.9-0.4-20.8-0.5c-7.6-0.1-15.1,0.1-22.7,0.1c-2.4,0-4.8,0.2-7.1-0.2
			c-0.5-0.1-0.9-0.2-1.2-0.6c-0.6-0.9-0.5-2.4-0.5-3.4c-0.3-4.2-0.5-8.5-0.8-12.7c-0.5-7.2-0.9-14.4-1.2-21.5
			c-0.3-6.6-0.4-13.2-0.2-19.9c0.1-3.3,0.3-6.6,0.6-9.9c0.1-1.6,0.3-3.2,0.6-4.8c0.1-0.3,0.1-0.7,0.3-1
			C208.8,367,209.3,367.1,209.5,366.9z"/>
	</g>
	<g id="POLYLINE_82_">
		<path class="st1" d="M266.1,456.9c0.3,4.8,0.6,9.8,2,14.4c0.6,2.1,1.6,4.1,2.1,6.2c0.4,1.8,0.4,3.6,0.4,5.4
			c-0.1,5.4-0.2,10.7,0.1,16.1c0.3,5,0.6,10,1.7,14.9c0.8,3.8,2.6,7.2,2.3,11.1c-0.4,5.4-1.9,10.9-3,16.2c-1,4.6-1.8,9.2-2.3,13.9
			c-0.5,4.8-0.7,9.7-0.4,14.6c0.4,5,1.2,9.9,2.2,14.8c1.1,4.9,2.6,9.7,3.5,14.6c0.9,4.9,1,9.8,0.8,14.8c-0.2,4.9-0.6,9.8-1.2,14.7
			c-0.3,2.5-0.8,5-1.4,7.5c-0.4,1.6-1,3.3-1,5c0,3.6,1.5,7,0.9,10.6c-0.4,2-1.2,3.8-2.1,5.5c-0.7,1.4-0.9,3.1-1.1,4.7
			c-0.3,2.3-0.5,4.7-0.5,7c0,1.7,0,3.5,0.4,5.2c0.6,2,2,3.1,4,3.3c1,0.1,2.2,0.2,3.2-0.3c0.5-0.3,0.9-1,1.4-1.2
			c0.8-0.3,1.5,1,2.2,1.3c0.6,0.2,1.4,0.1,2-0.1c0.4-0.1,0.7-0.3,1-0.6c0.1-0.1,0.2-0.4,0.4-0.4c0.3-0.1,0.5,0.1,0.7,0.2
			c1.1,0.6,1.9,1.1,3.2,1c0.8-0.1,1.5-0.4,2.1-0.8c0.3-0.2,0.7-0.6,1.1-0.5c0.7,0,1.3,0.7,1.8,1c0.6,0.4,1.4,0.6,2.1,0.6
			c1,0,1.8-0.5,2.8-0.3c0.8,0.1,1.6,0.4,2.4,0.2c1.7-0.6,1.7-3.6,1.7-5c0-4.6-1.1-9.5-2.5-13.9c-0.9-2.8-2.5-5.4-2.2-8.5
			c0.2-2,0.5-3.8,0.4-5.9c-0.1-2.3,0-4.5,0.2-6.8c0.4-5.2,0.9-10.4,1.5-15.6c0.6-4.5,1.7-8.9,2.8-13.3c1.4-5.7,2.8-11.4,4.1-17.1
			c1.1-4.9,2.1-9.8,2.9-14.8s1.4-9.9,1.7-15c0.3-5,0.1-10-0.3-14.9c-0.5-5.2-1.3-10.3-2.2-15.4c-0.8-5.1-1.7-10.1-2-15.2
			c-0.3-4.8,0.1-9.5,1-14.2c1-5.1,2.2-10.2,3.1-15.4c1-5.2,1.8-10.4,2.7-15.6c0.8-5.1,1.6-10.1,2.3-15.2c0.7-5,1.4-10,2-15"/>
	</g>
	<g id="POLYLINE_81_">
		<path class="st1" d="M210.4,441c0.6,5.2,1.5,10.3,2.7,15.4c1.2,4.7,2.5,9.3,3.8,14c1.9,6.8,3.7,13.6,5.6,20.4
			c1.2,4.2,2.3,8.4,3.3,12.7c0.4,1.7,0.8,3.4,0.6,5.1c-0.2,2.2-0.8,4.3-1.1,6.5c-0.7,5.2-0.9,10.4-0.9,15.6c0,5.3,0.2,10.6,0.6,15.9
			c0.4,5.3,1,10.6,1.8,15.8c0.8,5.1,1.7,10.2,2.9,15.2c1.3,5.3,2.7,10.5,4.3,15.8c1.7,5.8,3.6,11.6,5.4,17.3
			c1.3,4.3,2.7,8.6,3.6,13.1c1,4.7,0.9,9.3,0.4,14c-0.2,2.5-0.6,4.9-0.5,7.4c0.1,1.9,0.5,3.8,0.2,5.7c-0.1,1-0.6,1.7-1.1,2.5
			c-1.5,2.2-3,4.4-4.3,6.8c-1.2,2.2-2.3,4.4-3.3,6.7c-0.8,1.8-1.5,3.6-1.8,5.6c-0.2,1.6,0.2,3.5,1.8,4.4c1.4,0.8,3.6,1,5.1,0.3
			c0.5-0.2,0.8-0.5,1.3-0.5c1.1,0.1,2,0.7,3.2,0.5c1.3-0.2,2.6-0.9,3.9-0.7c1.1,0.1,2.1,0.9,3.2,0.9c1.2,0,2.2-0.8,3.3-1.3
			c0.3-0.2,0.7-0.4,1.1-0.3c0.6,0.1,1.1,0.7,1.7,1c1,0.5,2.2,0.5,3.4,0.5c2.1-0.1,5.1-0.4,6.2-2.5c0.7-1.3,0.8-3,0.9-4.4
			c0.2-2.6,0.4-5.2,0.4-7.7c0-2.3,0-4.6-0.4-6.8c-0.3-1.5-0.9-3.1-0.9-4.7c0-1.6,0.8-3.1,1.2-4.6c0.4-1.4,0.6-2.8,0.5-4.3
			c-0.3-4.9-2.2-9.5-2.8-14.4c-0.7-5.1-0.7-10.2-0.5-15.3c0.2-5.5,0.6-11,0.9-16.5c0.4-5.2,0.9-10.4,1.4-15.6
			c0.5-5.2,1.1-10.4,1.2-15.7c0.1-5-0.2-10.1-1-15c-0.9-5.3-2.6-10.4-4.2-15.6c-1.4-4.5-2.5-9.1-3-13.8c-0.6-5-0.5-10.1-0.2-15.2
			s0.9-10.3,1.6-15.4c0.8-5.4,1.9-10.6,2.9-15.9c1-5,1.1-10.2,1.2-15.3c0.1-4.3,0.2-8.6,0.1-12.9c0-6.8,0-13.6-0.1-20.4
			c0-4.8,0-9.6,0-14.4"/>
	</g>
	<g id="POLYLINE_80_">
		<path class="st1" d="M201,245.4c0.8,3.9,1.6,7.8,2.9,11.6c1.4,4.2,3.1,8.4,4.6,12.5c0.6,1.6,1.2,3.2,1.6,4.9
			c0.4,1.5,0.4,3,0.5,4.6c0.4,4.1,1.8,8,2.5,12.1c0.8,4.1,1,8.1,1,12.3c0,3.8,0.1,7.5,0.8,11.2c0.7,4,1.7,8,1.6,12.1
			c-0.1,3.9-0.8,7.7-1.5,11.5c-1.5,8.8-3.2,17.6-5.1,26.3c-0.2,0.8-0.3,1.5-0.5,2.2"/>
	</g>
	<g id="POLYLINE_79_">
		<path class="st1" d="M281,168.9c-0.3,2-0.3,4.1-0.2,6.2c0.1,2.1,0.2,4.2,0.7,6.2c0.7,3.1,3.3,5.5,5.6,7.5
			c3.6,3.2,7.7,5.7,11.9,7.9c4.4,2.3,9,4.2,13.7,5.8c2.3,0.8,4.7,1.5,7.1,1.9c2.2,0.4,4.5,0.5,6.8,0.9c2.4,0.4,4.3,1.7,5.8,3.6
			c2.8,3.6,4.5,8.2,6.1,12.5c1.8,4.7,3.2,9.5,4.5,14.3c1.2,4.8,2.2,9.7,2.5,14.6c0.3,5-0.1,10-0.4,15c-0.4,5.1-0.7,10.1-0.6,15.2
			c0,5.2,0.2,10.5,0.3,15.7c0.1,5.1,0.5,10.4,0.2,15.5c-0.1,1.1-0.2,2.2-0.4,3.2c-0.1,0.4-0.1,0.8-0.1,1.3c0.2,1.6,1.3,3.1,1.9,4.6
			c1.9,4.3,2.9,8.7,3.1,13.3c0.2,4.9-0.2,9.8-0.6,14.7c-0.5,5.3-1,10.7-1.5,16c-0.4,5-0.4,10-0.5,15c-0.2,5.1-0.9,10.1-0.8,15.2
			c0.1,5,0.9,9.8,1.8,14.7c1,4.8,2.3,9.6,2.7,14.5c0.3,4.6-1,8.8-2.4,13.1c-1.6,5.1-3.2,10.2-5.1,15.2c-0.7,1.9-1.4,3.9-2.5,5.6
			c-0.5,0.7-1,1.4-1.8,1.6c-1.5,0.5-3-0.6-3.9-1.7c-1.2-1.4-1.5-3.2-1.3-5.1c0.3-3.2,2.1-6.7,1-9.9c-0.5-1.4-2.2-1-3.2-1.9
			c-1.3-1-2-2.7-2-4.3c0-2.2,0.4-4.3,0.4-6.5c0-2.4-0.3-4.9-0.7-7.3c-0.4-2.4-0.9-4.8-1.7-7.1c-0.5-1.4-1.2-2.9-1.3-4.4
			c0-0.9,0.4-1.7,0.8-2.4c1.1-2,2-4,2.6-6.1c1.3-4.3,2-8.8,1.2-13.2c-0.9-4.8-2.6-9.5-4.1-14.1c-1.6-5.4-3.3-10.7-4.9-16.1
			c-1.4-4.7-2.7-9.4-3.6-14.3c-0.8-4.5-1.3-9-0.4-13.5c0.3-1.8,1-3.6,1.1-5.4c0-1-0.3-1.9-0.7-2.9c-2-4.5-3-9.1-3.8-14
			c-0.9-5-1.5-10-1.9-15.1c-0.4-5-0.7-9.9-0.6-14.9"/>
	</g>
	<g id="POLYLINE_78_">
		<path class="st1" d="M240.4,172.6c0.8,3.2,0.6,6.8-1.1,9.7c-1.7,2.9-5,4.6-7.7,6.4c-4.2,2.8-8.5,5.5-12.8,8.2
			c-2,1.3-4.1,2.5-6.3,3.3c-2.1,0.8-4.3,1.5-6.4,2.2c-4.5,1.5-9.4,2.6-13.5,5.1c-3.5,2.1-6.1,5.3-7.9,9c-2.1,4.3-3.5,8.9-4.7,13.5
			c-1.2,4.8-2.3,9.6-2.9,14.5c-0.6,4.6-0.8,9.3-0.2,13.9c0.6,5.1,1.5,10.1,2,15.1c0.5,4.9,0.8,9.7,1,14.6c0.1,2.4,0.1,4.8-0.1,7.1
			c-0.2,2.2-0.7,4.4-1,6.6c-0.5,4.6,0,9.4-1.1,14c-0.6,2.3-1.4,4.5-2,6.8c-0.6,2.2-0.9,4.4-1.2,6.6c-0.5,4.9-0.5,9.9-0.3,14.8
			c0.1,5.1,0.4,10.2,0.8,15.3c0.4,5.5,1,11.1,1.5,16.6c0.4,4.4,0.6,8.9,0.7,13.4c0.1,5,0.2,10-0.1,14.9c-0.3,4.7-1,9.2-2.4,13.7
			c-0.9,2.8-2.2,5.7-1.3,8.7c0.4,1.3,1.1,2.4,1.6,3.7c0.6,1.6,1.1,3.2,1.6,4.8c2,6.2,4.1,12.5,6.1,18.7c0.4,1.1,0.6,2.3,1.2,3.3
			c0.2,0.3,0.3,0.5,0.6,0.6c1.1,0.4,2.9-0.6,3.8-1.2c1.7-1.1,2.4-2.9,2.5-4.9c0.1-1.9-0.2-3.7-0.7-5.6c-0.3-1.3-0.8-2.7-0.7-4
			c0.1-1.1,0.6-2,1.8-2.3c1.6-0.3,2.4-0.3,2.8-2c0.5-2.1,0.4-4.4,0.5-6.5c0.1-2.3,0.4-4.5,0.7-6.8c0.4-2.4,0.9-4.8,1.4-7.2
			c0.5-2.2,1.3-4.4,1.6-6.6c0.4-2.9-1.4-5.4-2.5-8c-1.8-4.2-2.5-8.7-2.4-13.2c0.1-4.8,1.2-9.4,2.7-14c1.5-4.8,3.4-9.5,5-14.2
			c1.6-4.6,2.9-9.4,3.7-14.2c0.8-4.8,0.9-9.7,0.7-14.6c-0.2-4.7-0.8-9.5,0.1-14.1c0.5-2.3,1.2-4.6,1.7-6.9s0.7-4.7,1-7
			c0.4-4.9,0.6-9.8,0.8-14.7c0.2-4.8,0.3-9.6,1.2-14.4"/>
	</g>
	<g id="POLYLINE_77_">
		<path class="st1" d="M230.6,140.4c-0.3-0.8-0.9-1.6-1.8-1.6c-1,0-1.6,1.1-1.9,1.9c-0.9,2.4-0.6,5.1,0.1,7.5
			c1,3.6,2.9,7.4,5.5,10.2c0.7,0.7,2.4,2.4,3.3,1.1c0,4.2,1.3,9.2,4.1,12.5c1.9,2.3,4.4,4.2,6.7,6.1c2.1,1.8,4.4,3.4,7,4.6
			c4.5,2.1,10.2,3.4,15,1.6c4.6-1.7,7.6-6.2,10-10.4c2.8-4.9,5.3-10.3,5.3-16.1c0-0.7,0-1.4-0.1-2.1c0.6,0.4,0.8,0.8,1.6,0.6
			c1.7-0.4,3-2.2,3.7-3.7c1.7-3.2,2.5-7.4,2.5-11c0-1.4-0.2-3.4-1.8-3.9c-1-0.3-1.9,0.1-2.6,0.9c-0.2,0.2-0.3,0.4-0.5,0.6
			c0.3-4.2,0.8-8.4,0.7-12.6c-0.1-3.7-1-7.3-2.6-10.6c-3.1-6.3-8.4-10.8-15.1-12.8c-7.5-2.2-15.6-1.9-23,0.5
			c-6,1.9-13.1,5.3-15.7,11.4c-1.4,3.2-1.7,6.8-1.8,10.3c-0.1,4,0.1,8,0.9,11.9C230.1,138.3,230.4,139.3,230.6,140.4z"/>
	</g>
	<g id="POLYLINE_76_">
		<path class="st1" d="M497,192c-0.8,4.3-0.7,8.9-0.2,13.3c0.5,4.2,1.9,8.2,4.7,11.5c3,3.6,7.1,6.3,11.2,8.6c4,2.2,8.3,4.3,12.9,5.1
			c1.9,0.3,3.9,0.3,5.8,0.8c2.1,0.6,4,1.5,5.8,2.6c2.8,1.7,4.9,4,5.8,7.2c1.3,4.6,1.2,9.7,1.2,14.4c0.1,4.2,0.1,8.5,0,12.7
			c-0.1,6.8-0.2,13.5-0.3,20.3c-0.1,4.4-0.1,8.9-0.2,13.3c0,5.2-0.1,10.4,0.1,15.5c0.2,4.8,0.6,9.5,1.9,14.1
			c1.4,4.8,2.7,9.4,3.2,14.3c0.6,5.2,0.9,10.5,1.2,15.8c0.3,5.1,0.4,10.2,0.4,15.3c0.1,5.7,0,11.4,0,17.1c0,4.2,0.2,8.4,0.8,12.5
			c0.7,5,1.9,10,3.1,14.9c1,4.5,2.5,9.2,2.5,13.9c0,1.6-0.4,3.1-0.8,4.7c-0.7,2.3-1.5,4.5-2.5,6.6c-1.8,3.5-4.6,6.4-8.1,8.4
			c-0.7,0.4-2.3,1.4-3.2,0.8c-0.5-0.3-0.4-1-0.2-1.4c0.5-1.4,1.8-2.5,2.6-3.8s1.4-2.7,1.7-4.2c0.4-2.2,0.3-4.5,0.2-6.7
			c-0.1-2-0.3-4.2-0.8-6.2c-0.2-0.5-0.5-1.7-1.2-1.6c-1.2,0-1.7,2.4-2,3.2c-0.5,1.6-0.8,3.4-0.7,5.1s0.7,3.3,1.1,4.9
			c0.2,0.8,0.5,2.5-0.4,3.1c-0.5,0.3-0.9-0.1-1.2-0.6c-0.9-1.4-1.3-3.2-1.7-4.8c-0.6-2.1-1.3-4.2-1.3-6.3c0-2.3,0.4-4.6,0.7-6.9
			c0.4-2.7,0.9-5.4,1.4-8c0.4-2.3,0.8-4.6,1.4-6.9c0.3-1.4,0.9-2.7,0.8-4.1c-0.1-2.1-0.6-4.2-1-6.3c-0.5-2.4-1-4.8-1.6-7.2
			c-0.9-3.9-1.8-7.7-2.7-11.6c-1.7-7-3.4-14-5.1-21c-1.2-5.1-2.5-10.3-3.7-15.5c-1-4.2-1.5-8.4-1.7-12.7c-0.3-5.5-0.5-11.1-0.7-16.6
			c-0.2-4.8-0.3-9.5-0.5-14.3c-0.2-5.1-0.3-10.1-0.5-15.2"/>
	</g>
	<g id="POLYLINE_75_">
		<path class="st1" d="M526.5,278.9c0.6-3.3,1.2-6.6,2.1-9.8"/>
	</g>
	<g id="POLYLINE_74_">
		<path class="st1" d="M471.1,192.2c0.8,4.6,0.6,9.2-0.3,13.7c-0.8,4.3-2.5,8.4-5.5,11.7s-6.9,5.7-10.9,7.8
			c-4.2,2.2-8.6,3.9-13.2,5.1c-2.4,0.6-4.8,1.1-7.2,1.6c-1.6,0.4-3.2,0.8-4.5,1.7c-1.8,1.1-3.1,2.9-4,4.8c-1.8,4.1-2.2,8.8-2.5,13.2
			c-0.3,5-0.4,10.1-0.4,15.2c0,3.6,0,7.2,0.1,10.8c0.1,7.2,0.2,14.5,0.2,21.7c0.1,5.4,0.1,10.7,0.2,16.1c0,3.9,0,7.9-0.4,11.8
			c-0.5,4.5-2.2,8.7-3.4,13.1c-1.2,4.8-2.2,9.6-2.6,14.5c-0.4,4.7-0.5,9.4-0.4,14c0,6,0.1,12,0.2,18c0,4.3,0.1,8.6,0,13
			c-0.1,4.7-0.4,9.5-1.6,14.1c-1.2,4.7-2.9,9.2-3.8,13.9c-0.8,4-1.4,8.2-0.7,12.2c0.7,3.5,2.5,6.6,4.7,9.4c1.4,1.7,2.9,3.3,4.6,4.8
			c0.9,0.8,2,1.7,3.2,2.1c0.5,0.2,1,0.2,1.4-0.3c1-1.4-1-3.7-1.6-4.7c-1.8-2.8-2.6-5.8-2.5-9.1c0.1-2.1,0.4-4.3,0.9-6.3
			c0.3-1,0.6-2.4,1.4-3.2c1-0.9,1.2,0.8,1.5,1.6c0.6,1.8,1.1,3.6,1.2,5.5c0.1,1.6-0.4,3.2-0.6,4.8c-0.1,0.6-0.5,2.9,0.3,3.2
			c1,0.4,2-2.7,2.1-3c1.1-2.5,2.4-5.2,2-8c-0.8-5-1.7-9.9-2.7-14.9c-0.5-2.4-1-4.8-1.2-7.3c-0.2-2.2-0.1-4.4,0.1-6.5
			c0.5-4.8,1.4-9.5,2.4-14.2c1.1-5.3,2.3-10.6,3.6-15.8c1.2-5.2,2.5-10.5,3.8-15.7c1.1-4.4,2.2-8.8,3.5-13.1c0.7-2.4,1.5-4.7,2-7.1
			c0.5-2.2,0.6-4.5,0.7-6.8c0.3-5.1,0.3-10.2,0.4-15.3c0.1-4.4,0.2-8.8,0.3-13.2c0.1-5.5,0.2-11,0.3-16.6"/>
	</g>
	<g id="POLYLINE_73_">
		<path class="st1" d="M438.6,269.4c0.4,3.8,1,7.5,1.9,11.2"/>
	</g>
	<g id="POLYLINE_72_">
		<path class="st1" d="M463.8,184c3.2,5.5,8.8,10.6,15.1,12.2c6.4,1.6,14-1,19.1-4.9c2.7-2.1,4.4-4.9,5.9-7.9"/>
	</g>
	<g id="POLYLINE_71_">
		<path class="st1" d="M471.4,202.2c-1.2,3.9-3.6,7-7,9.2c-0.3,0.2-1.1,0.8-1.3,0.2c-0.1-0.4,0.4-1,0.7-1.3c0.7-0.7,1.2-1.2,1.6-2.1
			c0.3-0.9,0.6-1.9,0.7-2.9c0-0.2,0.3-1.1,0.2-1.3c-0.2-0.3-0.8,1.2-1,1.4c-0.6,1.1-1.3,2.1-2.3,3c-0.7,0.7-1.8,1.6-2.8,1.8
			c-1.1,0.2,0.1-1.5,0.2-1.9c0.7-1.8,0.9-4,0.2-5.8c-0.1-0.1-0.3-0.9-0.6-0.9l-0.3,0.5c-0.3,0.4-0.7,0.7-1.1,1
			c-1.5,1.1-3.3,2.2-5.1,2.9c-0.2,0.1-0.6,0.3-0.6,0c0-0.1,0.3-0.5,0.4-0.6c0.7-0.9,1.4-1.8,2-2.7s1.2-1.8,1.5-2.9
			c0.5-1.9,0.6-4,0.6-5.9c0-1.1,0-2.2-0.1-3.3c0-0.1,0-0.6-0.1-0.7c-0.3-0.2-0.4,0.3-0.6,0.6c-0.7,1.3-1.3,2.7-2.4,3.8
			c-1,1-2.2,1.7-3.5,2.3c-0.4,0.2-2.3,1.2-2.8,0.9c-0.4-0.2,0.4-0.6,0.7-0.7c1.5-1.1,2.9-2.4,4-3.9c2.2-2.8,3.3-6.1,3.4-9.7
			c0.1-4.9-0.7-9.7-0.8-14.6c-0.1-4.7,0.2-9.4,1-14s1.9-9.3,4.1-13.5c1.7-3.4,4.3-6.5,7.5-8.7c3.7-2.5,8-3.9,12.4-4.3
			c3.1-0.3,6.9-0.4,9.8,1.1c0.8,0.4,1.3,1.2,2,1.6c0.2,0.1,0.4,0.2,0.6,0.2c0.9,0,1.7-0.5,2.6-0.4c1.5,0,3.1,0.4,4.4,0.9
			c2.9,1.1,5.1,4.1,6.5,6.7c2,3.9,2.8,8.4,3.4,12.7c0.6,4.7,0.9,9.5,1,14.3c0.1,5-0.2,10-0.1,15.1c0.1,4.2,0.9,8.5,2.7,12.2
			c0.5,1,1.1,1.9,1.8,2.7c0.2,0.2,1.4,0.9,1.3,1.4c-0.2,0.7-1.8-0.4-2-0.6c-0.5-0.4-3.5-3.6-3.9-3c-0.1,0.1,0,0.5,0,0.6
			c0.1,0.9,0.3,1.8,0.4,2.7c0.1,1.6,0,3.2,0.4,4.8c0.2,0.8,0.6,1.5,1.1,2.1s1.1,1.1,1.5,1.7c0.1,0.1,0.2,0.2,0.2,0.3
			c0.1,0.7-1.2,0.5-1.6,0.4c-2.6-0.4-5.1-1.4-6.9-3.3c-0.3-0.3-1.4-2.1-2-1.5c-0.3,0.3-0.2,1.2-0.2,1.6c0.1,2.1,0.8,4.2,1.5,6.1
			c0.4,1,0.8,2,1.1,3.1c0,0.1,0.2,0.6,0.2,0.7c-0.1,0.2-0.2,0.1-0.4,0c-0.6-0.3-1.3-1-1.7-1.5c-0.6-0.6-1.2-1.2-1.6-1.9
			c-1.4-2-2.1-4.3-3.1-6.4c-0.1-0.1-0.4-1.1-0.7-1c-0.3,0.1-0.2,1.3-0.2,1.4c0.1,4.2,0.6,8.6,2,12.6"/>
	</g>
	<g id="POLYLINE_70_">
		<path class="st1" d="M463.8,184c-0.3-2.4-0.3-4.7-0.1-7.1c0.1-1.3,0.2-2.7,0.4-4c0.1-0.5,0-1.7,0.4-2.1c0.2-0.3,0.2,0,0.3,0.3
			c0.5,1.9,0.6,4,1.4,5.8c0.1,0.2,0.3,0.9,0.6,0.6c0.3-0.4-0.2-1.7-0.2-2.1c-0.1-1-0.1-2.1,0-3.1c0.3-3.7,2-7.3,4.3-10.1
			c2.9-3.5,7-5.6,11.1-7.3c3.2-1.4,7.3-2.4,9.6-5.3c0.4-0.5,0.8-1.1,1.1-1.7c0.2-0.3,0.4-1.3,0.8-1.5s0.6,0.4,0.9,0.6
			c0.7,0.5,1.7,0.7,2.5,1.1c0.8,0.5,1.5,1.2,2,2c1.2,1.9,1.9,4.1,2.4,6.2c0.7,2.5,1.2,5.1,1.6,7.7c0.8,5.1,1.6,10.3,1.4,15.5
			c-0.1,1.3-0.2,2.5-0.3,3.8"/>
	</g>
</g>
<g id="AG-OUTLINE">
	<g id="POLYLINE_69_">
		<path class="st2" d="M266.1,456.9c0.2,3.6,0.5,7.2,1.1,10.7c0.3,1.5,0.6,3,1.1,4.5c0.5,1.6,1.3,3.2,1.7,4.8
			c0.7,2.8,0.5,5.7,0.4,8.5c-0.1,3.7-0.1,7.4,0,11.1c0.3,6.9,0.6,14.2,2.7,20.8c0.8,2.6,1.6,4.9,1.4,7.6c-0.2,3.4-1.1,6.7-1.8,10.1
			c-1.5,7.2-3.1,14.5-3.9,21.8c-0.1,0.9-0.2,1.8-0.3,2.8c-0.5-6.5-1.5-12.7-3.4-19c-2-6.6-4.1-13.2-4.9-20.1
			c-0.7-6.7-0.5-13.4,0.1-20.1c0.7-7,1.6-14,3-20.8c0.6-3.2,1.5-6.5,1.8-9.8c0.4-3.4,0.5-6.8,0.5-10.1
			C266,458.8,266,457.9,266.1,456.9z"/>
	</g>
	<g id="POLYLINE_68_">
		<path class="st2" d="M210.4,441c0.8,7,2.2,13.7,4.1,20.5c2.7,9.8,5.4,19.7,8.1,29.5c0.8,2.9,1.6,5.9,2.3,8.9
			c0.7,2.8,1.8,6,1.5,8.9c-0.2,1.7-0.6,3.3-0.9,4.9c-0.3,1.9-0.5,3.8-0.7,5.7c-0.3,3.8-0.4,7.7-0.4,11.5c0,7.9,0.5,15.9,1.3,23.8
			c0.9,8.1,2.3,16.1,4.3,24.1c1.8,7.5,4.1,14.8,6.3,22.1c2.4,7.8,5.4,15.8,6.9,23.9c0.6,3.4,0.7,6.9,0.4,10.3
			c-0.3,3.7-0.9,7.4-0.7,11.2c0.1,2,0.6,4.2-0.3,6.1c-0.7,1.3-1.7,2.5-2.6,3.8c-1,1.6-2,3.2-2.8,4.9c-1.7,3.2-3.4,6.5-4.2,10
			c-0.4,1.5-0.6,3.2,0.3,4.5c1.4,2.3,4.7,2.4,6.9,1.3c1-0.5,1.9,0.3,2.9,0.4c2,0.2,3.7-1.2,5.7-0.5c1.8,0.6,2.7,1,4.4,0.1
			c0.7-0.3,1.7-1.3,2.5-1c0.5,0.2,1,0.7,1.5,0.9c0.6,0.3,1.3,0.4,2,0.5c2,0.2,4.6,0,6.4-1.2c1.4-0.9,1.7-2.5,1.9-4.1
			c0.5-3.7,0.6-7.5,0.6-11.3c0-1.7-0.1-3.4-0.5-5.1c-0.3-1.3-0.8-2.6-0.9-4c-0.2-2.3,1.2-4.5,1.6-6.7c0.5-2.7-0.2-5.5-0.8-8.1
			c-0.9-3.7-1.8-7.4-2.1-11.2c-0.8-7.8-0.3-15.7,0.2-23.5c0.5-8.4,1.4-16.8,2.2-25.2c0.4-3.5,0.6-7,0.8-10.6c0.2,5.5,1,11,2.1,16.4
			s2.9,10.8,3.9,16.2s1,10.9,0.7,16.3c-0.2,5.5-0.7,11-1.7,16.5c-0.5,2.6-1.3,5.1-1.7,7.6c-0.3,1.7,0,3.4,0.3,5.1c0.3,2,0.8,4,0.6,6
			c-0.2,2-0.8,3.9-1.7,5.6c-0.9,1.8-1.3,3.3-1.6,5.3c-0.3,2.6-0.6,5.1-0.6,7.7c0,2.5-0.1,6.3,2.5,7.7c1.6,0.8,4.4,1.1,5.8-0.3
			c1.2-1.2,1-0.6,2.4,0.3c0.6,0.4,1.2,0.5,1.8,0.4c0.5-0.1,1.1-0.3,1.5-0.6c0.2-0.1,0.4-0.5,0.5-0.5c0.3-0.1,0.4,0,0.7,0.2
			c1.2,0.7,2,1.2,3.5,1c1-0.2,1.6-0.7,2.4-1.2c0.3-0.2,0.5-0.2,0.8-0.1c0.9,0.2,1.5,1.1,2.4,1.4c1,0.3,1.8,0.1,2.9-0.1
			c1.4-0.2,3.3,0.9,4.3-0.4c0.8-0.9,0.9-2.4,1-3.5c0.1-2.4-0.2-4.8-0.7-7.1c-0.5-2.7-1-5.3-1.8-7.9c-0.6-2-1.6-3.8-2.1-5.8
			c-0.3-1.3-0.1-2.6,0.1-3.8c0.4-2.3,0.2-4.5,0.2-6.8c0.1-5.4,0.6-10.9,1.3-16.2c0.6-5.1,1.5-10.1,2.7-15.1
			c1.5-6.3,3.1-12.5,4.6-18.8c1.2-5.3,2.3-10.7,3.1-16.1c0.9-5.6,1.6-11.2,1.7-16.9c0.1-5.5-0.2-11.1-0.9-16.6
			c-0.7-5.7-1.8-11.3-2.7-17c-0.8-5.2-1.4-10.6-1-15.8c0.4-6,1.9-12,3.1-17.8c1-5,1.9-10,2.7-15c1-6.3,2-12.6,2.9-18.9
			c0.4-2.6,0.7-5.2,1.1-7.9c0.2-1.5,0.4-3,0.6-4.6c0.2-1.4,0.2-2.9,0.5-4.2c0.1-0.5,0.1-0.3,0.4-0.5c0.1-0.1,0.2-0.2,0.3-0.3
			c0.8-1,0.6-3,0.7-4.1c0.3-5.6,0.2-11.2,0.1-16.8c-0.1-4.9-0.2-9.7-0.3-14.6c-0.3-7.9-0.5-15.8-0.8-23.7c-0.1-1.7-0.1-3.4-0.2-5.1
			c-0.1-1.6-0.1-3.2-0.2-4.8c0-0.7,0-1.5-0.3-2.2c-0.1-0.2-0.2-0.3-0.3-0.5c-0.3-0.4-0.3-0.7-0.4-1.3c-0.5-2.7-1-5.3-1.7-7.9
			c-1.4-5.5-3.5-10.7-5.4-16c-1.7-4.7-2.4-9.4-2.1-14.4c0.2-2.8,0.7-5.5,1.1-8.3c0.4-2.6,0.4-5.3,0.4-7.9c0-5.4,0.6-10.8,1.2-16.2
			c0.7-5.6,1.4-11.1,2.2-16.7c0,5.2,0.2,10.3,0.7,15.4c0.5,5.4,1.1,10.7,2.1,16c0.4,2.5,1,5,1.7,7.4c0.6,2.1,1.6,4,2.3,6.1
			c0.3,0.8,0.4,1.6,0.3,2.5c-0.3,2.2-1,4.3-1.3,6.5c-0.6,4.8,0.2,9.7,1.2,14.4c1.1,5.2,2.7,10.4,4.2,15.5c1.6,5.5,3.4,11,5,16.5
			c1.3,4.1,2.9,8.4,3.1,12.7c0.3,4.5-0.9,9.4-2.6,13.5c-0.6,1.6-1.8,3-2.3,4.6c-0.2,0.7-0.1,1.5,0.1,2.2c0.7,2.4,1.5,4.6,2.1,7
			c0.6,2.6,1,5.2,1.2,7.8c0.2,2.4,0,4.8-0.2,7.3c-0.1,1.2-0.2,2.4,0.1,3.6c0.6,1.9,1.9,3,3.8,3.4c1.6,0.4,1.6,2.6,1.5,3.9
			c-0.1,3.1-1.8,6.2-1.3,9.3c0.3,1.8,1.5,3.6,3.1,4.4c1.5,0.7,2.7,0.2,3.7-1.1c1.2-1.5,1.9-3.5,2.5-5.3c0.9-2.4,1.7-4.8,2.5-7.2
			c1.7-5,3.5-10,4.7-15.1c1-4.5,0.4-8.9-0.5-13.3c-1.1-5.2-2.3-10.5-3-15.8c-0.6-5-0.5-10-0.2-15c0.2-2.7,0.5-5.4,0.5-8.2
			c0.1-2.7,0.1-5.3,0.1-8c0.2-5.4,0.8-10.7,1.3-16.1c0.5-5.1,1-10.2,1.2-15.4c0.2-4.7,0-9.5-1.4-14.1c-0.7-2.4-1.8-4.6-2.8-6.9
			c-0.4-0.9-0.9-1.8-0.8-2.7c0.2-2.3,0.5-4.5,0.6-6.9c0-2.1,0-4.1-0.1-6.1c-0.2-6-0.4-11.9-0.5-17.9c-0.1-5-0.1-10,0.3-15
			c0.4-5.4,1-10.8,0.9-16.3c-0.1-5.1-0.9-10.1-2-15s-2.5-9.7-4.2-14.4c-1.6-4.7-3.4-9.5-6.1-13.7c-1.4-2.2-3.2-4.1-5.7-4.7
			c-2.1-0.6-4.3-0.6-6.5-0.9c-2.3-0.4-4.6-1-6.9-1.7c-4.9-1.5-9.8-3.5-14.4-5.8c-4.3-2.1-8.5-4.7-12.2-7.8c-2.4-2.1-5.3-4.7-6.1-7.9
			c-0.5-2-0.6-4.2-0.7-6.3c-0.1-2-0.4-4.4,0.2-6.3c0.3-1.1,1-2.3,1.4-3.4c0.3-1,0.6-1.9,0.9-2.9c0.5-2.3,0.5-4.6,0.4-6.9
			c0.6,0.4,0.8,0.8,1.6,0.6c1.7-0.4,3-2.2,3.7-3.7c1.7-3.2,2.5-7.4,2.5-11c0-1.4-0.2-3.4-1.8-3.9c-1-0.3-1.9,0.1-2.6,0.9
			c-0.2,0.2-0.3,0.4-0.5,0.6c0.3-4.2,0.8-8.4,0.7-12.6c-0.1-3.7-1-7.3-2.6-10.6c-3.1-6.3-8.4-10.8-15.1-12.8
			c-7.5-2.2-15.6-1.9-23,0.5c-6,1.9-13.1,5.3-15.7,11.4c-1.4,3.2-1.7,6.8-1.8,10.3c-0.1,4,0.1,8,0.9,11.9c0.2,1,0.4,2,0.6,3
			c-0.3-0.8-0.9-1.6-1.8-1.6c-1,0-1.6,1.1-1.9,1.9c-0.9,2.4-0.6,5.1,0.1,7.5c1,3.6,2.9,7.4,5.5,10.2c0.7,0.7,2.4,2.4,3.3,1.1
			c0,3.8,1,7.9,3.1,11.1c0.3,0.5,0.6,0.9,1,1.4c0.4,0.4,0.6,0.7,0.7,1.3c0.1,0.5,0.2,0.9,0.2,1.4c0.2,1.8,0,3.8-0.5,5.5
			c-0.9,2.8-2.9,4.7-5.4,6.4c-4.4,3-8.9,5.9-13.4,8.8c-2.1,1.3-4.1,2.7-6.2,3.8c-1.8,0.9-3.8,1.6-5.7,2.3c-3.2,1.1-6.4,2.1-9.6,3.2
			c-1.9,0.6-3.8,1.3-5.6,2.1c-3.7,1.8-6.6,4.7-8.6,8.2c-2.5,4.3-4,9.1-5.3,13.9c-1.3,4.9-2.4,9.9-3.1,14.9
			c-0.7,4.8-0.9,9.6-0.4,14.4c0.6,5.2,1.5,10.3,2.1,15.5c0.5,5.1,0.9,10.2,1,15.3c0.1,2.4,0.1,4.8-0.2,7.1c-0.2,2.3-0.8,4.5-1,6.7
			c-0.4,4.8,0,9.7-1.4,14.3c-0.7,2.4-1.5,4.7-2.1,7.2c-0.5,2.3-0.8,4.6-1,7c-0.4,5-0.3,10.1-0.1,15.2c0.2,4.7,0.4,9.4,0.8,14.1
			c0.5,5.7,1.1,11.5,1.5,17.2c0.4,5.3,0.6,10.7,0.7,16c0.1,5,0,10.1-0.6,15.1c-0.3,2.4-0.7,4.7-1.4,7c-0.6,2.3-1.6,4.5-2.1,6.8
			c-0.6,2.6,0.2,4.5,1.3,6.8c0.6,1.4,1.1,2.8,1.5,4.2c1,3.2,2.1,6.3,3.1,9.5c1.1,3.3,2.2,6.6,3.2,9.8c0.4,1.3,0.8,2.7,1.4,4
			c0.5,1,1.1,1,2.2,0.8c1.7-0.4,3.4-1.5,4.2-3.1c1.4-2.8,0.6-6.3-0.1-9.2c-0.4-1.5-1.1-3.8,0.2-5.1c0.9-0.9,2.3-0.3,3.2-1.1
			c0.6-0.5,0.7-1.4,0.8-2.2c0.3-2.4,0.3-4.8,0.5-7.2c0.4-4.9,1.3-9.8,2.5-14.5c0.8-3.1,1.8-5.6,0.4-8.6c-1-2.3-2.2-4.5-2.9-6.9
			c-0.7-2.2-1.1-4.4-1.2-6.6c-0.4-4.8,0.3-9.6,1.6-14.3c1.4-5.3,3.4-10.4,5.3-15.5c1.6-4.5,3.1-9.2,4-13.9c1-4.9,1.4-9.8,1.2-14.8
			c-0.1-4.9-0.9-10-0.2-14.9c0.3-2.4,1.1-4.7,1.6-7.1c0.5-2.3,0.9-4.7,1.1-7.1c0.5-5,0.6-10.1,0.8-15.1c0.2-5.1,0.3-10.1,1.2-15.1
			c0.4,2.2,0.4,4.4,0.9,6.6c0.7,3.3,1.6,6.7,2.2,10c0.5,3,0.8,6,0.8,9c0,3.1-0.1,6.2,0.2,9.3c0.6,6,2.5,11.7,2.1,17.8
			c-0.5,6.3-1.8,12.7-3,18.9c-0.6,3.1-1.2,6.2-1.8,9.3c-0.3,1.4-0.6,2.9-0.9,4.3c-0.2,1.2-0.5,2.3-0.7,3.5c-0.1,0.7-0.2,1.6-0.5,2.3
			c-0.2,0.4-0.3,0.2-0.7,0.4c-0.1,0.1-0.2,0.1-0.3,0.2c-0.1,0.2-0.2,0.4-0.3,0.6c-0.3,1-0.4,2.1-0.5,3.2c-0.7,6.2-0.9,12.5-0.9,18.7
			c0.1,6.9,0.3,13.8,0.7,20.7c0.3,6.9,0.9,13.7,1.3,20.5c0.2,2.6,0.3,5.1,0.5,7.7c0.1,0.7,0.1,1.7,0.6,2.2
			C210.2,440.9,210.3,440.9,210.4,441z"/>
	</g>
	<g id="POLYLINE_23_">
		<path class="st2" d="M436.3,376.2c-1.8,5.6-3.2,11.2-3.9,17c-0.7,5.9-0.6,11.9-0.1,17.9c0.5,6.3,1.4,12.5,2.5,18.7
			s2.3,12.4,3.6,18.6c1,4.7,2,9.4,3.1,14.1c1.9,8.8,3.9,17.6,5.8,26.4c1,4.5,2.3,9,2.9,13.6c0.2,1.9-0.3,3.7-0.7,5.5
			c-0.7,3.1-1.2,6.2-1.8,9.4c-1,5.9-1.8,11.8-2.2,17.8c-0.4,6-0.1,11.9,0.9,17.8c0.9,5.7,2.4,11.3,4,16.8c2,7,4.1,14.1,6.1,21.1
			c1.6,5.4,3.1,10.9,4.5,16.4c1.5,5.9,2.9,11.8,4,17.7c1.2,6,1.9,12,2.4,18.1c0.1,1.2,0.6,3.2,0,4.3c-0.3,0.5-1,0.8-1.3,1.3
			c-0.5,0.9-0.2,2.2,0,3.2c0.2,0.8,0.7,1.5,0.6,2.3c-0.2,1.8-1.7,3.7-2.6,5.2c-1.6,2.5-3.5,4.9-5.7,6.9c-1.9,1.7-4.2,3-6,4.8
			c-0.6,0.6-1.1,1.5-1,2.4c0.3,1.8,1.9,1.4,3.1,1.9c0.7,0.3,1.2,1,1.9,1.1c0.8,0.1,1.5-0.4,2.3-0.3c0.8,0.1,1.4,0.9,2.2,1.1
			c0.8,0.2,1.6,0.1,2.4,0.1c1.5-0.1,3-0.1,4.4-0.1c2.7,0,5.4,0.4,8.2,0.1c1.1-0.1,2.7-0.3,3.6-1.1c0.7-0.6,0.7-1.7,0.7-2.6
			c0.1-3.1,0.1-6.2,0.3-9.3c0.2-3,0.5-6,0.9-9c0.3-2.4,0.9-4.9,0.5-7.4c-0.8-6.1-1.4-12.3-1.8-18.5c-0.4-6.1-0.7-12.2-0.8-18.3
			c-0.1-6.2-0.1-12.3,0.1-18.5c0.2-7,0.5-14,0.7-21c0.2-5.5,0.3-10.9,0.1-16.4c-0.2-6.1-1-12.2-1.7-18.3c-0.7-5.4-1.9-11.1-1-16.5
			c0.5-2.7,1.2-5.4,1.6-8.2c0.4-3,0.7-6,0.9-9c0.4-5.1,0.6-10.2,0.7-15.4c0.2-7.2,0.4-14.5,0.6-21.7c0.2-7.8,0.4-15.7,0.6-23.5
			c0.1-5.1,0.3-10.1,0.5-15.2c0.1-3.4,0-6.8,0.4-10.1c0-0.3,0.2-0.8,0.5-0.3c0.1,0.1,0,0.5,0.1,0.6c0.1,1.1,0.2,2.2,0.2,3.3
			c0.1,1.5,0.2,3,0.3,4.5c0.1,2.1,0.2,4.2,0.3,6.3c0.3,8,0.6,16,1,24c0.2,6,0.6,12,0.9,18c0.3,5.7,0.6,11.4,0.5,17.1
			c-0.1,5.8-0.4,11.3,0.5,17c0.9,6,1.9,11.7,1.5,17.8c-0.4,6.2-1.4,12.4-1.9,18.6c-0.4,5.6-0.6,11.1-0.5,16.7
			c0.1,7.2,0.3,14.4,0.5,21.6c0.1,5.6,0.3,11.3,0.3,16.9c0,6.6,0,13.1-0.2,19.7c-0.2,5.8-0.6,11.5-1,17.2c-0.3,3.5-0.6,6.9-0.8,10.4
			c-0.1,1.9-0.1,3.6,0.3,5.5c0.5,2.2,0.4,4.7,0.4,7c0.1,3.1,0.1,6.1,0.4,9.2c0.2,2.1,0.1,4.6,0.9,6.7c0.4,1.1,1.2,1.8,2.3,2.1
			c1.8,0.5,3.8,0.2,5.7,0.2c0.6,0,1.1,0.1,1.7,0.1c0.9-0.1,1.7-0.4,2.6-0.6c1-0.2,1.5,0,2.4,0.4s1.8,0.1,2.8-0.1c1-0.2,2-0.5,3-0.5
			s2.1,0.1,3.1-0.1c1.4-0.2,3-1.1,4.1-2c1.2-1,0.5-3.2-0.5-4.2c-0.5-0.5-1.2-0.8-1.8-1.2c-1.1-0.6-2.1-1.3-3.1-2
			c-2-1.5-3.8-3.2-5.3-5.2c-1.4-1.9-2.6-4.1-3.3-6.4c-0.3-0.9-0.5-2-0.2-3c0.2-0.5,0.8-0.9,0.9-1.5c0.1-0.4-0.4-0.9-0.6-1.3
			c-0.9-1.4-0.9-3-1.1-4.7c-0.1-1-0.5-1.9-0.5-2.8c0.1-2.6,0.7-5.2,1.2-7.7c0.5-2.8,1.1-5.7,1.7-8.5c1.4-6.8,2.9-13.6,4.5-20.4
			c1.3-5.9,2.9-11.8,4.5-17.6c1.7-6.3,3.6-12.5,5.4-18.7c1.6-5.5,3.3-11,4.5-16.6c1.2-5.7,1.2-11.4,0.6-17.2c-0.6-6-1.6-12-2.6-18
			c-0.5-3.3-1.1-6.6-1.7-9.9c-0.4-2-1-4.1-0.6-6.1c0.6-2.9,1.6-5.7,2.3-8.5c0.6-2.4,1.2-4.9,1.8-7.3c1.3-5.7,2.7-11.4,4-17.2
			c1.8-8,3.5-15.9,5.3-23.9c1.1-5.2,2.3-10.4,3.3-15.6c1.1-5.9,1.7-12,1.9-18c0.1-6-0.2-12-1.2-17.9c-0.5-2.9-1-5.7-1.7-8.5
			c-0.4-1.5-0.7-3-1.1-4.6c-0.3-1-1-2.6-0.9-3.6c0.1-0.7,0.1-1.1-0.1-1.8c-0.3-1.1-0.8-2.2-1.1-3.4c-0.2-0.6-0.3-1.4-0.7-2
			c-0.2-0.3-0.5-0.4-0.7-0.7c-0.4-0.6-0.5-1.6-0.8-2.3c-0.3-0.8-0.6-1.6-0.9-2.4c-0.4-1.2-0.9-2.4-1.3-3.5c-2.2-5.9-4.9-11.8-6.3-18
			c-1.3-5.7-1-11.4-0.2-17.1c0.8-6.2,2-12.4,3.2-18.6c0.6-3,1.2-5.9,1.7-8.9c0.3-1.7,0.7-3.4,1-5.1c0.2-1,0.7-1.7,1.1-2.6
			c0.2,5.1,0.3,10.1,0.5,15.2c0.1,4.7,0.3,9.4,0.4,14.1c0.2,5.5,0.4,11.1,0.7,16.6c0.2,4.2,0.6,8.4,1.6,12.5c1,4.3,2.1,8.6,3.1,12.8
			c1.7,7,3.4,13.9,5.1,20.9c0.8,3.4,1.6,6.7,2.4,10.1c1.2,5.1,2.4,10.1,3.3,15.3c0.2,1.4,0.5,2.8,0.2,4.2c-0.4,1.9-1,3.8-1.4,5.8
			c-1,4.8-1.9,9.7-2.5,14.5c-0.3,2-0.5,4-0.2,6c0.4,2.2,1.1,4.4,1.7,6.5c0.2,0.7,0.8,3.5,2,3.5c0.7,0,0.9-0.9,1-1.4
			c0.1-0.8-0.1-1.7-0.3-2.5c-0.4-1.6-0.9-3.1-1-4.8c0-1.7,0.3-3.3,0.8-4.9c0.3-0.9,0.6-2.1,1.4-2.7c0.3-0.3,0.6-0.3,1-0.1
			c0.4,0.3,0.6,0.9,0.7,1.3c0.6,1.8,0.7,3.7,0.8,5.5c0.3,3.6,0.5,7.7-1.3,11c-0.8,1.5-2,2.7-2.8,4.1c-0.2,0.4-0.4,0.8-0.4,1.2
			c0.1,0.4,0.3,0.7,0.6,0.8c0.5,0.1,1.2-0.1,1.6-0.3c1.6-0.6,3-1.7,4.3-2.7c3.1-2.6,5.1-5.8,6.5-9.6c1.3-3.6,2.2-6.9,1.7-10.7
			c-0.7-5.1-2.1-10.2-3.3-15.2c-1-4.3-1.9-8.7-2.4-13.2c-0.5-4.2-0.5-8.4-0.5-12.6c0-5.4,0.1-10.8,0-16.2c-0.1-5-0.2-9.9-0.5-14.8
			c-0.3-5-0.5-10-1.1-14.9s-1.8-9.4-3.2-14.1c-1.2-4.3-1.7-8.7-1.9-13.1c-0.2-4.9-0.2-9.8-0.2-14.7c0-4.2,0.1-8.5,0.1-12.7
			c0.1-6.9,0.2-13.8,0.3-20.7c0.1-4.2,0.1-8.3,0.1-12.5c0-4.6,0-9.2-0.7-13.7c-0.5-3.3-1.5-6.2-4-8.4c-2.8-2.4-6.4-4.2-10-4.7
			c-2.2-0.3-4.4-0.4-6.5-1c-2.2-0.6-4.3-1.5-6.4-2.5c-4.1-2-8.2-4.3-11.7-7.2c-1.6-1.3-3.7-3-4.5-4.9s-1.1-4.2-1.4-6.2
			c-0.1-0.7-1.1-7.5-0.3-7.6c0.4,0,0.8,1.3,0.8,1.4c0.9,2.1,1.7,4.3,3.1,6.2c0.3,0.5,3.2,3.9,3.6,3.2c0.1-0.2-0.1-0.6-0.2-0.8
			c-0.3-1-0.7-2.1-1.1-3.1c-0.7-2-1.3-4-1.4-6.1c0-0.4-0.2-1.8,0.5-1.8c0.5,0,1.3,1.2,1.6,1.5c0.7,0.8,1.5,1.4,2.4,1.9
			c1.3,0.7,2.9,1.2,4.4,1.5c0.4,0.1,1.3,0.3,1.6,0c0.7-0.6-1.1-1.9-1.4-2.2c-1.6-1.9-1.5-4.1-1.6-6.4c0-0.9-0.1-1.7-0.3-2.6
			c0-0.2-0.3-1-0.2-1.3c0.1-0.2,0.1-0.2,0.3-0.2s0.6,0.4,0.7,0.5c0.8,0.7,1.6,1.5,2.4,2.2c0.5,0.4,1.3,1.1,2,1.1c1,0,0-0.8-0.3-1.1
			c-2.2-2-3.2-4.9-4-7.7c-1.1-4.2-1.2-8.5-1.1-12.9c0.1-5.1,0.1-10.1-0.2-15.2c-0.3-4.7-0.7-9.4-1.6-14c-0.8-3.8-2-7.7-4.5-10.7
			c-1-1.2-2.2-2.5-3.6-3.3c-1.2-0.7-2.8-1-4.2-1.2c-1.2-0.2-2.2,0-3.3,0.2c-0.3,0.1-0.6,0.1-0.9,0c-0.6-0.2-1-0.9-1.5-1.3
			c-0.8-0.6-1.7-1-2.7-1.2c-3.8-1-8.2-0.6-12,0.3c-4,1-7.7,2.8-10.7,5.5c-3,2.8-5.1,6.4-6.5,10.3c-1.6,4.3-2.5,8.8-3,13.3
			c-0.6,4.8-0.6,9.5-0.3,14.3c0.3,4.5,1.2,9.3,0.3,13.8c-0.6,3.4-2.5,6.5-5,8.9c-0.6,0.6-1.3,1.2-2,1.7c-0.1,0.1-1,0.5-0.9,0.7
			c0,0.2,0.5,0.1,0.7,0c2.5-0.6,5.2-2.2,6.7-4.3c0.4-0.6,0.8-1.3,1.1-2c0.1-0.2,0.4-1.1,0.6-1.2c0.3-0.1,0.3,0.2,0.3,0.5
			c0.3,1.9,0.1,4.1,0,6.1c-0.1,1.4-0.2,2.9-0.8,4.2c-0.3,0.8-3.8,5.4-3.6,5.5c0.3,0.3,2.1-0.9,2.3-1c1.4-0.8,3-1.6,4.2-2.8
			c0.2-0.2,0.5-0.8,0.7-0.8c0.4,0.1,0.6,1.3,0.7,1.6c0.2,1.1,0.2,2.3,0,3.4c-0.2,1-0.7,1.9-1.1,2.8c-0.3,0.9,0.3,0.6,1,0.3
			c1-0.5,2-1.3,2.7-2.1c0.4-0.4,0.7-0.8,1-1.3c0.5-0.7,0.8-1.8,1.4-2.5c0.3-0.3,0.2-0.3,0.3,0.1c0.1,0.8-0.3,1.8-0.5,2.5
			c-0.2,0.6-0.3,1.3-0.6,1.9c-0.4,0.9-1.2,1.3-1.7,2c-0.1,0.2-0.5,0.7-0.4,1c0.3,0.7,1.7-0.5,1.9-0.7c1.6-1.2,3.1-2.6,4.3-4.2
			c1-1.4,1.6-2.9,2.1-4.6c-0.5,4.3-1.5,8.6-3.8,12.4c-2.2,3.5-5.5,6.2-9,8.4c-4,2.5-8.4,4.6-12.9,6.1s-9.2,2.1-13.6,3.5
			c-2.1,0.7-3.9,1.8-5.2,3.6c-2.1,2.9-2.7,6.5-3.2,9.9c-0.7,4.8-0.8,9.7-0.9,14.6c-0.1,3.5-0.1,7,0,10.6c0.1,6,0.1,12.1,0.2,18.1
			c0.1,6.9,0.1,13.8,0.2,20.6c0,3.4,0.1,6.8,0,10.2c0,2.4-0.1,4.8-0.4,7.2c-0.2,2.2-0.8,4.2-1.5,6.3c-1.4,4.5-2.6,9.1-3.5,13.7
			c-0.9,4.8-1.3,9.6-1.4,14.4c-0.1,4.4,0,8.9,0,13.3c0.1,5.4,0.2,10.7,0.2,16.1c0,4.9,0,9.9-0.4,14.8c-0.4,4.8-1.6,9.3-3,13.9
			c-1.4,4.3-2.4,8.8-2.9,13.4c-0.3,3.4-0.2,6.9,1.2,10.1c1.5,3.6,4,6.8,6.7,9.5c1.2,1.2,2.6,2.5,4.1,3.3c0.4,0.2,0.9,0.4,1.3,0.4
			c0.5-0.1,0.8-0.5,0.8-0.9c0.1-0.8-0.2-1.6-0.6-2.3c-0.9-1.6-2.1-3-2.8-4.8c-1.2-3.1-1.1-6.4-0.6-9.6c0.3-1.7,0.6-3.6,1.3-5.2
			c0.2-0.3,0.6-1.2,1.1-1.3c0.2,0,0.2,0.1,0.3,0.2c0.4,0.4,0.5,1.3,0.7,1.8c0.3,1,0.6,2,0.9,3c0.3,1.3,0.4,2.6,0.3,4
			c-0.2,1.5-0.7,3-0.7,4.6c0,0.4-0.1,1.9,0.6,1.9c0.3,0,0.5-0.4,0.7-0.6c1-1.4,1.6-3.2,2.2-4.7c0.5-1.3,1.1-2.7,1.2-4.1
			c0.1-1-0.2-2.1-0.4-3.1c-1-5.5-1.9-10.9-3-16.4c-0.8-4.3-0.9-8.6-0.3-12.9c0.6-4.7,1.5-9.3,2.6-13.9c1-4.8,2.1-9.6,3.3-14.4
			c1.3-5.3,2.6-10.7,3.9-16c1.2-4.6,2.3-9.3,3.7-13.8c0.6-2.2,1.4-4.3,1.8-6.6c0.4-2.3,0.5-4.7,0.6-7.1c0.3-5,0.3-10,0.4-15.1
			c0.1-4.2,0.2-8.5,0.3-12.7c0.1-5.4,0.2-10.9,0.3-16.3c0.3,0.8,0.9,1.4,1.1,2.3c0.4,1.9,0.7,3.9,1,5.8c0.5,3,1,6.1,1.5,9.1
			c1.2,7.2,2.4,14.4,3.1,21.7c0.3,3.3,0.4,6.6,0,9.8c-0.4,3.2-1.2,6.3-2.2,9.4c-0.9,2.8-2,5.6-3.1,8.4c-0.9,2.2-1.7,4.3-2.6,6.5
			c-0.4,1.1-0.9,2.2-1.3,3.3c-0.2,0.6-0.4,1.4-0.8,2s-0.9,1-1.2,1.7c-0.7,1.4-2,3.6-1.7,5.3C436.1,375.8,436.3,376,436.3,376.2z"/>
	</g>
</g>
</svg>
