<?xml version="1.0" encoding="utf-8"?>
<!-- Generator: Adobe Illustrator 28.4.1, SVG Export Plug-In . SVG Version: 6.00 Build 0)  -->
<svg class="cloth_part" version="1.1" id="Layer_1" xmlns="http://www.w3.org/2000/svg" xmlns:xlink="http://www.w3.org/1999/xlink" x="0px" y="0px"
	 viewBox="0 0 404 404" style="enable-background:new 0 0 404 404;" xml:space="preserve">
<g id="SELECT">
	<g name="shirt">
		<polygon class="st0" points="104.2,77.6 125.1,97.8 128.3,98.2 133.3,93.7 137.4,77.7 164.4,87.9 171,104 172.7,118.7 175.5,136.8 
			171.3,153.2 155.7,154.7 137.7,152.7 138.5,131.9 116,128.4 105.3,130.1 106.9,140.4 116.7,140.6 126.8,145.9 125.1,158 
			135,153.1 155.7,156.4 159,184.7 160.5,198.4 90.6,199.1 95.7,163.4 87.9,154.5 79.3,130.8 77.6,99.7 89.5,86.4 		"/>
	</g>
	<g name="jeans">
		<polygon class="st0" points="176.9,362.3 167.3,368.5 158.1,368.9 156,361.2 158.2,357 155.8,351 151,321.7 149.6,301.5 149.3,288 
			128.4,234.1 123.1,250.5 118,290.3 114,297.4 115.3,331.3 113.6,345.9 116,357.3 118,362.8 107.1,359 99.5,364.3 98,354.3 
			90.6,305.1 94.7,277.8 95.6,244.8 90.6,199.1 160.5,198.4 165.5,214.3 165.9,222 169.7,235.6 171.4,275.2 172.1,295.1 
			175.5,310.6 174.5,333.9 176.2,351.1 		"/>
	</g>
	<g name="t-shirt">
		<polygon class="st0" points="316,92.2 307.3,91.1 305.3,99.6 298.1,107 286.2,109.1 277.8,106.5 272.7,100.5 269.5,92.1 261.2,94.1 
			259.8,168.1 282.4,176.7 313.1,174.6 316,163.4 313.5,154.5 314.3,109.6 		"/>
	</g>
	<g name="pants">
    	<polygon class="st0" points="276.81 378.05 265.44 322.05 262.63 281.96 251.01 221.35 253.84 207.2 261.51 188.55 284.11 197.13 314.81 195.05 312.91 213.25 313.31 234.75 316.31 243.6 316.31 268.9 316.41 303.75 307.71 363.35 304.91 378.55 299.28 379.19 292.11 375.75 298.11 312.15 283.11 240.85 283.21 310.45 292.11 375.75 276.81 378.05"/>
	</g>
	<g name="shoes">
		<polygon class="st0" points="303.2,358.1 290.4,355.3 275.1,357.6 276.3,366 275.2,381 306.3,382.2 		"/>
	</g>
	<g name="shoes">
		<polygon class="st0" points="118,362.8 107.1,359 99.5,364.3 97.2,382.5 116.6,382.9 		"/>
		<polygon class="st0" points="158.1,368.9 167.3,368.5 176.9,362.3 187.9,370.4 202,376 202.8,382.2 158.8,382.2 		"/>
	</g>
</g>
<g id="AG-HUMANS">
	<g id="POLYLINE_107_">
		<path class="st1" d="M155.6,131.9c-1.1-3.3-1.9-6.8-2.1-10.2c-0.3-3.4,0-6.8,0.4-10.2c0.2-2,0.3-4,0.2-5.9"/>
	</g>
	<g id="POLYLINE_108_">
		<path class="st1" d="M105.3,130.1c1.3-0.2,2.5-0.3,3.7-0.3c0.7,0,1.4,0,2-0.2c0.9-0.2,1.7-0.6,2.6-0.9c0.8-0.3,1.5-0.3,2.4-0.3
			c2.3-0.1,4.6,0.4,6.8,0.9c2.7,0.6,5.4,1.5,8,2.1c2.8,0.7,5.6,1.4,8.5,1.8"/>
	</g>
	<g id="POLYLINE_109_">
		<path class="st1" d="M115.6,140.2c1.5,0.4,3,1,4.4,1.7c1.5,0.8,3,1.7,4.5,2.6c2.9,1.6,5.9,3.2,8.9,4.6c1.7,0.8,3.5,1.6,5.3,2.3"/>
	</g>
	<g id="POLYLINE_110_">
		<path class="st1" d="M101.4,111.2c0.9,2.8,1.6,5.6,2.3,8.4c0.6,3,1.1,5.9,1.5,9s0.6,6.1,0.9,9.2c0.1,0.7-0.1,2.3,0.8,2.6
			s2.1,0.1,3.1,0c1.5-0.1,3-0.1,4.5-0.1c0.4,0,0.8,0,1.1,0"/>
	</g>
	<g id="POLYLINE_111_">
		<path class="st1" d="M126.8,145.9c0.1,3.6-0.9,7.1-1.5,10.6c-0.2,1.5-0.4,3.2-2.1,3.6c-1.3,0.4-2.8,0.3-4.1,0.6
			c-1.8,0.4-3.6,0.8-5.5,1.1c-3.9,0.6-7.6,0.9-11.6,1.2c-1.6,0.1-3.2,0.3-4.8,0.4c-0.9,0.1-1.8,0-2.7-0.4c-0.9-0.4-1.6-1.2-2.3-1.9
			c-1.1-1.5-2-3-2.8-4.6c-1.7-3.1-3.3-6.3-4.7-9.7c-1.4-3.4-2.5-6.9-3.4-10.4c-0.8-3.5-1.4-7.1-1.8-10.7c-0.5-3.9-0.9-7.7-1.4-11.6
			c-0.4-3.4-0.6-6.9-0.4-10.3c0.2-3.3,1.1-6.5,3-9.2c2-2.8,4.9-4.6,7.3-7c1.3-1.2,2.6-2.3,4.1-3.1c1.6-0.9,3.2-1.8,4.8-2.7
			c1.5-0.8,2.9-1.6,4.3-2.6c0.9-0.6,1.9-1.5,3-1.6c0.3-0.1,0.5,0,0.8,0.2c0.3,0.3,0.4,0.6,0.6,0.9c0.4,0.8,0.9,1.5,1.4,2.3
			c2,2.8,4.3,5.4,6.9,7.6c1.4,1.3,2.9,2.4,4.3,3.6s2.7,2.5,4.2,3.7c1.6,1.3,3.7,3.1,5.9,2.3c1.8-0.6,2.9-2.6,3.8-4.2
			c1.7-3.2,3.1-6.8,4.5-10.2c0.4-1.2,0.9-2.4,1.1-3.6c0.1-0.6-0.1-1.8,0.4-2.3c0.4-0.4,1.3,0,1.8,0.1c1.6,0.4,3.3,1.1,4.9,1.7
			c3.4,1.4,6.8,3.1,10.1,4.5c1.5,0.6,3.1,1.2,4.7,1.6c1.3,0.3,2.6,0.6,3.7,1.3c2.6,1.6,4.2,4.5,5.4,7.2c1.4,3.1,2,6.3,2.3,9.7
			c0.3,3.5,0.1,7,0.8,10.4c0.7,3.5,2.1,6.8,2.8,10.3c0.6,3.5,0.9,7.1,0.9,10.7c0,3.5-0.2,7.1-0.9,10.5c-0.5,2.5-1.3,5.5-3.3,7.3
			c-1.9,1.7-4.7,1.8-7.2,1.9c-3.5,0.1-7.2-0.1-10.7-0.3c-3.7-0.2-7.5-0.4-11.2-1.1c-1.1-0.2-3.4-0.4-3.6-1.8
			c-0.2-1.1,0.4-2.3,0.6-3.2c0.3-1.6,0.5-3.4,0.6-5s0-3.3-0.2-4.9s-0.6-3.2-0.4-4.9c0.1-1,0.6-1.3,1.5-1.4c1.7-0.2,3.4,0,5.1,0
			c1.9,0,3.9-0.1,5.8-0.2c3.5-0.2,7-0.4,10.4-0.9"/>
	</g>
	<g id="POLYLINE_00000180359616681846396740000011896278739337478023_">
		<path class="st1" d="M125.1,158c3.4-1.3,6.8-2.8,9.9-4.9c0.9-0.6,1.8-1.3,2.7-2"/>
	</g>
	<g id="POLYLINE_00000112614142592588115410000004533682883231414401_">
		<path class="st1" d="M95.7,163.4c0.1,2.4-0.4,4.9-1.6,7.1c-0.4,0.8-1,1.6-1.3,2.5s-0.2,1.8-0.2,2.8c0,1.2-0.2,2.3-0.5,3.4
			c-0.4,1.4-1.1,2.7-1.3,4.1c-0.1,0.6-0.2,1.3-0.1,2c0.1,0.9,0.7,1.6,1.1,2.5c0.6,1.3,0.5,2.5,0.3,3.9c-0.2,0.7-0.5,1.5-0.6,2.1
			c-0.2,1.1-0.1,2.4-0.1,3.5c0,0.9,0.3,1.5,1.2,1.7c1,0.3,2,0.1,3,0.1c1.8-0.1,3.5-0.1,5.4-0.3c3-0.1,5.9,0,8.9,0.2
			c3.5,0.2,7.1,0.4,10.6,0.7c2.9,0.2,5.8,0.3,8.7,0.4c3.2,0.1,6.3-0.1,9.5-0.3c3.2-0.2,6.4-0.6,9.7-1c3-0.3,5.9-0.4,8.9-0.1
			c1.1,0.1,2.3,0.3,3.3,0.2c0.3-0.1,0.6-0.1,0.9-0.4c0.2-0.2,0.3-0.5,0.3-0.9c0.1-1.1-0.3-2.3-0.4-3.3c-0.3-1.4-0.5-2.8-0.6-4.2
			c-0.1-1.6-0.3-3.2-0.5-4.8c-0.4-2.6-1.6-4.9-1.6-7.5c0.1-3.2-0.6-6.3-1.2-9.4c-0.5-3-0.7-5.9-0.9-8.9c-0.1-1.5-0.1-3.1-0.1-4.6"/>
	</g>
	<g id="POLYLINE_00000013173481877734317870000014849989462523997631_">
		<path class="st1" d="M115.1,45.9c-1.2-0.6-2.5-0.6-3.7-0.3c-1.1,0.4-1.9,1.3-2.3,2.3c-0.5,1.5-0.1,3,0.6,4.4s1.8,2.6,3,3.5
			c0.7,0.6,1.6,1.3,2.5,1.6c1.2,0.3,2.6,0.1,3.2-1.1c0.1-0.1,0.1-0.3,0.1-0.4"/>
	</g>
	<g id="POLYLINE_00000033332075506976393440000017503738618466336649_">
		<path class="st1" d="M115.1,45.9c1.5,0.6,2.8,1.8,3.4,3.2c1.1,2.4,1.1,5.3,1.5,7.8c0.4,2.9,1.1,5.8,2.1,8.5
			c0.6,1.4,1.3,2.7,2.6,3.5c1.9,1.1,4.4,1.3,6.4,1.3c2.7,0,5.4-0.4,8-1.1c1.3-0.3,3.2-0.5,4-1.7c0.5-0.7,0.6-1.8,0.4-2.7
			c-0.1-0.4-0.2-0.9-0.4-1.3c-0.2-0.3-0.4-0.6-0.4-1.1s0.1-1.1,0.4-1.6c0.2-0.3,0.6-0.6,0.8-1c0.2-0.5,0.1-1.2,0.1-1.7
			c0-0.7,0.2-1.5,0.3-2.3s-0.1-1.7-0.9-2c-1.1-0.4-2.5,0.1-3.5,0.7c-1.7,1-3.2,2.7-5.2,3.2c-1.5,0.3-3-0.2-4.3-0.9
			c-2.5-1.3-4.9-3.2-6.5-5.4c-0.9-1.2-1.2-2.3-1.3-3.8c-0.1-2.1-0.9-4.2-0.4-6.3c0.3-1.4,1.1-2.6,0.8-4c-0.3-1.7-1.2-3.2-0.9-5
			c0.1-0.9,0.5-1.6,1.3-2.1c1.5-1.1,3.6-1.3,5.4-1.4c1.5-0.1,2.9-0.1,4.4-0.1c1.4,0.1,2.8,0.3,4.2,0.2c0.5,0,1.6-0.1,1.5-0.8
			c-0.1-0.6-0.6-1.1-0.7-1.6c-0.1-0.4,0.1-0.8-0.1-1.1c-0.1-0.4-0.5-0.7-0.8-1.1c-0.3-0.3-0.4-0.6-0.5-1.1c-0.1-0.4,0-0.9-0.2-1.3
			c-0.3-0.4-0.7-0.5-1.1-0.9c-0.4-0.3-0.6-0.9-1.2-1.1c-0.7-0.4-1.6-0.3-2.4-0.5c-1.5-0.4-2.8-1.4-4.4-1c-0.5,0.1-0.9,0.4-1.5,0.6
			c-0.6,0.1-1.3,0-2,0.1c-1.1,0.2-2,0.6-3,0.8c-1.3,0.2-2.6,0.1-3.9,0.3c-2.1,0.2-4.5,0.8-6.3,2c-2,1.4-3.5,3.4-5.7,4.6
			c-1.3,0.7-2.5,1.3-2.9,2.8c-0.3,1.1-0.3,2.3-0.7,3.3c-0.4,1.3-1,2.4-1.5,3.5c-0.9,2.1-1.1,4.4-0.9,6.7c0.3,2.5,1.1,4.7,2.4,7
			c1.5,2.7,3.4,5,4.9,7.6c0.6,1.1,1.3,2.3,1.8,3.5c0.3,0.6,0.5,1.7,1.1,2.3c0.7,0.7,0.8-1.3,0.8-1.6c0.1-1.3,0-2.5-0.1-3.8
			c-0.1-1.7-0.2-3.4-0.3-5.1"/>
	</g>
	<g id="POLYLINE_00000019678113626412335240000006490112586962239678_">
		<path class="st1" d="M105,77.5c1.6-0.9,3-2.3,3.9-4c1-2,1.2-4.4,1.2-6.6c0-1.2-0.1-2.4-0.3-3.5"/>
	</g>
	<g id="POLYLINE_00000150101936410654526650000018343372232846006701_">
		<path class="st1" d="M133.4,70.1c-0.1,1.6,0.3,3.2,0.7,4.7c0.3,0.8,0.6,1.4,1.3,1.8c0.8,0.5,1.7,0.9,2.6,1.3"/>
	</g>
	<g id="POLYLINE_00000115478136347211609370000016057427378231825552_">
		<path class="st1" d="M138.5,28.7c0.7,1.7,1.3,3.4,2,5.2c0.4,1.1,1.1,2.1,1.3,3.4c0.4,2-0.4,4.3,0.3,6.3c0.3,1.1,1.1,2,1.8,2.8
			c0.7,0.9,1.8,1.5,2.3,2.5c0.4,0.8,0.4,2.4-0.4,2.9c-0.4,0.3-1.1,0.1-1.5,0.3c-0.4,0.3-0.1,1.1-0.1,1.5c0,0.2,0.1,0.4,0.1,0.6"/>
	</g>
	<g id="POLYLINE_119_">
		<path class="st1" d="M159,369.1c-0.3,0.3-0.4,0.8-0.5,1.2c-0.3,0.9-0.3,1.9-0.4,2.8c-0.2,2-0.7,4.4-0.3,6.4c0.4,1.8,1.6,3,3.4,3.4
			c2.1,0.4,4.6,0.3,6.8,0.4c2.6,0,5.1,0,7.6,0c5.9,0,11.8,0.1,17.8,0c2.5,0,4.9-0.1,7.4-0.5c1.3-0.3,2.7-0.6,3.4-1.7
			c0.6-0.9,0.6-2.1,0.2-3.2c-0.6-1.2-1.8-1.8-3-2.1c-2.4-0.8-4.8-1.3-7.2-2c-2.3-0.8-4.4-1.9-6.3-3.4c-2-1.6-3.8-3.5-5.7-5.2
			c-1.2-1-2.5-2-4.1-2.3c-3.4-0.6-6.4,2.8-8.9,4.6c-1.5,1.1-3,1.5-4.7,1.8c-1,0.1-2,0.2-3,0.1c-0.6,0-1.3-0.3-2-0.1
			C159.3,368.9,159.1,369,159,369.1z"/>
	</g>
	<g id="POLYLINE_120_">
		<path class="st1" d="M177.3,362.5c0.1-1,0.2-1.9-0.1-2.8c-0.3-1-0.9-1.8-1-2.9c-0.1-0.6,0.2-1,0.4-1.5c0.3-0.5,0.4-1,0.4-1.6
			c0-0.7-0.1-1.5-0.4-2.1c-0.3-0.8-0.9-1.5-1.2-2.3c-0.3-1.1,0.1-2.3,0.1-3.4c0.1-1.3-0.1-2.7-0.4-3.9c-0.3-1-0.9-1.9-1-2.9
			c-0.3-1.5,0-3.2,0-4.7c0.1-4,0.1-7.8,0.1-11.8c0-3.5,0.1-7,0-10.6c0-1.7-0.1-3.4-0.3-5.1s-0.5-3.4-0.8-5.1c-0.2-1.1,0-2.3-0.3-3.4
			c-0.2-1-0.7-1.9-0.9-2.9c-0.3-2,0.6-4,0.2-6.1c-0.2-1.1-0.6-2.1-0.6-3.3c0.1-0.7,0.6-1.3,0.7-2c0.3-1.4,0-2.9-0.1-4.2
			c-0.1-1.7-0.1-3.4-0.3-5.1c-0.2-1.6-0.9-3.2-1.1-4.8c-0.2-1.3,0-2.6-0.1-3.9c-0.1-1.2-0.6-2.3-0.7-3.4c-0.1-1.1,0.3-2,0.5-3
			c0.3-1.5,0.4-3.1,0.4-4.6c0-1.9,0-3.9-0.1-5.8c-0.1-3.4-0.1-7-0.4-10.4c-0.3-3.4-0.9-6.8-2-10.1c-0.5-1.8-1.3-3.5-1.8-5.3
			c-0.3-0.9-0.8-1.9-0.8-2.9c0-0.8,0.4-1.6,0.4-2.4c0.1-1.3-0.3-2.6-0.6-3.9c-0.9-3.5-2.3-6.9-3.4-10.3c-0.5-1.6-1-3.3-1.5-4.9"/>
	</g>
	<g id="POLYLINE_121_">
		<path class="st1" d="M100.8,366.2c-0.6,1.9-1.5,3.8-2.1,5.7c-0.5,1.5-1.3,3-1.8,4.5c-0.6,1.7-1.1,4.6,0.3,6.1c1.5,1.4,4.2,1,6,1
			c2.3-0.1,4.5,0,6.8,0c1.8,0,3.6,0.1,5.4-0.1c1.3-0.1,2.4-0.5,2.5-2c0.2-1.5-0.2-3-0.4-4.4c-0.3-1.8-0.4-3.5-0.4-5.3
			c0-0.9,0.1-1.6,0.3-2.5c0.1-0.7,0.4-1.4,0.6-2.1c0.1-0.6,0.1-1.4-0.1-2c-0.5-1.5-1.8-2.4-3.3-3c-2.8-1.1-6.4-1.6-9.4-0.9
			c-1.6,0.4-2.9,1.6-3.6,3.2C101.2,364.9,101,365.6,100.8,366.2z"/>
	</g>
	<g id="POLYLINE_122_">
		<path class="st1" d="M91.9,198.7c-0.3,3-0.4,6.1-0.4,9.1c0,3.2,0.1,6.4,0.3,9.7c0.1,3,0.4,5.9,0.8,8.9c0.4,3.2,1,6.3,1.6,9.4
			c0.5,3,1.1,5.9,1.4,9c0.3,3.2,0.3,6.3,0.4,9.6c0.1,2.9,0.6,5.8,0.5,8.6c0,1.3-0.3,2.5-0.4,3.8c-0.1,1.5,0.1,2.8,0.1,4.3
			c0,1.1,0.1,2.1-0.2,3.2c-0.2,0.9-0.6,1.6-0.8,2.5c-0.1,0.9,0.1,1.7,0.2,2.5c0.1,1,0.2,2,0.1,3c-0.2,1.4-0.5,2.8-0.6,4.2
			c-0.1,1.3,0.1,2.5-0.1,3.7c-0.1,0.9-0.4,1.7-0.8,2.6c-0.4,1-0.6,1.9-0.6,3c-0.1,1.4-0.1,2.7-0.3,4.1c-0.2,1.6-0.4,3.2-0.6,4.8
			c-0.2,2.9-0.1,5.9,0.2,8.8c0.3,2.9,0.6,5.8,0.9,8.7c0.4,3.4,0.9,6.8,1.4,10.2c0.4,3,0.9,6.1,1.5,9.2c0.5,2.9,1.5,5.8,1.8,8.7
			c0.1,1.5,0.3,2.8,0.3,4.3c0,1.2-0.2,2.3-0.3,3.5c0,1,0.3,1.9,0.6,2.9c0.3,1.1,0.3,2.3,0.6,3.3c0.3,0.9,0.8,1.8,1.3,2.7"/>
	</g>
	<g id="POLYLINE_123_">
		<path class="st1" d="M159,369.1c-0.9-0.9-1.3-2-1.3-3.3c0.1-0.9,0.9-2,0.4-3c-0.6-0.9-1.8-1.5-1.8-2.7c0-0.6,0.3-1.1,0.6-1.6
			c0.4-0.6,1.1-0.8,1.6-1.3c0.8-0.7,0.6-2.1,0.1-3c-0.8-1.3-2.1-1.8-2.8-3.2c-0.7-1.5-0.2-3.1-0.3-4.7c-0.1-0.9-0.5-1.5-0.9-2.3
			c-0.5-1.3-0.9-2.7-1.3-4c-0.6-2.8-0.1-5.6-0.5-8.4c-0.4-3.3-1.2-6.6-1.8-9.9c-0.6-2.7-1.1-5.5-1.1-8.3c0-2.6,0.7-5.3,0.3-7.8
			c-0.3-1.4-1-2.7-0.6-4.1s0.9-2.5,0.3-3.9c-0.3-0.7-0.8-1.5-1-2.3c-0.1-0.6-0.1-1.4,0-2.1c0.3-1.8,1.1-3.4,0.4-5.2
			c-0.4-1.3-1-2.4-1.3-3.7c-0.4-1.5-0.6-3.1-1-4.7c-0.6-2.6-1.6-5.1-2.7-7.5c-1.3-3.2-2.7-6.4-3.9-9.6c-1.1-2.8-2.3-5.6-3.2-8.5
			c-1.3-3.6-2.5-7.3-3.9-10.9c-0.9-2.6-1.8-5.3-3.3-7.6c-0.3-0.4-0.9-1.5-1.6-1.4c-1,0.1-1.5,2-1.6,2.8c-1.1,3.3-1.8,6.7-2.8,10
			c-0.7,2.8-1.5,5.7-1.8,8.5c-0.4,3.1-0.4,6.2-0.9,9.3c-0.4,3.2-1.4,6.4-2.3,9.7c-0.3,1.3-0.6,2.5-0.7,3.8c-0.1,1.5-0.1,2.8-0.2,4.3
			c-0.3,3-0.9,6.2-1.6,9.2c-0.5,2-2,3.6-2.5,5.7c-0.7,2.8,0.1,5.9,0.6,8.7c0.4,2.9,0.5,5.8,0.4,8.8c-0.1,3.2-0.4,6.4-0.4,9.8
			c0,1.4,0,2.8,0.2,4.2s0.5,2.9,0.6,4.4c0,2.8-0.9,5.4-1.8,8c-0.5,1.6-0.9,3,0,4.6c0.7,1.3,1.6,2.3,2.1,3.6c0.5,1.1,0.9,2.4,0.9,3.6
			c0.1,0.8-0.1,1.5-0.3,2.3c-0.1,0.6-0.4,1.3-0.3,1.9s0.4,1.1,0.9,1.6c0.6,0.7,1.2,1.4,1.5,2.3c0.6,1.6,0.2,3.6-0.5,5.2"/>
	</g>
	<g id="POLYLINE_125_">
		<path class="st1" d="M259.8,168.1c-0.5-1.9-0.9-4-0.5-5.9s1.1-3.9,1-5.9c-0.1-2.3-0.5-4.6-0.6-6.8c-0.1-2.1,0-4.2,0.3-6.3
			c0.4-2.3,0.9-4.6,1.3-6.8c0.4-2.1,0.6-4.4,0.6-6.6c0.1-2.1,0.1-4.4-0.1-6.5c-0.2-2.5-0.4-4.9-0.4-7.4c0-2.4,0.3-4.8,0.4-7.2
			c0.2-2.3,0.3-4.5,0.3-6.7c0-2.3-0.3-4.5-0.3-6.8c0-0.6-0.1-1.4,0.4-1.8c0.3-0.2,0.6-0.2,0.9-0.3c0.9-0.1,1.8-0.2,2.7-0.4
			c1.1-0.3,2.1-0.7,3.2-1.1c0.3-0.1,0.6-0.3,0.9-0.2c0.2,0.1,0.2,0.1,0.3,0.3c0.1,0.4,0.1,0.9,0.2,1.3c0.1,0.5,0.2,1.1,0.3,1.6
			c0.4,2,1.1,4,2,5.9c1.7,3.6,4.6,6.3,8.5,7.6c3.5,1.3,7.5,1.4,11.2,0.6c3.7-0.7,7.8-2.1,10.4-4.9c2.7-2.7,3.4-7,4.2-10.6
			c0.1-0.6,0.1-2,0.9-2.3c0.3-0.1,0.6-0.1,0.9-0.1c1.2,0,2.3,0,3.5,0.1c0.9,0,1.8,0.1,2.7,0.3c0.4,0.1,0.9,0.2,1.3,0.4
			c0.4,0.3,0.3,0.6,0.1,1.1c-0.6,2.1-1.1,4.2-1.5,6.4c-0.3,2.3-0.4,4.5-0.5,6.8c-0.2,4.9-0.1,9.9-0.1,14.9c0.1,4.6,0.3,9.2,0.4,13.8
			c0.1,4.8-0.2,9.7-0.5,14.5c-0.1,2.3-0.3,4.5-0.1,6.8c0.1,2.1,0.7,4.2,0.8,6.3c0.1,2.3-0.1,4.6-0.4,6.8c-0.3,1.8-0.6,3.9-1.4,5.6
			c-0.6,1.2-1.4,1.5-2.6,1.8"/>
	</g>
	<g id="POLYLINE_126_">
		<path class="st1" d="M254.6,231.2c-1.4,0.3-2.5,0.3-3.9-0.1c-2.1-0.6-4.4-1.8-6.1-3.4c-1.1-1.1-1.6-2.3-2.1-3.8
			c-0.4-1.4-0.9-2.8-1.5-4.2c-0.3-0.8-0.7-1.6-0.8-2.5c-0.1-2.1,0.7-4.4,1.3-6.4c0.6-2.6,1.3-5.1,1.6-7.7c0.9-5.6,0.9-11.2,1.1-16.8
			c0.2-5.8,0.3-11.5,0.8-17.3c0.4-5.8,1-11.4,2.1-17.1c1.1-5.4,1.6-10.8,1.6-16.4c-0.1-6.1-0.4-12.1-0.8-18.1
			c-0.1-2.5-0.2-5.1-0.1-7.6c0.1-2.5,0.2-5,0.9-7.5c0.5-1.9,1.4-3.7,2.9-5c1.8-1.6,4.1-2.7,6.3-3.2c1.2-0.3,2.5-0.4,3.6-0.4"/>
	</g>
	<g id="POLYLINE_127_">
		<path class="st1" d="M314.3,169.6c0.3,3.9,0.4,7.6,0.6,11.6c0.3,4,0.9,8,0.4,12c-0.1,1.5-0.5,3-1.1,4.4c-0.6,1.8-1.6,3.4-2.1,5.3
			c-0.5,1.8-0.6,3.7-0.6,5.6c0,1.9,0,3.9,0.1,5.8c0.1,2.1,0,4.7,1.9,6c0.1,0.1,0.3,0.2,0.5,0.3"/>
	</g>
	<g id="POLYLINE_128_">
		<path class="st1" d="M314.6,225.7c-0.9,1.4-1.3,3.2-1.1,4.8c0.1,0.5,0.3,1.2,0.9,1.2c1.1-0.1,2-1.6,2.5-2.3
			c1.5-2.1,3.4-4.4,4.6-6.8c1-2.1,1-4.4,1.4-6.7c0.3-1.3,0.6-2.5,0.6-3.8c0.1-1.1-0.1-2.3-0.3-3.4c-0.4-2.7-1.2-5.6-1.1-8.3
			c0-0.9,0.3-1.7,0.4-2.7c0.2-1,0.2-2,0.2-3c0-3,0-6.1,0.3-9.1c0.3-2.8,0.6-5.7,0.8-8.5c0.3-3.1,0.4-6.2,0.5-9.2s0.2-6,0.2-9
			c0-2.4,0-4.7,0-7.1c-0.1-4.1-0.1-8.2-0.1-12.3c0-2.3-0.1-4.6,0-6.9c0.1-3.1,0.1-6.3,0.2-9.4c0.1-2.9,0.2-5.8,0.2-8.7
			c0-2.9-0.1-5.8-0.3-8.7c-0.3-2.7-0.6-5.4-1.7-7.8c-0.8-1.7-1.9-3.2-3.4-4.3c-0.9-0.6-2-1.2-3-1.6"/>
	</g>
	<g id="POLYLINE_129_">
		<path class="st1" d="M311.8,204.6c-0.4-4-0.5-7.8-0.6-11.8c-0.1-3.9,0.3-7.5,0.8-11.3c0.2-1.5,0.9-4.2-0.9-4.9
			c-0.7-0.4-1.6-0.4-2.5-0.3c-1.9,0-3.9,0.2-5.8,0.3c-4.1,0.2-8.2,0.4-12.2,0.5c-3.4,0.1-6.6,0.1-9.9-0.8c-3.5-0.9-7.1-2.3-10.5-3.6
			c-1.7-0.7-3.4-1.5-5.1-2.3c-1.3-0.6-2.7-1.6-4.1-2s-2.7,0.1-3.2,1.4c-0.7,1.5-1,3.2-1.4,4.8c-0.4,1.7-1,3.4-1.6,5.1
			c-1.3,3.5-2.8,7.1-3.9,10.7c-1.1,3.4-1.6,7-1.6,10.5c0,3.8,0.4,7.5,1.1,11.2c0.6,3.4,1.3,6.9,2,10.3c1,4.2,2,8.5,3,12.6
			c0.9,3.9,1.8,7.8,2.8,11.8c0.8,3.5,1.5,7.1,2.1,10.7c0.6,3.8,1.2,7.5,1.5,11.3c0.3,3.6,0.6,7.2,0.7,10.8c0.1,4.2,0.3,8.3,0.4,12.4
			c0.2,3.9,0.5,7.7,1.1,11.5c0.6,4.1,1.5,8,2.4,12.1c0.8,3.7,1.3,7.4,1.9,11.2c0.6,3.6,1.4,7.3,2.3,10.8c0.9,3.6,2.1,7.2,3.2,10.8
			c0.4,1.6,0.7,3.4,0.8,5.1c0,1.1,0,2.3,0.4,3.3s1.4,1.8,2.5,1.8c1.3,0.1,2.5-0.4,3.6-0.9c1.7-0.6,3.5-1,5.2-1.5
			c0.7-0.3,1.6-0.6,2.1-1.3c0.4-0.7,0.4-1.5,0.4-2.3c-0.1-1.8-0.4-3.5-0.7-5.3c-0.3-1.7-0.7-3.4-1.1-5.1c-0.9-3.9-1.8-7.8-2.3-11.8
			c-0.4-3.3-0.5-6.7-0.7-10.1c-0.3-4.5-0.4-8.9-0.7-13.4c-0.3-3.7-0.6-7.4-1.3-11c-0.6-3.7-0.9-7.3-0.8-11c0.1-3.9,0.4-7.6,0.7-11.4
			c0.3-3.5,0.1-7-0.1-10.4c-0.3-4.2-0.7-8.3-0.9-12.4c-0.2-3.8-0.3-7.5-0.3-11.3c0-3.9,0.1-7.6,0.2-11.4c0.2-3.9,0.4-7.6,0.7-11.4
			c1.3,4.9,2.7,9.9,4.2,14.8c1.4,4.6,2.5,9.1,3.5,13.7c1.1,4.7,2.4,9.4,3.1,14.2c0.8,5.2,1.3,10.4,1.8,15.7c0.2,2,0.4,4.1,0.7,6.1
			c0.4,2.5,0.9,4.9,1.2,7.5c0.4,4.9-1,9.9-2,14.6c-0.9,4.3-1.4,8.6-1.2,13c0.1,2.5,0.3,5,0.3,7.5c0,2-0.2,4.2-0.4,6.2
			c-0.4,4.9-1.1,9.9-1.3,14.9c-0.1,2.8-0.4,5.6-0.4,8.3c0,0.9,0.3,1.8,0.9,2.5c1.8,2.3,5.1,3.5,8,3.4c1.1,0,2.4-0.2,3.3-0.9
			c0.7-0.5,0.9-1.3,1-2.1c0.1-1.1,0.1-2.1,0.1-3.2c0.1-1.2,0.3-2.4,0.5-3.6c0.3-2.1,0.8-4.2,1.2-6.3c1-5.1,2-10.2,3-15.2
			c0.9-4.9,1.9-9.8,2.7-14.7c0.7-4.8,1.1-9.7,1.5-14.5c0.5-5.1,1.1-10.2,1.5-15.2c0.4-5.1,0.4-10.2,0.6-15.4
			c0.1-4.6,0.2-9.2,0.2-13.7c0-5.1-0.1-10.3-0.3-15.4c-0.1-2.3-0.3-4.6-0.4-6.9"/>
	</g>
	<g id="POLYLINE_130_">
		<path class="st1" d="M314.6,225.7c-0.2-1.7-0.4-3.4-0.6-5.1"/>
	</g>
	<g id="POLYLINE_131_">
		<path class="st1" d="M277.4,358.4c-0.2,2.8-0.6,5.6-1.2,8.3c-0.6,2.8-1.1,5.6-1.3,8.4c-0.1,1.8-0.4,4.2,0.3,5.9
			c0.3,0.8,0.9,1.3,1.8,1.6c2.1,0.8,4.8,0.6,7.1,0.6c1.5,0,2.8-0.1,4.3-0.2c0.9-0.1,1.9-0.1,2.8-0.4c0.8-0.3,1.3-0.8,1.5-1.6
			c0.1-0.7,0-1.5-0.1-2.1c-0.3-1.5-0.6-2.9-0.9-4.4c-0.6-3-0.9-6.1-1.3-9.2c-0.3-2.7-0.7-5.3-1.3-7.8c-0.2-0.8-0.3-1.6-0.5-2.4"/>
	</g>
	<g id="POLYLINE_132_">
		<path class="st1" d="M291.5,382.6c0.9,0.4,2,0.5,3,0.6c1.6,0.1,3.2,0.2,4.9,0.1c1.6,0,3.3-0.1,4.9-0.3c0.7-0.1,1.6-0.2,2.3-0.6
			c1.1-0.6,0.9-2,0.8-3c-0.3-1.7-0.7-3.4-1.1-5.1c-0.3-1.5-0.4-2.9-0.6-4.4c-0.4-3.6-0.8-7.3-1.5-10.8c-0.1-0.4-0.2-0.9-0.3-1.3"/>
	</g>
	<g id="POLYLINE_133_">
		<path class="st1" d="M292.1,355.3c-0.2,2.9-0.8,5.8-1.3,8.6c-0.1,0.7-0.3,1.4-0.4,2.1"/>
	</g>
	<g id="POLYLINE_134_">
		<path class="st1" d="M273.6,64.4c-0.2,1.6,0.4,3.5,0.8,5.1c0.6,2.3,1.3,4.7,2.5,6.8c1.7,2.9,4.5,5.1,7.8,5.8
			c3.4,0.6,6.4-0.4,8.7-3.1c2.7-3.2,4.1-7.3,4.5-11.5c0.2-2.1,0.3-4.2,0.1-6.3c-0.1-1-0.3-2-0.5-3c-0.3-0.9-0.6-1.7-0.9-2.7
			c-0.3-1.3-0.1-2.7-0.5-4c-0.4-1.1-1.1-2.1-1.8-3c-0.9-1-2.1-1.5-3.4-1.8c-0.9-0.3-1.8-0.5-2.7-1c-0.3-0.1-0.6-0.3-1.1-0.3
			s-1,0.2-1.5,0.4c-1,0.3-2,0.6-3,0.8c-1.5,0.2-3.1,0.3-4.3,1.3s-1.8,2.6-2.5,4c-0.5,1.3-0.2,2,0.2,3.3c1,2.9-0.4,5.9-2,8.3
			C273.8,63.8,273.7,64.1,273.6,64.4z"/>
	</g>
	<g id="POLYLINE_135_">
		<path class="st1" d="M270.1,91.6c2.4-0.7,4.7-2.3,6.3-4.2c1.2-1.6,1.5-3.5,1.4-5.5c0-1.6-0.1-3.2-0.4-4.8"/>
	</g>
	<g id="POLYLINE_136_">
		<path class="st1" d="M294.8,77.1c-0.3,1.6-0.3,3.2-0.2,4.8c0.1,1.4-0.1,2.9,0.4,4.2c0.9,2.3,3.9,2.9,6,3.4
			c2.1,0.6,4.3,1.2,6.5,1.5"/>
	</g>
	<g id="POLYLINE_137_">
		<path class="st1" d="M276.4,87.3c-1.6,0.3-3.1,0.1-4.7-0.1c-1.5-0.2-3.2-0.4-4.6-1.1c-1.7-0.8,1.5-1.1,1.4-1.7
			c0-0.2-0.4-0.3-0.5-0.4c-0.6-0.3-1.3-0.5-1.9-0.9c-0.7-0.4-1.4-1.1-1.8-1.8c-0.2-0.3-0.5-0.8-0.3-1.1c0.1-0.1,0.3-0.2,0.5-0.2
			c0.4-0.1,1-0.1,1.5-0.3c0.9-0.4,1.8-1,2.6-1.7c0.3-0.3,0.9-0.9,0.9-1.4c0-0.4-0.3-0.6-0.6-0.8c-0.8-0.5-1.6-1.1-2.1-1.8
			c-1.3-1.8-1.5-4.7-0.9-6.8c0.3-1.1,1-2,1.5-3c0.4-1.1,0.3-2.3,0.3-3.4c-0.1-1.5-0.1-2.8,0.3-4.3c0.5-1.8,1.5-3.5,2.1-5.2
			c1.4-3.5,2.3-7.3,5-10c2.5-2.4,5.8-3,9.1-3.1c1.6,0,3.4,0.3,5,0.1c1.1-0.1,2.1-0.5,3.2-0.4s2.1,0.6,3,1.2c1.2,0.7,2.5,1.6,3.2,2.8
			c0.9,1.5,1.4,3.2,2.3,4.7c0.8,1.2,1.9,2.3,2.5,3.6c0.4,1,0.3,2.1,0.2,3.1c-0.2,1.6-0.4,3.2-0.1,4.8c0.3,1.5,1.1,3,1.4,4.6
			c0.2,1.4-0.3,2.7-0.6,4c-0.6,2.7,0.7,5.1,2,7.5c1.2,2.1,3,4.7,2,7.3c-0.9,2.7-3.6,3.4-6.1,3.8c-0.8,0.1-1.6,0.2-2.4,0.4
			c-0.1,0.1-0.4,0.1-0.5,0.3c-0.3,0.4,0.3,0.9,0.6,1.2c1.2,1.2,2.6,2.4,4.1,3.1"/>
	</g>
</g>
<g id="AG-OUTLINE_00000002377768454567454520000012977737933320654248_">
	<g id="POLYLINE_3_">
		<path class="st2" d="M288.5,355c0.6-0.7,0.6-1.9,0.5-2.8c-0.1-2.1-0.6-4.4-1.1-6.4c-1-4.6-2.3-9.2-2.8-13.9
			c-0.5-4.4-0.7-8.7-1-13.1c-0.3-5-0.4-10.1-0.9-15c-0.4-4.6-1.5-9.2-1.7-13.8c-0.3-4.7,0.1-9.4,0.5-14c0.2-2.1,0.3-4.4,0.3-6.6
			c0-2-0.1-4-0.3-6c-0.4-5-0.9-10.1-1.1-15c-0.2-4.6-0.2-9.2-0.1-13.8c0.1-4.7,0.3-9.4,0.6-14.2c0.1-1.2,0.2-2.3,0.3-3.5
			c1.3,5.2,2.8,10.3,4.4,15.4c1.5,4.9,2.7,9.9,3.9,14.9c1.1,4.7,2.3,9.4,3,14.3c0.6,5,1.1,10.1,1.6,15c0.3,2.6,0.6,5.1,1.1,7.6
			c0.4,2.6,0.9,5.1,0.7,7.6c-0.3,4.9-1.8,9.7-2.6,14.6c-0.4,2.3-0.6,4.7-0.6,7.1c0,2.5,0.3,5,0.3,7.5c0.2,5.2-0.4,10.4-1,15.7
			c-0.6,5.2-0.8,10.4-1.1,15.7c0,0.6-0.1,1.1,0,1.7s0.4,1,0.6,1.5c0.2,0.4,0,1.3-0.1,1.8c-0.1,0.6-0.1,1.2-0.2,1.7
			c-0.2,1.3-0.4,2.7-0.7,3.9c-0.2,1.1-0.4,2.3-0.6,3.4c-0.3-2.8-0.7-5.6-1.3-8.3C288.9,356.8,288.7,355.9,288.5,355z"/>
	</g>
	<g id="POLYLINE_4_">
		<path class="st2" d="M277.4,358.4c-0.2,2.6-0.5,5.1-1.1,7.6c-0.5,2.7-1.1,5.4-1.3,8c-0.2,2.1-0.4,4.5,0.1,6.5
			c0.2,0.8,0.6,1.4,1.3,1.8c1.5,0.9,3.5,0.8,5.2,0.9c2.6,0.1,5.3,0.1,7.8-0.3c0.4-0.1,0.9-0.1,1.4-0.3c0.2-0.1,0.4-0.2,0.6-0.2
			s0.4,0.1,0.6,0.2c0.5,0.1,1.1,0.2,1.6,0.3c2.5,0.3,5.1,0.3,7.6,0.1c1.3-0.1,2.5-0.1,3.8-0.4c0.4-0.1,0.9-0.2,1.3-0.4
			c0.6-0.4,0.9-1.1,0.9-1.9c0-1-0.3-1.9-0.4-2.9c-0.3-1.5-0.6-2.8-0.9-4.3c-0.5-2.8-0.7-5.8-1.1-8.7c-0.1-1.2-0.3-2.4-0.5-3.5
			c-0.1-0.6-0.3-1.4-0.4-2c-0.1-0.4-0.3-1.1-0.1-1.5c0.2-0.4,0.4-0.7,0.4-1.2c0.1-1.1,0.1-2.1,0.1-3.3c0.2-2.7,0.7-5.3,1.3-7.8
			c0.5-2.8,1.1-5.6,1.6-8.4c1.1-5.4,2.1-10.8,3.1-16.2c1-5.5,1.8-10.9,2.3-16.4c0.5-5.8,1.2-11.6,1.8-17.4
			c0.5-5.6,0.7-11.1,0.9-16.6c0.1-5.6,0.3-11.1,0.3-16.6c0-5.6-0.1-11.3-0.4-16.9c-0.1-1.5-0.2-3-0.3-4.6c-0.1-0.4,0-0.4,0.3-0.7
			c0.2-0.2,0.4-0.4,0.6-0.6c0.8-1,1.5-2,2.3-3.1c0.9-1.1,1.7-2.3,2.5-3.4c1.1-1.8,1.5-3.6,1.8-5.7c0.2-1.3,0.4-2.6,0.6-3.9
			c0.3-1.1,0.4-2.1,0.4-3.2c-0.1-2.7-0.7-5.2-1.1-7.8c-0.1-1.1-0.3-2.3-0.3-3.4c0.1-0.9,0.3-1.7,0.4-2.5c0.4-2.4,0.1-4.9,0.1-7.3
			c0.1-2.6,0.3-5.1,0.6-7.7c0.5-5.8,1-11.5,1.1-17.3c0.2-5.3,0.1-10.6,0.1-15.9c-0.1-5.8-0.2-11.6-0.1-17.4
			c0.1-5.7,0.4-11.4,0.4-17.1c0-2.8-0.1-5.7-0.3-8.5c-0.2-2.5-0.5-5-1.4-7.4c-0.6-1.6-1.5-3.2-2.8-4.4c-0.8-0.8-1.8-1.5-2.8-1.9
			c-0.3-0.2-1.1-0.3-1.3-0.6c-0.1-0.1,0-0.1-0.1-0.2c-0.7-0.9-2.7-0.9-3.6-1c-1.3-0.1-2.7-0.1-4-0.1c-0.4,0-0.6,0.1-1,0.2
			S306.4,91,306,91c-0.6-0.1-1.3-0.3-2-0.4c-1.2-0.3-2-0.9-3-1.6c-0.8-0.6-1.8-1.3-2.4-2.1c-0.1-0.2-0.3-0.4-0.3-0.6
			c0.1-0.2,0.4-0.3,0.6-0.4c1.1-0.3,2.1-0.4,3.2-0.6c1.7-0.3,3.4-0.9,4.5-2.3c2.4-3-0.1-6.3-1.6-9.1c-0.9-1.6-1.8-3.3-1.9-5.1
			c-0.1-1.7,0.8-3.2,0.9-4.9c0.1-1.9-1.1-3.7-1.5-5.6c-0.4-2.1,0.2-4.2,0.2-6.2c0-1.4-0.6-2.5-1.4-3.5c-0.7-1-1.5-1.9-2-3
			s-0.9-2.3-1.5-3.2c-1-1.6-2.8-2.8-4.5-3.6c-1-0.4-2-0.7-3.2-0.5c-0.9,0.1-1.7,0.4-2.7,0.4c-1.1,0.1-2.3-0.1-3.4-0.1
			c-2.3-0.1-4.7,0.1-6.9,1c-1.8,0.8-3.4,2.1-4.6,3.8c-1.6,2.1-2.3,4.7-3.2,7.3c-0.8,2.3-2.1,4.3-2.7,6.6c-0.4,1.9,0,3.9-0.1,5.8
			c-0.1,1.5-1,2.5-1.5,3.8c-0.6,1.5-0.6,3.2-0.3,4.7c0.2,1.2,0.6,2.4,1.4,3.3c0.4,0.5,1.1,0.9,1.6,1.3c0.2,0.1,0.4,0.3,0.6,0.6
			c0.3,0.5-0.3,1.1-0.6,1.5c-0.9,0.9-2,1.6-3.2,2c-0.4,0.1-1.6,0-1.5,0.8c0.1,0.9,1.2,1.8,1.9,2.4c0.6,0.5,1.5,0.8,2.3,1.2
			c0.2,0.1,0.5,0.2,0.4,0.4c-0.1,0.5-2,0.5-1.8,1.3c0.1,0.3,0.5,0.4,0.7,0.4c0.9,0.4,2,0.6,3,0.7c2.1,0.4,4.1,0.6,6.3,0.3
			c0,0.3-0.8,0.9-1,1.1c-0.4,0.4-1,0.9-1.5,1.3c-1.2,0.9-2.5,1.5-3.8,1.9c-0.1-0.8-2.3,0.3-2.5,0.3c-1.1,0.4-2.1,0.8-3.3,0.9
			c-0.6,0.1-1.4,0-2,0.3c-0.3,0.1-0.3,0.3-0.5,0.5c-0.3,0.2-0.9,0.1-1.3,0.1c-0.6,0.1-1.2,0.1-1.8,0.2c-2.3,0.4-4.6,1.4-6.4,2.8
			c-3.4,2.8-4.1,7.3-4.2,11.4c-0.3,5.8,0.2,11.7,0.5,17.5c0.3,5.1,0.5,10.2,0.3,15.4c-0.1,2.6-0.4,5.1-0.9,7.6
			c-0.4,2.7-1.1,5.4-1.5,8.2c-0.8,5.4-1.2,10.9-1.5,16.3c-0.3,6.1-0.4,12.1-0.6,18.1c-0.1,4.9-0.4,9.8-1.5,14.6
			c-0.5,2.7-1.3,5.4-2,8c-0.3,1.5-0.6,2.9-0.1,4.4c0.4,1.2,0.9,2.3,1.3,3.5c0.4,1.1,0.8,2.5,1.3,3.6s1.3,2,2.3,2.8
			c1.8,1.3,4,2.5,6.1,2.9c0.4,0.1,0.8,0.1,1.2,0.1s0.8-0.1,1.2-0.1c0.5-0.1,0.5-0.2,0.6,0.3c1.4,5.9,2.8,11.8,4.2,17.6
			c1.2,5.4,2,10.7,2.7,16.1c0.6,5,1,10,1.1,15c0.2,5.9,0.3,11.9,0.9,17.8c0.6,5.7,1.8,11.3,2.9,16.8c1.1,5.1,1.7,10.2,2.7,15.4
			c1.1,5.6,2.7,10.9,4.3,16.4c0.7,2.5,1.2,4.7,1.3,7.3c0,1.2,0.1,2.5,0.8,3.4C276.1,357.9,276.7,358.3,277.4,358.4z"/>
	</g>
	<g id="POLYLINE_11_">
		<path class="st2" d="M100.6,366.7c-0.8,2.1-1.6,4.4-2.5,6.6c-0.7,1.8-1.6,3.4-1.8,5.3c-0.2,1.9,0.1,4,2.3,4.5
			c1.9,0.5,4.2,0.3,6.1,0.2c2.3-0.1,4.7,0.1,7,0c1.6,0,3.4,0.2,4.9-0.4c0.6-0.3,1-0.6,1.1-1.3c0.4-1.5-0.1-3.2-0.4-4.7
			c-0.4-2-0.4-4.2-0.3-6.3c0.1-1.7,0.7-3.3,1.3-4.9c0.4-1.2,0.6-2.5,0.3-3.8c-0.3-1.4-1.3-2.3-2.1-3.4c-0.4-0.7-0.5-1.3-0.3-2.1
			c0.3-1.4,0.6-2.6,0.4-4c-0.3-2.3-1.6-4.1-2.8-6.1c-0.6-1-0.9-1.9-0.6-3.1c0.4-2,1.3-3.9,1.8-5.8c0.5-2,0.6-4.1,0.3-6.1
			c-0.3-2.3-0.6-4.4-0.6-6.8c0.1-4.8,0.7-9.7,0.4-14.5c-0.1-2.5-0.6-4.9-1-7.3c-0.3-1.8-0.4-3.8,0.1-5.6c0.4-1.6,1.6-2.8,2.1-4.4
			c0.7-2.1,1-4.4,1.3-6.7c0.4-2.3,0.6-4.6,0.6-7c0.1-2.1,0.7-4.4,1.3-6.4c0.6-2.3,1.2-4.6,1.6-7c0.4-2.3,0.5-4.7,0.7-7.1
			c0.4-4.8,1.6-9.4,2.8-14.1c0.6-2.5,1.3-4.9,2-7.3c0.3-0.8,0.6-2.4,1.5-2.8c1.3-0.6,2.6,2.5,2.9,3.2c0.9,1.9,1.6,3.9,2.3,5.9
			c1.1,3,2,5.9,3.1,8.9c1.4,4,2.9,8,4.5,11.9c1.2,3,2.5,6.1,3.6,9c0.7,1.8,1.5,3.7,2,5.6c0.6,2.1,0.9,4.4,1.5,6.6
			c0.4,1.3,1.3,2.6,1.4,4c0.1,1.6-0.8,3.2-0.9,4.9c-0.1,1.2,0.4,2,0.9,3.1c0.4,0.7,0.5,1.5,0.3,2.3c-0.3,1.1-0.8,2-0.6,3.2
			c0.2,1.4,0.8,2.6,0.8,4c0,2.3-0.4,4.5-0.4,6.8c0.1,4.7,1.5,9.4,2.3,14c0.4,2.1,0.8,4.4,0.9,6.6c0.1,2.1-0.1,4.3,0.4,6.4
			c0.3,1.1,0.6,2.1,1,3.1c0.3,0.6,0.7,1.3,0.9,2c0.3,1.3-0.1,2.8,0.1,4.1c0.1,0.7,0.4,1.5,0.9,2c0.8,1,2.1,1.6,2.5,2.8
			c0.2,0.7,0.3,1.6-0.3,2.3c-0.3,0.4-0.9,0.6-1.3,0.9c-0.4,0.3-0.8,0.7-1,1.3c-0.3,0.6-0.3,1.4,0.1,2c0.4,0.6,1.3,1.1,1.6,1.8
			c0.3,0.9-0.4,1.8-0.5,2.7c-0.1,1,0.1,2,0.7,2.8c0.1,0.1,0.3,0.3,0.3,0.4c0.2,0.3,0.1,0.1,0.1,0.3c-0.2,0.6-0.4,1.1-0.5,1.6
			c-0.4,2.1-0.6,4.6-0.7,6.8c-0.1,1.6,0.3,3.5,1.8,4.6c1.1,0.7,2.5,0.9,3.9,0.9c1.8,0.1,3.6,0.1,5.4,0.1c6.4,0,12.8,0,19.2,0
			c4,0,8.2,0.2,12.1-0.4c2.3-0.4,5.2-1.4,4.7-4.2c-0.6-3.1-4.7-3.5-7.1-4.2c-2.1-0.6-4.4-1.3-6.4-2.3s-3.8-2.5-5.4-4.1
			c-1.6-1.5-3.1-3.2-4.9-4.4c-1-0.7-2.1-1.3-3.4-1.3c0.2-1.3,0.1-2.5-0.4-3.6c-0.3-0.8-0.9-1.8-0.6-2.8c0.2-0.7,0.8-1.3,0.9-2
			c0.1-0.9-0.1-1.8-0.4-2.6c-0.4-1-1.2-1.8-1.3-2.9c-0.1-0.8,0.1-1.6,0.2-2.4c0.1-0.9,0.1-1.7-0.1-2.5c-0.2-1.6-1-2.8-1.3-4.4
			c-0.4-1.6-0.1-3.5-0.1-5.1c0.1-4.4,0.1-8.7,0.1-13c0-4.7,0.2-9.6-0.3-14.4c-0.2-2.1-0.8-4.2-1-6.3c-0.1-0.6,0-1.4-0.1-2
			s-0.4-1.3-0.6-1.8c-0.4-1.2-0.4-2.5-0.3-3.6c0.2-1.3,0.4-2.5,0.1-3.8c-0.2-1.1-0.9-2.6-0.4-3.8c0.1-0.4,0.4-0.9,0.6-1.3
			c0.1-0.5,0.1-1.1,0.1-1.6c-0.1-2.3-0.3-4.5-0.4-6.8c-0.1-2.1-0.9-4-1.3-6c-0.3-1.5,0.1-3-0.2-4.5c-0.2-1.3-0.9-2.6-0.6-4
			c0.1-0.8,0.4-1.6,0.6-2.4c0.2-1,0.3-2,0.3-3c0.1-2.3,0.1-4.7,0-7c-0.1-4.4-0.2-8.7-0.7-13.1c-0.6-4.4-2-8.6-3.5-12.7
			c-0.4-1.1-1-2.3-0.8-3.5s0.4-2,0.3-3.2c-0.3-2-0.9-3.9-1.6-5.8c-0.8-2.3-1.6-4.6-2.4-6.9c-0.3-1.1-0.6-2.1-1-3.2
			c-0.1-0.5-0.4-1.1-0.4-1.6c0-0.3,0-0.1,0.2-0.3c0.4-0.3,0.5-0.5,0.6-1c0.2-1.6-0.5-3.5-0.8-5.1c-0.4-2.1-0.4-4.4-0.8-6.5
			c-0.3-2-1.1-3.9-1.5-5.9c-0.4-1.8-0.1-3.5-0.3-5.4c-0.3-2.3-0.8-4.4-1.1-6.7c-0.3-2.1-0.6-4.4-0.7-6.5c-0.1-2.1-0.2-4.4-0.2-6.6
			c3.9,0.2,8.2,0.6,12-0.3c2.7-0.6,4.3-2.1,5.3-4.6c1.5-3.5,2-7.6,2.1-11.4c0.2-4.1,0-8.2-0.6-12.2c-0.3-2-0.7-4-1.3-6
			s-1.3-4-1.7-5.9c-0.9-3.9-0.5-7.8-0.9-11.8c-0.4-3.9-1.5-7.6-3.4-10.9c-0.9-1.5-2-3-3.4-4.2c-1-0.8-2.1-1.3-3.4-1.6
			c-2-0.5-3.9-1.1-5.8-1.8c-2.1-0.9-4.2-1.8-6.2-2.8c-1.8-0.8-3.5-1.6-5.4-2.3c-0.9-0.3-1.8-0.6-2.7-0.9c-0.6-0.2-1.4-0.5-2.1-0.5
			c-0.2,0-0.3,0.1-0.4,0.1c-0.2,0.1-0.1,0.2-0.4,0.1c-0.5-0.2-1-0.5-1.5-0.7c-0.8-0.4-1.5-0.9-1.8-1.6c-0.6-1.4-0.9-3.2-0.9-4.7
			c0-0.1,0-0.2,0-0.3c0.1-0.3-0.1-0.2,0.3-0.3c0.4-0.1,0.9-0.1,1.4-0.1c1-0.1,2-0.3,3-0.5c1.5-0.3,3.1-0.6,4.5-1.3
			c0.5-0.3,0.9-0.6,1.1-1.2c0.3-0.6,0.3-1.3,0.2-2c-0.1-0.8-0.4-1.3-0.8-1.9c-0.3-0.4-0.2-1.1,0-1.6c0.2-0.6,0.8-1,1.1-1.6
			s0-1.5,0.1-2.1c0.1-1,0.4-2,0.1-3c-0.1-0.3-0.2-0.5-0.3-0.9c-0.1-0.3-0.3-1.1-0.1-1.4c0.1-0.5,1-0.3,1.4-0.4
			c1.3-0.4,1.1-2.3,0.5-3.2c-0.4-0.6-0.9-1-1.5-1.5c-0.5-0.5-1-1.1-1.4-1.7c-0.6-0.9-1.2-1.8-1.3-3c-0.1-1.6,0.3-3.2,0.1-4.7
			c-0.1-1.2-0.8-2.3-1.2-3.4c-0.7-1.9-1.4-3.9-2.1-5.7c0.3-0.1,0.6-0.3,0.6-0.6c-0.1-0.8-0.8-1.4-0.8-2.1c0-0.6-0.1-0.9-0.6-1.4
			c-0.6-0.7-0.7-1.2-0.9-2.1c-0.1-0.6-0.4-0.8-1-1.2c-0.6-0.4-0.9-1.1-1.7-1.4c-0.6-0.2-1.3-0.2-2-0.4c-0.6-0.1-1.1-0.4-1.7-0.7
			c-0.9-0.3-2-0.5-3-0.3c-0.8,0.3-1.3,0.6-2.3,0.6c-1.5,0-2.7,0.6-4,0.9c-1.7,0.3-3.5,0.1-5.3,0.4c-1.6,0.3-3.2,0.7-4.6,1.6
			c-1.5,0.9-2.7,2.3-4.1,3.4c-1.2,1-2.7,1.5-3.8,2.5c-0.6,0.5-0.9,1.2-1.1,1.9c-0.2,0.9-0.3,1.8-0.5,2.8c-0.2,0.7-0.5,1.4-0.8,2.1
			c-0.7,1.5-1.4,3-1.6,4.7c-0.3,1.8-0.1,3.6,0.3,5.4c0.9,4,3.4,7.3,5.7,10.6c1.1,1.6,2,3.2,2.8,4.9c0.4,1,0.7,2.3,1.5,3.1
			c0.1,0.1,0.1,0.1,0.1,0.1c0.2,0.2,0.1,0.8,0.2,1.1c0.1,0.9,0.1,1.7,0.1,2.6c-0.1,1.9-0.2,4-0.9,5.8c-0.4,1.1-1.1,2-1.9,2.9
			c-0.3,0.3-0.7,0.6-1.1,1c-0.3,0.2-0.9,0.8-1.2,0.8c-0.1,0-0.3-0.1-0.4-0.1c-0.9-0.1-1.8,0.8-2.5,1.2c-1.8,1.3-3.7,2.4-5.6,3.4
			s-3.9,2-5.6,3.2c-1.6,1.1-2.9,2.6-4.4,3.9c-1.6,1.3-3.3,2.6-4.6,4.2c-1.3,1.5-2.3,3.1-2.9,4.9c-1.5,3.9-1.3,8.3-1,12.4
			c0.3,4.6,0.9,9.1,1.5,13.7c0.5,4.2,1.1,8.3,2.1,12.3c1,4.3,2.5,8.5,4.2,12.5c0.9,2,1.8,3.9,2.8,5.8c1,1.9,2,3.9,3.2,5.6
			c0.7,1.1,1.6,2.1,2.8,2.7c0.3,0.1,0.5,0.2,0.8,0.3c0.1,0,0.3,0,0.4,0.1s0,0.6,0,0.7c0,0.9-0.1,1.8-0.3,2.7c-0.3,1.8-1.1,3.2-2,4.7
			c-0.4,0.9-0.7,1.6-0.7,2.7c-0.1,1.8-0.1,3.4-0.6,5.1c-0.5,1.6-1.3,3.2-1.5,4.9c-0.1,2,1.6,3.4,1.6,5.4c0,1.3-0.4,2.4-0.8,3.6
			c-0.1,0.4-0.1,0.9-0.1,1.4c0,0.9-0.1,1.8-0.1,2.7c0,0.6,0.2,0.9,0.5,1.3c0.2,0.2,0.1,0.3,0.1,0.6c-0.1,0.6-0.1,1.2-0.2,1.8
			c-0.1,1.1-0.1,2.1-0.2,3.2c-0.1,4.4,0.1,8.9,0.3,13.3s0.7,8.9,1.5,13.2c0.7,4.3,1.6,8.6,2.1,13c0.5,4.3,0.3,8.7,0.6,13
			c0.1,2.1,0.4,4.3,0.4,6.4c-0.1,1.8-0.4,3.4-0.4,5.2c0.1,1.8,0.3,3.9-0.1,5.8c-0.2,1.1-0.9,2-0.9,3.1c0,1.4,0.4,2.8,0.4,4.2
			c-0.1,1.9-0.6,3.8-0.7,5.7c-0.1,1.4,0.1,2.8-0.3,4.2c-0.4,1.6-1.1,2.8-1.3,4.5c-0.1,1-0.1,2-0.1,3c-0.1,1.1-0.3,2.3-0.4,3.4
			c-0.3,2-0.4,3.9-0.3,5.9c0.1,4.4,0.6,8.7,1.1,13c0.5,4.4,1.2,8.9,1.8,13.3c0.3,2.3,0.7,4.6,1.1,7c0.4,2.1,0.9,4.1,1.4,6.2
			c0.4,2,0.6,4,0.6,6.1c0,0.9,0.1,1.8-0.1,2.8c-0.1,0.6-0.2,1.4-0.2,2c0.1,0.7,0.3,1.5,0.4,2.1c0.2,0.8,0.3,1.6,0.4,2.5
			C99.4,364.3,99.9,365.6,100.6,366.7z"/>
	</g>
</g>
</svg>
