<?xml version="1.0" encoding="utf-8"?>
<!-- Generator: Adobe Illustrator 27.0.0, SVG Export Plug-In . SVG Version: 6.00 Build 0)  -->
<svg version="1.1" id="Layer_1" xmlns="http://www.w3.org/2000/svg" xmlns:xlink="http://www.w3.org/1999/xlink" x="0px" y="0px"
	 viewBox="0 0 404 404" style="enable-background:new 0 0 404 404;" xml:space="preserve">
<style type="text/css">
	.st0{fill:none;stroke:#000000;stroke-width:3.5;stroke-linecap:round;stroke-linejoin:round;stroke-miterlimit:10;}
	.st1{fill:none;stroke:#000000;stroke-width:5;stroke-miterlimit:10;}
</style>
<g id="SELECT">
	<g id="blazer">
		<polygon class="st0" points="37.9,119 33.3,135 66.2,147.9 82,140.7 81.3,213.1 87.3,203.2 91.6,177.4 92.4,124.4 111.9,82 
			92.4,89.1 83.1,109.9 66.1,126.8 53.7,124.3 		"/>
		<polygon class="st0" points="147,218.6 144.6,213.1 149.2,205.3 136,190.9 124.1,160.2 118.4,144 125.3,107.3 140.2,75.4 
			146.3,81.4 169.8,91.2 178.1,160.2 166.7,187.3 171.6,212.7 		"/>
	</g>
	<g id="shirt">
		<polygon class="st0" points="111.9,82 92.4,124.4 91.6,177.4 104.4,181.9 131.4,179 118.4,144 125.3,107.3 140.2,75.4 137,69.6 
			119.5,80.5 117.2,91.2 114.3,127.6 111.3,168.2 104,173.9 98.4,164.6 103.9,119.9 112.5,85.2 115.9,81 112.4,73.5 		"/>
	</g>
	<g id="tie">
		<polygon class="st0" points="119.5,80.5 117.2,91.2 111.3,168.2 104,173.9 98.4,164.6 103.9,119.9 112.5,85.2 115.9,81 		"/>
	</g>
	<g id="pants">
		<polygon class="st0" points="131.4,179 104.4,181.9 91.6,177.4 87.3,203.2 85.3,249.6 88.3,299.2 90.6,316.9 86.9,348.7 82,363.5 
			92.4,368.8 109.3,371.8 109.9,365.1 109.1,351.5 114.1,332.8 119.9,263.6 127.3,284.2 127.8,302 133.1,336.4 125.7,352.3 
			123.8,370.6 146.9,367.7 152.8,336 152.8,282.3 150.5,261.5 151.3,239.3 144.6,213.1 136,190.9 		"/>
	</g>
	<g id="shoes">
		<polygon class="st0" points="109.3,371.8 92.4,368.8 82,363.5 66.9,373.7 56.3,373.7 53.8,380.8 72.6,383.2 90.8,378.7 
			93.2,382.3 108.4,382.3 		"/>
		<polygon class="st0" points="123.8,370.6 146.9,367.7 144.2,381.1 138.3,383.2 123.4,382.3 121.1,378.4 		"/>
	</g>
	<g id="blazer_00000029726592145195479780000011537436479997729154_">
		<polygon class="st0" points="282.6,126.4 261.3,129.3 259.7,121.7 257.5,90 250,84.1 239.6,80.7 235.5,86.4 232,80 220.9,85.7 
			220.9,103.5 227.3,144.5 235.4,149.1 223.9,191.9 253.6,198.5 263.9,195.3 262.3,149.1 268.1,149.1 293.8,146.3 290.6,129.7 
			289.4,127.3 		"/>
		<polygon class="st0" points="368.9,93.4 354,85.5 345.4,97.8 337.6,105.1 333.3,113.4 327.3,117.4 316.1,101.7 306.3,82.3 
			301.3,92.3 296,81 289.4,78.7 278.6,80.7 286.6,126.4 299,126.6 305.1,130.4 319.3,131 316.5,136.7 327.4,141 334.1,137.9 		"/>
		<polygon class="st0" points="317.7,190 305.6,191.9 298.4,188.6 292.8,169.9 290.2,146.6 293.8,146.3 296,143.3 306.7,140.4 
			312.6,169.9 		"/>
	</g>
	<g id="shirt_00000156555094201364465590000013589225339274007177_">
		<polygon class="st0" points="239.6,80.7 253.6,73.6 262.2,93.2 267.7,98.3 274.3,88.4 275.1,67.5 285.5,78.7 278.6,80.7 
			286.6,126.4 261.3,129.3 257.5,90 250,84.1 		"/>
		<polygon class="st0" points="291,153.2 263,153.5 262.3,149.1 268.1,149.1 290.2,146.6 		"/>
	</g>
	<g id="skirt">
		<polygon class="st0" points="291,153.2 263,153.5 263.9,195.3 253.6,198.5 236.7,196.3 238.1,261.6 253.3,266.4 301.5,264.5 
			308.5,205.4 305.6,191.9 298.4,188.6 292.8,169.9 		"/>
	</g>
	<g id="shoes_00000085934444859061342230000011988300877384914598_">
		<polygon class="st0" points="250.1,367.9 256.3,371 266.3,368.3 271.3,371.5 283.5,371 283.5,382.4 247.6,382.4 		"/>
	</g>
</g>
<g id="AG-HUMANS">
	<g id="POLYLINE_692_">
		<path class="st0" d="M295.2,143.4c6.1-0.1,11.8-3.1,17.2-5.8c2.3-1.1,4.9-2.3,6.6-4.2c0.4-0.4,0.9-1,0.8-1.6
			c-0.3-2-5.2-1.4-6.3-1.3c-2.8,0.1-5.7,0.8-8.5,0.5c-1.3-0.2-2.1-0.8-3.1-1.7c-2.5-2.7-6.6-3-10.1-2.5c-0.4,0.1-0.9,0.2-1.3,0.3"/>
	</g>
	<g id="POLYLINE_691_">
		<path class="st0" d="M262.3,149.1c-0.1,5.4-0.3,10.7-0.1,16.1c0.1,5.4,0.6,10.9,1,16.4c0.2,2.5,0.4,5.1,0.6,7.6
			c0.1,1.9,0.6,4.2,0.1,6.1c-0.4,1.6-2,2.1-3.4,2.5c-4.4,1.1-9.2,0.8-13.7,0.2c-5.2-0.8-10.4-2.1-15.4-3.7c-2.2-0.7-4.6-1.3-6.6-2.2
			c-0.4-0.2-0.8-0.4-1.1-0.9c-0.9-1.6,0.3-4.6,0.8-6.1c1.9-6.2,3.8-12.4,5.7-18.5c1.5-4.9,2.9-9.7,4.4-14.5c0.3-0.9,0.6-2,0.9-2.9"
			/>
	</g>
	<g id="POLYLINE_690_">
		<path class="st0" d="M261.3,129.3c-0.7-2.5-1.4-5-1.6-7.6c-0.2-2.8,0.2-5.6,0.4-8.3c0.4-4.9-0.2-9.5-1.4-14.2
			c-0.9-3.5-1.8-7-2.7-10.5"/>
	</g>
	<g id="POLYLINE_689_">
		<path class="st0" d="M286.6,126.4c-0.4-2.9-0.7-5.8-1.4-8.7c-0.7-3-1.5-5.9-2.3-9c-1.5-6.1-2.1-12.2-2.8-18.5
			c-0.3-3.2-0.7-6.4-1.5-9.5"/>
	</g>
	<g id="POLYLINE_00000168830762700556654550000009345314557038861238_">
		<path class="st0" d="M254.9,63c2,2.3,4.9,3.9,7.9,4.6c2.9,0.6,5.7-0.2,8.2-1.6c3.1-1.8,5.5-4.6,6.7-8c0.8-2.3,1.3-4.7,1.5-7.2
			c0.3-2.5,0.3-4.9-0.4-7.3c-0.8-2.8-2.2-5.4-3.3-8.1c-0.6-1.4-1-3-2-4.1c-1.7-2-4.9-2.7-7.4-2.7c-2.7-0.1-5.4,0.7-7.5,2.5
			c-0.9,0.8-1.6,1.7-2.1,2.8c-0.6,1.1-0.9,2.2-1.6,3.3s-1.3,2-1.9,3.2c-0.6,1.1-0.9,2.3-1,3.5c-0.3,3-0.2,6-0.4,9
			c-0.2,3.1,0.4,6,2.1,8.7C254,62,254.4,62.5,254.9,63z"/>
	</g>
	<g id="POLYLINE_00000155853636556412597580000008326261832516986551_">
		<path class="st0" d="M273.3,90.1c1.2-3.2,2-6.4,2-9.9c0.1-3.9-0.5-7.8-0.6-11.7c-0.1-2.1,0.1-4.2,0.6-6.2"/>
	</g>
	<g id="POLYLINE_00000165230679795726732890000014360304819397244087_">
		<path class="st0" d="M256.3,64.4c0.3,3.9-1,8.9-4.7,10.7c-1.7,0.8-3.7,1.3-4.9,2.7c-1.3,1.4-2,1.6-3.9,2.1c-1,0.3-1.8,0.5-2.3,1.4
			c-1.1,1.7-1.4,4-2.9,5.6c-0.8,0.8-1.5,0.3-2.1-0.5c-2.5-3.4-4.6-8.9-2.8-13c0.6-1.4,1.5-2.5,2.8-3.4c1.7-1.1,3.9-1.3,5.6-2.3
			c1.2-0.8,1.5-2,1.9-3.3c0.8-2.2,2.3-4,3-6.4c0.6-2.4,0.1-4.9-0.3-7.3c-0.6-3.5-0.9-7-0.1-10.6c1.3-6.2,4.6-12.6,9.2-17
			c3-2.9,6.8-5.1,11.1-4.6c1.5,0.2,3,0.6,4.6,0.8c1,0.1,2.1,0.1,3.1,0.2c1.8,0.3,3.4,1.6,4.6,2.9c5,5.1,7.6,12.1,9.2,18.9
			c0.8,3.7,1.5,7.4,1.5,11.2c0.1,2.5-0.1,5.1-1.1,7.4c-0.8,1.6-1.9,3.2-2,5.1c-0.1,1.1,0.2,2.3,0.8,3.4c0.5,1,1.3,1.8,2.3,2.3
			c1.2,0.5,2.5,0.6,3.8,0.7c1.7,0.2,3.5,0.4,5.1,0.9c2.9,0.9,5,2.7,5.9,5.6c0.8,2.6,0.6,5.2,0.2,7.8c-0.3,1.9-0.6,3.8-1.1,5.6
			c-0.1,0.4-0.3,1.1-0.6,1.4c-0.4,0.4-0.6,0-0.9-0.4c-1.4-2.8-1.6-6-3.2-8.8c-1.7-3-4.5-4.4-7.8-4.8c-2-0.3-4.2,0-6.1-0.8
			c-1.6-0.8-2.7-2.4-3.5-3.9c-0.8-1.3-1.5-2.6-2.4-3.7s-2.1-2-3.2-2.8"/>
	</g>
	<g id="POLYLINE_00000090252708533441891170000003079958516055869590_">
		<path class="st0" d="M267.7,101.7c2.3-5.6,5.3-10.9,8.2-16.2c1.5-2.6,2.5-5.8,5.8-6.4c2.5-0.5,5.2-0.1,7.7-0.4"/>
	</g>
	<g id="POLYLINE_00000082342877001940501220000010001617559396536255_">
		<path class="st0" d="M264.7,95.2c-2.1-2-3.9-4-5.1-6.6c-1.5-3-2.4-6.3-3.7-9.4c-0.8-1.9-1.5-3.7-2.3-5.6"/>
	</g>
	<g id="POLYLINE_00000030482705728482707240000002026378678489237932_">
		<path class="st0" d="M260.4,108.8c-2.3-4.2-5.2-7.6-8.8-10.8c-3.4-3-7.4-5.7-9.7-9.6c-1-1.6-1.8-3.5-2.3-5.4"/>
	</g>
	<g id="POLYLINE_00000017506603256484520740000003235140221829453205_">
		<path class="st0" d="M267.7,101.7c-0.1-1.8-0.4-3.6-1.6-5.1c-1.3-1.7-3.4-2.9-5.1-4.2c-3-2.1-5.8-4.6-8.3-7.1
			c-1.1-1.1-2.2-1.9-3.7-2.4c-2.7-0.9-5.7-0.9-8.3-2"/>
	</g>
	<g id="POLYLINE_00000123421925429113214460000009282416890892727190_">
		<path class="st0" d="M237.9,97c1.6,5.3,3.1,10.7,4.1,16.1c0.5,2.7,0.8,5.4,0.9,8.1c0.1,1.5-0.2,3.5,0.4,4.9c0.4,1,1.4,1,2.4,0.9
			c1.5-0.2,2.9-0.6,4.4-0.6c1.9,0,3.8,0.4,5.6,0.9c2.8,0.8,5.6,2.7,8.6,2.4c1.8-0.2,3.6-0.9,5.4-1.3c2.9-0.6,5.8-0.8,8.7-1.1
			c2.6-0.3,5.2-0.7,7.9-0.9c0.9-0.1,2.5-0.3,3.4,0.1c0.9,0.5,0.7,2.3,0.9,3.2c0.6,2.5,1.5,5.1,2.3,7.5c0.7,2,1.6,4.1,1.8,6.3
			c0.1,1.1,0.2,2.3-0.9,2.8c-0.9,0.4-2.2,0.3-3.2,0.3c-2.7-0.1-5.3-0.3-8-0.1c-6,0.4-11.9,1.5-18,2.3c-5.1,0.7-10.2,1-15.4,1.3
			c-5,0.3-10.2,0.5-15-1.1c-2.6-0.9-5.2-2.3-6.9-4.5c-1.9-2.5-2-5.8-2.8-8.7c-1.6-5.3-2.6-10.6-3.1-16.1c-0.5-5.8-0.5-11.6-0.5-17.4
			c0-2.5-0.1-5-0.3-7.5c-0.2-2.3-0.5-4.8-0.3-7.1c0.3-2.7,2.1-3.7,4.4-4.8c2.3-1.1,4.7-2.1,7.2-3"/>
	</g>
	<g id="POLYLINE_00000023264924320068299060000005036295168388094611_">
		<path class="st0" d="M282.6,107.3c2.8-3.2,4.8-7.1,6.4-10.9c1.4-3.3,2.5-6.7,2.7-10.3c0.1-2.3,0.1-4.7,0-7"/>
	</g>
	<g id="POLYLINE_00000036934642354229315160000008694601347910190001_">
		<path class="st0" d="M307.3,105.1c0.3,3.4,0.4,6.7,0.4,10.1c0,3.5-0.4,7-0.7,10.6c-0.2,1.7-0.3,3.5-0.3,5.2"/>
	</g>
	<g id="POLYLINE_00000091717646834304895080000008807584733336274354_">
		<path class="st0" d="M306.8,140.2c0.6,9.2,2.3,18,5.1,26.8c1.5,4.9,3,9.7,4.4,14.7c0.6,2.1,1.2,4.2,1.5,6.4c0.1,0.6,0.3,1.5,0,2
			c-0.1,0.2-0.2,0.3-0.4,0.4c-0.9,0.6-2.5,0.5-3.5,0.6c-3.5,0.6-7.4,1.3-11,0.4c-5.8-1.3-7-7.7-7.8-12.7c-1.6-9.7-2.4-19.5-4.3-29.2
			c-0.2-1.1-0.4-2.2-0.6-3.3"/>
	</g>
	<g id="POLYLINE_00000094581121623828688380000003796973958312312469_">
		<path class="st0" d="M291.4,153.2c-7.6,0.6-15.3,0.8-22.9,0.6c-2.1-0.1-4.2-0.2-6.3-0.3"/>
	</g>
	<g id="POLYLINE_00000079446301777874842520000000636069055826078620_">
		<path class="st0" d="M315.4,136c2,1,4,1.8,6,2.7c1.6,0.8,3.2,1.6,4.9,2c2.1,0.5,3.9,0.1,5.7-1.1c3.3-2.1,5.2-5.4,7.6-8.4
			c3-3.7,6.7-6.8,9.9-10.2c3.2-3.4,5.9-7,8.3-10.8c2.5-3.9,4.7-8.2,7.6-11.8c1-1.3,2.3-2.4,3.1-3.9c0.2-0.3,0.4-0.8,0.4-1.1
			c-0.1-1.1-1.3-1.8-2.1-2.2c-1.8-1-3.9-1.7-5.7-2.8c-1.5-0.8-2.9-2-4.4-2.8c-0.9-0.4-1.8-0.6-2.7-0.1c-0.7,0.4-1.2,1-1.6,1.6
			c-1.3,1.7-2.2,3.6-3.3,5.4c-1.1,1.8-2.2,3.7-3.7,5.2c-1.5,1.6-3.4,2.9-4.9,4.4c-3.2,2.8-5.2,6.1-6.6,10.1
			c-0.7,1.9-1.5,2.1-3.2,3.1c-1,0.6-1.8,1.6-2.8,2c-0.2,0.1-0.4,0.2-0.6,0.1s-0.3-0.1-0.4-0.3c-0.3-0.2-0.4-0.6-0.5-0.8
			c-0.6-1.1-1.1-2.3-1.6-3.4c-0.7-1.5-1.5-3-2.4-4.3c-1.1-1.5-2.5-2.6-3.7-3.9c-2.1-2.3-2.8-4.6-3.5-7.5c-0.3-0.9-0.5-1.8-1.1-2.7
			c-0.6-0.9-1.5-1.6-2.1-2.5c-2.2-3.2-3.3-7.1-5.7-10.2c-0.8-0.9-1.6-1.8-2.6-2.5"/>
	</g>
	<g id="POLYLINE_00000000191304207007411820000018370739094699842191_">
		<path class="st0" d="M368.6,92.4c1.8-0.2,3.3-0.5,4.9-1.5c3-2,5.7-4.4,8.5-6.6c1.9-1.5,4.6-3,6-5.1c0.3-0.4,0.5-0.9,0.3-1.5
			c-0.5-1.5-3.1-2-4.4-1.7c-1.5,0.4-2.6,1.8-3.7,2.7c-1.5,1.3-3.4,2.1-5.2,2.8c-2.8,0.9-5.6,1.3-8.5,1.5c-2.7,0.2-5.5,0.3-8.1,1.2
			c-0.8,0.3-1.5,0.6-2.3,1"/>
	</g>
	<g id="POLYLINE_00000112602201571422671370000003640410357136413628_">
		<path class="st0" d="M307.4,191.9c0.6,3.7,1.1,7.3,1.1,11.1c0.1,3.5-0.1,7.1-0.4,10.6c-0.8,8.3-1.9,16.6-2.9,24.8
			c-0.9,7-1.3,14-2.1,20.9c-0.2,1.6-0.4,3.9-1.6,5.2c-0.8,0.8-1.9,0.9-3,1.1c-7.5,0.9-15,1.6-22.6,1.9c-7.5,0.3-15.1-0.1-22.6-1.1
			c-3.5-0.4-7-0.9-10.4-2c-1.7-0.6-3.7-1.3-4.8-2.8c-0.8-1.1-0.8-2.5-0.8-3.9c0.1-3.7,0.5-7.4,0.6-11.1c0.2-7.1,0.2-14.4-0.3-21.5
			c-0.5-8-1-16-0.9-24c0-1.8,0.1-3.5,0.1-5.2"/>
	</g>
	<g id="POLYLINE_00000064340531891354345540000007005000641387416964_">
		<path class="st0" d="M295.7,265.9c-0.4,4.2-0.9,8.3-0.6,12.5c0.3,4.5,0.9,8.9,0.9,13.4c-0.1,8.6-2.1,17.2-4.6,25.4
			c-2.6,8.7-6.1,17.1-8.6,25.9c-1.1,4-1.9,8.2-2,12.5c-0.1,4.4,0.5,8.7,0.5,13.1c0,0.8,0,1.8-0.6,2.5c-1.2,1.1-3.7,1.1-5.2,1.1
			c-2.7,0-6.3-0.8-7-3.8c-0.6-2.6,0.4-5.5,0.8-8c0.4-2.1,0.8-4.2,1.1-6.4c0.3-2,0.1-3.9,0.1-5.8c0-1.7,0.3-3.3,0.6-4.9
			c0.4-2.1,0.6-4.3,0.8-6.4c0.3-4.2,0.5-8.3,0.5-12.5c0-8.8,0-17.4,1.7-26c0.9-4.2,2-8.5,2-12.8c0-4-1.3-7.9-1.6-11.9
			c-0.2-2-0.1-4.1-0.1-6.1"/>
	</g>
	<g id="POLYLINE_00000061445059554740733740000009746950845895272369_">
		<path class="st0" d="M280.9,358.4c1.1,2,1.5,3.5,1.7,5.8c0.1,1.8,0.2,3.7,0.6,5.4c0.4,1.9,0.9,3.7,1.4,5.6c0.4,1.6,0.4,3.2,0,4.9
			c-0.2,0.8-0.4,1.8-1.1,2.3c-1.4,1.1-3.9,0.8-5.5,0.8c-2,0-4-0.1-6-0.1c-1.1-0.1-2.2-0.1-3.3-0.4c-3.4-0.9-2.2-4.8-1.8-7.4
			c0.6-3.9,0.6-7.7,0.8-11.6c0.1-2,0.4-4,1.5-5.8c0.3-0.5,0.7-0.9,1.1-1.5"/>
	</g>
	<g id="POLYLINE_00000000936374698842242090000018195920609282044822_">
		<path class="st0" d="M268.8,267.5c-0.4,2.1-0.9,4.2-1.4,6.3c-0.5,1.9-1.1,3.7-1.5,5.6c-0.8,3.9-0.4,8.1-0.3,12.1
			c0.3,8.3-0.3,16.4-0.5,24.7c-0.1,5.1-0.3,10.1-0.5,15.1c-0.2,4.1-0.9,8.3-0.9,12.4c-0.1,3.2,1.1,6.1,1.4,9.4
			c0.4,3.9,0.3,8.2-0.1,12.1c-0.4,3.6-2.1,6.1-6,6.3c-2.3,0.1-6.7,0-6.8-3.2c-0.1-1,0.2-2.1,0.4-3.1c0.4-2.1,0.9-4.3,1.2-6.4
			c0.6-4,0.6-8,0-11.9c-0.7-4.4-2-8.5-3.2-12.8c-1.1-4-2.1-8-3-12c-1.8-8.5-3.4-17.2-3.7-26c-0.2-4.1-0.1-8.2,0.5-12.3
			c0.6-4.1,1.3-8.1,1.4-12.2c0-2.1-0.1-4.2-0.2-6.4"/>
	</g>
	<g id="POLYLINE_00000059990889554434072160000005518350592460726973_">
		<path class="st0" d="M265.2,355.9c0.9,1.1,1.6,2,1.6,3.5c0.1,3-0.6,5.9-0.5,8.9c0.1,2,0.4,3.9,0.6,5.9"/>
	</g>
	<g id="POLYLINE_00000098928833338276789830000017511526175678754209_">
		<path class="st0" d="M266.5,381.2c-1.8,1.8-4,1.8-6.4,2c-3.2,0.1-6.8,0.4-9.9-0.7c-1.1-0.4-2.1-1.1-2.4-2.3
			c-0.3-1.1-0.2-2.5-0.1-3.7c0.2-1.9,0.6-3.9,1.2-5.6c0.6-1.7,1.5-3.4,2.1-5.1c0.9-2.3,1.7-4.6,2.5-7"/>
	</g>
	<g id="POLYLINE_00000010279191593119630230000018233537130986927013_">
		<path class="st0" d="M37.9,119c-0.6-0.3-1.2-0.7-1.5-1.3c-0.6-1.5-0.1-3.5,0-5c0.1-2.3,0.1-5.6-2-7.1c-0.6-0.4-1.4-0.8-1.9-0.1
			c-0.9,1.3,0.3,3.4-1.1,4.6c-1.1,1-3,0.1-4-0.6c-1.4-1.1-2.3-2.6-3.2-4c-1.6-2.5-3.2-4.9-5.1-7C18,97.2,17,96,15.3,96.6
			c-1.9,0.6-2.5,2.2-2.1,4c0.5,2.4,1.7,4.7,2.7,7c1,2.4,2.1,4.7,3.6,6.8c1.6,2.2,3.5,4.1,5.6,5.9c2.3,2,4.6,4.2,7,6
			c0.6,0.4,1.3,0.9,2,1.3"/>
	</g>
	<g id="POLYLINE_00000090269362760264786180000015116339138209152905_">
		<path class="st0" d="M86.4,112.4c-0.5,6.3-1,12.5-1.8,18.8c-0.8,6.5-1.3,13.1-1.7,19.7c-0.4,6.3-1.1,12.6-1.7,18.9
			c-0.6,5.8-1.1,11.6-1.3,17.4c-0.2,6.1,0.1,12.2,0.4,18.3c0.1,0.9,0.1,1.7,0.2,2.6"/>
	</g>
	<g id="POLYLINE_00000000943081936308773340000001791849050540622744_">
		<path class="st0" d="M104.4,86.2c-1.5,0.4-3,1-4.6,1.5c-1.4,0.4-2.8,0.6-4.1,1.1c-1.2,0.4-2.3,1.1-3.2,2.1c-1.9,2.1-3,5-4.2,7.6
			c-1.5,3.3-2.7,6.8-4.5,9.9c-1.4,2.5-3.7,4.2-5.5,6.4c-2,2.3-3.5,4.8-5.6,6.9c-2,1.9-4.2,3.9-6.6,5.1c-1.4,0.6-2.5,0.6-3.9,0.2
			c-3.5-1-7-2.1-10.2-3.5c-3.3-1.3-6.4-3-9.8-4.3c-1.1-0.4-2.5-0.9-3.7-0.4s-1.9,1.9-2.4,3c-1.3,2.8-2.2,5.8-2.7,8.9
			c-0.1,1-0.2,2.1,0.4,3c0.7,1.1,2,1.6,3.2,2c3.4,1.2,6.8,2.5,10.2,3.9c3.6,1.6,7.2,3.3,10.7,4.9c2.7,1.3,5.4,2.7,8.3,3.4
			c1.5,0.3,2.8,0.1,4.2-0.5c1.4-0.6,2.7-1.5,4-2.3c1.6-0.9,3.2-1.6,4.8-2.6c1.5-0.9,3-1.9,4.4-2.9"/>
	</g>
	<g id="POLYLINE_00000096020877449634114590000003960497298601028794_">
		<path class="st0" d="M110.6,81.7c-2.9,1.8-5.4,3.8-7.9,6.1c-1.6,1.5-3.9,2.8-5.2,4.6c-0.3,0.4-0.6,0.9-0.6,1.5
			c0.1,1,1.1,1.7,1.3,2.7c0.1,0.3,0,0.5-0.2,0.8c-0.7,1.2-2.4,1.6-3.4,2.5c-1.2,1-1.8,2.3-2.1,3.8c-0.6,3.1-0.4,6.4-0.6,9.5
			c-0.4,7.1-1.1,14.2-1.6,21.2c-0.1,1-0.1,2-0.2,3"/>
	</g>
	<g id="POLYLINE_00000005946476647905174810000000606305629963930281_">
		<path class="st0" d="M109,371.5c0.3,2.7,0.1,5.2-0.2,7.9c-0.1,0.8-0.1,2.1-0.7,2.8c-0.5,0.5-1.4,0.6-2,0.8
			c-2.5,0.4-5.2,0.1-7.8,0.1c-1.5,0-3.2,0.1-4.6-0.4c-0.9-0.4-1.2-1.4-1.8-2.1c-0.9-1.3-1.6-0.6-3-0.1c-2.6,0.9-5.3,1.7-8,2.2
			c-2.8,0.5-5.6,0.5-8.5,0.5s-5.9-0.1-8.8-0.4c-2.1-0.2-4.4-0.5-6.4-1.5c-1.4-0.7-3.4-2-3.4-3.8c0.1-1.3,1.2-3.5,2.5-3.8
			c0.6-0.1,1.3,0,2,0c1.5,0.1,2.8,0.3,4.3,0.4s2.9,0,4.3-0.4c4.3-1.3,7.5-5.2,11.1-7.8c1.3-0.9,2.5-1.8,3.8-2.7"/>
	</g>
	<g id="POLYLINE_00000140000040848939423220000018161790125891690625_">
		<path class="st0" d="M144.9,369.2c0.3,2.5,0.4,5,0.2,7.5c-0.1,1.5-0.2,3.2-0.9,4.4c-0.5,0.8-1.3,1.3-2.2,1.5
			c-2.3,0.5-4.9,0.4-7.3,0.6c-3.5,0.3-8.1,0.9-11.3-0.9c-1.5-0.8-2.1-2.2-2.3-3.9c-0.1-3.3,1.4-6.8,3.4-9.4c0.3-0.4,0.6-0.8,0.9-1.1
			"/>
	</g>
	<g id="POLYLINE_00000052790507302731567200000005715175793121724820_">
		<path class="st0" d="M91.3,179c-0.4-3-0.6-5.9-0.4-8.9c0.2-3.1,0.4-6.1,0.2-9.2c-0.4-6.6-0.3-13.2,0.2-19.9
			c0.3-3.8,0.6-7.6,1.1-11.4"/>
	</g>
	<g id="POLYLINE_655_">
		<path class="st0" d="M106.5,227.3c1.6,5.8,3.4,11.4,5.6,17c2.4,6.1,4.9,12.1,7.5,18.2c2.1,5.1,4,10.3,5.9,15.5
			c0.9,2.5,1.8,5.1,2.1,7.7c0.4,2.3,0.2,4.6-0.1,6.9c-0.3,2.7-0.4,5.3,0.1,8c0.4,3,1.2,5.9,1.8,8.9c1.3,5.7,2.2,11.3,2.6,17.1
			c0.2,2.7,0.3,5.4,0.1,8.2c-0.1,1.6-0.3,3.3-0.8,4.9c-0.7,1.8-1.8,3.3-2.7,5c-1.1,2.5-2.1,5-2.9,7.6c-0.7,2.3-1.3,4.8-1.3,7.3
			c0.1,2.6,0.3,5.4,0.7,8c0.3,1.6,0.8,3.2,2.6,3.7c1.9,0.5,4,0.1,5.9-0.1c2.9-0.3,5.9-0.6,8.7-1c2.5-0.4,4.2-1.5,5.1-3.9
			c0.9-2.3,1.3-4.9,1.7-7.4c0.6-2.9,1.1-5.8,1.6-8.7c0.9-5.8,1.6-11.6,2.1-17.5c0.5-6.1,0.8-12.3,0.8-18.5c0.1-5.9,0-11.7-0.4-17.6
			c-0.4-6.3-1.1-12.6-1.8-18.8c-0.6-5.4-1.5-10.8-0.9-16.3c0.3-2.9,0.8-5.8,1-8.7c0.2-2.9,0.1-5.8,0-8.7c-0.3-5.8-1.3-11.3-2.6-16.9
			c-0.8-3-1.5-6-2.2-9"/>
	</g>
	<g id="POLYLINE_654_">
		<path class="st0" d="M132.4,179.8c-6.9,1.5-13.9,2.3-21,2.4c-3.4,0.1-6.9-0.1-10.3-0.6c-3.2-0.5-6.1-1.7-9.2-2.5
			c-1.6-0.4-1.5,1.6-1.6,2.8c-0.7,7.1-2.1,14.2-3,21.3c-0.8,7-1.3,14.1-1.6,21.1c-0.3,7-0.4,14-0.4,21.1c0.1,7.2,0.2,14.4,0.5,21.6
			c0.3,7.3,0.8,14.5,1.5,21.7c0.6,7,1.3,14,2.5,20.9c0.4,2.5,0.9,4.7,0.8,7.3c-0.2,2.8-0.5,5.6-0.9,8.5c-0.9,7.8-1.6,15.6-2.8,23.3
			c-0.5,3-1.7,5.7-2.9,8.5c-0.8,1.9-2.1,4.2-2,6.3c0,2.7,4.1,2.9,5.9,3.5c3,1,5.7,2.5,8.7,3.5c2.6,0.9,5.4,1.4,8.1,1.5
			c1.7,0.1,4.8,0.3,5.5-1.8c0.5-1.6,0-3.5-0.3-5.1c-0.5-3.1-1.1-6.2-1.1-9.4c0.1-6.6,2.8-12.8,4.4-19c1.6-6.6,2.2-13.4,2.7-20.2
			c0.4-7.3,0.6-14.7,1-22.1c0.4-7.1,1.1-14.3,1.8-21.4c0.4-3.3,0.8-6.6,1.1-9.9"/>
	</g>
	<g id="POLYLINE_653_">
		<path class="st0" d="M109.7,87.7c-1.5,2-3,3.9-4.2,6.1c-1.1,2-2.1,4.2-3,6.3c-1.8,4.5-3.5,9.1-5,13.8c-1.8,5.6-3.7,11.3-5.4,16.9
			c-1.5,4.9-3,9.7-4.2,14.7c-1.3,5.1-2.3,10.2-3.2,15.4c-0.9,5.4-1.6,10.7-2.1,16.1c-0.5,5.1-1,10.1-1.3,15.2
			c-0.4,5.4-0.7,10.7-0.7,16.2c0,0.4-0.4,4.8,0.7,4.7c0.4,0,0.8-0.9,0.9-1.1c1.4-2.3,2.5-4.7,3.8-7.1c0.5-0.9,0.9-1.9,1.4-2.8"/>
	</g>
	<g id="POLYLINE_652_">
		<path class="st0" d="M114.3,72.2c-2.5,4.6-4,9.6-4.5,14.9c-0.1,0.6-0.8,4.3,0.5,4.1c1-0.2,2.1-1.8,2.5-2.5"/>
	</g>
	<g id="POLYLINE_651_">
		<path class="st0" d="M116.5,82c-1.8-4.6-2.6-9.4-2.2-14.3"/>
	</g>
	<g id="POLYLINE_650_">
		<path class="st0" d="M116.9,89.9c0.3,3.2,0.4,6.1,0.1,9.3c-0.4,3.4-0.9,6.9-1.4,10.3c-1,6.8-1.8,13.6-2.3,20.5
			c-0.4,6.8-0.5,13.7-0.9,20.5c-0.2,3.6-0.4,7.2-0.7,10.7c-0.1,1.6-0.3,3.2-0.3,4.9c-0.1,0.7,0.1,1.5-0.1,2.1
			c-0.4,1.3-2.3,2.6-3.3,3.4c-1.1,0.9-2.5,2.1-4,2.3c-0.6,0.1-1-0.1-1.5-0.5s-0.9-1.1-1.3-1.6c-0.8-1.1-1.5-2.3-2.1-3.5
			c-0.7-1.6-0.7-3.1-0.6-4.8c0.2-3,0.5-6,0.8-9c0.8-7.1,1.5-14.2,2.5-21.3c0.9-6.8,2.1-13.7,3.7-20.4c1.5-6.5,3.3-13,5.6-19.2
			c0.6-1.5,1.1-3,1.7-4.5"/>
	</g>
	<g id="POLYLINE_649_">
		<path class="st0" d="M118.5,82c-1.2-0.1-2.4,0.1-3.6,0.1c-0.4,0-0.9,0-1.3,0.2c-0.9,0.5-1.1,2-1.1,2.9c-0.1,1.3-0.3,3.2,0.8,4
			c0.9,0.8,2.5,1,3.7,0.7c1.5-0.4,2.5-1.9,2.8-3.4"/>
	</g>
	<g id="POLYLINE_648_">
		<path class="st0" d="M139.1,75.7c-0.3-2.8-1.3-5.4-3.3-7.5"/>
	</g>
	<g id="POLYLINE_647_">
		<path class="st0" d="M136,81.3c-2.2,1.8-4.4,3.5-6.6,5.3c-2,1.6-3.9,3.3-5.9,4.7c-0.5,0.4-2.1,1.8-2.7,0.9
			c-0.2-0.3-0.1-0.8-0.2-1.1c-0.1-1.2-0.3-2.5-0.6-3.7c-0.2-1.2-0.4-2.4-0.8-3.5c-0.2-0.7-0.6-1.3-0.7-2c-0.2-0.8,0.3-1,1-1.4
			c2-1.1,4-2.2,5.9-3.7c2.1-1.6,4-3.4,6.2-4.9c0.6-0.4,1.2-0.9,1.8-1.3"/>
	</g>
	<g id="POLYLINE_646_">
		<path class="st0" d="M149.2,205.3c-2,2.2-2.5,5.2-4.6,7.4"/>
	</g>
	<g id="POLYLINE_645_">
		<path class="st0" d="M139.3,196.2c1.8,3,3.4,6.1,4.2,9.5c0.7,3.2,0.8,6.4,1.8,9.5c0.9,2.7,2.3,3.8,5.1,3.4
			c3.6-0.5,7.2-1.7,10.7-2.7c2.9-0.8,6.1-1.2,8.8-2.5c2.1-1,2-2.5,1.3-4.6c-2.5-6.9-3.3-14.2-4.4-21.4c-0.1-0.8-0.3-1.5-0.4-2.3"/>
	</g>
	<g id="POLYLINE_644_">
		<path class="st0" d="M152.7,105.4c-0.6,5.4-0.8,10.6-0.4,16c0.3,6.1,0.4,12,0.3,18.1c0,3.8-0.3,8.3,1.2,11.9
			c0.6,1.3,1.3,2.3,1.5,3.8c0.2,1.8,0.2,3.5,0.4,5.4c0.3,2.6-1.4,4.8-2.6,7c-3.1,5.4-6.1,10.9-9.3,16.2c-1.3,2.1-2.5,4.2-4.2,6
			c-0.6,0.7-1.7,1.3-2.1,2.1c-0.8,1.5,0.7,3.2,1.6,4.1c2.1,2.1,4.4,4.1,6.6,6.1c1.5,1.4,3,3,4.8,4.1c1.1,0.8,2.4,1.2,3.6,0.3
			c1-0.8,1.7-2,2.3-3c1.5-2.7,2.8-5.4,4.3-8.1c2.5-4.7,5.2-9.1,7.9-13.6s4.9-9.2,6.6-14.2c0.8-2.1,1.4-4.2,1.7-6.4
			c0.3-2.4,0.2-4.9,0-7.3c-0.3-5.4-0.9-10.9-1.5-16.3c-0.6-5.6-1.6-11.3-1.9-16.9c-0.1-2.7,0.1-5.2-0.1-7.9
			c-0.1-2.6-0.8-5.1-1.3-7.5c-0.6-2.7-0.8-5.3-1.1-8c-0.2-1.6-0.4-3.4-1.2-4.8c-1.1-2.1-3.2-3.5-5.4-4.4c-2.3-1-4.7-1.8-7.1-2.7
			c-2.4-0.9-4.7-2.2-7.2-3.1c-1.8-0.7-3.8-1-5.8-1.3"/>
	</g>
	<g id="POLYLINE_643_">
		<path class="st0" d="M137.4,192c-1.6-4.4-3.4-8.7-5.3-13c-2-4.2-4.3-8.3-6.3-12.5c-3.7-7.8-6.3-15.9-6.4-24.6
			c-0.1-9.2,1.8-18.3,4-27.1c2.1-8.8,4.6-17.7,8.5-25.9c2-4.2,4.4-8.3,6.8-12.4c0.4-0.7,0.6-1.6,1.5-1.1c1.2,0.7,2.2,2.3,3,3.4
			c0.7,0.9,1.3,1.8,1.7,2.8c0.6,1.5,0.8,3.2,0.9,4.7c0.1,0.7,0.1,1.6-0.1,2.2c-0.3,0.6-0.7,0.7-1.3,0.8c-1,0.1-4-0.5-4.9,0.6
			c-1.1,1.3,2.3,3.2,2.2,4.7c0,0.6-0.3,1.1-0.6,1.5c-1,1.8-2.3,3.4-3.4,5.1c-2,3.2-3.6,6.7-5.1,10.2c-2.5,5.8-5.1,11.6-7.6,17.4
			c-1.5,3.5-3.1,6.9-4,10.6c-0.6,2.1-0.9,4.2-1.2,6.4"/>
	</g>
	<g id="POLYLINE_642_">
		<path class="st0" d="M141.8,48.6c-0.1-2.1-0.2-4.1-0.1-6.2c0.2-2,0.6-3.9,0.5-5.9c-0.1-1.9-0.5-3.9-2-5.1
			c-0.6-0.6-1.3-0.9-1.7-1.7c-0.7-1.3-0.9-2.7-1.4-4c-0.5-1.5-1.2-2.9-2.5-3.8c-2.2-1.5-5.4-1.2-7.8-1.2c-3.7,0-7.6-0.5-11.3,0.4
			c-2.5,0.6-5.1,1.9-6.8,3.7c-1.8,1.9-1.8,4.8-2.4,7.3c-0.4,1.6-0.6,3-0.1,4.6c0.4,1.6,1.4,3.1,2,4.7c0.6,1.8,1.1,3.6,1.3,5.5
			c0.1,0.9,0.2,1.8,0.3,2.8"/>
	</g>
	<g id="POLYLINE_631_">
		<path class="st0" d="M140.6,51.2c0.3-0.8,0-2.1,0.9-2.5c0.6-0.3,1.2,0.1,1.5,0.6c1.1,1.4-0.1,4.2-0.5,5.6
			c-0.3,0.8-0.4,2.1-1.1,2.8c-0.4,0.4-1.1,0.3-1.6,0.6c-0.3,0.1-0.4,0.3-0.6,0.5c-0.5,0.9-0.4,2.3-0.6,3.4c-0.8,3-2.4,6.1-4.8,8.1
			c-2,1.7-4.5,2.6-7.1,3c-2.8,0.4-6.1,0.3-8.7-1.1c-2.2-1.2-3.7-3.4-4.6-5.6c-0.9-2.1-1.2-4.6-2.1-6.7c-0.2-0.4-0.4-0.9-0.8-1.3
			c-0.4-0.3-0.9-0.4-1.2-0.7c-0.5-0.4-0.7-1.2-0.9-1.8c-0.4-1.5-0.7-3.2-0.5-4.6c0.1-0.4,0.2-0.8,0.5-1.1c0.4-0.4,1-0.7,1.5-0.2
			c0.3,0.3,0.4,1.6,0.6,1.6c0.4,0.1,0.4-2.1,0.5-2.4c0.3-2.7,0.6-5.3,0.6-8c0-1.3,0-2.8,0.4-4c0.9-2.6,4.6-3,6.8-3.4
			c4.2-0.7,8.9-1.3,13.1-0.6c2.2,0.4,4.4,1.5,5,3.9c0.4,1.5,0.5,3,0.9,4.6c0.6,2.3,1.1,4.5,1.1,6.9c0,0.3-0.6,4.4,0.5,4
			C140.3,52.2,140.6,51.5,140.6,51.2z"/>
	</g>
</g>
<g id="AG-OUTLINE_00000176042797838818578220000009049272635829565313_">
	<g id="POLYLINE_214_">
		<path class="st0" d="M235.4,149.1c-2.6-0.8-5.1-2.1-7-4c-2-2.1-2.2-4.8-2.8-7.5c-0.6-2.5-1.5-5-2.1-7.5c-0.6-2.5-0.9-4.9-1.2-7.4
			c-0.6-5.2-0.8-10.5-0.8-15.7c0-2.8,0.1-5.8-0.1-8.6c-0.1-2.7-0.4-5.2-0.6-7.9c-0.1-2.3-0.2-4.7,1.8-6.1c1.7-1.2,3.8-2.1,5.7-2.9
			c1.1-0.5,2.7-0.8,3.7-1.5c0.4-0.3,0.3-0.1,0.3-0.5c0-0.3-0.1-0.5-0.2-0.8c-0.1-0.4-0.1-0.7-0.2-1.1c-0.2-2,0.2-4.1,1.4-5.8
			c1.7-2.3,4.4-2.7,6.8-3.7c2-0.8,2.1-2.4,2.8-4.2c1.2-2.8,3.1-5.1,3.1-8.3c0-2.3-0.6-4.6-1-6.9c-0.4-2.4-0.4-4.9,0-7.3
			c0.8-4.4,2.6-8.7,4.9-12.5c2-3.3,4.6-6.4,7.9-8.4c2.2-1.4,4.7-2.2,7.3-2c1.8,0.2,3.7,0.8,5.5,0.9c1.4,0.1,2.7,0,4,0.6
			c3.2,1.5,5.5,4.9,7.2,7.8c2.5,4.3,4.2,9.2,5.2,14c1,4.7,1.8,9.7,1.2,14.5c-0.2,1.5-0.6,2.8-1.3,4.2c-0.6,1.2-1.4,2.3-1.6,3.7
			c-0.3,1.5,0.1,3.2,0.9,4.6c1.3,2.1,3.6,2.3,5.9,2.5c2.9,0.3,6.4,0.8,8.7,2.8c0.6,0.6,1.1,1.3,1.5,2c0.5,0.9,0.6,2.5,1.2,3.2
			c0.4,0.6,1.2,1,1.7,1.6c0.4,0.4,0.8,0.9,1.1,1.4c1.4,2,2.5,4.3,3.5,6.5c0.7,1.5,1.5,2.9,2.5,4.2c0.8,0.9,1.5,1.6,1.9,2.7
			c1.1,2.8,1.2,5.7,3.2,8.2c1.3,1.6,3,2.9,4.3,4.6c1.1,1.5,2,3.2,2.8,4.9c0.6,1.1,1,2.4,1.7,3.5c0.1,0.2,0.2,0.4,0.4,0.5
			c0.2,0.1,0.3,0.2,0.5,0.2c0.5,0,1.1-0.5,1.5-0.8c1.1-0.8,2.1-1.4,3.4-2.1c0.6-0.3,0.9-0.8,1.3-1.3c0.9-1.8,1.3-3.7,2.3-5.4
			c1.2-2,2.7-3.9,4.4-5.4c1.8-1.6,3.8-3,5.4-4.8c3-3.3,4.4-7.7,7.3-11.1c0.4-0.5,1-1.1,1.7-1.3c0.4-0.1,0.9,0.1,1.3,0
			c0.9-0.1,2-0.9,2.8-1.2c0.7-0.3,1.4-0.4,2.1-0.5c2.5-0.4,4.9-0.4,7.4-0.7c3.6-0.4,7.5-1.2,10.6-3.2c1.8-1.1,3.2-3.5,5.4-3.7
			c1.2-0.1,3,0.3,3.7,1.5c0.5,0.8,0.1,1.5-0.4,2.1c-1.3,1.6-3.2,2.8-4.9,4c-2.1,1.6-4,3.3-6.1,4.9c-1.5,1.1-3,2.4-4.6,3.2
			c-1.1,0.5-2.3,0.6-3.5,0.8c0.3,0,0.4,0.9,0.4,1.1c0,0.8-0.6,1.4-0.9,2c-1.8,2.4-3.8,4.6-5.4,7.1c-1.8,2.8-3.5,5.7-5.2,8.5
			c-3.4,5.2-7.5,9.7-11.9,14.1c-2.2,2.2-4.6,4.4-6.4,6.8c-1.8,2.3-3.4,4.7-5.6,6.6c-2.3,1.9-4.8,2.8-7.6,1.9
			c-2.7-0.8-5.3-2.3-7.9-3.4c-0.6-0.3-1.2-0.5-1.8-0.8c-0.4-0.3-0.5-0.3-1-0.1c-0.3,0.1-0.6,0.4-0.9,0.5c-1.3,0.7-2.7,1.3-4,2
			c-0.7,0.3-1.3,0.6-2,0.9c-0.3,0.1-1.1,0.3-1.3,0.6c-0.1,0.2,0,0.9,0.1,1.2c0.1,1.5,0.3,3.1,0.4,4.6c0.3,3.1,0.8,6.2,1.5,9.3
			c1.4,6.7,3.5,13.1,5.5,19.7c0.8,2.8,1.7,5.6,2.4,8.5c0.5,1.9,1.3,4.2,1.1,6.3c-0.1,0.4-0.1,0.6-0.4,0.9c-0.2,0.1-0.4,0.2-0.6,0.2
			c-1.5,0.3-3,0.5-4.6,0.7c-1.6,0.3-3.2,0.4-4.8,0.5c0.6,4.4,1.2,8.7,1.2,13.1c-0.1,4.3-0.4,8.6-0.9,12.8c-1,9.4-2.3,18.6-3.4,27.9
			c-0.5,4.4-0.8,8.7-1.3,13.1c-0.2,1.8-0.4,4.6-1.9,5.9c-0.4,0.3-0.9,0.5-1.4,0.6c-0.7,0.2-1.4,0.2-2,0.3c-0.4,0.1-1.6-0.1-1.9,0.2
			c-0.2,0.2-0.1,1-0.2,1.3c-0.4,4.2-0.7,8.2-0.4,12.5c0.4,4.5,0.9,9,0.8,13.5c-0.1,4.2-0.8,8.4-1.6,12.5c-1.8,8.9-4.7,17.4-7.7,26
			c-2.8,8-5.7,16.1-5.8,24.7c0,0.4,0,0.9,0,1.4c0,0.6,0.3,0.9,0.6,1.5c0.2,0.4,0.4,0.7,0.5,1.1c0.4,0.9,0.5,2,0.6,3
			c0.2,2,0.2,4,0.6,5.9c0.4,2,1.1,4,1.5,6c0.4,1.7,0.3,3.5-0.2,5.2c-0.3,0.9-0.6,1.7-1.5,2.1s-1.8,0.4-2.7,0.5
			c-2.1,0.1-4.3,0.1-6.4,0c-2-0.1-4.9,0.3-6.5-1c-0.3-0.3-0.6-0.6-0.8-0.9c-2.3,2.3-5.9,2-9,2c-2.5,0-6.8,0.3-8.9-1.6
			c-1.7-1.6-0.9-4.9-0.6-6.9c0.8-4.4,2.9-8.2,4.4-12.3c0.4-1.3,1-2.6,1.3-3.9c0.2-1.3,0.3-2.6,0.4-3.9c0.1-2.3,0.1-4.6-0.3-6.8
			c-0.7-5.2-2.4-10.2-3.8-15.2c-1.5-5.2-2.7-10.4-3.7-15.7c-1-5.1-1.8-10.2-2.3-15.4c-0.5-5.1-0.8-10.2-0.2-15.4
			c0.6-5.1,1.7-10,1.7-15.1c0-1.3,0-2.7-0.1-4c0-0.4,0.1-1.5-0.1-1.8c-0.3-0.3-1.5-0.4-2-0.5c-1.4-0.4-2.8-0.9-4-1.7
			c-1.5-1.1-2.1-2.5-2.1-4.4c-0.1-2.5,0.3-5,0.4-7.5c0.1-2.6,0.2-5.2,0.3-7.8c0.1-5.5,0.1-11-0.3-16.5c-0.3-5.5-0.8-10.9-1-16.4
			c-0.1-2.5-0.1-5.1-0.1-7.6c0-1.3,0.1-2.7,0.1-4c0-0.8,0.3-2,0.1-2.7c-0.2-0.5-0.8-0.5-1.4-0.6c-2.5-0.7-4.9-1.5-7.3-2.3
			c-1.3-0.4-3.1-0.7-4.1-1.6c-1-0.9-0.6-2.6-0.4-3.7c1.2-5.4,3.2-10.6,4.7-15.9c1.5-4.9,3-9.8,4.5-14.7
			C233.8,154.6,234.6,151.8,235.4,149.1z"/>
	</g>
	<g id="POLYLINE_212_">
		<path class="st0" d="M34,127.6c-3.2-1.6-5.8-4.4-8.4-6.6c-3-2.6-5.8-5.2-7.6-8.7c-1.9-3.4-3.7-7.3-4.7-11
			c-0.3-1.1-0.6-2.4,0.1-3.4c0.6-0.9,1.9-1.6,3-1.5c1.3,0.1,2.2,1.6,3,2.5c2.5,3,4.2,6.4,6.8,9.4c1,1.2,2.5,2.4,4.2,2.3
			c2.5-0.2,1.3-3.4,2.1-4.8c0.8-1.5,2.7,0.4,3.2,1.3c0.9,1.8,0.9,4,0.8,5.9c-0.1,1.5-0.8,3.9,0.3,5.2c0.4,0.5,1,0.9,1.5,0.8
			c0.4-0.1,0.7-0.3,1.1-0.4c0.9-0.1,1.8,0.3,2.7,0.6c2,0.8,4,1.7,5.9,2.7c3.7,1.7,7.5,3.2,11.4,4.4c2.1,0.7,4.4,1.8,6.5,0.8
			c2.9-1.3,5.4-3.7,7.6-5.9c2.4-2.5,4.2-5.6,6.7-8c1.2-1.2,2.4-2.3,3.3-3.8c1-1.6,1.8-3.4,2.5-5.2c1.6-3.9,3.2-8.2,5.6-11.7
			c0.9-1.4,2.1-2.6,3.7-3.3c1.3-0.6,2.8-0.8,4.2-1.2c0.8-0.2,1.6-0.4,2.5-0.8c0.9-0.3,2-0.5,2.8-1c1.6-1.1,3-2.5,4.7-3.5
			c0.4-0.3,1.1-0.5,1.3-0.8c0.2-0.3,0.3-0.9,0.3-1.3c0.3-1.1,0.6-2.1,1-3.2c0.6-1.6,1.3-3.1,2-4.6c0.5-0.9,0.3-1.9,0.3-2.9
			s0.2-1.8-0.3-2.8c-0.9-1.9-1.3-4-1.9-5.9c-0.3-0.8-0.4-1.8-1-2.5c-0.4-0.5-1.1-0.6-1.6-1.1c-1.1-1.3-1.3-3.8-1.3-5.3
			c-0.1-1.1-0.1-1.8,0.9-2.5c0.1-0.1,0.3-0.1,0.4-0.2c0.2-0.3,0.1-0.8,0.1-1.2c-0.1-1.8-0.4-3.7-0.9-5.4c-0.7-2.5-2.4-4.8-2.7-7.5
			c-0.3-2.2,0.6-4.3,1-6.4c0.4-2.3,1-3.9,2.8-5.3c2.1-1.6,4.6-2.7,7.1-3.1c2-0.3,4-0.3,5.9-0.2c2.1,0.1,4.2,0,6.3,0.1
			c2,0.1,4.5,0.2,6.1,1.6c1.4,1.2,2,3.1,2.5,4.8c0.3,1,0.6,2.2,1.2,3.1c0.4,0.6,1.1,1,1.7,1.5c1.5,1.3,1.8,3.6,1.7,5.5
			s-0.4,3.8-0.6,5.7c-0.1,1.9,0,3.9,0.1,5.8c0.8,0,1.4,0.4,1.7,1.1c0.3,0.8,0.1,1.7-0.1,2.5c-0.3,1.3-0.6,2.6-1.1,3.9
			c-0.1,0.4-0.3,0.9-0.6,1.3c-0.6,0.8-1.8,0.4-2.3,1.2c-0.6,0.8-0.4,2.2-0.6,3.2c-0.3,1.1-0.6,2.1-1.1,3.2c-0.3,0.6-0.5,1.1-0.8,1.6
			c-0.3,0.4-0.8,1-0.9,1.5c-0.1,0.4,0.6,1.1,0.9,1.5c0.4,0.5,0.7,1,0.9,1.6c0.6,1.1,0.9,2.4,1.1,3.7c0.1,0.3,0.1,0.6,0.1,0.9
			c0.9-1.9,4.6,4.6,5.2,5.1c0.4,0.4,1.4,0.4,2,0.5c0.7,0.1,1.5,0.3,2.1,0.5c1.5,0.4,3,1.1,4.4,1.7c3.5,1.6,7.3,2.8,10.9,4.3
			c1.8,0.8,3.7,1.7,5.1,3.2c1.3,1.5,1.7,3.3,2,5.1c0.3,2,0.4,3.9,0.6,5.8c0.3,2.1,0.8,4.2,1.3,6.3c0.8,3.7,0.6,7.3,0.6,11.1
			c0.1,4.1,0.8,8.2,1.3,12.3c0.5,4.4,1,8.7,1.5,13.1c0.8,7,1.8,14.4-0.4,21.2c-1.1,3.6-2.7,7.1-4.3,10.5c-0.9,1.8-1.9,3.6-2.9,5.3
			c-0.5,0.8-1,1.6-1.5,2.5c-0.3,0.4-0.6,0.8-0.6,1.1c-0.1,0.6,0.2,1.3,0.3,1.9c0.6,4,1.3,8.1,2,12.1c0.3,1.8,0.6,3.7,1.1,5.4
			c0.4,1.7,1.2,3.3,1.6,4.9c0.8,2.8-1.3,3.7-3.7,4.4c-3.9,1.1-8,2.1-11.9,3.2c-1.8,0.5-3.6,1-5.4,1.3c-0.8,0.1-1.6,0.2-2.4,0
			c-0.4-0.1-0.8-0.3-1.1-0.6c1.5,5.9,3.2,11.8,4,17.8c0.9,5.9,1.3,11.9,0.7,17.9c-0.3,3-0.8,5.9-1,8.9c-0.2,2.8,0,5.5,0.3,8.3
			c0.6,6.3,1.6,12.5,2.1,18.7c0.6,6.1,0.9,12.3,0.9,18.5c0.1,6.1-0.1,12.2-0.4,18.3c-0.4,6.4-0.9,12.8-1.8,19.1
			c-0.8,5.9-1.8,11.8-3.1,17.6c-0.3,1.6-0.8,3.3-1.7,4.6c-0.3,0.4-0.8,0.9-1.2,1.2c-0.6,0.4-0.6,0.3-0.6,1.1
			c0.1,0.6,0.1,1.3,0.1,1.9c0.1,2.5,0.1,5.1-0.4,7.6c-0.2,0.9-0.5,2-1.3,2.7c-1,0.8-2.4,0.8-3.6,0.9c-3.2,0.3-6.5,0.5-9.7,0.6
			c-2.5,0-5.9,0.1-7.8-1.9c-1.4-1.5-1.3-3.6-0.9-5.4c0.4-2,1.2-4,2.3-5.8c0.4-0.7,1.5-1.6,1.7-2.3c0.1-0.3-0.1-1-0.2-1.3
			c-0.1-0.8-0.1-1.6-0.2-2.4c-0.2-2.5-0.6-4.9-0.2-7.5c0.4-2.7,1.3-5.3,2.2-7.8c0.9-2.6,2.1-5.1,3.5-7.5c0.6-1,1-2,1.3-3.1
			c0.6-2.5,0.5-5.1,0.5-7.7c-0.1-3-0.3-6-0.7-9c-0.8-6.1-2.2-12.1-3.5-18.1c-0.6-2.7-0.9-5.3-0.8-8.1c0.1-2.7,0.6-5.2,0.4-7.9
			c-0.3-5.7-3-11.3-4.9-16.6c-0.9-2.6-2-5.1-3-7.7c-0.3,0-1.3,11-1.4,12.3c-0.4,3.8-0.8,7.6-1.1,11.4c-0.7,8.6-1,17.2-1.4,25.8
			c-0.3,7.2-0.8,14.4-2.2,21.4c-1.5,7.1-4.9,14-5.1,21.3c-0.1,3.5,0.6,7,1.2,10.4c0.3,1.4,0.7,3.4,0,4.8c-0.1,0.3-0.4,0.5-0.6,0.8
			c-0.3,0.4-0.3,0.4-0.2,1c0.1,0.8,0.1,1.5,0.1,2.2c0,1.8-0.2,3.5-0.4,5.2c-0.1,0.6-0.1,1.5-0.4,2.1c-0.4,0.7-1.5,0.9-2.1,1
			c-1.1,0.2-2.1,0.1-3.2,0.1c-2.1-0.1-4.3,0-6.4-0.1c-1.1-0.1-2.7-0.1-3.5-1c-0.6-0.6-0.9-2.1-1.8-2.4c-0.1-0.1-0.3,0-0.4,0
			c-0.9,0.1-2,0.8-2.8,1.1c-3.2,1.1-6.6,2-10.1,2.2c-3.9,0.3-7.8,0.2-11.6-0.1c-2.9-0.2-6.2-0.3-8.9-1.6c-2.1-1-4.2-2.8-3.1-5.2
			c0.4-0.8,1-2.1,2-2.4c0.6-0.2,1.4-0.1,2-0.1c1.8,0.1,3.5,0.4,5.3,0.4c5.2,0.1,8.7-3.7,12.5-6.7c1.6-1.3,3.2-2.4,4.9-3.6
			c0.6-0.4,0.9-0.6,1.1-1.3c0.1-0.6,0.3-1.1,0.4-1.6c1.1-3.4,2.9-6.4,3.9-9.8c0.8-2.8,1-5.7,1.3-8.5c0.6-5.3,1.3-10.6,1.9-15.9
			c0.4-3.3,0.8-6.6,1-9.9c0.1-3-0.6-5.6-1-8.5c-1.3-7.7-2-15.5-2.6-23.3c-0.6-7.9-1.1-15.8-1.4-23.7c-0.3-8.1-0.3-16.1-0.2-24.2
			c0.1-7.8,0.4-15.7,0.9-23.5c0.3-3.9,0.6-7.8,1.1-11.7c-1.5,3-3,6-4.6,9c-0.2,0.4-0.9,2.2-1.6,2.1c-0.4,0-0.4-0.7-0.5-0.9
			c-0.2-1.3-0.1-2.7-0.2-3.9c-0.1-1.8-0.3-3.6-0.4-5.4c-0.4-6.5-0.5-13-0.1-19.5c0.4-7.4,1.3-14.8,2-22.1c0.6-6.4,1-13,1.5-19.4
			c0.1-0.7,0.1-1.5,0.2-2.1c-0.3-0.1-3.2,2.1-3.5,2.3c-1.1,0.7-2.2,1.3-3.4,1.9c-2.2,1.1-4.3,2.6-6.6,3.6c-3,1.3-5.9,0-8.7-1.2
			c-5.3-2.3-10.5-4.9-15.8-7.1c-2.4-1-4.8-2-7.3-2.8c-1.4-0.4-3-0.8-4.1-1.8c-1.5-1.3-1.3-3.2-0.9-4.9
			C33.7,128.8,33.8,128.2,34,127.6z"/>
	</g>
</g>
<line class="st1" x1="0" y1="0" x2="18.9" y2="-18.7"/>
</svg>
