<?xml version="1.0" encoding="utf-8"?>
<!-- Generator: Adobe Illustrator 28.4.1, SVG Export Plug-In . SVG Version: 6.00 Build 0)  -->
<svg class="cloth_part" version="1.1" id="Layer_1" xmlns="http://www.w3.org/2000/svg" xmlns:xlink="http://www.w3.org/1999/xlink" x="0px" y="0px"
	 viewBox="0 0 404 404" style="enable-background:new 0 0 404 404;" xml:space="preserve">
<g id="SELECT">
	<g name="swimsuit">
		<path class="st0" d="M101,185.8c-2.3,10.2-1.4,45.5,1,47c36.4,1.2,68.5-0.1,68.5-0.1l-0.6-46l-34.8,3.6
			C135.1,190.4,114.4,188.4,101,185.8z"/>
	</g>
	<g name="swimsuit">
		<path class="st0" d="M258.5,122.9c4.8,0,10.1,2.9,10.1,2.9l7.4,7.3l5-6.2c0,0,5.5-4.8,11.5-3.9s10.3,4.6,10.3,4.6l0.8,8l-5,6.2
			c0,0-2.8,2.9-9.4,2.2c-6.6-0.6-14.2-4.1-14.2-4.1l-9.3,3.9c0,0-5.2,0.1-10.2-1.2c-5.1-1.3-5.7-5.2-5.7-5.2s-1.3-3.3-1.2-7.1
			c0.1-3.8,4.8-6.4,4.8-6.4S253.7,122.9,258.5,122.9z"/>
		<path class="st0" d="M247.6,187.3l-1.7,4.1l7.6,4.5l15,12c0,0,5.9,10.8,7.3,9.9c1.5-0.9,4.5-5.3,4.5-5.3s7-7.3,12.2-12.4
			c5.2-5.2,13.3-7.8,13.3-7.8s1.2-5.3-2.3-4.8s-22.9,3.6-22.9,3.6l-17.2-0.8L247.6,187.3z"/>
	</g>
</g>
<g id="AG-HUMANS">
	<g id="POLYLINE_118_">
		<path class="st1" d="M301.9,126.3c-3.1-2.2-6.6-3.2-10.4-3.1c-4.1,0.1-8.1,1.5-11.3,4.2c-1.8,1.6-3.2,3.5-4.3,5.6
			c-2.2-3.5-5.5-6.5-9.2-8.3c-3.8-1.9-8.1-2.4-12.2-1c-1.5,0.5-3.1,1.3-4.1,2.5c-0.8,1-1.3,2.2-1.5,3.4c-0.3,1-0.1,2.1-0.1,3.1
			c0.1,1,0.3,2,0.5,3.1c0.4,1.3,1,2.6,2,3.7c2.3,2.7,5.6,3.6,8.9,4.1c4.5,0.8,8.8-0.3,12.7-2.5c0.5-0.3,1-0.6,1.5-1
			c0.2-0.1,0.4-0.3,0.6-0.4c0.1-0.1,0.6-0.6,0.8-0.6c0.1,0,0.6,0.4,0.7,0.5c0.2,0.1,0.4,0.3,0.6,0.4c0.4,0.3,0.7,0.5,1.1,0.7
			c1.8,1,3.9,1.7,5.9,2.1c3.8,0.9,8,1.2,11.7-0.1c2.9-1,5.6-2.9,6.9-5.7c0.7-1.5,1-3.1,1-4.8c0-1.6-0.1-3.6-0.8-5
			C302.7,127,302.4,126.6,301.9,126.3z"/>
	</g>
	<g id="POLYLINE_117_">
		<path class="st1" d="M246.1,191.9c-1.1,3.2-1.9,6.6-2.4,10c-0.4,3.5-0.5,7-0.3,10.5c0.2,3.6,0.7,7.1,1.2,10.7
			c0.6,3.6,1.2,7.2,2,10.8c0.5,2.6,1.1,5.2,1.7,7.7c1,4.8,2.1,9.5,3.1,14.3c1,4.3,1.8,8.5,2.8,12.8c0.4,1.8,1,3.6,0.6,5.5
			c-0.8,3.6-1.5,7.3-2,10.9c-0.5,3.5-1,7-1,10.6c-0.1,3.4,0.3,6.9,1,10.3c0.6,3.2,1.4,6.3,2.3,9.4c1.3,4.4,2.5,8.7,3.8,13.1
			c0.9,3.1,1.8,6.2,2.6,9.4c1,3.6,1.8,7.1,2.5,10.8c0.7,3.4,1.3,6.8,1.6,10.2c0.1,1.7,0.4,3.4,0.4,5c0,0.4-0.1,0.6-0.3,0.9
			c-0.3,0.3-0.6,0.4-0.7,0.9c-0.2,0.7,0,1.6,0.3,2.3c0.2,0.4,0.3,0.7,0.2,1.1c-0.3,1.2-1.1,2.4-1.8,3.4c-1,1.5-2.1,2.9-3.4,4.1
			c-1.2,1-2.5,1.8-3.7,3c-0.6,0.6-1.2,1.7-0.4,2.4c0.4,0.3,0.8,0.3,1.2,0.4c0.5,0.1,0.8,0.5,1.3,0.7c0.7,0.3,1.4-0.3,2.1,0.1
			c0.3,0.2,0.5,0.4,0.9,0.5c0.4,0.1,0.8,0.1,1.2,0.1c1.7,0,3.2-0.1,4.8-0.1c1.5,0.1,3,0.2,4.5-0.1c0.5-0.1,1.1-0.3,1.5-0.6
			c0.4-0.4,0.3-1.1,0.3-1.7c0.1-1.9,0.1-3.8,0.2-5.7c0.1-1.7,0.3-3.3,0.5-5c0.2-1.6,0.6-3.3,0.5-4.9c-0.1-1.6-0.4-3.2-0.6-4.7
			c-0.2-1.8-0.3-3.7-0.4-5.6c-0.3-3.8-0.4-7.5-0.6-11.3c-0.1-3.4-0.1-6.7-0.1-10.1c0.1-3.9,0.2-7.8,0.3-11.7
			c0.1-3.6,0.3-7.1,0.3-10.7c0.1-3.6-0.1-7.3-0.4-10.9c-0.3-3.6-0.9-7.2-1.3-10.8c-0.2-1.5-0.3-3.1-0.3-4.7c0.1-1.5,0.5-2.9,0.8-4.3
			c0.6-3.5,0.9-7.1,1.1-10.6c0.1-2.7,0.3-5.5,0.3-8.2c0.1-4.6,0.3-9.3,0.4-13.9c0.1-4.5,0.3-9.1,0.4-13.6c0.1-2.7,0.2-5.4,0.3-8.1
			c0.1-2.4,0.2-4.7,0.3-7c0-0.4-0.1-1,0.1-1.4"/>
	</g>
	<g id="POLYLINE_116_">
		<path class="st1" d="M250.5,138.4c0.6,3.1,1.1,6.1,1.6,9.2c0.6,3.6,1.1,7.1,1.7,10.6c0.4,3.1,0.8,6.3,0.5,9.4
			c-0.3,3.1-1.3,6.1-2.4,9c-1.2,3.4-2.6,6.7-3.9,10.1c-0.1,0.1-0.1,0.3-0.2,0.4"/>
	</g>
	<g id="POLYLINE_115_">
		<path class="st1" d="M248.1,187.2c1.1,0,2.2,0.3,3.2,0.6c1.8,0.4,3.6,0.8,5.4,1.2c3.1,0.6,6.1,1.3,9.2,1.7
			c3.1,0.4,6.2,0.6,9.4,0.6c3.2,0,6.6-0.1,9.8-0.4c3.3-0.3,6.7-0.7,10-1.2c1.5-0.3,3.1-0.5,4.5-0.9c1.3-0.3,2.6-0.8,3.9-1.3
			c0.5-0.1,1-0.3,1.2,0.3c0.2,0.3,0.3,0.6,0.3,0.9c0.2,0.7,0.4,1.3,0.6,2c0.1,0.4,0.4,1,0.3,1.4c-0.1,0.2-0.2,0.4-0.4,0.4
			c-0.9,0.6-2.1,0.8-3.1,1.2c-2.8,1.1-5.3,2.9-7.7,4.6c-2.5,1.8-4.9,3.8-7.2,5.9c-2.3,2.1-4.5,4.3-6.3,6.7c-1,1.3-1.8,2.7-2.6,4.1
			c-0.4,0.8-0.9,1.6-1.6,2.2c-1,0.8-2.2,0.3-2.9-0.6c-0.8-1.1-1.2-2.3-1.8-3.4c-0.7-1.3-1.5-2.5-2.4-3.7c-1.9-2.4-4.3-4.5-6.6-6.6
			s-4.9-3.9-7.5-5.7c-2.6-1.7-5.3-3.1-8.1-4.3c-0.7-0.3-1.8-0.7-1.8-1.7c-0.1-0.8,0.4-1.8,0.8-2.5c0.2-0.5,0.4-1.3,1-1.7
			C247.8,187.2,247.9,187.2,248.1,187.2z"/>
	</g>
	<g id="POLYLINE_114_">
		<path class="st1" d="M304.3,187.4c-1.1-3.4-2.4-6.6-3.7-9.9c-1.1-2.8-2.2-5.7-2.6-8.7c-0.4-3.1-0.2-6.2,0.2-9.2
			c0.4-3.4,1.1-6.9,1.7-10.2c0.6-3.5,1.3-7,2-10.4c0-0.1,0.1-0.3,0.1-0.4"/>
	</g>
	<g id="POLYLINE_113_">
		<path class="st1" d="M276.1,217.9c0.1,0.3,0.1,0.5,0.1,0.8c0.1,0.9,0.1,1.8,0.2,2.7c0.1,1.4,0.2,2.7,0.3,4.1
			c0.2,4.9,0.4,9.7,0.6,14.6c0.1,2.9,0.3,5.8,0.4,8.7c0.2,3.9,0.4,7.8,0.6,11.7c0.1,3.6-0.2,7.2-0.1,10.8c0.1,3.5,1,6.9,1.3,10.4
			c0.3,3.4,0,6.6-0.3,10c-0.4,3.8-0.8,7.4-1,11.2c-0.1,2.9-0.1,5.9-0.1,8.8c0.1,5,0.3,10.1,0.3,15.1c0.1,3.2,0.1,6.4,0.1,9.7
			c0,3.5-0.1,7.1-0.1,10.6c-0.1,3.5-0.3,7-0.6,10.5c-0.2,2.2-0.4,4.5-0.5,6.7c-0.1,1-0.2,2,0,3c0.6,3.1,0.4,6.2,0.6,9.4
			c0.1,1.7,0.1,3.4,0.4,5c0.1,0.6,0.3,1.3,0.8,1.7c0.6,0.4,1.3,0.6,2,0.6c0.8,0.1,1.5-0.1,2.2-0.1c0.4,0,0.8,0.1,1.1,0.1
			c0.8,0,1.6-0.5,2.5-0.4c0.4,0,0.7,0.3,1.1,0.4c0.8,0.2,1.7-0.3,2.4-0.4c1.1-0.2,2.2,0,3.2-0.2c0.8-0.2,1.8-0.7,2.4-1.3
			c0.2-0.2,0.3-0.4,0.4-0.6c0.3-2-1.7-2.6-3-3.5c-2.4-1.7-4.6-3.9-5.7-6.6c-0.4-0.8-0.7-1.8-0.7-2.7c0-0.6,0.3-0.8,0.6-1.3
			c0.1-0.1,0.1-0.2,0.1-0.3c0-0.1-0.1-0.3-0.2-0.4c-0.2-0.3-0.4-0.7-0.5-1.1c-0.3-1-0.2-2-0.4-3c-0.2-0.6-0.2-1.1-0.1-1.9
			c0.4-3.4,1.1-6.7,1.8-10c0.9-4.1,1.8-8.1,2.7-12.2c0.8-3.4,1.7-6.7,2.5-10.1c1-3.5,2-7,3-10.4c1.1-3.6,2.2-7.2,3.1-10.8
			c0.8-3.3,1.3-6.7,1.2-10.1c-0.1-3.5-0.7-6.9-1.2-10.4c-0.6-3.8-1.2-7.6-1.9-11.5c-0.2-1.1-0.4-2.2-0.3-3.2c0.4-1.7,1-3.4,1.4-5.1
			c1-3.8,1.8-7.6,2.7-11.5c0.6-2.8,1.3-5.5,1.9-8.3c1.1-4.9,2.2-9.8,3.2-14.7c0.6-2.9,1.3-5.8,1.7-8.7c0.5-3.4,0.8-6.9,0.8-10.4
			c0-3.6-0.3-7.1-0.8-10.6c-0.6-3.4-1.4-6.7-2.4-10.1"/>
	</g>
	<g id="POLYLINE_112_">
		<path class="st1" d="M273.2,214.8C273.2,214.9,273.2,214.9,273.2,214.8"/>
	</g>
	<g id="POLYLINE_84_">
		<path class="st1" d="M169.6,186.7c-0.4-2.6-1-5.2-1.7-7.6c-0.8-2.6-1.8-5.2-2.7-7.7c-0.8-2.1-1.4-4.3-1.6-6.5
			c-0.2-2.4,0.2-4.8,0.5-7.2c0.2-1.2,0.4-2.4,0.4-3.7c0.1-1.3,0-2.5,0.1-3.8c0.1-2.5,0.3-5.1,0.6-7.6c0.5-4.7,1.1-9.5,1.8-14.2
			c1-6.6,1.9-13.1,2.9-19.7c0-0.2,0.1-0.3,0.1-0.5"/>
	</g>
	<g id="POLYLINE_83_">
		<path class="st1" d="M101.7,186c4.3,1,8.6,1.8,12.9,2.5c4.3,0.7,8.6,1.3,12.9,1.7c4.3,0.4,8.5,0.4,12.7,0.3
			c4.1-0.3,8.3-0.7,12.4-1.3c4.5-0.6,9-1.4,13.6-2.2c1-0.2,3.3-1,3.8,0.5c0.2,0.6,0.2,1.3,0.2,2c0.1,0.9,0.1,1.7,0.1,2.6
			c0.1,2.1,0.1,4.1,0.2,6.2c0.2,5,0.3,10,0.5,15c0.1,4.3,0.2,8.5,0.1,12.8c0,2,0.1,4.1-0.3,6c-0.1,0.3-0.1,0.6-0.4,0.8
			c-0.2,0.1-0.4,0.1-0.7,0.1c-0.8,0.1-1.6,0-2.4,0c-2.3,0-4.6-0.1-6.9-0.1c-4.4,0.1-8.8,0.1-13.2,0.4c-2.4,0.1-4.7,0.3-7.1,0.3
			c-0.8,0-1.5,0-2.4-0.1c-1-0.1-2,0.1-2.9,0.1c-4.4,0.1-8.8-0.3-13.2-0.3c-4.8-0.1-9.6,0.1-14.5,0.1c-1.5,0-3.1,0.1-4.5-0.1
			c-0.3-0.1-0.6-0.1-0.8-0.4c-0.4-0.6-0.3-1.5-0.3-2.2c-0.2-2.7-0.3-5.4-0.5-8.1c-0.3-4.6-0.6-9.2-0.8-13.7
			c-0.2-4.2-0.3-8.4-0.1-12.7c0.1-2.1,0.2-4.2,0.4-6.3c0.1-1,0.2-2,0.4-3.1c0.1-0.2,0.1-0.4,0.2-0.6
			C101.3,186,101.6,186.1,101.7,186z"/>
	</g>
	<g id="POLYLINE_82_">
		<path class="st1" d="M137.7,243.3c0.2,3.1,0.4,6.2,1.3,9.2c0.4,1.3,1,2.6,1.3,3.9c0.3,1.1,0.3,2.3,0.3,3.4
			c-0.1,3.4-0.1,6.8,0.1,10.2c0.2,3.2,0.4,6.4,1.1,9.5c0.5,2.4,1.7,4.6,1.5,7.1c-0.3,3.4-1.2,6.9-1.9,10.3c-0.6,2.9-1.1,5.9-1.5,8.8
			c-0.3,3.1-0.4,6.2-0.3,9.3c0.3,3.2,0.8,6.3,1.4,9.4c0.7,3.1,1.7,6.2,2.2,9.3c0.6,3.1,0.6,6.2,0.5,9.4c-0.1,3.1-0.4,6.2-0.8,9.4
			c-0.2,1.6-0.5,3.2-0.9,4.8c-0.3,1-0.6,2.1-0.6,3.2c0,2.3,1,4.5,0.6,6.7c-0.3,1.3-0.8,2.4-1.3,3.5c-0.4,0.9-0.6,2-0.7,3
			c-0.2,1.5-0.3,3-0.3,4.5c0,1.1,0,2.2,0.3,3.3c0.4,1.3,1.3,2,2.5,2.1c0.6,0.1,1.4,0.1,2-0.2c0.3-0.2,0.6-0.6,0.9-0.8
			c0.5-0.2,1,0.6,1.4,0.8c0.4,0.1,0.9,0.1,1.3-0.1c0.3-0.1,0.4-0.2,0.6-0.4c0.1-0.1,0.1-0.3,0.3-0.3c0.2-0.1,0.3,0.1,0.4,0.1
			c0.7,0.4,1.2,0.7,2,0.6c0.5-0.1,1-0.3,1.3-0.5c0.2-0.1,0.4-0.4,0.7-0.3c0.4,0,0.8,0.4,1.1,0.6c0.4,0.3,0.9,0.4,1.3,0.4
			c0.6,0,1.1-0.3,1.8-0.2c0.5,0.1,1,0.3,1.5,0.1c1.1-0.4,1.1-2.3,1.1-3.2c0-2.9-0.7-6-1.6-8.8c-0.6-1.8-1.6-3.4-1.4-5.4
			c0.1-1.3,0.3-2.4,0.3-3.8c-0.1-1.5,0-2.9,0.1-4.3c0.3-3.3,0.6-6.6,1-9.9c0.4-2.9,1.1-5.7,1.8-8.5c0.9-3.6,1.8-7.3,2.6-10.9
			c0.7-3.1,1.3-6.2,1.8-9.4s0.9-6.3,1.1-9.5c0.2-3.2,0.1-6.4-0.2-9.5c-0.3-3.3-0.8-6.6-1.4-9.8c-0.5-3.2-1.1-6.4-1.3-9.7
			c-0.2-3.1,0.1-6,0.6-9c0.6-3.2,1.4-6.5,2-9.8c0.6-3.3,1.1-6.6,1.7-9.9c0.5-3.2,1-6.4,1.5-9.7c0.4-3.2,0.9-6.4,1.3-9.5"/>
	</g>
	<g id="POLYLINE_81_">
		<path class="st1" d="M102.3,233.1c0.4,3.3,1,6.6,1.7,9.8c0.8,3,1.6,5.9,2.4,8.9c1.2,4.3,2.4,8.7,3.6,13c0.8,2.7,1.5,5.3,2.1,8.1
			c0.3,1.1,0.5,2.2,0.4,3.2c-0.1,1.4-0.5,2.7-0.7,4.1c-0.4,3.3-0.6,6.6-0.6,9.9c0,3.4,0.1,6.7,0.4,10.1c0.3,3.4,0.6,6.7,1.1,10.1
			c0.5,3.2,1.1,6.5,1.8,9.7c0.8,3.4,1.7,6.7,2.7,10.1c1.1,3.7,2.3,7.4,3.4,11c0.8,2.7,1.7,5.5,2.3,8.3c0.6,3,0.6,5.9,0.3,8.9
			c-0.1,1.6-0.4,3.1-0.3,4.7c0.1,1.2,0.3,2.4,0.1,3.6c-0.1,0.6-0.4,1.1-0.7,1.6c-1,1.4-1.9,2.8-2.7,4.3c-0.8,1.4-1.5,2.8-2.1,4.3
			c-0.5,1.1-1,2.3-1.1,3.6c-0.1,1,0.1,2.2,1.1,2.8c0.9,0.5,2.3,0.6,3.2,0.2c0.3-0.1,0.5-0.3,0.8-0.3c0.7,0.1,1.3,0.4,2,0.3
			c0.8-0.1,1.7-0.6,2.5-0.4c0.7,0.1,1.3,0.6,2,0.6c0.8,0,1.4-0.5,2.1-0.8c0.2-0.1,0.4-0.3,0.7-0.2c0.4,0.1,0.7,0.4,1.1,0.6
			c0.6,0.3,1.4,0.3,2.2,0.3c1.3-0.1,3.2-0.3,3.9-1.6c0.4-0.8,0.5-1.9,0.6-2.8c0.1-1.7,0.3-3.3,0.3-4.9c0-1.5,0-2.9-0.3-4.3
			c-0.2-1-0.6-2-0.6-3c0-1,0.5-2,0.8-2.9c0.3-0.9,0.4-1.8,0.3-2.7c-0.2-3.1-1.4-6-1.8-9.2c-0.4-3.2-0.4-6.5-0.3-9.7
			c0.1-3.5,0.4-7,0.6-10.5c0.3-3.3,0.6-6.6,0.9-9.9c0.3-3.3,0.7-6.6,0.8-10c0.1-3.2-0.1-6.4-0.6-9.5c-0.6-3.4-1.7-6.6-2.7-9.9
			c-0.9-2.9-1.6-5.8-1.9-8.8c-0.4-3.2-0.3-6.4-0.1-9.7c0.2-3.2,0.6-6.6,1-9.8c0.5-3.4,1.2-6.7,1.8-10.1c0.6-3.2,0.7-6.5,0.8-9.7
			c0.1-2.7,0.1-5.5,0.1-8.2c0-4.3,0-8.7-0.1-13c0-3.1,0-6.1,0-9.2"/>
	</g>
	<g id="POLYLINE_80_">
		<path class="st1" d="M96.3,108.6c0.5,2.5,1,5,1.8,7.4c0.9,2.7,2,5.3,2.9,8c0.4,1,0.8,2,1,3.1c0.3,1,0.3,1.9,0.3,2.9
			c0.3,2.6,1.1,5.1,1.6,7.7c0.5,2.6,0.6,5.2,0.6,7.8c0,2.4,0.1,4.8,0.5,7.1c0.4,2.5,1.1,5.1,1,7.7c-0.1,2.5-0.5,4.9-1,7.3
			c-1,5.6-2,11.2-3.2,16.7c-0.1,0.5-0.2,1-0.3,1.4"/>
	</g>
	<g id="POLYLINE_79_">
		<path class="st1" d="M147.2,59.9c-0.2,1.3-0.2,2.6-0.1,3.9c0.1,1.3,0.1,2.7,0.4,3.9c0.4,2,2.1,3.5,3.6,4.8c2.3,2,4.9,3.6,7.6,5
			c2.8,1.5,5.7,2.7,8.7,3.7c1.5,0.5,3,1,4.5,1.2c1.4,0.3,2.9,0.3,4.3,0.6c1.5,0.3,2.7,1.1,3.7,2.3c1.8,2.3,2.9,5.2,3.9,8
			c1.1,3,2,6,2.9,9.1c0.8,3.1,1.4,6.2,1.6,9.3c0.2,3.2-0.1,6.4-0.3,9.5c-0.3,3.2-0.4,6.4-0.4,9.7c0,3.3,0.1,6.7,0.2,10
			c0.1,3.2,0.3,6.6,0.1,9.9c-0.1,0.7-0.1,1.4-0.3,2c-0.1,0.3-0.1,0.5-0.1,0.8c0.1,1,0.8,2,1.2,2.9c1.2,2.7,1.8,5.5,2,8.5
			c0.1,3.1-0.1,6.2-0.4,9.4c-0.3,3.4-0.6,6.8-1,10.2c-0.3,3.2-0.3,6.4-0.3,9.5c-0.1,3.2-0.6,6.4-0.5,9.7c0.1,3.2,0.6,6.2,1.1,9.4
			c0.6,3.1,1.5,6.1,1.7,9.2c0.2,2.9-0.6,5.6-1.5,8.3c-1,3.2-2,6.5-3.2,9.7c-0.4,1.2-0.9,2.5-1.6,3.6c-0.3,0.4-0.6,0.9-1.1,1
			c-1,0.3-1.9-0.4-2.5-1.1c-0.8-0.9-1-2-0.8-3.2c0.2-2,1.3-4.3,0.6-6.3c-0.3-0.9-1.4-0.6-2-1.2c-0.8-0.6-1.3-1.7-1.3-2.7
			c0-1.4,0.3-2.7,0.3-4.1c0-1.5-0.2-3.1-0.4-4.6c-0.3-1.5-0.6-3.1-1.1-4.5c-0.3-0.9-0.8-1.8-0.8-2.8c0-0.6,0.3-1.1,0.5-1.5
			c0.7-1.3,1.3-2.5,1.7-3.9c0.8-2.7,1.3-5.6,0.8-8.4c-0.6-3.1-1.7-6-2.6-9c-1-3.4-2.1-6.8-3.1-10.2c-0.9-3-1.7-6-2.3-9.1
			c-0.5-2.9-0.8-5.7-0.3-8.6c0.2-1.1,0.6-2.3,0.7-3.4c0-0.6-0.2-1.2-0.4-1.8c-1.3-2.9-1.9-5.8-2.4-8.9c-0.6-3.2-1-6.4-1.2-9.6
			c-0.3-3.2-0.4-6.3-0.4-9.5"/>
	</g>
	<g id="POLYLINE_78_">
		<path class="st1" d="M121.4,62.3c0.5,2,0.4,4.3-0.7,6.2c-1.1,1.8-3.2,2.9-4.9,4.1c-2.7,1.8-5.4,3.5-8.1,5.2
			c-1.3,0.8-2.6,1.6-4,2.1c-1.3,0.5-2.7,1-4.1,1.4c-2.9,1-6,1.7-8.6,3.2c-2.2,1.3-3.9,3.4-5,5.7c-1.3,2.7-2.2,5.7-3,8.6
			c-0.8,3.1-1.5,6.1-1.8,9.2c-0.4,2.9-0.5,5.9-0.1,8.8c0.4,3.2,1,6.4,1.3,9.6c0.3,3.1,0.5,6.2,0.6,9.3c0.1,1.5,0.1,3.1-0.1,4.5
			c-0.1,1.4-0.4,2.8-0.6,4.2c-0.3,2.9,0,6-0.7,8.9c-0.4,1.5-0.9,2.9-1.3,4.3c-0.4,1.4-0.6,2.8-0.8,4.2c-0.3,3.1-0.3,6.3-0.2,9.4
			c0.1,3.2,0.3,6.5,0.5,9.7c0.3,3.5,0.6,7.1,1,10.6c0.3,2.8,0.4,5.7,0.4,8.5c0.1,3.2,0.1,6.4-0.1,9.5c-0.2,3-0.6,5.9-1.5,8.7
			c-0.6,1.8-1.4,3.6-0.8,5.5c0.3,0.8,0.7,1.5,1,2.4c0.4,1,0.7,2,1,3.1c1.3,3.9,2.6,8,3.9,11.9c0.3,0.7,0.4,1.5,0.8,2.1
			c0.1,0.2,0.2,0.3,0.4,0.4c0.7,0.3,1.8-0.4,2.4-0.8c1.1-0.7,1.5-1.8,1.6-3.1c0.1-1.2-0.1-2.4-0.4-3.6c-0.2-0.8-0.5-1.7-0.4-2.5
			c0.1-0.7,0.4-1.3,1.1-1.5c1-0.2,1.5-0.2,1.8-1.3c0.3-1.3,0.3-2.8,0.3-4.1c0.1-1.5,0.3-2.9,0.4-4.3c0.3-1.5,0.6-3.1,0.9-4.6
			c0.3-1.4,0.8-2.8,1-4.2c0.3-1.8-0.9-3.4-1.6-5.1c-1.1-2.7-1.6-5.5-1.5-8.4c0.1-3.1,0.8-6,1.7-8.9c1-3.1,2.2-6,3.2-9
			c1-2.9,1.8-6,2.4-9c0.5-3.1,0.6-6.2,0.4-9.3c-0.1-3-0.5-6,0.1-9c0.3-1.5,0.8-2.9,1.1-4.4s0.4-3,0.6-4.5c0.3-3.1,0.4-6.2,0.5-9.4
			c0.1-3.1,0.2-6.1,0.8-9.2"/>
	</g>
	<g id="POLYLINE_77_">
		<path class="st1" d="M115.1,41.8c-0.2-0.5-0.6-1-1.1-1c-0.6,0-1,0.7-1.2,1.2c-0.6,1.5-0.4,3.2,0.1,4.8c0.6,2.3,1.8,4.7,3.5,6.5
			c0.4,0.4,1.5,1.5,2.1,0.7c0,2.7,0.8,5.9,2.6,8c1.2,1.5,2.8,2.7,4.3,3.9c1.3,1.1,2.8,2.2,4.5,2.9c2.9,1.3,6.5,2.2,9.5,1
			c2.9-1.1,4.8-3.9,6.4-6.6c1.8-3.1,3.4-6.6,3.4-10.2c0-0.4,0-0.9-0.1-1.3c0.4,0.3,0.5,0.5,1,0.4c1.1-0.3,1.9-1.4,2.4-2.4
			c1.1-2,1.6-4.7,1.6-7c0-0.9-0.1-2.2-1.1-2.5c-0.6-0.2-1.2,0.1-1.7,0.6c-0.1,0.1-0.2,0.3-0.3,0.4c0.2-2.7,0.5-5.3,0.4-8
			c-0.1-2.4-0.6-4.6-1.7-6.7c-2-4-5.3-6.9-9.6-8.1c-4.8-1.4-9.9-1.2-14.6,0.3c-3.8,1.2-8.3,3.4-10,7.3c-0.9,2-1.1,4.3-1.1,6.6
			c-0.1,2.5,0.1,5.1,0.6,7.6C114.8,40.4,115,41.1,115.1,41.8z"/>
	</g>
	<g id="POLYLINE_76_">
		<path class="st1" d="M284.7,74.6c-0.5,2.7-0.4,5.7-0.1,8.5c0.3,2.7,1.2,5.2,3,7.3c1.9,2.3,4.5,4,7.1,5.5c2.5,1.4,5.3,2.7,8.2,3.2
			c1.2,0.2,2.5,0.2,3.7,0.5c1.3,0.4,2.5,1,3.7,1.7c1.8,1.1,3.1,2.5,3.7,4.6c0.8,2.9,0.8,6.2,0.8,9.2c0.1,2.7,0.1,5.4,0,8.1
			c-0.1,4.3-0.1,8.6-0.2,12.9c-0.1,2.8-0.1,5.7-0.1,8.5c0,3.3-0.1,6.6,0.1,9.9c0.1,3.1,0.4,6,1.2,9c0.9,3.1,1.7,6,2,9.1
			c0.4,3.3,0.6,6.7,0.8,10.1c0.2,3.2,0.3,6.5,0.3,9.7c0.1,3.6,0,7.3,0,10.9c0,2.7,0.1,5.3,0.5,8c0.4,3.2,1.2,6.4,2,9.5
			c0.6,2.9,1.6,5.9,1.6,8.8c0,1-0.3,2-0.5,3c-0.4,1.5-1,2.9-1.6,4.2c-1.1,2.2-2.9,4.1-5.2,5.3c-0.4,0.3-1.5,0.9-2,0.5
			c-0.3-0.2-0.3-0.6-0.1-0.9c0.3-0.9,1.1-1.6,1.7-2.4c0.5-0.8,0.9-1.7,1.1-2.7c0.3-1.4,0.2-2.9,0.1-4.3c-0.1-1.3-0.2-2.7-0.5-3.9
			c-0.1-0.3-0.3-1.1-0.8-1c-0.8,0-1.1,1.5-1.3,2c-0.3,1-0.5,2.2-0.4,3.2c0.1,1.1,0.4,2.1,0.7,3.1c0.1,0.5,0.3,1.6-0.3,2
			c-0.3,0.2-0.6-0.1-0.8-0.4c-0.6-0.9-0.8-2-1.1-3.1c-0.4-1.3-0.8-2.7-0.8-4c0-1.5,0.3-2.9,0.4-4.4c0.3-1.7,0.6-3.4,0.9-5.1
			c0.3-1.5,0.5-2.9,0.9-4.4c0.2-0.9,0.6-1.7,0.5-2.6c-0.1-1.3-0.4-2.7-0.6-4c-0.3-1.5-0.6-3.1-1-4.6c-0.6-2.5-1.1-4.9-1.7-7.4
			c-1.1-4.5-2.2-8.9-3.2-13.4c-0.8-3.2-1.6-6.6-2.4-9.9c-0.6-2.7-1-5.3-1.1-8.1c-0.2-3.5-0.3-7.1-0.4-10.6c-0.1-3.1-0.2-6-0.3-9.1
			c-0.1-3.2-0.2-6.4-0.3-9.7"/>
	</g>
	<g id="POLYLINE_75_">
		<path class="st1" d="M303.5,129.9c0.4-2.1,0.8-4.2,1.3-6.2"/>
	</g>
	<g id="POLYLINE_74_">
		<path class="st1" d="M268.3,74.7c0.5,2.9,0.4,5.9-0.2,8.7c-0.5,2.7-1.6,5.3-3.5,7.4c-1.9,2.1-4.4,3.6-6.9,5
			c-2.7,1.4-5.5,2.5-8.4,3.2c-1.5,0.4-3.1,0.7-4.6,1c-1,0.3-2,0.5-2.9,1.1c-1.1,0.7-2,1.8-2.5,3.1c-1.1,2.6-1.4,5.6-1.6,8.4
			c-0.2,3.2-0.3,6.4-0.3,9.7c0,2.3,0,4.6,0.1,6.9c0.1,4.6,0.1,9.2,0.1,13.8c0.1,3.4,0.1,6.8,0.1,10.2c0,2.5,0,5-0.3,7.5
			c-0.3,2.9-1.4,5.5-2.2,8.3c-0.8,3.1-1.4,6.1-1.7,9.2c-0.3,3-0.3,6-0.3,8.9c0,3.8,0.1,7.6,0.1,11.5c0,2.7,0.1,5.5,0,8.3
			c-0.1,3-0.3,6-1,9c-0.8,3-1.8,5.9-2.4,8.8c-0.5,2.5-0.9,5.2-0.4,7.8c0.4,2.2,1.6,4.2,3,6c0.9,1.1,1.8,2.1,2.9,3.1
			c0.6,0.5,1.3,1.1,2,1.3c0.3,0.1,0.6,0.1,0.9-0.2c0.6-0.9-0.6-2.4-1-3c-1.1-1.8-1.7-3.7-1.6-5.8c0.1-1.3,0.3-2.7,0.6-4
			c0.2-0.6,0.4-1.5,0.9-2c0.6-0.6,0.8,0.5,1,1c0.4,1.1,0.7,2.3,0.8,3.5c0.1,1-0.3,2-0.4,3.1c-0.1,0.4-0.3,1.8,0.2,2
			c0.6,0.3,1.3-1.7,1.3-1.9c0.7-1.6,1.5-3.3,1.3-5.1c-0.5-3.2-1.1-6.3-1.7-9.5c-0.3-1.5-0.6-3.1-0.8-4.6c-0.1-1.4-0.1-2.8,0.1-4.1
			c0.3-3.1,0.9-6,1.5-9c0.7-3.4,1.5-6.7,2.3-10.1c0.8-3.3,1.6-6.7,2.4-10c0.7-2.8,1.4-5.6,2.2-8.3c0.4-1.5,1-3,1.3-4.5
			c0.3-1.4,0.4-2.9,0.4-4.3c0.2-3.2,0.2-6.5,0.3-9.7c0.1-2.8,0.1-5.6,0.2-8.4c0.1-3.5,0.1-7,0.2-10.6"/>
	</g>
	<g id="POLYLINE_73_">
		<path class="st1" d="M247.6,123.9c0.3,2.4,0.6,4.8,1.2,7.1"/>
	</g>
	<g id="POLYLINE_72_">
		<path class="st1" d="M263.6,69.5c2,3.5,5.6,6.7,9.6,7.8c4.1,1,8.9-0.6,12.2-3.1c1.7-1.3,2.8-3.1,3.8-5"/>
	</g>
	<g id="POLYLINE_71_">
		<path class="st1" d="M268.4,81.1c-0.8,2.5-2.3,4.5-4.5,5.9c-0.2,0.1-0.7,0.5-0.8,0.1c-0.1-0.3,0.3-0.6,0.4-0.8
			c0.4-0.4,0.8-0.8,1-1.3c0.2-0.6,0.4-1.2,0.4-1.8c0-0.1,0.2-0.7,0.1-0.8c-0.1-0.2-0.5,0.8-0.6,0.9c-0.4,0.7-0.8,1.3-1.5,1.9
			c-0.4,0.4-1.1,1-1.8,1.1c-0.7,0.1,0.1-1,0.1-1.2c0.4-1.1,0.6-2.5,0.1-3.7c-0.1-0.1-0.2-0.6-0.4-0.6L261,81
			c-0.2,0.3-0.4,0.4-0.7,0.6c-1,0.7-2.1,1.4-3.2,1.8c-0.1,0.1-0.4,0.2-0.4,0c0-0.1,0.2-0.3,0.3-0.4c0.4-0.6,0.9-1.1,1.3-1.7
			s0.8-1.1,1-1.8c0.3-1.2,0.4-2.5,0.4-3.8c0-0.7,0-1.4-0.1-2.1c0-0.1,0-0.4-0.1-0.4c-0.2-0.1-0.3,0.2-0.4,0.4
			c-0.4,0.8-0.8,1.7-1.5,2.4c-0.6,0.6-1.4,1.1-2.2,1.5c-0.3,0.1-1.5,0.8-1.8,0.6c-0.3-0.1,0.3-0.4,0.4-0.4c1-0.7,1.8-1.5,2.5-2.5
			c1.4-1.8,2.1-3.9,2.2-6.2c0.1-3.1-0.4-6.2-0.5-9.3c-0.1-3,0.1-6,0.6-8.9s1.2-5.9,2.6-8.6c1.1-2.2,2.7-4.1,4.8-5.5
			c2.4-1.6,5.1-2.5,7.9-2.7c2-0.2,4.4-0.3,6.2,0.7c0.5,0.3,0.8,0.8,1.3,1c0.1,0.1,0.3,0.1,0.4,0.1c0.6,0,1.1-0.3,1.7-0.3
			c1,0,2,0.3,2.8,0.6c1.8,0.7,3.2,2.6,4.1,4.3c1.3,2.5,1.8,5.3,2.2,8.1c0.4,3,0.6,6,0.6,9.1c0.1,3.2-0.1,6.4-0.1,9.6
			c0.1,2.7,0.6,5.4,1.7,7.8c0.3,0.6,0.7,1.2,1.1,1.7c0.1,0.1,0.9,0.6,0.8,0.9c-0.1,0.4-1.1-0.3-1.3-0.4c-0.3-0.3-2.2-2.3-2.5-1.9
			c-0.1,0.1,0,0.3,0,0.4c0.1,0.6,0.2,1.1,0.3,1.7c0.1,1,0,2,0.3,3.1c0.1,0.5,0.4,1,0.7,1.3c0.3,0.4,0.7,0.7,1,1.1
			c0.1,0.1,0.1,0.1,0.1,0.2c0.1,0.4-0.8,0.3-1,0.3c-1.7-0.3-3.2-0.9-4.4-2.1c-0.2-0.2-0.9-1.3-1.3-1c-0.2,0.2-0.1,0.8-0.1,1
			c0.1,1.3,0.5,2.7,1,3.9c0.3,0.6,0.5,1.3,0.7,2c0,0.1,0.1,0.4,0.1,0.4c-0.1,0.1-0.1,0.1-0.3,0c-0.4-0.2-0.8-0.6-1.1-1
			c-0.4-0.4-0.8-0.8-1-1.2c-0.9-1.3-1.3-2.7-2-4.1c-0.1-0.1-0.3-0.7-0.4-0.6c-0.2,0.1-0.1,0.8-0.1,0.9c0.1,2.7,0.4,5.5,1.3,8"/>
	</g>
	<g id="POLYLINE_70_">
		<path class="st1" d="M263.6,69.5c-0.2-1.5-0.2-3-0.1-4.5c0.1-0.8,0.1-1.7,0.3-2.5c0.1-0.3,0-1.1,0.3-1.3c0.1-0.2,0.1,0,0.2,0.2
			c0.3,1.2,0.4,2.5,0.9,3.7c0.1,0.1,0.2,0.6,0.4,0.4c0.2-0.3-0.1-1.1-0.1-1.3c-0.1-0.6-0.1-1.3,0-2c0.2-2.4,1.3-4.6,2.7-6.4
			c1.8-2.2,4.5-3.6,7.1-4.6c2-0.9,4.6-1.5,6.1-3.4c0.3-0.3,0.5-0.7,0.7-1.1c0.1-0.2,0.3-0.8,0.5-1c0.3-0.1,0.4,0.3,0.6,0.4
			c0.4,0.3,1.1,0.4,1.6,0.7c0.5,0.3,1,0.8,1.3,1.3c0.8,1.2,1.2,2.6,1.5,3.9c0.4,1.6,0.8,3.2,1,4.9c0.5,3.2,1,6.6,0.9,9.9
			c-0.1,0.8-0.1,1.6-0.2,2.4"/>
	</g>
</g>
<g id="AG-OUTLINE">
	<g id="POLYLINE_69_">
		<path class="st2" d="M137.7,243.3c0.1,2.3,0.3,4.6,0.7,6.8c0.2,1,0.4,1.9,0.7,2.9c0.3,1,0.8,2,1.1,3.1c0.4,1.8,0.3,3.6,0.3,5.4
			c-0.1,2.4-0.1,4.7,0,7.1c0.2,4.4,0.4,9,1.7,13.2c0.5,1.7,1,3.1,0.9,4.8c-0.1,2.2-0.7,4.3-1.1,6.4c-1,4.6-2,9.2-2.5,13.9
			c-0.1,0.6-0.1,1.1-0.2,1.8c-0.3-4.1-1-8.1-2.2-12.1c-1.3-4.2-2.6-8.4-3.1-12.8c-0.4-4.3-0.3-8.5,0.1-12.8c0.4-4.5,1-8.9,1.9-13.2
			c0.4-2,1-4.1,1.1-6.2c0.3-2.2,0.3-4.3,0.3-6.4C137.7,244.5,137.7,243.9,137.7,243.3z"/>
	</g>
	<g id="POLYLINE_68_">
		<path class="st2" d="M102.3,233.1c0.5,4.5,1.4,8.7,2.6,13.1c1.7,6.2,3.4,12.5,5.2,18.8c0.5,1.8,1,3.8,1.5,5.7
			c0.4,1.8,1.1,3.8,1,5.7c-0.1,1.1-0.4,2.1-0.6,3.1c-0.2,1.2-0.3,2.4-0.4,3.6c-0.2,2.4-0.3,4.9-0.3,7.3c0,5,0.3,10.1,0.8,15.2
			c0.6,5.2,1.5,10.2,2.7,15.3c1.1,4.8,2.6,9.4,4,14.1c1.5,5,3.4,10.1,4.4,15.2c0.4,2.2,0.4,4.4,0.3,6.6c-0.2,2.4-0.6,4.7-0.4,7.1
			c0.1,1.3,0.4,2.7-0.2,3.9c-0.4,0.8-1.1,1.6-1.7,2.4c-0.6,1-1.3,2-1.8,3.1c-1.1,2-2.2,4.1-2.7,6.4c-0.3,1-0.4,2,0.2,2.9
			c0.9,1.5,3,1.5,4.4,0.8c0.6-0.3,1.2,0.2,1.8,0.3c1.3,0.1,2.4-0.8,3.6-0.3c1.1,0.4,1.7,0.6,2.8,0.1c0.4-0.2,1.1-0.8,1.6-0.6
			c0.3,0.1,0.6,0.4,1,0.6c0.4,0.2,0.8,0.3,1.3,0.3c1.3,0.1,2.9,0,4.1-0.8c0.9-0.6,1.1-1.6,1.2-2.6c0.3-2.4,0.4-4.8,0.4-7.2
			c0-1.1-0.1-2.2-0.3-3.2c-0.2-0.8-0.5-1.7-0.6-2.5c-0.1-1.5,0.8-2.9,1-4.3c0.3-1.7-0.1-3.5-0.5-5.2c-0.6-2.4-1.1-4.7-1.3-7.1
			c-0.5-5-0.2-10,0.1-15c0.3-5.3,0.9-10.7,1.4-16c0.3-2.2,0.4-4.5,0.5-6.7c0.1,3.5,0.6,7,1.3,10.4c0.7,3.4,1.8,6.9,2.5,10.3
			s0.6,6.9,0.4,10.4c-0.1,3.5-0.4,7-1.1,10.5c-0.3,1.7-0.8,3.2-1.1,4.8c-0.2,1.1,0,2.2,0.2,3.2c0.2,1.3,0.5,2.5,0.4,3.8
			c-0.1,1.3-0.5,2.5-1.1,3.6c-0.6,1.1-0.8,2.1-1,3.4c-0.2,1.7-0.4,3.2-0.4,4.9c0,1.6-0.1,4,1.6,4.9c1,0.5,2.8,0.7,3.7-0.2
			c0.8-0.8,0.6-0.4,1.5,0.2c0.4,0.3,0.8,0.3,1.1,0.3c0.3-0.1,0.7-0.2,1-0.4c0.1-0.1,0.3-0.3,0.3-0.3c0.2-0.1,0.3,0,0.4,0.1
			c0.8,0.4,1.3,0.8,2.2,0.6c0.6-0.1,1-0.4,1.5-0.8c0.2-0.1,0.3-0.1,0.5-0.1c0.6,0.1,1,0.7,1.5,0.9c0.6,0.2,1.1,0.1,1.8-0.1
			c0.9-0.1,2.1,0.6,2.7-0.3c0.5-0.6,0.6-1.5,0.6-2.2c0.1-1.5-0.1-3.1-0.4-4.5c-0.3-1.7-0.6-3.4-1.1-5c-0.4-1.3-1-2.4-1.3-3.7
			c-0.2-0.8-0.1-1.7,0.1-2.4c0.3-1.5,0.1-2.9,0.1-4.3c0.1-3.4,0.4-6.9,0.8-10.3c0.4-3.2,1-6.4,1.7-9.6c1-4,2-8,2.9-12
			c0.8-3.4,1.5-6.8,2-10.2c0.6-3.6,1-7.1,1.1-10.8c0.1-3.5-0.1-7.1-0.6-10.6c-0.4-3.6-1.1-7.2-1.7-10.8c-0.5-3.3-0.9-6.7-0.6-10.1
			c0.3-3.8,1.2-7.6,2-11.3c0.6-3.2,1.2-6.4,1.7-9.5c0.6-4,1.3-8,1.8-12c0.3-1.7,0.4-3.3,0.7-5c0.1-1,0.3-1.9,0.4-2.9
			c0.1-0.9,0.1-1.8,0.3-2.7c0.1-0.3,0.1-0.2,0.3-0.3c0.1-0.1,0.1-0.1,0.2-0.2c0.5-0.6,0.4-1.9,0.4-2.6c0.2-3.6,0.1-7.1,0.1-10.7
			c-0.1-3.1-0.1-6.2-0.2-9.3c-0.2-5-0.3-10.1-0.5-15.1c-0.1-1.1-0.1-2.2-0.1-3.2c-0.1-1-0.1-2-0.1-3.1c0-0.4,0-1-0.2-1.4
			c-0.1-0.1-0.1-0.2-0.2-0.3c-0.2-0.3-0.2-0.4-0.3-0.8c-0.3-1.7-0.6-3.4-1.1-5c-0.9-3.5-2.2-6.8-3.4-10.2c-1.1-3-1.5-6-1.3-9.2
			c0.1-1.8,0.4-3.5,0.7-5.3c0.3-1.7,0.3-3.4,0.3-5c0-3.4,0.4-6.9,0.8-10.3c0.4-3.6,0.9-7.1,1.4-10.6c0,3.3,0.1,6.6,0.4,9.8
			c0.3,3.4,0.7,6.8,1.3,10.2c0.3,1.6,0.6,3.2,1.1,4.7c0.4,1.3,1,2.5,1.5,3.9c0.2,0.5,0.3,1,0.2,1.6c-0.2,1.4-0.6,2.7-0.8,4.1
			c-0.4,3.1,0.1,6.2,0.8,9.2c0.7,3.3,1.7,6.6,2.7,9.9c1,3.5,2.2,7,3.2,10.5c0.8,2.6,1.8,5.3,2,8.1c0.2,2.9-0.6,6-1.7,8.6
			c-0.4,1-1.1,1.9-1.5,2.9c-0.1,0.4-0.1,1,0.1,1.4c0.4,1.5,1,2.9,1.3,4.5c0.4,1.7,0.6,3.3,0.8,5c0.1,1.5,0,3.1-0.1,4.6
			c-0.1,0.8-0.1,1.5,0.1,2.3c0.4,1.2,1.2,1.9,2.4,2.2c1,0.3,1,1.7,1,2.5c-0.1,2-1.1,3.9-0.8,5.9c0.2,1.1,1,2.3,2,2.8
			c1,0.4,1.7,0.1,2.4-0.7c0.8-1,1.2-2.2,1.6-3.4c0.6-1.5,1.1-3.1,1.6-4.6c1.1-3.2,2.2-6.4,3-9.6c0.6-2.9,0.3-5.7-0.3-8.5
			c-0.7-3.3-1.5-6.7-1.9-10.1c-0.4-3.2-0.3-6.4-0.1-9.5c0.1-1.7,0.3-3.4,0.3-5.2c0.1-1.7,0.1-3.4,0.1-5.1c0.1-3.4,0.5-6.8,0.8-10.2
			c0.3-3.2,0.6-6.5,0.8-9.8c0.1-3,0-6-0.9-9c-0.4-1.5-1.1-2.9-1.8-4.4c-0.3-0.6-0.6-1.1-0.5-1.7c0.1-1.5,0.3-2.9,0.4-4.4
			c0-1.3,0-2.6-0.1-3.9c-0.1-3.8-0.3-7.6-0.3-11.4c-0.1-3.2-0.1-6.4,0.2-9.5c0.3-3.4,0.6-6.9,0.6-10.4c-0.1-3.2-0.6-6.4-1.3-9.5
			c-0.7-3.1-1.6-6.2-2.7-9.2c-1-3-2.2-6-3.9-8.7c-0.9-1.4-2-2.6-3.6-3c-1.3-0.4-2.7-0.4-4.1-0.6c-1.5-0.3-2.9-0.6-4.4-1.1
			c-3.1-1-6.2-2.2-9.2-3.7c-2.7-1.3-5.4-3-7.8-5c-1.5-1.3-3.4-3-3.9-5c-0.3-1.3-0.4-2.7-0.4-4c-0.1-1.3-0.3-2.8,0.1-4
			c0.2-0.7,0.6-1.5,0.9-2.2c0.2-0.6,0.4-1.2,0.6-1.8c0.3-1.5,0.3-2.9,0.3-4.4c0.4,0.3,0.5,0.5,1,0.4c1.1-0.3,1.9-1.4,2.4-2.4
			c1.1-2,1.6-4.7,1.6-7c0-0.9-0.1-2.2-1.1-2.5c-0.6-0.2-1.2,0.1-1.7,0.6c-0.1,0.1-0.2,0.3-0.3,0.4c0.2-2.7,0.5-5.3,0.4-8
			c-0.1-2.4-0.6-4.6-1.7-6.7c-2-4-5.3-6.9-9.6-8.1c-4.8-1.4-9.9-1.2-14.6,0.3c-3.8,1.2-8.3,3.4-10,7.3c-0.9,2-1.1,4.3-1.1,6.6
			c-0.1,2.5,0.1,5.1,0.6,7.6c0.1,0.6,0.3,1.3,0.4,1.9c-0.2-0.5-0.6-1-1.1-1c-0.6,0-1,0.7-1.2,1.2c-0.6,1.5-0.4,3.2,0.1,4.8
			c0.6,2.3,1.8,4.7,3.5,6.5c0.4,0.4,1.5,1.5,2.1,0.7c0,2.4,0.6,5,2,7.1c0.2,0.3,0.4,0.6,0.6,0.9c0.3,0.3,0.4,0.4,0.4,0.8
			c0.1,0.3,0.1,0.6,0.1,0.9c0.1,1.1,0,2.4-0.3,3.5c-0.6,1.8-1.8,3-3.4,4.1c-2.8,1.9-5.7,3.8-8.5,5.6c-1.3,0.8-2.6,1.7-3.9,2.4
			c-1.1,0.6-2.4,1-3.6,1.5c-2,0.7-4.1,1.3-6.1,2c-1.2,0.4-2.4,0.8-3.6,1.3c-2.4,1.1-4.2,3-5.5,5.2c-1.6,2.7-2.5,5.8-3.4,8.8
			c-0.8,3.1-1.5,6.3-2,9.5c-0.4,3.1-0.6,6.1-0.3,9.2c0.4,3.3,1,6.6,1.3,9.9c0.3,3.2,0.6,6.5,0.6,9.7c0.1,1.5,0.1,3.1-0.1,4.5
			c-0.1,1.5-0.5,2.9-0.6,4.3c-0.3,3.1,0,6.2-0.9,9.1c-0.4,1.5-1,3-1.3,4.6c-0.3,1.5-0.5,2.9-0.6,4.5c-0.3,3.2-0.2,6.4-0.1,9.7
			c0.1,3,0.3,6,0.5,9c0.3,3.6,0.7,7.3,1,11c0.3,3.4,0.4,6.8,0.4,10.2c0.1,3.2,0,6.4-0.4,9.6c-0.2,1.5-0.4,3-0.9,4.5
			c-0.4,1.5-1,2.9-1.3,4.3c-0.4,1.7,0.1,2.9,0.8,4.3c0.4,0.9,0.7,1.8,1,2.7c0.6,2,1.3,4,2,6c0.7,2.1,1.4,4.2,2,6.2
			c0.3,0.8,0.5,1.7,0.9,2.5c0.3,0.6,0.7,0.6,1.4,0.5c1.1-0.3,2.2-1,2.7-2c0.9-1.8,0.4-4-0.1-5.9c-0.3-1-0.7-2.4,0.1-3.2
			c0.6-0.6,1.5-0.2,2-0.7c0.4-0.3,0.4-0.9,0.5-1.4c0.2-1.5,0.2-3.1,0.3-4.6c0.3-3.1,0.8-6.2,1.6-9.2c0.5-2,1.1-3.6,0.3-5.5
			c-0.6-1.5-1.4-2.9-1.8-4.4c-0.4-1.4-0.7-2.8-0.8-4.2c-0.3-3.1,0.2-6.1,1-9.1c0.9-3.4,2.2-6.6,3.4-9.9c1-2.9,2-5.9,2.5-8.8
			c0.6-3.1,0.9-6.2,0.8-9.4c-0.1-3.1-0.6-6.4-0.1-9.5c0.2-1.5,0.7-3,1-4.5c0.3-1.5,0.6-3,0.7-4.5c0.3-3.2,0.4-6.4,0.5-9.6
			c0.1-3.2,0.2-6.4,0.8-9.6c0.3,1.4,0.3,2.8,0.6,4.2c0.4,2.1,1,4.3,1.4,6.4c0.3,1.9,0.5,3.8,0.5,5.7c0,2-0.1,3.9,0.1,5.9
			c0.4,3.8,1.6,7.4,1.3,11.3c-0.3,4-1.1,8.1-1.9,12c-0.4,2-0.8,3.9-1.1,5.9c-0.2,0.9-0.4,1.8-0.6,2.7c-0.1,0.8-0.3,1.5-0.4,2.2
			c-0.1,0.4-0.1,1-0.3,1.5c-0.1,0.3-0.2,0.1-0.4,0.3c-0.1,0.1-0.1,0.1-0.2,0.1c-0.1,0.1-0.1,0.3-0.2,0.4c-0.2,0.6-0.3,1.3-0.3,2
			c-0.4,3.9-0.6,8-0.6,11.9c0.1,4.4,0.2,8.8,0.4,13.2c0.2,4.4,0.6,8.7,0.8,13.1c0.1,1.7,0.2,3.2,0.3,4.9c0.1,0.4,0.1,1.1,0.4,1.4
			C102.2,233.1,102.2,233.1,102.3,233.1z"/>
	</g>
	<g id="POLYLINE_23_">
		<path class="st2" d="M246.1,191.9c-1.1,3.6-2,7.1-2.5,10.8c-0.4,3.8-0.4,7.6-0.1,11.4c0.3,4,0.9,8,1.6,11.9
			c0.7,3.9,1.5,7.9,2.3,11.8c0.6,3,1.3,6,2,9c1.2,5.6,2.5,11.2,3.7,16.8c0.6,2.9,1.5,5.7,1.8,8.7c0.1,1.2-0.2,2.4-0.4,3.5
			c-0.4,2-0.8,3.9-1.1,6c-0.6,3.8-1.1,7.5-1.4,11.3c-0.3,3.8-0.1,7.6,0.6,11.3c0.6,3.6,1.5,7.2,2.5,10.7c1.3,4.5,2.6,9,3.9,13.4
			c1,3.4,2,6.9,2.9,10.4c1,3.8,1.8,7.5,2.5,11.3c0.8,3.8,1.2,7.6,1.5,11.5c0.1,0.8,0.4,2,0,2.7c-0.2,0.3-0.6,0.5-0.8,0.8
			c-0.3,0.6-0.1,1.4,0,2c0.1,0.5,0.4,1,0.4,1.5c-0.1,1.1-1.1,2.4-1.7,3.3c-1,1.6-2.2,3.1-3.6,4.4c-1.2,1.1-2.7,1.9-3.8,3.1
			c-0.4,0.4-0.7,1-0.6,1.5c0.2,1.1,1.2,0.9,2,1.2c0.4,0.2,0.8,0.6,1.2,0.7c0.5,0.1,1-0.3,1.5-0.2s0.9,0.6,1.4,0.7
			c0.5,0.1,1,0.1,1.5,0.1c1-0.1,1.9-0.1,2.8-0.1c1.7,0,3.4,0.3,5.2,0.1c0.7-0.1,1.7-0.2,2.3-0.7c0.4-0.4,0.4-1.1,0.4-1.7
			c0.1-2,0.1-3.9,0.2-5.9c0.1-1.9,0.3-3.8,0.6-5.7c0.2-1.5,0.6-3.1,0.3-4.7c-0.5-3.9-0.9-7.8-1.1-11.8c-0.3-3.9-0.4-7.8-0.5-11.7
			c-0.1-3.9-0.1-7.8,0.1-11.8c0.1-4.5,0.3-8.9,0.4-13.4c0.1-3.5,0.2-6.9,0.1-10.4c-0.1-3.9-0.6-7.8-1.1-11.7
			c-0.4-3.4-1.2-7.1-0.6-10.5c0.3-1.7,0.8-3.4,1-5.2c0.3-1.9,0.4-3.8,0.6-5.7c0.3-3.2,0.4-6.5,0.4-9.8c0.1-4.6,0.3-9.2,0.4-13.8
			c0.1-5,0.3-10,0.4-15c0.1-3.2,0.2-6.4,0.3-9.7c0.1-2.2,0-4.3,0.3-6.4c0-0.2,0.1-0.5,0.3-0.2c0.1,0.1,0,0.3,0.1,0.4
			c0.1,0.7,0.1,1.4,0.1,2.1c0.1,1,0.1,1.9,0.2,2.9c0.1,1.3,0.1,2.7,0.2,4c0.2,5.1,0.4,10.2,0.6,15.3c0.1,3.8,0.4,7.6,0.6,11.5
			c0.2,3.6,0.4,7.3,0.3,10.9c-0.1,3.7-0.3,7.2,0.3,10.8c0.6,3.8,1.2,7.4,1,11.3c-0.3,3.9-0.9,7.9-1.2,11.8
			c-0.3,3.6-0.4,7.1-0.3,10.6c0.1,4.6,0.2,9.2,0.3,13.8c0.1,3.6,0.2,7.2,0.2,10.8c0,4.2,0,8.3-0.1,12.5c-0.1,3.7-0.4,7.3-0.6,11
			c-0.2,2.2-0.4,4.4-0.5,6.6c-0.1,1.2-0.1,2.3,0.2,3.5c0.3,1.4,0.3,3,0.3,4.5c0.1,2,0.1,3.9,0.3,5.9c0.1,1.3,0.1,2.9,0.6,4.3
			c0.3,0.7,0.8,1.1,1.5,1.3c1.1,0.3,2.4,0.1,3.6,0.1c0.4,0,0.7,0.1,1.1,0.1c0.6-0.1,1.1-0.3,1.7-0.4c0.6-0.1,1,0,1.5,0.3
			c0.6,0.3,1.1,0.1,1.8-0.1c0.6-0.1,1.3-0.3,1.9-0.3c0.6,0,1.3,0.1,2-0.1c0.9-0.1,1.9-0.7,2.6-1.3c0.8-0.6,0.3-2-0.3-2.7
			c-0.3-0.3-0.8-0.5-1.1-0.8c-0.7-0.4-1.3-0.8-2-1.3c-1.3-1-2.4-2-3.4-3.3c-0.9-1.2-1.7-2.6-2.1-4.1c-0.2-0.6-0.3-1.3-0.1-1.9
			c0.1-0.3,0.5-0.6,0.6-1c0.1-0.3-0.3-0.6-0.4-0.8c-0.6-0.9-0.6-1.9-0.7-3c-0.1-0.6-0.3-1.2-0.3-1.8c0.1-1.7,0.4-3.3,0.8-4.9
			c0.3-1.8,0.7-3.6,1.1-5.4c0.9-4.3,1.8-8.7,2.9-13c0.8-3.8,1.8-7.5,2.9-11.2c1.1-4,2.3-8,3.4-11.9c1-3.5,2.1-7,2.9-10.6
			c0.8-3.6,0.8-7.3,0.4-11c-0.4-3.8-1-7.6-1.7-11.5c-0.3-2.1-0.7-4.2-1.1-6.3c-0.3-1.3-0.6-2.6-0.4-3.9c0.4-1.8,1-3.6,1.5-5.4
			c0.4-1.5,0.8-3.1,1.1-4.6c0.8-3.6,1.7-7.3,2.5-11c1.1-5.1,2.2-10.1,3.4-15.2c0.7-3.3,1.5-6.6,2.1-9.9c0.7-3.8,1.1-7.6,1.2-11.5
			c0.1-3.8-0.1-7.6-0.8-11.4c-0.3-1.8-0.6-3.6-1.1-5.4c-0.3-1-0.4-1.9-0.7-2.9c-0.2-0.6-0.6-1.7-0.6-2.3c0.1-0.4,0.1-0.7-0.1-1.1
			c-0.2-0.7-0.5-1.4-0.7-2.2c-0.1-0.4-0.2-0.9-0.4-1.3c-0.1-0.2-0.3-0.3-0.4-0.4c-0.3-0.4-0.3-1-0.5-1.5c-0.2-0.5-0.4-1-0.6-1.5
			c-0.3-0.8-0.6-1.5-0.8-2.2c-1.4-3.8-3.1-7.5-4-11.5c-0.8-3.6-0.6-7.3-0.1-10.9c0.5-3.9,1.3-7.9,2-11.8c0.4-1.9,0.8-3.8,1.1-5.7
			c0.2-1.1,0.4-2.2,0.6-3.2c0.1-0.6,0.4-1.1,0.7-1.7c0.1,3.2,0.2,6.4,0.3,9.7c0.1,3,0.2,6,0.3,9c0.1,3.5,0.3,7.1,0.4,10.6
			c0.1,2.7,0.4,5.3,1,8c0.6,2.7,1.3,5.5,2,8.1c1.1,4.5,2.2,8.8,3.2,13.3c0.5,2.2,1,4.3,1.5,6.4c0.8,3.2,1.5,6.4,2.1,9.7
			c0.1,0.9,0.3,1.8,0.1,2.7c-0.3,1.2-0.6,2.4-0.9,3.7c-0.6,3.1-1.2,6.2-1.6,9.2c-0.2,1.3-0.3,2.5-0.1,3.8c0.3,1.4,0.7,2.8,1.1,4.1
			c0.1,0.4,0.5,2.2,1.3,2.2c0.4,0,0.6-0.6,0.6-0.9c0.1-0.5-0.1-1.1-0.2-1.6c-0.3-1-0.6-2-0.6-3.1c0-1.1,0.2-2.1,0.5-3.1
			c0.2-0.6,0.4-1.3,0.9-1.7c0.2-0.2,0.4-0.2,0.6-0.1c0.3,0.2,0.4,0.6,0.4,0.8c0.4,1.1,0.4,2.4,0.5,3.5c0.2,2.3,0.3,4.9-0.8,7
			c-0.5,1-1.3,1.7-1.8,2.6c-0.1,0.3-0.3,0.5-0.3,0.8c0.1,0.3,0.2,0.4,0.4,0.5c0.3,0.1,0.8-0.1,1-0.2c1-0.4,1.9-1.1,2.7-1.7
			c2-1.7,3.2-3.7,4.1-6.1c0.8-2.3,1.4-4.4,1.1-6.8c-0.4-3.2-1.3-6.5-2.1-9.7c-0.6-2.7-1.2-5.5-1.5-8.4c-0.3-2.7-0.3-5.3-0.3-8
			c0-3.4,0.1-6.9,0-10.3c-0.1-3.2-0.1-6.3-0.3-9.4c-0.2-3.2-0.3-6.4-0.7-9.5c-0.4-3.1-1.1-6-2-9c-0.8-2.7-1.1-5.5-1.2-8.3
			c-0.1-3.1-0.1-6.2-0.1-9.4c0-2.7,0.1-5.4,0.1-8.1c0.1-4.4,0.1-8.8,0.2-13.2c0.1-2.7,0.1-5.3,0.1-8c0-2.9,0-5.9-0.4-8.7
			c-0.3-2.1-1-3.9-2.5-5.3c-1.8-1.5-4.1-2.7-6.4-3c-1.4-0.2-2.8-0.3-4.1-0.6c-1.4-0.4-2.7-1-4.1-1.6c-2.6-1.3-5.2-2.7-7.4-4.6
			c-1-0.8-2.4-1.9-2.9-3.1c-0.5-1.2-0.7-2.7-0.9-3.9c-0.1-0.4-0.7-4.8-0.2-4.8c0.3,0,0.5,0.8,0.5,0.9c0.6,1.3,1.1,2.7,2,3.9
			c0.2,0.3,2,2.5,2.3,2c0.1-0.1-0.1-0.4-0.1-0.5c-0.2-0.6-0.4-1.3-0.7-2c-0.4-1.3-0.8-2.5-0.9-3.9c0-0.3-0.1-1.1,0.3-1.1
			c0.3,0,0.8,0.8,1,1c0.4,0.5,1,0.9,1.5,1.2c0.8,0.4,1.8,0.8,2.8,1c0.3,0.1,0.8,0.2,1,0c0.4-0.4-0.7-1.2-0.9-1.4c-1-1.2-1-2.6-1-4.1
			c0-0.6-0.1-1.1-0.2-1.7c0-0.1-0.2-0.6-0.1-0.8c0.1-0.1,0.1-0.1,0.2-0.1c0.1,0,0.4,0.3,0.4,0.3c0.5,0.4,1,1,1.5,1.4
			c0.3,0.3,0.8,0.7,1.3,0.7c0.6,0,0-0.5-0.2-0.7c-1.4-1.3-2-3.1-2.5-4.9c-0.7-2.7-0.8-5.4-0.7-8.2c0.1-3.2,0.1-6.4-0.1-9.7
			c-0.2-3-0.4-6-1-8.9c-0.5-2.4-1.3-4.9-2.9-6.8c-0.6-0.8-1.4-1.6-2.3-2.1c-0.8-0.4-1.8-0.6-2.7-0.8c-0.8-0.1-1.4,0-2.1,0.1
			c-0.2,0.1-0.4,0.1-0.6,0c-0.4-0.1-0.6-0.6-1-0.8c-0.5-0.4-1.1-0.6-1.7-0.8c-2.4-0.6-5.2-0.4-7.6,0.2c-2.5,0.6-4.9,1.8-6.8,3.5
			c-1.9,1.8-3.2,4.1-4.1,6.6c-1,2.7-1.6,5.6-1.9,8.5c-0.4,3.1-0.4,6-0.2,9.1c0.2,2.9,0.8,5.9,0.2,8.8c-0.4,2.2-1.6,4.1-3.2,5.7
			c-0.4,0.4-0.8,0.8-1.3,1.1c-0.1,0.1-0.6,0.3-0.6,0.4c0,0.1,0.3,0.1,0.4,0c1.6-0.4,3.3-1.4,4.3-2.7c0.3-0.4,0.5-0.8,0.7-1.3
			c0.1-0.1,0.3-0.7,0.4-0.8c0.2-0.1,0.2,0.1,0.2,0.3c0.2,1.2,0.1,2.6,0,3.9c-0.1,0.9-0.1,1.8-0.5,2.7c-0.2,0.5-2.4,3.4-2.3,3.5
			c0.2,0.2,1.3-0.6,1.5-0.6c0.9-0.5,1.9-1,2.7-1.8c0.1-0.1,0.3-0.5,0.4-0.5c0.3,0.1,0.4,0.8,0.4,1c0.1,0.7,0.1,1.5,0,2.2
			c-0.1,0.6-0.4,1.2-0.7,1.8c-0.2,0.6,0.2,0.4,0.6,0.2c0.6-0.3,1.3-0.8,1.7-1.3c0.3-0.3,0.4-0.5,0.6-0.8c0.3-0.4,0.5-1.1,0.9-1.6
			c0.2-0.2,0.1-0.2,0.2,0.1c0.1,0.5-0.2,1.1-0.3,1.6c-0.1,0.4-0.2,0.8-0.4,1.2c-0.3,0.6-0.8,0.8-1.1,1.3c-0.1,0.1-0.3,0.4-0.3,0.6
			c0.2,0.4,1.1-0.3,1.2-0.4c1-0.8,2-1.7,2.7-2.7c0.6-0.9,1-1.8,1.3-2.9c-0.3,2.7-1,5.5-2.4,7.9c-1.4,2.2-3.5,3.9-5.7,5.3
			c-2.5,1.6-5.3,2.9-8.2,3.9c-2.9,1-5.9,1.3-8.7,2.2c-1.3,0.4-2.5,1.1-3.3,2.3c-1.3,1.8-1.7,4.1-2,6.3c-0.4,3.1-0.5,6.2-0.6,9.3
			c-0.1,2.2-0.1,4.5,0,6.7c0.1,3.8,0.1,7.7,0.1,11.5c0.1,4.4,0.1,8.8,0.1,13.1c0,2.2,0.1,4.3,0,6.5c0,1.5-0.1,3.1-0.3,4.6
			c-0.1,1.4-0.5,2.7-1,4c-0.9,2.9-1.7,5.8-2.2,8.7c-0.6,3.1-0.8,6.1-0.9,9.2c-0.1,2.8,0,5.7,0,8.5c0.1,3.4,0.1,6.8,0.1,10.2
			c0,3.1,0,6.3-0.3,9.4c-0.3,3.1-1,5.9-1.9,8.8c-0.9,2.7-1.5,5.6-1.8,8.5c-0.2,2.2-0.1,4.4,0.8,6.4c1,2.3,2.5,4.3,4.3,6
			c0.8,0.8,1.7,1.6,2.6,2.1c0.3,0.1,0.6,0.3,0.8,0.3c0.3-0.1,0.5-0.3,0.5-0.6c0.1-0.5-0.1-1-0.4-1.5c-0.6-1-1.3-1.9-1.8-3.1
			c-0.8-2-0.7-4.1-0.4-6.1c0.2-1.1,0.4-2.3,0.8-3.3c0.1-0.2,0.4-0.8,0.7-0.8c0.1,0,0.1,0.1,0.2,0.1c0.3,0.3,0.3,0.8,0.4,1.1
			c0.2,0.6,0.4,1.3,0.6,1.9c0.2,0.8,0.3,1.7,0.2,2.5c-0.1,1-0.4,1.9-0.4,2.9c0,0.3-0.1,1.2,0.4,1.2c0.2,0,0.3-0.3,0.4-0.4
			c0.6-0.9,1-2,1.4-3c0.3-0.8,0.7-1.7,0.8-2.6c0.1-0.6-0.1-1.3-0.3-2c-0.6-3.5-1.2-6.9-1.9-10.4c-0.5-2.7-0.6-5.5-0.2-8.2
			c0.4-3,1-5.9,1.7-8.8c0.6-3.1,1.3-6.1,2.1-9.2c0.8-3.4,1.7-6.8,2.5-10.2c0.8-2.9,1.5-5.9,2.4-8.8c0.4-1.4,0.9-2.7,1.1-4.2
			c0.3-1.5,0.3-3,0.4-4.5c0.2-3.2,0.2-6.4,0.3-9.6c0.1-2.7,0.1-5.4,0.2-8.1c0.1-3.4,0.1-6.9,0.2-10.4c0.2,0.5,0.6,0.9,0.7,1.5
			c0.3,1.2,0.4,2.5,0.6,3.7c0.3,1.9,0.6,3.9,1,5.8c0.8,4.6,1.5,9.2,2,13.8c0.2,2.1,0.3,4.2,0,6.2s-0.8,4-1.4,6
			c-0.6,1.8-1.3,3.6-2,5.3c-0.6,1.4-1.1,2.7-1.7,4.1c-0.3,0.7-0.6,1.4-0.8,2.1c-0.1,0.4-0.3,0.9-0.5,1.3s-0.6,0.6-0.8,1.1
			c-0.4,0.9-1.3,2.3-1.1,3.4C246,191.6,246.1,191.8,246.1,191.9z"/>
	</g>
</g>
</svg>
