<?xml version="1.0" encoding="utf-8"?>
<!-- Generator: Adobe Illustrator 28.4.1, SVG Export Plug-In . SVG Version: 6.00 Build 0)  -->
<svg class="cloth_part" version="1.1" id="Layer_1" xmlns="http://www.w3.org/2000/svg" xmlns:xlink="http://www.w3.org/1999/xlink" x="0px" y="0px"
	 viewBox="0 0 404 404" style="enable-background:new 0 0 404 404;" xml:space="preserve">
<g id="SELECT">
    <g name="Gloves">
      <polygon class="st0" points="91.42 196.17 75.82 206.97 80.5 212.64 87.02 219.25 91.16 219.22 97.61 215.08 102.38 210.48 101.72 206.47 94.65 197.98 91.42 196.17"/>
      <polygon class="st0" points="173.8 181.52 177.52 184.72 181.32 191.87 180.85 197.3 177.34 202.97 174.39 203.2 169.79 201.27 166.5 193.9 165.95 187.88 166.4 186.47 168.67 186.24 170.12 186.47 169.92 182.87 171.32 181.33 173.8 181.52"/>
      <polygon class="st0" points="272.67 226.83 261.25 226.52 259.41 236.82 260.26 243.29 263.62 247.87 268.12 250.87 272 250.62 273.96 248.3 275.49 245.49 274.78 237.92 272.67 226.83"/>
      <polygon class="st0" points="369.79 232.73 356.55 233.28 351.52 251.27 353.02 254.77 358.32 256.97 363.75 255.28 369.54 247.1 370.35 234.54 369.79 232.73"/>
    </g>
    <g name="Sweater">
      <polygon class="st0" points="139.81 94.83 144.2 108.03 148.99 131.41 152.48 154.63 154.2 173.74 154.51 178.32 156.33 185.61 157.17 189.72 158.05 197.79 157.12 201.91 150.35 203.47 131.45 206.59 118.37 207.02 102.03 205.65 98.9 200.91 104.42 178.58 106.62 162.47 109.02 142.8 111.56 121.98 110.72 112.23 108.22 100.97 107.96 97.77 109.12 92.65 114.36 96.56 126.34 100.03 135.8 99.69 138.32 97.17 139.81 94.83"/>
      <polygon class="st0" points="301.83 140.48 304.71 143.7 307.35 146.24 312.42 148.26 319.2 149.48 327.78 148.02 335.68 143.55 337.69 141.61 337.05 156.35 332.59 190.99 330.28 208.26 329.42 218.67 319.92 219.36 312.25 219.17 304.72 217.67 303.12 184.59 301.83 140.48"/>
    </g>
    <g name="Coat">
      <polygon class="st0" points="109.32 67.67 89.32 68.47 79.32 73.07 72.52 88.77 73.72 93.67 68.12 97.67 57.22 124.47 50.82 137.87 46.12 155.27 49.82 170.87 56.42 185.37 38.62 229.17 80.82 251.17 90.02 252.07 93.52 218.67 88.02 220.17 80.12 212.97 75.82 206.97 91.72 195.87 98.12 200.27 104.32 176.07 110.22 132.67 110.72 116.67 107.42 97.07 111.82 75.57 109.32 67.67"/>
      <polygon class="st0" points="138.12 73.17 149.42 74.27 164.32 83.17 170.12 90.57 171.92 96.67 171.92 105.97 167.22 110.47 166.92 121.77 172.52 152.07 177.32 168.17 181.52 189.87 175.32 181.87 170.02 180.77 169.82 185.87 165.72 186.37 166.22 193.37 169.32 201.27 176.02 204.07 181.52 246.17 160.92 242.77 159.02 213.57 155.42 202.87 158.62 201.27 157.52 187.27 155.42 178.77 151.62 143.77 145.62 111.57 140.12 94.17 141.52 90.17 137.12 78.07 138.12 73.17"/>
    </g>
    <g name="Scarf">
      <polygon class="st0" points="137.12 78.07 141.52 90.17 140.12 94.17 135.42 99.77 125.12 99.87 113.92 96.37 108.62 92.27 112.32 77.17 115.62 83.77 120.52 86.17 125.04 93.32 130.26 92.94 136.12 85.56 137.12 78.07"/>
    </g>
    <g name="Scarf">
      <polygon class="st0" points="310.32 91.87 306.62 95.27 298.02 98.77 293.22 105.17 293.42 112.47 295.82 124.77 295.32 129.67 302.22 141.07 306.82 145.47 317.82 149.07 328.42 147.77 340.82 139.67 350.02 125.07 346.62 118.97 349.02 109.17 350.02 102.67 333.02 91.47 330.52 97.87 323.62 103.57 317.32 101.77 310.32 91.87"/>
    </g>
    <g name="Coat">
      <polygon class="st0" points="282.02 115.17 274.82 120.07 271.62 144.17 270.87 152.57 276.58 147.35 279.12 160.37 281.42 162.47 285.22 174.67 287.92 167.67 291.02 159.77 291.02 139.67 295.32 129.67 301.42 140.97 305.92 247.57 305.62 336.67 303.92 338.47 271.82 331.47 255.02 323.97 268.12 250.87 272.72 250.57 275.72 245.07 273.42 227.47 272.42 226.47 259.92 226.57 257.62 223.67 262.42 191.77 269.02 159.87 271.42 144.07 271.92 137.07 274.62 119.17 282.62 114.57 282.02 120.97 273.62 140.57 272.52 139.17 275.42 120.07 282.02 115.17"/>
      <polygon class="st0" points="350.02 125.07 358.72 134.17 359.72 143.87 364.62 149.27 363.72 165.77 365.92 175.87 370.82 231.67 356.32 232.87 351.52 251.27 353.02 254.77 358.32 256.97 358.92 325.47 357.22 329.07 330.82 333.27 329.62 338.17 326.92 336.77 324.52 331.17 326.42 307.17 326.22 280.57 329.42 218.67 336.02 170.37 337.82 152.37 338.02 141.07 350.02 125.07"/>
    </g>
    <g name="Pants">
      <polygon class="st0" points="155.42 202.87 128.92 207.37 101.72 206.47 102.82 210.47 93.52 218.67 91.92 238.17 94.22 246.17 96.62 268.37 93.32 294.97 87.22 303.67 75.82 345.07 71.02 360.27 71.22 370.07 75.22 374.07 88.82 378.57 92.32 376.27 97.62 367.27 93.32 354.87 99.32 345.87 111.72 313.97 116.72 303.97 119.82 299.87 126.52 267.67 129.02 297.47 127.02 307.77 126.52 320.47 120.32 352.27 116.72 364.77 120.72 375.97 117.62 384.27 122.02 385.67 133.22 384.47 142.82 379.97 143.52 372.17 146.12 367.67 143.92 355.37 148.12 344.87 150.32 321.27 153.32 307.67 154.72 296.77 156.12 292.17 156.12 278.77 160.92 245.37 159.62 219.07 155.42 202.87"/>
    </g>
    <g name="Pants">
      <polygon class="st0" points="329.42 218.67 317.02 219.57 304.72 217.67 305.62 336.67 303.92 338.47 293.12 336.37 293.52 354.57 298.92 361.77 300.42 376.97 314.22 375.17 314.52 362.17 312.72 356.07 314.22 349.37 313.02 331.87 315.62 345.47 317.02 357.37 316.62 364.07 319.62 371.57 319.62 375.17 325.12 376.97 333.12 375.47 335.82 358.27 333.92 342.97 334.62 332.37 330.82 333.27 329.62 338.17 326.92 336.77 324.52 331.17 329.42 218.67"/>
    </g>
    <g name="Shoes">
      <polygon class="st0" points="333.12 375.47 325.12 376.97 319.62 375.17 315.62 395.37 313.92 389.47 314.22 375.17 300.42 376.97 298.62 400.17 312.62 400.87 315.22 398.27 318.92 400.87 331.72 400.87 333.12 388.37 332.52 376.97 333.12 375.47"/>
    </g>
    <g name="Shoes">
      <polygon class="st0" points="142.82 379.97 133.22 384.47 122.02 385.67 117.62 384.27 118.82 400.77 160.32 400.57 163.42 397.77 161.72 393.87 150.02 391.17 142.82 379.97"/>
      <polygon class="st0" points="88.82 378.57 75.22 374.07 71.22 370.07 73.62 400.17 88.52 401.27 94.92 398.87 90.72 379.97 88.82 378.57"/>
    </g>
</g>
<g id="AG-HUMANS">
	<g id="POLYLINE">
		<path class="st1" d="M90.92,100.97c1.6,1,3.2,2.1,4.8,3,1.5,.9,3.2,1.5,4.8,2.3,1.4,.8,2.8,1.6,3.7,2.9,.9,1.1,1.4,2.5,1.8,3.8,1.1,3.7,1.3,7.6,1.5,11.4,.2,3.9,.4,7.8,.6,11.7,.1,4.1,.2,8.3-.1,12.4-.1,.4-.1,.9-.1,1.4"/>
	</g>
	<g id="POLYLINE-2">
		<path class="st1" d="M79.12,130.77c.2,1.8,.4,3.5,.2,5.3-.2,1.8-.6,3.7-.9,5.5-.4,2.1-.9,4.2-1.5,6.3s-1.2,4.1-1.8,6.2c-.4,1.5-.9,3-.9,4.6-.1,1.6,.1,3.3,.4,4.9,.7,3.6,2.4,7,3.6,10.5,.6,2,1.2,4,2,5.9,.6,1.5,1.5,2.7,2.6,3.9,2.7,2.9,5.7,5.6,7.8,8.9,.6,.9,2,2.6,.8,3.4-.7,.5-1.6,.8-2.4,1.3-.8,.4-1.5,.8-2.2,1.2-3.4,2-6.4,4.4-9.4,7-.8,.7-1.6,1.5-2.5,2.2-.6,.5-1.2,1.1-2,1.1-1.5,.1-2.7-1.6-3.5-2.5-2.5-3.2-4.4-6.8-6.4-10.2-2-3.5-4-7.2-5.9-10.8s-3.7-7.2-5.6-10.8c-1.7-3.4-3.7-6.9-4.4-10.7-.2-.9-.3-1.9-.4-2.8-.1-.9-.4-1.9-.6-2.8-.4-1.8-.3-3.7,.1-5.6,.6-3.6,2.7-6.7,3.7-10.2,.8-2.8,.4-5.9,1.9-8.5,.9-1.5,2.1-2.8,2.9-4.4,.9-1.6,1.5-3.4,2.3-5.1,.8-1.6,2.1-2.8,3-4.4,.9-1.5,.6-2.9,.8-4.6,.2-1.4,.9-2.7,1.6-3.9,.9-1.7,1.8-3.5,2.5-5.3s1.3-3.7,1.9-5.6c.5-1.7,.8-3.6,2.5-4.6,.6-.4,1.3-.6,2-1,.8-.4,1.5-1,2.1-1.6"/>
	</g>
	<g id="POLYLINE-3">
		<path class="st1" d="M75.82,206.97c2.1,3.5,4.9,6.6,7.5,9.7,.9,1.1,1.8,2.3,3.2,3,1.4,.7,2.9,.6,4.4,.2,1.9-.6,3.7-1.5,5.3-2.6,1.6-1.1,3.3-2.2,4.7-3.6,1-1,2-2.2,2-3.7,.1-1.8-1.1-3.5-2-4.9-2.1-3.3-4.5-6.3-7.8-8.5-.4-.3-.8-.5-1.3-.8"/>
	</g>
	<g id="POLYLINE-4">
		<path class="st1" d="M93.52,218.67c-.9,4.5-1.4,9-1.7,13.5-.3,4.8-.4,9.6-.7,14.4-.1,1.1-.1,2.3-.3,3.4-.1,.7-.3,1.5-.9,2-1.3,.9-3.5,.5-5,.2-4.4-.8-8.5-2.7-12.5-4.6-3.5-1.8-6.9-3.7-10.3-5.6-5.8-3.2-11.5-6.4-17.3-9.5-1.2-.7-2.5-1.3-3.7-2-.8-.4-1.6-.8-2.2-1.5-.6-.6-.5-1.2-.2-1.9,.4-.9,1.1-1.8,1.6-2.7,.6-.9,1.1-2,1.6-3,.8-1.6,1.5-3.2,2.1-4.7,2-4.9,4-9.7,6-14.5,2.2-5.2,4.4-10.6,6.6-15.8,.1-.3,.3-.6,.4-.9"/>
	</g>
	<g id="POLYLINE-5">
		<path class="st1" d="M101.42,206.17c3.5,.6,7,1.1,10.5,1.3,3.5,.3,7.1,.3,10.7,.3,3.5-.1,7.1-.4,10.6-.8,3.6-.4,7.1-.9,10.7-1.5,3.5-.6,6.9-1.4,10.3-2.3,.4-.1,.8-.2,1.2-.3"/>
	</g>
	<g id="POLYLINE-6">
		<path class="st1" d="M108.62,92.27c1.6,1.5,3.2,2.8,5,3.9,1.6,.9,3.5,1.6,5.3,2.2,4,1.2,8.3,2,12.5,2.1,1.3,0,2.7-.1,4-.7,1.2-.6,2.1-1.5,2.9-2.6,1.1-1.5,2.1-3.3,2.7-5.1,.5-1.3,.6-2.7,.2-4-.6-1.8-1.6-3.4-2.1-5.2-.4-1.4-.6-2.7-1.4-3.9-.2-.3-.4-.6-.6-.9"/>
	</g>
	<g id="POLYLINE-7">
		<path class="st1" d="M109.52,60.57c-.3,3.7,.1,7.3,1.1,10.8,.6,2,1.1,3.9,1.8,5.8,.6,1.7,1.1,3.4,2.1,5,1.4,2.3,3.5,3.7,6.1,4,2.7,.3,5.4-.3,7.7-1.5,3-1.6,5.6-4.3,7.2-7.3,.2-.4,.4-.8,.6-1.1"/>
	</g>
	<g id="POLYLINE-8">
		<path class="st1" d="M120.12,85.97c.6,1.1,1.3,2,1.9,3,.6,.9,1,1.8,1.6,2.7,.9,1.3,2.3,1.9,3.9,2,1.8,.1,3.1-.8,4.1-2.1,1.3-1.8,2.9-3.5,3.8-5.6,.9-2.1,1.3-4.4,1.6-6.6,.4-2.5,.9-5.1,1.5-7.6,.1-.7,.3-1.8,.9-2.2,.4-.3,.9-.3,1.3-.3,.7-.1,1.3-.5,1.8-1,1.2-1.3,2-3.1,2.5-4.8,.3-1,.4-2.1,.3-3.1-.1-.8-.1-1.9-.6-2.6-1.1-1.7-3.3,1.3-3.7,2.2-.3,.8-.5,1.6-.7,2.3-.1,.8-.3,2.4-1.1,2.8-.9,.4-.9-1.7-.9-2.1-.2-1.1-.5-2.3-.8-3.4-.4-1.2-.9-2.3-1.4-3.4-.4-.8-.8-1.8-.7-2.7,.2-1.9,3-3.1,1.9-5.2-.4-.9-1.5-1-2.4-1-1.1-.1-2.3,.1-3.4,0-2.2-.1-4.4-.6-6.6-1.1-2.3-.6-4.6-1.5-7-1.7-1.5-.1-3,.3-4.2,1.3-1.4,1.1-2,2.7-2.3,4.4-.4,2.3-.6,4.7-1.1,7-.3,1.3-.6,2.5-.8,3.7"/>
	</g>
	<g id="POLYLINE-9">
		<path class="st1" d="M110.72,71.97c-1.8,1.6-3.5,3.4-5.2,5.2-1.9,2-3.9,3.9-5.8,5.8-.6,.6-1.1,1.2-.9,2.1,.3,1.1,1.4,2,2.1,3,.6,.8,1,2,.4,2.8-.4,.8-1.5,.9-2.2,1.3-.9,.4-1.3,1.1-1.7,2-.4,.9-.9,1.3-2,1.4-.9,.1-1.6,.2-2.4,.6-.7,.4-1.4,.8-1.8,1.5-.5,.8-.4,1.5-.3,2.3,.2,1.1,.1,2.1-.1,3.2-.1,1.1,0,2.3-.1,3.4-.1,1-.6,1.6-1.6,2-1.8,.7-4-.1-5.8-.8-1.2-.5-2-1.4-2.8-2.3-.9-1-1.8-2-2.7-3-.7-.8-1.7-1.4-1.9-2.5-.2-1.1-.2-2.2-.4-3.3-.4-2.1-2.5-3.2-3-5.2-.4-1.6,.1-3.2,.5-4.7,.4-1.1,.6-2.3,.9-3.5,.3-.9,.8-1.8,1.2-2.7,.5-1,.7-2.1,1.4-3,.6-.9,1.5-1.6,2.2-2.4,.7-.9,1-2,1.8-2.8,.8-.7,1.7-1.2,2.7-1.6,1.2-.5,2.4-.8,3.6-1.1,.9-.3,1.6-.6,2.4-1.1,.8-.6,2-.4,3-.4,1.1,.1,2.3,.2,3.4,0,.9-.1,1.7-.5,2.6-.6,1-.1,2-.1,3,0,2,.2,3.9,.8,5.9,.5,.9-.1,1.7-.3,2.6-.6"/>
	</g>
	<g id="POLYLINE-10">
		<path class="st1" d="M112.22,76.67c-.8,1.7-1.5,3.5-1.8,5.3-.3,2-.4,4.1-.7,6.1-.3,2.1-1,4.1-1.6,6.1-.4,1.4-.7,2.8-.6,4.3,.1,1.8,.7,3.5,1.2,5.2,.6,2,1.1,4,1.5,6,.7,4,.9,8,.8,12.1-.1,4-.4,8-.9,12-.5,4.4-1.1,8.8-1.6,13.2-.6,5.2-1.3,10.3-1.9,15.5-.4,3.5-.9,7.1-1.6,10.7-.8,4.2-1.7,8.4-2.7,12.6-.9,4-2,8.1-3.2,12.1-.3,1.1-.6,2.3-.9,3.4"/>
	</g>
	<g id="POLYLINE-11">
		<path class="st1" d="M109.62,59.87c-.6-1.3-1-2.5-1.2-3.9-.2-1.3-.1-2.5,0-3.8,.3-3.2,.2-6.4,.9-9.5,.6-2.3,1.3-5.1,3.1-6.7,.8-.8,1.8-1.1,2.7-1.7,.9-.8,1.6-1.9,2.4-2.8,1.5-1.6,3.5-2.5,5.8-2.4,1.6,.1,3.2,.6,4.8,.7,1.5,.1,3,.1,4.4,.4,1.3,.4,2.3,1.3,3.2,2.1,1.2,1,2.5,1.8,3.7,2.6,2.3,1.5,4,3.3,5.2,5.8,.9,1.9,1.3,3.9,.9,5.9-.3,1.3-.7,2.7-1,4s-.4,2.6-.6,3.9c-.1,.8-.1,1.6-.2,2.4"/>
	</g>
	<g id="POLYLINE-12">
		<path class="st1" d="M137.92,74.27c3.7,2.7,7.4,5.4,11.1,8.2,3.7,2.8,7.3,5.7,11,8.6,1.6,1.3,3.2,2.5,4.7,3.9,.6,.6,1.5,1.1,1.9,1.9s-.1,1.1-.8,1.5c-1.8,.8-3.9,.9-5.4,2.1-1.3,1.1-1.8,2.8-2.1,4.4-1,4.2-1.4,8.5-1.6,12.8-.3,4.4-.3,8.9,0,13.2s.7,8.7,1.5,13c.8,4.5,1.8,8.9,2.9,13.3,1,4,2.2,7.9,3.4,11.9,1.4,4.7,2.7,9.4,4.1,14.2,.3,1.1,.6,2.1,.9,3.2"/>
	</g>
	<g id="POLYLINE-13">
		<path class="st1" d="M138.22,73.07c1.5,.3,2.9,.5,4.4,.6s2.8,.1,4.3,.3c1,.2,2,.4,2.9,1,1.1,.6,2,1.5,3.2,2,1.3,.5,2.7,.8,4,1.3,1.2,.5,2,1.3,3,2.3,.9,.9,1.8,1.5,3,2,1.5,.6,2.8,1.1,3.9,2.3,.9,1.1,1.5,2.5,2.4,3.8,.6,.9,1.5,1.6,2,2.7,.8,1.6,.9,3.6,.8,5.3-.1,.9-.4,1.8-.8,2.7-.5,1.3,.2,2.1,.8,3.2,.4,.9,.6,1.7,.3,2.7-.2,.6-.5,1.1-1,1.4-.6,.3-1,.4-1.4,1-.6,.8-1,2-2,2.5-1.1,.6-2.2-.1-3.1-.7-.4-.3-.9-.7-1.5-.9-.6-.3-1.2-.4-1.8-.6-1-.4-1.8-1.2-2.5-2.1-.3-.4-.6-.9-.8-1.5"/>
	</g>
	<g id="POLYLINE-14">
		<path class="st1" d="M155.32,202.87c.7,1.2,1.5,2.4,2,3.7,.4,1.1,.8,2.3,1,3.5,.6,2.8,.9,5.6,1.2,8.3,.6,6,1.2,12.1,1.4,18.1,.1,5.5-.3,11.1-1.1,16.5-.9,6.9-2,13.8-2.9,20.7-.4,2.5-.6,5-.8,7.5-.1,1.4-.1,2.8-.1,4.1,.1,1.4,.2,2.7,.3,4,.1,2.5-.8,4.9-1.5,7.3-.8,2.5-1.4,5.1-1.5,7.8-.1,2.8,.1,5.6-.6,8.4-.7,2.8-1.7,5.6-2.3,8.3-1.3,5.8-1.1,11.6-1.5,17.5-.2,2.7-.5,5.4-1.3,8.1-.9,2.8-2.2,5.4-3.4,8-1.1,2.4,.1,5.1,.9,7.4,.6,2,1.6,4.4,.8,6.4-.6,1.3-1.6,2.3-2.3,3.4-.5,.9-.6,1.8-.6,2.8,.1,2.3,.8,5.4-1.8,6.5-1.1,.4-2.2,.6-3.2,1.1-1.1,.4-2,1.1-3.1,1.5-2.6,.9-5.4,1.3-8.2,1.5-2.3,.1-4.9,.1-7-.9-2.1-1.1-2-3.3-1.2-5.2,.3-.8,.8-1.6,1.3-2.3,.8-1,1.3-1.6,.5-2.8-.7-.9-1.4-1.8-1.9-3-.5-1.1-.9-2.3-1.1-3.4-.4-2.1-.7-4.3-.2-6.4,.6-2.7,2.1-5.2,2.9-7.8,1.8-5.8,2.5-11.9,3.4-17.9,.4-2.8,.8-5.7,1.4-8.5,.5-2.9,1.3-5.6,2.3-8.3,.8-2.2,.4-4.4,.2-6.6-.3-2.5-.3-4.9,.4-7.3,.4-1.3,.9-2.7,1.4-4,.3-.9,.5-1.9,.3-2.8-.3-1.1-.8-2-1-3.1s-.1-2.2-.1-3.4c.2-2.8,.4-5.6,.1-8.5-.3-3.2-.7-6.4-1-9.5-.3-2.7-.6-5.5-.9-8.2"/>
	</g>
	<g id="POLYLINE-15">
		<path class="st1" d="M140.12,94.17c1.3,3.5,2.7,7.1,3.7,10.7,1.1,3.7,2,7.5,2.8,11.3s1.5,7.6,2.3,11.4c.6,3.4,1.3,6.9,1.8,10.3,.6,4.1,1.3,8.3,1.8,12.5,.5,3.6,.9,7.2,1.3,10.9,.4,4,.7,8.2,.9,12.2,.1,1.6,.2,3.3,.4,4.9,.3,1.7,.8,3.4,1.2,5.1,.5,1.7,1,3.4,1.3,5.2,.2,1.6,0,3.2,.3,4.9,.4,2.7,1.4,5.6-.4,7.9-.6,.8-1.4,1.2-2.3,1.5"/>
	</g>
	<g id="POLYLINE-16">
		<path class="st1" d="M160.92,242.07c2.2,.6,4.5,1.1,6.8,1.6,2,.5,4.1,1.1,6.1,1.6,1.8,.4,3.7,.9,5.6,.9,.7,0,1.6-.1,2-.8,.4-.6,.3-1.4,.3-2-.2-2-.7-3.9-.9-5.9-.3-1.9-.4-3.9-.5-5.8-.4-4.6-.6-9.3-1.4-13.8-.8-4.2-2-8.2-3.4-12.2-.2-.6-.4-1.1-.6-1.6"/>
	</g>
	<g id="POLYLINE-17">
		<path class="st1" d="M170.12,181.87c.9-1.8,3.2-1.2,4.6-.4,1.9,1.2,3.4,3,4.5,4.9,2.3,3.8,2.9,8.2,1.1,12.4-.8,1.7-1.9,3.5-3.5,4.6-1.8,1.2-3.7,.4-5.4-.7-1.8-1.2-2.9-2.8-3.7-4.9-.9-2.4-1.7-4.9-2.3-7.5-.3-1-.4-2-.2-3,.3-1,1.1-2,2.2-1.8,.7,.2,1.9,1.3,2.4,.3,.4-.8,.1-2,.1-2.9,.1-.3,.1-.6,.2-1Z"/>
	</g>
	<g id="POLYLINE-18">
		<path class="st1" d="M170.12,181.87c-.8-4.5-1.3-9-1.8-13.5-.4-4.8-.8-9.7-1.2-14.5-.3-4.4-.6-8.7-.9-13.1-.3-4.8-.7-9.6-.9-14.4-.3-5.6-.6-11.3-.9-16.9v-.5"/>
	</g>
	<g id="POLYLINE-19">
		<path class="st1" d="M166.52,110.27c-.1,5.4,.1,10.9,1.4,16.2,.6,2.8,1.3,5.7,1.7,8.7,.4,2.9,.6,5.8,.9,8.7,.4,2.6,1,5.1,2,7.6,1.1,2.8,2.3,5.6,3.2,8.5,.9,2.7,1.3,5.4,1.6,8.2,.4,2.7,.8,5.5,1.5,8.2,.3,1.2,.6,2.4,1.1,3.6,.4,1.1,1,2.1,1.3,3.2,.6,2.3,.6,4.7,.4,7.1-.1,.6-.1,1.1-.3,1.6"/>
	</g>
	<g id="POLYLINE-20">
		<path class="st1" d="M118.62,383.87c-.8,3.2-1.1,6.4-1,9.7,0,1.6,.1,3.3,.3,4.9,.2,1.4,.5,2.3,2,2.7,1.4,.3,2.8,.3,4.2,.3,2,0,3.9-.1,5.8-.1,3-.1,6.1-.1,9.1-.1,4,0,8,.1,11.9,.1,3.1,0,6.4,.1,9.4-.8,1.4-.4,2.9-1.1,3.1-2.8,.1-1.3-.5-2.7-1.4-3.7-.8-.8-1.9-1.2-3-1.3-1.6-.3-3.2-.3-4.7-.6-2.2-.4-4.1-1.5-5.6-3.2-1.9-2-2.9-4.7-4.9-6.7-.5-.5-1.1-1-1.7-1.5"/>
	</g>
	<g id="POLYLINE-21">
		<path class="st1" d="M138.02,235.37c-3.2,4.5-5.9,9.2-7.7,14.4-1.8,5.4-3.2,10.9-4.4,16.4-1.3,5.9-2.4,11.8-3.2,17.7-.4,3-.7,5.9-1.1,8.9-.3,2.3-.7,4.9-1.8,7.1-.6,1.1-1.5,1.8-2.3,2.7-.8,.8-1.1,1.7-1.5,2.7-.8,2.2-1.1,4.9-2.7,6.8-.8,.8-1.7,1.5-2.3,2.4-.5,.8-.8,1.8-.9,2.7-.6,2.7-1.2,5.4-2.3,7.9-1.1,2.8-2.5,5.6-3.8,8.3-1.2,2.5-2.1,5.1-2.9,7.8-.8,2.4-1.7,4.6-3,6.7-1.5,2.3-3.4,4.5-4.7,7-.2,.4-.4,.9-.4,1.3,.1,.5,.4,.8,.8,1.1,.9,.9,1.5,2,2,3.1,.9,1.9,1.8,4,1.8,6.1,.1,2.7-2,4-3.4,6-1.1,1.7-1.5,4.2-3.2,5.5-1.8,1.4-4.8,.3-6.7-.4-2.6-.9-5.2-1.6-7.8-2.8-2.3-1.1-4-2.7-5.2-4.9-1.1-2.1-1.8-4.8-1.3-7.2,.2-.8,.6-1.6,1-2.3,.7-1.1,1.7-2.2,2-3.5,.3-1.2,0-2.4,.1-3.5,0-1,.3-1.9,.6-2.8,.9-2.7,2.1-5.2,2.8-8,.7-2.4,1.2-4.8,1.7-7.3,1.3-6.2,2.5-12.5,4.2-18.5,1.5-5.4,3.4-10.7,6.3-15.5,.6-1.1,1.3-2.1,2.1-3,.9-1,2-1.7,2.5-3.1,.8-2.4,.9-5,1.1-7.5,.1-1.1,.1-2.1,.5-3.1s.8-2,.9-3.1c.1-2.2-.6-4.4-.1-6.6,.3-1.3,.6-2.5,.8-3.8,.2-1.3,.1-2.6,.1-3.9-.1-2.3-.4-4.6-.7-6.9-.8-6.5-1.5-13-2.4-19.5-.4-2.8-.9-5.5-1.5-8.2"/>
	</g>
	<g id="POLYLINE-22">
		<path class="st1" d="M71.22,370.07c-.4,2.7-.6,5.4-.4,8.1,.3,2.8,1.1,5.5,1.6,8.2,.4,2.7,.3,5.3,.2,8-.1,1.8-.3,4.4,1.1,5.8,.8,.8,2,.9,3,.9,1.3,.1,2.7,.1,3.9,.2,2.7,.1,5.3,.1,8-.1,1.8-.2,4.4-.4,5.7-2,1.2-1.5,.6-3.9,.1-5.5-.4-1.1-.9-2.2-1.5-3.3-.5-1-.8-2.1-1.1-3.2-.6-2.4-.9-4.9-1.1-7.3,0-.6-.1-1.3,0-2"/>
	</g>
	<g id="POLYLINE-23">
		<path class="st1" d="M311.82,95.17c-1.6,1.4-1.6,3.6-.6,5.3,.5,.8,1.1,1.6,1.5,2.5,.4,1.1,.7,2,1.8,2.5,1.3,.6,2.7,.8,4.1,1,1,.1,2.1,.3,3.1,.1,1.4-.3,2.7-.8,4-1.3,.7-.3,1.5-.4,2.1-.7,.8-.3,1.3-.8,1.9-1.3s1.1-1,1.8-1.5c.5-.3,.9-.6,1.1-1.2,.3-.6,.3-1.5,.1-2.1-.2-.7-.8-1.2-1.1-1.9-.1-.2-.1-.4-.1-.6"/>
	</g>
	<g id="POLYLINE-24">
		<path class="st1" d="M330.82,333.27c3.3-.6,6.5-1.1,9.8-1.6,3.3-.4,6.6-.8,9.9-1.2,1.6-.2,3.2-.4,4.7-.8,1.1-.3,2.3-.5,3-1.4,1.1-1.4,.8-3.8,.8-5.5,0-3.9-.1-7.6-.1-11.5-.1-4.9-.1-9.7-.1-14.6,0-2.7,0-5.4-.1-8,0-2.2-.1-4.4-.1-6.6-.1-4.9-.2-9.7-.3-14.6-.1-3.5-.1-7-.2-10.5v-.5"/>
	</g>
	<g id="POLYLINE-25">
		<path class="st1" d="M356.32,232.87c-.8,2.3-1.3,4.6-2,7-.6,2.1-1.3,4.3-1.9,6.4-.5,1.9-1.1,4-.8,6,.3,1.8,1.6,2.9,3.4,3.5,2.8,.9,6,1.2,8.6-.4,2.8-1.8,4.6-5.1,5.6-8.2,1.4-4.2,1.4-8.8,1.1-13.2-.1-.5-.1-1-.1-1.6"/>
	</g>
	<g id="POLYLINE-26">
		<path class="st1" d="M319.92,374.67c-.9,4.8-1.7,9.7-2.5,14.5-.4,2.3-.9,4.5-.9,6.8-.1,1.4-.4,4.2,1.1,5,.8,.4,1.7,.4,2.5,.4h4c1.8,0,3.7,.1,5.6-.4,1.6-.4,2.7-1.4,3.1-3,.4-1.8,.3-3.7,.2-5.5-.3-4.7-.9-9.4-1-14.2,0-.7,0-1.3-.1-2"/>
	</g>
	<g id="POLYLINE-27">
		<path class="st1" d="M300.62,376.47c-1,4.6-1.6,9.2-1.8,13.9-.1,2.3-.3,4.7-.1,7,.1,.8,.2,1.8,.8,2.5,.4,.6,1.2,.9,2,1.1,2.1,.4,4.3,.4,6.4,.3,1.2,0,2.4-.1,3.6-.1,.8-.1,1.8-.1,2.5-.6,1.7-1,1.2-4,1.1-5.6-.2-2.7-.5-5.3-.8-8-.2-2-.4-4-.2-6,.2-1.8,.6-3.5,.3-5.3-.1-.4-.2-.9-.3-1.4"/>
	</g>
	<g id="POLYLINE-28">
		<path class="st1" d="M313.12,332.17c.2,2,.3,3.9,.8,5.9,.4,1.8,1.2,3.5,1.5,5.4,.3,1.8,.1,3.6,.2,5.4,.1,1.9,.6,3.8,.9,5.6,.3,1.4,.6,2.8,.4,4.3-.2,1.3-.8,2.5-.8,3.8,0,.5,.1,1,.3,1.5,.3,.9,1.1,1.5,1.4,2.4,.2,.6-.1,1.3,.2,2,.3,.7,.7,1.3,1.1,2,.6,1.3,.3,2.6,.6,4,.3,1.5,1.7,2,3,2.2,1.6,.3,3.4,.3,5.1,.3,1.5-.1,3.3-.2,4.7-.8,1.5-.6,1.5-2.2,1.6-3.6,.1-1.6,.1-3.1,.7-4.6,.6-1.6,.2-3.2,.3-4.9,.1-1.6,.6-3.1,.6-4.7-.1-2-.6-4.1-.9-6.1-.3-1.8-.6-3.5-.7-5.3-.3-3.8-.1-7.6,.2-11.4,.1-.9,.2-1.9,.3-2.8"/>
	</g>
	<g id="POLYLINE-29">
		<path class="st1" d="M293.12,336.27c.2,3.2,.2,6.4,.1,9.6-.1,2.8-.3,5.8,.3,8.7,.2,1,.5,2,1.1,2.9,.7,.9,1.7,1.5,2.7,2.1,2,1.5,2.7,4,2,6.4-.3,1.3-.9,2.6-.3,3.9,.6,1.1,1.1,1.8,1.1,3.1,.1,1-.3,2.8,.5,3.6,.8,.8,2.4,.5,3.4,.4,2.8-.2,5.9-.6,8.7-1.5,1.2-.4,1.7-.9,1.8-2.2,.1-1.5,0-2.9-.1-4.4-.1-1.3-.1-2.5,.1-3.8s.4-2.3-.1-3.7c-.5-1.1-1.1-2.1-1.4-3.4-.4-1.4,.1-2.7,.7-3.9,.9-2.1,.7-4,.2-6.3-.6-2.9-.9-5.8-.9-8.8,.1-3.1,.3-6.2,.3-9.3,0-2.5-.1-5.1-.1-7.6-.1-4.6-.2-9.1-.3-13.6-.1-2-.1-4.1-.1-6.2,0-4.2,0-8.3-.1-12.5v-5.6c.1-4,.1-8.1,.1-12.1,.1-4,.1-8.2,.1-12.2v-2"/>
	</g>
	<g id="POLYLINE-30">
		<path class="st1" d="M350.32,142.27c0,3.2,.1,6.5,0,9.7,0,3.4-.1,6.8-.2,10.1-.1,3.4-.2,6.7-.1,10.1,.1,3.4,.3,6.8,.5,10.2,.2,3,.5,6,.9,9,.5,3.9,.9,7.6,1.5,11.5,.4,3.2,.7,6.4,1,9.7,.3,3.2,.6,6.5,.8,9.8,.1,1.8,.2,3.5,.3,5.4,.1,1.4,.1,2.9,.3,4.3,.2,1.3,2,.8,3,.8,1.6-.1,3.1-.1,4.7,0s3.3,.1,4.9,.1c.9-.1,2.4-.1,3.1-.9,.4-.5,.4-1.2,.4-1.8,0-.8,0-1.6-.1-2.3-.1-1.6-.2-3.3-.3-4.9-.3-3.2-.8-6.3-1.2-9.5-.5-3.4-1-6.8-1.3-10.1-.2-1.6-.2-3.3-.3-4.9-.1-1.4-.4-2.7-.8-4-.4-1.1-.6-2.3-.6-3.4-.1-1.5,.1-3,.1-4.6,0-2.7-.9-5.3-.9-8,0-1.3,.3-2.7,.3-4,0-1.1-.3-2.1-.6-3.1-.7-2.4-1.8-4.8-1.6-7.3,.1-1.5,.3-3,.4-4.6,.1-1.8,.2-3.5,.3-5.2,.1-1.6,.1-3.1,.3-4.7"/>
	</g>
	<g id="POLYLINE-31">
		<path class="st1" d="M304.62,217.67c3.2,.8,6.5,1.5,9.9,1.7,3.2,.3,6.4,.3,9.7,0,1.8-.2,3.5-.4,5.3-.7"/>
	</g>
	<g id="POLYLINE-32">
		<path class="st1" d="M261.42,226.07c-1.5,4-2.1,8.3-2,12.5,.1,1.9,.4,3.9,1.2,5.6,.7,1.5,1.8,2.6,3,3.7,1.5,1.3,3.1,3,5.1,3.4,1.5,.3,3.1-.1,4.3-.9,3.1-2,2.6-6.8,2.4-10-.3-4.6-1.1-9.2-2.3-13.6-.2-.6-.3-1.2-.5-1.8"/>
	</g>
	<g id="POLYLINE-33">
		<path class="st1" d="M272.42,142.57c-.3-2.2-.4-4.4-.3-6.6,.2-2.1,.9-4,1.3-6,.5-2.1,.4-4.4,.6-6.6,.1-1.6,.3-3.4,1.8-4.3,.9-.6,1.9-1,2.8-1.6,1.1-.7,2.2-1.5,3.4-2.1"/>
	</g>
	<g id="POLYLINE-34">
		<path class="st1" d="M279.12,160.37c.3,6,.3,11.9,.4,18,.1,5.5,.4,11,0,16.5-.3,5.4-1.4,10.7-3,15.9-.8,2.8-1.8,5.6-2.6,8.3-.3,1.1-.6,2.3-.8,3.5-.1,.9-.1,2.4-1.1,3s-2.5,.5-3.5,.6c-1.3,.1-2.7,.1-4,.1-1.6,0-5.2,.3-6.1-1.5-.4-.8-.2-2,0-2.8,.3-1.4,.6-2.7,.8-4.1,.4-2.8,.6-5.6,.9-8.3,.4-2.7,1.3-5.3,2-8,.6-2.5,.4-5.1,.3-7.7,0-1.1-.1-2.1,.2-3.2,.3-.9,.9-1.6,1.2-2.5,.6-1.8-.3-3.9-.1-5.8,.1-1.3,.9-2.2,1.6-3.3,.5-.7,.8-1.5,.9-2.3,.3-2.1,.1-4,.8-6,.8-2.2,1.7-4.1,1.8-6.4,.1-2.6,.2-5.1,.8-7.6,.3-1.3,.6-2.5,1-3.7"/>
	</g>
	<g id="POLYLINE-35">
		<path class="st1" d="M301.32,139.67c.1,3,.3,5.9,.4,8.9,.3,7,.6,13.9,.9,20.9,.3,7.9,.6,15.9,1,23.8,.3,6.1,.5,12.1,.8,18.2,.1,2.4,.2,4.8,.3,7.1,.2,6.7,.4,13.4,.5,20.2,.1,5.1,.1,10.2,.2,15.4,.1,3.9,.1,7.6,.1,11.5,0,5.9,0,11.9,.1,17.9,0,7.8,0,15.5,.1,23.3,0,3.5-.1,7.1,0,10.6,.1,3.4,.2,6.7,.3,10.1,.1,2.3,.2,4.6,.1,6.8-.1,1.8-.3,4.6-2.7,4.2-1.2-.1-2.4-.6-3.6-.9-1.1-.3-2.3-.6-3.5-.8-5.1-.9-10.3-1-15.4-2.3-5.3-1.3-10.3-3.7-15.4-5.8-2.3-.9-4.6-1.6-6.9-2.5-.9-.4-2-.8-2.7-1.5-.8-.8-.7-1.6-.4-2.7,.7-2.5,1.5-4.9,2-7.3,.6-2.7,1.1-5.4,1.6-8,.8-4,1.5-8.2,2.2-12.2,1.3-7.3,2.5-14.5,3.8-21.7,.8-4.4,1.5-8.7,2.3-13.1,.5-2.8,1.1-5.6,1.6-8.5"/>
	</g>
	<g id="POLYLINE-36">
		<path class="st1" d="M354.12,130.37c-1.1,3.3-2.2,6.6-3.2,9.9-.9,3.1-1.7,6.2-2.4,9.4-.7,3.3-1.3,6.6-1.8,9.9-.4,3.1-.9,6.3-1.2,9.4-.4,3.7-.8,7.3-1.1,10.9-.1,1.2-.2,2.5-.3,3.7-.3,3.3-.6,6.6-.8,9.9-.4,4.6-.8,9.2-1.1,13.8-.4,5.1-.8,10.1-1.3,15.2-.4,4.7-.8,9.5-1.2,14.2-.3,3.5-.6,7.1-.9,10.7-.1,1.6-.3,3.2-.4,4.8-.3,2.8-.5,5.6-.8,8.4-.3,2.8-.6,5.7-.9,8.5-.5,4.1-1,8.3-1.5,12.4-.5,4-.9,8-1.5,12-.3,2.7-.6,5.3-.8,8-.3,3.4-.6,6.8-.8,10.1-.2,3.7-.4,7.3-.5,11-.1,3.2-.3,6.4-.6,9.5-.1,1.2-.4,7-2.7,5.9-1.9-.8-2.7-3.5-3-5.4-.4-2.9-.3-5.9,0-8.9,.3-3.7,.6-7.3,.8-10.9,.1-3.1,.2-6.3,.2-9.4,0-3.9-.1-7.8-.1-11.8-.1-2.8-.1-5.7-.1-8.5,.1-3.4,.1-6.7,.2-10.1,.1-3.5,.3-7.1,.4-10.6,.2-3.4,.4-6.7,.6-10,.2-3.8,.4-7.6,.6-11.4,.2-2.9,.4-5.9,.6-8.8,.3-3.8,.4-7.6,.7-11.4,.3-3.3,.5-6.6,.8-9.9,.3-3.4,.8-6.8,1.1-10.1,.3-2.5,.7-4.9,1.1-7.4,.7-4.6,1.5-9,2.1-13.6,.4-3,.9-5.9,1.4-8.9,.5-3.4,1-6.8,1.3-10.2,.3-3.2,.6-6.4,.6-9.7,.1-3.4,.1-6.7,.2-10.1"/>
	</g>
	<g id="POLYLINE-37">
		<path class="st1" d="M292.82,108.77c1.4,2.3,3.1,4.4,4.9,6.3,1.9,2,3.9,3.9,6.2,5.3,4.7,3,10.6,4.1,16.1,5.1,3,.6,6.1,1.3,9.2,1.1"/>
	</g>
	<g id="POLYLINE-38">
		<path class="st1" d="M347.22,114.17c-.8,.9-1.5,1.8-2.1,2.8-.7,1.3-1.3,2.6-1.8,3.9-1.1,2.3-2.6,4.2-4.2,6.2-1.5,2-3.1,4.4-5.3,5.7-2,1.2-4.6,1.1-6.9,1.1-3.2,.1-6.4,.1-9.6,.2"/>
	</g>
	<g id="POLYLINE-39">
		<path class="st1" d="M295.32,128.47c1.2,2.5,2.6,4.9,3.9,7.3,1.1,2,2,4.1,3.5,5.9,2.8,3.5,7.4,5.6,11.6,6.6,4.6,1.2,9.6,1.1,14.2-.5,4.7-1.7,8.6-5.1,11.8-8.9,3.3-3.9,6.1-8.2,8.2-12.8,.3-.6,.5-1.2,.8-1.8"/>
	</g>
	<g id="POLYLINE-40">
		<path class="st1" d="M310.32,91.87c-1.1,1.3-2.1,2.7-3.7,3.4-1.8,.8-3.7,1.3-5.4,1.9-3.6,1.3-6.6,3.7-7.8,7.5-1.2,3.6-.1,7.3,.8,10.9,.9,3.4,1.8,6.8,1.5,10.4-.3,4-1.8,7.5-3.4,11.1-.7,1.6-1.3,3.2-1.5,4.8-.3,2-.3,4-.1,5.9,.3,4,.9,8,.4,12-.5,3.6-2.9,6.4-3.8,9.8-.3,1-.4,2-.6,3-.1,.6-.1,1.8-.6,2.3-.8,.9-2.1-3.1-2.3-3.5-.6-1.8-1-3.5-1.3-5.4-.3-1.5-.5-3-1.6-4.2s-2.3-2.1-2.8-3.7c-.4-1.5-.4-3.2-.5-4.7,0-1.1,0-2.1-.1-3.2-.1-.8,0-1.7-.4-2.4-.8-1.5-3,1.3-3.5,2-.6,.8-1.2,1.6-1.8,2.3-.3,.4-.9,1.2-1.3,.5-.3-.6-.2-1.4-.2-2,.1-.9,.1-1.8,.3-2.7,.3-1.7,.8-3.4,1.6-5,.8-1.7,1.9-3.2,2.8-4.9,1.8-3.5,2-7.5,3.3-11.2,.6-1.6,1.4-2.8,2.4-4.1,.9-1.2,1.6-2.4,1.6-4,.3-4-1.1-8-.8-11.9,.1-1.3,.4-2.6,1-3.8,.8-1.5,2-2.6,3.2-3.9,2.3-2.5,2.6-5.9,3.2-9.2,.3-1.7,.6-3.4,1.4-5,.7-1.6,1.8-2.8,3.1-4,1.5-1.3,2.9-2.5,4.1-4,1.1-1.5,2-3,2.8-4.6,1.8-3.6,3.5-7.3,5.9-10.6,2-2.7,4.8-5.3,8-6.6,1.6-.6,3.2-.6,4.9-.7,1.7-.1,3.4-.6,5.1-.6,3.5,.1,7.1,2.2,9.9,4.3,2.9,2.2,5.1,4.9,6.6,8.2,1.8,3.7,3.1,7.6,4.9,11.4,1.8,3.7,4.1,7,6.1,10.6,.9,1.8,1.8,3.5,2.4,5.4,.5,1.6,.7,3.4,.8,5.1,.3,3.7,.2,7.3,1.6,10.7,1.5,3.5,3.9,6.6,5.4,10,1.6,3.5,2.7,7.3,2.1,11.2-.3,2-.8,3.8-1,5.8-.2,1.8,0,3.7,.4,5.5,.4,1.9,1.1,3.8,1.5,5.7,.1,.4,.4,1.6-.2,1.6s-1.3-.8-1.7-1.1c-2.1-1.9-4-4-4.2-7-.1-1.8,.2-3.5,.1-5.2-.1-.9-.3-1.6-.8-2.3-.6-.7-1.4-1.2-2.1-1.7-3-2.1-5.4-5.2-7.1-8.3-1.5-2.7-2.3-5.6-1.8-8.7,.3-2,1.1-3.8,1.7-5.7,.4-1.3,.8-2.7,.8-4.1-.2-3.7-3.9-5.4-6.8-7-3.5-2-6.7-4.3-10-6.5"/>
	</g>
	<g id="POLYLINE-41">
		<path class="st1" d="M322.92,66.57c-1.2-.8-2.5-1.3-3.9-.9-1.3,.4-2.5,1.3-3.5,2.3-2.5,2.3-3.9,5.4-4.8,8.7-1,3.6-1.6,7.5-1.2,11.3,.4,3.5,1.8,6.6,3.8,9.5,1.7,2.3,3.9,4.7,6.7,5.8,2.3,.8,4.6,.2,6.6-1.2,2.7-1.9,4.9-4.9,5.8-8.1,.9-3,.1-5.8-.5-8.8-.8-3.9-1.1-8-1.6-11.9-.2-1.3-.3-2.9-1.5-3.6-1.2-.7-2.7-.9-3.9-1.6-.8-.6-1.3-1.1-2-1.5Z"/>
	</g>
</g>

<g id="AG-OUTLINE">
	<g id="POLYLINE">
		<path class="st2" d="M261.42,226.07c-1.3-.1-2.9-.4-3.2-2-.3-1.5,.4-3.2,.6-4.7,.8-3.9,.8-7.9,1.5-11.8,.4-2,1.1-3.8,1.5-5.7,.4-1.7,.6-3.4,.6-5.2s-.3-3.7,0-5.6c.1-.6,.2-1.1,.5-1.6,.3-.6,.8-1.2,.9-1.9,.3-1.5-.2-3-.3-4.5-.1-1.7,.7-2.8,1.6-4.2,1.6-2.3,.8-5.4,1.6-8,.5-1.5,1.3-3,1.6-4.6,.4-1.6,.3-3.4,.4-5.1,.1-1.8,.4-3.5,.8-5.2,.2-.8,.4-1.7,.7-2.5,.1-.3,.2-.6,.1-.8,0-.1-.2-.2-.2-.3-.1-.3-.1-.7-.1-1-.1-1.6,.2-3.3,.6-4.8,.2-.8,.4-1.7,.8-2.5,.2-.4,.4-.9,.6-1.3,.3-.5,.2-.8,.1-1.3-.2-1.8-.3-3.7-.2-5.5,.1-1.8,.6-3.5,1.1-5.2,.4-1.6,.6-3.2,.8-4.9,.1-1.8,.1-3.7,.6-5.3,.5-1.5,1.7-2,3-2.7,.9-.4,1.6-1,2.5-1.6,.4-.3,.8-.5,1.1-.8,.3-.1,.9-.4,.9-.6,.1-.1-.1-.4-.1-.6-.1-.4-.1-.7-.1-1.1-.1-.6-.2-1.3-.3-1.9-.1-.8-.2-1.7-.2-2.5-.1-1.6,.1-3.1,.5-4.6,.4-1.3,1-2.4,2-3.4,1-1.1,2.1-2.1,2.9-3.4,.8-1.5,1.2-3.1,1.5-4.7,.4-1.8,.6-3.7,1.1-5.6,.4-1.5,.9-2.9,1.9-4.1,1.1-1.5,2.6-2.7,4-3.9,2.7-2.5,4.4-5.6,5.9-8.9,1.8-3.5,3.5-7.1,6.1-10.1,2-2.3,4.7-4.6,7.7-5.5,1.6-.4,3.2-.3,4.8-.5,1.7-.2,3.4-.6,5.1-.4,3.4,.4,6.8,2.5,9.5,4.6,2.8,2.2,4.8,4.9,6.3,8.1,1.8,3.6,3,7.4,4.7,11,1.7,3.5,3.9,6.8,5.9,10.2,1.8,3.2,3.2,6.4,3.5,10.1,.3,3.6,.1,7.3,1.3,10.7,1.3,3.4,3.5,6.4,5.1,9.6,1.7,3.3,3,7,3,10.6s-1.5,7.3-1.1,11c.2,1.7,.6,3.4,1.1,5,.3,1,.6,2,.8,3,.1,.3,.2,.7,.1,1,0,.3-.2,.3-.3,.5-.2,.3-.1,1.1-.1,1.5,0,.3-.1,.7-.1,1-.1,1.4-.1,2.8-.2,4.2-.1,1.8-.2,3.7-.4,5.5-.2,1.4-.4,2.8-.1,4.2,.3,1.7,.9,3.4,1.5,5,.4,1.3,.7,2.6,.7,3.9-.1,1.5-.4,3-.2,4.6,.2,1.8,.7,3.5,.8,5.3,.2,1.8-.1,3.7-.1,5.6,0,1.5,.3,2.9,.8,4.4,.6,1.7,.7,3.3,.8,5.1,.1,3.9,.7,7.6,1.3,11.4,.6,4.2,1.2,8.3,1.6,12.5,.2,1.9,.3,3.8,.3,5.8,0,.8,.1,1.8-.3,2.4-.2,.3-.6,.4-.7,.6-.1,.3,.1,1.1,.1,1.5,.3,3.8,.3,7.7-.6,11.4-.8,3-2.1,5.9-4.2,8.2-1.9,2.1-4.4,3.1-7.2,2.8,0,2.5,.1,5.1,.1,7.6,.1,5.9,.1,11.8,.2,17.8,.1,6.8,.2,13.7,.3,20.5,.1,5.2,.1,10.5,.2,15.7,0,2.5,.2,5.1,.1,7.6-.1,1.6-.6,3-2.2,3.7-1.9,.7-4.1,.9-6.1,1.1-4.4,.6-8.8,1-13.2,1.7-.8,.1-1.6,.3-2.3,.4-.1,0-.4,0-.5,.1s-.1,.7-.1,.9c-.1,1.1-.2,2.1-.3,3.2-.2,2.1-.3,4.3-.3,6.4s.1,4.2,.4,6.2c.3,2.3,.8,4.6,1.1,6.8,.3,2,.1,3.7-.3,5.6-.3,1.7,.1,3.5-.2,5.2-.2,.8-.6,1.5-.8,2.3-.2,1-.1,2.1-.2,3.1,0,.8-.1,1.6-.3,2.4-.1,.3-.3,.6-.6,.9-.2,.2-.4,.3-.6,.4-.1,.1-.5,.1-.6,.2-.3,.3,0,1.5,0,1.8,0,.5,0,1,.1,1.5,.1,1.1,.1,2.3,.1,3.4,.1,2.4,.4,4.8,.6,7.2,.2,1.9,.4,3.8,.3,5.7-.1,1.4-.3,3.1-1.3,4.1-1.1,.9-2.7,1.1-4,1.3-2.3,.2-4.7,.1-7,.1-1.6,0-3.6,.1-4-1.8-.4-1.7-.3-3.6-.1-5.3,.2-1.9,.6-3.8,.9-5.7,.4-2.8,.9-5.7,1.4-8.5,.1-.8,.3-1.5,.4-2.3s.3-1.5,.4-2.3c.1-.5,.1-.8,.1-1.3-.1-.8,0-1.5-.1-2.3s-.4-1.4-.8-2.1c-.4-.8-.9-1.5-.9-2.4s-.3-1.5-.8-2.2c-.8-1.2-1.1-2.5-.8-4,.3-1.6,.8-2.9,.6-4.6-.3-2.1-.9-4.2-1.2-6.3-.3-2,0-4-.2-6-.2-2.1-1-4-1.6-5.9-.6-2-.8-4.1-.9-6.2-.1,2.7-.3,5.4-.3,8.2,0,2.5,.4,5,.9,7.5,.4,1.8,.8,3.5,.2,5.3-.3,1.1-.9,2.1-1.1,3.2-.1,.9,.1,1.8,.4,2.6,.4,1.1,1.2,2.2,1.5,3.5,.3,1-.2,2-.3,3-.3,2.5,.2,4.9,.1,7.3,0,.4-.1,.8-.1,1.2-.1,.3-.2,.4-.2,.6s.1,.6,.2,.8c.1,.8,.3,1.6,.2,2.5-.1,1.1-.3,2.3-.4,3.4s-.1,2.3,0,3.5c.2,2.9,.6,5.8,.8,8.7,.1,1.1,.2,2.2,.3,3.3,.1,1.1,.1,2.4-.6,3.4-.5,.8-1.5,1-2.4,1.1-1.2,.1-2.5,.1-3.7,.2-2.3,.1-4.9,.2-7.2-.4-.9-.3-1.8-.7-2.1-1.6-.4-.8-.4-1.8-.4-2.7-.1-2.7,.1-5.3,.3-7.9,.2-2.5,.4-5.1,.8-7.6,.2-1.3,.5-2.7,.8-4,.1-.3,.2-.6,.1-.8-.1-.2-.3-.3-.4-.5-.2-.5-.2-1-.2-1.5,0-1.1,.1-2.1-.3-3.2-.4-.9-1.1-1.7-1.1-2.8,.1-1.1,.6-2.2,.8-3.3,.2-1.1,.1-2.1-.3-3.2-.4-.9-.9-1.7-1.7-2.3-.8-.6-1.6-1-2.3-1.7-1.5-1.5-1.7-3.5-1.8-5.5-.2-2.7-.1-5.3,.1-8,.1-1.3,.1-2.5,.1-3.7,0-.6-.1-1.1-.1-1.7,0-.4-.1-.9-.1-1.4,0-.4,.1-.9-.1-1.3-.1-.3-.1-.2-.4-.3-.4-.1-.8-.1-1.1-.1-.6-.1-1.2-.1-1.8-.2-1.4-.1-2.8-.3-4.1-.4-2.5-.3-4.9-.8-7.2-1.6-5.2-1.6-10.1-4-15.2-5.9-2.2-.8-4.7-1.4-6.8-2.7-1-.6-1.5-1.3-1.3-2.4,.2-1.2,.7-2.3,1-3.5,1.5-5,2.4-10.1,3.4-15.2,.8-4.4,1.6-8.8,2.3-13.2,1.3-7.6,2.7-15.2,4-22.8,.8-4.4,1.5-8.7,2.3-13,.2-.9,.3-1.8,.5-2.7,.1-.2,.3-1,.3-1.2-.1-.1-.6-.1-.7-.2-.3-.1-.5-.2-.8-.3-.5-.3-.9-.6-1.4-.9-1.6-1.3-3.4-2.7-4.7-4.5-2.5-3.5-2.1-8.6-1.6-12.6-.3-1.8,.3-4,1-6.1Z"/>
	</g>
	<g id="POLYLINE-2">
		<path class="st2" d="M91.82,232.67c-.3,4-.4,8.2-.6,12.2-.1,1.5-.1,2.9-.3,4.4-.1,1.3-.3,2.7-1.8,3.1-1.3,.3-2.7,.1-3.9-.1-1.6-.3-3.3-.7-4.9-1.3-3.4-1.1-6.7-2.8-9.9-4.4-2.5-1.3-4.9-2.7-7.3-4-4.6-2.6-9.3-5.2-13.9-7.7-2.7-1.5-5.4-3-8.1-4.5-.9-.5-2.7-1.2-2.6-2.4,0-.6,.4-1.2,.8-1.7,.5-.8,1-1.6,1.5-2.3,1.4-2.5,2.5-5.1,3.5-7.7,1.6-3.8,3.2-7.6,4.7-11.4,2-4.9,4-9.7,6-14.6,.6-1.4,1.1-2.8,1.8-4.2,.1-.1,.3-.4,.3-.6,0-.4-.6-1.1-.8-1.5-1.8-3.6-3.7-7.2-5.5-10.8-1.5-3-3.2-6.2-3.7-9.5-.3-1.8-.6-3.5-.9-5.2-.3-1.6-.3-3.4-.1-5,.5-3.4,2.2-6.3,3.4-9.5,.4-1.3,.8-2.5,1-3.9,.2-1.5,.3-3.1,.7-4.6,.4-1.3,1.2-2.3,2-3.4,.9-1.3,1.6-2.5,2.3-3.9,.7-1.5,1.3-3.1,2.1-4.5s2.1-2.5,2.8-3.9c.6-1.3,.4-2.7,.6-4.1,.2-1.4,.7-2.4,1.3-3.4,1.8-3.2,3.1-6.4,4.2-9.9,.5-1.5,.8-3.2,1.6-4.7,.7-1.4,2.3-1.8,3.5-2.5,.4-.3,.8-.5,1.1-.8,.2-.1,.9-.6,.9-.8,0-.1-.4-.6-.5-.8-.2-.3-.3-.6-.4-.9-.4-.9-.4-2.1-.3-3.1,.1-.6,.3-1.3,.5-1.8,.3-.8,.4-1.6,.6-2.4,.4-1.5,.9-2.7,1.6-4,.3-.6,.5-1.4,.8-2,.3-.7,.8-1.2,1.3-1.8,.6-.6,1.1-1.1,1.6-1.8,.5-.6,.8-1.4,1.2-2,1.8-2.7,5.5-2.5,8.2-3.7,.6-.3,.9-.8,1.5-.9,.7-.3,1.5-.2,2.2-.2,1.5,.1,2.8,.3,4.2-.1,1.4-.4,2.6-.6,4-.5,1.6,.1,3.1,.4,4.7,.6,1.1,.1,2.3,0,3.4-.2,.3-.1,.6-.1,.9-.3,.4-.1,.4-.2,.3-.6-.1-.8-.2-1.6-.2-2.5v-2.6c0-.4,0-.9,.1-1.3,.1-.6,.1-.7-.1-1.2-.6-1.4-1-2.8-1.1-4.3-.1-1.7,.1-3.4,.3-5.1,.1-1.6,.1-3.3,.3-4.9,.4-2.8,1.3-6,3-8.3,.8-1.1,1.8-1.5,2.9-2.1,1.1-.7,1.8-2,2.7-2.9,1.8-2,4.2-2.8,6.8-2.4,1.8,.3,3.6,.6,5.5,.7,1.5,.1,2.9,.2,4.2,1,1.3,.9,2.5,2,3.8,2.9s2.7,1.6,3.9,2.7c2,1.8,3.6,4.5,4.1,7.1,.5,2.7-.7,5.1-1.2,7.6-.3,1.6-.4,3.3-.6,4.9,0,.2-.1,.6-.1,.8,.1,.2,0,0,.1,.1,.2,.2,.4,.3,.5,.5,.3,.6,.4,1.3,.5,1.9,.4,2.7-.5,5.6-2,7.8-.4,.6-1,1.3-1.8,1.6-.6,.3-1.5,.1-2,.5-.9,.7-1,2.7-1.2,3.7,1.5,.3,2.9,.5,4.4,.6s2.8,.1,4.3,.3c1,.2,2,.4,2.8,1,1.1,.6,2,1.5,3.2,2,1.3,.5,2.7,.8,4,1.3,1.2,.5,2,1.3,2.9,2.2,.9,.9,1.8,1.6,3.1,2.1,1.4,.6,2.8,1,3.8,2.2,1,1.1,1.6,2.6,2.4,3.8,.6,.9,1.5,1.6,2,2.7,.8,1.6,.9,3.6,.8,5.3-.1,.9-.4,1.8-.8,2.7-.5,1.3,.1,2.1,.7,3.2,.4,.9,.7,1.8,.4,2.7-.2,.5-.4,1.1-.9,1.4-.5,.4-1,.4-1.5,1-.6,.8-1,2-1.9,2.5-.2,.1-.4,.2-.7,.3h-.4c-.3,0-.2-.1-.3,.2-.1,.3,0,.9-.1,1.3v1.1c0,2.9,.2,5.9,.6,8.8,.4,3,1.1,5.9,1.8,8.9,.6,3,.9,6.1,1.3,9.2,.3,3,.6,5.9,1.4,8.8,.8,2.9,2.1,5.8,3.2,8.6,1,2.8,1.9,5.5,2.3,8.4,.4,3,.8,6.1,1.4,9.1,.3,1.4,.6,2.8,1,4.2,.4,1.3,1,2.3,1.5,3.6,.9,2.3,.9,5,.8,7.4-.1,.6-.1,1.2-.3,1.8-.1,.7,.1,1.3,.1,2,.1,1.2-.1,2.4-.4,3.5-.6,2-1.6,4-3.1,5.6-.8,.8-1.8,1.5-2.9,1.5,.1,0,.9,2.9,1.1,3.2,.3,.9,.6,2,.9,2.9,.6,2,1.2,4.1,1.6,6.2,.9,4.4,1.2,8.9,1.5,13.3,.3,4.2,.8,8.4,1.5,12.6,.2,1.2,.6,3.2-.8,3.7-1.6,.6-3.9-.1-5.5-.4-2.3-.5-4.5-1.1-6.7-1.7-2-.5-4-.9-6-1.5-.5-.1-1.1-.3-1.6-.4-.1,3.2-.4,6.4-.8,9.7-.4,3-.8,6-1.3,9-.6,4.2-1.2,8.4-1.8,12.6-.4,2.7-.7,5.3-.9,7.9-.1,1.5-.2,3.1-.1,4.6,.1,1.5,.3,2.8,.2,4.3-.1,2.8-1.2,5.5-2,8.2-.4,1.4-.8,2.8-.9,4.3-.2,1.6-.1,3.2-.1,4.9,0,3-.6,5.8-1.5,8.5-1,3.2-1.8,6.4-2.3,9.9-.4,3.2-.4,6.5-.6,9.8-.1,3-.3,6-.9,9s-1.8,5.8-3.1,8.5c-.7,1.4-1.6,2.8-1.3,4.4,.2,1.3,.6,2.5,.9,3.7,.8,2.3,2.2,5.2,1.1,7.6-.6,1.4-1.8,2.4-2.4,3.7-.5,1-.4,2.1-.4,3.2,.1,1.3,.3,2.8-.2,4.1-.1,.2-.1,.4-.3,.6-.1,.1-.3,.4-.3,.4,0,.2,.6,.6,.8,.7,.5,.4,.9,.9,1.4,1.4,1.8,2,2.7,4.5,4.6,6.4,1.5,1.5,3.2,2.5,5.2,2.8,1.5,.3,3,.3,4.5,.5,1.1,.1,2.1,.4,3,1,.9,.7,1.5,1.8,1.7,3,.4,1.8-.6,3-2.1,3.6-2.6,1-5.6,1-8.3,1.1-3.2,.1-6.3,0-9.5,0-3.5,0-7.1-.1-10.6,0-3.2,0-6.4,.2-9.6,.1-1.2,0-2.5,0-3.7-.4-1.3-.4-1.5-1.5-1.6-2.7-.4-3-.4-6.2-.2-9.2,.1-1.5,.4-2.9,.7-4.4,.1-.2,.2-.6,.2-.8,0-.1-.1-.1-.1-.3-.1-.3-.3-.4-.4-.7-.2-.6-.3-1.3-.1-1.9,.1-.8,.4-1.6,.8-2.3,.3-.4,.5-.9,.8-1.3,.4-.5,.9-1.1,1.1-1.7,.4-1.1-.9-2.1-1.5-2.9-.7-1.1-1.2-2.3-1.6-3.5-.7-2.3-1.1-4.9-.7-7.3,.5-2.9,2.1-5.5,3-8.3,.9-3,1.5-6.1,2-9.1,.6-3.7,1.1-7.5,1.8-11.3,.4-2.9,.9-5.8,1.5-8.6,.3-1.5,.8-2.9,1.3-4.4,.4-1.1,.8-2.3,.9-3.5,.3-2.8-.6-5.5-.5-8.3,.1-2.9,1.5-5.4,2.2-8.2,.3-1.1,.2-2-.2-3-.4-1.1-.8-2.1-.9-3.3-.2-3,.4-6,.3-9-.2-3.3-.7-6.6-1-9.9-.4-3.2-.7-6.4-1.1-9.5-.7,3.2-1.3,6.3-2,9.5-.6,3-1.1,6.1-1.5,9.2-.4,3.2-.8,6.3-1.3,9.5-.4,2.4-.7,5.4-2.3,7.3-.8,1-1.9,1.7-2.5,2.8-.6,1.1-.9,2.4-1.3,3.6s-.7,2.5-1.3,3.6c-.6,1.1-1.6,1.8-2.5,2.7-1.6,1.8-1.8,4.7-2.4,7-.7,2.7-1.8,5.2-2.9,7.8-1.4,3-2.9,5.9-4,9-1,2.7-1.6,5.6-3,8.2-1.4,2.7-3.4,5.1-5,7.6-.5,.8-1.6,2.1-1.4,3.1,.1,.5,.6,.8,.9,1.1,.4,.4,.8,.9,1.1,1.5,1.2,2.1,2.2,4.6,2.5,7,.1,1.1,0,2.1-.6,3.1-.8,1.2-1.8,2.1-2.7,3.3-.7,1-1.1,2.2-1.6,3.3-.2,.4-.4,.8-.6,1.2-.1,.1-.2,.3-.3,.4-.1,.2-.5,.4-.6,.6-.1,.3,0,.8,0,1.1,.1,2.8,.4,5.6,1.1,8.3,.6,2.6,2.1,4.8,2.8,7.4,.5,2,.5,4.4-1.6,5.4-2.1,1.1-5,1.1-7.3,1.1-3,.1-6.1,0-9.2-.3-1.1-.1-2.4-.3-3.2-1.3-.6-.9-.8-2-.8-3.1-.2-2.8,.2-5.7,0-8.5-.3-3.1-1.3-6.1-1.7-9.2-.2-1.5-.3-3.1-.1-4.7,.1-.7,.1-1.5,.2-2.1,.1-.4,.1-.8,.1-1.1,.1-.3,.2-.8,.2-1.1-.1-.4-.5-1-.7-1.5s-.4-1-.5-1.5c-.3-1-.4-2-.4-3,.1-2.3,1.4-3.9,2.5-5.8,.8-1.3,.7-2.6,.6-4-.1-1.1,.1-2,.4-3,.9-2.8,2.2-5.6,3-8.4,.8-2.6,1.3-5.2,1.9-7.9,.8-3.8,1.6-7.6,2.4-11.4,.6-2.8,1.3-5.6,2.1-8.3,.9-2.9,1.9-5.8,3.1-8.7,1.2-2.7,2.6-5.3,4.4-7.6,.8-1.1,2.1-1.9,2.8-3.2,.5-1.1,.7-2.3,.9-3.4,.4-2.6,.1-5.4,.9-7.9,.4-1.1,.9-2.1,.9-3.3,0-1.4-.3-2.7-.3-4.1-.1-2.5,1-4.8,1.1-7.3,.1-2.6-.2-5.1-.5-7.7-.5-3.9-.9-7.8-1.5-11.8-.3-2.8-.6-5.7-1.1-8.5,0-3.5-.7-6.5-1.2-9.5Z"/>
	</g>
</g>
</svg>
